<?xml version="1.0" encoding="utf-8"?>
<!-- Generator: Adobe Illustrator 16.0.4, SVG Export Plug-In . SVG Version: 6.00 Build 0)  -->
<!DOCTYPE svg PUBLIC "-//W3C//DTD SVG 1.1//EN" "http://www.w3.org/Graphics/SVG/1.1/DTD/svg11.dtd">
<svg version="1.1" id="Layer_1" xmlns="http://www.w3.org/2000/svg" xmlns:xlink="http://www.w3.org/1999/xlink" x="0px" y="0px"
	 width="320px" height="44px" viewBox="0 0 320 44" enable-background="new 0 0 320 44" xml:space="preserve">
<linearGradient id="SVGID_1_" gradientUnits="userSpaceOnUse" x1="132.2295" y1="21.9951" x2="194.377" y2="21.9951" gradientTransform="matrix(0 -1 1 0 137.8438 181.8438)">
	<stop  offset="0" style="stop-color:#29B473"/>
	<stop  offset="0.0265" style="stop-color:#29B477"/>
	<stop  offset="0.0548" style="stop-color:#29B284"/>
	<stop  offset="0.0841" style="stop-color:#28B09A"/>
	<stop  offset="0.1139" style="stop-color:#27ADB8"/>
	<stop  offset="0.144" style="stop-color:#26A9DE"/>
	<stop  offset="0.1456" style="stop-color:#26A9E0"/>
	<stop  offset="0.2097" style="stop-color:#296EB6"/>
	<stop  offset="0.2596" style="stop-color:#2A479A"/>
	<stop  offset="0.2856" style="stop-color:#2B388F"/>
	<stop  offset="0.3148" style="stop-color:#35368F"/>
	<stop  offset="0.3638" style="stop-color:#4E328F"/>
	<stop  offset="0.4259" style="stop-color:#782B8E"/>
	<stop  offset="0.4578" style="stop-color:#90278E"/>
	<stop  offset="0.4846" style="stop-color:#94278D"/>
	<stop  offset="0.5124" style="stop-color:#A1278B"/>
	<stop  offset="0.5407" style="stop-color:#B52886"/>
	<stop  offset="0.5692" style="stop-color:#D22880"/>
	<stop  offset="0.5897" style="stop-color:#EC297B"/>
	<stop  offset="0.6171" style="stop-color:#EC2C76"/>
	<stop  offset="0.6492" style="stop-color:#ED3668"/>
	<stop  offset="0.6837" style="stop-color:#EE4650"/>
	<stop  offset="0.7195" style="stop-color:#F05C30"/>
	<stop  offset="0.7325" style="stop-color:#F16522"/>
	<stop  offset="0.8017" style="stop-color:#F6B22B"/>
	<stop  offset="0.8567" style="stop-color:#F9EC31"/>
	<stop  offset="0.8821" style="stop-color:#FBF165"/>
	<stop  offset="0.9118" style="stop-color:#FCF69C"/>
	<stop  offset="0.9395" style="stop-color:#FDFAC7"/>
	<stop  offset="0.9643" style="stop-color:#FEFDE5"/>
	<stop  offset="0.9853" style="stop-color:#FFFEF8"/>
	<stop  offset="1" style="stop-color:#FFFFFF"/>
</linearGradient>
<rect x="-1.987" y="-12.533" opacity="0.7" fill="url(#SVGID_1_)" width="323.652" height="62.147"/>
<g opacity="0.6">
	<rect x="225.701" y="44.909" opacity="0.06" fill="#FFFFFF" width="29.661" height="78.513"/>
	<rect x="45.949" y="54.519" opacity="0.08" fill="#FFFFFF" width="29.701" height="70.624"/>
	<rect x="165.788" y="43.316" opacity="0.08" fill="#FFFFFF" width="29.7" height="81.826"/>
	<rect x="195.839" y="48.43" opacity="0.08" fill="#FFFFFF" width="29.7" height="76.713"/>
	<rect x="225.682" y="54.519" opacity="0.08" fill="#FFFFFF" width="29.7" height="70.624"/>
	<rect x="-1.987" y="47.817" opacity="0.06" fill="#FFFFFF" width="27.97" height="75.563"/>
	<rect x="25.983" y="58.306" opacity="0.06" fill="#FFFFFF" width="19.985" height="65.096"/>
	<rect x="45.968" y="73.547" opacity="0.06" fill="#FFFFFF" width="29.721" height="49.854"/>
	<rect x="75.756" y="63.176" opacity="0.06" fill="#FFFFFF" width="29.721" height="60.226"/>
	<rect x="105.467" y="50.614" opacity="0.06" fill="#FFFFFF" width="29.973" height="72.787"/>
	<rect x="135.44" y="54.519" opacity="0.06" fill="#FFFFFF" width="29.985" height="68.883"/>
	<rect x="165.425" y="54.519" opacity="0.06" fill="#FFFFFF" width="30.151" height="68.883"/>
	<rect x="195.612" y="70.587" opacity="0.06" fill="#FFFFFF" width="30.152" height="52.814"/>
	<rect x="225.765" y="77.142" opacity="0.06" fill="#FFFFFF" width="30.151" height="46.26"/>
	<rect x="255.518" y="57.345" opacity="0.06" fill="#FFFFFF" width="36.485" height="66.036"/>
	<rect x="292.094" y="43.316" opacity="0.06" fill="#FFFFFF" width="28.724" height="80.064"/>
	<rect x="225.701" y="44.909" opacity="0.06" fill="#FFFFFF" width="29.661" height="78.513"/>
	<rect x="165.788" y="43.316" opacity="0.08" fill="#FFFFFF" width="29.7" height="81.826"/>
	<rect x="195.839" y="48.43" opacity="0.08" fill="#FFFFFF" width="29.7" height="76.713"/>
	<rect x="-1.987" y="47.817" opacity="0.06" fill="#FFFFFF" width="27.97" height="75.563"/>
	<rect x="25.983" y="58.306" opacity="0.06" fill="#FFFFFF" width="19.985" height="65.096"/>
	<rect x="75.756" y="63.176" opacity="0.06" fill="#FFFFFF" width="29.721" height="60.226"/>
	<rect x="105.467" y="50.614" opacity="0.06" fill="#FFFFFF" width="29.973" height="72.787"/>
	<rect x="135.44" y="54.519" opacity="0.06" fill="#FFFFFF" width="29.985" height="68.883"/>
	<rect x="165.425" y="54.519" opacity="0.06" fill="#FFFFFF" width="30.151" height="68.883"/>
	<rect x="195.612" y="70.587" opacity="0.06" fill="#FFFFFF" width="30.152" height="52.814"/>
	<g>
		<rect x="-1.987" y="-14.386" opacity="0.04" fill="#FFFFFF" width="27.97" height="137.808"/>
		<rect x="292.849" y="-14.386" opacity="0.04" fill="#FFFFFF" width="27.969" height="137.808"/>
		<rect x="25.983" y="2.93" opacity="0.04" fill="#FFFFFF" width="19.985" height="120.492"/>
		<rect x="45.968" y="30.862" opacity="0.04" fill="#FFFFFF" width="29.972" height="92.56"/>
		<rect x="75.63" y="15.653" opacity="0.04" fill="#FFFFFF" width="29.973" height="107.769"/>
		<rect x="105.603" y="-4.274" opacity="0.04" fill="#FFFFFF" width="29.973" height="127.696"/>
		<rect x="135.756" y="9.36" opacity="0.04" fill="#FFFFFF" width="29.972" height="114.062"/>
		<rect x="165.729" y="2.93" opacity="0.04" fill="#FFFFFF" width="29.974" height="120.492"/>
		<rect x="195.702" y="15.653" opacity="0.04" fill="#FFFFFF" width="29.973" height="107.769"/>
		<rect x="225.546" y="30.862" opacity="0.04" fill="#FFFFFF" width="29.972" height="92.56"/>
		<rect x="255.518" y="15.653" opacity="0.04" fill="#FFFFFF" width="37.331" height="107.769"/>
		<rect x="-1.987" y="9.36" opacity="0.06" fill="#FFFFFF" width="27.97" height="114.062"/>
		<rect x="25.983" y="21.422" opacity="0.06" fill="#FFFFFF" width="19.985" height="102"/>
		<rect x="45.968" y="40.302" opacity="0.06" fill="#FFFFFF" width="29.662" height="83.12"/>
		<rect x="75.94" y="23.672" opacity="0.06" fill="#FFFFFF" width="29.818" height="99.75"/>
		<rect x="105.758" y="2.93" opacity="0.06" fill="#FFFFFF" width="29.998" height="120.492"/>
		<rect x="135.576" y="15.653" opacity="0.06" fill="#FFFFFF" width="29.998" height="107.769"/>
		<rect x="165.574" y="26.426" opacity="0.06" fill="#FFFFFF" width="30.128" height="96.996"/>
		<rect x="195.857" y="35.077" opacity="0.06" fill="#FFFFFF" width="29.662" height="88.345"/>
		<rect x="255.362" y="30.862" opacity="0.06" fill="#FFFFFF" width="36.641" height="92.56"/>
		<rect x="292.003" y="0.467" opacity="0.06" fill="#FFFFFF" width="29.662" height="122.955"/>
		<rect x="-1.987" y="26.426" opacity="0.08" fill="#FFFFFF" width="27.97" height="98.717"/>
		<rect x="26.151" y="35.077" opacity="0.08" fill="#FFFFFF" width="19.779" height="90.065"/>
		<rect x="75.766" y="35.077" opacity="0.08" fill="#FFFFFF" width="29.701" height="90.065"/>
		<rect x="105.739" y="18.406" opacity="0.08" fill="#FFFFFF" width="29.701" height="106.736"/>
		<rect x="135.725" y="32.041" opacity="0.08" fill="#FFFFFF" width="29.7" height="93.102"/>
		<rect x="255.584" y="38.393" opacity="0.08" fill="#FFFFFF" width="36.419" height="86.938"/>
		<rect x="292.094" y="21.422" opacity="0.08" fill="#FFFFFF" width="29.479" height="103.909"/>
		<rect x="-1.987" y="-14.386" opacity="0.04" fill="#FFFFFF" width="27.97" height="137.808"/>
		<rect x="292.849" y="-14.386" opacity="0.04" fill="#FFFFFF" width="27.969" height="137.808"/>
		<rect x="25.983" y="2.93" opacity="0.04" fill="#FFFFFF" width="19.985" height="120.492"/>
		<rect x="45.968" y="30.862" opacity="0.04" fill="#FFFFFF" width="29.972" height="92.56"/>
		<rect x="75.63" y="15.653" opacity="0.04" fill="#FFFFFF" width="29.973" height="107.769"/>
		<rect x="105.603" y="-4.274" opacity="0.04" fill="#FFFFFF" width="29.973" height="127.696"/>
		<rect x="135.756" y="9.36" opacity="0.04" fill="#FFFFFF" width="29.972" height="114.062"/>
		<rect x="165.729" y="2.93" opacity="0.04" fill="#FFFFFF" width="29.974" height="120.492"/>
		<rect x="195.702" y="15.653" opacity="0.04" fill="#FFFFFF" width="29.973" height="107.769"/>
		<rect x="225.546" y="30.862" opacity="0.04" fill="#FFFFFF" width="29.972" height="92.56"/>
		<rect x="255.518" y="15.653" opacity="0.04" fill="#FFFFFF" width="37.331" height="107.769"/>
		<rect x="-1.987" y="9.36" opacity="0.06" fill="#FFFFFF" width="27.97" height="114.062"/>
		<rect x="25.983" y="21.422" opacity="0.06" fill="#FFFFFF" width="19.985" height="102"/>
		<rect x="45.968" y="40.302" opacity="0.06" fill="#FFFFFF" width="29.662" height="83.12"/>
		<rect x="75.94" y="23.672" opacity="0.06" fill="#FFFFFF" width="29.818" height="99.75"/>
		<rect x="105.758" y="2.93" opacity="0.06" fill="#FFFFFF" width="29.998" height="120.492"/>
		<rect x="135.576" y="15.653" opacity="0.06" fill="#FFFFFF" width="29.998" height="107.769"/>
		<rect x="165.574" y="26.426" opacity="0.06" fill="#FFFFFF" width="30.128" height="96.996"/>
		<rect x="195.857" y="35.077" opacity="0.06" fill="#FFFFFF" width="29.662" height="88.345"/>
		<rect x="255.362" y="30.862" opacity="0.06" fill="#FFFFFF" width="36.641" height="92.56"/>
		<rect x="292.003" y="0.467" opacity="0.06" fill="#FFFFFF" width="29.662" height="122.955"/>
		<rect x="-1.987" y="26.426" opacity="0.08" fill="#FFFFFF" width="27.97" height="98.717"/>
		<rect x="26.151" y="35.077" opacity="0.08" fill="#FFFFFF" width="19.779" height="90.065"/>
		<rect x="45.949" y="13" opacity="0.08" fill="#FFFFFF" width="29.701" height="70.624"/>
		<rect x="75.766" y="35.077" opacity="0.08" fill="#FFFFFF" width="29.701" height="90.065"/>
		<rect x="105.739" y="18.406" opacity="0.08" fill="#FFFFFF" width="29.701" height="106.736"/>
		<rect x="135.725" y="32.041" opacity="0.08" fill="#FFFFFF" width="29.7" height="93.102"/>
		<rect x="225.682" y="14" opacity="0.08" fill="#FFFFFF" width="29.7" height="70.624"/>
		<rect x="255.584" y="38.393" opacity="0.08" fill="#FFFFFF" width="36.419" height="86.938"/>
		<rect x="292.094" y="21.422" opacity="0.08" fill="#FFFFFF" width="29.479" height="103.909"/>
		<rect x="45.968" y="11.547" opacity="0.06" fill="#FFFFFF" width="29.721" height="49.854"/>
		<rect x="225.765" y="17.142" opacity="0.06" fill="#FFFFFF" width="30.151" height="46.26"/>
	</g>
	<rect x="255.518" y="57.345" opacity="0.06" fill="#FFFFFF" width="36.485" height="66.036"/>
	<rect x="292.094" y="43.316" opacity="0.06" fill="#FFFFFF" width="28.724" height="80.064"/>
</g>
</svg>
