<?xml version="1.0" encoding="utf-8"?>
<!-- Generator: Adobe Illustrator 16.0.0, SVG Export Plug-In . SVG Version: 6.00 Build 0)  -->
<!DOCTYPE svg PUBLIC "-//W3C//DTD SVG 1.1//EN" "http://www.w3.org/Graphics/SVG/1.1/DTD/svg11.dtd">
<svg version="1.1" id="Layer_1" xmlns="http://www.w3.org/2000/svg" xmlns:xlink="http://www.w3.org/1999/xlink" x="0px" y="0px"
	 width="52px" height="52px" viewBox="-11.438 129.5 52 52" enable-background="new -11.438 129.5 52 52" xml:space="preserve">
<g id="Layer_1_1_" display="none">
	<g display="inline">
		<g>
			<path id="svgCog" fill="none" stroke="#ADADAD" stroke-miterlimit="10" d="M33.815,18.188l-2.524-0.409
				c-0.329-0.055-0.614-0.126-0.631-0.162c-0.021-0.036-0.106-0.411-0.106-0.521c0-0.113,0.242-0.341,0.533-0.507l2.235-1.271
				c0.291-0.164,0.438-0.562,0.321-0.884l-0.397-1.111c-0.112-0.32-0.476-0.529-0.803-0.465l-2.513,0.495
				c-0.328,0.065-0.617,0.098-0.647,0.071c-0.026-0.026-0.233-0.349-0.272-0.456c-0.035-0.104,0.112-0.401,0.332-0.659l1.676-1.975
				c0.221-0.259,0.223-0.683,0.009-0.941l-0.745-0.907c-0.217-0.263-0.625-0.334-0.909-0.157L27.18,9.675
				c-0.287,0.175-0.549,0.306-0.586,0.291c-0.035-0.017-0.34-0.243-0.41-0.33c-0.068-0.088-0.028-0.42,0.09-0.736l0.914-2.441
				c0.119-0.318-0.021-0.718-0.307-0.889l-1.007-0.593c-0.286-0.171-0.694-0.095-0.905,0.17l-1.611,2.03
				c-0.211,0.267-0.416,0.479-0.452,0.479c-0.039-0.001-0.401-0.111-0.496-0.168c-0.097-0.057-0.167-0.38-0.162-0.724l0.041-2.611
				c0.007-0.34-0.26-0.669-0.589-0.729L20.557,3.22c-0.33-0.061-0.688,0.154-0.795,0.479l-0.836,2.47
				c-0.107,0.323-0.229,0.597-0.267,0.608c-0.036,0.01-0.415,0.036-0.522,0.017c-0.105-0.021-0.283-0.302-0.392-0.625L16.91,3.697
				c-0.107-0.32-0.467-0.536-0.796-0.479l-1.142,0.205c-0.33,0.061-0.594,0.389-0.588,0.729l0.041,2.614
				c0.006,0.34-0.016,0.639-0.047,0.663c-0.027,0.023-0.375,0.178-0.484,0.197c-0.107,0.02-0.367-0.183-0.578-0.448l-1.612-2.03
				c-0.209-0.266-0.617-0.344-0.908-0.173L9.793,5.57c-0.289,0.171-0.429,0.57-0.31,0.89L10.4,8.901
				c0.119,0.316,0.197,0.605,0.178,0.641c-0.021,0.031-0.295,0.297-0.391,0.354c-0.096,0.055-0.409-0.044-0.693-0.22L7.297,8.333
				c-0.285-0.177-0.695-0.106-0.91,0.154L5.641,9.396c-0.213,0.262-0.209,0.686,0.009,0.941l1.678,1.976
				c0.218,0.259,0.392,0.5,0.382,0.538c-0.009,0.041-0.177,0.387-0.246,0.47c-0.072,0.084-0.398,0.103-0.727,0.036l-2.514-0.495
				c-0.328-0.065-0.689,0.146-0.803,0.466L3.024,14.44c-0.115,0.319,0.029,0.718,0.322,0.883l2.238,1.27
				c0.291,0.164,0.534,0.332,0.538,0.371c0.005,0.041-0.036,0.423-0.075,0.528c-0.037,0.104-0.338,0.234-0.668,0.287l-2.527,0.412
				c-0.33,0.052-0.598,0.375-0.598,0.717v1.183c0,0.345,0.268,0.666,0.598,0.721l2.527,0.409c0.33,0.056,0.612,0.129,0.631,0.161
				c0.017,0.035,0.105,0.412,0.104,0.522c0,0.114-0.24,0.343-0.53,0.505l-2.238,1.269c-0.293,0.166-0.438,0.564-0.322,0.884
				l0.396,1.113c0.111,0.32,0.475,0.529,0.803,0.466l2.512-0.496c0.328-0.065,0.619-0.097,0.646-0.07
				c0.028,0.026,0.237,0.349,0.274,0.456c0.036,0.104-0.112,0.4-0.332,0.658l-1.677,1.977c-0.219,0.256-0.223,0.682-0.008,0.942
				l0.746,0.906c0.213,0.262,0.623,0.331,0.91,0.157l2.194-1.347c0.286-0.175,0.549-0.306,0.584-0.292
				c0.036,0.018,0.341,0.244,0.411,0.33c0.068,0.089,0.027,0.418-0.09,0.735L9.479,32.54C9.36,32.857,9.5,33.259,9.788,33.429
				l1.004,0.593c0.289,0.172,0.699,0.095,0.908-0.171l1.611-2.028c0.209-0.267,0.414-0.479,0.453-0.479
				c0.039,0.003,0.4,0.112,0.496,0.167c0.092,0.057,0.166,0.382,0.16,0.723l-0.041,2.614c-0.006,0.342,0.258,0.667,0.588,0.728
				l1.144,0.206c0.327,0.06,0.688-0.155,0.796-0.479l0.835-2.471c0.106-0.318,0.228-0.595,0.265-0.604
				c0.037-0.014,0.416-0.039,0.523-0.018c0.107,0.02,0.287,0.299,0.395,0.621l0.836,2.472c0.109,0.323,0.469,0.538,0.797,0.479
				l1.141-0.204c0.33-0.062,0.596-0.388,0.588-0.729l-0.041-2.615c-0.007-0.339,0.016-0.639,0.046-0.662
				c0.029-0.021,0.376-0.179,0.484-0.197s0.366,0.185,0.577,0.447l1.613,2.029c0.211,0.266,0.619,0.343,0.908,0.172l1.004-0.591
				c0.288-0.173,0.428-0.572,0.309-0.892l-0.916-2.439c-0.12-0.319-0.2-0.607-0.178-0.639c0.021-0.035,0.293-0.303,0.391-0.357
				c0.095-0.055,0.406,0.042,0.693,0.219l2.194,1.346c0.284,0.175,0.695,0.105,0.91-0.156l0.744-0.908
				c0.216-0.259,0.212-0.684-0.007-0.941L29.34,26.69c-0.221-0.258-0.392-0.5-0.385-0.539c0.012-0.037,0.178-0.384,0.248-0.467
				c0.072-0.087,0.398-0.104,0.727-0.038l2.513,0.496c0.327,0.063,0.69-0.146,0.805-0.466l0.396-1.111
				c0.115-0.32-0.029-0.718-0.322-0.884l-2.234-1.269c-0.293-0.166-0.535-0.334-0.543-0.373c-0.004-0.041,0.098-0.619,0.115-0.653
				c0.018-0.035,0.303-0.107,0.63-0.164l2.524-0.41c0.33-0.054,0.601-0.376,0.601-0.718v-1.185
				C34.414,18.564,34.145,18.242,33.815,18.188z"/>
		</g>
		<g>
			
				<ellipse opacity="0.9" fill="#FFFFFF" stroke="#AEADAE" stroke-miterlimit="10" enable-background="new    " cx="18.159" cy="19.59" rx="9.875" ry="10.081"/>
		</g>
	</g>
</g>
<linearGradient id="SVGID_1_" gradientUnits="userSpaceOnUse" x1="206.584" y1="342.7148" x2="256.4736" y2="342.7148" gradientTransform="matrix(1 0 0 1 -217 -187.75)">
	<stop  offset="0" style="stop-color:#FFDD15"/>
	<stop  offset="0.1467" style="stop-color:#F6921E"/>
	<stop  offset="0.3114" style="stop-color:#EC1C24"/>
	<stop  offset="0.4607" style="stop-color:#EC297B"/>
	<stop  offset="0.6641" style="stop-color:#90278E"/>
	<stop  offset="0.6919" style="stop-color:#8C2B91"/>
	<stop  offset="0.7222" style="stop-color:#7E379A"/>
	<stop  offset="0.7538" style="stop-color:#694CA8"/>
	<stop  offset="0.7862" style="stop-color:#4A68BD"/>
	<stop  offset="0.8189" style="stop-color:#238CD7"/>
	<stop  offset="0.8439" style="stop-color:#00ADEE"/>
	<stop  offset="1" style="stop-color:#29B473"/>
</linearGradient>
<polygon opacity="0.7" fill="none" stroke="url(#SVGID_1_)" stroke-miterlimit="10" enable-background="new    " points="
	2.346,176.625 -9.843,154.965 2.346,133.305 26.711,133.305 38.9,154.965 26.711,176.625 "/>
<path opacity="0.7" fill="#A9A8A8" enable-background="new    " d="M4.241,149.897l1.456-10.438h0.165l4.135,8.567l4.095-8.567
	h0.162l1.463,10.438h-0.997l-1.004-7.464l-3.597,7.464H9.86l-3.639-7.521l-1,7.521H4.241z"/>
<path opacity="0.7" fill="#A9A8A8" enable-background="new    " d="M17.329,142.179h1.023l2.585,5.946l2.51-5.946h1.031
	l-4.487,10.543h-1.023l1.449-3.409L17.329,142.179z"/>
<path opacity="0.7" fill="#A9A8A8" enable-background="new    " d="M-4.77,153.232h1.106l3.371,8.064l3.426-8.064h1.106
	l-4.425,10.438h-0.222L-4.77,153.232z"/>
<path opacity="0.7" fill="#A9A8A8" enable-background="new    " d="M6.192,152.77c0.22,0,0.408,0.081,0.564,0.243
	c0.156,0.16,0.234,0.354,0.234,0.581c0,0.221-0.079,0.412-0.234,0.574c-0.156,0.16-0.345,0.24-0.564,0.24
	c-0.216,0-0.402-0.08-0.557-0.24c-0.156-0.162-0.235-0.354-0.235-0.574c0-0.229,0.078-0.424,0.235-0.581
	C5.79,152.853,5.977,152.77,6.192,152.77z M5.712,155.95H6.68v7.72H5.712V155.95z"/>
<path opacity="0.7" fill="#A9A8A8" enable-background="new    " d="M9.336,163.67v-10.7h0.968v4.306
	c0.405-0.511,0.859-0.892,1.36-1.145s1.052-0.381,1.651-0.381c1.062,0,1.972,0.396,2.724,1.19c0.753,0.792,1.129,1.752,1.129,2.882
	c0,1.116-0.379,2.07-1.139,2.86c-0.761,0.789-1.674,1.185-2.743,1.185c-0.612,0-1.167-0.134-1.665-0.406
	c-0.498-0.269-0.938-0.674-1.319-1.214v1.42H9.336V163.67z M13.207,162.911c0.538,0,1.035-0.135,1.491-0.406
	c0.454-0.274,0.817-0.655,1.086-1.148c0.268-0.492,0.404-1.011,0.404-1.559c0-0.549-0.136-1.073-0.407-1.568
	c-0.272-0.497-0.636-0.884-1.093-1.161c-0.458-0.277-0.947-0.417-1.466-0.417c-0.529,0-1.032,0.14-1.508,0.417
	c-0.476,0.277-0.841,0.649-1.096,1.118c-0.256,0.469-0.383,0.996-0.383,1.582c0,0.894,0.286,1.641,0.859,2.243
	C11.666,162.61,12.37,162.911,13.207,162.911z"/>
<path opacity="0.7" fill="#A9A8A8" enable-background="new    " d="M25.846,161.108l0.817,0.44
	c-0.269,0.539-0.578,0.975-0.928,1.305c-0.352,0.331-0.745,0.583-1.184,0.758c-0.438,0.172-0.934,0.257-1.488,0.257
	c-1.227,0-2.188-0.413-2.878-1.236c-0.692-0.824-1.039-1.76-1.039-2.799c0-0.98,0.293-1.853,0.879-2.618
	c0.743-0.975,1.737-1.464,2.983-1.464c1.281,0,2.306,0.5,3.072,1.5c0.544,0.704,0.821,1.584,0.831,2.639h-6.769
	c0.019,0.896,0.299,1.632,0.838,2.205c0.541,0.576,1.207,0.861,2.001,0.861c0.383,0,0.755-0.067,1.117-0.206
	c0.362-0.138,0.671-0.317,0.925-0.544C25.277,161.979,25.553,161.613,25.846,161.108z M25.846,159.029
	c-0.127-0.531-0.316-0.952-0.564-1.27c-0.246-0.317-0.571-0.572-0.979-0.767c-0.407-0.192-0.833-0.289-1.281-0.289
	c-0.738,0-1.373,0.242-1.904,0.729c-0.387,0.354-0.68,0.887-0.879,1.596H25.846z"/>
<path opacity="0.7" fill="#A9A8A8" enable-background="new    " d="M32.499,156.795l-0.622,0.659
	c-0.519-0.514-1.024-0.772-1.519-0.772c-0.315,0-0.583,0.105-0.808,0.319c-0.225,0.213-0.336,0.459-0.336,0.743
	c0,0.25,0.093,0.489,0.277,0.716c0.185,0.232,0.572,0.504,1.165,0.816c0.72,0.385,1.21,0.754,1.468,1.107
	c0.254,0.36,0.381,0.764,0.381,1.214c0,0.633-0.217,1.169-0.651,1.611c-0.436,0.439-0.977,0.658-1.628,0.658
	c-0.435,0-0.849-0.098-1.243-0.29c-0.395-0.194-0.722-0.461-0.981-0.801l0.609-0.712c0.496,0.573,1.019,0.859,1.573,0.859
	c0.389,0,0.718-0.128,0.991-0.383c0.273-0.256,0.41-0.556,0.41-0.903c0-0.282-0.092-0.534-0.27-0.759
	c-0.18-0.215-0.586-0.489-1.22-0.819c-0.678-0.361-1.142-0.717-1.386-1.065c-0.246-0.35-0.367-0.75-0.367-1.199
	c0-0.587,0.194-1.074,0.585-1.462c0.39-0.387,0.884-0.582,1.479-0.582C31.1,155.751,31.797,156.1,32.499,156.795z"/>
</svg>
