<?xml version="1.0" encoding="utf-8"?>
<!-- Generator: Adobe Illustrator 16.0.4, SVG Export Plug-In . SVG Version: 6.00 Build 0)  -->
<!DOCTYPE svg PUBLIC "-//W3C//DTD SVG 1.1//EN" "http://www.w3.org/Graphics/SVG/1.1/DTD/svg11.dtd">
<svg version="1.1" id="Layer_1" xmlns="http://www.w3.org/2000/svg" xmlns:xlink="http://www.w3.org/1999/xlink" x="0px" y="0px"
	 width="126.125px" height="110.25px" viewBox="-15.875 -9.75 126.125 110.25"
	 enable-background="new -15.875 -9.75 126.125 110.25" xml:space="preserve">
<g id="Layer_1_1_" display="none">
	<g display="inline">
		<g>
			<path id="svgCog" fill="none" stroke="#ADADAD" stroke-miterlimit="10" d="M33.815,18.188l-2.524-0.409
				c-0.329-0.055-0.614-0.126-0.631-0.162c-0.021-0.036-0.106-0.411-0.106-0.521c0-0.113,0.242-0.341,0.533-0.507l2.235-1.271
				c0.291-0.164,0.438-0.562,0.321-0.884l-0.397-1.111c-0.112-0.32-0.476-0.529-0.803-0.465l-2.513,0.495
				c-0.328,0.065-0.617,0.098-0.647,0.071c-0.026-0.026-0.233-0.349-0.272-0.456c-0.035-0.104,0.112-0.401,0.332-0.659l1.676-1.975
				c0.221-0.259,0.223-0.683,0.009-0.941l-0.745-0.907c-0.217-0.263-0.625-0.334-0.909-0.157L27.18,9.675
				c-0.287,0.175-0.549,0.306-0.586,0.291c-0.035-0.017-0.34-0.243-0.41-0.33c-0.068-0.088-0.028-0.42,0.09-0.736l0.914-2.441
				c0.119-0.318-0.021-0.718-0.307-0.889l-1.007-0.593c-0.286-0.171-0.694-0.095-0.905,0.17l-1.611,2.03
				c-0.211,0.267-0.416,0.479-0.452,0.479c-0.039-0.001-0.401-0.111-0.496-0.168c-0.097-0.057-0.167-0.38-0.162-0.724l0.041-2.611
				c0.007-0.34-0.26-0.669-0.589-0.729L20.557,3.22c-0.33-0.061-0.688,0.154-0.795,0.479l-0.836,2.47
				c-0.107,0.323-0.229,0.597-0.267,0.608c-0.036,0.01-0.415,0.036-0.522,0.017c-0.105-0.021-0.283-0.302-0.392-0.625L16.91,3.697
				c-0.107-0.32-0.467-0.536-0.796-0.478l-1.142,0.205c-0.33,0.061-0.594,0.389-0.588,0.729l0.041,2.614
				c0.006,0.34-0.016,0.639-0.047,0.663c-0.027,0.023-0.375,0.178-0.484,0.197c-0.107,0.02-0.367-0.183-0.578-0.448l-1.612-2.03
				c-0.209-0.266-0.617-0.344-0.908-0.173L9.793,5.57c-0.289,0.171-0.429,0.57-0.31,0.89L10.4,8.901
				c0.119,0.316,0.197,0.605,0.178,0.641c-0.021,0.031-0.295,0.297-0.391,0.354c-0.096,0.055-0.409-0.044-0.693-0.22L7.297,8.333
				c-0.285-0.177-0.695-0.106-0.91,0.154L5.641,9.396c-0.213,0.262-0.209,0.686,0.009,0.941l1.678,1.976
				c0.218,0.259,0.392,0.5,0.382,0.538c-0.009,0.041-0.177,0.387-0.246,0.47c-0.072,0.084-0.398,0.103-0.727,0.036l-2.514-0.495
				c-0.328-0.065-0.689,0.146-0.803,0.466L3.024,14.44c-0.115,0.319,0.029,0.718,0.322,0.883l2.238,1.27
				c0.291,0.164,0.534,0.332,0.538,0.371c0.005,0.041-0.036,0.423-0.075,0.528c-0.037,0.104-0.338,0.234-0.668,0.287l-2.527,0.412
				c-0.33,0.052-0.598,0.375-0.598,0.717v1.183c0,0.345,0.268,0.666,0.598,0.721l2.527,0.409c0.33,0.056,0.612,0.129,0.631,0.161
				c0.017,0.035,0.105,0.412,0.104,0.522c0,0.114-0.24,0.343-0.53,0.505l-2.238,1.269c-0.293,0.166-0.438,0.564-0.322,0.884
				l0.396,1.113c0.111,0.32,0.475,0.529,0.803,0.466l2.512-0.496c0.328-0.065,0.619-0.097,0.646-0.07
				c0.028,0.026,0.237,0.349,0.274,0.456c0.036,0.104-0.112,0.4-0.332,0.658l-1.677,1.977c-0.219,0.256-0.223,0.682-0.008,0.942
				l0.746,0.906c0.213,0.262,0.623,0.331,0.91,0.157l2.194-1.347c0.286-0.175,0.549-0.306,0.584-0.292
				c0.036,0.018,0.341,0.244,0.411,0.33c0.068,0.089,0.027,0.418-0.09,0.735L9.479,32.54C9.36,32.857,9.5,33.259,9.788,33.429
				l1.004,0.593c0.289,0.172,0.699,0.095,0.908-0.171l1.611-2.028c0.209-0.267,0.414-0.479,0.453-0.479
				c0.039,0.003,0.4,0.112,0.496,0.167c0.092,0.057,0.166,0.382,0.16,0.723l-0.041,2.614c-0.006,0.342,0.258,0.667,0.588,0.728
				l1.144,0.206c0.327,0.06,0.688-0.155,0.796-0.479l0.835-2.471c0.106-0.318,0.228-0.595,0.265-0.604
				c0.037-0.014,0.416-0.039,0.523-0.018c0.107,0.02,0.287,0.299,0.395,0.621l0.836,2.472c0.109,0.323,0.469,0.538,0.797,0.479
				l1.141-0.204c0.33-0.062,0.596-0.388,0.588-0.729l-0.041-2.615c-0.007-0.339,0.016-0.639,0.046-0.662
				c0.029-0.021,0.376-0.179,0.484-0.197s0.366,0.185,0.577,0.447l1.613,2.029c0.211,0.266,0.619,0.343,0.908,0.172l1.004-0.591
				c0.288-0.173,0.428-0.572,0.309-0.892l-0.916-2.439c-0.12-0.319-0.2-0.607-0.178-0.639c0.021-0.035,0.293-0.303,0.391-0.357
				c0.095-0.055,0.406,0.042,0.693,0.219l2.194,1.346c0.284,0.175,0.695,0.105,0.91-0.156l0.744-0.908
				c0.216-0.259,0.212-0.684-0.007-0.941L29.34,26.69c-0.221-0.258-0.392-0.5-0.385-0.539c0.012-0.037,0.178-0.384,0.248-0.467
				c0.072-0.087,0.398-0.104,0.727-0.038l2.513,0.496c0.327,0.063,0.69-0.146,0.805-0.466l0.396-1.111
				c0.115-0.32-0.029-0.718-0.322-0.884l-2.234-1.269c-0.293-0.166-0.535-0.334-0.543-0.373c-0.004-0.041,0.098-0.619,0.115-0.653
				c0.018-0.035,0.303-0.107,0.63-0.164l2.524-0.41c0.33-0.054,0.601-0.376,0.601-0.718v-1.185
				C34.414,18.564,34.145,18.242,33.815,18.188z"/>
		</g>
		<g>
			
				<ellipse opacity="0.9" fill="#FFFFFF" stroke="#AEADAE" stroke-miterlimit="10" enable-background="new    " cx="18.159" cy="19.59" rx="9.875" ry="10.081"/>
		</g>
	</g>
</g>
<linearGradient id="SVGID_1_" gradientUnits="userSpaceOnUse" x1="-13.9526" y1="45.8374" x2="109.8271" y2="45.8374">
	<stop  offset="0" style="stop-color:#FFDD15"/>
	<stop  offset="0.1467" style="stop-color:#F6921E"/>
	<stop  offset="0.3114" style="stop-color:#EC1C24"/>
	<stop  offset="0.4607" style="stop-color:#EC297B"/>
	<stop  offset="0.6641" style="stop-color:#90278E"/>
	<stop  offset="0.6919" style="stop-color:#8C2B91"/>
	<stop  offset="0.7222" style="stop-color:#7E379A"/>
	<stop  offset="0.7538" style="stop-color:#694CA8"/>
	<stop  offset="0.7862" style="stop-color:#4A68BD"/>
	<stop  offset="0.8189" style="stop-color:#238CD7"/>
	<stop  offset="0.8439" style="stop-color:#00ADEE"/>
	<stop  offset="1" style="stop-color:#29B473"/>
</linearGradient>
<polygon opacity="0.7" fill="none" stroke="url(#SVGID_1_)" stroke-miterlimit="10" enable-background="new    " points="
	17.287,98.936 -13.375,45.836 17.287,-7.261 78.586,-7.261 109.25,45.836 78.586,98.936 "/>
<path opacity="0.7" fill="#A9A8A8" enable-background="new    " d="M27.707,34.323l2.842-19.854h0.323l8.071,16.292l7.994-16.292
	h0.317l2.857,19.854h-1.945l-1.961-14.199l-7.02,14.199h-0.508l-7.104-14.308l-1.95,14.308H27.707z"/>
<path opacity="0.7" fill="#A9A8A8" enable-background="new    " d="M53.259,19.639h1.997l5.047,11.308l4.899-11.308h2.013
	l-8.76,20.055h-1.996l2.828-6.484L53.259,19.639z"/>
<path opacity="0.7" fill="#A9A8A8" enable-background="new    " d="M10.963,47.639h2.159l6.58,15.339l6.688-15.339h2.16
	l-8.639,19.854H19.48L10.963,47.639z"/>
<path opacity="0.7" fill="#A9A8A8" enable-background="new    " d="M32.363,46.761c0.429,0,0.797,0.153,1.102,0.459
	c0.304,0.306,0.457,0.674,0.457,1.107c0,0.422-0.153,0.787-0.457,1.092c-0.305,0.306-0.672,0.459-1.102,0.459
	c-0.421,0-0.785-0.153-1.089-0.459c-0.304-0.305-0.457-0.67-0.457-1.092c0-0.433,0.152-0.801,0.457-1.107
	C31.579,46.915,31.942,46.761,32.363,46.761z M31.425,52.809h1.89v14.685h-1.89V52.809z"/>
<path opacity="0.7" fill="#A9A8A8" enable-background="new    " d="M38.5,67.493V47.14h1.889v8.191
	c0.791-0.971,1.676-1.697,2.656-2.179c0.979-0.481,2.054-0.722,3.222-0.722c2.076,0,3.85,0.754,5.319,2.261s2.205,3.336,2.205,5.486
	c0,2.123-0.742,3.937-2.225,5.439c-1.484,1.502-3.268,2.254-5.353,2.254c-1.196,0-2.279-0.256-3.249-0.77
	c-0.971-0.513-1.83-1.283-2.576-2.309v2.7H38.5z M46.057,66.049c1.051,0,2.02-0.259,2.91-0.776c0.887-0.518,1.595-1.244,2.121-2.18
	c0.524-0.937,0.788-1.925,0.788-2.969s-0.265-2.038-0.794-2.983c-0.53-0.944-1.242-1.68-2.135-2.207
	c-0.893-0.525-1.847-0.789-2.861-0.789c-1.033,0-2.013,0.264-2.943,0.789c-0.929,0.527-1.643,1.235-2.141,2.127
	c-0.499,0.891-0.748,1.895-0.748,3.009c0,1.702,0.559,3.122,1.677,4.266C43.048,65.477,44.423,66.049,46.057,66.049z"/>
<path opacity="0.7" fill="#A9A8A8" enable-background="new    " d="M70.731,62.62l1.594,0.838c-0.523,1.024-1.127,1.853-1.811,2.483
	c-0.685,0.63-1.454,1.109-2.312,1.438c-0.855,0.328-1.822,0.492-2.903,0.492c-2.396,0-4.269-0.786-5.619-2.356
	c-1.352-1.568-2.027-3.344-2.027-5.323c0-1.863,0.572-3.523,1.715-4.98c1.451-1.854,3.392-2.78,5.823-2.78
	c2.503,0,4.503,0.949,5.998,2.848c1.062,1.341,1.602,3.014,1.621,5.021H59.597c0.036,1.706,0.582,3.104,1.636,4.195
	c1.054,1.09,2.355,1.636,3.905,1.636c0.749,0,1.475-0.13,2.181-0.391c0.708-0.26,1.31-0.604,1.805-1.035
	C69.619,64.274,70.156,63.579,70.731,62.62z M70.731,58.665c-0.251-1.008-0.619-1.812-1.102-2.415
	c-0.481-0.604-1.118-1.089-1.911-1.458c-0.794-0.368-1.627-0.553-2.5-0.553c-1.442,0-2.681,0.463-3.717,1.391
	c-0.756,0.674-1.328,1.687-1.716,3.035H70.731z"/>
<path opacity="0.7" fill="#A9A8A8" enable-background="new    " d="M83.716,54.415l-1.215,1.254
	c-1.012-0.98-1.999-1.471-2.964-1.471c-0.614,0-1.139,0.202-1.577,0.608c-0.437,0.404-0.655,0.877-0.655,1.415
	c0,0.478,0.181,0.933,0.54,1.364c0.362,0.441,1.119,0.958,2.273,1.553c1.407,0.729,2.362,1.431,2.866,2.105
	c0.497,0.684,0.745,1.452,0.745,2.309c0,1.204-0.424,2.227-1.271,3.062c-0.848,0.837-1.907,1.256-3.177,1.256
	c-0.848,0-1.657-0.186-2.426-0.553c-0.771-0.37-1.409-0.878-1.913-1.526l1.187-1.349c0.966,1.088,1.988,1.632,3.071,1.632
	c0.758,0,1.402-0.242,1.935-0.729c0.531-0.486,0.798-1.057,0.798-1.714c0-0.54-0.176-1.021-0.526-1.444
	c-0.353-0.413-1.146-0.937-2.381-1.565c-1.325-0.685-2.228-1.359-2.705-2.025c-0.479-0.665-0.717-1.426-0.717-2.28
	c0-1.115,0.381-2.043,1.143-2.78c0.761-0.737,1.724-1.106,2.886-1.106C80.984,52.431,82.347,53.092,83.716,54.415z"/>
</svg>
