<?xml version="1.0" encoding="utf-8"?>
<!-- Generator: Adobe Illustrator 16.0.4, SVG Export Plug-In . SVG Version: 6.00 Build 0)  -->
<!DOCTYPE svg PUBLIC "-//W3C//DTD SVG 1.1//EN" "http://www.w3.org/Graphics/SVG/1.1/DTD/svg11.dtd">
<svg version="1.1" xmlns="http://www.w3.org/2000/svg" xmlns:xlink="http://www.w3.org/1999/xlink" x="0px" y="0px"
	 width="119.333px" height="88px" viewBox="52.5 0 119.333 88" enable-background="new 52.5 0 119.333 88" xml:space="preserve">
<g id="Layer_2_1_" display="none">
	<polygon display="inline" opacity="0.5" fill="#79CCCA" points="55.117,32.599 112.617,88.333 117.117,32.599 	"/>
	<polygon display="inline" opacity="0.5" fill="#FBED27" points="170.15,32.599 112.649,88.333 108.149,32.599 	"/>
	<polygon display="inline" opacity="0.5" fill="#F5841F" points="156.482,22.295 89.662,44.128 112.643,88.333 	"/>
	<polygon display="inline" opacity="0.5" fill="#C22127" points="68.812,22.249 135.633,44.082 112.653,88.286 	"/>
	<g display="inline">
		<polygon opacity="0.5" fill="#64BB46" points="112.676,88.333 58.241,26.004 91.472,0.573 		"/>
		<polygon opacity="0.5" fill="#EC3793" points="112.676,88.333 167.11,26.005 133.881,0.573 		"/>
	</g>
	<polygon display="inline" opacity="0.5" fill="#79CCCA" points="168.791,24.08 212.058,66.019 215.444,24.08 	"/>
	<polygon display="inline" opacity="0.5" fill="#FBED27" points="255.35,24.08 212.082,66.019 208.695,24.08 	"/>
	<polygon display="inline" opacity="0.5" fill="#F5841F" points="245.065,16.327 194.785,32.756 212.076,66.019 	"/>
	<polygon display="inline" opacity="0.5" fill="#C22127" points="179.096,16.292 229.376,32.721 212.084,65.983 	"/>
	<g display="inline">
		<polygon opacity="0.5" fill="#64BB46" points="212.102,66.019 171.142,19.118 196.146,-0.019 		"/>
		<polygon opacity="0.5" fill="#EC3793" points="212.102,66.019 253.062,19.118 228.058,-0.018 		"/>
	</g>
	<polygon display="inline" opacity="0.5" fill="#64BB46" points="183.021,74.865 184.582,71.912 196.729,71.912 200.721,74.648 
		191.871,76.388 	"/>
	<polygon display="inline" opacity="0.5" fill="#79CCCA" points="191.871,76.388 196.729,71.912 202.604,71.912 205.81,75.166 
		206.696,80.754 203.104,79.816 200.721,74.648 	"/>
	<polygon display="inline" opacity="0.5" fill="#A15AA3" points="205.81,75.166 203.104,79.816 204.588,86.129 206.792,87.843 
		208.767,85.291 206.696,80.754 	"/>
	<polygon display="inline" opacity="0.5" fill="#DD5D82" points="204.588,86.129 208.767,85.291 210.29,88.597 210.599,94.801 
		210.991,95.709 210.012,94.801 206.792,87.843 	"/>
	<polygon display="inline" opacity="0.5" fill="#F5841F" points="220.16,76.388 217.271,80.143 214.07,87.132 211.794,85.291 
		211.794,80.115 215.383,77.407 	"/>
	<polygon display="inline" opacity="0.5" fill="#C22127" points="211.794,80.115 214.07,87.132 210.599,94.801 209.498,95.709 
		209.898,94.801 210.29,88.597 211.794,85.291 	"/>
	<polygon display="inline" opacity="0.5" fill="#FBED27" points="223.96,80.143 225.451,77.43 220.16,76.388 215.383,77.407 
		216.491,81.847 217.271,80.143 	"/>
</g>
<g id="Layer_3">
	<g>
		<polygon opacity="0.5" fill="#64BB46" points="52.832,88 112.165,29.334 112.165,88 		"/>
		<polygon opacity="0.5" fill="#79CCCA" points="171.498,88 112.165,29.334 112.165,88 		"/>
		<polygon opacity="0.5" fill="#F5841F" points="52.833,58.666 112.165,0 112.165,58.666 		"/>
		<polygon opacity="0.5" fill="#DD5D82" points="171.499,58.666 112.166,0 112.166,58.666 		"/>
		<polygon opacity="0.5" fill="#EC3793" points="171.499,0 112.166,58.666 112.166,0 		"/>
		<polygon opacity="0.5" fill="#C22127" points="52.833,0 112.165,58.666 112.165,0 		"/>
		<polygon opacity="0.5" fill="#FBED27" points="52.833,29.334 112.165,88 112.165,29.334 		"/>
		<polygon opacity="0.5" fill="#A15AA3" points="171.498,29.334 112.165,88 112.165,29.334 		"/>
	</g>
	
		<text transform="matrix(1 0 0 1 102.311 20.0239)" fill="#FFFFFF" font-family="'CenturyGothic'" font-size="12" letter-spacing="1">MY</text>
	
		<text transform="matrix(1 0 0 1 71.8271 54.4688)" fill="#FFFFFF" font-family="'CenturyGothic'" font-size="26.7114" letter-spacing="2">VIBES</text>
</g>
</svg>
