<?xml version="1.0" encoding="utf-8"?>
<!-- Generator: Adobe Illustrator 16.0.0, SVG Export Plug-In . SVG Version: 6.00 Build 0)  -->
<!DOCTYPE svg PUBLIC "-//W3C//DTD SVG 1.1//EN" "http://www.w3.org/Graphics/SVG/1.1/DTD/svg11.dtd">
<svg version="1.1" id="Layer_1" xmlns="http://www.w3.org/2000/svg" xmlns:xlink="http://www.w3.org/1999/xlink" x="0px" y="0px"
	 width="232px" height="88px" viewBox="0 0 232 88" enable-background="new 0 0 232 88" xml:space="preserve">
<g id="Layer_2">
	<rect fill="#FFFFFF" width="232" height="88"/>
</g>
<g id="Layer_1_1_">
	<image display="none" overflow="visible" enable-background="new    " width="232" height="88" xlink:href="pins.png" >
	</image>
	<g>
		<g id="hexTiles">
			<polygon opacity="0.5" fill="#FAE300" enable-background="new    " points="140.991,85.216 137.773,83.794 140.991,82.373 
				147.428,82.373 150.643,83.794 147.428,85.216 			"/>
			<polygon opacity="0.5" fill="#F3BE54" enable-background="new    " points="152.504,83.396 149.286,81.977 152.504,80.557 
				158.941,80.557 162.156,81.977 158.941,83.396 			"/>
			<polygon opacity="0.5" fill="#EA98C1" enable-background="new    " points="144.283,80.096 141.066,78.673 144.283,77.252 
				150.721,77.252 153.936,78.673 150.721,80.096 			"/>
			<polygon opacity="0.5" fill="#BB86BB" enable-background="new    " points="91.009,85.139 94.226,83.718 91.009,82.297 
				84.572,82.297 81.356,83.718 84.572,85.139 			"/>
			<polygon opacity="0.5" fill="#69CBE1" enable-background="new    " points="79.496,83.32 82.713,81.898 79.496,80.479 
				73.059,80.479 69.844,81.898 73.059,83.32 			"/>
			<polygon opacity="0.5" fill="#84C880" enable-background="new    " points="87.717,80.018 90.934,78.598 87.717,77.176 
				81.279,77.176 78.064,78.598 81.279,80.018 			"/>
		</g>
		<g id="emo">
			<g>
				
					<linearGradient id="SVGID_1_" gradientUnits="userSpaceOnUse" x1="925.8291" y1="-878.1123" x2="967.3125" y2="-878.1123" gradientTransform="matrix(1 0 0 -1 -830.5 -847)">
					<stop  offset="0" style="stop-color:#F9ED32;stop-opacity:0.8"/>
					<stop  offset="1" style="stop-color:#FBB040;stop-opacity:0.8"/>
				</linearGradient>
				<polygon fill="url(#SVGID_1_)" points="105.697,37.549 95.329,31.111 105.697,24.676 126.441,24.676 136.812,31.111 
					126.441,37.549 				"/>
				<polygon fill="#ED3794" points="103.349,81.505 90.562,59.357 103.349,37.209 128.922,37.209 141.708,59.357 128.922,81.505 
									"/>
				<polygon fill="#79CDCB" points="126.538,37.512 136.762,31.082 147.443,36.724 147.896,48.794 137.67,55.223 126.991,49.582 
									"/>
				<polygon fill="#F6851F" points="95.368,31.109 105.752,37.53 100.223,28.075 				"/>
				<polygon fill="#65BC46" points="131.92,28.075 136.762,31.082 126.538,37.512 				"/>
				<polygon opacity="0.05" enable-background="new    " points="103.349,37.209 90.562,59.357 103.349,81.505 128.922,81.505 
					110.931,37.209 				"/>
				<polygon fill="#EE3255" points="105.752,37.53 95.368,31.109 84.618,36.891 84.246,49.096 94.633,55.516 105.383,49.734 				"/>
				<polygon opacity="0.1" enable-background="new    " points="84.618,36.891 84.246,49.096 94.633,55.516 105.383,49.734 				"/>
				<polygon opacity="0.1" enable-background="new    " points="131.92,28.075 133.882,29.295 126.538,37.512 				"/>
				<polygon fill="#FBEE29" points="105.697,37.564 95.329,19.599 105.697,1.635 126.441,1.635 136.812,19.599 126.441,37.564 				
					"/>
				<polygon opacity="0.05" enable-background="new    " points="105.697,1.635 95.329,19.599 105.752,37.53 126.538,37.512 				"/>
				<polygon opacity="0.1" enable-background="new    " points="93.268,54.67 90.562,59.357 105.383,49.734 94.633,55.516 				"/>
				<polygon opacity="0.1" enable-background="new    " points="141.708,59.357 138.93,54.545 137.67,55.223 126.991,49.582 				"/>
				<polygon opacity="0.1" enable-background="new    " points="84.246,49.096 84.392,44.331 97.97,53.721 94.633,55.516 				"/>
				<polygon opacity="0.1" enable-background="new    " points="147.443,36.724 126.991,49.582 137.67,55.223 147.896,48.794 				
					"/>
				<polygon opacity="0.1" enable-background="new    " points="147.896,48.794 147.729,44.331 134.95,53.787 137.67,55.223 				"/>
				<polygon opacity="0.05" fill="#FFFFFF" enable-background="new    " points="126.991,49.582 118.123,54.91 128.922,81.505 
					131.859,76.414 141.708,59.357 				"/>
				<polygon opacity="0.05" enable-background="new    " points="118.123,54.91 100.569,76.695 103.349,81.505 128.982,81.505 				
					"/>
				<g>
					<polygon fill="#A25BA4" points="94.546,83.242 88.727,73.154 94.546,63.07 106.192,63.07 112.019,73.154 106.192,83.242 					
						"/>
					<polygon opacity="0.1" enable-background="new    " points="94.546,63.07 106.192,83.242 94.546,83.242 88.727,73.154 					"/>
					<polygon opacity="0.1" enable-background="new    " points="89.114,73.154 94.729,82.875 96.969,82.875 					"/>
				</g>
				<polygon opacity="0.05" enable-background="new    " points="116.071,19.493 105.752,37.53 126.538,37.512 				"/>
				<polygon opacity="0.05" enable-background="new    " points="105.697,1.635 116.071,19.493 126.441,1.635 				"/>
				<polygon opacity="0.1" enable-background="new    " points="100.213,28.084 98.703,29.027 105.641,37.461 				"/>
				<polygon opacity="0.2" enable-background="new    " points="137.273,83.242 142.954,80.581 139.684,79.072 				"/>
				<g>
					<polygon fill="#5296D0" points="125.628,83.242 119.805,73.158 125.628,63.07 137.273,63.07 143.096,73.158 137.273,83.242 
											"/>
					<polygon opacity="0.1" enable-background="new    " points="125.628,63.07 137.273,83.242 125.628,83.242 119.805,73.158 					
						"/>
					<polygon opacity="0.1" enable-background="new    " points="120.682,73.158 126.302,82.873 128.538,82.873 					"/>
				</g>
				<polygon opacity="0.4" enable-background="new    " points="119.805,81.505 125.628,83.242 124.609,81.505 				"/>
				<polygon opacity="0.2" enable-background="new    " points="94.546,83.242 92.141,79.072 88.684,80.557 				"/>
				<polygon opacity="0.4" enable-background="new    " points="106.192,83.242 112.019,81.505 107.196,81.505 				"/>
			</g>
		</g>
	</g>
</g>
</svg>
