<?xml version="1.0" encoding="utf-8"?>
<!-- Generator: Adobe Illustrator 16.0.4, SVG Export Plug-In . SVG Version: 6.00 Build 0)  -->
<!DOCTYPE svg PUBLIC "-//W3C//DTD SVG 1.1//EN" "http://www.w3.org/Graphics/SVG/1.1/DTD/svg11.dtd">
<svg version="1.1" xmlns="http://www.w3.org/2000/svg" xmlns:xlink="http://www.w3.org/1999/xlink" x="0px" y="0px"
	 width="110.25px" height="100.5px" viewBox="-36.667 -61.5 110.25 100.5" enable-background="new -36.667 -61.5 110.25 100.5"
	 xml:space="preserve">
<g id="Layer_1" display="none">
	<g display="inline">
		<g>
			<path id="svgCog" fill="none" stroke="#ADADAD" stroke-miterlimit="10" d="M33.815,18.188l-2.524-0.409
				c-0.329-0.055-0.614-0.126-0.631-0.162c-0.021-0.036-0.106-0.411-0.106-0.521c0-0.113,0.242-0.341,0.533-0.507l2.235-1.271
				c0.291-0.164,0.438-0.562,0.321-0.884l-0.397-1.111c-0.112-0.32-0.476-0.529-0.803-0.465l-2.513,0.495
				c-0.328,0.065-0.617,0.098-0.647,0.071c-0.026-0.026-0.233-0.349-0.272-0.456c-0.035-0.104,0.112-0.401,0.332-0.659l1.676-1.975
				c0.221-0.259,0.223-0.683,0.009-0.941l-0.745-0.907c-0.217-0.263-0.625-0.334-0.909-0.157l-2.194,1.346
				c-0.287,0.175-0.549,0.306-0.586,0.291c-0.035-0.017-0.34-0.243-0.41-0.33c-0.068-0.088-0.028-0.42,0.09-0.736l0.914-2.441
				c0.119-0.318-0.021-0.718-0.307-0.889l-1.007-0.593c-0.286-0.171-0.694-0.095-0.905,0.17l-1.611,2.03
				c-0.211,0.267-0.416,0.479-0.452,0.479c-0.039-0.001-0.401-0.111-0.496-0.168c-0.097-0.057-0.167-0.38-0.162-0.724l0.041-2.611
				c0.007-0.34-0.26-0.669-0.589-0.729L20.557,3.22c-0.33-0.061-0.688,0.154-0.795,0.478l-0.836,2.47
				c-0.107,0.323-0.229,0.597-0.267,0.608c-0.036,0.01-0.415,0.036-0.522,0.017c-0.105-0.021-0.283-0.302-0.392-0.625l-0.835-2.471
				c-0.107-0.32-0.467-0.536-0.796-0.477l-1.142,0.205c-0.33,0.061-0.594,0.389-0.588,0.729l0.041,2.614
				c0.006,0.34-0.016,0.639-0.047,0.663c-0.027,0.023-0.375,0.178-0.484,0.197c-0.107,0.02-0.367-0.183-0.578-0.448L11.704,5.15
				c-0.209-0.266-0.617-0.344-0.908-0.173L9.793,5.57c-0.289,0.171-0.429,0.57-0.31,0.89l0.917,2.441
				c0.119,0.316,0.197,0.605,0.178,0.641c-0.021,0.031-0.295,0.297-0.391,0.354c-0.096,0.055-0.409-0.044-0.693-0.22L7.297,8.333
				c-0.285-0.177-0.695-0.106-0.91,0.154L5.641,9.396c-0.213,0.262-0.209,0.686,0.009,0.941l1.678,1.976
				c0.218,0.259,0.392,0.5,0.382,0.538c-0.009,0.041-0.177,0.387-0.246,0.47c-0.072,0.084-0.398,0.103-0.727,0.036l-2.514-0.495
				c-0.328-0.065-0.689,0.146-0.803,0.466L3.024,14.44c-0.115,0.319,0.029,0.718,0.322,0.883l2.238,1.27
				c0.291,0.164,0.534,0.332,0.538,0.371c0.005,0.041-0.036,0.423-0.075,0.528c-0.037,0.104-0.338,0.234-0.668,0.287l-2.527,0.412
				c-0.33,0.052-0.598,0.375-0.598,0.717v1.183c0,0.345,0.268,0.666,0.598,0.721l2.527,0.409c0.33,0.056,0.612,0.129,0.631,0.161
				c0.017,0.035,0.105,0.412,0.104,0.522c0,0.114-0.24,0.343-0.53,0.505l-2.238,1.269c-0.293,0.166-0.438,0.564-0.322,0.884
				l0.396,1.113c0.111,0.32,0.475,0.529,0.803,0.466l2.512-0.496c0.328-0.065,0.619-0.097,0.646-0.07
				c0.028,0.026,0.237,0.349,0.274,0.456c0.036,0.104-0.112,0.4-0.332,0.658l-1.677,1.977c-0.219,0.256-0.223,0.682-0.008,0.942
				l0.746,0.906c0.213,0.262,0.623,0.331,0.91,0.157l2.194-1.347c0.286-0.175,0.549-0.306,0.584-0.292
				c0.036,0.018,0.341,0.244,0.411,0.33c0.068,0.089,0.027,0.418-0.09,0.735L9.479,32.54C9.36,32.857,9.5,33.259,9.788,33.429
				l1.004,0.593c0.289,0.172,0.699,0.095,0.908-0.171l1.611-2.028c0.209-0.267,0.414-0.479,0.453-0.479
				c0.039,0.003,0.4,0.112,0.496,0.167c0.092,0.057,0.166,0.382,0.16,0.723l-0.041,2.614c-0.006,0.342,0.258,0.667,0.588,0.728
				l1.144,0.206c0.327,0.06,0.688-0.155,0.796-0.479l0.835-2.471c0.106-0.318,0.228-0.595,0.265-0.604
				c0.037-0.014,0.416-0.039,0.523-0.018c0.107,0.02,0.287,0.299,0.395,0.621l0.836,2.472c0.109,0.323,0.469,0.538,0.797,0.479
				l1.141-0.204c0.33-0.062,0.596-0.388,0.588-0.729l-0.041-2.615c-0.007-0.339,0.016-0.639,0.046-0.662
				c0.029-0.021,0.376-0.179,0.484-0.197c0.108-0.018,0.366,0.185,0.577,0.447l1.613,2.029c0.211,0.266,0.619,0.343,0.908,0.172
				l1.004-0.591c0.288-0.173,0.428-0.572,0.309-0.892l-0.916-2.439c-0.12-0.319-0.2-0.607-0.178-0.639
				c0.021-0.035,0.293-0.303,0.391-0.357c0.095-0.055,0.406,0.042,0.693,0.219l2.194,1.346c0.284,0.175,0.695,0.105,0.91-0.156
				l0.744-0.908c0.216-0.259,0.212-0.684-0.007-0.941l-1.678-1.975c-0.221-0.258-0.392-0.5-0.385-0.539
				c0.012-0.037,0.178-0.384,0.248-0.467c0.072-0.087,0.398-0.104,0.727-0.038l2.513,0.496c0.327,0.063,0.69-0.146,0.805-0.466
				l0.396-1.111c0.115-0.32-0.029-0.718-0.322-0.884l-2.234-1.269c-0.293-0.166-0.535-0.334-0.543-0.373
				c-0.004-0.041,0.098-0.619,0.115-0.653c0.018-0.035,0.303-0.107,0.63-0.164l2.524-0.41c0.33-0.054,0.601-0.376,0.601-0.718
				v-1.185C34.414,18.564,34.145,18.242,33.815,18.188z"/>
		</g>
		<g>
			
				<ellipse opacity="0.9" fill="#FFFFFF" stroke="#AEADAE" stroke-miterlimit="10" enable-background="new    " cx="18.159" cy="19.59" rx="9.875" ry="10.081"/>
		</g>
	</g>
</g>
<g id="Layer_2">
	<g>
		<polygon fill="#ADADAD" points="-8.652,35.25 -35.648,-11.501 -8.652,-58.25 45.319,-58.25 72.316,-11.501 45.319,35.25 		"/>
		<text transform="matrix(1 0 0 1 0.1914 -21.6377)"><tspan x="0" y="0" fill="#FFFFFF" font-family="'CenturyGothic'" font-size="24.3369">My</tspan><tspan x="-14.207" y="29.204" fill="#FFFFFF" font-family="'CenturyGothic'" font-size="24.3369">Vibes</tspan></text>
	</g>
</g>
</svg>
