<?xml version="1.0" encoding="utf-8"?>
<!-- Generator: Adobe Illustrator 16.0.4, SVG Export Plug-In . SVG Version: 6.00 Build 0)  -->
<!DOCTYPE svg PUBLIC "-//W3C//DTD SVG 1.1//EN" "http://www.w3.org/Graphics/SVG/1.1/DTD/svg11.dtd">
<svg version="1.1" xmlns="http://www.w3.org/2000/svg" xmlns:xlink="http://www.w3.org/1999/xlink" x="0px" y="0px" width="320px"
	 height="108px" viewBox="0 0 320 108" enable-background="new 0 0 320 108" xml:space="preserve">
<g id="Layer_1" display="none">
	<g id="Layer_1_1_">
		<polygon display="inline" opacity="0.5" fill="#7ACDCA" enable-background="new    " points="0,0 101.737,96.852 109.701,0 		"/>
		<polygon display="inline" opacity="0.5" fill="#FAED28" enable-background="new    " points="137.597,77.73 2,108.999 
			45.363,22.044 		"/>
		<polygon display="inline" opacity="0.5" fill="#65BB47" enable-background="new    " points="176.75,-5.755 60.634,32.187 
			100.568,109 		"/>
		<polygon display="inline" opacity="0.5" fill="#65BB47" enable-background="new    " points="37.369,152.42 -57.224,44.108 
			0.522,-0.084 		"/>
		<polygon display="inline" opacity="0.5" fill="#F6851F" enable-background="new    " points="0,-0.171 98.634,107.178 
			42.389,153.43 		"/>
		<polygon display="inline" opacity="0.5" fill="#EB3A93" enable-background="new    " points="2,109 96.593,0.69 38.849,-43.503 		
			"/>
		<polygon display="inline" opacity="0.5" fill="#DD5E83" enable-background="new    " points="243.404,122.253 99.649,118.672 
			106.154,46.248 		"/>
		<polygon display="inline" opacity="0.5" fill="#FAED28" enable-background="new    " points="319.998,-0.084 220.078,96.768 
			212.258,-0.084 		"/>
		<polygon display="inline" opacity="0.5" fill="#C22328" enable-background="new    " points="184.4,77.646 319.998,108.914 
			276.635,21.959 		"/>
		<polygon display="inline" opacity="0.5" fill="#65BB47" enable-background="new    " points="145.248,-5.84 261.363,32.102 
			221.43,108.915 		"/>
		<polygon display="inline" opacity="0.5" fill="#EB3A93" enable-background="new    " points="282.67,152.42 377.263,44.108 
			319.518,-0.084 		"/>
		<polygon display="inline" opacity="0.5" fill="#F6851F" enable-background="new    " points="319.998,0.367 221.363,107.716 
			277.607,153.968 		"/>
		<polygon display="inline" opacity="0.5" fill="#DD5E83" enable-background="new    " points="319.998,108.915 225.404,0.605 
			283.148,-43.588 		"/>
		<polygon display="inline" opacity="0.5" fill="#DD5E83" enable-background="new    " points="78.592,122.168 222.35,118.587 
			215.844,46.163 		"/>
		<polygon display="inline" opacity="0.5" fill="#65BB47" enable-background="new    " points="148.196,-28.673 143.626,-36.589 
			148.196,-44.503 157.336,-44.503 161.904,-36.589 157.336,-28.673 		"/>
		<polygon display="inline" opacity="0.5" fill="#7ACDCA" enable-background="new    " points="161.041,-28.673 156.472,-36.589 
			161.041,-44.503 170.182,-44.503 174.75,-36.589 170.182,-28.673 		"/>
		<polygon display="inline" opacity="0.5" fill="#A15BA4" enable-background="new    " points="172.852,-28.673 168.279,-36.589 
			172.852,-44.503 181.988,-44.503 186.561,-36.589 181.988,-28.673 		"/>
		<polygon display="inline" opacity="0.5" fill="#DD5E83" enable-background="new    " points="185.695,-28.673 181.127,-36.589 
			185.695,-44.503 194.836,-44.503 199.404,-36.589 194.836,-28.673 		"/>
		<polygon display="inline" opacity="0.5" fill="#EB3A93" enable-background="new    " points="148.195,-12.061 143.626,-19.976 
			148.195,-27.891 157.335,-27.891 161.904,-19.976 157.335,-12.061 		"/>
		<polygon display="inline" opacity="0.5" fill="#C22328" enable-background="new    " points="161.04,-12.061 156.471,-19.976 
			161.04,-27.891 170.182,-27.891 174.75,-19.976 170.182,-12.061 		"/>
		<polygon display="inline" opacity="0.5" fill="#F6851F" enable-background="new    " points="172.852,-12.061 168.279,-19.976 
			172.852,-27.891 181.988,-27.891 186.561,-19.976 181.988,-12.061 		"/>
		<polygon display="inline" opacity="0.5" fill="#FAED28" enable-background="new    " points="185.695,-12.061 181.126,-19.976 
			185.695,-27.891 194.836,-27.891 199.404,-19.976 194.836,-12.061 		"/>
		<polygon display="inline" opacity="0.5" fill="#7ACDCA" enable-background="new    " points="160.825,76.63 170.32,-0.084 
			215.844,46.163 		"/>
		<polygon display="inline" opacity="0.5" fill="#FAED28" enable-background="new    " points="160.825,76.63 151.338,-0.084 
			105.86,46.163 		"/>
		<polygon display="inline" opacity="0.5" fill="#F6851F" enable-background="new    " points="109.701,0 160.825,76.63 160.825,0 
					"/>
		<polygon display="inline" opacity="0.5" fill="#DD5E83" enable-background="new    " points="211.949,-0.042 160.824,76.588 
			160.824,-0.042 		"/>
	</g>
	<g id="Layer_2">
		<polygon display="inline" opacity="0.5" fill="#65BB47" enable-background="new    " points="-4.09,108 68.727,36.001 68.727,108 
					"/>
		<polygon display="inline" opacity="0.5" fill="#7ACDCA" enable-background="new    " points="141.545,108 68.727,36.001 
			68.727,108 		"/>
		<polygon display="inline" opacity="0.5" fill="#F6851F" enable-background="new    " points="-4.089,71.999 68.727,0 
			68.727,71.999 		"/>
		<polygon display="inline" opacity="0.5" fill="#DD5E83" enable-background="new    " points="141.547,71.999 68.729,0 
			68.729,71.999 		"/>
		<polygon display="inline" opacity="0.5" fill="#EB3A93" enable-background="new    " points="141.547,0 68.729,71.999 68.729,0 		
			"/>
		<polygon display="inline" opacity="0.5" fill="#C22328" enable-background="new    " points="-4.088,0 68.727,71.999 68.727,0 		
			"/>
		<polygon display="inline" opacity="0.5" fill="#FAED28" enable-background="new    " points="-4.089,36.001 68.727,108 
			68.727,36.001 		"/>
		<polygon display="inline" opacity="0.5" fill="#A15BA4" enable-background="new    " points="141.545,36.001 68.727,108 
			68.727,36.001 		"/>
		<polygon display="inline" opacity="0.5" fill="#65BB47" enable-background="new    " points="178.361,108 251.18,36.001 
			251.18,108 		"/>
		<polygon display="inline" opacity="0.5" fill="#7ACDCA" enable-background="new    " points="323.998,108 251.18,36.001 
			251.18,108 		"/>
		<polygon display="inline" opacity="0.5" fill="#F6851F" enable-background="new    " points="178.363,71.999 251.18,0 
			251.18,71.999 		"/>
		<polygon display="inline" opacity="0.5" fill="#DD5E83" enable-background="new    " points="324,71.999 251.182,0 
			251.182,71.999 		"/>
		<polygon display="inline" opacity="0.5" fill="#EB3A93" enable-background="new    " points="324,0 251.182,71.999 251.182,0 		
			"/>
		<polygon display="inline" opacity="0.5" fill="#C22328" enable-background="new    " points="178.363,0 251.18,71.999 251.18,0 		
			"/>
		<polygon display="inline" opacity="0.5" fill="#FAED28" enable-background="new    " points="178.363,36.001 251.18,108 
			251.18,36.001 		"/>
		<polygon display="inline" opacity="0.5" fill="#A15BA4" enable-background="new    " points="323.998,36.001 251.18,108 
			251.18,36.001 		"/>
		<polygon display="inline" opacity="0.5" fill="#7ACDCA" enable-background="new    " points="141.953,108 214.771,36.001 
			214.771,108 		"/>
		<polygon display="inline" opacity="0.5" fill="#DD5E83" enable-background="new    " points="141.951,71.999 214.77,0 
			214.77,71.999 		"/>
		<polygon display="inline" opacity="0.5" fill="#EB3A93" enable-background="new    " points="141.951,0 214.77,71.999 214.77,0 		
			"/>
		<polygon display="inline" opacity="0.5" fill="#A15BA4" enable-background="new    " points="141.953,36.001 214.771,108 
			214.771,36.001 		"/>
		<polygon display="inline" opacity="0.5" fill="#65BB47" enable-background="new    " points="178.359,108 105.544,36.001 
			105.544,108 		"/>
		<polygon display="inline" opacity="0.5" fill="#F6851F" enable-background="new    " points="178.359,71.999 105.544,0 
			105.544,71.999 		"/>
		<polygon display="inline" opacity="0.5" fill="#C22328" enable-background="new    " points="178.357,0 105.544,71.999 105.544,0 
					"/>
		<polygon display="inline" opacity="0.5" fill="#FAED28" enable-background="new    " points="178.359,36.001 105.544,108 
			105.544,36.001 		"/>
	</g>
	<g id="Layer_3" display="inline">
		<polygon opacity="0.5" fill="#7ACDCA" enable-background="new    " points="145.635,0 72.817,-71.999 72.817,0 		"/>
		<polygon opacity="0.5" fill="#F6851F" enable-background="new    " points="0,-36.001 72.817,-108 72.817,-36.001 		"/>
		<polygon opacity="0.5" fill="#DD5E83" enable-background="new    " points="145.637,-36.001 72.819,-108 72.819,-36.001 		"/>
		<polygon opacity="0.5" fill="#EB3A93" enable-background="new    " points="145.637,-108 72.819,-36.001 72.819,-108 		"/>
		<polygon opacity="0.5" fill="#C22328" enable-background="new    " points="0.002,-108 72.817,-36.001 72.817,-108 		"/>
		<polygon opacity="0.5" fill="#FAED28" enable-background="new    " points="0,-71.999 72.817,0 72.817,-71.999 		"/>
		<polygon opacity="0.5" fill="#A15BA4" enable-background="new    " points="145.635,-71.999 72.817,0 72.817,-71.999 		"/>
		<polygon opacity="0.5" fill="#65BB47" enable-background="new    " points="182.452,0 255.27,-71.999 255.27,0 		"/>
		<polygon opacity="0.5" fill="#F6851F" enable-background="new    " points="182.453,-36.001 255.27,-108 255.27,-36.001 		"/>
		<polygon opacity="0.5" fill="#EB3A93" enable-background="new    " points="328.09,-108 255.271,-36.001 255.271,-108 		"/>
		<polygon opacity="0.5" fill="#C22328" enable-background="new    " points="182.454,-108 255.27,-36.001 255.27,-108 		"/>
		<polygon opacity="0.5" fill="#FAED28" enable-background="new    " points="182.453,-71.999 255.27,0 255.27,-71.999 		"/>
		<polygon opacity="0.5" fill="#A15BA4" enable-background="new    " points="328.088,-71.999 255.27,0 255.27,-71.999 		"/>
		<polygon opacity="0.5" fill="#7ACDCA" enable-background="new    " points="146.043,0 218.861,-71.999 218.861,0 		"/>
		<polygon opacity="0.5" fill="#DD5E83" enable-background="new    " points="146.041,-36.001 218.859,-108 218.859,-36.001 		"/>
		<polygon opacity="0.5" fill="#EB3A93" enable-background="new    " points="146.041,-108 218.859,-36.001 218.859,-108 		"/>
		<polygon opacity="0.5" fill="#A15BA4" enable-background="new    " points="146.043,-71.999 218.861,0 218.861,-71.999 		"/>
		<polygon opacity="0.5" fill="#65BB47" enable-background="new    " points="182.45,0 109.634,-71.999 109.634,0 		"/>
		<polygon opacity="0.5" fill="#F6851F" enable-background="new    " points="182.449,-36.001 109.634,-108 109.634,-36.001 		"/>
		<polygon opacity="0.5" fill="#C22328" enable-background="new    " points="182.448,-108 109.634,-36.001 109.634,-108 		"/>
		<polygon opacity="0.5" fill="#FAED28" enable-background="new    " points="182.449,-71.999 109.634,0 109.634,-71.999 		"/>
		<polygon opacity="0.5" fill="#C22328" enable-background="new    " points="-2.508,136.845 -15.12,115 -2.508,93.155 
			22.716,93.155 35.328,115 22.716,136.845 		"/>
		<polygon opacity="0.5" fill="#EB3A93" enable-background="new    " points="22.716,130.345 10.104,108.5 22.716,86.655 
			47.94,86.655 60.552,108.5 47.94,130.345 		"/>
		<polygon opacity="0.5" fill="#DD5E83" enable-background="new    " points="47.94,136.845 35.328,115 47.94,93.155 73.164,93.155 
			85.776,115 73.164,136.845 		"/>
		<polygon opacity="0.5" fill="#A15BA4" enable-background="new    " points="73.165,130.345 60.552,108.5 73.165,86.655 
			98.388,86.655 111,108.5 98.388,130.345 		"/>
		<polygon opacity="0.5" fill="#7ACDCA" enable-background="new    " points="98.515,136.845 85.903,115 98.515,93.155 
			123.739,93.155 136.351,115 123.739,136.845 		"/>
		<polygon opacity="0.5" fill="#65BB47" enable-background="new    " points="123.739,130.345 111.127,108.5 123.739,86.655 
			148.963,86.655 161.575,108.5 148.963,130.345 		"/>
		<polygon opacity="0.5" fill="#FAED28" enable-background="new    " points="148.837,136.845 136.225,115 148.837,93.155 
			174.061,93.155 186.674,115 174.061,136.845 		"/>
		<polygon opacity="0.5" fill="#F6851F" enable-background="new    " points="174.062,130.345 161.449,108.5 174.062,86.655 
			199.285,86.655 211.898,108.5 199.285,130.345 		"/>
		<polygon opacity="0.5" fill="#C22328" enable-background="new    " points="199.287,136.595 186.674,114.75 199.287,92.905 
			224.51,92.905 237.123,114.75 224.51,136.595 		"/>
		<polygon opacity="0.5" fill="#EB3A93" enable-background="new    " points="224.512,130.345 211.898,108.5 224.512,86.655 
			249.734,86.655 262.348,108.5 249.734,130.345 		"/>
		<polygon opacity="0.5" fill="#DD5E83" enable-background="new    " points="249.611,136.845 236.998,115 249.611,93.155 
			274.834,93.155 287.447,115 274.834,136.845 		"/>
		<polygon opacity="0.5" fill="#A15BA4" enable-background="new    " points="274.711,130.345 262.098,108.5 274.711,86.655 
			299.934,86.655 312.547,108.5 299.934,130.345 		"/>
		<polygon opacity="0.5" fill="#7ACDCA" enable-background="new    " points="299.936,136.845 287.322,115 299.936,93.155 
			325.158,93.155 337.771,115 325.158,136.845 		"/>
	</g>
</g>
<g id="Layer_2_1_">
	<g>
		<polygon opacity="0.5" fill="#ED3794" enable-background="new    " points="275.689,170.056 279.562,166.613 305.805,166.613 
			299.997,170.056 		"/>
		<g>
			<polygon opacity="0.5" fill="#65BC46" enable-background="new    " points="-48.15,170.056 -48.15,166.62 1.374,166.62 
				13.373,170.056 			"/>
			<polygon opacity="0.5" fill="#79CDCB" enable-background="new    " points="-4.36,170.056 1.374,166.62 46.588,166.62 
				59.856,170.056 			"/>
			<polygon opacity="0.5" fill="#A25BA4" enable-background="new    " points="43.524,170.056 46.588,166.62 65.974,166.613 
				72.094,177.311 72.094,181.99 59.856,170.056 			"/>
			<polygon opacity="0.5" fill="#DE5D83" enable-background="new    " points="65.165,175.237 72.094,177.311 74.963,174.302 
				81.251,166.62 95.6,166.62 84.863,170.056 72.094,181.99 			"/>
			<polygon opacity="0.5" fill="#ED3794" enable-background="new    " points="84.863,170.056 81.251,166.62 95.6,166.62 
				124.057,170.056 			"/>
			<polygon opacity="0.5" fill="#C32127" enable-background="new    " points="110.269,170.056 96.375,166.714 136.632,166.62 
				143.042,170.056 			"/>
			<polygon opacity="0.5" fill="#F6851F" enable-background="new    " points="136.632,166.62 133.97,170.056 162.506,170.056 
				173.634,166.62 			"/>
			<polygon opacity="0.5" fill="#FBEE29" enable-background="new    " points="158.155,166.62 162.506,170.056 209.895,170.056 
				206.28,166.613 			"/>
			<polygon opacity="0.5" fill="#65BC46" enable-background="new    " points="202.536,170.056 206.28,166.613 222.488,153.781 
				228.777,158.121 226.352,161.725 222.662,158.121 209.895,170.056 			"/>
			<polygon opacity="0.5" fill="#79CDCB" enable-background="new    " points="222.662,158.121 228.777,158.121 239.536,166.613 
				234.897,170.056 			"/>
			<polygon opacity="0.5" fill="#A25BA4" enable-background="new    " points="231.368,166.613 239.536,166.613 254.169,166.613 
				261.91,170.056 234.897,170.056 			"/>
			<polygon opacity="0.5" fill="#DE5D83" enable-background="new    " points="245.461,170.056 254.169,166.613 279.562,166.613 
				299.997,170.056 			"/>
			<polygon opacity="0.5" fill="#C32127" enable-background="new    " points="296.612,166.613 299.997,170.056 326.412,170.056 
				335.912,166.613 			"/>
			<polygon opacity="0.5" fill="#F6851F" enable-background="new    " points="320.436,166.613 326.412,170.056 343.888,170.056 
				353.2,166.613 			"/>
			<polygon opacity="0.5" fill="#FBEE29" enable-background="new    " points="335.912,166.613 343.888,170.056 361.184,170.056 
				361.184,166.613 			"/>
		</g>
	</g>
	<polygon opacity="0.5" fill="#A25BA4" enable-background="new    " points="70,86.503 72.726,86.503 80,98.078 80,102.896 	"/>
	<polygon opacity="0.5" fill="#ED3794" enable-background="new    " points="90,86.503 87.274,86.503 80,98.078 80,102.896 	"/>
	<polygon opacity="0.5" fill="#79CDCB" points="47.41,86.503 42.894,82.079 70,82.079 72.726,86.503 71.687,89.269 70,86.503 	"/>
	<polygon opacity="0.5" fill="#C32127" enable-background="new    " points="112.584,86.503 117.101,82.079 89.994,82.079 
		87.269,86.503 88.307,89.269 89.994,86.503 	"/>
	<polygon opacity="0.5" fill="#F6851F" enable-background="new    " points="143.042,86.503 133.042,82.079 106.709,82.079 
		112.21,86.503 	"/>
	<polygon opacity="0.5" fill="#65BC46" enable-background="new    " points="145.209,86.503 155.209,82.079 181.543,82.079 
		176.042,86.503 	"/>
	<polygon opacity="0.5" fill="#DE5D83" enable-background="new    " points="77.877,94.699 77.061,98.078 80,102.896 82.939,98.078 
		82.112,94.699 80,98.078 	"/>
	<polygon opacity="0.5" fill="#FBEE29" points="123.176,86.503 133.042,82.079 155.125,82.079 161,86.503 	"/>
	<polygon opacity="0.5" fill="#79CDCB" points="175.764,86.503 170.459,82.079 208.969,82.079 204.752,86.503 	"/>
	<polygon opacity="0.5" fill="#ED3794" enable-background="new    " points="204.752,86.503 200.001,82.079 229.25,82.079 
		232.094,86.503 230.893,89.092 229.25,86.503 	"/>
	<polygon opacity="0.5" fill="#A25BA4" enable-background="new    " points="239.5,102.896 244.521,94.665 241.661,94.665 
		239.536,98.078 237.342,94.665 234.375,94.699 	"/>
	<polygon opacity="0.5" fill="#F6851F" enable-background="new    " points="229.25,86.503 232.094,86.503 239.536,98.078 
		239.5,102.896 	"/>
	<polygon opacity="0.5" fill="#79CDCB" enable-background="new    " points="239.5,102.896 249.5,86.503 246.745,86.503 
		239.536,98.078 	"/>
	<polygon opacity="0.5" fill="#65BC46" enable-background="new    " points="247.931,89.075 246.745,86.503 249.5,82.079 
		266.666,82.079 271.541,86.503 249.5,86.503 	"/>
	<polygon opacity="0.5" fill="#FBEE29" points="266.666,82.079 262.438,86.562 277.5,86.503 280.501,82.079 279.375,78.562 
		277.105,82.079 	"/>
	<polygon opacity="0.5" fill="#C32127" enable-background="new    " points="277.105,82.079 280.501,82.079 287,72.5 287,66.75 	"/>
	<polygon opacity="0.5" fill="#A25BA4" enable-background="new    " points="296.25,82.079 294.053,78.438 293.469,82.292 
		296.25,86.503 307.688,86.503 303.812,82.079 	"/>
	<polygon opacity="0.5" fill="#ED3794" enable-background="new    " points="287,66.75 296.25,82.079 293.469,82.292 287,72.5 	"/>
	<polygon opacity="0.5" fill="#F6851F" enable-background="new    " points="301.25,86.503 303.812,82.079 320,82.079 320,86.503 	
		"/>
	<polygon opacity="0.5" fill="#FBEE29" points="53.334,82.079 57.562,86.562 42.5,86.503 39.499,82.079 40.625,78.562 
		42.895,82.079 	"/>
	<polygon opacity="0.5" fill="#C32127" enable-background="new    " points="42.895,82.079 39.499,82.079 33,72.5 33,66.75 	"/>
	<polygon opacity="0.5" fill="#A25BA4" enable-background="new    " points="23.75,82.079 25.947,78.438 26.531,82.292 
		23.75,86.503 12.312,86.503 16.188,82.079 	"/>
	<polygon opacity="0.5" fill="#ED3794" enable-background="new    " points="33,66.75 23.75,82.079 26.531,82.292 33,72.5 	"/>
	<polygon opacity="0.5" fill="#F6851F" enable-background="new    " points="18.75,86.503 16.188,82.079 0,82.079 0,86.503 	"/>
</g>
</svg>
