<?xml version="1.0" encoding="utf-8"?>
<!-- Generator: Adobe Illustrator 16.0.4, SVG Export Plug-In . SVG Version: 6.00 Build 0)  -->
<!DOCTYPE svg PUBLIC "-//W3C//DTD SVG 1.1//EN" "http://www.w3.org/Graphics/SVG/1.1/DTD/svg11.dtd">
<svg version="1.1" xmlns="http://www.w3.org/2000/svg" xmlns:xlink="http://www.w3.org/1999/xlink" x="0px" y="0px"
	 width="16.834px" height="16.833px" viewBox="9.833 8.833 16.834 16.833" enable-background="new 9.833 8.833 16.834 16.833"
	 xml:space="preserve">
<g id="Layer_1">
	<g opacity="0.7" enable-background="new    ">
		<g>
			<path id="svgCog" fill="none" stroke="#9E9E9E" stroke-width="0.5" stroke-miterlimit="10" d="M25.185,16.838l-1.117-0.181
				c-0.146-0.024-0.272-0.056-0.279-0.072c-0.009-0.016-0.047-0.182-0.047-0.231c0-0.05,0.107-0.15,0.236-0.224l0.989-0.562
				c0.128-0.073,0.193-0.249,0.142-0.392l-0.176-0.492c-0.05-0.142-0.21-0.234-0.355-0.206l-1.111,0.219
				c-0.146,0.029-0.273,0.043-0.287,0.032c-0.012-0.012-0.104-0.154-0.121-0.203c-0.015-0.045,0.051-0.177,0.147-0.292l0.742-0.874
				c0.097-0.114,0.098-0.302,0.003-0.417l-0.33-0.401c-0.095-0.116-0.276-0.148-0.401-0.07l-0.972,0.596
				c-0.127,0.077-0.242,0.135-0.259,0.129c-0.016-0.007-0.151-0.108-0.182-0.146s-0.013-0.186,0.04-0.326l0.404-1.08
				c0.053-0.141-0.009-0.318-0.136-0.394l-0.446-0.262c-0.126-0.076-0.307-0.042-0.4,0.075l-0.713,0.898
				c-0.094,0.118-0.184,0.211-0.2,0.211s-0.178-0.049-0.22-0.074s-0.073-0.168-0.071-0.32l0.019-1.155
				c0.003-0.15-0.115-0.296-0.261-0.323l-0.505-0.09c-0.146-0.026-0.304,0.068-0.352,0.211l-0.37,1.093
				c-0.048,0.144-0.101,0.264-0.118,0.27c-0.016,0.005-0.184,0.016-0.231,0.007c-0.047-0.009-0.125-0.133-0.173-0.277l-0.37-1.093
				c-0.047-0.142-0.207-0.237-0.353-0.211l-0.505,0.091c-0.146,0.027-0.263,0.172-0.26,0.322l0.019,1.157
				c0.002,0.15-0.007,0.282-0.021,0.293c-0.012,0.01-0.166,0.079-0.214,0.087c-0.047,0.008-0.163-0.081-0.256-0.198L15.4,11.068
				c-0.093-0.118-0.273-0.152-0.402-0.076l-0.443,0.262c-0.127,0.076-0.189,0.252-0.137,0.394l0.406,1.081
				c0.053,0.14,0.087,0.268,0.079,0.283c-0.009,0.014-0.13,0.131-0.173,0.157c-0.042,0.024-0.181-0.02-0.307-0.098l-0.973-0.594
				c-0.126-0.078-0.308-0.047-0.402,0.068l-0.331,0.402c-0.094,0.116-0.092,0.304,0.004,0.417l0.743,0.874
				c0.096,0.115,0.173,0.222,0.169,0.238c-0.004,0.018-0.078,0.171-0.109,0.208c-0.032,0.038-0.176,0.045-0.322,0.017l-1.112-0.219
				c-0.145-0.029-0.305,0.064-0.355,0.206l-0.176,0.493c-0.051,0.141,0.013,0.317,0.143,0.391l0.99,0.562
				c0.129,0.072,0.237,0.147,0.238,0.164c0.002,0.018-0.016,0.187-0.033,0.234c-0.017,0.046-0.15,0.104-0.296,0.127l-1.119,0.182
				c-0.146,0.023-0.264,0.166-0.264,0.317v0.523c0,0.153,0.119,0.294,0.264,0.319l1.119,0.181c0.146,0.024,0.271,0.057,0.279,0.071
				c0.007,0.016,0.046,0.183,0.046,0.231c0,0.051-0.106,0.152-0.235,0.224l-0.99,0.561c-0.129,0.074-0.194,0.25-0.143,0.392
				l0.176,0.492c0.049,0.143,0.21,0.235,0.355,0.207l1.112-0.22c0.145-0.029,0.273-0.043,0.286-0.031
				c0.013,0.012,0.105,0.155,0.122,0.202c0.016,0.046-0.05,0.178-0.147,0.291l-0.742,0.875c-0.097,0.113-0.099,0.301-0.003,0.417
				l0.33,0.401c0.094,0.115,0.275,0.146,0.402,0.069l0.971-0.596c0.127-0.077,0.243-0.136,0.258-0.13
				c0.017,0.008,0.151,0.108,0.182,0.146c0.03,0.04,0.012,0.186-0.04,0.325l-0.406,1.081c-0.053,0.141,0.009,0.318,0.137,0.393
				l0.444,0.264c0.128,0.075,0.31,0.041,0.402-0.076l0.713-0.897c0.093-0.118,0.184-0.213,0.201-0.213
				c0.018,0.003,0.177,0.051,0.22,0.075c0.041,0.024,0.074,0.169,0.071,0.319l-0.018,1.157c-0.002,0.15,0.114,0.295,0.26,0.322
				l0.506,0.091c0.145,0.026,0.305-0.069,0.353-0.213l0.369-1.093c0.047-0.141,0.101-0.264,0.117-0.268
				c0.016-0.006,0.184-0.018,0.231-0.008c0.048,0.009,0.127,0.133,0.175,0.275l0.37,1.094c0.049,0.143,0.207,0.238,0.353,0.212
				l0.505-0.091c0.146-0.027,0.263-0.172,0.26-0.322l-0.018-1.157c-0.004-0.15,0.007-0.282,0.02-0.293
				c0.014-0.01,0.167-0.079,0.215-0.087s0.162,0.082,0.255,0.197l0.714,0.898c0.094,0.117,0.274,0.151,0.402,0.076l0.444-0.262
				c0.128-0.076,0.189-0.254,0.137-0.395l-0.405-1.08c-0.054-0.141-0.089-0.268-0.079-0.282c0.01-0.016,0.13-0.134,0.173-0.158
				c0.042-0.024,0.18,0.019,0.308,0.097l0.971,0.596c0.126,0.077,0.308,0.047,0.402-0.068l0.329-0.402
				c0.096-0.115,0.094-0.303-0.002-0.417L23.205,20.6c-0.098-0.113-0.173-0.221-0.17-0.238c0.005-0.017,0.078-0.17,0.109-0.207
				c0.032-0.038,0.177-0.046,0.322-0.017l1.111,0.22c0.146,0.028,0.306-0.064,0.356-0.207l0.175-0.491
				c0.051-0.142-0.013-0.318-0.143-0.392l-0.988-0.562c-0.13-0.073-0.237-0.147-0.241-0.165c-0.001-0.019,0.044-0.274,0.051-0.29
				c0.008-0.015,0.135-0.047,0.279-0.072l1.117-0.182c0.146-0.024,0.266-0.167,0.266-0.317v-0.524
				C25.45,17.005,25.331,16.862,25.185,16.838z"/>
		</g>
		<g>
			
				<ellipse opacity="0.9" fill="none" stroke="#9E9E9E" stroke-width="0.5" stroke-miterlimit="10" enable-background="new    " cx="18.256" cy="17.458" rx="4.37" ry="4.461"/>
		</g>
	</g>
</g>
<g id="Layer_2" display="none">
	
		<linearGradient id="SVGID_1_" gradientUnits="userSpaceOnUse" x1="-13.8638" y1="191.8008" x2="22.5308" y2="191.8008" gradientTransform="matrix(1 0 0 -1 14 212)">
		<stop  offset="0" style="stop-color:#FFDD15"/>
		<stop  offset="0.1467" style="stop-color:#F6921E"/>
		<stop  offset="0.3114" style="stop-color:#EC1C24"/>
		<stop  offset="0.4607" style="stop-color:#EC297B"/>
		<stop  offset="0.6641" style="stop-color:#90278E"/>
		<stop  offset="0.6919" style="stop-color:#8C2B91"/>
		<stop  offset="0.7222" style="stop-color:#7E379A"/>
		<stop  offset="0.7538" style="stop-color:#694CA8"/>
		<stop  offset="0.7862" style="stop-color:#4A68BD"/>
		<stop  offset="0.8189" style="stop-color:#238CD7"/>
		<stop  offset="0.8439" style="stop-color:#00ADEE"/>
		<stop  offset="1" style="stop-color:#29B473"/>
	</linearGradient>
	
		<polygon display="inline" opacity="0.7" fill="none" stroke="url(#SVGID_1_)" stroke-miterlimit="10" enable-background="new    " points="
		9.525,35.459 0.714,20.199 9.525,4.94 27.141,4.94 35.954,20.199 27.141,35.459 	"/>
	<path display="inline" opacity="0.7" fill="#A9A8A8" enable-background="new    " d="M12.52,16.891l0.817-5.706h0.092l2.32,4.682
		l2.298-4.682h0.09l0.82,5.706h-0.559l-0.563-4.081l-2.018,4.081h-0.146l-2.041-4.112l-0.561,4.112H12.52z"/>
	<path display="inline" opacity="0.7" fill="#A9A8A8" enable-background="new    " d="M19.864,12.671h0.574l1.449,3.25l1.408-3.25
		h0.578l-2.518,5.764h-0.574l0.814-1.864L19.864,12.671z"/>
	<path display="inline" opacity="0.7" fill="#A9A8A8" enable-background="new    " d="M7.708,20.718h0.621l1.891,4.408l1.922-4.408
		h0.621l-2.482,5.705h-0.124L7.708,20.718z"/>
	<path display="inline" opacity="0.7" fill="#A9A8A8" enable-background="new    " d="M13.857,20.466
		c0.124,0,0.229,0.043,0.317,0.132c0.087,0.087,0.131,0.193,0.131,0.317c0,0.121-0.044,0.228-0.131,0.314
		c-0.088,0.088-0.193,0.131-0.317,0.131c-0.121,0-0.225-0.043-0.313-0.131c-0.087-0.087-0.131-0.193-0.131-0.314
		c0-0.124,0.044-0.23,0.131-0.317C13.633,20.51,13.736,20.466,13.857,20.466z M13.588,22.203h0.543v4.22h-0.543V22.203z"/>
	<path display="inline" opacity="0.7" fill="#A9A8A8" enable-background="new    " d="M15.621,26.423v-5.848h0.543v2.353
		c0.227-0.279,0.481-0.488,0.763-0.626c0.281-0.139,0.59-0.208,0.926-0.208c0.596,0,1.105,0.218,1.527,0.65
		c0.424,0.434,0.635,0.959,0.635,1.576c0,0.609-0.215,1.132-0.639,1.563c-0.428,0.431-0.941,0.647-1.54,0.647
		c-0.343,0-0.654-0.073-0.933-0.222c-0.279-0.147-0.526-0.369-0.74-0.663v0.776H15.621L15.621,26.423z M17.793,26.008
		c0.301,0,0.582-0.074,0.836-0.223c0.254-0.149,0.457-0.357,0.609-0.627c0.15-0.269,0.227-0.553,0.227-0.854
		c0-0.3-0.076-0.584-0.229-0.856c-0.152-0.271-0.355-0.482-0.613-0.634c-0.256-0.152-0.531-0.228-0.822-0.228
		c-0.296,0-0.579,0.075-0.846,0.228c-0.267,0.151-0.472,0.354-0.615,0.61c-0.144,0.256-0.215,0.545-0.215,0.865
		c0,0.489,0.161,0.896,0.482,1.226C16.928,25.844,17.324,26.008,17.793,26.008z"/>
	<path display="inline" opacity="0.7" fill="#A9A8A8" enable-background="new    " d="M24.883,25.022l0.459,0.241
		c-0.15,0.294-0.324,0.532-0.521,0.713c-0.195,0.182-0.416,0.318-0.664,0.413c-0.246,0.095-0.523,0.142-0.834,0.142
		c-0.689,0-1.227-0.226-1.615-0.677c-0.389-0.45-0.582-0.961-0.582-1.53c0-0.534,0.166-1.012,0.492-1.431
		c0.418-0.533,0.975-0.8,1.674-0.8c0.719,0,1.293,0.273,1.725,0.82c0.305,0.384,0.459,0.865,0.465,1.442h-3.797
		c0.01,0.489,0.168,0.892,0.471,1.205s0.676,0.47,1.123,0.47c0.213,0,0.422-0.037,0.625-0.111c0.203-0.075,0.377-0.174,0.52-0.297
		C24.565,25.497,24.717,25.299,24.883,25.022z M24.883,23.887c-0.07-0.29-0.176-0.521-0.316-0.694
		c-0.139-0.174-0.32-0.312-0.549-0.419s-0.469-0.159-0.719-0.159c-0.414,0-0.771,0.133-1.068,0.4
		c-0.217,0.193-0.381,0.484-0.492,0.872H24.883z"/>
	<path display="inline" opacity="0.7" fill="#A9A8A8" enable-background="new    " d="M28.616,22.664l-0.35,0.36
		c-0.291-0.28-0.574-0.422-0.852-0.422c-0.176,0-0.326,0.057-0.453,0.175c-0.125,0.115-0.189,0.252-0.189,0.406
		c0,0.139,0.055,0.269,0.156,0.393c0.104,0.126,0.32,0.275,0.654,0.446c0.404,0.209,0.678,0.41,0.822,0.604
		c0.143,0.196,0.215,0.418,0.215,0.663c0,0.347-0.123,0.641-0.365,0.88c-0.244,0.241-0.549,0.361-0.914,0.361
		c-0.244,0-0.477-0.054-0.697-0.158c-0.221-0.107-0.406-0.253-0.551-0.438l0.342-0.389c0.277,0.312,0.572,0.47,0.885,0.47
		c0.217,0,0.402-0.07,0.555-0.21s0.229-0.304,0.229-0.492c0-0.156-0.049-0.294-0.15-0.415c-0.1-0.118-0.328-0.27-0.686-0.45
		c-0.379-0.196-0.639-0.39-0.775-0.582c-0.137-0.19-0.207-0.41-0.207-0.655c0-0.32,0.111-0.588,0.33-0.799
		c0.217-0.211,0.494-0.318,0.828-0.318C27.829,22.094,28.221,22.285,28.616,22.664z"/>
</g>
</svg>
