<?xml version="1.0" encoding="utf-8"?>
<!-- Generator: Adobe Illustrator 16.0.0, SVG Export Plug-In . SVG Version: 6.00 Build 0)  -->
<!DOCTYPE svg PUBLIC "-//W3C//DTD SVG 1.1//EN" "http://www.w3.org/Graphics/SVG/1.1/DTD/svg11.dtd">
<svg version="1.1" id="Layer_1" xmlns="http://www.w3.org/2000/svg" xmlns:xlink="http://www.w3.org/1999/xlink" x="0px" y="0px"
	 width="232px" height="88px" viewBox="0 0 232 88" enable-background="new 0 0 232 88" xml:space="preserve">
<image display="none" overflow="visible" enable-background="new    " width="232" height="88" xlink:href="pins.png" >
</image>
<g>
	<g id="settings">
		<g>
			<g>
				<path id="svgCog" fill="none" stroke="#535353" stroke-width="3" stroke-miterlimit="10" d="M149.758,40.633l-6.482-1.052
					c-0.848-0.14-1.578-0.323-1.622-0.417c-0.046-0.089-0.273-1.054-0.273-1.338c0-0.289,0.62-0.875,1.366-1.298l5.745-3.267
					c0.747-0.419,1.122-1.441,0.828-2.271l-1.023-2.852c-0.29-0.824-1.219-1.361-2.06-1.194l-6.453,1.271
					c-0.842,0.167-1.587,0.249-1.662,0.18c-0.07-0.065-0.605-0.893-0.703-1.168c-0.094-0.266,0.288-1.031,0.851-1.694l4.304-5.069
					c0.564-0.663,0.571-1.753,0.021-2.421l-1.915-2.327c-0.551-0.676-1.604-0.858-2.335-0.404l-5.637,3.452
					c-0.739,0.45-1.411,0.788-1.504,0.751c-0.091-0.044-0.873-0.627-1.054-0.849c-0.178-0.225-0.074-1.079,0.232-1.89l2.346-6.269
					c0.309-0.82-0.05-1.844-0.791-2.284l-2.579-1.522c-0.74-0.439-1.789-0.239-2.329,0.438l-4.138,5.214
					c-0.54,0.684-1.065,1.231-1.161,1.229c-0.102-0.004-1.031-0.285-1.275-0.432c-0.241-0.146-0.428-0.977-0.413-1.857l0.104-6.706
					c0.015-0.875-0.667-1.72-1.511-1.875l-2.928-0.524c-0.847-0.153-1.765,0.396-2.044,1.228l-2.148,6.344
					c-0.275,0.829-0.584,1.527-0.681,1.561c-0.093,0.026-1.066,0.09-1.342,0.041c-0.272-0.053-0.729-0.773-1.006-1.602l-2.147-6.346
					c-0.278-0.825-1.2-1.377-2.044-1.225l-2.933,0.524c-0.845,0.156-1.524,0.999-1.51,1.871l0.109,6.714
					c0.015,0.875-0.039,1.641-0.12,1.703c-0.074,0.058-0.966,0.458-1.243,0.508c-0.278,0.048-0.946-0.471-1.487-1.151l-4.142-5.213
					c-0.538-0.683-1.59-0.882-2.333-0.444l-2.574,1.524c-0.742,0.441-1.099,1.464-0.794,2.286l2.353,6.269
					c0.306,0.812,0.51,1.557,0.457,1.643c-0.051,0.082-0.757,0.765-1.001,0.91c-0.244,0.143-1.051-0.112-1.78-0.563l-5.641-3.451
					c-0.734-0.453-1.787-0.272-2.339,0.398l-1.913,2.332c-0.548,0.671-0.539,1.758,0.02,2.419l4.309,5.071
					c0.562,0.663,1.004,1.285,0.981,1.381c-0.023,0.104-0.453,0.994-0.635,1.209c-0.184,0.218-1.022,0.262-1.863,0.093l-6.454-1.271
					c-0.842-0.167-1.771,0.371-2.062,1.196l-1.019,2.858c-0.297,0.82,0.077,1.843,0.83,2.269l5.744,3.258
					c0.749,0.423,1.374,0.853,1.383,0.953c0.015,0.104-0.094,1.086-0.193,1.359c-0.097,0.269-0.869,0.601-1.716,0.737l-6.494,1.057
					c-0.846,0.135-1.533,0.965-1.533,1.842v3.04c0,0.882,0.689,1.706,1.537,1.845l6.489,1.051c0.847,0.145,1.573,0.331,1.619,0.417
					c0.044,0.092,0.273,1.055,0.271,1.344c-0.002,0.29-0.616,0.876-1.363,1.296l-5.746,3.256c-0.751,0.423-1.125,1.449-0.828,2.271
					l1.018,2.858c0.289,0.822,1.221,1.359,2.063,1.195l6.452-1.275c0.841-0.168,1.59-0.248,1.659-0.181
					c0.074,0.069,0.612,0.896,0.708,1.17c0.092,0.268-0.288,1.03-0.854,1.689l-4.306,5.077c-0.562,0.656-0.573,1.749-0.02,2.419
					l1.914,2.331c0.551,0.67,1.604,0.849,2.34,0.4l5.636-3.453c0.733-0.449,1.409-0.787,1.501-0.75
					c0.092,0.042,0.876,0.628,1.055,0.847c0.178,0.227,0.074,1.076-0.232,1.89l-2.351,6.274c-0.307,0.816,0.053,1.843,0.793,2.281
					l2.579,1.521c0.742,0.441,1.795,0.241,2.334-0.439l4.139-5.21c0.538-0.685,1.061-1.233,1.161-1.229
					c0.099,0.006,1.03,0.287,1.274,0.428c0.239,0.146,0.426,0.98,0.413,1.856l-0.109,6.714c-0.014,0.877,0.666,1.714,1.51,1.866
					l2.938,0.531c0.843,0.15,1.765-0.4,2.044-1.232l2.143-6.343c0.277-0.823,0.586-1.528,0.682-1.556
					c0.093-0.03,1.064-0.097,1.343-0.04c0.277,0.047,0.736,0.766,1.013,1.595l2.145,6.346c0.283,0.831,1.202,1.381,2.047,1.23
					l2.93-0.523c0.845-0.156,1.525-0.997,1.51-1.87l-0.107-6.719c-0.016-0.87,0.039-1.641,0.119-1.699
					c0.075-0.06,0.965-0.459,1.244-0.507c0.278-0.046,0.943,0.471,1.484,1.149l4.139,5.211c0.544,0.681,1.592,0.878,2.333,0.442
					l2.578-1.518c0.744-0.444,1.101-1.47,0.793-2.289l-2.35-6.267c-0.311-0.817-0.515-1.558-0.458-1.639
					c0.057-0.089,0.756-0.775,1.001-0.916s1.046,0.109,1.782,0.562l5.637,3.452c0.73,0.448,1.788,0.271,2.337-0.401l1.913-2.333
					c0.553-0.666,0.543-1.758-0.018-2.416l-4.309-5.074c-0.563-0.66-1.004-1.281-0.984-1.383c0.028-0.096,0.455-0.986,0.638-1.2
					c0.185-0.224,1.022-0.264,1.862-0.099l6.453,1.275c0.842,0.164,1.77-0.372,2.065-1.195L149.32,57
					c0.293-0.823-0.076-1.846-0.829-2.271l-5.741-3.258c-0.75-0.424-1.375-0.854-1.392-0.955c-0.009-0.104,0.249-1.592,0.295-1.682
					c0.044-0.092,0.774-0.276,1.618-0.42l6.486-1.053c0.849-0.135,1.541-0.967,1.541-1.843v-3.041
					C151.299,41.6,150.607,40.771,149.758,40.633z"/>
				
			</g>
			<g>
				
					<ellipse opacity="0.9" fill="none" stroke="#535353" stroke-width="3" stroke-miterlimit="10" enable-background="new    " cx="110" cy="44" rx="24.732" ry="25.25"/>
			</g>
		</g>
	</g>
	<g id="emo">
		<g>
			<polygon opacity="0.05" enable-background="new    " points="140.916,39.733 127.802,62.446 140.916,85.16 167.142,85.16 
				148.69,39.733 			"/>
			
				<linearGradient id="SVGID_1_" gradientUnits="userSpaceOnUse" x1="1635.6895" y1="-226.4497" x2="1678.2363" y2="-226.4497" gradientTransform="matrix(1 0 0 -1 -1503 -192.9688)">
				<stop  offset="0" style="stop-color:#F9ED32;stop-opacity:0.8"/>
				<stop  offset="1" style="stop-color:#FBB040;stop-opacity:0.8"/>
			</linearGradient>
			<polygon fill="url(#SVGID_1_)" points="143.323,40.082 132.689,33.479 143.323,26.88 164.599,26.88 175.236,33.479 
				164.599,40.082 			"/>
			<polygon fill="#ED3794" points="140.916,85.16 127.802,62.446 140.916,39.733 167.142,39.733 180.255,62.446 167.142,85.16 			
				"/>
			<polygon fill="#F6851F" points="132.73,33.477 143.378,40.062 137.709,30.365 			"/>
			<polygon fill="#65BC46" points="170.216,30.365 175.183,33.447 164.699,40.043 			"/>
			<polygon opacity="0.1" enable-background="new    " points="170.216,30.365 172.229,31.616 164.699,40.043 			"/>
			<polygon fill="#FBEE29" points="143.323,40.097 132.689,21.672 143.323,3.25 164.599,3.25 175.236,21.672 164.599,40.097 			"/>
			<polygon opacity="0.05" enable-background="new    " points="143.323,3.25 132.689,21.672 143.378,40.062 164.699,40.043 			"/>
			<polygon opacity="0.05" fill="#FFFFFF" enable-background="new    " points="165.162,52.421 156.068,57.885 167.142,85.16 
				170.155,79.938 180.255,62.446 			"/>
			<polygon opacity="0.05" enable-background="new    " points="156.068,57.885 138.064,80.228 140.916,85.16 167.204,85.16 			"/>
			<g>
				<polygon fill="#A25BA4" points="131.888,86.941 125.919,76.596 131.888,66.254 143.833,66.254 149.808,76.596 143.833,86.941 
									"/>
				<polygon opacity="0.1" enable-background="new    " points="131.888,66.254 143.833,86.941 131.888,86.941 125.919,76.596 				
					"/>
				<polygon opacity="0.1" enable-background="new    " points="126.317,76.596 132.074,86.564 134.373,86.564 				"/>
			</g>
			<polygon opacity="0.05" enable-background="new    " points="153.964,21.563 143.378,40.062 164.699,40.043 			"/>
			<polygon opacity="0.05" enable-background="new    " points="143.323,3.25 153.964,21.563 164.599,3.25 			"/>
			<polygon opacity="0.1" enable-background="new    " points="137.699,30.373 136.149,31.34 143.267,39.99 			"/>
			<polygon opacity="0.2" enable-background="new    " points="175.709,86.941 181.533,84.211 178.178,82.665 			"/>
			<g>
				<polygon fill="#5296D0" points="163.765,86.941 157.791,76.6 163.765,66.254 175.709,66.254 181.679,76.6 175.709,86.941 				
					"/>
				<polygon opacity="0.1" enable-background="new    " points="163.765,66.254 175.709,86.941 163.765,86.941 157.791,76.6 				"/>
				<polygon opacity="0.1" enable-background="new    " points="158.692,76.6 164.455,86.562 166.749,86.562 				"/>
			</g>
			<polygon opacity="0.4" enable-background="new    " points="157.791,85.16 163.765,86.941 162.719,85.16 			"/>
			<polygon opacity="0.2" enable-background="new    " points="131.888,86.941 129.42,82.665 125.876,84.188 			"/>
			<polygon opacity="0.4" enable-background="new    " points="143.833,86.941 149.808,85.16 144.861,85.16 			"/>
			<g>
				<polygon fill="#EE3255" points="145.94,38.556 135.288,31.971 124.266,37.899 123.883,50.416 134.535,56.999 145.56,51.071 				
					"/>
				<polygon opacity="0.1" enable-background="new    " points="124.266,37.899 123.883,50.416 134.535,56.999 145.56,51.071 				
					"/>
				<polygon opacity="0.1" enable-background="new    " points="123.883,50.416 124.033,45.53 137.958,55.158 134.535,56.999 				
					"/>
			</g>
			<g>
				<polygon fill="#79CDCB" points="161.665,38.1 172.149,31.505 183.106,37.29 183.569,49.669 173.081,56.263 162.129,50.479 				
					"/>
				<polygon opacity="0.1" enable-background="new    " points="183.106,37.29 162.129,50.479 173.081,56.263 183.569,49.669 				
					"/>
				<polygon opacity="0.1" enable-background="new    " points="183.569,49.669 183.399,45.092 170.292,54.79 173.081,56.263 				
					"/>
			</g>
			<polygon opacity="0.1" enable-background="new    " points="131.892,55.365 134.535,56.999 145.446,51.001 127.802,62.446 			"/>
			<polygon opacity="0.1" enable-background="new    " points="175.709,54.611 180.255,62.446 162.129,50.479 173.081,56.263 			"/>
		</g>
	</g>
</g>
</svg>
