<?xml version="1.0" encoding="utf-8"?>
<!-- Generator: Adobe Illustrator 16.0.4, SVG Export Plug-In . SVG Version: 6.00 Build 0)  -->
<!DOCTYPE svg PUBLIC "-//W3C//DTD SVG 1.1//EN" "http://www.w3.org/Graphics/SVG/1.1/DTD/svg11.dtd">
<svg version="1.1" id="Layer_1" xmlns="http://www.w3.org/2000/svg" xmlns:xlink="http://www.w3.org/1999/xlink" x="0px" y="0px"
	 width="92px" height="89.252px" viewBox="0 0 92 89.252" enable-background="new 0 0 92 89.252" xml:space="preserve">
<g>
	<g>
		<path id="svgCog" fill="none" stroke="#FFFFFF" stroke-width="5" stroke-miterlimit="10" d="M85.844,41.683l-6.424-1.042
			c-0.84-0.139-1.563-0.32-1.606-0.413c-0.048-0.089-0.271-1.045-0.271-1.327c0-0.287,0.614-0.867,1.354-1.287l5.692-3.237
			c0.74-0.415,1.111-1.428,0.82-2.25l-1.015-2.826c-0.286-0.817-1.206-1.349-2.042-1.184l-6.394,1.26
			c-0.835,0.166-1.572,0.247-1.647,0.179c-0.069-0.065-0.597-0.886-0.696-1.158c-0.092-0.264,0.286-1.021,0.844-1.678l4.266-5.023
			c0.56-0.658,0.565-1.737,0.021-2.398l-1.897-2.307c-0.547-0.67-1.59-0.85-2.313-0.4l-5.586,3.421
			c-0.732,0.446-1.398,0.78-1.49,0.744c-0.091-0.043-0.866-0.621-1.045-0.842c-0.175-0.223-0.073-1.069,0.229-1.873l2.326-6.213
			c0.306-0.812-0.05-1.827-0.783-2.262l-2.558-1.509c-0.732-0.435-1.772-0.237-2.306,0.434L59.22,13.66
			c-0.534,0.678-1.056,1.22-1.149,1.218c-0.101-0.004-1.022-0.283-1.265-0.428c-0.239-0.145-0.424-0.969-0.409-1.841L56.5,5.964
			c0.015-0.867-0.661-1.704-1.498-1.858l-2.901-0.519c-0.84-0.152-1.749,0.392-2.025,1.217l-2.129,6.286
			c-0.271,0.822-0.579,1.514-0.675,1.547c-0.092,0.026-1.056,0.089-1.329,0.041c-0.27-0.052-0.723-0.766-0.998-1.588l-2.127-6.288
			c-0.274-0.818-1.188-1.365-2.025-1.214l-2.907,0.52c-0.836,0.155-1.51,0.99-1.496,1.854l0.108,6.653
			c0.015,0.867-0.039,1.626-0.119,1.688c-0.073,0.058-0.957,0.454-1.231,0.503c-0.276,0.048-0.938-0.466-1.474-1.141l-4.104-5.166
			c-0.533-0.677-1.575-0.874-2.312-0.44L24.706,9.57c-0.735,0.436-1.089,1.451-0.786,2.265l2.332,6.212
			c0.303,0.804,0.505,1.542,0.453,1.628c-0.051,0.081-0.75,0.758-0.992,0.902c-0.242,0.142-1.042-0.11-1.765-0.558l-5.59-3.419
			c-0.728-0.448-1.771-0.27-2.318,0.394l-1.896,2.311c-0.542,0.666-0.533,1.742,0.02,2.397l4.27,5.025
			c0.557,0.658,0.995,1.274,0.973,1.369c-0.022,0.103-0.45,0.985-0.629,1.197c-0.183,0.216-1.013,0.26-1.847,0.092l-6.396-1.259
			c-0.833-0.166-1.754,0.368-2.042,1.185l-1.01,2.832c-0.294,0.813,0.076,1.827,0.822,2.249l5.692,3.229
			c0.742,0.419,1.361,0.845,1.371,0.943c0.014,0.104-0.093,1.077-0.191,1.347c-0.096,0.267-0.861,0.596-1.7,0.73l-6.435,1.048
			c-0.838,0.133-1.52,0.956-1.52,1.825v3.011c0,0.876,0.683,1.692,1.523,1.831l6.43,1.041c0.839,0.143,1.558,0.328,1.604,0.413
			c0.044,0.09,0.271,1.046,0.269,1.33c-0.002,0.289-0.61,0.869-1.351,1.285l-5.694,3.227c-0.744,0.421-1.115,1.436-0.82,2.25
			l1.009,2.832c0.286,0.814,1.21,1.348,2.044,1.184l6.393-1.262c0.834-0.168,1.576-0.246,1.645-0.179
			c0.073,0.067,0.606,0.887,0.702,1.159c0.091,0.266-0.286,1.02-0.846,1.673l-4.268,5.03c-0.557,0.651-0.567,1.734-0.02,2.398
			l1.897,2.309c0.546,0.665,1.589,0.842,2.319,0.398l5.585-3.424c0.727-0.444,1.396-0.778,1.487-0.742
			c0.091,0.041,0.869,0.621,1.046,0.84c0.176,0.225,0.073,1.064-0.23,1.872l-2.33,6.218c-0.304,0.809,0.052,1.825,0.786,2.26
			l2.556,1.507c0.735,0.438,1.778,0.24,2.312-0.436l4.101-5.162c0.533-0.679,1.051-1.221,1.151-1.218
			c0.098,0.006,1.02,0.284,1.262,0.423c0.237,0.146,0.423,0.973,0.41,1.84l-0.108,6.653c-0.014,0.869,0.659,1.697,1.496,1.85
			l2.911,0.526c0.836,0.147,1.75-0.396,2.025-1.222l2.125-6.285c0.274-0.815,0.58-1.515,0.675-1.541
			c0.092-0.031,1.055-0.097,1.331-0.041c0.275,0.047,0.73,0.759,1.004,1.582l2.125,6.287c0.28,0.824,1.191,1.368,2.027,1.22
			l2.904-0.519c0.839-0.155,1.512-0.988,1.497-1.854L56.4,77.422c-0.017-0.863,0.038-1.627,0.118-1.684
			c0.074-0.059,0.957-0.455,1.233-0.503c0.275-0.045,0.934,0.467,1.47,1.139l4.103,5.163c0.538,0.676,1.576,0.872,2.312,0.438
			l2.555-1.504c0.736-0.44,1.09-1.455,0.785-2.27l-2.329-6.208c-0.308-0.812-0.511-1.545-0.453-1.625
			c0.056-0.088,0.748-0.768,0.991-0.908c0.243-0.14,1.037,0.108,1.767,0.556l5.586,3.424c0.723,0.442,1.771,0.268,2.315-0.4
			l1.895-2.311c0.549-0.659,0.539-1.741-0.018-2.394l-4.269-5.028c-0.559-0.655-0.994-1.271-0.976-1.37
			c0.026-0.094,0.451-0.978,0.631-1.189c0.184-0.222,1.014-0.262,1.846-0.097l6.395,1.262c0.835,0.163,1.756-0.369,2.047-1.183
			l1.006-2.829c0.291-0.815-0.075-1.827-0.82-2.25l-5.69-3.228c-0.743-0.42-1.362-0.847-1.381-0.947
			c-0.008-0.103,0.248-1.578,0.294-1.666c0.044-0.091,0.769-0.272,1.604-0.416l6.427-1.043c0.84-0.135,1.526-0.959,1.526-1.829
			v-3.012C87.37,42.642,86.685,41.82,85.844,41.683z"/>
	</g>
	<g>
		<ellipse opacity="0.9" fill="#FFFFFF" enable-background="new    " cx="46" cy="45.252" rx="25.13" ry="25.656"/>
	</g>
</g>
</svg>
