<?xml version="1.0" encoding="utf-8"?>
<!-- Generator: Adobe Illustrator 16.0.4, SVG Export Plug-In . SVG Version: 6.00 Build 0)  -->
<!DOCTYPE svg PUBLIC "-//W3C//DTD SVG 1.1//EN" "http://www.w3.org/Graphics/SVG/1.1/DTD/svg11.dtd">
<svg version="1.1" id="Layer_1" xmlns="http://www.w3.org/2000/svg" xmlns:xlink="http://www.w3.org/1999/xlink" x="0px" y="0px"
	 width="36.667px" height="39px" viewBox="28.167 17.126 36.667 39" enable-background="new 28.167 17.126 36.667 39"
	 xml:space="preserve">
<g>
	<g>
		<path id="svgCog" fill="none" stroke="#ADADAD" stroke-miterlimit="10" d="M61.927,35.541l-2.524-0.409
			c-0.33-0.055-0.614-0.126-0.631-0.162c-0.02-0.036-0.106-0.411-0.106-0.522c0-0.113,0.241-0.34,0.532-0.506l2.236-1.271
			c0.291-0.164,0.438-0.562,0.322-0.884l-0.398-1.111c-0.113-0.321-0.475-0.529-0.803-0.465l-2.513,0.495
			c-0.328,0.066-0.617,0.098-0.647,0.071c-0.026-0.026-0.234-0.348-0.272-0.456c-0.036-0.103,0.112-0.401,0.331-0.659l1.676-1.974
			c0.221-0.259,0.223-0.683,0.009-0.942l-0.745-0.907c-0.216-0.263-0.625-0.334-0.909-0.157l-2.194,1.345
			c-0.288,0.175-0.55,0.306-0.586,0.292c-0.036-0.017-0.341-0.244-0.41-0.331c-0.069-0.087-0.029-0.42,0.09-0.736l0.914-2.441
			c0.119-0.319-0.021-0.718-0.308-0.889l-1.006-0.593c-0.287-0.171-0.695-0.094-0.906,0.17l-1.611,2.03
			c-0.211,0.267-0.416,0.479-0.452,0.479c-0.039-0.001-0.401-0.112-0.496-0.168c-0.096-0.057-0.167-0.38-0.162-0.724l0.041-2.611
			c0.007-0.34-0.26-0.669-0.589-0.729l-1.14-0.204c-0.33-0.06-0.688,0.154-0.796,0.478l-0.836,2.47
			c-0.107,0.323-0.228,0.596-0.266,0.608c-0.036,0.01-0.415,0.036-0.522,0.016c-0.106-0.02-0.284-0.301-0.392-0.624l-0.835-2.471
			c-0.108-0.321-0.467-0.536-0.796-0.477l-1.142,0.205c-0.329,0.061-0.593,0.389-0.588,0.729l0.042,2.614
			c0.006,0.34-0.016,0.639-0.047,0.663c-0.028,0.023-0.376,0.178-0.484,0.198c-0.108,0.019-0.368-0.183-0.579-0.449l-1.613-2.029
			c-0.209-0.266-0.618-0.344-0.908-0.173l-1.003,0.593c-0.289,0.171-0.428,0.57-0.309,0.89l0.917,2.441
			c0.119,0.316,0.198,0.606,0.178,0.64c-0.021,0.032-0.295,0.298-0.391,0.355c-0.095,0.055-0.409-0.044-0.693-0.22l-2.197-1.343
			c-0.286-0.177-0.696-0.107-0.911,0.154l-0.745,0.908c-0.213,0.262-0.209,0.685,0.008,0.942l1.678,1.975
			c0.218,0.259,0.391,0.5,0.382,0.538c-0.009,0.041-0.177,0.387-0.247,0.47c-0.072,0.084-0.398,0.102-0.726,0.036l-2.514-0.495
			c-0.327-0.065-0.689,0.145-0.802,0.466l-0.397,1.113c-0.115,0.319,0.03,0.718,0.323,0.883l2.237,1.269
			c0.292,0.165,0.535,0.332,0.539,0.371c0.005,0.041-0.037,0.423-0.075,0.529c-0.038,0.104-0.338,0.234-0.668,0.287l-2.528,0.412
			c-0.329,0.052-0.598,0.375-0.598,0.717v1.183c0,0.344,0.269,0.665,0.599,0.72l2.527,0.409c0.33,0.056,0.612,0.129,0.63,0.162
			c0.017,0.035,0.106,0.411,0.105,0.522c0,0.114-0.24,0.342-0.531,0.505l-2.238,1.268c-0.292,0.166-0.438,0.565-0.322,0.884
			l0.396,1.113c0.112,0.32,0.476,0.53,0.803,0.466l2.512-0.496c0.328-0.066,0.619-0.097,0.646-0.07
			c0.029,0.026,0.238,0.349,0.275,0.456c0.036,0.104-0.112,0.4-0.332,0.658l-1.677,1.977c-0.219,0.255-0.223,0.681-0.008,0.942
			l0.746,0.906c0.214,0.262,0.624,0.331,0.911,0.157l2.194-1.346c0.286-0.175,0.549-0.306,0.584-0.292
			c0.036,0.017,0.341,0.244,0.411,0.33c0.069,0.089,0.028,0.418-0.09,0.735l-0.916,2.443c-0.119,0.317,0.021,0.718,0.309,0.888
			l1.004,0.593c0.289,0.172,0.699,0.095,0.908-0.171l1.611-2.028c0.21-0.267,0.414-0.48,0.453-0.479
			c0.039,0.003,0.401,0.112,0.496,0.167c0.093,0.057,0.166,0.382,0.161,0.723l-0.042,2.614c-0.005,0.342,0.259,0.667,0.588,0.728
			l1.144,0.206c0.328,0.059,0.688-0.155,0.796-0.48l0.835-2.47c0.107-0.319,0.228-0.595,0.265-0.604
			c0.036-0.013,0.415-0.039,0.523-0.017c0.108,0.019,0.287,0.298,0.395,0.621l0.835,2.471c0.11,0.324,0.469,0.538,0.797,0.479
			l1.141-0.204c0.33-0.062,0.595-0.388,0.588-0.729l-0.041-2.615c-0.007-0.339,0.015-0.639,0.046-0.662
			c0.029-0.022,0.376-0.179,0.484-0.197c0.108-0.018,0.367,0.184,0.578,0.447l1.612,2.029c0.211,0.266,0.619,0.343,0.909,0.172
			l1.003-0.591c0.289-0.173,0.429-0.572,0.31-0.892l-0.917-2.439c-0.12-0.319-0.2-0.607-0.178-0.639
			c0.022-0.035,0.294-0.302,0.391-0.357c0.095-0.055,0.407,0.042,0.694,0.219l2.194,1.346c0.284,0.174,0.695,0.105,0.91-0.157
			l0.744-0.908c0.216-0.259,0.212-0.684-0.007-0.941l-1.678-1.975c-0.22-0.258-0.391-0.5-0.384-0.539
			c0.011-0.037,0.177-0.384,0.248-0.467c0.072-0.087,0.398-0.104,0.726-0.038l2.513,0.496c0.328,0.063,0.69-0.145,0.805-0.465
			l0.395-1.112c0.115-0.32-0.029-0.718-0.322-0.884l-2.235-1.269c-0.292-0.165-0.535-0.333-0.542-0.372
			c-0.004-0.041,0.097-0.62,0.115-0.654c0.017-0.035,0.302-0.107,0.63-0.164l2.525-0.41c0.33-0.053,0.6-0.376,0.6-0.718v-1.184
			C62.526,35.917,62.258,35.595,61.927,35.541z"/>
	</g>
	<g>
		
			<ellipse opacity="0.9" fill="#FFFFFF" stroke="#AEADAE" stroke-miterlimit="10" enable-background="new    " cx="46.271" cy="36.943" rx="9.875" ry="10.081"/>
	</g>
</g>
</svg>
