<?xml version="1.0" encoding="utf-8"?>
<!-- Generator: Adobe Illustrator 16.0.4, SVG Export Plug-In . SVG Version: 6.00 Build 0)  -->
<!DOCTYPE svg PUBLIC "-//W3C//DTD SVG 1.1//EN" "http://www.w3.org/Graphics/SVG/1.1/DTD/svg11.dtd">
<svg version="1.1" xmlns="http://www.w3.org/2000/svg" xmlns:xlink="http://www.w3.org/1999/xlink" x="0px" y="0px"
	 width="29.167px" height="28.833px" viewBox="3.5 4.833 29.167 28.833" enable-background="new 3.5 4.833 29.167 28.833"
	 xml:space="preserve">
<g id="Layer_1">
	<g opacity="0.7" enable-background="new    ">
		<g>
			<path id="svgCog" fill="none" stroke="#9E9E9E" stroke-width="0.75" stroke-miterlimit="10" d="M30.966,18.432l-2.061-0.333
				c-0.269-0.045-0.501-0.103-0.515-0.132c-0.017-0.03-0.087-0.335-0.087-0.426c0-0.092,0.198-0.278,0.436-0.414l1.824-1.037
				c0.237-0.134,0.357-0.458,0.262-0.721l-0.324-0.907c-0.092-0.261-0.388-0.432-0.655-0.379l-2.05,0.404
				c-0.268,0.053-0.504,0.081-0.528,0.058c-0.021-0.021-0.19-0.284-0.223-0.373c-0.028-0.083,0.092-0.327,0.271-0.537l1.368-1.611
				c0.18-0.21,0.182-0.557,0.007-0.768l-0.608-0.74c-0.176-0.214-0.51-0.272-0.741-0.128l-1.791,1.098
				c-0.234,0.143-0.447,0.25-0.478,0.238c-0.029-0.014-0.278-0.199-0.335-0.27c-0.056-0.072-0.023-0.343,0.073-0.601l0.746-1.992
				c0.097-0.26-0.017-0.586-0.25-0.726l-0.822-0.483c-0.233-0.14-0.566-0.077-0.738,0.139l-1.314,1.657
				c-0.173,0.217-0.34,0.39-0.369,0.39c-0.032,0-0.328-0.091-0.405-0.137c-0.078-0.046-0.136-0.31-0.132-0.591l0.033-2.13
				c0.006-0.277-0.212-0.546-0.48-0.595l-0.931-0.166c-0.27-0.049-0.561,0.126-0.648,0.39l-0.682,2.015
				c-0.088,0.264-0.187,0.487-0.218,0.497c-0.029,0.009-0.338,0.029-0.426,0.014c-0.086-0.017-0.231-0.246-0.319-0.51l-0.682-2.016
				c-0.087-0.261-0.381-0.437-0.649-0.389l-0.931,0.167c-0.27,0.049-0.485,0.317-0.48,0.594l0.034,2.133
				c0.005,0.277-0.013,0.521-0.039,0.541c-0.022,0.019-0.306,0.145-0.395,0.161c-0.087,0.016-0.3-0.149-0.472-0.366l-1.316-1.656
				c-0.17-0.217-0.503-0.28-0.741-0.141l-0.818,0.483c-0.235,0.14-0.349,0.465-0.251,0.726l0.748,1.992
				c0.097,0.258,0.161,0.494,0.145,0.522c-0.018,0.026-0.241,0.242-0.319,0.29c-0.078,0.045-0.334-0.036-0.565-0.18L9.329,10.39
				c-0.233-0.144-0.567-0.087-0.743,0.126l-0.609,0.741c-0.174,0.214-0.17,0.56,0.007,0.769l1.369,1.612
				c0.178,0.211,0.32,0.408,0.312,0.439c-0.007,0.034-0.144,0.315-0.201,0.383c-0.059,0.069-0.325,0.083-0.593,0.03L6.82,14.085
				c-0.268-0.053-0.562,0.119-0.655,0.38l-0.324,0.908c-0.094,0.26,0.024,0.585,0.263,0.72L7.93,17.13
				c0.238,0.134,0.437,0.271,0.439,0.303c0.004,0.033-0.029,0.345-0.061,0.431c-0.03,0.085-0.276,0.191-0.545,0.234l-2.062,0.336
				c-0.269,0.042-0.488,0.306-0.488,0.585v0.965c0,0.281,0.219,0.543,0.488,0.588l2.062,0.334c0.269,0.045,0.5,0.105,0.515,0.131
				c0.014,0.029,0.086,0.337,0.085,0.427c0,0.093-0.196,0.28-0.433,0.412L6.104,22.91c-0.239,0.136-0.358,0.461-0.263,0.722
				l0.324,0.908c0.091,0.262,0.387,0.433,0.655,0.381l2.05-0.405c0.268-0.054,0.505-0.079,0.527-0.058
				c0.023,0.021,0.194,0.285,0.224,0.372c0.029,0.085-0.092,0.327-0.271,0.537L7.982,26.98c-0.179,0.209-0.182,0.556-0.006,0.769
				l0.609,0.739c0.173,0.214,0.508,0.271,0.742,0.129l1.791-1.099c0.234-0.143,0.448-0.25,0.477-0.238
				c0.03,0.014,0.278,0.199,0.335,0.269c0.056,0.074,0.022,0.342-0.073,0.601l-0.748,1.993c-0.097,0.259,0.017,0.586,0.252,0.725
				l0.819,0.484c0.236,0.14,0.57,0.077,0.741-0.14l1.315-1.655c0.17-0.218,0.338-0.392,0.37-0.392
				c0.032,0.004,0.327,0.093,0.405,0.138c0.075,0.046,0.136,0.312,0.131,0.589l-0.034,2.134c-0.004,0.278,0.21,0.544,0.48,0.594
				l0.933,0.168c0.267,0.049,0.562-0.127,0.649-0.392l0.681-2.016c0.087-0.26,0.186-0.485,0.216-0.492
				c0.029-0.012,0.339-0.032,0.427-0.015c0.088,0.016,0.234,0.244,0.322,0.507l0.682,2.017c0.09,0.264,0.383,0.439,0.65,0.391
				l0.931-0.167c0.27-0.05,0.485-0.316,0.479-0.594l-0.033-2.135c-0.006-0.276,0.013-0.521,0.037-0.54
				c0.024-0.018,0.308-0.146,0.396-0.161c0.089-0.014,0.299,0.151,0.471,0.365l1.316,1.656c0.173,0.217,0.505,0.279,0.741,0.14
				l0.819-0.481c0.235-0.142,0.349-0.468,0.252-0.728l-0.748-1.991c-0.098-0.26-0.163-0.495-0.145-0.521
				c0.018-0.029,0.239-0.247,0.318-0.292c0.077-0.045,0.332,0.034,0.566,0.179l1.79,1.098c0.232,0.143,0.567,0.086,0.743-0.127
				l0.606-0.741c0.177-0.211,0.173-0.558-0.005-0.769l-1.369-1.611c-0.181-0.21-0.319-0.407-0.314-0.439
				c0.01-0.03,0.146-0.313,0.203-0.381c0.059-0.071,0.325-0.085,0.593-0.031l2.05,0.405c0.268,0.052,0.563-0.119,0.657-0.381
				l0.322-0.906c0.094-0.262-0.023-0.586-0.263-0.722l-1.823-1.035c-0.239-0.135-0.437-0.271-0.443-0.304
				c-0.003-0.034,0.08-0.505,0.094-0.534c0.015-0.027,0.247-0.087,0.515-0.133l2.06-0.335c0.27-0.044,0.49-0.307,0.49-0.585v-0.967
				C31.455,18.739,31.235,18.476,30.966,18.432z"/>
		</g>
		<g>
			
				<ellipse opacity="0.9" fill="none" stroke="#9E9E9E" stroke-width="0.75" stroke-miterlimit="10" enable-background="new    " cx="18.191" cy="19.575" rx="8.058" ry="8.226"/>
		</g>
	</g>
</g>
<g id="Layer_2" display="none">
	
		<linearGradient id="SVGID_1_" gradientUnits="userSpaceOnUse" x1="-13.8638" y1="191.8008" x2="22.5308" y2="191.8008" gradientTransform="matrix(1 0 0 -1 14 212)">
		<stop  offset="0" style="stop-color:#FFDD15"/>
		<stop  offset="0.1467" style="stop-color:#F6921E"/>
		<stop  offset="0.3114" style="stop-color:#EC1C24"/>
		<stop  offset="0.4607" style="stop-color:#EC297B"/>
		<stop  offset="0.6641" style="stop-color:#90278E"/>
		<stop  offset="0.6919" style="stop-color:#8C2B91"/>
		<stop  offset="0.7222" style="stop-color:#7E379A"/>
		<stop  offset="0.7538" style="stop-color:#694CA8"/>
		<stop  offset="0.7862" style="stop-color:#4A68BD"/>
		<stop  offset="0.8189" style="stop-color:#238CD7"/>
		<stop  offset="0.8439" style="stop-color:#00ADEE"/>
		<stop  offset="1" style="stop-color:#29B473"/>
	</linearGradient>
	
		<polygon display="inline" opacity="0.7" fill="none" stroke="url(#SVGID_1_)" stroke-miterlimit="10" enable-background="new    " points="
		9.525,35.459 0.714,20.199 9.525,4.94 27.141,4.94 35.954,20.199 27.141,35.459 	"/>
	<path display="inline" opacity="0.7" fill="#A9A8A8" enable-background="new    " d="M12.52,16.891l0.817-5.706h0.092l2.32,4.682
		l2.298-4.682h0.09l0.82,5.706h-0.559l-0.563-4.081l-2.018,4.081h-0.146l-2.041-4.112l-0.561,4.112H12.52z"/>
	<path display="inline" opacity="0.7" fill="#A9A8A8" enable-background="new    " d="M19.864,12.671h0.574l1.449,3.25l1.408-3.25
		h0.578l-2.518,5.764h-0.574l0.814-1.864L19.864,12.671z"/>
	<path display="inline" opacity="0.7" fill="#A9A8A8" enable-background="new    " d="M7.708,20.718h0.621l1.891,4.408l1.922-4.408
		h0.621l-2.482,5.705h-0.124L7.708,20.718z"/>
	<path display="inline" opacity="0.7" fill="#A9A8A8" enable-background="new    " d="M13.857,20.466
		c0.124,0,0.229,0.043,0.317,0.132c0.087,0.087,0.131,0.193,0.131,0.317c0,0.121-0.044,0.228-0.131,0.314
		c-0.088,0.088-0.193,0.131-0.317,0.131c-0.121,0-0.225-0.043-0.313-0.131c-0.087-0.087-0.131-0.193-0.131-0.314
		c0-0.124,0.044-0.23,0.131-0.317C13.633,20.51,13.736,20.466,13.857,20.466z M13.588,22.203h0.543v4.22h-0.543V22.203z"/>
	<path display="inline" opacity="0.7" fill="#A9A8A8" enable-background="new    " d="M15.621,26.423v-5.848h0.543v2.353
		c0.227-0.279,0.481-0.488,0.763-0.626c0.281-0.139,0.59-0.208,0.926-0.208c0.596,0,1.105,0.218,1.527,0.65
		c0.424,0.434,0.635,0.959,0.635,1.576c0,0.609-0.215,1.132-0.639,1.563c-0.428,0.431-0.941,0.647-1.54,0.647
		c-0.343,0-0.654-0.073-0.933-0.222c-0.279-0.147-0.526-0.369-0.74-0.663v0.776H15.621L15.621,26.423z M17.793,26.008
		c0.301,0,0.582-0.074,0.836-0.223c0.254-0.149,0.457-0.357,0.609-0.627c0.15-0.269,0.227-0.553,0.227-0.854
		c0-0.3-0.076-0.584-0.229-0.856c-0.152-0.271-0.355-0.482-0.613-0.634c-0.256-0.152-0.531-0.228-0.822-0.228
		c-0.296,0-0.579,0.075-0.846,0.228c-0.267,0.151-0.472,0.354-0.615,0.61c-0.144,0.256-0.215,0.545-0.215,0.865
		c0,0.489,0.161,0.896,0.482,1.226C16.928,25.844,17.324,26.008,17.793,26.008z"/>
	<path display="inline" opacity="0.7" fill="#A9A8A8" enable-background="new    " d="M24.883,25.022l0.459,0.241
		c-0.15,0.294-0.324,0.532-0.521,0.713c-0.195,0.182-0.416,0.318-0.664,0.413c-0.246,0.095-0.523,0.142-0.834,0.142
		c-0.689,0-1.227-0.226-1.615-0.677c-0.389-0.45-0.582-0.961-0.582-1.53c0-0.534,0.166-1.012,0.492-1.431
		c0.418-0.533,0.975-0.8,1.674-0.8c0.719,0,1.293,0.273,1.725,0.82c0.305,0.384,0.459,0.865,0.465,1.442h-3.797
		c0.01,0.489,0.168,0.892,0.471,1.205s0.676,0.47,1.123,0.47c0.213,0,0.422-0.037,0.625-0.111c0.203-0.075,0.377-0.174,0.52-0.297
		C24.565,25.497,24.717,25.299,24.883,25.022z M24.883,23.887c-0.07-0.29-0.176-0.521-0.316-0.694
		c-0.139-0.174-0.32-0.312-0.549-0.419s-0.469-0.159-0.719-0.159c-0.414,0-0.771,0.133-1.068,0.4
		c-0.217,0.193-0.381,0.484-0.492,0.872H24.883z"/>
	<path display="inline" opacity="0.7" fill="#A9A8A8" enable-background="new    " d="M28.616,22.664l-0.35,0.36
		c-0.291-0.28-0.574-0.422-0.852-0.422c-0.176,0-0.326,0.057-0.453,0.175c-0.125,0.115-0.189,0.252-0.189,0.406
		c0,0.139,0.055,0.269,0.156,0.393c0.104,0.126,0.32,0.275,0.654,0.446c0.404,0.209,0.678,0.41,0.822,0.604
		c0.143,0.196,0.215,0.418,0.215,0.663c0,0.347-0.123,0.641-0.365,0.88c-0.244,0.241-0.549,0.361-0.914,0.361
		c-0.244,0-0.477-0.054-0.697-0.158c-0.221-0.107-0.406-0.253-0.551-0.438l0.342-0.389c0.277,0.312,0.572,0.47,0.885,0.47
		c0.217,0,0.402-0.07,0.555-0.21s0.229-0.304,0.229-0.492c0-0.156-0.049-0.294-0.15-0.415c-0.1-0.118-0.328-0.27-0.686-0.45
		c-0.379-0.196-0.639-0.39-0.775-0.582c-0.137-0.19-0.207-0.41-0.207-0.655c0-0.32,0.111-0.588,0.33-0.799
		c0.217-0.211,0.494-0.318,0.828-0.318C27.829,22.094,28.221,22.285,28.616,22.664z"/>
</g>
</svg>
