<?xml version="1.0" encoding="utf-8"?>
<!-- Generator: Adobe Illustrator 16.0.4, SVG Export Plug-In . SVG Version: 6.00 Build 0)  -->
<!DOCTYPE svg PUBLIC "-//W3C//DTD SVG 1.1//EN" "http://www.w3.org/Graphics/SVG/1.1/DTD/svg11.dtd">
<svg version="1.1" id="Layer_1" xmlns="http://www.w3.org/2000/svg" xmlns:xlink="http://www.w3.org/1999/xlink" x="0px" y="0px"
	 width="16.834px" height="16.833px" viewBox="0 0 16.834 16.833" enable-background="new 0 0 16.834 16.833" xml:space="preserve">
<g id="Layer_1_1_" display="none">
	<g display="inline">
		<g>
			<path id="svgCog" fill="none" stroke="#9E9E9E" stroke-width="0.25" stroke-miterlimit="10" d="M12.612,9.875l-0.684-0.111
				C11.84,9.75,11.763,9.73,11.758,9.719c-0.005-0.01-0.028-0.11-0.028-0.141c0-0.031,0.065-0.095,0.146-0.14l0.604-0.345
				c0.078-0.045,0.119-0.151,0.086-0.239L12.46,8.554c-0.029-0.088-0.128-0.145-0.217-0.127l-0.682,0.135
				c-0.09,0.018-0.168,0.026-0.176,0.02c-0.008-0.008-0.064-0.095-0.074-0.125c-0.01-0.027,0.031-0.107,0.09-0.178l0.455-0.535
				c0.061-0.07,0.061-0.186,0.002-0.256l-0.203-0.246c-0.057-0.07-0.168-0.09-0.244-0.042l-0.596,0.364
				c-0.078,0.047-0.147,0.084-0.157,0.08c-0.011-0.005-0.095-0.067-0.111-0.09c-0.021-0.022-0.009-0.113,0.022-0.199l0.248-0.662
				c0.031-0.086-0.006-0.195-0.084-0.242l-0.271-0.16c-0.077-0.046-0.188-0.024-0.245,0.047l-0.438,0.55
				c-0.059,0.073-0.112,0.13-0.123,0.13c-0.01,0-0.107-0.03-0.135-0.045C9.495,6.958,9.478,6.871,9.478,6.777L9.489,6.07
				c0.002-0.092-0.07-0.182-0.159-0.197l-0.31-0.056C8.931,5.8,8.834,5.859,8.805,5.947L8.579,6.615
				c-0.03,0.088-0.062,0.162-0.073,0.166c-0.01,0.003-0.113,0.01-0.141,0.004C8.336,6.78,8.288,6.703,8.259,6.615L8.032,5.947
				C8.003,5.859,7.905,5.8,7.815,5.817L7.507,5.873C7.417,5.888,7.346,5.978,7.348,6.07l0.011,0.709
				c0.001,0.092-0.004,0.172-0.013,0.18C7.338,6.964,7.245,7.005,7.215,7.011c-0.029,0.004-0.1-0.05-0.157-0.121L6.621,6.341
				C6.564,6.269,6.454,6.25,6.375,6.295l-0.271,0.16C6.026,6.502,5.988,6.61,6.02,6.697l0.249,0.662
				c0.032,0.086,0.053,0.164,0.048,0.174c-0.006,0.008-0.08,0.08-0.106,0.096C6.186,7.642,6.1,7.616,6.023,7.568L5.427,7.205
				C5.35,7.157,5.238,7.175,5.181,7.246L4.978,7.493c-0.057,0.07-0.056,0.186,0.003,0.255l0.454,0.535
				c0.059,0.07,0.106,0.136,0.104,0.146C5.537,8.44,5.492,8.533,5.473,8.556c-0.02,0.023-0.107,0.027-0.197,0.01L4.594,8.432
				C4.505,8.415,4.408,8.47,4.377,8.558L4.27,8.861C4.238,8.948,4.277,9.053,4.357,9.1l0.606,0.343
				c0.079,0.046,0.145,0.093,0.146,0.101c0.001,0.014-0.01,0.115-0.021,0.146C5.078,9.715,4.997,9.75,4.907,9.765l-0.685,0.11
				C4.133,9.89,4.061,9.978,4.061,10.073v0.318c0,0.094,0.073,0.18,0.161,0.195l0.686,0.108c0.089,0.017,0.166,0.035,0.171,0.046
				c0.005,0.01,0.028,0.11,0.028,0.141c0,0.031-0.065,0.094-0.145,0.138l-0.605,0.345c-0.08,0.045-0.119,0.151-0.088,0.239
				l0.107,0.302c0.03,0.088,0.129,0.145,0.218,0.127l0.681-0.136c0.089-0.019,0.167-0.026,0.175-0.021
				C5.458,11.883,5.514,11.972,5.524,12c0.01,0.026-0.03,0.107-0.09,0.178L4.98,12.713c-0.059,0.07-0.061,0.186-0.002,0.256
				l0.202,0.246c0.058,0.07,0.168,0.09,0.247,0.041l0.594-0.363c0.078-0.049,0.149-0.083,0.159-0.079
				c0.009,0.004,0.092,0.065,0.111,0.091c0.018,0.021,0.007,0.112-0.025,0.196l-0.248,0.661c-0.033,0.088,0.005,0.195,0.083,0.242
				l0.272,0.162c0.079,0.045,0.19,0.022,0.247-0.047l0.437-0.551c0.057-0.072,0.112-0.131,0.123-0.131
				c0.011,0.001,0.108,0.031,0.135,0.046c0.024,0.015,0.045,0.104,0.043,0.194l-0.012,0.711c-0.001,0.091,0.07,0.18,0.159,0.195
				l0.31,0.057c0.089,0.018,0.187-0.042,0.216-0.133l0.226-0.668c0.029-0.088,0.062-0.16,0.072-0.164
				c0.01-0.004,0.113-0.012,0.142-0.006c0.029,0.008,0.078,0.082,0.107,0.17l0.227,0.668c0.03,0.09,0.125,0.146,0.215,0.133
				l0.311-0.059c0.089-0.017,0.16-0.104,0.159-0.195L9.478,13.68c-0.002-0.092,0.004-0.174,0.015-0.18
				c0.008-0.006,0.103-0.049,0.131-0.056c0.028-0.004,0.101,0.052,0.155,0.121l0.438,0.552c0.06,0.07,0.168,0.092,0.246,0.047
				l0.271-0.16c0.078-0.047,0.115-0.155,0.084-0.242l-0.248-0.661c-0.031-0.087-0.055-0.164-0.049-0.173
				c0.006-0.01,0.08-0.082,0.105-0.098s0.109,0.012,0.189,0.061l0.594,0.363c0.078,0.049,0.189,0.029,0.246-0.041l0.201-0.246
				c0.06-0.069,0.059-0.186,0-0.256l-0.457-0.533c-0.062-0.069-0.104-0.135-0.104-0.146c0.003-0.011,0.047-0.104,0.063-0.127
				c0.021-0.023,0.109-0.027,0.199-0.01l0.68,0.135c0.091,0.016,0.188-0.039,0.219-0.127l0.105-0.301
				c0.031-0.088-0.008-0.195-0.088-0.24l-0.604-0.345c-0.08-0.044-0.145-0.089-0.146-0.101c0-0.014,0.026-0.168,0.03-0.18
				c0.005-0.01,0.083-0.027,0.171-0.044l0.684-0.11c0.092-0.016,0.164-0.104,0.164-0.193v-0.32
				C12.774,9.976,12.702,9.889,12.612,9.875z"/>
		</g>
		<g>
			
				<ellipse opacity="0.9" fill="none" stroke="#9E9E9E" stroke-width="0.25" stroke-miterlimit="10" enable-background="new    " cx="8.37" cy="10.254" rx="2.676" ry="2.731"/>
		</g>
	</g>
	<g id="Layer_2" display="inline">
		
			<linearGradient id="SVGID_1_" gradientUnits="userSpaceOnUse" x1="-241.3638" y1="2541.8667" x2="-204.9683" y2="2541.8667" gradientTransform="matrix(1 0 0 1 241.5 -2521.667)">
			<stop  offset="0" style="stop-color:#FFDD15"/>
			<stop  offset="0.1467" style="stop-color:#F6921E"/>
			<stop  offset="0.3114" style="stop-color:#EC1C24"/>
			<stop  offset="0.4607" style="stop-color:#EC297B"/>
			<stop  offset="0.6641" style="stop-color:#90278E"/>
			<stop  offset="0.6919" style="stop-color:#8C2B91"/>
			<stop  offset="0.7222" style="stop-color:#7E379A"/>
			<stop  offset="0.7538" style="stop-color:#694CA8"/>
			<stop  offset="0.7862" style="stop-color:#4A68BD"/>
			<stop  offset="0.8189" style="stop-color:#238CD7"/>
			<stop  offset="0.8439" style="stop-color:#00ADEE"/>
			<stop  offset="1" style="stop-color:#29B473"/>
		</linearGradient>
		<polygon opacity="0.7" fill="none" stroke="url(#SVGID_1_)" stroke-miterlimit="10" enable-background="new    " points="
			9.524,35.459 0.714,20.2 9.524,4.94 27.142,4.94 35.954,20.2 27.142,35.459 		"/>
		<path opacity="0.7" fill="#A9A8A8" enable-background="new    " d="M12.521,16.891l0.816-5.706h0.092l2.32,4.683l2.298-4.683
			h0.091l0.819,5.706h-0.56l-0.562-4.081l-2.018,4.081h-0.146L13.63,12.78l-0.561,4.111H12.521z"/>
		<path opacity="0.7" fill="#A9A8A8" enable-background="new    " d="M19.864,12.67h0.574l1.449,3.25l1.405-3.25h0.578l-2.521,5.765
			h-0.57l0.812-1.864L19.864,12.67z"/>
		<path opacity="0.7" fill="#A9A8A8" enable-background="new    " d="M7.708,20.717h0.621l1.891,4.408l1.922-4.408h0.621
			l-2.479,5.705h-0.124L7.708,20.717z"/>
		<path opacity="0.7" fill="#A9A8A8" enable-background="new    " d="M13.856,20.465c0.125,0,0.229,0.043,0.315,0.133
			c0.087,0.087,0.134,0.193,0.134,0.316c0,0.121-0.047,0.229-0.134,0.312c-0.088,0.088-0.19,0.131-0.315,0.131
			c-0.121,0-0.227-0.043-0.312-0.131c-0.087-0.087-0.131-0.191-0.131-0.312c0-0.123,0.044-0.229,0.131-0.316
			C13.633,20.51,13.735,20.465,13.856,20.465z M13.588,22.204h0.543v4.219h-0.543V22.204z"/>
		<path opacity="0.7" fill="#A9A8A8" enable-background="new    " d="M15.621,26.422v-5.848h0.543v2.354
			c0.228-0.279,0.481-0.488,0.763-0.627c0.282-0.139,0.59-0.207,0.926-0.207c0.599,0,1.105,0.218,1.527,0.65
			c0.424,0.434,0.635,0.959,0.635,1.573c0,0.608-0.215,1.134-0.639,1.562c-0.428,0.433-0.941,0.646-1.54,0.646
			c-0.343,0-0.653-0.072-0.933-0.223c-0.279-0.146-0.526-0.368-0.74-0.662v0.775h-0.542V26.422z M17.793,26.008
			c0.302,0,0.582-0.074,0.836-0.223c0.254-0.15,0.457-0.357,0.608-0.627c0.15-0.271,0.228-0.556,0.228-0.855
			c0-0.299-0.075-0.584-0.229-0.855c-0.149-0.271-0.354-0.482-0.61-0.634c-0.256-0.151-0.53-0.228-0.821-0.228
			c-0.297,0-0.578,0.074-0.847,0.228c-0.269,0.151-0.474,0.354-0.615,0.61s-0.215,0.545-0.215,0.865
			c0,0.486,0.161,0.896,0.479,1.226C16.929,25.844,17.324,26.008,17.793,26.008z"/>
		<path opacity="0.7" fill="#A9A8A8" enable-background="new    " d="M24.883,25.022l0.459,0.24
			c-0.149,0.295-0.323,0.533-0.521,0.714c-0.195,0.183-0.416,0.317-0.664,0.413c-0.246,0.095-0.523,0.143-0.834,0.143
			c-0.689,0-1.227-0.227-1.615-0.678c-0.389-0.449-0.582-0.961-0.582-1.529c0-0.535,0.166-1.013,0.492-1.432
			c0.418-0.533,0.975-0.801,1.674-0.801c0.719,0,1.293,0.273,1.725,0.82c0.305,0.385,0.459,0.863,0.465,1.44h-3.797
			c0.01,0.487,0.168,0.894,0.474,1.205c0.303,0.312,0.676,0.47,1.12,0.47c0.216,0,0.425-0.035,0.625-0.109
			c0.203-0.074,0.38-0.174,0.521-0.297C24.565,25.497,24.717,25.299,24.883,25.022z M24.883,23.887
			c-0.069-0.29-0.176-0.521-0.315-0.694c-0.139-0.174-0.318-0.312-0.549-0.419c-0.229-0.107-0.47-0.158-0.72-0.158
			c-0.414,0-0.771,0.133-1.067,0.399c-0.217,0.192-0.381,0.483-0.49,0.872H24.883z"/>
		<path opacity="0.7" fill="#A9A8A8" enable-background="new    " d="M28.616,22.665l-0.35,0.359
			c-0.291-0.279-0.574-0.422-0.854-0.422c-0.179,0-0.326,0.057-0.453,0.175c-0.125,0.115-0.188,0.253-0.188,0.406
			c0,0.14,0.056,0.269,0.156,0.394c0.104,0.125,0.318,0.274,0.652,0.445c0.402,0.209,0.678,0.41,0.82,0.604
			c0.145,0.197,0.217,0.418,0.217,0.664c0,0.346-0.123,0.643-0.365,0.879c-0.244,0.242-0.549,0.361-0.914,0.361
			c-0.242,0-0.479-0.054-0.695-0.158c-0.223-0.104-0.406-0.252-0.553-0.438l0.344-0.389c0.275,0.312,0.57,0.47,0.885,0.47
			c0.218,0,0.402-0.07,0.556-0.21c0.151-0.141,0.229-0.305,0.229-0.492c0-0.156-0.049-0.294-0.148-0.415
			c-0.102-0.118-0.328-0.271-0.688-0.45c-0.379-0.195-0.64-0.39-0.773-0.582c-0.139-0.189-0.207-0.41-0.207-0.654
			c0-0.318,0.109-0.588,0.33-0.799c0.217-0.211,0.492-0.316,0.826-0.316C27.829,22.094,28.222,22.286,28.616,22.665z"/>
	</g>
</g>
<g id="Layer_3">
	
		<polygon opacity="0.8" fill="none" stroke="#9E9E9E" stroke-width="0.75" stroke-miterlimit="10" enable-background="new    " points="
		6.052,10.497 5.473,9.374 6.604,9.838 6.466,8.5 7.539,9.288 7.734,8.02 8.419,9.146 9.122,8.02 9.365,9.315 10.373,8.348 
		10.214,9.818 11.401,9.374 10.8,10.522 12.003,10.608 11.144,11.443 12.291,11.999 11.151,12.465 12.003,13.297 10.75,13.297 
		11.298,14.445 10.211,14.137 10.372,15.405 9.312,14.53 9.069,15.833 8.38,14.81 7.717,15.833 7.512,14.657 6.483,15.352 
		6.579,14.103 5.473,14.461 5.982,13.336 4.836,13.245 5.673,12.399 4.564,11.926 5.695,11.458 4.836,10.538 	"/>
	<circle fill="#FFFFFF" cx="8.406" cy="11.974" r="3.054"/>
</g>
<g id="Layer_2_1_" display="none">
	
		<linearGradient id="SVGID_2_" gradientUnits="userSpaceOnUse" x1="-6.6875" y1="572.1606" x2="2.7456" y2="572.1606" gradientTransform="matrix(1 0 0 -1 10.5 582.415)">
		<stop  offset="0" style="stop-color:#FFDD15"/>
		<stop  offset="0.1467" style="stop-color:#F6921E"/>
		<stop  offset="0.3114" style="stop-color:#EC1C24"/>
		<stop  offset="0.4607" style="stop-color:#EC297B"/>
		<stop  offset="0.6641" style="stop-color:#90278E"/>
		<stop  offset="0.6919" style="stop-color:#8C2B91"/>
		<stop  offset="0.7222" style="stop-color:#7E379A"/>
		<stop  offset="0.7538" style="stop-color:#694CA8"/>
		<stop  offset="0.7862" style="stop-color:#4A68BD"/>
		<stop  offset="0.8189" style="stop-color:#238CD7"/>
		<stop  offset="0.8439" style="stop-color:#00ADEE"/>
		<stop  offset="1" style="stop-color:#29B473"/>
	</linearGradient>
	
		<polygon display="inline" opacity="0.7" fill="none" stroke="url(#SVGID_2_)" stroke-width="0.5" stroke-miterlimit="10" enable-background="new    " points="
		6.314,14.192 4.099,10.254 6.314,6.316 10.743,6.316 12.959,10.254 10.743,14.192 	"/>
	<g display="inline">
		<path fill="#A9A8A8" d="M6.659,9.333l0.265-1.896h0.03l0.752,1.558L8.45,7.436h0.029l0.267,1.896H8.563L8.381,7.976L7.727,9.333
			H7.68L7.019,7.965L6.837,9.333H6.659z"/>
		<path fill="#A9A8A8" d="M9.038,7.93h0.186l0.471,1.08l0.455-1.08h0.188L9.521,9.846H9.336l0.263-0.619L9.038,7.93z"/>
		<path fill="#A9A8A8" d="M5.021,9.938h0.201l0.613,1.467l0.623-1.467h0.201l-0.804,1.898H5.813L5.021,9.938z"/>
		<path fill="#A9A8A8" d="M7.013,9.854c0.04,0,0.074,0.016,0.103,0.045c0.029,0.029,0.043,0.064,0.043,0.105
			s-0.015,0.074-0.043,0.104c-0.028,0.025-0.062,0.043-0.103,0.043c-0.039,0-0.073-0.018-0.101-0.043
			c-0.028-0.029-0.043-0.062-0.043-0.104s0.015-0.076,0.043-0.105C6.94,9.87,6.974,9.854,7.013,9.854z M6.926,10.432h0.176v1.404
			H6.926V10.432z"/>
		<path fill="#A9A8A8" d="M7.585,11.836V9.891h0.176v0.783c0.074-0.094,0.156-0.162,0.247-0.209
			c0.091-0.045,0.191-0.068,0.301-0.068c0.192,0,0.358,0.072,0.495,0.215c0.136,0.145,0.205,0.318,0.205,0.525
			c0,0.203-0.068,0.375-0.207,0.52c-0.139,0.143-0.305,0.215-0.499,0.215c-0.111,0-0.212-0.021-0.303-0.074
			c-0.09-0.049-0.17-0.121-0.24-0.221v0.258H7.585V11.836z M8.288,11.698c0.099,0,0.188-0.023,0.271-0.074
			c0.082-0.049,0.148-0.119,0.197-0.207c0.049-0.09,0.073-0.186,0.073-0.285c0-0.098-0.024-0.191-0.073-0.281
			c-0.05-0.094-0.116-0.162-0.199-0.215c-0.083-0.049-0.172-0.072-0.267-0.072c-0.096,0-0.188,0.023-0.274,0.072
			c-0.086,0.053-0.152,0.119-0.199,0.205c-0.046,0.084-0.07,0.182-0.07,0.287c0,0.162,0.052,0.299,0.156,0.408
			C8.009,11.643,8.137,11.698,8.288,11.698z"/>
		<path fill="#A9A8A8" d="M10.586,11.37l0.147,0.08c-0.049,0.098-0.104,0.178-0.168,0.238s-0.135,0.105-0.215,0.137
			c-0.08,0.032-0.17,0.047-0.271,0.047c-0.223,0-0.396-0.074-0.523-0.225c-0.125-0.148-0.188-0.32-0.188-0.508
			c0-0.178,0.053-0.338,0.158-0.477c0.137-0.18,0.315-0.268,0.543-0.268c0.231,0,0.42,0.09,0.56,0.271
			c0.099,0.129,0.147,0.289,0.149,0.479H9.549c0.005,0.162,0.056,0.297,0.152,0.399c0.099,0.104,0.22,0.156,0.364,0.156
			c0.067,0,0.137-0.013,0.203-0.037c0.063-0.024,0.121-0.058,0.168-0.099C10.481,11.528,10.533,11.461,10.586,11.37z M10.586,10.993
			c-0.022-0.096-0.058-0.174-0.103-0.229c-0.045-0.061-0.104-0.104-0.178-0.143c-0.074-0.035-0.152-0.053-0.232-0.053
			c-0.135,0-0.25,0.045-0.348,0.133c-0.07,0.064-0.123,0.162-0.16,0.291H10.586L10.586,10.993z"/>
		<path fill="#A9A8A8" d="M11.795,10.586l-0.112,0.119c-0.095-0.096-0.187-0.143-0.274-0.143c-0.06,0-0.106,0.021-0.147,0.061
			c-0.039,0.039-0.061,0.084-0.061,0.135c0,0.047,0.017,0.09,0.051,0.131c0.033,0.041,0.104,0.092,0.211,0.148
			c0.131,0.068,0.223,0.137,0.27,0.199c0.045,0.062,0.066,0.141,0.066,0.223c0,0.115-0.039,0.213-0.117,0.293
			s-0.178,0.119-0.297,0.119c-0.078,0-0.152-0.02-0.226-0.055c-0.072-0.033-0.132-0.084-0.181-0.146l0.111-0.131
			c0.09,0.105,0.186,0.156,0.285,0.156c0.07,0,0.131-0.023,0.182-0.068c0.049-0.047,0.073-0.102,0.073-0.166
			c0-0.051-0.017-0.096-0.049-0.137c-0.032-0.039-0.106-0.09-0.222-0.146c-0.123-0.066-0.209-0.133-0.252-0.195
			c-0.045-0.062-0.066-0.135-0.066-0.217c0-0.105,0.035-0.195,0.105-0.268c0.069-0.068,0.16-0.104,0.27-0.104
			C11.541,10.397,11.668,10.459,11.795,10.586z"/>
	</g>
</g>
</svg>
