<?xml version="1.0" encoding="utf-8"?>
<!-- Generator: Adobe Illustrator 16.0.4, SVG Export Plug-In . SVG Version: 6.00 Build 0)  -->
<!DOCTYPE svg PUBLIC "-//W3C//DTD SVG 1.1//EN" "http://www.w3.org/Graphics/SVG/1.1/DTD/svg11.dtd">
<svg version="1.1" id="Layer_1" xmlns="http://www.w3.org/2000/svg" xmlns:xlink="http://www.w3.org/1999/xlink" x="0px" y="0px"
	 width="320px" height="449px" viewBox="0 0 320 449" enable-background="new 0 0 320 449" xml:space="preserve">
<rect id="Bigback" x="15.291" y="40.048" opacity="0.2" fill="#FFFFFF" enable-background="new    " width="294" height="389.998"/>
<g id="Pink">
	<polygon id="pink" fill="#ED4798" points="72.992,206.047 61.436,185.441 72.992,164.836 96.103,164.836 107.661,185.441 
		96.103,206.047 	"/>
	<polygon id="pink_1_" fill="#ED4798" points="247.596,296 239.635,281.806 247.596,267.612 263.516,267.612 271.478,281.806 
		263.516,296 	"/>
        
         <animate id="Pink1"
             attributeName="opacity"
             from="0" to="0" dur="1s"
             begin="8s;" 
        />
         
         <animate id="Pink2"
             attributeName="opacity"
             from="0" to="1" dur="4s" 
             begin="Pink1.end"
             repeatCount="indefinite"
             
             
              /> 
        
</g>
<g id="Bue">
	<polygon id="blue" fill="#426EB5" points="126.964,232.814 118.135,217.023 126.964,201.232 144.62,201.232 153.449,217.023 
		144.62,232.814 	"/>
	<polygon id="blue_1_" fill="#426EB5" points="271.529,196.257 266.49,187.245 271.529,178.233 281.604,178.233 286.645,187.245 
		281.604,196.257 	"/>
        
         <animate id="Blue1"
             attributeName="opacity"
             from="0" to="0" dur="1s"
             begin="9s;" 
        />
         
         <animate id="Blue2"
             attributeName="opacity"
             from="0" to="1" dur="4s" 
             begin="Blue1.end"
             repeatCount="indefinite"
             
             
              /> 
        
        
</g>
<g id="Orange">
	<polygon id="orange" fill="#F7961D" points="138.335,269.589 130.475,255.68 138.335,241.77 154.066,241.77 161.926,255.68 
		154.066,269.589 	"/>
	<polygon id="orange_1_" fill="#F7961D" points="36.079,218.075 30.88,208.875 36.079,199.674 46.484,199.674 51.683,208.875 
		46.484,218.075 	"/>
        
         <animate id="Orange1"
             attributeName="opacity"
             from="0" to="0" dur="1s"
             begin="10s;" 
        />
         
         <animate id="Orange2"
             attributeName="opacity"
             from="0" to="1" dur="4s" 
             begin="Orange1.end"
             repeatCount="indefinite"
             
             
              /> 
        
        
</g>
<g id="Green">
	<polygon id="green" fill="#06B052" points="199.194,267.612 192.901,256.476 199.194,245.339 211.793,245.339 218.084,256.476 
		211.793,267.612 	"/>
	<polygon id="green_1_" fill="#06B052" points="88.876,303.207 83.694,294.035 88.876,284.863 99.252,284.863 104.434,294.035 
		99.252,303.207 	"/>
        
         <animate id="Green1"
             attributeName="opacity"
             from="0" to="0" dur="1s"
             begin="11s;" 
        />
         
         <animate id="Green2"
             attributeName="opacity"
             from="0" to="1" dur="4s" 
             begin="Green1.end"
             repeatCount="indefinite"
             
             
              /> 
        
        
</g>
<g id="Yellow">
	<polygon id="yellow" fill="#F8ED40" points="181.672,228.654 175.097,217.022 181.672,205.393 194.825,205.393 201.397,217.022 
		194.825,228.654 	"/>
	<polygon id="yellow_1_" fill="#F8ED40" points="180.922,303.207 175.598,293.787 180.922,284.369 191.574,284.369 196.896,293.787 
		191.574,303.207 	"/>
        
         <animate id="Yellow1"
             attributeName="opacity"
             from="0" to="0" dur="1s"
             begin="12s;" 
        />
         
         <animate id="Yellow2"
             attributeName="opacity"
             from="0" to="1" dur="4s" 
             begin="Yellow1.end"
             repeatCount="indefinite"
             
             
              /> 
        
        
</g>
<g id="Red">
	<polygon id="red" fill="#ED2A25" points="58.631,259.238 49.683,242.825 58.631,226.412 76.524,226.412 85.468,242.825 
		76.524,259.238 	"/>
	<polygon id="red_1_" fill="#ED2A25" points="276.877,240.507 272.277,232.07 276.877,223.634 286.074,223.634 290.672,232.07 
		286.074,240.507 	"/>
        
         <animate id="Red1"
             attributeName="opacity"
             from="0" to="0" dur="1s"
             begin="13s;" 
        />
         
         <animate id="Red2"
             attributeName="opacity"
             from="0" to="1" dur="4s" 
             begin="Red1.end"
             repeatCount="indefinite"
             
             
              /> 
        
        
</g>
<g id="Blush">
	<polygon id="blush" fill="#F3BCD1" points="211.792,196.965 204.776,185.012 211.792,173.06 225.826,173.06 232.84,185.012 
		225.826,196.965 	"/>
	<polygon id="blush_2_" fill="#F3BCD1" points="38.522,287.714 34.178,280.312 38.522,272.911 47.213,272.911 51.556,280.312 
		47.213,287.714 	"/>
        
         <animate id="Blush1"
             attributeName="opacity"
             from="0" to="0" dur="1s"
             begin="14s;" 
        />
         <animate id="Blush2"
             attributeName="opacity"
             from="0" to="1" dur="4s" 
             begin="Blush1.end"
             repeatCount="indefinite"
             
             
              /> 
        
</g>
<g id="Purple">
	<polygon id="purple" fill="#754D9E" points="228.79,242.825 221.5,229.925 228.79,217.023 243.38,217.023 250.671,229.925 
		243.38,242.825 	"/>
	<polygon id="blush_1_" fill="#754D9E" points="140.804,176.06 134.883,165.971 140.804,155.883 152.649,155.883 158.569,165.971 
		152.649,176.06 	"/>
        
         <animate id="Purple1"
             attributeName="opacity"
             from="0" to="0" dur="1s"
             begin="15s;" 
        />
         <animate id="purple2"
             attributeName="opacity"
             from="0" to="1" dur="4s" 
             begin="Purple1.end"
             repeatCount="indefinite"
             
             
              /> 
        
</g>
<g id="Text">
	<path fill="#FFFFFF" d="M29.985,333.654h-3.824v-0.815h8.602v0.815h-3.824v10.964h-0.953L29.985,333.654L29.985,333.654z"/>
	<path fill="#FFFFFF" d="M35.256,342.408c0-1.479,0.918-2.277,2.601-2.465l2.533-0.288v-1.123c0-1.444-0.662-1.888-2.209-1.888
		c-0.85,0-1.563,0.152-2.176,0.34v-0.68c0.748-0.289,1.546-0.459,2.516-0.459c1.785,0,2.789,0.748,2.789,2.481v6.29h-0.766
		l-0.085-0.748h-0.051c-0.425,0.441-1.224,0.9-2.482,0.9C36.344,344.771,35.256,343.921,35.256,342.408z M40.39,343.275v-2.926
		l-2.295,0.256c-1.291,0.138-1.887,0.662-1.887,1.769c0,1.071,0.748,1.666,1.938,1.666C39.132,344.04,39.948,343.684,40.39,343.275z
		"/>
	<path fill="#FFFFFF" d="M44.606,336h0.883v0.73h0.052c0.629-0.459,1.547-0.885,2.771-0.885c1.938,0,3.502,1.021,3.502,4.317v0.187
		c0,3.078-1.529,4.42-3.926,4.42c-1.055,0-1.837-0.306-2.363-0.61v3.772h-0.918L44.606,336L44.606,336z M50.844,340.472V340.2
		c0-2.754-1.036-3.554-2.753-3.554c-1.122,0-2.04,0.407-2.566,0.767v5.949c0.492,0.34,1.309,0.646,2.295,0.646
		C49.688,344.007,50.844,342.986,50.844,340.472z"/>
	<path fill="#FFFFFF" d="M58.426,340.454v-0.238c0-2.821,1.615-4.368,3.843-4.368c2.328,0,3.857,1.495,3.857,4.317v0.221
		c0,2.822-1.632,4.386-3.875,4.386C59.922,344.771,58.426,343.275,58.426,340.454z M65.175,340.472v-0.341
		c0-2.55-1.258-3.52-2.924-3.52c-1.717,0-2.891,1.225-2.891,3.52v0.355c0,2.517,1.259,3.521,2.925,3.521
		C64.002,344.007,65.175,342.816,65.175,340.472z"/>
	<path fill="#FFFFFF" d="M68.881,336h0.884v0.8h0.051c0.918-0.596,2.074-0.953,3.162-0.953c1.649,0,2.5,0.664,2.5,2.312v6.459H74.56
		v-6.271c0-1.226-0.526-1.701-1.955-1.701c-0.935,0-1.938,0.323-2.805,0.8v7.173h-0.918L68.881,336L68.881,336z"/>
	<path fill="#FFFFFF" d="M82.549,342.408c0-1.479,0.918-2.277,2.601-2.465l2.533-0.288v-1.123c0-1.444-0.662-1.888-2.209-1.888
		c-0.85,0-1.563,0.152-2.176,0.34v-0.68c0.748-0.289,1.546-0.459,2.516-0.459c1.785,0,2.789,0.748,2.789,2.481v6.29h-0.766
		l-0.085-0.748h-0.051c-0.425,0.441-1.224,0.9-2.482,0.9C83.638,344.771,82.549,343.921,82.549,342.408z M87.683,343.275v-2.926
		l-2.295,0.256c-1.291,0.138-1.887,0.662-1.887,1.769c0,1.071,0.748,1.666,1.938,1.666C86.425,344.04,87.241,343.684,87.683,343.275
		z"/>
	<path fill="#FFFFFF" d="M96.285,332.057h0.918v4.727h0.067c0.885-0.578,2.023-0.937,3.111-0.937c1.648,0,2.499,0.662,2.499,2.312
		v6.46h-0.917v-6.271c0-1.225-0.527-1.701-1.955-1.701c-0.935,0-1.938,0.324-2.805,0.801v7.173h-0.918V332.057L96.285,332.057z"/>
	<path fill="#FFFFFF" d="M105.601,340.419v-0.203c0-2.991,1.717-4.368,3.74-4.368c2.346,0,3.417,1.444,3.417,4.028v0.526h-6.221
		c0,2.48,1.088,3.568,3.264,3.568c1.156,0,1.972-0.271,2.669-0.611v0.697c-0.527,0.34-1.479,0.713-2.805,0.713
		C106.96,344.771,105.601,343.189,105.601,340.419z M106.554,339.655h5.234c0-2.023-0.799-3.043-2.482-3.043
		C107.946,336.612,106.688,337.462,106.554,339.655z"/>
	<path fill="#FFFFFF" d="M117.5,340.232L114.646,336h1.037l2.414,3.587l2.295-3.587h0.985l-2.788,4.232l2.958,4.386h-1.054
		l-2.48-3.724l-2.518,3.724h-0.969L117.5,340.232z"/>
	<path fill="#FFFFFF" d="M123.483,342.408c0-1.479,0.918-2.277,2.602-2.465l2.533-0.288v-1.123c0-1.444-0.663-1.888-2.21-1.888
		c-0.851,0-1.563,0.152-2.177,0.34v-0.68c0.748-0.289,1.547-0.459,2.517-0.459c1.785,0,2.788,0.748,2.788,2.481v6.29h-0.766
		l-0.084-0.748h-0.052c-0.425,0.441-1.224,0.9-2.481,0.9C124.571,344.771,123.483,343.921,123.483,342.408z M128.618,343.275v-2.926
		l-2.295,0.256c-1.293,0.138-1.887,0.662-1.887,1.769c0,1.071,0.748,1.666,1.938,1.666
		C127.36,344.04,128.176,343.684,128.618,343.275z"/>
	<path fill="#FFFFFF" d="M131.882,345.725c0-1.037,0.766-1.719,1.717-2.074V343.6c-0.476-0.119-0.884-0.546-0.884-1.156
		c0-0.545,0.323-1.105,0.901-1.564c-0.663-0.441-1.088-1.154-1.088-2.141v-0.153c0-1.717,1.326-2.737,3.162-2.737
		c0.408,0,0.781,0.053,1.139,0.139h2.873v0.713h-1.768c0.561,0.408,0.866,1.021,0.866,1.854v0.151c0,1.785-1.343,2.722-3.127,2.722
		c-0.577,0-1.104-0.104-1.563-0.289c-0.289,0.237-0.51,0.596-0.51,0.985c0,0.526,0.322,0.851,0.951,0.851h2.482
		c1.529,0,2.669,0.578,2.669,2.228c0,1.479-1.173,2.786-4.063,2.786C132.987,347.982,131.882,346.998,131.882,345.725z
		 M138.731,345.332c0-1.104-0.629-1.479-1.836-1.479h-2.549c-0.85,0.289-1.496,0.852-1.496,1.752c0,0.936,0.731,1.614,2.754,1.614
		C137.899,347.22,138.731,346.369,138.731,345.332z M137.883,338.737v-0.205c0-1.343-0.884-1.954-2.21-1.954
		c-1.343,0-2.21,0.695-2.21,1.938v0.203c0,1.311,0.901,1.973,2.21,1.973C137.033,340.691,137.883,340.028,137.883,338.737z"/>
	<path fill="#FFFFFF" d="M141.538,340.454v-0.238c0-2.821,1.615-4.368,3.842-4.368c2.329,0,3.857,1.495,3.857,4.317v0.221
		c0,2.822-1.631,4.386-3.875,4.386C143.034,344.771,141.538,343.275,141.538,340.454z M148.287,340.472v-0.341
		c0-2.55-1.259-3.52-2.925-3.52c-1.717,0-2.889,1.225-2.889,3.52v0.355c0,2.517,1.258,3.521,2.924,3.521
		C147.114,344.007,148.287,342.816,148.287,340.472z"/>
	<path fill="#FFFFFF" d="M151.993,336h0.884v0.8h0.052c0.918-0.596,2.073-0.953,3.161-0.953c1.649,0,2.499,0.664,2.499,2.312v6.459
		h-0.917v-6.271c0-1.226-0.526-1.701-1.955-1.701c-0.935,0-1.938,0.323-2.805,0.8v7.173h-0.918L151.993,336L151.993,336z"/>
	<path fill="#FFFFFF" d="M166.782,342.816v-6.053h-1.275v-0.766h1.275v-2.04h0.918v2.04h2.346v0.766H167.7v5.916
		c0,0.885,0.307,1.258,1.377,1.258c0.375,0,0.799-0.067,1.155-0.17v0.629c-0.307,0.151-0.729,0.307-1.395,0.307
		C167.529,344.703,166.782,344.143,166.782,342.816z"/>
	<path fill="#FFFFFF" d="M172.238,340.454v-0.238c0-2.821,1.615-4.368,3.845-4.368c2.328,0,3.856,1.495,3.856,4.317v0.221
		c0,2.822-1.633,4.386-3.875,4.386C173.734,344.771,172.238,343.275,172.238,340.454z M178.986,340.472v-0.341
		c0-2.55-1.258-3.52-2.924-3.52c-1.717,0-2.889,1.225-2.889,3.52v0.355c0,2.517,1.258,3.521,2.924,3.521
		C177.814,344.007,178.986,342.816,178.986,340.472z"/>
	<path fill="#FFFFFF" d="M186.247,336h0.985l2.736,7.411h0.051l2.738-7.411h0.916l-3.246,8.618h-0.934L186.247,336z"/>
	<path fill="#FFFFFF" d="M196.191,333.093h0.951v1.056h-0.951V333.093z M196.21,336h0.918v8.618h-0.918V336z"/>
	<path fill="#FFFFFF" d="M199.915,340.419v-0.203c0-2.991,1.717-4.368,3.739-4.368c2.347,0,3.416,1.444,3.416,4.028v0.526h-6.221
		c0,2.48,1.088,3.568,3.267,3.568c1.153,0,1.971-0.271,2.668-0.611v0.697c-0.527,0.34-1.479,0.713-2.806,0.713
		C201.273,344.771,199.915,343.189,199.915,340.419z M200.868,339.655h5.233c0-2.023-0.799-3.043-2.481-3.043
		C202.262,336.612,201.003,337.462,200.868,339.655z"/>
	<path fill="#FFFFFF" d="M209.044,336h0.985l2.058,7.396h0.052l2.278-7.396h0.813l2.277,7.396h0.051l2.06-7.396h0.899l-2.533,8.618
		h-0.95l-2.212-7.189h-0.032l-2.263,7.189h-0.969L209.044,336z"/>
	<path fill="#FFFFFF" d="M227.98,342.816v-6.053h-1.272v-0.766h1.272v-2.04h0.918v2.04h2.349v0.766h-2.349v5.916
		c0,0.885,0.308,1.258,1.377,1.258c0.375,0,0.802-0.067,1.156-0.17v0.629c-0.305,0.151-0.729,0.307-1.393,0.307
		C228.729,344.703,227.98,344.143,227.98,342.816z"/>
	<path fill="#FFFFFF" d="M234.085,332.057h0.918v4.727h0.067c0.886-0.578,2.023-0.937,3.111-0.937c1.648,0,2.498,0.662,2.498,2.312
		v6.46h-0.916v-6.271c0-1.225-0.527-1.701-1.955-1.701c-0.936,0-1.938,0.324-2.805,0.801v7.173h-0.918v-12.562h-0.001V332.057z"/>
	<path fill="#FFFFFF" d="M243.398,340.419v-0.203c0-2.991,1.72-4.368,3.74-4.368c2.346,0,3.418,1.444,3.418,4.028v0.526h-6.221
		c0,2.48,1.088,3.568,3.264,3.568c1.156,0,1.971-0.271,2.668-0.611v0.697c-0.524,0.34-1.479,0.713-2.805,0.713
		C244.762,344.771,243.398,343.189,243.398,340.419z M244.354,339.655h5.235c0-2.023-0.799-3.043-2.481-3.043
		C245.747,336.612,244.486,337.462,244.354,339.655z"/>
	<path fill="#FFFFFF" d="M256.777,332.839h0.986l3.826,10.472h0.016l3.826-10.472h0.9l-4.334,11.779h-0.885L256.777,332.839z"/>
	<path fill="#FFFFFF" d="M268.68,333.093h0.952v1.056h-0.952V333.093z M268.695,336h0.919v8.618h-0.919V336z"/>
	<path fill="#FFFFFF" d="M272.964,344.296v-12.237h0.918v4.588h0.066c0.682-0.407,1.549-0.8,2.84-0.8
		c1.785,0,3.383,0.986,3.383,4.302v0.205c0,2.905-1.547,4.453-4.198,4.453C274.9,344.807,273.693,344.618,272.964,344.296z
		 M279.202,340.472V340.2c0-2.72-1.002-3.554-2.82-3.554c-1.055,0-1.955,0.407-2.5,0.716v6.271c0.511,0.221,1.175,0.375,2.16,0.375
		C277.825,344.007,279.202,343.071,279.202,340.472z"/>
	<path fill="#FFFFFF" d="M282.415,340.419v-0.203c0-2.991,1.717-4.368,3.739-4.368c2.347,0,3.416,1.444,3.416,4.028v0.526h-6.221
		c0,2.48,1.088,3.568,3.264,3.568c1.156,0,1.974-0.271,2.671-0.611v0.697c-0.527,0.34-1.479,0.713-2.806,0.713
		C283.773,344.771,282.415,343.189,282.415,340.419z M283.368,339.655h5.233c0-2.023-0.799-3.043-2.481-3.043
		C284.761,336.612,283.503,337.462,283.368,339.655z"/>
	<path fill="#FFFFFF" d="M291.8,344.143v-0.748c0.697,0.307,1.394,0.578,2.617,0.578c1.563,0,2.144-0.646,2.144-1.563
		c0-0.985-0.459-1.343-1.685-1.7l-0.937-0.271c-1.272-0.355-2.039-0.918-2.039-2.312c0-1.343,0.918-2.278,2.806-2.278
		c1.104,0,1.836,0.256,2.312,0.512v0.766c-0.526-0.255-1.377-0.479-2.262-0.479c-1.326,0-1.988,0.512-1.988,1.412
		c0,0.885,0.408,1.258,1.479,1.562l0.951,0.271c1.563,0.441,2.278,0.952,2.278,2.447c0,1.462-0.985,2.413-2.959,2.413
		C293.361,344.754,292.443,344.499,291.8,344.143z"/>
</g>
<g id="Text_1_">
	<path fill="#FFFFFF" d="M90.075,105.45h8.524v1.008H91.25v5.564h5.648v1.008H91.25v5.963h7.391V120h-8.566V105.45z"/>
	<path fill="#FFFFFF" d="M104.396,114.583l-3.527-5.228h1.281l2.981,4.43l2.834-4.43h1.218l-3.443,5.228l3.653,5.417h-1.302
		l-3.065-4.598L101.918,120h-1.197L104.396,114.583z"/>
	<path fill="#FFFFFF" d="M112.104,109.355h1.092v0.903h0.063c0.777-0.567,1.911-1.092,3.422-1.092c2.394,0,4.325,1.26,4.325,5.333
		v0.231c0,3.8-1.89,5.459-4.85,5.459c-1.302,0-2.268-0.378-2.918-0.756v4.661h-1.134V109.355z M119.809,114.877v-0.336
		c0-3.401-1.281-4.388-3.401-4.388c-1.386,0-2.52,0.504-3.17,0.945v7.349c0.609,0.42,1.617,0.798,2.834,0.798
		C118.381,119.244,119.809,117.984,119.809,114.877z"/>
	<path fill="#FFFFFF" d="M124.052,104.484h1.155V120h-1.155V104.484z"/>
	<path fill="#FFFFFF" d="M128.231,114.856v-0.294c0-3.485,1.995-5.396,4.745-5.396c2.876,0,4.766,1.848,4.766,5.333v0.273
		c0,3.485-2.016,5.417-4.787,5.417C130.079,120.189,128.231,118.341,128.231,114.856z M136.567,114.877v-0.42
		c0-3.149-1.554-4.346-3.611-4.346c-2.121,0-3.569,1.512-3.569,4.346v0.441c0,3.107,1.554,4.346,3.611,4.346
		C135.118,119.244,136.567,117.774,136.567,114.877z"/>
	<path fill="#FFFFFF" d="M140.726,109.355h1.092v1.26h0.063c0.651-0.693,1.827-1.386,3.149-1.386c0.231,0,0.504,0.021,0.63,0.063
		v1.029c-0.231-0.042-0.525-0.063-0.714-0.063c-1.197,0-2.331,0.525-3.086,1.197V120h-1.134V109.355z"/>
	<path fill="#FFFFFF" d="M147.488,114.814v-0.252c0-3.695,2.121-5.396,4.619-5.396c2.897,0,4.22,1.785,4.22,4.976v0.651h-7.685
		c0,3.065,1.344,4.409,4.031,4.409c1.428,0,2.436-0.336,3.296-0.756v0.861c-0.651,0.42-1.827,0.882-3.464,0.882
		C149.167,120.189,147.488,118.236,147.488,114.814z M148.664,113.869h6.467c0-2.499-0.987-3.758-3.065-3.758
		C150.385,110.111,148.832,111.161,148.664,113.869z"/>
	<path fill="#FFFFFF" d="M164.959,117.774V110.3h-1.574v-0.945h1.574v-2.52h1.135v2.52h2.896v0.945h-2.896v7.307
		c0,1.092,0.377,1.554,1.7,1.554c0.462,0,0.987-0.084,1.429-0.21v0.777c-0.379,0.189-0.904,0.378-1.723,0.378
		C165.883,120.105,164.959,119.412,164.959,117.774z"/>
	<path fill="#FFFFFF" d="M172.078,104.484h1.135v5.837h0.084c1.092-0.714,2.498-1.155,3.842-1.155c2.037,0,3.086,0.819,3.086,2.855
		V120h-1.133v-7.748c0-1.512-0.65-2.1-2.415-2.1c-1.155,0-2.394,0.399-3.464,0.987V120h-1.135V104.484z"/>
	<path fill="#FFFFFF" d="M183.166,114.814v-0.252c0-3.695,2.121-5.396,4.619-5.396c2.896,0,4.221,1.785,4.221,4.976v0.651h-7.686
		c0,3.065,1.344,4.409,4.031,4.409c1.428,0,2.436-0.336,3.297-0.756v0.861c-0.65,0.42-1.826,0.882-3.465,0.882
		C184.846,120.189,183.166,118.236,183.166,114.814z M184.342,113.869h6.467c0-2.499-0.985-3.758-3.064-3.758
		C186.062,110.111,184.51,111.161,184.342,113.869z"/>
	<path fill="#FFFFFF" d="M199.986,109.355h1.092v0.987h0.062c1.135-0.714,2.353-1.176,3.549-1.176c1.219,0,2.1,0.399,2.541,1.218
		h0.062c1.365-0.84,2.625-1.218,3.821-1.218c1.785,0,2.919,0.819,2.919,2.855V120h-1.134v-7.748c0-1.512-0.715-2.1-2.205-2.1
		c-0.967,0-2.016,0.336-3.213,0.987c0.062,0.273,0.105,0.546,0.105,0.882V120h-1.154v-7.748c0-1.512-0.652-2.1-2.143-2.1
		c-1.051,0-2.1,0.378-3.17,0.987V120h-1.135v-10.645H199.986z"/>
	<path fill="#FFFFFF" d="M216.934,117.271c0-1.827,1.135-2.813,3.213-3.044l3.129-0.357v-1.386c0-1.785-0.819-2.331-2.729-2.331
		c-1.05,0-1.933,0.189-2.688,0.42v-0.84c0.925-0.357,1.91-0.567,3.107-0.567c2.205,0,3.443,0.924,3.443,3.065V120h-0.945
		l-0.104-0.924h-0.063c-0.524,0.546-1.512,1.113-3.063,1.113C218.277,120.189,216.934,119.139,216.934,117.271z M223.273,118.341
		v-3.611l-2.834,0.315c-1.597,0.168-2.33,0.819-2.33,2.184c0,1.323,0.924,2.058,2.394,2.058
		C221.721,119.286,222.729,118.845,223.273,118.341z"/>
	<path fill="#FFFFFF" d="M228.062,109.355h1.092v0.903h0.062c0.776-0.567,1.911-1.092,3.424-1.092c2.393,0,4.323,1.26,4.323,5.333
		v0.231c0,3.8-1.889,5.459-4.851,5.459c-1.301,0-2.268-0.378-2.918-0.756v4.661h-1.135v-14.739H228.062z M235.77,114.877v-0.336
		c0-3.401-1.281-4.388-3.401-4.388c-1.386,0-2.521,0.504-3.17,0.945v7.349c0.608,0.42,1.616,0.798,2.834,0.798
		C234.341,119.244,235.77,117.984,235.77,114.877z"/>
</g>
</svg>
