<?xml version="1.0" encoding="utf-8"?>
<!-- Generator: Adobe Illustrator 16.0.4, SVG Export Plug-In . SVG Version: 6.00 Build 0)  -->
<!DOCTYPE svg PUBLIC "-//W3C//DTD SVG 1.1//EN" "http://www.w3.org/Graphics/SVG/1.1/DTD/svg11.dtd">
<svg version="1.1" id="Layer_1" xmlns="http://www.w3.org/2000/svg" xmlns:xlink="http://www.w3.org/1999/xlink" x="0px" y="0px"
	 width="31.417px" height="40.858px" viewBox="0 0 31.417 40.858" enable-background="new 0 0 31.417 40.858" xml:space="preserve">
<polygon fill="#FBEE29" points="13.306,-124.973 10.82,-129.278 13.306,-133.583 18.277,-133.583 20.763,-129.278 18.277,-124.973 
	"/>
<polygon fill="#F6851F" points="25.884,-118.824 23.399,-123.129 25.884,-127.434 30.855,-127.434 33.341,-123.129 30.855,-118.824 
	"/>
<polygon fill="#EE3255" points="30.855,-106.695 28.37,-111 30.855,-115.305 35.827,-115.305 38.312,-111 35.827,-106.695 "/>
<polygon fill="#A555A1" points="13.306,-88.542 10.821,-92.847 13.306,-97.152 18.277,-97.152 20.763,-92.847 18.277,-88.542 "/>
<polygon fill="#E44A9A" points="25.884,-94.472 23.399,-98.777 25.884,-103.082 30.855,-103.082 33.341,-98.777 30.855,-94.472 "/>
<polygon fill="#69CCE2" points="-4.244,-106.695 -6.729,-111 -4.244,-115.305 0.728,-115.305 3.213,-111 0.728,-106.695 "/>
<polygon fill="#5296D0" points="0.727,-94.472 -1.758,-98.777 0.727,-103.082 5.698,-103.082 8.184,-98.777 5.698,-94.472 "/>
<polygon fill="#65BC46" points="0.727,-118.824 -1.758,-123.128 0.727,-127.434 5.698,-127.434 8.184,-123.128 5.698,-118.824 "/>
<g>
	<path fill="#8C8C8C" d="M85.872-116.652c-3.832,0-6.949,3.12-6.949,6.952c0,3.829,3.117,6.946,6.949,6.946s6.95-3.117,6.95-6.946
		C92.822-113.532,89.704-116.652,85.872-116.652z"/>
	<path fill="#FFFFFF" d="M84.037-105.957c-0.844-0.752-1.386-1.833-1.386-3.053c0-2.268,1.837-4.104,4.104-4.104
		c1.26,0,2.375,0.58,3.127,1.475C86.847-111.312,84.444-108.966,84.037-105.957z"/>
	<path fill="none" stroke="#8C8C8C" stroke-miterlimit="10" d="M98.989-123.739h-2.762v-2.761h-2.761v2.761H79.659
		c0-1.33-1.244-2.761-2.762-2.761h-5.522c-1.518,0-2.761,1.432-2.761,2.761h-2.762c-1.518,0-2.761,1.244-2.761,2.762v22.091
		c0,1.519,1.244,2.761,2.761,2.761h33.137c1.518,0,2.761-1.243,2.761-2.761v-22.091C101.75-122.495,100.506-123.739,98.989-123.739z
		 M69.703-114.424c-1.11,0-2.011-0.901-2.011-2.012c0-1.109,0.901-2.009,2.011-2.009s2.01,0.9,2.01,2.009
		C71.713-115.325,70.813-114.424,69.703-114.424z M85.872-99.162c-5.811,0-10.539-4.729-10.539-10.538
		c0-5.811,4.728-10.539,10.539-10.539s10.539,4.728,10.539,10.539C96.411-103.891,91.683-99.162,85.872-99.162z"/>
</g>
<path fill="none" stroke="#8C8C8C" stroke-miterlimit="10" d="M165.797-98.834l-6.176-6.178c1.562-2.442,2.483-5.339,2.483-8.456
	c0-8.671-7.026-15.699-15.699-15.699c-8.669,0-15.699,7.028-15.699,15.699c0,8.67,7.03,15.699,15.699,15.699
	c3.119,0,6.015-0.919,8.456-2.485l6.179,6.178c0.434,0.436,1.147,0.436,1.585,0l3.172-3.171
	C166.235-97.686,166.235-98.4,165.797-98.834z"/>
<path fill="none" stroke="#8C8C8C" stroke-miterlimit="10" d="M146.405-102.255c-6.181,0-11.214-5.03-11.214-11.213
	c0-6.183,5.033-11.213,11.214-11.213c6.186,0,11.214,5.031,11.214,11.213C157.619-107.285,152.591-102.255,146.405-102.255z"/>
<path fill="none" stroke="#8C8C8C" stroke-miterlimit="10" d="M232.143-101.972c-1.1-1.717-4.801-2.785-8.46-4.311
	c-3.662-1.526-4.53-2.055-4.53-2.055l-0.034-3.512c0,0,1.372-1.054,1.798-4.359c0.855,0.249,1.758-1.28,1.807-2.085
	c0.048-0.775-0.117-2.927-1.165-2.711c0.214-1.621,0.368-3.078,0.293-3.849c-0.272-2.822-3.05-5.798-7.322-5.798
	c-4.271,0-7.05,2.976-7.321,5.798c-0.078,0.771,0.078,2.228,0.29,3.849c-1.045-0.216-1.21,1.936-1.164,2.711
	c0.051,0.806,0.948,2.334,1.809,2.085c0.424,3.305,1.798,4.359,1.798,4.359l-0.035,3.512c0,0-0.869,0.529-4.529,2.055
	c-3.662,1.526-7.36,2.594-8.461,4.311c-0.989,1.538-0.69,8.93-0.69,8.93h36.609C232.833-93.042,233.13-100.435,232.143-101.972z"/>
<g>
	<polygon opacity="0.3" points="6.489,40.287 3.827,38.842 6.489,37.397 11.818,37.397 14.483,38.842 11.818,40.287 	"/>
	<polygon opacity="0.3" points="19.72,40.285 16.973,38.84 19.72,37.396 25.217,37.396 27.967,38.84 25.217,40.285 	"/>
	<linearGradient id="SVGID_1_" gradientUnits="userSpaceOnUse" x1="5.8169" y1="14.7363" x2="25.7549" y2="14.7363">
		<stop  offset="0" style="stop-color:#F9ED32;stop-opacity:0.8"/>
		<stop  offset="1" style="stop-color:#FBB040;stop-opacity:0.8"/>
	</linearGradient>
	<polygon fill="url(#SVGID_1_)" points="10.8,17.83 5.817,14.736 10.8,11.644 20.77,11.644 25.755,14.736 20.77,17.83 	"/>
	<polygon fill="#ED3794" points="9.883,38.223 3.949,27.945 9.883,17.667 21.75,17.667 27.684,27.945 21.75,38.223 	"/>
	<polygon fill="#79CDCB" points="20.816,17.812 25.73,14.723 30.863,17.434 31.081,23.234 26.166,26.324 21.034,23.613 	"/>
	<polygon fill="#F6851F" points="5.835,14.735 10.826,17.821 8.169,13.277 	"/>
	<polygon fill="#65BC46" points="23.402,13.277 25.73,14.723 20.816,17.812 	"/>
	<polygon opacity="0.05" points="9.883,17.667 3.949,27.945 9.883,38.223 21.75,38.223 13.401,17.667 	"/>
	<polygon fill="#EE3255" points="10.826,17.821 5.835,14.735 0.669,17.514 0.491,23.38 5.482,26.465 10.648,23.687 	"/>
	<polygon opacity="0.1" points="0.669,17.514 0.491,23.38 5.482,26.465 10.648,23.687 	"/>
	<polygon opacity="0.1" points="23.402,13.277 24.346,13.863 20.816,17.812 	"/>
	<polygon fill="#FBEE29" points="10.8,17.838 5.817,9.203 10.8,0.57 20.77,0.57 25.755,9.203 20.77,17.838 	"/>
	<polygon opacity="0.05" points="10.8,0.57 5.817,9.203 10.826,17.821 20.816,17.812 	"/>
	<polygon opacity="0.1" points="0.491,23.38 0.561,21.09 7.086,25.602 5.482,26.465 	"/>
	<polygon opacity="0.1" points="30.863,17.434 21.034,23.613 26.166,26.324 31.081,23.234 	"/>
	<polygon opacity="0.1" points="31.081,23.234 31,21.09 24.859,25.635 26.166,26.324 	"/>
	<polygon opacity="0.05" fill="#FFFFFF" points="20.854,23.408 16.739,25.881 21.75,38.223 23.114,35.86 27.684,27.945 	"/>
	<polygon opacity="0.05" points="16.739,25.881 8.593,35.991 9.883,38.223 21.779,38.223 	"/>
	<polygon fill="#A25BA4" points="6.49,40.285 3.838,35.689 6.49,31.096 11.795,31.096 14.449,35.689 11.795,40.285 	"/>
	<polygon opacity="0.1" points="6.49,31.096 11.795,40.285 6.49,40.285 3.838,35.689 	"/>
	<polygon opacity="0.1" points="4.015,35.689 6.573,40.118 7.593,40.118 	"/>
	<polygon opacity="0.05" points="15.786,9.152 10.826,17.821 20.816,17.812 	"/>
	<polygon opacity="0.05" points="10.8,0.57 15.786,9.152 20.77,0.57 	"/>
	<polygon fill="#5296D0" points="19.702,40.285 16.946,35.514 19.702,30.74 25.213,30.74 27.967,35.514 25.213,40.285 	"/>
	<polygon opacity="0.1" points="19.702,30.74 25.213,40.285 19.702,40.285 16.946,35.514 	"/>
	<polygon opacity="0.1" points="17.361,35.514 20.021,40.11 21.079,40.11 	"/>
	<polygon opacity="0.1" points="8.164,13.281 7.438,13.734 10.773,17.788 	"/>
	<polygon opacity="0.1" points="4.982,26.155 3.949,27.945 10.648,23.687 5.482,26.465 	"/>
	<polygon opacity="0.1" points="26.593,26.056 27.684,27.945 21.034,23.613 26.166,26.324 	"/>
	<polygon opacity="0.3" points="5.221,38.086 3.827,38.842 6.49,40.285 	"/>
	<polygon opacity="0.3" points="18.511,38.223 18.146,38.223 16.973,38.84 19.694,40.271 	"/>
</g>
</svg>
