<?xml version="1.0" encoding="utf-8"?>
<!-- Generator: Adobe Illustrator 16.0.4, SVG Export Plug-In . SVG Version: 6.00 Build 0)  -->
<!DOCTYPE svg PUBLIC "-//W3C//DTD SVG 1.1//EN" "http://www.w3.org/Graphics/SVG/1.1/DTD/svg11.dtd">
<svg version="1.1" id="Layer_1" xmlns="http://www.w3.org/2000/svg" xmlns:xlink="http://www.w3.org/1999/xlink" x="0px" y="0px"
	 width="640px" height="1136px" viewBox="0 0 640 1136" enable-background="new 0 0 640 1136" xml:space="preserve">
<rect y="-5" fill="#FFFFFF" stroke="#000000" stroke-miterlimit="10" width="656.781" height="1155.556"/>
<line fill="none" stroke="#9E9E9E" stroke-miterlimit="10" x1="326.648" y1="416.763" x2="326.648" y2="503.964"/>
<g>
	<path fill="#9E9E9E" d="M339.116,441.096v-0.384c0-5.628,3.229-8.219,7.034-8.219c4.414,0,6.43,2.718,6.43,7.58v0.991h-11.705
		c0,4.669,2.047,6.716,6.141,6.716c2.176,0,3.711-0.515,5.021-1.151v1.312c-0.991,0.639-2.783,1.343-5.276,1.343
		C341.675,449.283,339.116,446.309,339.116,441.096z M340.907,439.657h9.85c0-3.809-1.504-5.728-4.669-5.728
		C343.529,433.933,341.162,435.532,340.907,439.657z"/>
	<path fill="#9E9E9E" d="M357.121,432.782h1.663v1.503h0.096c1.729-1.087,3.582-1.791,5.405-1.791c1.854,0,3.197,0.604,3.869,1.854
		h0.096c2.079-1.276,3.997-1.854,5.82-1.854c2.719,0,4.443,1.247,4.443,4.349v12.152h-1.728v-11.801
		c0-2.305-1.087-3.198-3.358-3.198c-1.471,0-3.066,0.512-4.893,1.503c0.096,0.416,0.158,0.832,0.158,1.343v12.152h-1.76v-11.801
		c0-2.305-0.99-3.198-3.263-3.198c-1.599,0-3.198,0.576-4.829,1.503v13.495h-1.727v-16.211H357.121z"/>
	<path fill="#9E9E9E" d="M382.993,441.16v-0.448c0-5.309,3.038-8.219,7.228-8.219c4.381,0,7.263,2.812,7.263,8.123v0.416
		c0,5.309-3.07,8.25-7.292,8.25C385.809,449.283,382.993,446.469,382.993,441.16z M395.688,441.192v-0.643
		c0-4.797-2.363-6.62-5.5-6.62c-3.229,0-5.438,2.306-5.438,6.62v0.671c0,4.733,2.367,6.62,5.502,6.62
		C393.482,447.844,395.688,445.605,395.688,441.192z"/>
	<path fill="#9E9E9E" d="M402.853,445.605V434.22h-2.396v-1.438h2.396v-3.838h1.729v3.838h4.412v1.438h-4.412v11.129
		c0,1.663,0.575,2.367,2.59,2.367c0.703,0,1.504-0.128,2.175-0.318v1.185c-0.575,0.288-1.376,0.576-2.622,0.576
		C404.26,449.156,402.853,448.1,402.853,445.605z"/>
	<path fill="#9E9E9E" d="M413.726,427.312h1.791v1.98h-1.791V427.312z M413.758,432.782h1.729v16.213h-1.729V432.782z"/>
	<path fill="#9E9E9E" d="M420.09,441.16v-0.448c0-5.309,3.038-8.219,7.229-8.219c4.381,0,7.26,2.812,7.26,8.123v0.416
		c0,5.309-3.07,8.25-7.292,8.25C422.903,449.283,420.09,446.469,420.09,441.16z M432.785,441.192v-0.643
		c0-4.797-2.366-6.62-5.5-6.62c-3.229,0-5.438,2.306-5.438,6.62v0.671c0,4.733,2.367,6.62,5.502,6.62
		C430.579,447.844,432.785,445.605,432.785,441.192z"/>
	<path fill="#9E9E9E" d="M439.117,432.782h1.664v1.503h0.096c1.727-1.119,3.901-1.791,5.948-1.791c3.102,0,4.7,1.247,4.7,4.349
		v12.152h-1.729v-11.801c0-2.305-0.991-3.198-3.678-3.198c-1.759,0-3.646,0.607-5.276,1.503v13.495h-1.728L439.117,432.782
		L439.117,432.782z"/>
</g>
<g>
	<path fill="#9E9E9E" d="M338.718,470.289h1.663v1.503h0.096c1.729-1.087,3.582-1.791,5.405-1.791c1.854,0,3.198,0.608,3.869,1.854
		h0.097c2.078-1.278,3.997-1.854,5.82-1.854c2.718,0,4.443,1.248,4.443,4.351v12.151h-1.729v-11.801
		c0-2.303-1.087-3.198-3.355-3.198c-1.473,0-3.069,0.512-4.896,1.503c0.097,0.416,0.16,0.832,0.16,1.343v12.152h-1.759v-11.801
		c0-2.303-0.991-3.198-3.264-3.198c-1.601,0-3.196,0.576-4.828,1.503v13.496h-1.729v-16.213H338.718z"/>
	<path fill="#9E9E9E" d="M364.525,482.345c0-2.782,1.728-4.284,4.894-4.637l4.765-0.543v-2.111c0-2.718-1.244-3.55-4.154-3.55
		c-1.603,0-2.941,0.288-4.096,0.641v-1.278c1.406-0.543,2.909-0.863,4.732-0.863c3.357,0,5.245,1.407,5.245,4.669v11.833h-1.438
		l-0.158-1.407h-0.099c-0.8,0.832-2.303,1.695-4.669,1.695C366.572,486.791,364.525,485.192,364.525,482.345z M374.184,483.977v-5.5
		l-4.314,0.48c-2.434,0.255-3.551,1.247-3.551,3.326c0,2.014,1.406,3.134,3.646,3.134
		C371.816,485.416,373.354,484.744,374.184,483.977z"/>
	<path fill="#9E9E9E" d="M381.477,470.289h1.662v1.375h0.098c1.184-0.864,2.908-1.664,5.214-1.664c3.645,0,6.588,1.919,6.588,8.123
		v0.352c0,5.788-2.879,8.314-7.388,8.314c-1.982,0-3.455-0.575-4.445-1.151v7.103h-1.729V470.289L381.477,470.289z M393.212,478.7
		v-0.513c0-5.183-1.95-6.686-5.181-6.686c-2.111,0-3.838,0.77-4.829,1.439v11.19c0.928,0.642,2.463,1.215,4.315,1.215
		C391.037,485.352,393.212,483.433,393.212,478.7z"/>
	<path fill="#9E9E9E" d="M399.64,470.289h1.663v1.375h0.099c1.183-0.864,2.907-1.664,5.213-1.664c3.646,0,6.588,1.919,6.588,8.123
		v0.352c0,5.788-2.878,8.314-7.388,8.314c-1.982,0-3.453-0.575-4.445-1.151v7.103h-1.729V470.289L399.64,470.289z M411.376,478.7
		v-0.513c0-5.183-1.95-6.686-5.181-6.686c-2.11,0-3.837,0.77-4.829,1.439v11.19c0.928,0.642,2.463,1.215,4.314,1.215
		C409.202,485.352,411.376,483.433,411.376,478.7z"/>
	<path fill="#9E9E9E" d="M417.836,464.82h1.791v1.979h-1.791V464.82z M417.868,470.289h1.727v16.214h-1.727V470.289z"/>
	<path fill="#9E9E9E" d="M425.255,470.289h1.664v1.503h0.096c1.729-1.119,3.901-1.791,5.948-1.791c3.104,0,4.701,1.248,4.701,4.351
		v12.151h-1.729v-11.801c0-2.303-0.988-3.198-3.677-3.198c-1.76,0-3.646,0.608-5.274,1.503v13.496h-1.729L425.255,470.289
		L425.255,470.289z"/>
	<path fill="#9E9E9E" d="M441.405,488.582c0-1.951,1.438-3.23,3.229-3.901v-0.096c-0.896-0.224-1.664-1.022-1.664-2.175
		c0-1.023,0.608-2.079,1.696-2.941c-1.248-0.832-2.047-2.175-2.047-4.028v-0.287c0-3.23,2.494-5.149,5.948-5.149
		c0.768,0,1.471,0.096,2.143,0.256h5.404v1.344h-3.325c1.055,0.77,1.63,1.918,1.63,3.485v0.288c0,3.358-2.526,5.117-5.884,5.117
		c-1.087,0-2.079-0.192-2.942-0.543c-0.544,0.446-0.959,1.119-0.959,1.854c0,0.991,0.607,1.602,1.791,1.602h4.668
		c2.879,0,5.021,1.087,5.021,4.188c0,2.782-2.206,5.245-7.646,5.245C443.484,492.835,441.405,490.98,441.405,488.582z
		 M454.293,487.846c0-2.079-1.184-2.78-3.453-2.78h-4.798c-1.599,0.544-2.813,1.6-2.813,3.295c0,1.759,1.375,3.037,5.184,3.037
		C452.727,491.396,454.293,489.797,454.293,487.846z M452.694,475.438v-0.384c0-2.523-1.663-3.678-4.157-3.678
		c-2.527,0-4.157,1.312-4.157,3.646v0.387c0,2.463,1.694,3.709,4.157,3.709C451.095,479.115,452.694,477.869,452.694,475.438z"/>
</g>
<g>
	<polygon opacity="0.9" fill="#F8ED40" enable-background="new    " points="382.701,187.664 329.638,261.606 245.256,261.606 	"/>
	<polygon opacity="0.6" fill="#ED2A25" enable-background="new    " points="329.638,261.606 382.701,187.664 329.638,187.664 	"/>
	<polygon opacity="0.9" fill="#426EB5" enable-background="new    " points="382.701,187.664 408.039,187.664 368.117,207.987 	"/>
	<polygon opacity="0.7" fill="#ED4798" enable-background="new    " points="329.638,261.606 368.117,207.987 329.638,187.664 
		281.43,166.653 	"/>
	<polygon opacity="0.6" fill="#06B052" enable-background="new    " points="329.638,261.606 329.638,207.987 257.935,207.987 	"/>
	<polygon opacity="0.2" fill="#06B052" enable-background="new    " points="329.638,261.606 311.451,225.825 302.416,207.987 
		329.638,207.987 	"/>
	<polygon opacity="0.7" fill="#754D9E" enable-background="new    " points="257.935,207.987 280.198,224.635 329.638,207.987 	"/>
</g>
<g>
	<path fill="#9E9E9E" d="M209.781,440.396h2.529l9.812,26.86h0.043l9.812-26.86h2.311l-11.12,30.221H220.9L209.781,440.396z"/>
	<path fill="#9E9E9E" d="M239.435,441.051h2.442v2.704h-2.442V441.051z M239.479,448.508h2.355v22.109h-2.355V448.508z"/>
	<path fill="#9E9E9E" d="M249.552,469.789v-31.398h2.354v11.774h0.175c1.744-1.047,3.968-2.05,7.282-2.05
		c4.579,0,8.678,2.526,8.678,11.033v0.521c0,7.457-3.968,11.425-10.771,11.425C254.523,471.097,251.427,470.617,249.552,469.789z
		 M265.556,459.979v-0.696c0-6.979-2.573-9.114-7.239-9.114c-2.704,0-5.015,1.047-6.411,1.832v16.091
		c1.309,0.567,3.009,0.959,5.539,0.959C262.024,469.047,265.556,466.648,265.556,459.979z"/>
	<path fill="#9E9E9E" d="M272.927,459.846v-0.521c0-7.675,4.404-11.207,9.594-11.207c6.018,0,8.765,3.707,8.765,10.335v1.352h-15.96
		c0,6.367,2.791,9.158,8.373,9.158c2.965,0,5.059-0.698,6.847-1.57v1.788c-1.352,0.872-3.794,1.832-7.195,1.832
		C276.416,471.01,272.927,466.954,272.927,459.846z M275.369,457.884H288.8c0-5.188-2.049-7.806-6.366-7.806
		C278.945,450.078,275.718,452.258,275.369,457.884z"/>
	<path fill="#9E9E9E" d="M296.126,469.396v-1.922c1.788,0.785,3.576,1.483,6.715,1.483c4.012,0,5.495-1.657,5.495-4.012
		c0-2.53-1.177-3.445-4.317-4.361l-2.398-0.698c-3.271-0.916-5.233-2.354-5.233-5.93c0-3.445,2.354-5.844,7.195-5.844
		c2.834,0,4.709,0.652,5.93,1.308v1.962c-1.352-0.652-3.532-1.221-5.799-1.221c-3.402,0-5.102,1.308-5.102,3.62
		c0,2.267,1.046,3.227,3.793,4.012l2.442,0.698c4.012,1.134,5.843,2.439,5.843,6.277c0,3.75-2.529,6.191-7.588,6.191
		C300.138,470.966,297.784,470.312,296.126,469.396z"/>
</g>
<polygon opacity="0.5" fill="#426EB5" enable-background="new    " points="159.979,1150.556 192.951,742.783 241.708,1150.556 "/>
<polygon opacity="0.4" fill="#F8ED40" enable-background="new    " points="464.75,1135.74 501.562,642.223 555.996,1135.74 "/>
<g>
	<rect x="575.062" y="784.265" opacity="0.5" fill="#754D9E" enable-background="new    " width="20.028" height="381.645"/>
	<rect x="45.334" y="840.5" opacity="0.5" fill="#F7961D" enable-background="new    " width="49.94" height="325.494"/>
	<rect x="-4.803" y="682.982" opacity="0.5" fill="#F8ED40" enable-background="new    " width="49.94" height="483.012"/>
	<rect x="95.233" y="809.621" opacity="0.5" fill="#ED2A25" enable-background="new    " width="74.746" height="356.379"/>
	<rect x="169.979" y="884.534" opacity="0.5" fill="#ED4798" enable-background="new    " width="49.914" height="281.466"/>
	<rect x="244.781" y="904.153" opacity="0.5" fill="#754D9E" enable-background="new    " width="50.021" height="261.847"/>
	<rect x="294.958" y="798.92" opacity="0.5" fill="#426EB5" enable-background="new    " width="50.021" height="367.08"/>
	<rect x="344.979" y="705.538" opacity="0.5" fill="#06B052" enable-background="new    " width="50.215" height="460.462"/>
	<rect x="395.252" y="659.795" opacity="0.5" fill="#F8ED40" enable-background="new    " width="25.01" height="506.205"/>
	<rect x="420.262" y="809.621" opacity="0.5" fill="#F7961D" enable-background="new    " width="40.996" height="356.379"/>
	<rect x="461.258" y="904.153" opacity="0.5" fill="#ED2A25" enable-background="new    " width="40.994" height="261.847"/>
	<rect x="502.252" y="870.544" opacity="0.5" fill="#ED4798" enable-background="new    " width="42.92" height="295.269"/>
	<rect x="595.373" y="727.574" opacity="0.5" fill="#06B052" enable-background="new    " width="50.334" height="438.188"/>
	<rect x="545.172" y="705.538" opacity="0.5" fill="#F3BCD1" enable-background="new    " width="30.039" height="460.274"/>
	<rect x="219.771" y="798.92" opacity="0.5" fill="#F3BCD1" enable-background="new    " width="25.01" height="366.893"/>
</g>
<g>
	<rect x="-11" y="873.582" opacity="0.6" fill="#06B052" enable-background="new    " width="50.334" height="302.158"/>
	<rect x="38.94" y="937.551" opacity="0.6" fill="#426EB5" enable-background="new    " width="50.334" height="238.189"/>
	<rect x="88.947" y="881.899" opacity="0.6" fill="#754D9E" enable-background="new    " width="50.334" height="293.841"/>
	<rect x="138.812" y="942.321" opacity="0.6" fill="#F3BCD1" enable-background="new    " width="50.334" height="233.419"/>
	<rect x="188.726" y="992.209" opacity="0.6" fill="#ED4798" enable-background="new    " width="50.334" height="183.531"/>
	<rect x="238.786" y="942.321" opacity="0.6" fill="#ED2A25" enable-background="new    " width="50.334" height="233.419"/>
	<rect x="288.801" y="902.643" opacity="0.6" fill="#F7961D" enable-background="new    " width="50.333" height="273.101"/>
	<rect x="339.014" y="882.306" opacity="0.6" fill="#F8ED40" enable-background="new    " width="50.334" height="293.438"/>
	<rect x="389.068" y="919.676" opacity="0.6" fill="#06B052" enable-background="new    " width="50.334" height="256.064"/>
	<rect x="489.123" y="1002.808" opacity="0.6" fill="#754D9E" enable-background="new    " width="50.334" height="172.936"/>
	<rect x="539.172" y="888.99" opacity="0.6" fill="#F3BCD1" enable-background="new    " width="50.334" height="286.75"/>
	<rect x="589.467" y="849.4" opacity="0.6" fill="#ED4798" enable-background="new    " width="30.828" height="326.34"/>
	<rect x="620.031" y="779.957" opacity="0.6" fill="#754D9E" enable-background="new    " width="19.676" height="395.783"/>
	<rect x="439.033" y="972.07" opacity="0.6" fill="#426EB5" enable-background="new    " width="50.334" height="203.67"/>
</g>
<g opacity="0.9">
	<rect x="-0.456" y="997.729" opacity="0.7" fill="#F7961D" enable-background="new    " width="57.781" height="178.015"/>
	<rect x="57.325" y="1024.584" opacity="0.7" fill="#ED2A25" enable-background="new    " width="52.921" height="151.156"/>
	<rect x="110.247" y="960.646" opacity="0.7" fill="#ED4798" enable-background="new    " width="54.163" height="215.095"/>
	<rect x="164.409" y="1048.115" opacity="0.7" fill="#754D9E" enable-background="new    " width="55.418" height="127.625"/>
	<rect x="219.827" y="1073.905" opacity="0.7" fill="#426EB5" enable-background="new    " width="54.078" height="101.835"/>
	<rect x="476.543" y="1073.676" opacity="0.7" fill="#ED2A25" enable-background="new    " width="53.443" height="101.834"/>
	<rect x="529.986" y="1026.423" opacity="0.7" fill="#ED4798" enable-background="new    " width="56.854" height="149.087"/>
	<rect x="586.842" y="972.07" opacity="0.7" fill="#754D9E" enable-background="new    " width="65.479" height="202.635"/>
	<rect x="273.905" y="1002.808" opacity="0.7" fill="#06B052" enable-background="new    " width="53.919" height="172.936"/>
	<rect x="439.402" y="1002.808" opacity="0.7" fill="#F7961D" enable-background="new    " width="37.141" height="172.936"/>
	<rect x="327.824" y="1068.192" opacity="0.7" fill="#ED4798" enable-background="new    " width="61.244" height="107.548"/>
	<rect x="389.348" y="977.848" opacity="0.7" fill="#F8ED40" enable-background="new    " width="49.688" height="197.896"/>
</g>
<polygon opacity="0.7" fill="#754D9E" enable-background="new    " points="586.842,932 589.5,927.93 589.506,932 "/>
<g opacity="0.9">
	<rect x="-14" y="-5" opacity="0.9" fill="#F8ED40" enable-background="new    " width="89.457" height="17.813"/>
	<rect x="30.227" y="-5" opacity="0.9" fill="#F7961D" enable-background="new    " width="89.457" height="17.813"/>
	<rect x="75.118" y="-5" opacity="0.8" fill="#ED2A25" enable-background="new    " width="89.456" height="17.813"/>
	<rect x="120.599" y="-5" opacity="0.9" fill="#ED4798" enable-background="new    " width="89.456" height="17.813"/>
	<rect x="165.498" y="-5" opacity="0.9" fill="#754D9E" enable-background="new    " width="89.457" height="17.813"/>
	<rect x="210.138" y="-5" opacity="0.9" fill="#426EB5" enable-background="new    " width="89.457" height="17.813"/>
	<rect x="254.388" y="-5" opacity="0.9" fill="#06B052" enable-background="new    " width="89.458" height="17.813"/>
	<rect x="298.937" y="-5" opacity="0.9" fill="#F8ED40" enable-background="new    " width="89.456" height="17.813"/>
	<rect x="343.164" y="-5" opacity="0.9" fill="#F7961D" enable-background="new    " width="89.457" height="17.813"/>
	<rect x="388.055" y="-5" opacity="0.8" fill="#ED2A25" enable-background="new    " width="89.457" height="17.813"/>
	<rect x="433.535" y="-5" opacity="0.9" fill="#ED4798" enable-background="new    " width="89.457" height="17.813"/>
	<rect x="478.436" y="-5" opacity="0.9" fill="#754D9E" enable-background="new    " width="89.455" height="17.813"/>
	<rect x="523.074" y="-5" opacity="0.9" fill="#426EB5" enable-background="new    " width="89.457" height="17.813"/>
	<rect x="567.326" y="-5" opacity="0.9" fill="#06B052" enable-background="new    " width="89.455" height="17.813"/>
	<rect x="612.054" y="-5" opacity="0.9" fill="#F8ED40" enable-background="new    " width="89.455" height="17.813"/>
</g>
</svg>
