<?xml version="1.0" encoding="utf-8"?>
<!-- Generator: Adobe Illustrator 16.0.4, SVG Export Plug-In . SVG Version: 6.00 Build 0)  -->
<!DOCTYPE svg PUBLIC "-//W3C//DTD SVG 1.1//EN" "http://www.w3.org/Graphics/SVG/1.1/DTD/svg11.dtd">
<svg version="1.1" xmlns="http://www.w3.org/2000/svg" xmlns:xlink="http://www.w3.org/1999/xlink" x="0px" y="0px" width="640px"
	 height="1136px" viewBox="0 0 640 1136" enable-background="new 0 0 640 1136" xml:space="preserve">
<g id="Layer_3" display="none">
	<g display="inline">
		<ellipse opacity="0.2" fill="#B2B3B3" cx="321.125" cy="775.612" rx="169.675" ry="168.472"/>
		<g>
			<path fill="#FFFFFF" d="M242.581,637.439l3.629,5.443c0,0-1.089,15.604-6.896,15.604c-5.806,0-19.052,15.06-23.225,19.233
				c-4.173,4.173-0.544,7.076-4.717,11.25c-4.174,4.173-25.766,19.596-25.766,34.838c0,15.241-6.169,11.25-6.169,20.32
				c0,0.506,0.002,0.991,0.004,1.458c0.034,7.933,0.339,10.579-0.004,11.606c-0.363,1.089,1.815-6.894,1.815-9.798
				c0-2.902,3.992-11.248,3.992-1.089c0,10.162,3.627,22.863,0,24.314c-3.629,1.451-5.847,0.725-5.847,4.354
				c0,3.629,9.476,23.952,11.653,23.952s4.717,7.62,4.717,7.62s5.443,9.799,7.621,9.799s1.815,10.522,2.903,12.337
				c1.089,1.815,9.072,8.347,9.072,10.161c0,1.815,5.807-1.088,5.807,1.815c0,2.901,2.9,8.347,1.45,9.797
				c-1.452,1.451-6.896,0.362-6.896,6.896c0,6.532-9.281,5.252-2.921,11.613c6.36,6.359,21.066,32.658,29.776,33.385
				c8.709,0.726,6.532,24.677,10.524,24.677c3.991,0,23.95,7.621,31.933,7.621c7.984,0,10.888-2.903,15.605-7.621
				c4.717-4.718,7.984-4.718,13.427-4.718s14.334-8.347,14.334-14.334s6.351-9.254,9.254-9.254c2.902,0-14.88-19.232-22.863-11.249
				s-3.628-2.903-7.257-2.903c-3.63,0-6.534,1.088-10.525,1.088c-3.991,0,6.17-3.628,1.816-3.628s-7.804,1.632-8.709,0.726
				c-0.908-0.908,7.257-9.072,3.627-9.072c-3.627,0-10.161-3.629-15.604-9.072c-5.443-5.443-8.708-13.428-14.515-13.428
				c-5.807,0-18.507-6.895-20.322-6.895s-5.987-13.972-11.25-8.71c-5.262,5.262-7.076,4.537-9.436,2.178
				c-2.359-2.358-5.443-2.54-8.709-5.806c-3.266-3.267-1.089-10.524-1.089-12.702c0-2.177-5.08-10.16-6.895-10.16
				s3.991-7.984,3.991-10.524s-6.168-5.443-7.621-3.992c-1.451,1.451-10.161,0-10.161-4.718c0-4.717,4.356-27.579,10.524-27.579
				s21.047,7.983,21.047,14.153c0,6.169-1.451,15.966,0.362,15.966c1.815,0,2.541-15.966,5.808-15.966
				c3.266,0,13.064-2.178,13.064-6.532c0-4.355,5.443-5.081,5.443-5.081s0.727-5.806,5.444-5.806s3.81,3.084,7.621-0.727
				s0.362-6.168,3.991-6.168c3.63,0,10.524-7.985,10.524-3.993c0,3.993-4.718,6.895-2.904,6.895c1.815,0,8.709-2.901,9.798-3.99
				s-4.355,2.902-4.355-0.727s0.726-7.62-1.089-7.62c-1.813,0-6.895,0-4.354-2.54c2.541-2.541,3.267-1.815,7.984-1.815
				s6.168,0,8.346,0c2.177,0,11.977-4.354,5.807,1.815c-6.169,6.168-8.346,8.346-5.443,8.346s3.993,0,6.532,0
				c2.54,0,1.088-1.089,1.088-3.629s3.63-13.064,0-13.064c-3.629,0-6.896-3.629-6.896-10.887s1.27-13.246-1.816-10.16
				c-3.084,3.084-5.805,7.982-5.805,0c0-7.984-1.997-15.061-6.17-10.887c-4.172,4.172-8.708,1.45-8.708,8.708
				c0,7.259-1.089,5.081-6.17,10.161c-5.081,5.081-6.896,9.072-6.896,2.541c0-6.533,2.541-10.525,0-13.064
				c-2.54-2.54-5.624-5.624-1.814-9.435c3.811-3.811,7.983-9.073,11.612-9.073c3.63,0,0.728,0,6.171,0s1.45-1.452,5.805-1.452
				c4.354,0,6.17,0.363,6.17-3.266s-5.626-2.722-1.452-6.896c4.174-4.172,6.168-9.071,0-6.17c-6.168,2.904-6.896,2.541-6.896,1.09
				s-3.083,0.544,0.364-2.902c3.447-3.448,8.347-7.259,5.807-7.259c-2.541,0-6.715,0.908-2.905-2.903
				c3.812-3.811,5.263-8.891,1.452-5.08s-2.903,4.355-5.807,3.266c-2.902-1.088-15.422,0.182-7.982-7.258
				c7.439-7.439,15.24-13.79,12.701-16.33c-2.541-2.539-2.178-3.629-9.798-3.629S242.581,637.439,242.581,637.439z"/>
			<path fill="#FFFFFF" d="M329.618,606.108c0,0,67.77,1.36,100.158,33.749s42.73,46.541,42.73,46.541l5.716,17.146
				c0,0-0.545,6.26-1.905,6.26c-1.361,0-3.538,0.816-1.633,2.722c1.904,1.905,3.946,7.485,5.715,5.716c1.77-1.77,0-3.267,0-5.716
				c0-2.45-1.42-4.899,0.787-4.899s16.088,46.542,9.828,46.542s-8.166-14.697-13.881-14.697c-5.716,0-11.976-2.903-7.802,1.271
				c4.175,4.173,6.381,10.161,11.976,10.161s5.805,5.442,8.346,6.531s3.63-1.089,4.719,0c1.088,1.089,8.709,77.658-35.202,121.569
				c-43.91,43.91-5.806,0-5.806,0s-0.726-5.442,4.354-10.524c5.081-5.08-0.543-18.326,0-18.871c0.544-0.544,5.081-4.718,1.089-8.709
				c-3.991-3.991-4.536-9.254-9.798-3.991s-23.044,8.529-26.49,11.976c-3.447,3.446-33.023-4.355-33.023-9.799
				s4.9-16.512,2.903-18.508c-1.996-1.996-8.165-8.891,3.629-20.685s6.895-13.064,6.895-20.322s1.089-6.531,4.354-9.798
				c3.267-3.266,10.161-2.541,13.79-6.169c3.629-3.629,10.141-12.398,11.249-11.29c1.109,1.109-0.363,7.298,4.355,7.298
				s9.436,0,12.702-3.266c3.266-3.267-0.727-9.799,4.354-9.799c5.082,0,13.063-8.709,13.063-12.338s-7.619-26.129-7.619-17.057
				c0,9.073-1.09,9.436-5.808,9.436c-4.717,0-5.442-7.982-5.442-9.436c0-1.452,5.806-7.257,5.806-13.427
				c0-6.169-5.08-5.443-7.983-5.443c-2.904,0-5.806-9.436-4.355-4.717c1.451,4.717-1.089,9.798-1.089,9.798
				s4.718,10.887,4.718,12.338s-4.172,9.617-1.813,11.976c2.357,2.358,10.886,9.072,5.079,9.072c-5.806,0-10.161-8.71-15.241-8.71
				s-13.97-4.535-10.522-1.088c3.446,3.447,15.241,6.896,15.241,6.896s3.991,11.249,1.451,11.249s-0.364-6.895-2.903-6.895
				c-2.54,0-10.524-3.266-15.242-3.266c-4.717,0-8.481,4.717-8.481,7.982c0,3.267,0,12.339,0,15.969
				c0,3.628-6.396,9.071-12.929,9.071c-6.531,0-7.62-15.645-7.62-15.645s11.249-4.314,11.249-7.218s-7.259-11.249-9.798-8.709
				c-2.54,2.539,7.984-4.717,6.169-4.717c-1.814,0,0.363-6.17,0.363-6.17s5.625-4.9,3.63-6.895c-1.996-1.998,0-7.984,0-7.984
				L397.479,703c0,0,5.808,4.718,7.985,4.718s7.121-3.63,7.121-3.63s0.476-5.691,0-6.168c-0.477-0.477-4.58-6.532-4.58-6.532
				s6.689,1.021,4.58-1.089s-5.307-4.354-5.307-4.354s1.997-6.715,0.727-5.444s-1.091,5.806-4.719,5.806s-5.079-5.443-7.257-7.62
				c-2.178-2.178-8.529-5.987-6.169-3.629c2.358,2.358,4.354,6.532,4.354,10.161c0,3.628,9.436,5.08,9.436,10.887
				c0,5.806-2.901,6.533-5.442,3.992s-3.448,6.35-6.17,3.628s-5.442-27.579-11.249-27.579c-5.808,0-2.904-14.152,0.725-14.152
				c3.63,0,11.976-4.355,11.976-1.453s0.363,7.621,1.452,7.621s5.806-1.452,4.718-2.541c-1.089-1.089-2.903-7.619-6.896-11.611
				c-3.992-3.992-12.52-3.811-8.165-8.166c4.355-4.354-1.632-5.262-5.261-5.262c-3.63,0-3.629-2.178-3.629-3.629
				s-2.722-7.802-6.17-4.355c-3.447,3.449-6.168-3.266-11.976-3.266c-5.807,0-13.428-1.451-10.161-4.717
				c3.266-3.266,2.903-5.081-2.541-5.081c-5.442,0-12.34-5.442-15.241-2.54c-2.903,2.902-11.249,1.451-18.145,1.451
				c-6.896,0-15.605,0.727-18.871,3.992c-3.266,3.266-12.7,4.357-16.691,4.357c-3.993,0,4.717-3.629,7.257-3.629
				c2.541,0-3.628-0.727-3.628-2.178c0-1.452,9.798-7.258,11.975-7.258s0.727-5.081,4.718-5.081c3.992,0-1.089,3.63,1.088,3.63
				s6.532-3.267,10.887-3.267C312.562,609.013,329.618,606.108,329.618,606.108z"/>
			<path fill="#FFFFFF" d="M377.758,720.178c0,0-2.177,0.908-2.177,2.36c0,1.45-1.813,0.907-1.813,1.815
				c0,0.906,5.623,1.631,3.99,3.266c-1.632,1.633-3.693,3.446-1.846,3.446c1.846,0,6.201-0.182,6.201-2.722
				S378.446,719.49,377.758,720.178z"/>
			<path fill="#FFFFFF" d="M375.219,711.106c0,0,0.621,0.909,1.27,2.079c0.709,1.278,1.452,2.866,1.452,3.908
				c0,1.996,2.873,3.033,3.342,3.033s6.365,0.688,4.097,2.955c-2.268,2.268-0.419,5.262,0.517,5.262c0.937,0,1.661,0.727,2.387,0
				c0.727-0.725-4.536,4.718-2.903,4.718c1.634,0,8.709-7.466,8.709-7.466s-0.498-2.74-1.27-3.513
				c-0.771-0.77-4.717,0.817-4.717-1.179c0-1.995-3.449-2.54-3.449-2.358c0,0.181-0.726-2.722-2.539-2.722
				c-1.814,0-0.726-5.806-1.814-4.718c-1.089,1.089-2.358-2.358-3.63-1.088"/>
			<path fill="#FFFFFF" d="M344.191,698.586c0,0,2.539,6.533,6.532,6.533c3.992,0,5.442-3.447,5.442-5.807s-1.904-4.809-3.266-3.447
				c-1.36,1.36-1.995,2.539-4.173,2.539S345.008,697.77,344.191,698.586z"/>
			<path fill="#FFFFFF" d="M304.818,672.096c0,0,7.076-2.54,7.076,12.883s1.814,1.452,1.814,5.444c0,3.991-4.748,1.331-4.748,4.748
				s2.571,19.928,5.656,19.928c3.084,0,6.895,0,6.895-4.354c0-4.355,0.906-9.072,4.173-9.072c3.266,0,7.258-4.23,7.258-6.197
				c0-1.968,7.621-2.149,7.621-4.871s-3.447,0.726-4.717-0.545c-1.271-1.271-2.724-4.898-0.364-4.898s3.63,3.629,3.63,3.629
				s-1.453-5.987-2.903-5.987c-1.451,0-0.642-1.996,1.766-1.996s3.042-3.538,1.862-4.718c-1.179-1.179-6.622-2.539-6.622-6.623
				c0-4.082-0.998-8.619-6.441-8.619c-5.444,0-8.166-2.721-10.887,0c-2.722,2.723-0.908,3.993-3.993,3.993s-5.625-0.362-5.625,3.446
				C306.268,672.096,304.818,672.096,304.818,672.096z"/>
			<path fill="#FFFFFF" d="M280.14,694.596c0,0,4.354,2.359,4.354,4.898c0,2.541,3.448,5.625,3.448,5.625s0.907-2.54,1.633-2.54
				c0.727,0,2.359,1.633,2.359,1.633s0-1.995,0-5.262c0-3.266,3.084-4.354,3.084-4.354s-1.815,3.811,0,3.811
				s5.443-1.814,5.443-1.814s-5.262-2.178-5.262-4.9c0-2.721,2.178-3.266,2.178-3.266s1.633-2.902-0.182-4.717
				c-1.815-1.815-3.267-1.088-3.267-5.262s0.364-6.17-2.54-6.17s-5.08,5.081-6.532,6.532c-1.452,1.452,0.725,0.908,0.725,3.448
				C285.583,684.797,280.14,694.596,280.14,694.596z"/>
			<path fill="#FFFFFF" d="M291.754,664.113c0,0-1.905,3.9,0,5.805c1.905,1.906,3.085,2.359,4.899,2.359
				c1.814,0-2.54-3.75-2.873-4.082C293.447,667.862,291.754,664.113,291.754,664.113z"/>
		</g>
	</g>
</g>
<g id="Layer_1">
	<g>
		<g>
			<g>
				<polygon opacity="0.03" points="237.315,684.902 226.839,687.09 195.514,711.028 				"/>
				<polygon fill="#65BC46" points="188.459,677.658 231.939,700.778 233.663,749.982 191.901,776.084 148.426,752.975 
					146.698,703.76 				"/>
				<polygon opacity="0.07" points="221.34,707.395 179.945,682.979 188.459,677.658 231.939,700.778 				"/>
				<polygon opacity="0.12" fill="#FFFFFF" points="233.663,749.982 223.188,752.168 221.34,707.395 231.939,700.778 				"/>
				<polygon opacity="0.03" points="233.663,749.982 223.188,752.168 191.901,776.084 				"/>
				<polygon fill="#65BC46" points="233.663,749.982 231.939,700.778 274.756,669.833 				"/>
				<polygon opacity="0.12" fill="#FFFFFF" points="233.663,749.982 231.939,700.778 274.756,669.833 				"/>
				<polygon fill="#65BC46" points="188.459,677.658 274.756,669.833 231.939,700.778 				"/>
				<polygon opacity="0.07" points="188.459,677.658 274.756,669.833 231.939,700.778 				"/>
			</g>
			<g>
				<polyline fill="#DE5D83" points="416.543,703.756 333.027,629.785 374.67,631.218 				"/>
				<polygon fill="#DE5D83" points="399.82,689.232 366.332,631.219 399.82,573.213 466.806,573.213 500.299,631.219 
					466.806,689.232 				"/>
				<polygon opacity="0.07" points="383.33,631.219 413.472,689.232 399.82,689.232 366.332,631.219 				"/>
				<polygon opacity="0.12" fill="#FFFFFF" points="399.82,573.213 413.472,578.235 383.33,631.219 366.332,631.219 				"/>
				<polygon opacity="0.03" points="399.82,573.213 413.472,578.235 466.806,573.213 				"/>
				<polygon fill="#DE5D83" points="399.82,573.213 366.332,631.219 333.027,630.073 				"/>
				<polygon opacity="0.12" fill="#FFFFFF" points="399.82,573.201 366.332,631.207 333.027,630.062 				"/>
				<polygon opacity="0.07" points="333.027,630.073 366.332,631.219 399.82,689.232 				"/>
			</g>
			<polygon opacity="0.03" points="233.837,576.965 222.353,581.193 177.518,576.965 			"/>
			<g>
				<polygon fill="#ED3794" points="227.837,577.965 316.267,630.785 255.988,626.728 				"/>
				<polygon fill="#ED3794" points="227.837,675.5 316.267,630.785 255.988,626.728 				"/>
				<polygon opacity="0.03" points="270.823,638.864 259.339,643.093 214.451,638.864 				"/>
				<polygon fill="#ED3794" points="227.837,675.5 255.988,626.728 227.837,577.965 171.518,577.965 143.362,626.728 171.518,675.5 
									"/>
				<polygon opacity="0.07" points="241.7,626.735 216.353,675.5 227.837,675.5 255.988,626.728 				"/>
				<polygon opacity="0.12" fill="#FFFFFF" points="227.837,577.965 216.353,582.193 241.7,626.735 255.988,626.728 				"/>
				<g opacity="0.9">
					<polygon opacity="0.11" fill="#FFFFFF" points="227.837,577.965 255.988,626.728 316.267,630.785 					"/>
					<polygon opacity="0.07" points="227.837,675.5 316.267,630.785 255.988,626.728 					"/>
				</g>
			</g>
			<g>
				<polygon opacity="0.02" points="332.819,651.029 356.912,685.027 324.581,762.291 				"/>
				<polygon fill="#FBEE29" points="309.376,750.61 353.465,679.397 437.174,681.965 476.808,755.75 432.728,826.965 
					349.01,824.396 				"/>
				<polygon fill="#FBEE29" points="437.285,682.558 353.576,679.989 335.133,642.625 				"/>
				<polygon opacity="0.03" points="437.285,682.558 353.576,679.989 335.133,642.625 				"/>
				<polygon fill="#FBEE29" points="335.133,642.625 353.576,679.989 309.489,751.202 				"/>
				<polygon opacity="0.02" points="353.576,679.989 363.634,698.714 445.966,698.714 437.285,682.558 				"/>
				<polyline opacity="0.1" fill="none" stroke="#FFFFFF" stroke-width="6" stroke-miterlimit="10" points="349.01,824.396 
					317.68,766.068 363.634,698.714 				"/>
				<g>
					<polygon opacity="0.08" fill="#FFFFFF" points="363.634,698.714 317.564,766.237 309.489,751.202 353.576,679.989 					"/>
					<polygon opacity="0.11" fill="#FFFFFF" points="335.133,642.625 353.576,679.989 309.489,751.202 					"/>
				</g>
			</g>
			<g>
				<polygon fill="#F6851F" points="303.348,754.663 330.816,707.086 303.348,659.508 248.407,659.508 220.938,707.086 
					248.407,754.663 				"/>
				<polygon fill="#F6851F" points="330.816,707.086 327.017,636.085 303.348,659.508 				"/>
				<polygon opacity="0.07" points="330.816,707.086 327.017,636.085 303.348,659.508 				"/>
				<polygon fill="#F6851F" points="248.407,659.508 327.017,636.085 303.348,659.508 				"/>
				<polygon opacity="0.03" points="248.407,659.508 327.017,636.085 303.348,659.508 				"/>
			</g>
			<g>
				<polygon fill="#EE3255" points="308.943,543.36 305.143,614.361 281.474,590.938 				"/>
				<polygon fill="#EE3255" points="226.534,590.938 305.143,614.361 281.474,590.938 				"/>
				<g>
					<polygon fill="#EE3255" points="281.474,495.783 308.943,543.36 281.474,590.938 226.534,590.938 199.066,543.36 
						226.534,495.783 					"/>
					<polygon opacity="0.03" points="308.943,543.36 305.143,614.361 281.474,590.938 					"/>
					<polygon opacity="0.07" points="226.534,590.938 305.143,614.361 281.474,590.938 					"/>
				</g>
			</g>
			<g>
				<polygon fill="#79CDCB" points="379.108,567.105 326.135,588.105 273.166,567.105 273.166,525.102 326.135,504.1 
					379.108,525.102 				"/>
				<polygon fill="#79CDCB" points="273.166,567.105 326.137,624.982 326.135,588.105 				"/>
				<polygon opacity="0.03" points="273.166,567.994 326.137,625.871 326.135,588.994 				"/>
				<polygon fill="#79CDCB" points="379.108,567.105 326.137,624.982 326.135,588.105 				"/>
				<polygon opacity="0.07" points="379.108,567.105 326.137,624.982 326.135,588.105 				"/>
			</g>
			<g>
				<polygon opacity="0.02" points="346.268,610.524 360.624,600.717 359.179,565.8 				"/>
				<polygon fill="#A25BA4" points="351.536,568.165 358.458,602.42 391.581,613.555 417.786,590.435 410.868,556.181 
					377.742,545.046 				"/>
				<polygon fill="#A25BA4" points="391.71,613.339 358.589,602.203 345.955,614.148 				"/>
				<polygon opacity="0.12" points="391.71,613.339 358.589,602.203 345.955,614.148 				"/>
				<polygon fill="#A25BA4" points="345.955,614.148 358.589,602.203 351.667,567.949 				"/>
				<polygon opacity="0.12" points="358.589,602.203 365.238,596.338 397.448,608.277 391.71,613.339 				"/>
				<polygon opacity="0.07" points="365.238,596.338 357.006,563.238 351.667,567.949 358.589,602.203 				"/>
				<polygon opacity="0.09" points="345.955,614.148 358.589,602.203 351.667,567.949 				"/>
			</g>
		</g>
		
			<text transform="matrix(1 0 0 1 214.0962 191.604)" fill="#C1C1C0" font-family="'CenturyGothic'" font-size="60" letter-spacing="12">Vibes</text>
		<g>
			<text transform="matrix(1 0 0 1 181 340)" fill="#C1C1C0" font-family="'CenturyGothic'" font-size="24" letter-spacing="4">Emotion-mapping</text>
		</g>
	</g>
</g>
<g id="Layer_2" display="none">
	<g display="inline">
		<polygon fill="#DE5D83" points="-55.628,220.046 -83.493,243.767 -69.599,244.246 		"/>
		<polyline fill="#DE5D83" points="-55.628,268.447 -83.493,243.767 -69.599,244.246 		"/>
		<polygon fill="#ED3794" points="-116.588,226.144 -87.083,243.767 -107.195,242.413 		"/>
		<polygon fill="#ED3794" points="-116.588,258.687 -87.083,243.767 -107.195,242.413 		"/>
		<g>
			<g>
				<polygon opacity="0.03" points="-113.426,259.821 -116.921,260.552 -127.373,268.539 				"/>
				<polygon fill="#65BC46" points="-129.727,257.404 -115.22,265.119 -114.644,281.536 -128.579,290.245 -143.084,282.535 
					-143.661,266.114 				"/>
				<polygon opacity="0.07" points="-118.755,267.326 -132.568,259.18 -129.727,257.404 -115.22,265.119 				"/>
				<polygon opacity="0.12" fill="#FFFFFF" points="-114.644,281.536 -118.14,282.266 -118.755,267.326 -115.22,265.119 				"/>
				<polygon opacity="0.03" points="-114.644,281.536 -118.14,282.266 -128.579,290.245 				"/>
				<polygon fill="#65BC46" points="-114.644,281.536 -115.22,265.119 -100.934,254.793 				"/>
				<polygon opacity="0.12" fill="#FFFFFF" points="-114.644,281.536 -115.22,265.119 -100.934,254.793 				"/>
				<polygon fill="#65BC46" points="-129.727,257.404 -100.934,254.793 -115.22,265.119 				"/>
				<polygon opacity="0.07" points="-129.727,257.404 -100.934,254.793 -115.22,265.119 				"/>
			</g>
			<polygon opacity="0.03" points="-102.246,246.463 -106.077,247.874 -121.054,246.463 			"/>
			<g>
				<polygon fill="#DE5D83" points="-55.628,268.447 -69.599,244.246 -55.628,220.046 -27.682,220.046 -13.71,244.246 
					-27.682,268.447 				"/>
				<polygon opacity="0.07" points="-62.508,244.246 -49.933,268.447 -55.628,268.447 -69.599,244.246 				"/>
				<polygon opacity="0.12" fill="#FFFFFF" points="-55.628,220.046 -49.933,222.141 -62.508,244.246 -69.599,244.246 				"/>
				<polygon opacity="0.03" points="-55.628,220.046 -49.933,222.141 -27.682,220.046 				"/>
				<polygon opacity="0.12" fill="#FFFFFF" points="-55.628,220.046 -69.599,244.246 -83.493,243.767 				"/>
				<polygon opacity="0.07" points="-83.493,243.767 -69.599,244.246 -55.628,268.447 				"/>
			</g>
			<polygon fill="#ED3794" points="-116.588,258.687 -107.195,242.413 -116.588,226.144 -135.38,226.144 -144.773,242.413 
				-135.38,258.687 			"/>
			<polygon opacity="0.07" points="-111.963,242.417 -120.42,258.687 -116.588,258.687 -107.195,242.413 			"/>
			<polygon opacity="0.12" fill="#FFFFFF" points="-116.588,226.144 -120.42,227.554 -111.963,242.417 -107.195,242.413 			"/>
			<polygon opacity="0.03" points="-116.588,226.144 -120.42,227.554 -135.38,226.144 			"/>
			<g opacity="0.9">
				<polygon opacity="0.11" fill="#FFFFFF" points="-116.588,226.144 -107.195,242.413 -87.083,243.767 				"/>
				<polygon opacity="0.07" points="-116.588,258.687 -87.083,243.767 -107.195,242.413 				"/>
			</g>
			<g>
				<polygon opacity="0.02" points="-85.23,247.185 -77.192,258.528 -87.98,284.308 				"/>
				<polygon fill="#FBEE29" points="-93.053,280.411 -78.343,256.65 -50.413,257.507 -37.189,282.126 -51.896,305.887 
					-79.83,305.029 				"/>
				<polygon fill="#FBEE29" points="-50.375,257.705 -78.306,256.849 -84.458,244.38 				"/>
				<polygon opacity="0.03" points="-50.375,257.705 -78.306,256.849 -84.458,244.38 				"/>
				<polygon fill="#FBEE29" points="-84.458,244.38 -78.306,256.849 -93.016,280.608 				"/>
				<polygon opacity="0.02" points="-78.306,256.849 -74.95,263.095 -47.48,263.095 -50.375,257.705 				"/>
				<polyline opacity="0.1" fill="none" stroke="#FFFFFF" stroke-width="6" stroke-miterlimit="10" points="-79.83,305.029 
					-90.282,285.569 -74.95,263.095 				"/>
				<g>
					<polygon opacity="0.08" fill="#FFFFFF" points="-74.95,263.095 -90.321,285.625 -93.016,280.608 -78.306,256.849 					"/>
					<polygon opacity="0.11" fill="#FFFFFF" points="-84.458,244.38 -78.306,256.849 -93.016,280.608 					"/>
				</g>
			</g>
			<g>
				<polygon fill="#F6851F" points="-93.396,283.764 -84.231,267.891 -93.396,252.016 -111.727,252.016 -120.892,267.891 
					-111.727,283.764 				"/>
				<polygon fill="#F6851F" points="-84.231,267.891 -85.499,244.201 -93.396,252.016 				"/>
				<polygon opacity="0.07" points="-84.231,267.891 -85.499,244.201 -93.396,252.016 				"/>
				<polygon fill="#F6851F" points="-111.727,252.016 -85.499,244.201 -93.396,252.016 				"/>
				<polygon opacity="0.03" points="-111.727,252.016 -85.499,244.201 -93.396,252.016 				"/>
			</g>
			<g>
				<polygon fill="#EE3255" points="-91.529,214.932 -92.797,238.621 -100.693,230.805 				"/>
				<polygon fill="#EE3255" points="-119.025,230.805 -92.797,238.621 -100.693,230.805 				"/>
				<g>
					<polygon fill="#EE3255" points="-100.693,199.057 -91.529,214.932 -100.693,230.805 -119.025,230.805 -128.189,214.932 
						-119.025,199.057 					"/>
					<polygon opacity="0.03" points="-91.529,214.932 -92.797,238.621 -100.693,230.805 					"/>
					<polygon opacity="0.07" points="-119.025,230.805 -92.797,238.621 -100.693,230.805 					"/>
				</g>
			</g>
			<g>
				<polygon fill="#79CDCB" points="-68.883,225.146 -84.792,231.453 -100.7,225.146 -100.7,212.531 -84.792,206.225 
					-68.883,212.531 				"/>
				<polygon fill="#79CDCB" points="-100.7,225.146 -84.792,242.527 -84.792,231.453 				"/>
				<polygon opacity="0.03" points="-100.7,225.413 -84.792,242.795 -84.792,231.721 				"/>
				<polygon fill="#79CDCB" points="-68.883,225.146 -84.792,242.527 -84.792,231.453 				"/>
				<polygon opacity="0.07" points="-68.883,225.146 -84.792,242.527 -84.792,231.453 				"/>
			</g>
			<g>
				<polygon opacity="0.02" points="-79.076,237.341 -74.285,234.069 -74.768,222.419 				"/>
				<polygon fill="#A25BA4" points="-77.318,223.207 -75.008,234.636 -63.957,238.353 -55.213,230.638 -57.521,219.209 
					-68.574,215.494 				"/>
				<polygon fill="#A25BA4" points="-63.914,238.28 -74.965,234.565 -79.18,238.549 				"/>
				<polygon opacity="0.12" points="-63.914,238.28 -74.965,234.565 -79.18,238.549 				"/>
				<polygon fill="#A25BA4" points="-79.18,238.549 -74.965,234.565 -77.274,223.136 				"/>
				<polygon opacity="0.12" points="-74.965,234.565 -72.746,232.607 -62,236.592 -63.914,238.28 				"/>
				<polygon opacity="0.07" points="-72.746,232.607 -75.492,221.563 -77.274,223.136 -74.965,234.565 				"/>
				<polygon opacity="0.09" points="-79.18,238.549 -74.965,234.565 -77.274,223.136 				"/>
			</g>
		</g>
	</g>
	<path fill="none" stroke="#000000" stroke-miterlimit="10" d="M218.408,482.071c39.901-42.99,106.976-45.49,149.965-5.589"/>
	<g display="inline">
		<g>
			<g>
				<polygon fill="#EE3255" points="165.619,637.302 187.009,626.287 179.367,649.101 150.337,682.926 128.948,693.943 
					136.589,671.131 				"/>
				<polyline fill="#EE3255" points="179.367,649.101 239.358,721.604 232.081,727.314 150.337,682.926 				"/>
				<polyline opacity="0.02" points="179.367,649.101 239.358,721.604 232.081,727.314 150.337,682.926 				"/>
				<polygon fill="#EE3255" points="187.009,626.287 179.367,649.101 239.358,721.604 				"/>
				<polygon opacity="0.05" fill="#FFFFFF" points="187.009,626.287 179.367,649.101 239.358,721.604 				"/>
				<polygon fill="#EE3255" points="150.337,682.926 232.081,727.314 128.948,693.943 				"/>
				<polygon opacity="0.05" points="150.337,682.926 232.081,727.314 128.948,693.943 				"/>
			</g>
			<polygon fill="#F6851F" points="166.65,604.326 248.312,715.238 255.801,710.971 212.165,584.5 			"/>
			<polygon opacity="0.02" points="166.65,604.326 248.312,715.238 255.801,710.971 212.165,584.5 			"/>
			<polygon fill="#F6851F" points="169.021,603.822 145.368,608.836 164.858,594.526 208.002,575.204 231.654,570.189 
				212.165,584.5 			"/>
			<polygon fill="#F6851F" points="212.165,584.5 231.654,570.189 255.801,710.971 			"/>
			<polygon opacity="0.05" fill="#FFFFFF" points="212.165,584.5 231.654,570.189 255.801,710.971 			"/>
			<polygon fill="#F6851F" points="145.368,608.836 169.021,603.822 249.22,714.699 248.312,715.238 			"/>
			<polygon opacity="0.05" points="145.368,608.836 169.021,603.822 249.22,714.699 248.312,715.238 			"/>
			<g>
				<polygon fill="#ED3794" points="203.14,552.319 170.941,550.023 201.228,538.854 263.716,529.979 295.915,532.275 
					265.628,543.443 				"/>
				<polygon fill="#ED3794" points="203.14,552.319 265.628,543.443 278.198,700.789 270.711,702.573 				"/>
				<polygon opacity="0.02" points="203.14,552.319 265.628,543.443 278.198,700.789 270.711,702.573 				"/>
				<polygon fill="#ED3794" points="170.941,550.023 270.711,702.573 203.14,552.319 				"/>
				<polygon opacity="0.05" points="170.941,550.023 270.711,702.573 203.14,552.319 				"/>
				<polygon fill="#ED3794" points="295.915,532.275 278.198,700.789 265.628,543.443 				"/>
				<polygon opacity="0.05" fill="#FFFFFF" points="295.915,532.275 278.198,700.789 265.628,543.443 				"/>
			</g>
			<g>
				<polygon fill="#79CDCB" points="278.529,644.938 254,636.441 279.851,634.084 330.233,640.222 354.761,648.717 328.91,651.075 
									"/>
				<polygon fill="#79CDCB" points="278.529,644.938 298.021,694.783 309.211,694.045 328.91,651.075 				"/>
				<polygon opacity="0.02" points="278.529,644.938 298.021,694.783 309.211,694.045 328.91,651.075 				"/>
				<polygon fill="#79CDCB" points="354.761,648.717 309.211,694.045 328.91,651.075 				"/>
				<polygon opacity="0.05" fill="#FFFFFF" points="354.761,648.717 309.211,694.045 328.91,651.075 				"/>
				<polygon fill="#79CDCB" points="254,636.441 298.021,694.783 278.529,644.938 				"/>
				<polygon opacity="0.05" points="254,636.441 298.021,694.783 278.529,644.938 				"/>
			</g>
			<g>
				<polygon fill="#65BC46" points="332.112,603.119 307.48,591.831 334.576,591.975 386.301,603.406 410.931,614.695 
					383.836,614.553 				"/>
				<polygon fill="#65BC46" points="332.112,603.119 339.325,692.217 351.995,695.89 383.836,614.553 				"/>
				<polygon opacity="0.02" points="332.112,603.119 339.325,692.217 351.995,695.89 383.836,614.553 				"/>
				<polygon fill="#65BC46" points="307.48,591.831 339.325,692.217 332.112,603.119 				"/>
				<polygon opacity="0.05" fill="#FFFFFF" points="307.48,591.831 339.325,692.217 332.112,603.119 				"/>
				<polygon fill="#65BC46" points="410.931,614.695 351.995,695.89 383.836,614.553 				"/>
				<polygon opacity="0.04" points="410.931,614.695 351.995,695.89 383.836,614.553 				"/>
			</g>
			<g>
				<polygon fill="#DE5D83" points="464.46,632.508 442.056,617.549 447.674,643.895 475.693,685.198 498.097,700.156 
					492.481,673.811 				"/>
				<polygon fill="#DE5D83" points="447.674,643.895 401.263,721.127 405.047,726.361 475.693,685.198 				"/>
				<polygon opacity="0.02" points="447.674,643.895 401.263,721.127 405.047,726.361 475.693,685.198 				"/>
				<polygon fill="#DE5D83" points="498.097,700.156 405.047,726.361 475.693,685.198 				"/>
				<polygon opacity="0.04" points="498.097,700.156 405.047,726.361 475.693,685.198 				"/>
				<polygon fill="#DE5D83" points="442.338,619.117 401.263,721.127 447.674,643.895 				"/>
				<polygon opacity="0.05" fill="#FFFFFF" points="442.338,619.117 401.263,721.127 447.674,643.895 				"/>
			</g>
			<g>
				<polygon fill="#FBEE29" points="414.472,541.657 386.365,516.904 422.171,527.885 486.089,563.62 514.198,588.374 
					478.387,577.392 				"/>
				<polygon fill="#FBEE29" points="414.472,541.657 375.483,703.398 384.438,709.051 478.387,577.392 				"/>
				<polygon opacity="0.02" points="414.472,541.657 375.483,703.398 384.438,709.051 478.387,577.392 				"/>
				<polygon fill="#FBEE29" points="386.365,516.904 375.483,703.398 414.472,541.657 				"/>
				<polygon opacity="0.05" fill="#FFFFFF" points="386.365,516.904 375.483,703.398 414.472,541.657 				"/>
				<polygon fill="#FBEE29" points="514.198,588.374 384.438,709.051 478.387,577.392 				"/>
				<polygon opacity="0.04" points="514.161,588.69 384.398,709.365 478.351,577.708 				"/>
			</g>
		</g>
		
			<text transform="matrix(1 0 0 1 213.0962 220.604)" fill="#C1C1C0" font-family="'CenturyGothic'" font-size="60" letter-spacing="12">Vibes</text>
		<g>
			<text transform="matrix(1 0 0 1 180 349)" fill="#C1C1C0" font-family="'CenturyGothic'" font-size="24" letter-spacing="4">Emotion-mapping</text>
		</g>
	</g>
</g>
<g id="Layer_4" display="none">
	<g id="Layer_5" display="inline">
	</g>
	<g display="inline">
		
			<text transform="matrix(1 0 0 1 214.0962 256.604)" fill="#C1C1C0" font-family="'CenturyGothic'" font-size="60" letter-spacing="12">Vibes</text>
		<g>
			<text transform="matrix(1 0 0 1 181 385)" fill="#C1C1C0" font-family="'CenturyGothic'" font-size="24" letter-spacing="4">Emotion-mapping</text>
		</g>
		<g>
			<polygon opacity="0.8" fill="#DE5D83" points="178.321,620.245 154.667,579.275 178.321,538.305 225.63,538.305 249.284,579.275 
				225.63,620.245 			"/>
			<polygon opacity="0.8" fill="#A25BA4" points="201.718,596.896 178.065,555.927 201.718,514.956 249.028,514.956 
				272.681,555.927 249.028,596.896 			"/>
			<polygon opacity="0.8" fill="#79CDCB" points="243.069,620.245 219.416,579.275 243.069,538.305 290.379,538.305 
				314.031,579.275 290.379,620.245 			"/>
			<polygon opacity="0.8" fill="#F6851F" points="273.486,596.896 249.833,555.927 273.486,514.956 320.795,514.956 
				344.448,555.927 320.795,596.896 			"/>
			<polygon opacity="0.8" fill="#ED3794" points="308.812,620.245 285.16,579.275 308.812,538.305 356.123,538.305 379.776,579.275 
				356.123,620.245 			"/>
			<polygon opacity="0.8" fill="#65BC46" points="344.178,596.896 320.524,555.927 344.178,514.956 391.487,514.956 
				415.141,555.927 391.487,596.896 			"/>
			<polygon opacity="0.8" fill="#EE3255" points="384.732,621.045 361.079,580.075 384.732,539.104 432.043,539.104 
				455.696,580.075 432.043,621.045 			"/>
			<polygon opacity="0.8" fill="#FBEE29" points="414.369,596.896 390.716,555.927 414.369,514.956 461.68,514.956 485.333,555.927 
				461.68,596.896 			"/>
		</g>
		<g>
			<polyline fill="none" stroke="#FFFFFF" stroke-width="2" stroke-miterlimit="10" points="158.821,557.592 170.52,557.072 
				170.52,569.811 175.471,569.811 175.471,577.611 187.585,577.611 187.585,550.152 201.314,550.152 201.314,594.975 
				211.41,594.975 211.41,607.493 219.525,607.493 219.525,571.553 228.235,571.553 228.235,591.475 235.908,591.475 
				235.908,598.608 244.657,598.608 244.657,557.555 255.291,543.286 262.963,556.746 262.963,588.244 272.789,588.379 
				272.789,576.399 278.039,576.399 278.039,601.301 286.318,601.301 286.318,594.84 301.208,594.975 301.208,606.282 
				307.519,606.282 307.519,564.285 318.623,564.285 318.623,579.227 321.854,579.227 321.854,543.286 334.035,543.286 
				334.035,559.843 338.611,559.843 338.611,589.994 346.42,589.725 346.42,602.916 350.254,602.919 350.254,584.582 
				357.299,584.582 357.299,564.563 364.019,556.445 369.198,564.424 369.198,584.722 373.258,584.722 373.258,599.314 
				381.703,599.314 381.703,605.066 389.356,604.879 389.356,592.935 407.834,592.935 407.834,598.72 415.531,598.674 
				415.531,574.083 425.005,574.083 425.005,555.419 437.51,555.465 437.51,583.199 442.969,583.199 442.969,543.286 
				453.107,543.286 453.107,588.658 457.787,588.658 457.787,525.485 465.196,525.485 465.196,562.922 472.605,562.922 
				472.605,569.161 483.524,569.161 			"/>
		</g>
	</g>
	<g display="inline">
		<polygon fill="#DE5D83" points="-216.253,340.843 -267.569,384.526 -241.981,385.407 		"/>
		<polyline fill="#DE5D83" points="-216.253,429.976 -267.569,384.526 -241.981,385.407 		"/>
		<polygon fill="#ED3794" points="-328.514,352.073 -274.18,384.526 -311.217,382.033 		"/>
		<polygon fill="#ED3794" points="-328.514,412.001 -274.18,384.526 -311.217,382.033 		"/>
		<g>
			<g>
				<polygon opacity="0.03" points="-322.69,414.091 -329.127,415.436 -348.373,430.144 				"/>
				<polygon fill="#65BC46" points="-352.708,409.64 -325.993,423.846 -324.934,454.078 -350.594,470.115 -377.306,455.917 
					-378.368,425.677 				"/>
				<polygon opacity="0.07" points="-332.506,427.91 -357.939,412.909 -352.708,409.64 -325.993,423.846 				"/>
				<polygon opacity="0.12" fill="#FFFFFF" points="-324.934,454.078 -331.37,455.421 -332.506,427.91 -325.993,423.846 				"/>
				<polygon opacity="0.03" points="-324.934,454.078 -331.37,455.421 -350.594,470.115 				"/>
				<polygon fill="#65BC46" points="-324.934,454.078 -325.993,423.846 -299.686,404.832 				"/>
				<polygon opacity="0.12" fill="#FFFFFF" points="-324.934,454.078 -325.993,423.846 -299.686,404.832 				"/>
				<polygon fill="#65BC46" points="-352.708,409.64 -299.686,404.832 -325.993,423.846 				"/>
				<polygon opacity="0.07" points="-352.708,409.64 -299.686,404.832 -325.993,423.846 				"/>
			</g>
			<polygon opacity="0.03" points="-302.102,389.491 -309.158,392.088 -336.738,389.491 			"/>
			<g>
				<polygon fill="#DE5D83" points="-216.253,429.976 -241.981,385.407 -216.253,340.843 -164.792,340.843 -139.062,385.407 
					-164.792,429.976 				"/>
				<polygon opacity="0.07" points="-228.923,385.407 -205.768,429.976 -216.253,429.976 -241.981,385.407 				"/>
				<polygon opacity="0.12" fill="#FFFFFF" points="-216.253,340.843 -205.768,344.702 -228.923,385.407 -241.981,385.407 				"/>
				<polygon opacity="0.03" points="-216.253,340.843 -205.768,344.702 -164.792,340.843 				"/>
				<polygon opacity="0.12" fill="#FFFFFF" points="-216.253,340.843 -241.981,385.407 -267.569,384.526 				"/>
				<polygon opacity="0.07" points="-267.569,384.526 -241.981,385.407 -216.253,429.976 				"/>
			</g>
			<polygon fill="#ED3794" points="-328.514,412.001 -311.217,382.033 -328.514,352.073 -363.118,352.073 -380.417,382.033 
				-363.118,412.001 			"/>
			<polygon opacity="0.07" points="-319.996,382.039 -335.569,412.001 -328.514,412.001 -311.217,382.033 			"/>
			<polygon opacity="0.12" fill="#FFFFFF" points="-328.514,352.073 -335.569,354.67 -319.996,382.039 -311.217,382.033 			"/>
			<polygon opacity="0.03" points="-328.514,352.073 -335.569,354.67 -363.118,352.073 			"/>
			<g opacity="0.9">
				<polygon opacity="0.11" fill="#FFFFFF" points="-328.514,352.073 -311.217,382.033 -274.18,384.526 				"/>
				<polygon opacity="0.07" points="-328.514,412.001 -274.18,384.526 -311.217,382.033 				"/>
			</g>
			<g>
				<polygon opacity="0.02" points="-270.768,390.821 -255.965,411.71 -275.83,459.183 				"/>
				<polygon fill="#FBEE29" points="-285.172,452.006 -258.083,408.251 -206.65,409.829 -182.298,455.164 -209.382,498.92 
					-260.821,497.341 				"/>
				<polygon fill="#FBEE29" points="-206.581,410.192 -258.014,408.615 -269.347,385.657 				"/>
				<polygon opacity="0.03" points="-206.581,410.192 -258.014,408.615 -269.347,385.657 				"/>
				<polygon fill="#FBEE29" points="-269.347,385.657 -258.014,408.615 -285.103,452.37 				"/>
				<polygon opacity="0.02" points="-258.014,408.615 -251.834,420.119 -201.249,420.119 -206.581,410.192 				"/>
				<polyline opacity="0.1" fill="none" stroke="#FFFFFF" stroke-width="6" stroke-miterlimit="10" points="-260.821,497.341 
					-280.071,461.504 -251.834,420.119 				"/>
				<g>
					<polygon opacity="0.08" fill="#FFFFFF" points="-251.834,420.119 -280.141,461.607 -285.103,452.37 -258.014,408.615 					"/>
					<polygon opacity="0.11" fill="#FFFFFF" points="-269.347,385.657 -258.014,408.615 -285.103,452.37 					"/>
				</g>
			</g>
			<g>
				<polygon fill="#F6851F" points="-285.804,458.183 -268.927,428.95 -285.804,399.717 -319.561,399.717 -336.438,428.95 
					-319.561,458.183 				"/>
				<polygon fill="#F6851F" points="-268.927,428.95 -271.262,385.325 -285.804,399.717 				"/>
				<polygon opacity="0.07" points="-268.927,428.95 -271.262,385.325 -285.804,399.717 				"/>
				<polygon fill="#F6851F" points="-319.561,399.717 -271.262,385.325 -285.804,399.717 				"/>
				<polygon opacity="0.03" points="-319.561,399.717 -271.262,385.325 -285.804,399.717 				"/>
			</g>
			<g>
				<polygon fill="#EE3255" points="-282.367,331.424 -284.702,375.049 -299.244,360.657 				"/>
				<polygon fill="#EE3255" points="-333.001,360.657 -284.702,375.049 -299.244,360.657 				"/>
				<g>
					<polygon fill="#EE3255" points="-299.244,302.192 -282.367,331.424 -299.244,360.657 -333.001,360.657 -349.878,331.424 
						-333.001,302.192 					"/>
					<polygon opacity="0.03" points="-282.367,331.424 -284.702,375.049 -299.244,360.657 					"/>
					<polygon opacity="0.07" points="-333.001,360.657 -284.702,375.049 -299.244,360.657 					"/>
				</g>
			</g>
			<g>
				<polygon fill="#79CDCB" points="-240.664,350.236 -269.96,361.85 -299.254,350.236 -299.254,327.006 -269.96,315.391 
					-240.664,327.006 				"/>
				<polygon fill="#79CDCB" points="-299.254,350.236 -269.959,382.244 -269.96,361.85 				"/>
				<polygon opacity="0.03" points="-299.254,350.728 -269.959,382.736 -269.96,362.341 				"/>
				<polygon fill="#79CDCB" points="-240.664,350.236 -269.959,382.244 -269.96,361.85 				"/>
				<polygon opacity="0.07" points="-240.664,350.236 -269.959,382.244 -269.96,361.85 				"/>
			</g>
			<g>
				<polygon opacity="0.02" points="-259.433,372.692 -250.612,366.667 -251.5,345.212 				"/>
				<polygon fill="#A25BA4" points="-256.196,346.666 -251.943,367.712 -231.591,374.554 -215.49,360.349 -219.741,339.302 
					-240.094,332.46 				"/>
				<polygon fill="#A25BA4" points="-231.512,374.422 -251.863,367.58 -259.626,374.918 				"/>
				<polygon opacity="0.12" points="-231.512,374.422 -251.863,367.58 -259.626,374.918 				"/>
				<polygon fill="#A25BA4" points="-259.626,374.918 -251.863,367.58 -256.116,346.533 				"/>
				<polygon opacity="0.12" points="-251.863,367.58 -247.777,363.976 -227.986,371.312 -231.512,374.422 				"/>
				<polygon opacity="0.07" points="-247.777,363.976 -252.835,343.638 -256.116,346.533 -251.863,367.58 				"/>
				<polygon opacity="0.09" points="-259.626,374.918 -251.863,367.58 -256.116,346.533 				"/>
			</g>
		</g>
	</g>
</g>
<g id="Layer_6" display="none">
	<g display="inline">
		<polyline fill="none" stroke="#ABABAB" stroke-width="2" stroke-miterlimit="10" points="169.051,736.504 180.75,735.984 
			180.75,748.723 185.701,748.723 185.701,756.523 197.816,756.523 197.816,729.064 211.545,729.064 211.545,773.887 
			221.641,773.887 221.641,786.406 229.756,786.406 229.756,750.465 238.466,750.465 238.466,770.387 246.138,770.387 
			246.138,777.521 254.887,777.521 254.887,736.467 265.521,722.199 273.193,735.658 273.193,767.156 283.02,767.291 
			283.02,755.312 288.27,755.312 288.27,780.213 296.549,780.213 296.549,773.752 311.439,773.887 311.439,785.195 317.749,785.195 
			317.749,743.197 328.854,743.197 328.854,758.139 332.084,758.139 332.084,722.199 344.266,722.199 344.266,738.756 
			348.842,738.756 348.842,768.906 356.65,768.637 356.65,781.828 360.484,781.832 360.484,763.494 367.529,763.494 
			367.529,743.477 374.249,735.357 379.429,743.336 379.429,763.635 383.488,763.635 383.488,778.227 391.934,778.227 
			391.934,783.979 399.587,783.791 399.587,771.848 418.064,771.848 418.064,777.633 425.762,777.586 425.762,752.996 
			435.235,752.996 435.235,734.332 447.74,734.377 447.74,762.111 453.199,762.111 453.199,722.199 463.338,722.199 463.338,767.57 
			468.018,767.57 468.018,704.398 475.427,704.398 475.427,741.834 482.836,741.834 482.836,748.074 493.755,748.074 		"/>
	</g>
	<g display="inline">
		<g>
			<polygon fill="#EE3255" points="178.619,621.302 200.009,610.287 192.367,633.101 163.337,666.926 141.948,677.943 
				149.589,655.131 			"/>
			<polyline fill="#EE3255" points="192.367,633.101 252.358,705.604 245.081,711.314 163.337,666.926 			"/>
			<polyline opacity="0.02" points="192.367,633.101 252.358,705.604 245.081,711.314 163.337,666.926 			"/>
			<polygon fill="#EE3255" points="200.009,610.287 192.367,633.101 252.358,705.604 			"/>
			<polygon opacity="0.05" fill="#FFFFFF" points="200.009,610.287 192.367,633.101 252.358,705.604 			"/>
			<polygon fill="#EE3255" points="163.337,666.926 245.081,711.314 141.948,677.943 			"/>
			<polygon opacity="0.05" points="163.337,666.926 245.081,711.314 141.948,677.943 			"/>
		</g>
		<polygon fill="#F6851F" points="179.65,588.326 261.312,699.238 268.801,694.971 225.165,568.5 		"/>
		<polygon opacity="0.02" points="179.65,588.326 261.312,699.238 268.801,694.971 225.165,568.5 		"/>
		<polygon fill="#F6851F" points="182.021,587.822 158.368,592.836 177.858,578.526 221.002,559.204 244.654,554.189 225.165,568.5 
					"/>
		<polygon fill="#F6851F" points="225.165,568.5 244.654,554.189 268.801,694.971 		"/>
		<polygon opacity="0.05" fill="#FFFFFF" points="225.165,568.5 244.654,554.189 268.801,694.971 		"/>
		<polygon fill="#F6851F" points="158.368,592.836 182.021,587.822 262.22,698.699 261.312,699.238 		"/>
		<polygon opacity="0.05" points="158.368,592.836 182.021,587.822 262.22,698.699 261.312,699.238 		"/>
		<g>
			<polygon fill="#ED3794" points="216.14,536.319 183.941,534.023 214.228,522.854 276.716,513.979 308.915,516.275 
				278.628,527.443 			"/>
			<polygon fill="#ED3794" points="216.14,536.319 278.628,527.443 291.198,684.789 283.711,686.573 			"/>
			<polygon opacity="0.02" points="216.14,536.319 278.628,527.443 291.198,684.789 283.711,686.573 			"/>
			<polygon fill="#ED3794" points="183.941,534.023 283.711,686.573 216.14,536.319 			"/>
			<polygon opacity="0.05" points="183.941,534.023 283.711,686.573 216.14,536.319 			"/>
			<polygon fill="#ED3794" points="308.915,516.275 291.198,684.789 278.628,527.443 			"/>
			<polygon opacity="0.05" fill="#FFFFFF" points="308.915,516.275 291.198,684.789 278.628,527.443 			"/>
		</g>
		<g>
			<polygon fill="#79CDCB" points="291.529,628.938 267,620.441 292.852,618.084 343.233,624.222 367.761,632.717 341.91,635.075 
							"/>
			<polygon fill="#79CDCB" points="291.529,628.938 311.021,678.783 322.211,678.045 341.91,635.075 			"/>
			<polygon opacity="0.02" points="291.529,628.938 311.021,678.783 322.211,678.045 341.91,635.075 			"/>
			<polygon fill="#79CDCB" points="367.761,632.717 322.211,678.045 341.91,635.075 			"/>
			<polygon opacity="0.05" fill="#FFFFFF" points="367.761,632.717 322.211,678.045 341.91,635.075 			"/>
			<polygon fill="#79CDCB" points="267,620.441 311.021,678.783 291.529,628.938 			"/>
			<polygon opacity="0.05" points="267,620.441 311.021,678.783 291.529,628.938 			"/>
		</g>
		<g>
			<polygon fill="#65BC46" points="345.112,587.119 320.48,575.831 347.576,575.975 399.301,587.406 423.931,598.695 
				396.836,598.553 			"/>
			<polygon fill="#65BC46" points="345.112,587.119 352.325,676.217 364.995,679.89 396.836,598.553 			"/>
			<polygon opacity="0.02" points="345.112,587.119 352.325,676.217 364.995,679.89 396.836,598.553 			"/>
			<polygon fill="#65BC46" points="320.48,575.831 352.325,676.217 345.112,587.119 			"/>
			<polygon opacity="0.05" fill="#FFFFFF" points="320.48,575.831 352.325,676.217 345.112,587.119 			"/>
			<polygon fill="#65BC46" points="423.931,598.695 364.995,679.89 396.836,598.553 			"/>
			<polygon opacity="0.04" points="423.931,598.695 364.995,679.89 396.836,598.553 			"/>
		</g>
		<g>
			<polygon fill="#DE5D83" points="477.46,616.508 455.056,601.549 460.674,627.895 488.693,669.198 511.097,684.156 
				505.481,657.811 			"/>
			<polygon fill="#DE5D83" points="460.674,627.895 414.263,705.127 418.047,710.361 488.693,669.198 			"/>
			<polygon opacity="0.02" points="460.674,627.895 414.263,705.127 418.047,710.361 488.693,669.198 			"/>
			<polygon fill="#DE5D83" points="511.097,684.156 418.047,710.361 488.693,669.198 			"/>
			<polygon opacity="0.04" points="511.097,684.156 418.047,710.361 488.693,669.198 			"/>
			<polygon fill="#DE5D83" points="455.338,603.117 414.263,705.127 460.674,627.895 			"/>
			<polygon opacity="0.05" fill="#FFFFFF" points="455.338,603.117 414.263,705.127 460.674,627.895 			"/>
		</g>
		<g>
			<polygon fill="#FBEE29" points="427.472,525.657 399.365,500.904 435.171,511.885 499.089,547.62 527.198,572.374 
				491.387,561.392 			"/>
			<polygon fill="#FBEE29" points="427.472,525.657 388.483,687.398 397.438,693.051 491.387,561.392 			"/>
			<polygon opacity="0.02" points="427.472,525.657 388.483,687.398 397.438,693.051 491.387,561.392 			"/>
			<polygon fill="#FBEE29" points="399.365,500.904 388.483,687.398 427.472,525.657 			"/>
			<polygon opacity="0.05" fill="#FFFFFF" points="399.365,500.904 388.483,687.398 427.472,525.657 			"/>
			<polygon fill="#FBEE29" points="527.198,572.374 397.438,693.051 491.387,561.392 			"/>
			<polygon opacity="0.04" points="527.161,572.69 397.398,693.365 491.351,561.708 			"/>
		</g>
	</g>
	
		<text transform="matrix(1 0 0 1 221.0962 248.604)" display="inline" fill="#C1C1C0" font-family="'CenturyGothic'" font-size="60" letter-spacing="12">Vibes</text>
	<g display="inline">
		<text transform="matrix(1 0 0 1 188 377)" fill="#C1C1C0" font-family="'CenturyGothic'" font-size="24" letter-spacing="4">Emotion-mapping</text>
	</g>
</g>
</svg>
