<?xml version="1.0" encoding="utf-8"?>
<!-- Generator: Adobe Illustrator 16.0.0, SVG Export Plug-In . SVG Version: 6.00 Build 0)  -->
<!DOCTYPE svg PUBLIC "-//W3C//DTD SVG 1.1//EN" "http://www.w3.org/Graphics/SVG/1.1/DTD/svg11.dtd">
<svg version="1.1" id="Layer_1" xmlns="http://www.w3.org/2000/svg" xmlns:xlink="http://www.w3.org/1999/xlink" x="0px" y="0px"
	 width="320px" height="568px" viewBox="0 0 320 568" enable-background="new 0 0 320 568" xml:space="preserve">
<g id="Charachter">
	<polygon opacity="0.3" enable-background="new    " points="79.216,526 56.073,513.45 79.216,500.899 125.523,500.899 
		148.702,513.45 125.523,526 	"/>
	<polygon opacity="0.3" enable-background="new    " points="194.222,525.98 170.332,513.443 194.222,500.878 242.013,500.878 
		265.915,513.443 242.013,525.98 	"/>
	
		<linearGradient id="SVGID_1_" gradientUnits="userSpaceOnUse" x1="304.3721" y1="56.0601" x2="477.6816" y2="56.0601" gradientTransform="matrix(1 0 0 -1 -231 360)">
		<stop  offset="0" style="stop-color:#F9ED32;stop-opacity:0.8"/>
		<stop  offset="1" style="stop-color:#FBB040;stop-opacity:0.8"/>
	</linearGradient>
	<polygon fill="url(#SVGID_1_)" points="116.674,330.832 73.372,303.923 116.674,277.048 203.317,277.048 246.682,303.923 
		203.317,330.832 	"/>
	<polygon fill="#ED3794" points="108.7,508.053 57.139,418.728 108.7,329.401 211.876,329.401 263.421,418.728 211.876,508.053 	"/>
	<polygon fill="#79CDCB" points="203.743,330.657 246.437,303.814 291.081,327.382 292.928,377.806 250.244,404.623 
		205.648,381.079 	"/>
	<polygon fill="#F6851F" points="73.521,303.91 116.895,330.75 93.805,291.251 	"/>
	<polygon fill="#65BC46" points="226.194,291.251 246.437,303.814 203.743,330.657 	"/>
	<polygon opacity="0.05" enable-background="new    " points="108.7,329.401 57.139,418.728 108.7,508.053 211.876,508.053 
		139.289,329.401 	"/>
	<polygon fill="#EE3255" points="116.895,330.75 73.521,303.91 28.621,328.062 27.072,379.062 70.459,405.886 115.357,381.733 	"/>
	<polygon opacity="0.1" enable-background="new    " points="28.621,328.062 27.072,379.062 70.459,405.886 115.357,381.733 	"/>
	<polygon opacity="0.1" enable-background="new    " points="226.194,291.251 234.427,296.339 203.743,330.657 	"/>
	<polygon fill="#FBEE29" points="116.674,330.871 73.372,255.827 116.674,180.794 203.317,180.794 246.682,255.827 203.317,330.871 
			"/>
	<polygon opacity="0.05" enable-background="new    " points="116.674,180.794 73.372,255.827 116.895,330.75 203.743,330.657 	"/>
	<polygon opacity="0.1" enable-background="new    " points="27.072,379.062 27.669,359.146 84.411,398.367 70.459,405.886 	"/>
	<polygon opacity="0.1" enable-background="new    " points="291.081,327.382 205.648,381.079 250.244,404.623 292.928,377.806 	"/>
	<polygon opacity="0.1" enable-background="new    " points="292.928,377.806 292.246,359.146 238.896,398.635 250.244,404.623 	"/>
	<polygon opacity="0.05" fill="#FFFFFF" enable-background="new    " points="204.089,379.309 168.298,400.784 211.876,508.053 
		223.705,487.51 263.421,418.728 	"/>
	<polygon opacity="0.05" enable-background="new    " points="168.298,400.784 97.504,488.67 108.7,508.053 212.121,508.053 	"/>
	<polygon fill="#A25BA4" points="79.216,525.98 56.172,486.051 79.216,446.134 125.324,446.134 148.403,486.051 125.324,525.98 	"/>
	<polygon opacity="0.1" enable-background="new    " points="79.216,446.134 125.324,525.98 79.216,525.98 56.172,486.051 	"/>
	<polygon opacity="0.1" enable-background="new    " points="57.702,486.051 79.937,524.548 88.814,524.548 	"/>
	<polygon opacity="0.05" enable-background="new    " points="160.001,255.401 116.895,330.75 203.743,330.657 	"/>
	<polygon opacity="0.05" enable-background="new    " points="116.674,180.794 160.001,255.401 203.317,180.794 	"/>
	<g>
		<polygon fill="#5296D0" points="194.045,525.98 170.101,484.529 194.045,443.042 241.968,443.042 265.915,484.529 241.968,525.98 
					"/>
		<polygon opacity="0.1" enable-background="new    " points="194.045,443.042 241.968,525.98 194.045,525.98 170.101,484.529 		"/>
		<polygon opacity="0.1" enable-background="new    " points="173.714,484.529 196.82,524.465 206.013,524.465 		"/>
	</g>
	<polygon opacity="0.1" enable-background="new    " points="93.763,291.287 87.461,295.228 116.445,330.458 	"/>
	<polygon opacity="0.1" enable-background="new    " points="66.101,403.18 57.139,418.728 115.357,381.733 70.459,405.886 	"/>
	<polygon opacity="0.1" enable-background="new    " points="253.968,402.293 263.421,418.728 205.648,381.079 250.244,404.623 	"/>
	<polygon opacity="0.3" enable-background="new    " points="68.178,506.884 56.073,513.45 79.216,525.98 	"/>
	<polygon opacity="0.3" enable-background="new    " points="183.698,508.053 180.521,508.053 170.332,513.443 193.965,525.896 	"/>
</g>
<g>
	<g enable-background="new    ">
		<path fill="#A7A9AC" d="M99.038,46.926l5.142,2.702c-1.687,3.312-3.634,5.984-5.844,8.018s-4.696,3.58-7.458,4.64
			c-2.763,1.06-5.888,1.591-9.377,1.591c-7.734,0-13.782-2.534-18.143-7.604c-4.361-5.069-6.542-10.799-6.542-17.19
			c0-6.013,1.846-11.373,5.539-16.079c4.681-5.984,10.946-8.977,18.797-8.977c8.083,0,14.537,3.065,19.363,9.194
			c3.431,4.329,5.175,9.732,5.234,16.209H63.089c0.116,5.506,1.875,10.021,5.278,13.542c3.403,3.521,7.606,5.282,12.609,5.282
			c2.414,0,4.762-0.419,7.045-1.259c2.283-0.839,4.224-1.954,5.824-3.342C95.445,52.265,97.176,50.022,99.038,46.926z
			 M99.038,34.159c-0.814-3.253-2-5.854-3.556-7.8c-1.556-1.946-3.614-3.515-6.173-4.706c-2.56-1.191-5.25-1.787-8.071-1.787
			c-4.654,0-8.653,1.497-11.998,4.488c-2.444,2.179-4.291,5.447-5.541,9.804H99.038z"/>
		<path fill="#A7A9AC" d="M117.077,15.248h6.1v8.192c2.123-3.021,4.304-5.229,6.544-6.623c3.083-1.859,6.326-2.789,9.729-2.789
			c2.297,0,4.478,0.451,6.542,1.351c2.065,0.901,3.752,2.099,5.061,3.595c1.309,1.497,2.443,3.638,3.403,6.427
			c2.028-3.718,4.563-6.543,7.607-8.475c3.043-1.932,6.318-2.898,9.824-2.898c3.275,0,6.166,0.828,8.673,2.484
			c2.506,1.656,4.367,3.965,5.585,6.928s1.826,7.408,1.826,13.333v25.883h-6.231V36.773c0-5.083-0.361-8.577-1.086-10.479
			c-0.724-1.902-1.961-3.435-3.713-4.597c-1.752-1.161-3.843-1.743-6.275-1.743c-2.954,0-5.653,0.872-8.1,2.614
			c-2.447,1.743-4.235,4.067-5.363,6.972c-1.129,2.905-1.693,7.756-1.693,14.554v18.562h-6.101V38.385
			c0-5.723-0.356-9.608-1.067-11.656c-0.712-2.048-1.954-3.689-3.726-4.924c-1.772-1.234-3.878-1.852-6.318-1.852
			c-2.818,0-5.454,0.85-7.908,2.549c-2.456,1.7-4.271,3.987-5.447,6.863c-1.177,2.875-1.765,7.276-1.765,13.203v20.087h-6.1V15.248z
			"/>
		<path fill="#A7A9AC" d="M223.267,14.027c7.304,0,13.356,2.644,18.158,7.931c4.365,4.822,6.548,10.53,6.548,17.125
			c0,6.623-2.307,12.412-6.919,17.364c-4.612,4.953-10.542,7.43-17.787,7.43c-7.275,0-13.22-2.477-17.831-7.43
			c-4.613-4.952-6.919-10.741-6.919-17.364c0-6.565,2.182-12.259,6.548-17.081C209.865,16.686,215.933,14.027,223.267,14.027z
			 M223.244,19.997c-5.072,0-9.431,1.874-13.074,5.621c-3.645,3.748-5.466,8.279-5.466,13.595c0,3.428,0.83,6.624,2.492,9.586
			c1.661,2.963,3.906,5.25,6.734,6.863c2.827,1.612,5.932,2.418,9.313,2.418s6.486-0.806,9.314-2.418
			c2.827-1.612,5.072-3.9,6.734-6.863c1.661-2.963,2.492-6.158,2.492-9.586c0-5.316-1.829-9.847-5.488-13.595
			S228.287,19.997,223.244,19.997z"/>
		<path fill="#A7A9AC" d="M265.969,53.069c1.481,0,2.745,0.523,3.791,1.569s1.568,2.324,1.568,3.834
			c0,1.481-0.522,2.752-1.568,3.812s-2.31,1.591-3.791,1.591s-2.745-0.531-3.791-1.591s-1.568-2.331-1.568-3.812
			c0-1.51,0.522-2.789,1.568-3.834S264.487,53.069,265.969,53.069z"/>
	</g>
</g>
<g>
	<path id="E" fill="#FFFFFF" d="M49.867,110.013h7.72v1.325h-6.375v4.215h6.315v1.314h-6.315v5.31h6.315v1.302h-7.66V110.013z	">
<animate  fill="remove" id="4sec" attributeName="fill" from="#FFFFFF" to="#FBED28" begin="2s" dur="4s" calcMode="linear" restart="always" repeatCount="indefinite" accumulate="none" additive="replace">
			</animate>
	</path>
	<path id="M_x5F_2" fill="#FFFFFF" d="M63.448,113.521h1.277v1.731c0.459-0.632,0.905-1.114,1.375-1.388
		c0.648-0.391,1.325-0.599,2.054-0.599c0.475,0,0.935,0.086,1.364,0.289c0.442,0.181,0.791,0.441,1.07,0.75
		c0.278,0.328,0.512,0.76,0.706,1.364c0.429-0.781,0.966-1.394,1.6-1.801c0.639-0.392,1.336-0.601,2.061-0.601
		c0.702,0,1.296,0.185,1.825,0.522c0.528,0.339,0.922,0.847,1.176,1.463c0.256,0.615,0.382,1.556,0.382,2.787v5.439h-1.312v-5.439
		c0-1.056-0.062-1.798-0.221-2.2c-0.156-0.402-0.416-0.708-0.781-0.948c-0.36-0.248-0.815-0.377-1.324-0.377
		c-0.61,0-1.19,0.181-1.703,0.541c-0.513,0.37-0.887,0.874-1.117,1.475c-0.232,0.6-0.352,1.623-0.352,3.051v3.897H70.25V118.4
		c0-1.213-0.09-2.038-0.246-2.456c-0.137-0.43-0.396-0.778-0.783-1.038c-0.368-0.26-0.793-0.391-1.304-0.391
		c-0.61,0-1.168,0.176-1.688,0.524c-0.514,0.382-0.891,0.853-1.135,1.446c-0.244,0.625-0.369,1.538-0.369,2.787v4.207h-1.277
		L63.448,113.521L63.448,113.521z	">
<animate  fill="remove" id="4sec" attributeName="fill" from="#FFFFFF" to="#F5851F" begin="2.1s" dur="4s" calcMode="linear" restart="always" repeatCount="indefinite" accumulate="none" additive="replace">
			</animate>
	</path>
	<path id="O_x5F_2" fill="#FFFFFF" d="M89.505,113.266c1.532,0,2.825,0.564,3.829,1.663c0.918,1.017,1.363,2.212,1.363,3.612
		c0,1.391-0.478,2.599-1.454,3.64c-0.958,1.038-2.206,1.559-3.738,1.559c-1.521,0-2.758-0.521-3.742-1.559
		c-0.959-1.041-1.459-2.249-1.459-3.64c0-1.393,0.473-2.595,1.395-3.601C86.7,113.834,87.969,113.266,89.505,113.266z
		 M89.499,114.515c-1.06,0-1.969,0.392-2.748,1.179c-0.767,0.79-1.147,1.752-1.147,2.856c0,0.738,0.184,1.415,0.524,2.031
		c0.363,0.617,0.83,1.086,1.412,1.447c0.608,0.327,1.265,0.504,1.958,0.504c0.724,0,1.378-0.179,1.962-0.504
		c0.609-0.36,1.072-0.83,1.409-1.447c0.371-0.616,0.524-1.292,0.524-2.031c0-1.104-0.381-2.067-1.147-2.856
		C91.48,114.907,90.565,114.515,89.499,114.515z	">
<animate  fill="remove" id="4sec" attributeName="fill" from="#FFFFFF" to="#EE3154" begin="2.2s" dur="4s" calcMode="linear" restart="always" repeatCount="indefinite" accumulate="none" additive="replace">
			</animate>
	</path>
	<path id="T" fill="#FFFFFF" d="M101.947,109.836h1.289v3.684h2.021v1.123h-2.021v8.835h-1.289v-8.835h-1.751v-1.123h1.751V109.836z
			">
<animate  fill="remove" id="4sec" attributeName="fill" from="#FFFFFF" to="#ED3694" begin="2.3s" dur="4s" calcMode="linear" restart="always" repeatCount="indefinite" accumulate="none" additive="replace">
			</animate>
	</path>
	<path id="I_x5F_1" fill="#FFFFFF" d="M111.38,109.433c0.301,0,0.546,0.095,0.74,0.291c0.217,0.228,0.322,0.475,0.322,0.766
		c0,0.272-0.105,0.52-0.322,0.743c-0.193,0.195-0.439,0.297-0.74,0.297c-0.293,0-0.536-0.104-0.733-0.297
		c-0.218-0.223-0.317-0.471-0.317-0.743c0-0.291,0.1-0.538,0.317-0.766C110.844,109.528,111.087,109.433,111.38,109.433z
		 M110.747,113.521h1.279v9.958h-1.279V113.521z	">
<animate  fill="remove" id="4sec" attributeName="fill" from="#FFFFFF" to="#A15AA3" begin="2.4s" dur="4s" calcMode="linear" restart="always" repeatCount="indefinite" accumulate="none" additive="replace">
			</animate>
	</path>
	<path id="O" fill="#FFFFFF" d="M123.146,113.266c1.529,0,2.826,0.564,3.828,1.663c0.919,1.017,1.365,2.212,1.365,3.612
		c0,1.391-0.478,2.599-1.457,3.64c-0.957,1.038-2.209,1.559-3.736,1.559c-1.523,0-2.759-0.521-3.742-1.559
		c-0.966-1.041-1.46-2.249-1.46-3.64c0-1.393,0.476-2.595,1.395-3.601C120.339,113.834,121.608,113.266,123.146,113.266z
		 M123.142,114.515c-1.064,0-1.973,0.392-2.752,1.179c-0.762,0.79-1.146,1.752-1.146,2.856c0,0.738,0.187,1.415,0.525,2.031
		c0.36,0.617,0.829,1.086,1.413,1.447c0.611,0.327,1.263,0.504,1.958,0.504c0.726,0,1.378-0.179,1.959-0.504
		c0.613-0.36,1.073-0.83,1.414-1.447c0.368-0.616,0.524-1.292,0.524-2.031c0-1.104-0.384-2.067-1.152-2.856
		C125.12,114.907,124.205,114.515,123.142,114.515z	">
<animate  fill="remove" id="4sec" attributeName="fill" from="#FFFFFF" to="#5195D0" begin="2.5s" dur="4s" calcMode="linear" restart="always" repeatCount="indefinite" accumulate="none" additive="replace">
			</animate>
	</path>
	<path id="N_x5F_1" fill="#FFFFFF" d="M134.465,113.521h1.278v1.778c0.512-0.66,1.091-1.173,1.706-1.528
		c0.619-0.326,1.3-0.504,2.029-0.504c0.762,0,1.426,0.204,1.984,0.581c0.592,0.375,1.007,0.884,1.273,1.521
		c0.278,0.639,0.417,1.627,0.417,2.997v5.114h-1.279v-4.743c0-1.142-0.056-1.904-0.146-2.288c-0.15-0.662-0.43-1.156-0.841-1.502
		c-0.428-0.318-0.985-0.494-1.668-0.494c-0.776,0-1.451,0.255-2.077,0.766c-0.615,0.512-1.022,1.142-1.203,1.896
		c-0.12,0.518-0.195,1.421-0.195,2.728v3.639h-1.278V113.521z	">
<animate  fill="remove" id="4sec" attributeName="fill" from="#FFFFFF" to="#79CCCA" begin="2.6s" dur="4s" calcMode="linear" restart="always" repeatCount="indefinite" accumulate="none" additive="replace">
			</animate>
	</path>
	<path id="DASH" fill="#FFFFFF" d="M157.774,117.876h5.029v1.103h-5.029V117.876z	">
<animate  fill="remove" id="4sec" attributeName="fill" from="#FFFFFF" to="#64BC45" begin="2.7s" dur="4s" calcMode="linear" restart="always" repeatCount="indefinite" accumulate="none" additive="replace">
			</animate>
	</path>
	<path id="M_x5F_1" fill="#FFFFFF" d="M177.518,113.521h1.28v1.731c0.429-0.632,0.884-1.114,1.381-1.388
		c0.629-0.391,1.323-0.599,2.037-0.599c0.485,0,0.93,0.086,1.363,0.289c0.45,0.181,0.779,0.441,1.057,0.75
		c0.279,0.329,0.511,0.76,0.746,1.364c0.41-0.781,0.947-1.394,1.571-1.801c0.649-0.392,1.322-0.601,2.074-0.601
		c0.699,0,1.305,0.185,1.824,0.522c0.519,0.339,0.92,0.847,1.174,1.463c0.256,0.615,0.382,1.556,0.382,2.787v5.439h-1.299v-5.439
		c0-1.056-0.076-1.798-0.257-2.2c-0.135-0.402-0.394-0.708-0.781-0.948c-0.339-0.248-0.779-0.377-1.298-0.377
		c-0.615,0-1.192,0.181-1.708,0.541c-0.512,0.37-0.888,0.874-1.137,1.475c-0.233,0.6-0.333,1.623-0.333,3.051v3.897h-1.279V118.4
		c0-1.213-0.085-2.038-0.22-2.456c-0.171-0.43-0.433-0.778-0.782-1.038c-0.388-0.26-0.822-0.391-1.334-0.391
		c-0.601,0-1.16,0.176-1.675,0.524c-0.515,0.382-0.88,0.853-1.142,1.446c-0.256,0.625-0.365,1.538-0.365,2.787v4.207h-1.28V113.521
		L177.518,113.521z	">
<animate  fill="remove" id="4sec" attributeName="fill" from="#FFFFFF" to="#FBED28" begin="2.8s" dur="4s" calcMode="linear" restart="always" repeatCount="indefinite" accumulate="none" additive="replace">
			</animate>
	</path>
	<path id="A" fill="#FFFFFF" d="M208.767,113.521v9.958h-1.26v-1.693c-0.543,0.651-1.104,1.141-1.81,1.456
		c-0.644,0.349-1.359,0.497-2.159,0.497c-1.435,0-2.619-0.517-3.607-1.536c-1.032-1.018-1.543-2.248-1.543-3.722
		c0-1.435,0.511-2.667,1.549-3.692c1.01-1.015,2.203-1.522,3.636-1.522c0.784,0,1.56,0.185,2.203,0.522
		c0.66,0.339,1.233,0.86,1.731,1.567v-1.835L208.767,113.521L208.767,113.521z M203.653,114.512c-0.7,0-1.374,0.162-1.949,0.521
		c-0.626,0.354-1.098,0.838-1.477,1.47c-0.32,0.63-0.537,1.306-0.537,2.027c0,0.683,0.219,1.358,0.541,1.997
		c0.385,0.637,0.858,1.131,1.488,1.512c0.564,0.347,1.242,0.527,1.921,0.527c0.716,0,1.38-0.178,2.01-0.521
		c0.616-0.378,1.092-0.845,1.447-1.44c0.36-0.622,0.505-1.287,0.505-2.061c0-1.149-0.394-2.093-1.158-2.867
		C205.688,114.903,204.779,114.512,203.653,114.512z	">
<animate  fill="remove" id="4sec" attributeName="fill" from="#FFFFFF" to="#F5851F" begin="2.9s" dur="4s" calcMode="linear" restart="always" repeatCount="indefinite" accumulate="none" additive="replace">
			</animate>
	</path>
	<path id="P_x5F_2" fill="#FFFFFF" d="M215.451,113.521h1.276v1.835c0.501-0.707,1.1-1.229,1.731-1.567
		c0.692-0.337,1.414-0.522,2.234-0.522c1.381,0,2.624,0.507,3.631,1.522c0.998,1.026,1.495,2.257,1.495,3.692
		c0,1.474-0.49,2.705-1.477,3.722c-1.025,1.018-2.232,1.537-3.625,1.537c-0.779,0-1.552-0.149-2.19-0.498
		c-0.665-0.314-1.259-0.804-1.802-1.455v5.335h-1.275L215.451,113.521L215.451,113.521z M220.561,114.512
		c-1.124,0-2.031,0.391-2.788,1.166c-0.751,0.774-1.157,1.718-1.157,2.867c0,0.775,0.205,1.438,0.502,2.061
		c0.356,0.593,0.832,1.062,1.491,1.44c0.594,0.343,1.293,0.521,1.976,0.521c0.668,0,1.345-0.179,1.953-0.527
		c0.582-0.381,1.056-0.875,1.438-1.512c0.381-0.638,0.544-1.314,0.544-1.997c0-0.721-0.163-1.398-0.538-2.027
		c-0.377-0.632-0.851-1.115-1.443-1.47C221.946,114.674,221.262,114.512,220.561,114.512z	">
<animate  fill="remove" id="4sec" attributeName="fill" from="#FFFFFF" to="#EE3154" begin="3s" dur="4s" calcMode="linear" restart="always" repeatCount="indefinite" accumulate="none" additive="replace">
			</animate>
	</path>
	<path id="P_x5F_1" fill="#FFFFFF" d="M231.972,113.521h1.282v1.835c0.503-0.707,1.102-1.229,1.753-1.567
		c0.665-0.337,1.393-0.522,2.21-0.522c1.427,0,2.633,0.507,3.629,1.522c1.001,1.026,1.5,2.257,1.5,3.692
		c0,1.474-0.493,2.705-1.481,3.722c-0.989,1.018-2.221,1.537-3.603,1.537c-0.793,0-1.513-0.149-2.21-0.498
		c-0.64-0.314-1.259-0.804-1.799-1.455v5.335h-1.282L231.972,113.521L231.972,113.521z M237.088,114.512
		c-1.063,0-2.034,0.391-2.789,1.166c-0.756,0.774-1.114,1.718-1.114,2.867c0,0.775,0.163,1.438,0.517,2.061
		c0.297,0.593,0.784,1.062,1.428,1.44c0.652,0.343,1.299,0.521,1.981,0.521c0.726,0,1.341-0.179,1.97-0.527
		c0.604-0.381,1.101-0.875,1.42-1.512c0.383-0.638,0.541-1.314,0.541-1.997c0-0.721-0.156-1.398-0.535-2.027
		c-0.317-0.632-0.822-1.115-1.409-1.47C238.474,114.674,237.845,114.512,237.088,114.512z	">
<animate  fill="remove" id="4sec" attributeName="fill" from="#FFFFFF" to="#ED3694" begin="3.1s" dur="4s" calcMode="linear" restart="always" repeatCount="indefinite" accumulate="none" additive="replace">
			</animate>
	</path>
	<path id="I_x5F_2" fill="#FFFFFF" d="M248.962,109.433c0.3,0,0.547,0.095,0.742,0.291c0.189,0.228,0.32,0.475,0.32,0.766
		c0,0.272-0.131,0.52-0.32,0.743c-0.195,0.195-0.442,0.297-0.742,0.297c-0.289,0-0.535-0.104-0.728-0.297
		c-0.238-0.223-0.322-0.471-0.322-0.743c0-0.291,0.084-0.538,0.322-0.766C248.427,109.527,248.673,109.433,248.962,109.433z
		 M248.298,113.521h1.281v9.958h-1.281V113.521z	">
<animate  fill="remove" id="4sec" attributeName="fill" from="#FFFFFF" to="#A15AA3" begin="3.2s" dur="4s" calcMode="linear" restart="always" repeatCount="indefinite" accumulate="none" additive="replace">
			</animate>
	</path>
	<path id="N_x5F_2" fill="#FFFFFF" d="M256.037,113.521h1.277v1.778c0.51-0.66,1.07-1.173,1.674-1.528
		c0.651-0.326,1.303-0.504,2.022-0.504c0.75,0,1.432,0.204,2.023,0.581c0.548,0.375,0.993,0.884,1.271,1.521
		c0.279,0.639,0.385,1.627,0.385,2.997v5.114h-1.276v-4.743c0-1.142-0.059-1.904-0.114-2.288c-0.187-0.662-0.472-1.156-0.875-1.502
		c-0.405-0.318-0.953-0.494-1.668-0.494c-0.776,0-1.45,0.255-2.083,0.766c-0.574,0.512-1.017,1.142-1.196,1.896
		c-0.129,0.518-0.163,1.421-0.163,2.728v3.639h-1.277V113.521L256.037,113.521z	">
<animate  fill="remove" id="4sec" attributeName="fill" from="#FFFFFF" to="#5195D0" begin="3.3s" dur="4s" calcMode="linear" restart="always" repeatCount="indefinite" accumulate="none" additive="replace">
			</animate>
	</path>
	<path id="G" fill="#FFFFFF" d="M279.784,113.521h1.276v7.943c0,1.391-0.088,2.41-0.335,3.055c-0.35,0.917-0.946,1.636-1.79,2.125
		c-0.805,0.488-1.829,0.734-2.961,0.734c-0.877,0-1.641-0.12-2.297-0.357c-0.72-0.236-1.261-0.558-1.688-0.956
		c-0.404-0.413-0.832-1.027-1.15-1.807h1.348c0.407,0.657,0.889,1.164,1.51,1.47c0.555,0.332,1.316,0.476,2.201,0.476
		c0.896,0,1.625-0.149,2.23-0.492c0.577-0.311,1.038-0.723,1.292-1.211c0.264-0.503,0.363-1.286,0.363-2.396v-0.512
		c-0.477,0.599-1.081,1.088-1.758,1.399c-0.687,0.344-1.454,0.487-2.243,0.487c-0.896,0-1.779-0.224-2.591-0.662
		c-0.777-0.471-1.4-1.074-1.823-1.841c-0.483-0.766-0.691-1.628-0.691-2.553c0-0.919,0.219-1.774,0.698-2.574
		c0.474-0.802,1.068-1.427,1.887-1.877c0.818-0.484,1.693-0.708,2.555-0.708c0.755,0,1.475,0.16,2.087,0.471
		c0.676,0.298,1.265,0.802,1.878,1.527v-1.742H279.784z M276.031,114.512c-0.768,0-1.429,0.162-2.056,0.521
		c-0.604,0.355-1.084,0.831-1.463,1.443c-0.364,0.635-0.534,1.287-0.534,2.024c0,1.08,0.395,1.988,1.112,2.708
		c0.723,0.712,1.654,1.08,2.849,1.08c1.153,0,2.139-0.368,2.837-1.068c0.702-0.722,1.086-1.639,1.086-2.806
		c0-0.747-0.174-1.421-0.487-1.995c-0.348-0.605-0.801-1.059-1.427-1.39C277.34,114.669,276.704,114.512,276.031,114.512z	">
<animate  fill="remove" id="4sec" attributeName="fill" from="#FFFFFF" to="#79CCCA" begin="3.4s" dur="4s" calcMode="linear" restart="always" repeatCount="indefinite" accumulate="none" additive="replace">
			</animate>
	</path>
</g>
</svg>
