<?xml version="1.0" encoding="utf-8"?>
<!-- Generator: Adobe Illustrator 16.0.4, SVG Export Plug-In . SVG Version: 6.00 Build 0)  -->
<!DOCTYPE svg PUBLIC "-//W3C//DTD SVG 1.1//EN" "http://www.w3.org/Graphics/SVG/1.1/DTD/svg11.dtd">
<svg version="1.1" id="Layer_1" xmlns="http://www.w3.org/2000/svg" xmlns:xlink="http://www.w3.org/1999/xlink" x="0px" y="0px"
	 width="640px" height="1136px" viewBox="0 0 640 1136" enable-background="new 0 0 640 1136" xml:space="preserve">
<linearGradient id="SVGID_1_" gradientUnits="userSpaceOnUse" x1="-247" y1="568.0005" x2="887.8428" y2="568.0005" gradientTransform="matrix(4.489659e-11 -1 1 4.489659e-11 -248.1562 887.8438)">
	<stop  offset="0" style="stop-color:#2BB673"/>
	<stop  offset="0.1091" style="stop-color:#30B0A8"/>
	<stop  offset="0.2242" style="stop-color:#27AAE1"/>
	<stop  offset="0.2524" style="stop-color:#2FA8DF;stop-opacity:0.9759"/>
	<stop  offset="0.284" style="stop-color:#40A1DA;stop-opacity:0.9488"/>
	<stop  offset="0.3173" style="stop-color:#5396D0;stop-opacity:0.9203"/>
	<stop  offset="0.3518" style="stop-color:#6686C3;stop-opacity:0.8907"/>
	<stop  offset="0.3872" style="stop-color:#7671B4;stop-opacity:0.8604"/>
	<stop  offset="0.4229" style="stop-color:#8555A2;stop-opacity:0.8299"/>
	<stop  offset="0.4578" style="stop-color:#92278F;stop-opacity:0.8"/>
	<stop  offset="0.4992" style="stop-color:#95278E;stop-opacity:0.8344"/>
	<stop  offset="0.5423" style="stop-color:#9D268B;stop-opacity:0.87"/>
	<stop  offset="0.5861" style="stop-color:#AC2688;stop-opacity:0.9063"/>
	<stop  offset="0.6304" style="stop-color:#C02684;stop-opacity:0.943"/>
	<stop  offset="0.6747" style="stop-color:#DA287E;stop-opacity:0.9797"/>
	<stop  offset="0.6992" style="stop-color:#EE2A7B"/>
	<stop  offset="0.7159" style="stop-color:#EE2D7A"/>
	<stop  offset="0.7354" style="stop-color:#EE3375"/>
	<stop  offset="0.7563" style="stop-color:#EF3D6E"/>
	<stop  offset="0.7783" style="stop-color:#EF4762"/>
	<stop  offset="0.8011" style="stop-color:#F05252"/>
	<stop  offset="0.8242" style="stop-color:#F15E36"/>
	<stop  offset="0.8383" style="stop-color:#F26522"/>
	<stop  offset="0.861" style="stop-color:#F26922"/>
	<stop  offset="0.8844" style="stop-color:#F27223"/>
	<stop  offset="0.9082" style="stop-color:#F28124"/>
	<stop  offset="0.9322" style="stop-color:#F29426"/>
	<stop  offset="0.9563" style="stop-color:#F4AE2A"/>
	<stop  offset="0.9803" style="stop-color:#F6CE2E"/>
	<stop  offset="1" style="stop-color:#F9ED32"/>
</linearGradient>
<rect x="-248.155" y="0.001" opacity="0.8" fill="url(#SVGID_1_)" width="1135.999" height="1134.843"/>
<g display="none">
	<polyline display="inline" opacity="0.25" fill="#D3D3D3" points="649,1015 639.998,1001.847 359.988,592.679 363.667,592.679 
		409.362,462.154 639.998,791.005 649,803.84 	"/>
	<polygon display="inline" opacity="0.1" fill="#D3D3D3" points="125.832,408.426 232.838,408.426 289.928,399.665 326.217,493.333 
		359.988,592.679 639.998,1001.847 640,1136 	"/>
	<polyline display="inline" opacity="0.15" fill="#D3D3D3" points="639.998,791.005 409.362,462.154 506.498,462.2 639.998,648.441 
		649,661 	"/>
</g>
<g>
	<polygon opacity="0.8" fill="#ED3794" points="-135.797,248.623 -125.688,298.431 -108.21,349.845 -120.366,274.057 	"/>
	<polygon opacity="0.8" fill="#FFF200" points="-174.015,254.488 -168.341,225.244 -133.714,225.243 -127.662,247.374 	"/>
	<polygon opacity="0.7" fill="#79CDCB" points="-189.022,225.243 -183.755,235.388 -174.015,254.488 -139.33,235.662 
		-133.714,225.243 	"/>
	<polygon opacity="0.8" fill="#DE5D83" points="-139.33,235.662 -133.714,225.243 -120.366,274.057 -122.633,296.923 	"/>
	<polygon opacity="0.7" fill="#DA1C5C" points="-63.02,267.177 -57.198,277.284 -54.665,282.294 -86.655,277.284 -92.442,267.177 	
		"/>
	<polygon opacity="0.5" fill="#92278F" points="-108.21,349.845 -122.633,296.923 -120.366,274.057 -107.377,321.546 
		-106.616,349.845 	"/>
	<polygon opacity="0.7" fill="#F6851F" points="-125.688,298.431 -148.151,240.45 -139.33,235.662 -135.801,248.623 	"/>
	<polygon opacity="0.7" fill="#ED3794" points="-92.442,310.416 -81.19,278.074 -86.655,277.284 -88.096,282.376 	"/>
	<polygon opacity="0.7" fill="#F6851F" points="-54.665,282.294 -96.594,282.294 -92.442,267.177 -85.258,267.177 	"/>
	<polyline fill="#79CDCB" points="-174.015,254.488 -229.395,254.488 -189.022,225.243 	"/>
	<polygon opacity="0.8" fill="#79CDCB" points="-106.616,349.845 -92.442,310.416 -88.065,282.318 -101.512,300.198 
		-104.999,312.887 	"/>
	<polygon opacity="0.7" fill="#65BC46" points="-106.616,349.845 -108.21,349.845 -107.377,321.546 -101.809,301.277 
		-102.706,311.293 -94.428,305.541 	"/>
	<polygon opacity="0.7" fill="#FFF200" points="-92.442,267.177 -86.655,277.284 -94.428,305.541 -104.999,312.887 	"/>
	<polygon opacity="0.8" fill="#DA1C5C" points="-63.02,267.177 -60.004,272.412 -57.868,276.124 -57.198,277.284 -55.973,279.707 
		-54.665,282.294 -32.387,282.318 	"/>
</g>
<g display="none">
	<g display="inline">
		<polygon fill="#EE3255" points="180.917,536.225 202.308,525.21 194.666,548.024 165.636,581.85 144.247,592.867 151.888,570.055 
					"/>
		<polyline fill="#EE3255" points="194.666,548.024 254.657,620.527 247.38,626.238 165.636,581.85 		"/>
		<polyline opacity="0.02" points="194.666,548.024 254.657,620.527 247.38,626.238 165.636,581.85 		"/>
		<polygon fill="#EE3255" points="202.308,525.21 194.666,548.024 254.657,620.527 		"/>
		<polygon opacity="0.05" fill="#FFFFFF" points="202.308,525.21 194.666,548.024 254.657,620.527 		"/>
		<polygon fill="#EE3255" points="165.636,581.85 247.38,626.238 144.247,592.867 		"/>
		<polygon opacity="0.05" points="165.636,581.85 247.38,626.238 144.247,592.867 		"/>
	</g>
	<polygon display="inline" fill="#F6851F" points="181.949,503.25 263.61,614.162 271.1,609.895 227.463,483.423 	"/>
	<polygon display="inline" opacity="0.02" points="181.949,503.25 263.61,614.162 271.1,609.895 227.463,483.423 	"/>
	<polygon display="inline" fill="#F6851F" points="184.32,502.746 160.667,507.759 180.157,493.45 223.301,474.127 246.953,469.113 
		227.463,483.423 	"/>
	<polygon display="inline" fill="#F6851F" points="227.463,483.423 246.953,469.113 271.1,609.895 	"/>
	<polygon display="inline" opacity="0.05" fill="#FFFFFF" points="227.463,483.423 246.953,469.113 271.1,609.895 	"/>
	<polygon display="inline" fill="#F6851F" points="160.667,507.759 184.32,502.746 264.519,613.623 263.61,614.162 	"/>
	<polygon display="inline" opacity="0.05" points="160.667,507.759 184.32,502.746 264.519,613.623 263.61,614.162 	"/>
	<g display="inline">
		<polygon fill="#ED3794" points="218.438,451.242 186.24,448.947 216.527,437.777 279.015,428.903 311.214,431.199 
			280.927,442.367 		"/>
		<polygon fill="#ED3794" points="218.438,451.242 280.927,442.367 293.497,599.713 286.01,601.496 		"/>
		<polygon opacity="0.02" points="218.438,451.242 280.927,442.367 293.497,599.713 286.01,601.496 		"/>
		<polygon fill="#ED3794" points="186.24,448.947 286.01,601.496 218.438,451.242 		"/>
		<polygon opacity="0.05" points="186.24,448.947 286.01,601.496 218.438,451.242 		"/>
		<polygon fill="#ED3794" points="311.214,431.199 293.497,599.713 280.927,442.367 		"/>
		<polygon opacity="0.05" fill="#FFFFFF" points="311.214,431.199 293.497,599.713 280.927,442.367 		"/>
	</g>
	<g display="inline">
		<polygon fill="#79CDCB" points="293.828,543.862 269.299,535.365 295.15,533.007 345.532,539.145 370.06,547.64 344.209,549.999 
					"/>
		<polygon fill="#79CDCB" points="293.828,543.862 313.32,593.707 324.51,592.969 344.209,549.999 		"/>
		<polygon opacity="0.02" points="293.828,543.862 313.32,593.707 324.51,592.969 344.209,549.999 		"/>
		<polygon fill="#79CDCB" points="370.06,547.64 324.51,592.969 344.209,549.999 		"/>
		<polygon opacity="0.05" fill="#FFFFFF" points="370.06,547.64 324.51,592.969 344.209,549.999 		"/>
		<polygon fill="#79CDCB" points="269.299,535.365 313.32,593.707 293.828,543.862 		"/>
		<polygon opacity="0.05" points="269.299,535.365 313.32,593.707 293.828,543.862 		"/>
	</g>
	<g display="inline">
		<polygon fill="#65BC46" points="347.411,502.042 322.779,490.754 349.875,490.898 401.6,502.33 426.229,513.619 399.135,513.476 
					"/>
		<polygon fill="#65BC46" points="347.411,502.042 354.624,591.141 367.294,594.812 399.135,513.476 		"/>
		<polygon opacity="0.02" points="347.411,502.042 354.624,591.141 367.294,594.812 399.135,513.476 		"/>
		<polygon fill="#65BC46" points="322.779,490.754 354.624,591.141 347.411,502.042 		"/>
		<polygon opacity="0.05" fill="#FFFFFF" points="322.779,490.754 354.624,591.141 347.411,502.042 		"/>
		<polygon fill="#65BC46" points="426.229,513.619 367.294,594.812 399.135,513.476 		"/>
		<polygon opacity="0.04" points="426.229,513.619 367.294,594.812 399.135,513.476 		"/>
	</g>
	<g display="inline">
		<polygon fill="#DE5D83" points="479.759,531.431 457.354,516.472 462.973,542.818 490.992,584.121 513.396,599.08 507.78,572.734 
					"/>
		<polygon fill="#DE5D83" points="462.973,542.818 416.562,620.051 420.346,625.285 490.992,584.121 		"/>
		<polygon opacity="0.02" points="462.973,542.818 416.562,620.051 420.346,625.285 490.992,584.121 		"/>
		<polygon fill="#DE5D83" points="513.396,599.08 420.346,625.285 490.992,584.121 		"/>
		<polygon opacity="0.04" points="513.396,599.08 420.346,625.285 490.992,584.121 		"/>
		<polygon fill="#DE5D83" points="457.637,518.041 416.562,620.051 462.973,542.818 		"/>
		<polygon opacity="0.05" fill="#FFFFFF" points="457.637,518.041 416.562,620.051 462.973,542.818 		"/>
	</g>
	<g display="inline">
		<polygon fill="#FBEE29" points="429.771,440.581 401.664,415.827 437.47,426.808 501.388,462.542 529.497,487.297 
			493.686,476.315 		"/>
		<polygon fill="#FBEE29" points="429.771,440.581 390.782,602.322 399.737,607.975 493.686,476.315 		"/>
		<polygon opacity="0.02" points="429.771,440.581 390.782,602.322 399.737,607.975 493.686,476.315 		"/>
		<polygon fill="#FBEE29" points="401.664,415.827 390.782,602.322 429.771,440.581 		"/>
		<polygon opacity="0.05" fill="#FFFFFF" points="401.664,415.827 390.782,602.322 429.771,440.581 		"/>
		<polygon fill="#FBEE29" points="529.497,487.297 399.737,607.975 493.686,476.315 		"/>
		<polygon opacity="0.04" points="529.46,487.614 399.697,608.289 493.649,476.631 		"/>
	</g>
</g>
<g opacity="0.4">
	<rect x="45" y="910.328" opacity="0.4" fill="#FFFFFF" width="45" height="225.672"/>
	<rect y="870.336" opacity="0.4" fill="#FFFFFF" width="45" height="265.664"/>
	<rect x="90" y="879" opacity="0.4" fill="#FFFFFF" width="45" height="257"/>
	<rect x="315" y="931.669" opacity="0.4" fill="#FFFFFF" width="45" height="204.331"/>
	<rect x="360" y="907.003" opacity="0.4" fill="#FFFFFF" width="45" height="228.997"/>
	<rect x="405" y="837.004" opacity="0.4" fill="#FFFFFF" width="45" height="296.329"/>
	<rect x="180" y="986.336" opacity="0.4" fill="#FFFFFF" width="45" height="149.664"/>
	<rect x="450" y="1023.164" opacity="0.4" fill="#FFFFFF" width="45" height="112.836"/>
	<rect x="540" y="879" opacity="0.3" fill="#FFFFFF" width="45" height="257"/>
	<rect x="585" y="800" opacity="0.3" fill="#FFFFFF" width="45" height="336"/>
	<rect x="630" y="915" opacity="0.3" fill="#FFFFFF" width="45" height="221"/>
</g>
<g opacity="0.4">
	<rect x="45" y="834.265" opacity="0.5" fill="#FFFFFF" width="45" height="302.015"/>
	<rect x="90" y="767.672" opacity="0.5" fill="#FFFFFF" width="45" height="368.607"/>
	<rect x="450" y="767.672" opacity="0.3" fill="#FFFFFF" width="45" height="368.607"/>
	<rect x="162" y="805.189" opacity="0.4" fill="#FFFFFF" width="63" height="335.311"/>
	<rect x="225" y="914.928" opacity="0.4" fill="#FFFFFF" width="45" height="221.117"/>
	<rect x="135" y="834.265" opacity="0.5" fill="#FFFFFF" width="13" height="302.015"/>
	<rect x="148" y="861.465" opacity="0.5" fill="#FFFFFF" width="14" height="274.814"/>
	<rect x="495" y="863.967" opacity="0.3" fill="#FFFFFF" width="22.5" height="272.312"/>
	<rect x="517.5" y="914.928" opacity="0.3" fill="#FFFFFF" width="22.5" height="221.352"/>
</g>
<polygon fill="#FFFFFF" points="153.5,177.265 214.285,133.233 297.556,133.233 337.206,278.226 359.693,196.369 403.99,196.369 
	450.11,219.164 374.41,219.164 338.354,320.832 335.953,320.832 284.014,177.282 "/>
<g>
	<g>
		<rect y="927.651" opacity="0.3" fill="#FFFFFF" width="45" height="208.349"/>
		<rect x="45" y="1011.363" opacity="0.3" fill="#FFFFFF" width="45" height="124.637"/>
		<rect x="90" y="970.741" opacity="0.3" fill="#FFFFFF" width="45" height="165.259"/>
		<rect x="135" y="898.729" opacity="0.3" fill="#FFFFFF" width="45" height="237.271"/>
		<rect x="180" y="1053.371" opacity="0.3" fill="#FFFFFF" width="45" height="82.629"/>
		<rect x="225" y="1024.289" opacity="0.3" fill="#FFFFFF" width="45" height="111.711"/>
		<rect x="315" y="992.898" opacity="0.3" fill="#FFFFFF" width="45" height="143.102"/>
		<rect x="360" y="958.738" opacity="0.3" fill="#FFFFFF" width="45" height="177.262"/>
		<rect x="405" y="976.28" opacity="0.3" fill="#FFFFFF" width="45" height="159.72"/>
		<rect x="450" y="1064.449" opacity="0.3" fill="#FFFFFF" width="45" height="71.551"/>
		<rect x="495" y="982.436" opacity="0.4" fill="#FFFFFF" width="45" height="153.564"/>
		<rect x="540" y="982.436" opacity="0.4" fill="#FFFFFF" width="45" height="153.564"/>
		<rect x="585" y="871.955" opacity="0.3" fill="#FFFFFF" width="45" height="264.045"/>
		<rect x="630" y="963.355" opacity="0.3" fill="#FFFFFF" width="45" height="172.645"/>
		<rect x="270" y="835.113" opacity="0.3" fill="#FFFFFF" width="45" height="300.887"/>
	</g>
	<rect x="270" y="976.28" opacity="0.2" fill="#FFFFFF" width="45" height="159.488"/>
	<rect x="540" y="781.85" opacity="0.3" fill="#FFFFFF" width="90" height="354.15"/>
	<rect x="315" y="742.421" opacity="0.4" fill="#FFFFFF" width="45" height="393.579"/>
	<rect x="225" y="696.158" opacity="0.4" fill="#FFFFFF" width="45" height="439.842"/>
	<rect x="540" y="696.158" opacity="0.4" fill="#FFFFFF" width="45" height="439.842"/>
	<rect x="607.812" y="635.892" opacity="0.4" fill="#FFFFFF" width="31.876" height="500.108"/>
	<rect y="742.421" opacity="0.4" fill="#FFFFFF" width="31.876" height="391.117"/>
	<rect x="373.124" y="804.171" opacity="0.4" fill="#FFFFFF" width="31.876" height="330.598"/>
	<rect x="135" y="658.769" opacity="0.4" fill="#FFFFFF" width="45" height="477.231"/>
	<rect x="270" y="781.851" opacity="0.4" fill="#FFFFFF" width="45" height="354.149"/>
</g>
<rect x="450" y="879" opacity="0.3" fill="#FFFFFF" width="45" height="254.333"/>
<rect x="495" y="776.58" opacity="0.3" fill="#FFFFFF" width="45" height="358.086"/>
<rect x="405" y="672.404" opacity="0.3" fill="#FFFFFF" width="45" height="460.929"/>
<rect x="360" y="850" opacity="0.5" fill="#FFFFFF" width="13.124" height="284.666"/>
<rect x="31.876" y="783" opacity="0.2" fill="#FFFFFF" width="12.686" height="353"/>
<text transform="matrix(1 0 0 1 261 400)" fill="#FFFFFF" font-family="'CenturyGothic'" font-size="48" letter-spacing="7">Vibes</text>
<text transform="matrix(1 0 0 1 182.5977 489.5962)" fill="#FFFFFF" font-family="'CenturyGothic'" font-size="30" letter-spacing="4">emotion-mapping</text>
</svg>
