<?xml version="1.0" encoding="utf-8"?>
<!-- Generator: Adobe Illustrator 16.0.4, SVG Export Plug-In . SVG Version: 6.00 Build 0)  -->
<!DOCTYPE svg PUBLIC "-//W3C//DTD SVG 1.1//EN" "http://www.w3.org/Graphics/SVG/1.1/DTD/svg11.dtd">
<svg version="1.1" id="Layer_1" xmlns="http://www.w3.org/2000/svg" xmlns:xlink="http://www.w3.org/1999/xlink" x="0px" y="0px"
	 width="640px" height="1136px" viewBox="0 0 640 1136" enable-background="new 0 0 640 1136" xml:space="preserve">
<g display="none">
	<g display="inline" opacity="0.4">
		<rect x="46" y="908.328" opacity="0.4" fill="#FFFFFF" width="45" height="225.672"/>
		<rect x="1" y="868.336" opacity="0.4" fill="#FFFFFF" width="45" height="265.664"/>
		<rect x="91" y="877" opacity="0.4" fill="#FFFFFF" width="45" height="257"/>
		<rect x="316" y="929.669" opacity="0.4" fill="#FFFFFF" width="45" height="204.331"/>
		<rect x="361" y="905.003" opacity="0.4" fill="#FFFFFF" width="45" height="228.997"/>
		<rect x="406" y="835.004" opacity="0.4" fill="#FFFFFF" width="45" height="296.329"/>
		<rect x="181" y="984.336" opacity="0.4" fill="#FFFFFF" width="45" height="149.664"/>
		<rect x="451" y="1021.164" opacity="0.4" fill="#FFFFFF" width="45" height="112.836"/>
		<rect x="541" y="877" opacity="0.3" fill="#FFFFFF" width="45" height="257"/>
		<rect x="586" y="798" opacity="0.3" fill="#FFFFFF" width="45" height="336"/>
		<rect x="631" y="913" opacity="0.3" fill="#FFFFFF" width="45" height="221"/>
	</g>
	<g display="inline" opacity="0.4">
		<rect x="46" y="832.265" opacity="0.5" fill="#FFFFFF" width="45" height="302.015"/>
		<rect x="91" y="765.672" opacity="0.5" fill="#FFFFFF" width="45" height="368.607"/>
		<rect x="451" y="765.672" opacity="0.3" fill="#FFFFFF" width="45" height="368.607"/>
		<rect x="163" y="803.189" opacity="0.4" fill="#FFFFFF" width="63" height="335.311"/>
		<rect x="226" y="912.928" opacity="0.4" fill="#FFFFFF" width="45" height="221.117"/>
		<rect x="136" y="832.265" opacity="0.5" fill="#FFFFFF" width="13" height="302.015"/>
		<rect x="149" y="859.465" opacity="0.5" fill="#FFFFFF" width="14" height="274.814"/>
		<rect x="496" y="861.967" opacity="0.3" fill="#FFFFFF" width="22.5" height="272.312"/>
		<rect x="518.5" y="912.928" opacity="0.3" fill="#FFFFFF" width="22.5" height="221.352"/>
	</g>
	<g display="inline">
		<g>
			<rect x="1" y="925.651" opacity="0.3" fill="#FFFFFF" width="45" height="208.349"/>
			<rect x="46" y="1009.363" opacity="0.3" fill="#FFFFFF" width="45" height="124.637"/>
			<rect x="91" y="968.741" opacity="0.3" fill="#FFFFFF" width="45" height="165.259"/>
			<rect x="136" y="896.729" opacity="0.3" fill="#FFFFFF" width="45" height="237.271"/>
			<rect x="181" y="1051.371" opacity="0.3" fill="#FFFFFF" width="45" height="82.629"/>
			<rect x="226" y="1022.289" opacity="0.3" fill="#FFFFFF" width="45" height="111.711"/>
			<rect x="316" y="990.898" opacity="0.3" fill="#FFFFFF" width="45" height="143.102"/>
			<rect x="361" y="956.738" opacity="0.3" fill="#FFFFFF" width="45" height="177.262"/>
			<rect x="406" y="974.28" opacity="0.3" fill="#FFFFFF" width="45" height="159.72"/>
			<rect x="451" y="1062.449" opacity="0.3" fill="#FFFFFF" width="45" height="71.551"/>
			<rect x="496" y="980.436" opacity="0.4" fill="#FFFFFF" width="45" height="153.564"/>
			<rect x="541" y="980.436" opacity="0.4" fill="#FFFFFF" width="45" height="153.564"/>
			<rect x="586" y="869.955" opacity="0.3" fill="#FFFFFF" width="45" height="264.045"/>
			<rect x="631" y="961.355" opacity="0.3" fill="#FFFFFF" width="45" height="172.645"/>
			<rect x="271" y="833.113" opacity="0.3" fill="#FFFFFF" width="45" height="300.887"/>
		</g>
		<rect x="271" y="974.28" opacity="0.2" fill="#FFFFFF" width="45" height="159.488"/>
		<rect x="541" y="779.85" opacity="0.3" fill="#FFFFFF" width="90" height="354.15"/>
		<rect x="316" y="740.421" opacity="0.4" fill="#FFFFFF" width="45" height="393.579"/>
		<rect x="226" y="694.158" opacity="0.4" fill="#FFFFFF" width="45" height="439.842"/>
		<rect x="541" y="694.158" opacity="0.4" fill="#FFFFFF" width="45" height="439.842"/>
		<rect x="608.812" y="633.892" opacity="0.4" fill="#FFFFFF" width="31.876" height="500.108"/>
		<rect x="1" y="740.421" opacity="0.4" fill="#FFFFFF" width="31.876" height="391.117"/>
		<rect x="374.124" y="802.171" opacity="0.4" fill="#FFFFFF" width="31.876" height="330.598"/>
		<rect x="136" y="656.769" opacity="0.4" fill="#FFFFFF" width="45" height="477.231"/>
		<rect x="271" y="779.851" opacity="0.4" fill="#FFFFFF" width="45" height="354.149"/>
	</g>
	<rect x="451" y="877" display="inline" opacity="0.3" fill="#FFFFFF" width="45" height="254.333"/>
	<rect x="496" y="774.58" display="inline" opacity="0.3" fill="#FFFFFF" width="45" height="358.086"/>
	<rect x="406" y="670.404" display="inline" opacity="0.3" fill="#FFFFFF" width="45" height="460.929"/>
	<rect x="361" y="848" display="inline" opacity="0.5" fill="#FFFFFF" width="13.124" height="284.666"/>
	<rect x="32.876" y="781" display="inline" opacity="0.2" fill="#FFFFFF" width="12.686" height="353"/>
</g>
<text transform="matrix(1 0 0 1 183.5977 487.5962)" fill="#FFFFFF" font-family="'CenturyGothic'" font-size="30" letter-spacing="4">emotion-mapping</text>
<linearGradient id="SVGID_1_" gradientUnits="userSpaceOnUse" x1="-248" y1="568.9951" x2="886.8428" y2="568.9951" gradientTransform="matrix(0 -1 1 0 -248.1562 887.8438)">
	<stop  offset="0" style="stop-color:#2BB673"/>
	<stop  offset="0.0576" style="stop-color:#30B0A8"/>
	<stop  offset="0.1183" style="stop-color:#27AAE1"/>
	<stop  offset="0.1321" style="stop-color:#289FD8;stop-opacity:0.998"/>
	<stop  offset="0.1862" style="stop-color:#2A79BA;stop-opacity:0.9904"/>
	<stop  offset="0.2354" style="stop-color:#295EA7;stop-opacity:0.9834"/>
	<stop  offset="0.2779" style="stop-color:#294A9A;stop-opacity:0.9774"/>
	<stop  offset="0.312" style="stop-color:#2A3E92;stop-opacity:0.9725"/>
	<stop  offset="0.3335" style="stop-color:#2B3990;stop-opacity:0.9695"/>
	<stop  offset="0.3513" style="stop-color:#353890;stop-opacity:0.9738"/>
	<stop  offset="0.3809" style="stop-color:#4F358F;stop-opacity:0.9811"/>
	<stop  offset="0.4188" style="stop-color:#70308F;stop-opacity:0.9904"/>
	<stop  offset="0.4578" style="stop-color:#92278F"/>
	<stop  offset="0.4992" style="stop-color:#95278E"/>
	<stop  offset="0.5423" style="stop-color:#9D268B"/>
	<stop  offset="0.5861" style="stop-color:#AC2688"/>
	<stop  offset="0.6304" style="stop-color:#C02684"/>
	<stop  offset="0.6747" style="stop-color:#DA287E"/>
	<stop  offset="0.6992" style="stop-color:#EE2A7B"/>
	<stop  offset="0.7159" style="stop-color:#EE2D7A"/>
	<stop  offset="0.7354" style="stop-color:#EE3375"/>
	<stop  offset="0.7563" style="stop-color:#EF3D6E"/>
	<stop  offset="0.7783" style="stop-color:#EF4762"/>
	<stop  offset="0.8011" style="stop-color:#F05252"/>
	<stop  offset="0.8242" style="stop-color:#F15E36"/>
	<stop  offset="0.8383" style="stop-color:#F26522"/>
	<stop  offset="0.861" style="stop-color:#F26922"/>
	<stop  offset="0.8844" style="stop-color:#F27223"/>
	<stop  offset="0.9082" style="stop-color:#F28124"/>
	<stop  offset="0.9322" style="stop-color:#F29426"/>
	<stop  offset="0.9563" style="stop-color:#F4AE2A"/>
	<stop  offset="0.9803" style="stop-color:#F6CE2E"/>
	<stop  offset="1" style="stop-color:#F9ED32"/>
</linearGradient>
<rect y="1.001" opacity="0.8" fill="url(#SVGID_1_)" width="641.678" height="1134.843"/>
<rect y="610.438" opacity="0.04" fill="#FFFFFF" width="55.453" height="525.562"/>
<rect x="584.547" y="610.438" opacity="0.04" fill="#FFFFFF" width="55.453" height="525.562"/>
<rect x="55.453" y="676.477" opacity="0.04" fill="#FFFFFF" width="39.623" height="459.523"/>
<rect x="95.076" y="783" opacity="0.04" fill="#FFFFFF" width="59.424" height="353"/>
<rect x="153.885" y="725" opacity="0.04" fill="#FFFFFF" width="59.424" height="411"/>
<rect x="213.31" y="649" opacity="0.04" fill="#FFFFFF" width="59.424" height="487"/>
<rect x="273.093" y="701" opacity="0.04" fill="#FFFFFF" width="59.425" height="435"/>
<rect x="332.518" y="676.477" opacity="0.04" fill="#FFFFFF" width="59.425" height="459.523"/>
<rect x="391.942" y="725" opacity="0.04" fill="#FFFFFF" width="59.425" height="411"/>
<rect x="451.11" y="783" opacity="0.04" fill="#FFFFFF" width="59.425" height="353"/>
<rect x="510.535" y="725" opacity="0.04" fill="#FFFFFF" width="74.012" height="411"/>
<rect y="701" opacity="0.06" fill="#FFFFFF" width="55.453" height="435"/>
<rect x="55.453" y="747" opacity="0.06" fill="#FFFFFF" width="39.623" height="389"/>
<rect x="95.076" y="819" opacity="0.06" fill="#FFFFFF" width="58.81" height="317"/>
<rect x="154.5" y="755.58" opacity="0.06" fill="#FFFFFF" width="59.117" height="380.42"/>
<rect x="213.617" y="676.477" opacity="0.06" fill="#FFFFFF" width="59.476" height="459.523"/>
<rect x="272.734" y="725" opacity="0.06" fill="#FFFFFF" width="59.476" height="411"/>
<rect x="332.21" y="766.08" opacity="0.06" fill="#FFFFFF" width="59.732" height="369.92"/>
<rect x="392.25" y="799.078" opacity="0.06" fill="#FFFFFF" width="58.809" height="336.922"/>
<rect x="451.419" y="836.576" opacity="0.06" fill="#FFFFFF" width="58.809" height="299.424"/>
<rect x="510.228" y="783" opacity="0.06" fill="#FFFFFF" width="72.642" height="353"/>
<rect x="582.869" y="667.085" opacity="0.06" fill="#FFFFFF" width="58.809" height="468.915"/>
<rect y="766.08" opacity="0.08" fill="#FFFFFF" width="55.453" height="376.482"/>
<rect x="55.786" y="799.078" opacity="0.08" fill="#FFFFFF" width="39.214" height="343.484"/>
<rect x="95.038" y="873.219" opacity="0.08" fill="#FFFFFF" width="58.885" height="269.344"/>
<rect x="154.155" y="799.078" opacity="0.08" fill="#FFFFFF" width="58.885" height="343.484"/>
<rect x="213.579" y="735.5" opacity="0.08" fill="#FFFFFF" width="58.885" height="407.062"/>
<rect x="273.029" y="787.5" opacity="0.08" fill="#FFFFFF" width="58.885" height="355.062"/>
<rect x="332.634" y="830.5" opacity="0.08" fill="#FFFFFF" width="58.885" height="312.062"/>
<rect x="392.212" y="850" opacity="0.08" fill="#FFFFFF" width="58.885" height="292.562"/>
<rect x="451.38" y="873.219" opacity="0.08" fill="#FFFFFF" width="58.885" height="269.344"/>
<rect x="510.666" y="811.719" opacity="0.08" fill="#FFFFFF" width="72.203" height="331.562"/>
<rect x="583.05" y="747" opacity="0.08" fill="#FFFFFF" width="58.446" height="396.281"/>
<g>
	<path fill="#FFFFFF" d="M263.57,374.523h3.75l11.426,26.636l11.613-26.636h3.75l-15,34.477h-0.75L263.57,374.523z"/>
	<path fill="#FFFFFF" d="M307.931,373c0.747,0,1.385,0.266,1.914,0.797s0.793,1.172,0.793,1.922c0,0.734-0.265,1.367-0.793,1.898
		s-1.167,0.797-1.914,0.797c-0.731,0-1.361-0.266-1.891-0.797c-0.528-0.531-0.793-1.164-0.793-1.898c0-0.75,0.265-1.391,0.793-1.922
		C306.569,373.266,307.199,373,307.931,373z M306.302,383.5h3.281V409h-3.281V383.5z"/>
	<path fill="#FFFFFF" d="M323.814,409v-35.344h3.281v14.227c1.373-1.688,2.91-2.949,4.611-3.785
		c1.702-0.836,3.566-1.254,5.598-1.254c3.605,0,6.684,1.309,9.236,3.926c2.551,2.617,3.828,5.793,3.828,9.527
		c0,3.688-1.289,6.836-3.863,9.445c-2.576,2.609-5.674,3.914-9.295,3.914c-2.077,0-3.958-0.445-5.644-1.336
		c-1.687-0.891-3.177-2.227-4.472-4.008V409H323.814z M336.939,406.492c1.824,0,3.508-0.449,5.051-1.348s2.77-2.16,3.682-3.785
		s1.369-3.344,1.369-5.156s-0.461-3.539-1.381-5.18s-2.154-2.918-3.705-3.832s-3.207-1.371-4.969-1.371
		c-1.793,0-3.496,0.457-5.109,1.371s-2.854,2.145-3.719,3.691s-1.297,3.289-1.297,5.227c0,2.953,0.97,5.422,2.91,7.406
		C331.713,405.5,334.102,406.492,336.939,406.492z"/>
	<path fill="#FFFFFF" d="M385.014,400.539l2.766,1.453c-0.907,1.781-1.955,3.219-3.144,4.312s-2.525,1.926-4.012,2.496
		c-1.485,0.57-3.167,0.855-5.044,0.855c-4.16,0-7.412-1.363-9.759-4.09c-2.346-2.727-3.519-5.809-3.519-9.246
		c0-3.234,0.993-6.117,2.979-8.648c2.518-3.219,5.888-4.828,10.11-4.828c4.348,0,7.819,1.648,10.415,4.945
		c1.846,2.328,2.784,5.234,2.815,8.719h-22.945c0.062,2.962,1.009,5.39,2.839,7.284c1.831,1.894,4.091,2.841,6.782,2.841
		c1.298,0,2.562-0.226,3.789-0.677c1.229-0.451,2.272-1.05,3.133-1.797C383.082,403.411,384.013,402.205,385.014,400.539z
		 M385.014,393.672c-0.438-1.75-1.075-3.148-1.913-4.195c-0.837-1.047-1.943-1.891-3.32-2.531s-2.823-0.961-4.341-0.961
		c-2.504,0-4.654,0.805-6.453,2.414c-1.314,1.172-2.309,2.93-2.98,5.273H385.014z"/>
	<path fill="#FFFFFF" d="M414.761,386.289l-2.109,2.18c-1.755-1.703-3.471-2.555-5.146-2.555c-1.065,0-1.978,0.352-2.737,1.055
		s-1.14,1.523-1.14,2.461c0,0.828,0.313,1.617,0.939,2.367c0.626,0.766,1.941,1.664,3.945,2.695
		c2.443,1.266,4.103,2.484,4.979,3.656c0.861,1.188,1.292,2.523,1.292,4.008c0,2.094-0.735,3.867-2.207,5.32
		c-1.471,1.453-3.31,2.18-5.516,2.18c-1.472,0-2.876-0.32-4.214-0.961s-2.445-1.523-3.321-2.648l2.062-2.344
		c1.676,1.891,3.453,2.836,5.333,2.836c1.315,0,2.435-0.422,3.359-1.266c0.924-0.844,1.386-1.836,1.386-2.977
		c0-0.938-0.306-1.773-0.916-2.508c-0.61-0.719-1.988-1.625-4.134-2.719c-2.302-1.188-3.868-2.359-4.697-3.516
		c-0.83-1.156-1.245-2.477-1.245-3.961c0-1.938,0.661-3.547,1.983-4.828c1.323-1.281,2.993-1.922,5.013-1.922
		C410.019,382.844,412.382,383.992,414.761,386.289z"/>
</g>
<polygon fill="#FFFFFF" points="154.5,186.265 215.285,142.233 298.556,142.233 338.206,287.226 360.693,205.369 404.99,205.369 
	451.11,228.164 375.41,228.164 339.354,329.832 336.953,329.832 285.014,186.282 "/>
<rect y="847.667" opacity="0.06" fill="#FFFFFF" width="55.453" height="288.177"/>
<rect x="55.453" y="887.667" opacity="0.06" fill="#FFFFFF" width="39.623" height="248.255"/>
<rect x="95.076" y="945.79" opacity="0.06" fill="#FFFFFF" width="58.926" height="190.132"/>
<rect x="154.135" y="906.238" opacity="0.06" fill="#FFFFFF" width="58.926" height="229.684"/>
<rect x="213.04" y="858.333" opacity="0.06" fill="#FFFFFF" width="59.424" height="277.589"/>
<rect x="272.464" y="873.22" opacity="0.06" fill="#FFFFFF" width="59.45" height="262.702"/>
<rect x="331.914" y="873.22" opacity="0.06" fill="#FFFFFF" width="59.779" height="262.702"/>
<rect x="391.766" y="934.5" opacity="0.06" fill="#FFFFFF" width="59.779" height="201.422"/>
<rect x="451.545" y="959.5" opacity="0.06" fill="#FFFFFF" width="59.779" height="176.422"/>
<rect x="510.535" y="884" opacity="0.06" fill="#FFFFFF" width="72.334" height="251.844"/>
<rect x="583.05" y="830.5" opacity="0.06" fill="#FFFFFF" width="56.95" height="305.344"/>
<g>
	<g>
		<path fill="#FFFFFF" d="M221.158,486.365l1.383,0.727c-0.454,0.891-0.978,1.609-1.572,2.156s-1.263,0.963-2.006,1.248
			c-0.743,0.285-1.583,0.428-2.522,0.428c-2.08,0-3.706-0.682-4.879-2.045c-1.173-1.363-1.759-2.904-1.759-4.623
			c0-1.617,0.497-3.059,1.49-4.324c1.259-1.609,2.944-2.414,5.055-2.414c2.174,0,3.91,0.824,5.208,2.473
			c0.923,1.164,1.392,2.617,1.408,4.359H211.49c0.031,1.481,0.504,2.695,1.419,3.642c0.916,0.947,2.045,1.42,3.391,1.42
			c0.649,0,1.281-0.113,1.895-0.338c0.614-0.226,1.136-0.525,1.566-0.899C220.192,487.801,220.657,487.198,221.158,486.365z
			 M221.158,482.931c-0.219-0.875-0.538-1.574-0.957-2.098c-0.418-0.523-0.972-0.945-1.66-1.266s-1.412-0.48-2.17-0.48
			c-1.252,0-2.327,0.402-3.227,1.207c-0.657,0.586-1.154,1.465-1.49,2.637H221.158z"/>
		<path fill="#FFFFFF" d="M230.089,477.845h1.641v2.203c0.571-0.812,1.157-1.406,1.76-1.781c0.829-0.5,1.701-0.75,2.616-0.75
			c0.618,0,1.205,0.121,1.76,0.363c0.556,0.242,1.009,0.564,1.361,0.967c0.352,0.402,0.657,0.979,0.915,1.729
			c0.545-1,1.228-1.76,2.046-2.279s1.699-0.779,2.642-0.779c0.881,0,1.658,0.223,2.333,0.668c0.674,0.445,1.175,1.066,1.502,1.863
			c0.328,0.797,0.491,1.992,0.491,3.586v6.961h-1.676v-6.961c0-1.367-0.098-2.307-0.292-2.818c-0.195-0.512-0.527-0.924-0.999-1.236
			s-1.034-0.469-1.688-0.469c-0.794,0-1.52,0.234-2.178,0.703s-1.139,1.094-1.442,1.875c-0.304,0.781-0.456,2.086-0.456,3.914v4.992
			h-1.641v-6.527c0-1.539-0.096-2.584-0.287-3.135s-0.525-0.992-1.002-1.324s-1.043-0.498-1.699-0.498
			c-0.758,0-1.467,0.229-2.127,0.686s-1.148,1.072-1.465,1.846s-0.475,1.957-0.475,3.551v5.402h-1.641V477.845z"/>
		<path fill="#FFFFFF" d="M262.728,477.517c1.964,0,3.592,0.711,4.884,2.133c1.174,1.297,1.761,2.832,1.761,4.605
			c0,1.781-0.62,3.338-1.861,4.67c-1.24,1.332-2.835,1.998-4.784,1.998c-1.957,0-3.555-0.666-4.795-1.998
			c-1.241-1.332-1.861-2.889-1.861-4.67c0-1.766,0.587-3.297,1.761-4.594C259.124,478.232,260.756,477.517,262.728,477.517z
			 M262.722,479.123c-1.364,0-2.536,0.504-3.517,1.512c-0.979,1.008-1.47,2.227-1.47,3.656c0,0.922,0.224,1.781,0.67,2.578
			s1.05,1.412,1.811,1.846c0.76,0.434,1.595,0.65,2.505,0.65c0.909,0,1.744-0.217,2.505-0.65c0.76-0.434,1.364-1.049,1.811-1.846
			s0.67-1.656,0.67-2.578c0-1.43-0.492-2.648-1.476-3.656S264.079,479.123,262.722,479.123z"/>
		<path fill="#FFFFFF" d="M277.917,473.111h1.641v4.734h2.602v1.418h-2.602v11.332h-1.641v-11.332h-2.238v-1.418h2.238V473.111z"/>
		<path fill="#FFFFFF" d="M289.269,472.595c0.374,0,0.692,0.133,0.957,0.398c0.265,0.266,0.397,0.586,0.397,0.961
			c0,0.367-0.132,0.684-0.397,0.949c-0.264,0.266-0.583,0.398-0.957,0.398c-0.366,0-0.681-0.133-0.945-0.398
			c-0.264-0.266-0.396-0.582-0.396-0.949c0-0.375,0.132-0.695,0.396-0.961C288.588,472.728,288.903,472.595,289.269,472.595z
			 M288.454,477.845h1.641v12.75h-1.641V477.845z"/>
		<path fill="#FFFFFF" d="M303.62,477.517c1.964,0,3.592,0.711,4.884,2.133c1.174,1.297,1.761,2.832,1.761,4.605
			c0,1.781-0.62,3.338-1.861,4.67c-1.24,1.332-2.835,1.998-4.784,1.998c-1.957,0-3.555-0.666-4.795-1.998
			c-1.241-1.332-1.861-2.889-1.861-4.67c0-1.766,0.587-3.297,1.761-4.594C300.016,478.232,301.648,477.517,303.62,477.517z
			 M303.614,479.123c-1.364,0-2.536,0.504-3.517,1.512c-0.979,1.008-1.47,2.227-1.47,3.656c0,0.922,0.224,1.781,0.67,2.578
			s1.05,1.412,1.811,1.846c0.76,0.434,1.595,0.65,2.505,0.65c0.909,0,1.744-0.217,2.505-0.65c0.76-0.434,1.364-1.049,1.811-1.846
			s0.67-1.656,0.67-2.578c0-1.43-0.492-2.648-1.476-3.656S304.971,479.123,303.614,479.123z"/>
		<path fill="#FFFFFF" d="M317.38,477.845h1.641v2.285c0.656-0.875,1.383-1.529,2.18-1.963s1.664-0.65,2.602-0.65
			c0.953,0,1.799,0.242,2.537,0.727s1.283,1.137,1.635,1.957s0.527,2.098,0.527,3.832v6.562h-1.641v-6.082
			c0-1.469-0.061-2.449-0.183-2.941c-0.19-0.844-0.555-1.479-1.094-1.904s-1.242-0.639-2.109-0.639
			c-0.993,0-1.882,0.328-2.667,0.984s-1.303,1.469-1.553,2.438c-0.156,0.633-0.234,1.789-0.234,3.469v4.676h-1.641V477.845z"/>
		<path fill="#FFFFFF" d="M335.03,483.4h6.445v1.43h-6.445V483.4z"/>
		<path fill="#FFFFFF" d="M348.134,477.845h1.641v2.203c0.571-0.812,1.157-1.406,1.76-1.781c0.829-0.5,1.701-0.75,2.616-0.75
			c0.618,0,1.204,0.121,1.76,0.363s1.009,0.564,1.361,0.967c0.352,0.402,0.657,0.979,0.915,1.729c0.545-1,1.228-1.76,2.046-2.279
			s1.699-0.779,2.642-0.779c0.881,0,1.658,0.223,2.333,0.668c0.674,0.445,1.175,1.066,1.502,1.863s0.491,1.992,0.491,3.586v6.961
			h-1.676v-6.961c0-1.367-0.098-2.307-0.292-2.818s-0.527-0.924-0.999-1.236c-0.471-0.312-1.033-0.469-1.688-0.469
			c-0.794,0-1.521,0.234-2.179,0.703c-0.657,0.469-1.139,1.094-1.442,1.875s-0.455,2.086-0.455,3.914v4.992h-1.641v-6.527
			c0-1.539-0.096-2.584-0.287-3.135s-0.525-0.992-1.002-1.324s-1.043-0.498-1.699-0.498c-0.758,0-1.467,0.229-2.127,0.686
			s-1.148,1.072-1.465,1.846s-0.475,1.957-0.475,3.551v5.402h-1.641V477.845z"/>
		<path fill="#FFFFFF" d="M387.44,477.845v12.75h-1.617v-2.191c-0.688,0.836-1.459,1.465-2.314,1.887s-1.791,0.633-2.807,0.633
			c-1.805,0-3.346-0.654-4.623-1.963s-1.916-2.9-1.916-4.775c0-1.836,0.645-3.406,1.934-4.711s2.84-1.957,4.652-1.957
			c1.047,0,1.994,0.223,2.842,0.668s1.592,1.113,2.232,2.004v-2.344H387.44z M380.884,479.099c-0.913,0-1.756,0.225-2.528,0.673
			c-0.772,0.449-1.388,1.079-1.844,1.891s-0.685,1.67-0.685,2.575c0,0.897,0.23,1.756,0.69,2.575s1.079,1.458,1.855,1.914
			s1.609,0.685,2.499,0.685c0.897,0,1.748-0.227,2.552-0.679c0.804-0.453,1.422-1.065,1.855-1.838
			c0.433-0.772,0.649-1.643,0.649-2.61c0-1.475-0.485-2.708-1.457-3.699C383.5,479.595,382.304,479.099,380.884,479.099z"/>
		<path fill="#FFFFFF" d="M395.235,477.845h1.641v2.344c0.647-0.891,1.393-1.559,2.236-2.004c0.843-0.445,1.783-0.668,2.821-0.668
			c1.811,0,3.359,0.652,4.647,1.957s1.932,2.875,1.932,4.711c0,1.875-0.638,3.467-1.914,4.775s-2.815,1.963-4.618,1.963
			c-1.015,0-1.947-0.211-2.798-0.633c-0.852-0.422-1.62-1.051-2.307-1.887v6.855h-1.641V477.845z M401.798,479.099
			c-1.419,0-2.613,0.496-3.584,1.487c-0.97,0.991-1.455,2.224-1.455,3.699c0,0.968,0.216,1.838,0.648,2.61s1.053,1.385,1.859,1.838
			c0.807,0.452,1.658,0.679,2.555,0.679c0.881,0,1.709-0.228,2.484-0.685s1.394-1.095,1.854-1.914
			c0.459-0.819,0.689-1.678,0.689-2.575c0-0.905-0.229-1.764-0.684-2.575c-0.456-0.812-1.07-1.441-1.842-1.891
			C403.552,479.324,402.71,479.099,401.798,479.099z"/>
		<path fill="#FFFFFF" d="M415.687,477.845h1.641v2.344c0.647-0.891,1.393-1.559,2.236-2.004c0.843-0.445,1.783-0.668,2.821-0.668
			c1.811,0,3.359,0.652,4.647,1.957s1.932,2.875,1.932,4.711c0,1.875-0.638,3.467-1.914,4.775s-2.815,1.963-4.618,1.963
			c-1.015,0-1.947-0.211-2.798-0.633c-0.852-0.422-1.62-1.051-2.307-1.887v6.855h-1.641V477.845z M422.249,479.099
			c-1.419,0-2.613,0.496-3.584,1.487c-0.97,0.991-1.455,2.224-1.455,3.699c0,0.968,0.216,1.838,0.648,2.61s1.053,1.385,1.859,1.838
			c0.807,0.452,1.658,0.679,2.555,0.679c0.881,0,1.709-0.228,2.484-0.685s1.394-1.095,1.854-1.914
			c0.459-0.819,0.689-1.678,0.689-2.575c0-0.905-0.229-1.764-0.684-2.575c-0.456-0.812-1.07-1.441-1.842-1.891
			C424.003,479.324,423.161,479.099,422.249,479.099z"/>
		<path fill="#FFFFFF" d="M436.683,472.595c0.373,0,0.692,0.133,0.957,0.398c0.264,0.266,0.396,0.586,0.396,0.961
			c0,0.367-0.133,0.684-0.396,0.949c-0.265,0.266-0.584,0.398-0.957,0.398c-0.365,0-0.681-0.133-0.945-0.398
			s-0.396-0.582-0.396-0.949c0-0.375,0.132-0.695,0.396-0.961S436.317,472.595,436.683,472.595z M435.868,477.845h1.641v12.75
			h-1.641V477.845z"/>
		<path fill="#FFFFFF" d="M444.998,477.845h1.641v2.285c0.656-0.875,1.383-1.529,2.18-1.963s1.664-0.65,2.602-0.65
			c0.953,0,1.799,0.242,2.537,0.727s1.283,1.137,1.635,1.957s0.527,2.098,0.527,3.832v6.562h-1.641v-6.082
			c0-1.469-0.061-2.449-0.183-2.941c-0.19-0.844-0.555-1.479-1.094-1.904s-1.242-0.639-2.109-0.639
			c-0.993,0-1.882,0.328-2.667,0.984s-1.303,1.469-1.553,2.438c-0.156,0.633-0.234,1.789-0.234,3.469v4.676h-1.641V477.845z"/>
		<path fill="#FFFFFF" d="M474.707,477.845h1.641v10.16c0,1.789-0.156,3.098-0.469,3.926c-0.43,1.172-1.176,2.074-2.238,2.707
			s-2.34,0.949-3.832,0.949c-1.094,0-2.076-0.155-2.947-0.464s-1.58-0.725-2.127-1.246c-0.547-0.521-1.051-1.283-1.512-2.286h1.781
			c0.484,0.844,1.11,1.469,1.877,1.875s1.717,0.609,2.852,0.609c1.118,0,2.062-0.208,2.833-0.625s1.32-0.94,1.648-1.571
			c0.329-0.63,0.493-1.649,0.493-3.054v-0.656c-0.618,0.781-1.373,1.381-2.264,1.799c-0.892,0.418-1.838,0.627-2.839,0.627
			c-1.174,0-2.276-0.291-3.309-0.873s-1.83-1.365-2.393-2.35c-0.563-0.984-0.845-2.066-0.845-3.246s0.293-2.279,0.88-3.299
			s1.397-1.826,2.434-2.42s2.13-0.891,3.279-0.891c0.954,0,1.844,0.197,2.669,0.592c0.824,0.395,1.62,1.045,2.387,1.951V477.845z
			 M469.867,479.099c-0.93,0-1.793,0.225-2.59,0.674s-1.422,1.07-1.875,1.863s-0.68,1.65-0.68,2.572
			c0,1.398,0.469,2.555,1.406,3.469s2.152,1.371,3.645,1.371c1.508,0,2.721-0.453,3.639-1.359s1.377-2.098,1.377-3.574
			c0-0.961-0.211-1.818-0.633-2.572s-1.02-1.35-1.793-1.787S470.758,479.099,469.867,479.099z"/>
	</g>
</g>
</svg>
