<?xml version="1.0" encoding="utf-8"?>
<!-- Generator: Adobe Illustrator 16.0.4, SVG Export Plug-In . SVG Version: 6.00 Build 0)  -->
<!DOCTYPE svg PUBLIC "-//W3C//DTD SVG 1.1//EN" "http://www.w3.org/Graphics/SVG/1.1/DTD/svg11.dtd">
<svg version="1.1" xmlns="http://www.w3.org/2000/svg" xmlns:xlink="http://www.w3.org/1999/xlink" x="0px" y="0px" width="320px"
	 height="450px" viewBox="0 0 320 450" enable-background="new 0 0 320 450" xml:space="preserve">
<g id="Layer_1">
	<g id="Colour_4_" opacity="0.2">
		<g>
			<polygon fill="#CF6A69" points="-2.369,-63 -2.369,7.529 86.813,-63 			"/>
			<polygon fill="#CE5B5B" points="86.813,-63 124.027,15.281 42.221,7.529 29.273,-17.497 			"/>
			<polygon fill="#D87374" points="29.273,-17.497 -2.369,7.529 42.221,7.529 			"/>
			<polygon fill="#D5748E" points="42.221,7.529 19.928,46.349 80.576,77.497 73.804,20.282 			"/>
			<polygon fill="#CC6E8A" points="42.221,7.529 73.804,20.282 124.027,15.281 			"/>
			<polygon fill="#C9678D" points="19.928,46.349 -2.369,7.529 42.221,7.529 			"/>
			<polygon fill="#DD7C6C" points="124.027,15.281 148.286,-32.872 86.813,-63 			"/>
			<polygon fill="#D58467" points="86.813,-63 188.232,-63 154.379,-4.983 148.286,-31.857 			"/>
			<polygon fill="#DC6F90" points="73.804,20.282 130.681,62.257 91.073,109.992 80.576,77.497 			"/>
			<polygon fill="#D65C87" points="73.804,20.282 124.027,15.281 154.379,40.253 130.681,62.257 			"/>
			<polygon fill="#E15990" points="124.027,15.281 154.379,-4.983 174.354,42.513 154.379,40.253 			"/>
			<polygon fill="#BA5D82" points="-2.369,7.529 -2.369,85.278 25.394,88.325 19.928,46.349 			"/>
			<polygon fill="#AF557F" points="19.928,46.349 25.394,88.325 56.54,109.992 80.576,77.497 			"/>
			<polygon fill="#D19667" points="188.232,-63 198.475,-30.755 245.193,-63 			"/>
			<polygon fill="#D2A56A" points="188.232,-63 164.378,-22.121 190.857,-1.555 198.475,-30.755 			"/>
			<polygon fill="#D69D59" points="154.379,-4.983 194.664,20.282 190.857,-1.555 164.378,-22.121 			"/>
			<polygon fill="#CE4E88" points="154.379,-4.983 192.126,38.768 174.354,42.513 			"/>
			<polygon fill="#C14181" points="154.379,-4.983 192.126,38.768 194.664,20.282 			"/>
			<polygon fill="#DBAC6B" points="198.475,-30.755 225.896,10.124 227.803,-50.997 			"/>
			<polygon fill="#CF9F5F" points="198.475,-30.755 203.297,13.904 225.896,10.124 			"/>
			<polygon fill="#C88049" points="227.803,-50.997 245.193,-63 274.139,-63 250.971,-22.121 			"/>
			<polygon fill="#E6965F" points="227.803,-50.997 241.383,-8.426 250.971,-22.121 			"/>
			<polygon fill="#C08E51" points="198.475,-30.755 190.857,-1.555 194.664,20.282 202.536,30.947 203.297,13.904 			"/>
			<polygon fill="#B17C47" points="203.297,13.904 225.896,10.124 218.787,58.622 202.536,30.947 			"/>
			<polygon fill="#D8874F" points="227.803,-50.997 225.896,10.124 241.383,-8.426 			"/>
			<polygon fill="#CC8D32" points="274.139,-63 287.596,-32.278 322.636,-63 			"/>
			<polygon fill="#D78D2A" points="287.596,-32.278 250.971,-22.121 274.139,-63 			"/>
			<polygon fill="#CBA734" points="322.636,-63 322.636,-11.203 298.389,-41.74 			"/>
			<polygon fill="#C49A2D" points="322.636,-11.203 277.691,-15.775 298.389,-41.74 			"/>
			<polygon fill="#B88C2D" points="298.389,-41.74 287.596,-32.278 265.507,-13.489 277.691,-14.76 			"/>
			<polygon fill="#C6922C" points="250.971,-22.121 265.507,-13.489 287.596,-32.278 			"/>
			<polygon fill="#D49929" points="278.416,-15.702 271.854,2.507 265.507,-13.489 			"/>
			<polygon fill="#B2882D" points="278.416,-15.702 322.636,-11.203 322.636,10.124 271.854,2.507 			"/>
			<polygon fill="#D27B40" points="250.971,-22.121 241.383,-8.426 259.666,7.84 271.854,2.507 			"/>
			<polygon fill="#D59729" points="250.971,-22.121 271.854,2.507 265.507,-13.489 			"/>
			<polygon fill="#C6902B" points="322.636,10.124 290.896,41.354 271.854,2.507 			"/>
			<polygon fill="#D59729" points="259.666,7.84 245.193,58.622 282.799,24.836 271.854,2.507 			"/>
			<polygon fill="#D18A29" points="241.383,-8.426 245.193,58.622 259.666,7.84 			"/>
			<polygon fill="#DD9328" points="241.383,-8.426 225.896,10.124 243.816,34.374 			"/>
			<polygon fill="#DD9328" points="290.896,41.354 322.636,34.374 322.636,10.124 			"/>
			<polygon fill="#DBA927" points="322.636,75.125 290.896,41.354 322.636,34.374 			"/>
			<polygon fill="#E9B021" points="290.896,41.354 245.193,58.622 282.799,24.836 			"/>
			<polygon fill="#F5B11A" points="245.193,58.622 285.057,80.71 290.896,41.354 			"/>
			<polygon fill="#FAAC18" points="290.896,41.354 285.057,80.71 303.848,105.34 			"/>
			<polygon fill="#FCB813" points="290.896,41.354 303.848,105.34 322.636,113.212 322.636,75.125 			"/>
			<polygon fill="#F8D212" points="303.848,105.34 276.424,113.212 322.636,113.212 			"/>
			<polygon fill="#FFC512" points="285.057,80.71 276.424,113.212 303.848,105.34 			"/>
			<polygon fill="#ADA144" points="225.896,10.124 218.787,58.622 229.957,89.598 			"/>
			<polygon fill="#A29233" points="225.896,10.124 243.816,34.374 245.193,58.622 229.957,89.598 			"/>
			<polygon fill="#959F39" points="245.193,58.622 273.236,74.162 229.957,89.598 			"/>
			<polygon fill="#B4B945" points="273.236,74.162 276.424,113.212 285.057,80.71 			"/>
			<polygon fill="#B4B945" points="273.236,74.162 227.803,114.733 229.957,89.598 			"/>
			<polygon fill="#A8A836" points="273.236,74.162 276.424,113.212 227.803,114.733 			"/>
			<polygon fill="#AF6246" points="194.664,20.282 192.126,38.768 200.76,68.777 218.787,58.622 202.536,30.947 			"/>
			<polygon fill="#AD7D47" points="218.787,58.622 200.76,68.777 227.803,114.733 229.957,89.598 			"/>
			<polygon fill="#B459A1" points="174.354,42.513 161.402,70.81 197.839,58.622 192.126,38.768 			"/>
			<polygon fill="#B960A4" points="154.379,40.253 161.402,70.81 174.354,42.513 			"/>
			<polygon fill="#AC7AB4" points="161.402,70.81 209.438,83.523 200.76,68.777 197.839,58.622 			"/>
			<polygon fill="#B26EAC" points="154.379,40.253 130.681,62.257 145.153,82.236 161.402,70.81 			"/>
			<polygon fill="#A46CAD" points="161.402,70.81 187.048,137.587 193.675,79.35 			"/>
			<polygon fill="#955CA4" points="187.048,137.587 217.344,96.961 209.438,83.523 193.675,79.35 			"/>
			<polygon fill="#895BA5" points="217.344,96.961 197.839,123.119 227.803,114.733 			"/>
			<polygon fill="#6262AB" points="197.839,123.119 237.068,149.014 227.803,114.733 			"/>
			<polygon fill="#595EA9" points="197.839,123.119 187.048,137.587 237.068,149.014 			"/>
			<polygon fill="#6568AE" points="187.048,137.587 202.195,159.422 237.068,149.014 			"/>
			<polygon fill="#7D7FBC" points="187.048,137.587 156.58,131.874 168.62,89.598 			"/>
			<polygon fill="#6769AF" points="161.402,70.81 156.58,131.874 168.62,89.598 			"/>
			<polygon fill="#696DB1" points="161.402,70.81 130.681,127.43 156.58,131.874 			"/>
			<polygon fill="#6163AC" points="156.58,131.874 202.195,159.422 187.048,137.587 			"/>
			<polygon fill="#6163AC" points="161.402,70.81 145.153,82.236 130.681,127.43 			"/>
			<polygon fill="#7A7CBA" points="130.681,62.257 130.681,127.43 145.153,82.236 			"/>
			<polygon fill="#6F72B4" points="130.681,62.257 91.073,109.992 130.681,127.43 			"/>
			<polygon fill="#6367AE" points="91.073,109.992 127.126,150.282 130.681,127.43 			"/>
			<polygon fill="#585EA9" points="156.58,131.874 127.126,150.282 130.681,127.43 			"/>
			<polygon fill="#5659A6" points="156.58,131.874 168.62,174.405 202.195,159.422 			"/>
			<polygon fill="#494D9F" points="156.58,131.874 139.821,175.928 168.62,174.405 			"/>
			<polygon fill="#494D9F" points="202.195,159.422 195.936,189.637 237.068,149.014 			"/>
			<polygon fill="#8B8834" points="227.803,114.733 249.256,133.905 276.424,113.212 			"/>
			<polygon fill="#7A762F" points="227.803,114.733 237.068,149.014 249.256,133.905 			"/>
			<polygon fill="#DBB626" points="276.424,113.212 275.027,133.27 294.452,113.212 			"/>
			<polygon fill="#9D9835" points="275.912,113.227 252.111,131.874 275.855,121.341 276.424,113.212 			"/>
			<polygon fill="#515BA7" points="127.126,150.282 100.21,189.637 156.58,131.874 			"/>
			<polygon fill="#4C56A4" points="156.58,131.874 139.821,175.928 100.21,189.637 			"/>
			<polygon fill="#4652A2" points="100.21,189.637 139.821,210.881 139.821,175.928 			"/>
			<polygon fill="#4051A2" points="139.821,175.928 139.821,210.881 168.62,174.405 			"/>
			<path fill="#EE5291" d="M77.02,156.544"/>
			<polygon fill="#C44E83" points="25.394,88.325 13.039,120.659 -2.369,85.278 			"/>
			<polygon fill="#CD4489" points="25.394,88.325 13.039,120.659 29.795,128.275 			"/>
			<polygon fill="#D33A8D" points="25.394,88.325 38.596,112.703 29.795,128.275 			"/>
			<polygon fill="#D32189" points="25.394,88.325 38.596,112.703 56.54,109.992 			"/>
			<polygon fill="#D6699E" points="-2.369,85.278 -2.369,122.013 13.039,120.659 			"/>
			<path fill="#EE5291" d="M80.219,77.978"/>
			<polygon fill="#EE5291" points="80.576,77.497 76.915,120.066 91.073,109.992 			"/>
			<polygon fill="#ED448F" points="80.576,77.497 56.54,109.992 76.915,120.066 			"/>
			<polygon fill="#EE549D" points="56.54,109.992 38.083,55.675 80.576,77.497 			"/>
			<polygon fill="#C66483" points="80.576,77.497 73.804,20.282 42.221,7.529 			"/>
			<polygon fill="#C66161" points="29.273,-17.497 124.027,15.281 42.221,7.529 			"/>
			<polygon fill="#D26F62" points="86.813,-63 71.793,-2.788 124.027,15.281 			"/>
			<polygon fill="#C15A59" points="-2.369,-61.985 29.273,-17.497 -2.369,7.529 			"/>
			<polygon fill="#C5A72E" points="275.855,121.341 275.027,133.27 267.282,156.375 271.852,123.119 			"/>
			<polygon fill="#8D8633" points="271.852,123.119 252.111,131.874 267.282,156.375 			"/>
			<polygon fill="#DBB626" points="294.452,113.212 303.848,136.909 322.636,113.212 			"/>
			<polygon fill="#CAA52C" points="294.452,113.212 289.121,149.945 275.027,133.27 			"/>
			<polygon fill="#EBB01F" points="303.848,105.34 276.424,113.212 300.293,113.212 			"/>
			<polygon fill="#5054A3" points="237.068,149.014 243.416,176.435 222.568,163.333 			"/>
			<polygon fill="#718739" points="252.111,131.874 249.256,133.905 237.068,149.014 249.256,154.979 			"/>
			<polygon fill="#6E8036" points="252.111,131.874 249.256,154.979 267.282,156.375 			"/>
			<polygon fill="#4E6BB2" points="237.068,149.014 243.416,176.435 249.256,154.979 			"/>
			<polygon fill="#4E72B7" points="249.256,154.979 267.282,156.375 243.416,176.435 			"/>
			<polygon fill="#4F7ABC" points="243.416,176.435 281.333,201.065 267.282,156.375 			"/>
			<polygon fill="#92C33E" points="267.282,156.375 275.027,133.27 289.121,149.945 281.333,201.065 			"/>
			<polygon fill="#B9982F" points="289.121,149.945 303.848,136.909 294.452,113.212 			"/>
			<polygon fill="#CAC22D" points="267.282,156.375 289.121,149.945 275.027,133.27 			"/>
			<polygon fill="#DBDA20" points="322.636,113.212 322.636,159.422 303.848,136.909 			"/>
			<polygon fill="#B1D135" points="303.848,136.909 299.529,180.75 322.636,159.422 			"/>
			<polygon fill="#9BCA3B" points="303.848,136.909 289.121,149.945 299.529,180.75 			"/>
			<polygon fill="#8EB53E" points="289.121,149.945 281.333,201.065 299.529,217.994 299.529,180.75 			"/>
			<polygon fill="#D03D67" points="29.795,128.275 38.596,179.061 38.596,112.703 			"/>
			<polygon fill="#CB2E63" points="38.596,112.703 38.596,176.435 56.54,109.992 			"/>
			<polygon fill="#D21C5E" points="56.54,109.992 76.915,120.066 38.596,176.435 			"/>
			<polygon fill="#D01E48" points="76.915,120.066 91.073,109.992 127.126,150.282 65.004,137.587 			"/>
			<polygon fill="#CB1D5C" points="38.596,179.061 68.557,161.963 53.915,153.901 38.596,176.435 			"/>
			<polygon fill="#C15690" points="13.039,120.659 -2.369,163.739 -2.369,122.013 			"/>
			<polygon fill="#E44E89" points="13.039,120.659 25.394,156.544 33.817,151.483 29.795,128.275 			"/>
			<polygon fill="#5D63AC" points="127.126,150.282 60.347,179.061 100.21,189.637 			"/>
			<polygon fill="#C11F46" points="65.004,137.587 76.915,171.92 127.126,150.282 			"/>
			<polygon fill="#AE1E47" points="65.004,137.587 53.915,153.901 68.557,161.963 76.915,171.92 			"/>
			<polygon opacity="0.6" fill="#AE1E47" enable-background="new    " points="127.126,150.282 116.85,121.341 91.073,109.992 			
				"/>
			<polygon opacity="0.7" fill="#C12F68" enable-background="new    " points="116.85,121.341 130.681,62.257 91.073,109.992 			"/>
			<polygon fill="#CE5B5B" points="29.273,-17.497 47.568,-63 86.813,-63 			"/>
			<path fill="#CE5B5B" d="M86.813-63"/>
			<polygon fill="#CC6E61" points="86.813,-63 126.788,-63 134.037,-39.076 			"/>
			<polygon fill="#CE6459" points="126.788,-63 154.379,-63 134.037,-39.076 			"/>
			<polygon fill="#CE514B" points="154.379,-63 145.999,-33.992 134.037,-39.076 			"/>
			<polygon opacity="0.4" fill="#CE514B" enable-background="new    " points="174.354,42.513 175.617,66.054 161.402,70.81 			"/>
			<polygon opacity="0.4" fill="#CE514B" enable-background="new    " points="130.681,62.257 124.027,15.281 73.804,20.282 			"/>
			<polygon opacity="0.4" fill="#CE514B" enable-background="new    " points="19.928,46.349 -2.369,86.679 -2.369,10.124 			"/>
			<polygon opacity="0.5" fill="#CE514B" enable-background="new    " points="73.804,20.282 80.576,77.497 91.073,109.992 
				93.102,34.524 			"/>
			<polygon fill="#B8498B" points="13.039,120.659 -2.369,163.739 -2.369,176.435 13.039,192.643 			"/>
			<polygon fill="#B8498B" points="13.039,120.659 13.039,192.643 25.394,156.544 			"/>
			<path fill="#CC6D56" d="M154.379-4.983"/>
			<polygon fill="#D5785A" points="147.876,-32.063 164.378,-22.715 154.379,-4.983 			"/>
			<polygon fill="#D56D51" points="147.876,-32.063 142.508,2.942 154.379,-4.983 			"/>
			<polygon fill="#D1573F" points="147.876,-32.063 124.027,15.281 142.508,2.942 			"/>
			<polygon opacity="0.5" fill="#D1573F" enable-background="new    " points="147.876,-32.063 145.999,-33.992 134.037,-39.076 
				124.224,14.895 			"/>
			<polygon fill="#C45C55" points="86.813,-63 71.793,-2.788 96.064,5.608 			"/>
			<polygon opacity="0.4" fill="#C45C55" enable-background="new    " points="188.232,-63 190.857,-1.555 198.475,-30.755 			"/>
			<polygon opacity="0.6" fill="#C45C55" enable-background="new    " points="86.813,-63 134.037,-39.076 110.425,-13.333 			"/>
			<polygon opacity="0.6" fill="#CE5B5B" enable-background="new    " points="47.568,-63 11.513,-42.562 29.273,-17.497 			"/>
			<polygon opacity="0.4" fill="#CE5B5B" enable-background="new    " points="42.221,7.529 19.928,46.349 43.822,58.622 			"/>
			<polygon fill="#CE5B5B" points="93.102,34.524 113.606,82.834 91.073,109.992 			"/>
			<polygon fill="#C15A59" points="86.813,-63 29.273,-17.497 51.501,-9.808 			"/>
		</g>
		<g>
			<polygon fill="#CF6A69" points="322.391,512.635 322.391,442.105 233.207,512.635 			"/>
			<polygon fill="#CE5B5B" points="233.207,512.635 195.993,434.351 277.799,442.105 290.748,467.128 			"/>
			<polygon fill="#D87374" points="290.748,467.128 322.391,442.105 277.799,442.105 			"/>
			<polygon fill="#D5748E" points="277.799,442.105 300.096,403.286 239.447,372.138 246.218,429.353 			"/>
			<polygon fill="#CC6E8A" points="277.799,442.105 246.218,429.353 195.993,434.351 			"/>
			<polygon fill="#C9678D" points="300.096,403.286 322.391,442.105 277.799,442.105 			"/>
			<polygon fill="#DD7C6C" points="195.993,434.351 171.736,482.508 233.207,512.635 			"/>
			<polygon fill="#D58467" points="233.207,512.635 131.79,512.635 165.643,454.618 171.736,481.487 			"/>
			<polygon fill="#DC6F90" points="246.218,429.353 189.343,387.376 228.95,339.642 239.447,372.138 			"/>
			<polygon fill="#D65C87" points="246.218,429.353 195.993,434.351 165.643,409.379 189.343,387.376 			"/>
			<polygon fill="#E15990" points="195.993,434.351 165.643,454.618 145.669,407.122 165.643,409.379 			"/>
			<polygon fill="#BA5D82" points="322.391,442.105 322.391,364.355 294.627,361.307 300.096,403.286 			"/>
			<polygon fill="#AF557F" points="300.096,403.286 294.627,361.307 263.482,339.642 239.447,372.138 			"/>
			<polygon fill="#D19667" points="131.79,512.635 121.55,480.389 74.83,512.635 			"/>
			<polygon fill="#D2A56A" points="131.79,512.635 155.644,471.754 129.166,451.188 121.55,480.389 			"/>
			<polygon fill="#D69D59" points="165.643,454.618 125.356,429.353 129.166,451.188 155.644,471.754 			"/>
			<polygon fill="#CE4E88" points="165.643,454.618 127.896,410.862 145.669,407.122 			"/>
			<polygon fill="#C14181" points="165.643,454.618 127.896,410.862 125.356,429.353 			"/>
			<polygon fill="#DBAC6B" points="121.55,480.389 94.127,439.508 92.221,500.628 			"/>
			<polygon fill="#CF9F5F" points="121.55,480.389 116.724,435.729 94.127,439.508 			"/>
			<polygon fill="#C88049" points="92.221,500.628 74.83,512.635 45.883,512.635 69.052,471.754 			"/>
			<polygon fill="#E6965F" points="92.221,500.628 78.637,458.059 69.052,471.754 			"/>
			<polygon fill="#C08E51" points="121.55,480.389 129.166,451.188 125.356,429.353 117.485,418.69 116.724,435.729 			"/>
			<polygon fill="#B17C47" points="116.724,435.729 94.127,439.508 101.236,391.012 117.485,418.69 			"/>
			<polygon fill="#D8874F" points="92.221,500.628 94.127,439.508 78.637,458.059 			"/>
			<polygon fill="#CC8D32" points="45.883,512.635 32.425,481.909 -2.613,512.635 			"/>
			<polygon fill="#D78D2A" points="32.425,481.909 69.052,471.754 45.883,512.635 			"/>
			<polygon fill="#CBA734" points="-2.613,512.635 -2.613,460.838 21.635,491.371 			"/>
			<polygon fill="#C49A2D" points="-2.613,460.838 42.329,465.406 21.635,491.371 			"/>
			<polygon fill="#B88C2D" points="21.635,491.371 32.425,481.909 54.517,463.123 42.329,464.391 			"/>
			<polygon fill="#C6922C" points="69.052,471.754 54.517,463.123 32.425,481.909 			"/>
			<polygon fill="#D49929" points="41.605,465.335 48.168,447.126 54.517,463.123 			"/>
			<polygon fill="#B2882D" points="41.605,465.335 -2.613,460.838 -2.613,439.508 48.168,447.126 			"/>
			<polygon fill="#D27B40" points="69.052,471.754 78.637,458.059 60.355,441.793 48.168,447.126 			"/>
			<polygon fill="#D59729" points="69.052,471.754 48.168,447.126 54.517,463.123 			"/>
			<polygon fill="#C6902B" points="-2.613,439.508 29.126,408.275 48.168,447.126 			"/>
			<polygon fill="#D59729" points="60.355,441.793 74.83,391.012 37.223,424.796 48.168,447.126 			"/>
			<polygon fill="#D18A29" points="78.637,458.059 74.83,391.012 60.355,441.793 			"/>
			<polygon fill="#DD9328" points="78.637,458.059 94.127,439.508 76.207,415.26 			"/>
			<polygon fill="#DD9328" points="29.126,408.275 -2.613,415.26 -2.613,439.508 			"/>
			<polygon fill="#DBA927" points="-2.613,374.509 29.126,408.275 -2.613,415.26 			"/>
			<polygon fill="#E9B021" points="29.126,408.275 74.83,391.012 37.223,424.796 			"/>
			<polygon fill="#F5B11A" points="74.83,391.012 34.966,368.919 29.126,408.275 			"/>
			<polygon fill="#FAAC18" points="29.126,408.275 34.966,368.919 16.176,344.292 			"/>
			<polygon fill="#FCB813" points="29.126,408.275 16.176,344.292 -2.613,336.423 -2.613,374.509 			"/>
			<polygon fill="#F8D212" points="16.176,344.292 43.599,336.423 -2.613,336.423 			"/>
			<polygon fill="#FFC512" points="34.966,368.919 43.599,336.423 16.176,344.292 			"/>
			<polygon fill="#ADA144" points="94.127,439.508 101.236,391.012 90.063,360.036 			"/>
			<polygon fill="#A29233" points="94.127,439.508 76.207,415.26 74.83,391.012 90.063,360.036 			"/>
			<polygon fill="#959F39" points="74.83,391.012 46.787,375.473 90.063,360.036 			"/>
			<polygon fill="#B4B945" points="46.787,375.473 43.599,336.423 34.966,368.919 			"/>
			<polygon fill="#B4B945" points="46.787,375.473 92.221,334.896 90.063,360.036 			"/>
			<polygon fill="#A8A836" points="46.787,375.473 43.599,336.423 92.221,334.896 			"/>
			<polygon fill="#AF6246" points="125.356,429.353 127.896,410.862 119.263,380.856 101.236,391.012 117.485,418.69 			"/>
			<polygon fill="#AD7D47" points="101.236,391.012 119.263,380.856 92.221,334.896 90.063,360.036 			"/>
			<polygon fill="#B459A1" points="145.669,407.122 158.618,378.826 122.185,391.012 127.896,410.862 			"/>
			<polygon fill="#B960A4" points="165.643,409.379 158.618,378.826 145.669,407.122 			"/>
			<polygon fill="#AC7AB4" points="158.618,378.826 110.588,366.107 119.263,380.856 122.185,391.012 			"/>
			<polygon fill="#B26EAC" points="165.643,409.379 189.343,387.376 174.867,367.399 158.618,378.826 			"/>
			<polygon fill="#A46CAD" points="158.618,378.826 132.973,312.049 126.349,370.282 			"/>
			<polygon fill="#955CA4" points="132.973,312.049 102.678,352.672 110.588,366.107 126.349,370.282 			"/>
			<polygon fill="#895BA5" points="102.678,352.672 122.185,326.514 92.221,334.896 			"/>
			<polygon fill="#6262AB" points="122.185,326.514 82.955,300.619 92.221,334.896 			"/>
			<polygon fill="#595EA9" points="122.185,326.514 132.973,312.049 82.955,300.619 			"/>
			<polygon fill="#6568AE" points="132.973,312.049 117.828,290.214 82.955,300.619 			"/>
			<polygon fill="#7D7FBC" points="132.973,312.049 163.443,317.759 151.404,360.036 			"/>
			<polygon fill="#6769AF" points="158.618,378.826 163.443,317.759 151.404,360.036 			"/>
			<polygon fill="#696DB1" points="158.618,378.826 189.343,322.2 163.443,317.759 			"/>
			<polygon fill="#6163AC" points="163.443,317.759 117.828,290.214 132.973,312.049 			"/>
			<polygon fill="#6163AC" points="158.618,378.826 174.867,367.399 189.343,322.2 			"/>
			<polygon fill="#7A7CBA" points="189.343,387.376 189.343,322.2 174.867,367.399 			"/>
			<polygon fill="#6F72B4" points="189.343,387.376 228.95,339.642 189.343,322.2 			"/>
			<polygon fill="#6367AE" points="228.95,339.642 192.896,299.35 189.343,322.2 			"/>
			<polygon fill="#585EA9" points="163.443,317.759 192.896,299.35 189.343,322.2 			"/>
			<polygon fill="#5659A6" points="163.443,317.759 151.404,275.23 117.828,290.214 			"/>
			<polygon fill="#494D9F" points="163.443,317.759 180.199,273.705 151.404,275.23 			"/>
			<polygon fill="#494D9F" points="117.828,290.214 124.086,259.994 82.955,300.619 			"/>
			<polygon fill="#8B8834" points="92.221,334.896 70.766,315.729 43.599,336.423 			"/>
			<polygon fill="#7A762F" points="92.221,334.896 82.955,300.619 70.766,315.729 			"/>
			<polygon fill="#DBB626" points="43.599,336.423 44.995,316.363 25.571,336.423 			"/>
			<polygon fill="#9D9835" points="44.111,336.405 67.909,317.759 44.165,328.295 43.599,336.423 			"/>
			<polygon fill="#515BA7" points="192.896,299.35 219.811,259.994 163.443,317.759 			"/>
			<polygon fill="#4C56A4" points="163.443,317.759 180.199,273.705 219.811,259.994 			"/>
			<polygon fill="#4652A2" points="219.811,259.994 180.199,238.75 180.199,273.705 			"/>
			<polygon fill="#4051A2" points="180.199,273.705 180.199,238.75 151.404,275.23 			"/>
			<path fill="#EE5291" d="M243.001,293.089"/>
			<polygon fill="#C44E83" points="294.627,361.307 306.984,328.976 322.391,364.355 			"/>
			<polygon fill="#CD4489" points="294.627,361.307 306.984,328.976 290.227,321.357 			"/>
			<polygon fill="#D33A8D" points="294.627,361.307 281.425,336.932 290.227,321.357 			"/>
			<polygon fill="#D32189" points="294.627,361.307 281.425,336.932 263.482,339.642 			"/>
			<polygon fill="#D6699E" points="322.391,364.355 322.391,327.62 306.984,328.976 			"/>
			<path fill="#EE5291" d="M239.803,371.654"/>
			<polygon fill="#EE5291" points="239.447,372.138 243.107,329.565 228.95,339.642 			"/>
			<polygon fill="#ED448F" points="239.447,372.138 263.482,339.642 243.107,329.565 			"/>
			<polygon fill="#EE549D" points="263.482,339.642 281.938,393.959 239.447,372.138 			"/>
			<polygon fill="#C66483" points="239.447,372.138 246.218,429.353 277.799,442.105 			"/>
			<polygon fill="#C66161" points="290.748,467.128 195.993,434.351 277.799,442.105 			"/>
			<polygon fill="#D26F62" points="233.207,512.635 248.229,452.421 195.993,434.351 			"/>
			<polygon fill="#C15A59" points="322.391,511.62 290.748,467.128 322.391,442.105 			"/>
			<polygon fill="#C5A72E" points="44.165,328.295 44.995,316.363 52.739,293.256 48.173,326.514 			"/>
			<polygon fill="#8D8633" points="48.173,326.514 67.909,317.759 52.739,293.256 			"/>
			<polygon fill="#DBB626" points="25.571,336.423 16.176,312.722 -2.613,336.423 			"/>
			<polygon fill="#CAA52C" points="25.571,336.423 30.902,299.688 44.995,316.363 			"/>
			<polygon fill="#EBB01F" points="16.176,344.292 43.599,336.423 19.731,336.423 			"/>
			<polygon fill="#5054A3" points="82.955,300.619 76.606,273.199 97.454,286.301 			"/>
			<polygon fill="#718739" points="67.909,317.759 70.766,315.729 82.955,300.619 70.766,294.65 			"/>
			<polygon fill="#6E8036" points="67.909,317.759 70.766,294.65 52.739,293.256 			"/>
			<polygon fill="#4E6BB2" points="82.955,300.619 76.606,273.199 70.766,294.65 			"/>
			<polygon fill="#4E72B7" points="70.766,294.65 52.739,293.256 76.606,273.199 			"/>
			<polygon fill="#4F7ABC" points="76.606,273.199 38.688,248.566 52.739,293.256 			"/>
			<polygon fill="#92C33E" points="52.739,293.256 44.995,316.363 30.902,299.688 38.688,248.566 			"/>
			<polygon fill="#B9982F" points="30.902,299.688 16.176,312.722 25.571,336.423 			"/>
			<polygon fill="#CAC22D" points="52.739,293.256 30.902,299.688 44.995,316.363 			"/>
			<polygon fill="#DBDA20" points="-2.613,336.423 -2.613,290.214 16.176,312.722 			"/>
			<polygon fill="#B1D135" points="16.176,312.722 20.494,268.883 -2.613,290.214 			"/>
			<polygon fill="#9BCA3B" points="16.176,312.722 30.902,299.688 20.494,268.883 			"/>
			<polygon fill="#8EB53E" points="30.902,299.688 38.688,248.566 20.494,231.643 20.494,268.883 			"/>
			<polygon fill="#D03D67" points="290.227,321.357 281.425,270.575 281.425,336.932 			"/>
			<polygon fill="#CB2E63" points="281.425,336.932 281.425,273.199 263.482,339.642 			"/>
			<polygon fill="#D21C5E" points="263.482,339.642 243.107,329.565 281.425,273.199 			"/>
			<polygon fill="#D01E48" points="243.107,329.565 228.95,339.642 192.896,299.35 255.018,312.049 			"/>
			<polygon fill="#CB1D5C" points="281.425,270.575 251.464,287.672 266.105,295.734 281.425,273.199 			"/>
			<polygon fill="#C15690" points="306.984,328.976 322.391,285.893 322.391,327.62 			"/>
			<polygon fill="#E44E89" points="306.984,328.976 294.627,293.089 286.205,298.148 290.227,321.357 			"/>
			<polygon fill="#5D63AC" points="192.896,299.35 259.674,270.575 219.811,259.994 			"/>
			<polygon fill="#C11F46" points="255.018,312.049 243.107,277.714 192.896,299.35 			"/>
			<polygon fill="#AE1E47" points="255.018,312.049 266.105,295.734 251.464,287.672 243.107,277.714 			"/>
			<polygon opacity="0.6" fill="#AE1E47" enable-background="new    " points="192.896,299.35 203.172,328.295 228.95,339.642 			
				"/>
			<polygon opacity="0.7" fill="#C12F68" enable-background="new    " points="203.172,328.295 189.343,387.376 228.95,339.642 			
				"/>
			<polygon fill="#CE5B5B" points="290.748,467.128 272.454,512.635 233.207,512.635 			"/>
			<path fill="#CE5B5B" d="M233.207,512.635"/>
			<polygon fill="#CC6E61" points="233.207,512.635 193.234,512.635 185.986,488.708 			"/>
			<polygon fill="#CE6459" points="193.234,512.635 165.643,512.635 185.986,488.708 			"/>
			<polygon fill="#CE514B" points="165.643,512.635 174.023,483.627 185.986,488.708 			"/>
			<polygon opacity="0.4" fill="#CE514B" enable-background="new    " points="145.669,407.122 144.405,383.581 158.618,378.826 			
				"/>
			<polygon opacity="0.4" fill="#CE514B" enable-background="new    " points="189.343,387.376 195.993,434.351 246.218,429.353 			
				"/>
			<polygon opacity="0.4" fill="#CE514B" enable-background="new    " points="300.096,403.286 322.391,362.956 322.391,439.508 			
				"/>
			<polygon opacity="0.5" fill="#CE514B" enable-background="new    " points="246.218,429.353 239.447,372.138 228.95,339.642 
				226.92,415.108 			"/>
			<polygon fill="#B8498B" points="306.984,328.976 322.391,285.893 322.391,273.199 306.984,256.993 			"/>
			<polygon fill="#B8498B" points="306.984,328.976 306.984,256.993 294.627,293.089 			"/>
			<path fill="#CC6D56" d="M165.643,454.618"/>
			<polygon fill="#D5785A" points="172.145,481.696 155.644,472.348 165.643,454.618 			"/>
			<polygon fill="#D56D51" points="172.145,481.696 177.514,446.691 165.643,454.618 			"/>
			<polygon fill="#D1573F" points="172.145,481.696 195.993,434.351 177.514,446.691 			"/>
			<polygon opacity="0.5" fill="#D1573F" enable-background="new    " points="172.145,481.696 174.023,483.627 185.986,488.708 
				195.799,434.739 			"/>
			<polygon fill="#C45C55" points="233.207,512.635 248.229,452.421 223.956,444.024 			"/>
			<polygon opacity="0.4" fill="#C45C55" enable-background="new    " points="131.79,512.635 129.166,451.188 121.55,480.389 			
				"/>
			<polygon opacity="0.6" fill="#C45C55" enable-background="new    " points="233.207,512.635 185.986,488.708 209.598,462.966 			
				"/>
			<polygon opacity="0.6" fill="#CE5B5B" enable-background="new    " points="272.454,512.635 308.51,492.195 290.748,467.128 			
				"/>
			<polygon opacity="0.4" fill="#CE5B5B" enable-background="new    " points="277.799,442.105 300.096,403.286 276.199,391.012 			
				"/>
			<polygon fill="#CE5B5B" points="226.92,415.108 206.415,366.802 228.95,339.642 			"/>
			<polygon fill="#C15A59" points="233.207,512.635 290.748,467.128 268.52,459.441 			"/>
		</g>
		<polygon fill="#3E4DA0" points="139.821,210.651 168.62,253.424 168.62,174.174 		"/>
		<polygon fill="#39489D" points="195.936,189.408 168.62,253.424 168.62,174.174 202.195,159.194 		"/>
		<polygon fill="#AC3D84" points="306.984,256.993 299.529,217.764 286.205,298.148 294.627,293.089 		"/>
		<polygon fill="#ABC537" points="299.529,217.764 322.391,192.412 322.636,159.194 299.529,180.522 		"/>
		<polygon fill="#4051A2" points="168.62,253.424 195.936,189.408 200.008,198.803 180.199,238.75 		"/>
		<polygon fill="#45499D" points="222.568,163.104 229.957,206.308 243.416,176.206 		"/>
		<polygon fill="#A83D81" points="13.039,192.412 -2.369,240.441 -2.369,176.206 		"/>
		<polygon fill="#C4589D" points="33.817,151.255 25.394,156.316 13.039,192.412 42.221,217.764 38.596,178.83 		"/>
		<polygon fill="#595EA9" points="60.347,178.83 97.454,233.846 100.21,189.408 		"/>
		<polygon fill="#545CA8" points="139.821,210.651 96.064,265.748 97.454,233.846 100.21,189.408 		"/>
		<polygon fill="#BB1E5D" points="68.557,161.733 38.596,178.83 67.909,217.764 76.915,171.692 		"/>
		<polygon fill="#A91E5B" points="38.596,178.83 42.221,217.764 73.804,248.566 67.909,217.764 		"/>
		<polygon fill="#B51F71" points="13.039,192.412 20.494,231.643 38.688,248.566 73.804,248.566 43.421,217.764 		"/>
		<polygon fill="#C4D82F" points="20.494,268.883 -2.369,213.699 -2.613,290.214 		"/>
		<polygon fill="#BFD130" points="13.039,192.412 1.979,224.196 20.494,268.883 20.494,231.643 		"/>
		<polygon fill="#497ABD" points="76.606,273.199 97.454,233.846 73.804,248.566 		"/>
		<polygon fill="#366CAA" points="73.804,248.566 67.909,217.764 72.111,196.27 97.454,233.846 		"/>
		<polygon fill="#A12277" points="38.688,248.566 76.606,273.199 73.804,248.566 		"/>
		<polygon fill="#3D73B4" points="96.064,265.748 76.606,273.199 97.454,233.846 		"/>
		<polygon fill="#39489D" points="139.821,210.651 151.404,275.23 168.62,253.424 		"/>
		<polygon fill="#5D63AC" points="139.821,210.651 124.086,259.994 119.263,235.324 		"/>
		<polygon fill="#4B56A4" points="139.821,210.651 137.917,281.249 151.404,275.23 		"/>
		<polygon fill="#5259A6" points="96.064,265.748 97.454,286.301 76.606,273.199 		"/>
		<polygon fill="#4B51A2" points="119.263,235.324 97.454,286.301 96.064,265.748 		"/>
		<polygon fill="#5259A6" points="119.453,236.297 118.137,237.956 97.454,286.301 124.086,259.994 		"/>
		<polygon fill="#5259A6" points="139.821,210.651 124.086,259.994 138.799,248.575 		"/>
		<polygon fill="#5259A6" points="124.086,259.994 137.917,281.249 117.828,290.214 		"/>
		<polygon fill="#4951A2" points="124.086,259.994 138.454,261.302 137.917,281.249 		"/>
		<polyline fill="#5259A6" points="124.086,259.994 138.799,248.575 138.454,261.302 124.291,260.307 		"/>
		<polygon fill="#E83686" points="281.425,270.575 263.482,228.934 259.674,270.575 264.218,280.393 		"/>
		<polygon fill="#E83686" points="299.529,217.764 322.391,245.945 322.391,273.199 306.984,256.993 		"/>
		<polygon fill="#A1B13A" points="299.529,217.764 322.391,217.764 322.391,192.412 		"/>
		<polygon fill="#939B38" points="299.529,217.764 322.391,245.945 322.391,217.764 		"/>
		<polygon fill="#EE5BA0" points="229.957,206.308 263.482,228.934 243.416,176.206 		"/>
		<polygon fill="#DD66A5" points="263.482,228.934 270.551,193.832 243.416,176.206 		"/>
		<polygon fill="#C1639A" points="263.482,228.934 281.333,200.836 270.551,193.832 		"/>
		<polygon fill="#41449A" points="200.008,198.803 216.501,222.839 222.568,163.104 195.936,189.408 		"/>
		<polygon fill="#343791" points="222.568,163.104 216.501,222.839 226.286,234.688 229.957,206.308 		"/>
		<polygon fill="#A0C53A" points="281.333,200.836 284.739,259.994 299.529,217.764 		"/>
		<polygon fill="#A2BA3A" points="281.333,200.836 263.482,228.934 284.739,259.994 		"/>
		<polygon fill="#8A9839" points="299.529,217.764 284.739,259.994 281.425,270.575 286.205,298.148 		"/>
		<polygon fill="#EC2588" points="263.482,228.934 281.425,270.575 284.739,259.994 		"/>
		<polygon fill="#EC2588" points="229.957,206.308 226.286,234.688 249.256,253.424 		"/>
		<polygon fill="#E74A99" points="229.957,206.308 249.256,253.424 263.482,228.934 		"/>
		<polygon fill="#5860AA" points="200.008,198.803 180.199,238.75 202.195,250.549 		"/>
		<polygon fill="#525AA7" points="200.008,198.803 216.501,222.839 202.195,250.549 		"/>
		<polygon fill="#5F61AB" points="216.501,222.839 202.195,250.549 219.811,259.994 226.286,234.688 		"/>
		<polygon fill="#595CA8" points="226.286,234.688 249.256,253.424 259.674,270.575 219.811,259.994 		"/>
		<polygon fill="#4E58A6" points="249.256,253.424 263.482,228.934 259.674,270.575 		"/>
		<polygon fill="#D34C8F" points="243.107,277.714 251.464,287.672 264.218,280.393 259.674,270.575 		"/>
	</g>
</g>
<g id="Layer_2" display="none">
	<g display="inline">
		<rect x="0.5" y="0.943" opacity="0.9" fill="#FFFFFF" width="319" height="450.506"/>
		<polygon opacity="0.9" fill="#ED4798" points="0.5,26.679 16.629,37.431 0.5,49.689 		"/>
		<polygon fill="#754D9E" points="0.5,52.057 16.629,62.812 0.5,75.07 		"/>
		<polygon opacity="0.9" fill="#426EB5" points="0.5,77.438 16.629,88.189 0.5,100.449 		"/>
		<polygon opacity="0.8" fill="#06B052" points="0.5,102.108 16.629,112.859 0.5,125.118 		"/>
		<polygon opacity="0.9" fill="#F8ED40" points="0.5,125.903 16.629,136.657 0.5,148.912 		"/>
		<polygon opacity="0.9" fill="#F7961D" points="0.5,152.869 16.629,163.623 0.5,175.88 		"/>
		<polygon opacity="0.9" fill="#ED2A25" points="0.5,0.943 16.629,11.694 0.5,23.953 		"/>
		<polygon opacity="0.9" fill="#ED4798" points="45.831,449.5 56.583,433.371 68.842,449.5 		"/>
		<polygon fill="#754D9E" points="71.209,449.5 81.964,433.371 94.223,449.5 		"/>
		<polygon opacity="0.9" fill="#426EB5" points="96.59,449.5 107.342,433.371 119.602,449.5 		"/>
		<polygon opacity="0.9" fill="#426EB5" points="224.59,449.5 235.342,433.371 247.602,449.5 		"/>
		<polygon opacity="0.8" fill="#06B052" points="121.261,449.5 132.012,433.371 144.271,449.5 		"/>
		<polygon opacity="0.8" fill="#06B052" points="198.261,449.5 209.012,433.371 221.271,449.5 		"/>
		<polygon opacity="0.9" fill="#F8ED40" points="145.056,449.5 155.81,433.371 168.064,449.5 		"/>
		<polygon opacity="0.9" fill="#F7961D" points="172.021,449.5 182.775,433.371 195.032,449.5 		"/>
		<polygon opacity="0.9" fill="#ED2A25" points="20.096,449.5 30.847,433.371 43.105,449.5 		"/>
		<polygon opacity="0.9" fill="#ED4798" points="298.487,449.5 287.735,433.371 275.477,449.5 		"/>
		<polygon fill="#754D9E" points="273.109,449.5 262.354,433.371 250.096,449.5 		"/>
		<polygon opacity="0.8" fill="#06B052" points="272.752,-0.5 262,15.629 249.741,-0.5 		"/>
		<polygon opacity="0.9" fill="#F8ED40" points="247.374,-0.5 236.619,15.629 224.36,-0.5 		"/>
		<polygon opacity="0.9" fill="#F7961D" points="221.993,-0.5 211.241,15.629 198.981,-0.5 		"/>
		<polygon opacity="0.8" fill="#06B052" points="93.993,-0.5 83.241,15.629 70.981,-0.5 		"/>
		<polygon opacity="0.9" fill="#ED2A25" points="197.322,-0.5 186.571,15.629 174.312,-0.5 		"/>
		<polygon opacity="0.9" fill="#426EB5" points="120.322,-0.5 109.571,15.629 97.312,-0.5 		"/>
		<polygon opacity="0.9" fill="#ED4798" points="173.527,-0.5 162.773,15.629 150.519,-0.5 		"/>
		<polygon fill="#754D9E" points="146.562,-0.5 135.808,15.629 123.551,-0.5 		"/>
		<polygon opacity="0.9" fill="#426EB5" points="298.487,-0.5 287.736,15.629 275.478,-0.5 		"/>
		<polygon opacity="0.9" fill="#F7961D" points="20.096,-0.5 30.848,15.629 43.106,-0.5 		"/>
		<polygon opacity="0.9" fill="#F8ED40" points="45.474,-0.5 56.229,15.629 68.487,-0.5 		"/>
		<polygon opacity="0.9" fill="#ED4798" points="0.5,201.679 16.629,212.431 0.5,224.689 		"/>
		<polygon fill="#754D9E" points="0.5,227.057 16.629,237.812 0.5,250.07 		"/>
		<polygon opacity="0.9" fill="#426EB5" points="0.5,252.438 16.629,263.189 0.5,275.449 		"/>
		<polygon opacity="0.8" fill="#06B052" points="0.5,277.108 16.629,287.859 0.5,300.118 		"/>
		<polygon opacity="0.9" fill="#F8ED40" points="0.5,300.903 16.629,311.657 0.5,323.912 		"/>
		<polygon opacity="0.9" fill="#F7961D" points="0.5,327.869 16.629,338.623 0.5,350.88 		"/>
		<polygon opacity="0.9" fill="#ED2A25" points="0.5,175.943 16.629,186.694 0.5,198.953 		"/>
		<polygon opacity="0.9" fill="#ED4798" points="0.5,376.679 16.629,387.431 0.5,399.689 		"/>
		<polygon fill="#754D9E" points="0.5,402.057 16.629,412.812 0.5,425.07 		"/>
		<polygon opacity="0.9" fill="#426EB5" points="0.5,427.438 16.629,438.189 0.5,450.449 		"/>
		<polygon opacity="0.9" fill="#ED2A25" points="0.5,350.943 16.629,361.694 0.5,373.953 		"/>
		<polygon opacity="0.9" fill="#ED4798" points="319.5,27.679 303.371,38.431 319.5,50.689 		"/>
		<polygon fill="#754D9E" points="319.5,53.057 303.371,63.812 319.5,76.07 		"/>
		<polygon opacity="0.9" fill="#426EB5" points="319.5,78.438 303.371,89.189 319.5,101.449 		"/>
		<polygon opacity="0.8" fill="#06B052" points="319.5,103.108 303.371,113.859 319.5,126.118 		"/>
		<polygon opacity="0.9" fill="#F8ED40" points="319.5,126.903 303.371,137.657 319.5,149.912 		"/>
		<polygon opacity="0.9" fill="#F7961D" points="319.5,153.869 303.371,164.623 319.5,176.88 		"/>
		<polygon opacity="0.9" fill="#ED2A25" points="319.5,1.943 303.371,12.694 319.5,24.953 		"/>
		<polygon opacity="0.9" fill="#ED4798" points="319.5,202.679 303.371,213.431 319.5,225.689 		"/>
		<polygon fill="#754D9E" points="319.5,228.057 303.371,238.812 319.5,251.07 		"/>
		<polygon opacity="0.9" fill="#426EB5" points="319.5,253.438 303.371,264.189 319.5,276.449 		"/>
		<polygon opacity="0.8" fill="#06B052" points="319.5,278.108 303.371,288.859 319.5,301.118 		"/>
		<polygon opacity="0.9" fill="#F8ED40" points="319.5,301.903 303.371,312.657 319.5,324.912 		"/>
		<polygon opacity="0.9" fill="#F7961D" points="319.5,328.869 303.371,339.623 319.5,351.88 		"/>
		<polygon opacity="0.9" fill="#ED2A25" points="319.5,176.943 303.371,187.694 319.5,199.953 		"/>
		<polygon opacity="0.9" fill="#ED4798" points="319.5,377.679 303.371,388.431 319.5,400.689 		"/>
		<polygon fill="#754D9E" points="319.5,403.057 303.371,413.812 319.5,426.07 		"/>
		<polygon opacity="0.9" fill="#426EB5" points="319.5,428.438 303.371,439.189 319.5,451.449 		"/>
		<polygon opacity="0.9" fill="#ED2A25" points="319.5,351.943 303.371,362.694 319.5,374.953 		"/>
	</g>
</g>
<g id="Layer_3" display="none">
	<polygon display="inline" opacity="0.6" fill="#F8ED40" points="59.679,450.5 112.473,336.853 172.652,450.5 	"/>
	<polygon display="inline" opacity="0.3" fill="#ED2A25" points="-10.479,450.5 56.482,306.355 132.811,450.5 	"/>
	<polygon display="inline" opacity="0.5" fill="#ED4798" points="10.729,450.5 48.522,369.143 91.604,450.5 	"/>
	<polygon display="inline" opacity="0.4" fill="#754D9E" points="155.68,450.5 208.473,336.853 268.652,450.5 	"/>
	<polygon display="inline" opacity="0.4" fill="#06B052" points="88.969,450.5 155.165,307.998 230.621,450.5 	"/>
	<polygon display="inline" opacity="0.4" fill="#426EB5" points="189.695,450.5 255.892,307.998 331.348,450.5 	"/>
	<polygon display="inline" opacity="0.5" fill="#F7961D" points="222.729,450.5 260.522,369.143 303.604,450.5 	"/>
	<polygon display="inline" opacity="0.6" fill="#ED4798" points="48.522,368.425 84.701,395.919 74.598,417.668 	"/>
	<polygon display="inline" opacity="0.8" fill="#F8ED40" points="112.473,336.135 83.445,356.558 93.854,376.215 	"/>
	<polygon display="inline" opacity="0.5" fill="#754D9E" points="208.473,336.135 236.147,349.785 226.593,370.354 	"/>
	<polygon display="inline" opacity="0.6" fill="#F7961D" points="260.522,368.425 234.783,385.82 244.189,403.585 	"/>
	<polygon display="inline" fill="#ED4798" points="59.679,450.5 74.598,428.123 91.604,450.5 	"/>
	<polygon display="inline" fill="#F8ED40" points="90.198,447.271 109.43,406.217 132.811,450.5 91.5,450.5 	"/>
	<polygon display="inline" fill="#426EB5" points="189.695,450.5 208.82,409.328 230.621,450.5 	"/>
	<polyline display="inline" fill="#F7961D" points="226.634,441.244 244.159,403.943 268.652,450.5 230.5,450.5 226.634,442.611 	
		"/>
	<polygon display="inline" opacity="0.6" fill="#F8ED40" points="372.5,291.644 295.556,255.9 372.5,215.156 	"/>
	<polygon display="inline" opacity="0.3" fill="#ED2A25" points="372.5,339.143 274.908,293.808 372.5,242.13 	"/>
	<polygon display="inline" opacity="0.5" fill="#ED4798" points="372.5,324.785 317.418,299.197 372.5,270.029 	"/>
	<polygon display="inline" opacity="0.4" fill="#754D9E" points="372.5,226.647 295.556,190.904 372.5,150.16 	"/>
	<polygon display="inline" opacity="0.4" fill="#06B052" points="372.5,271.813 276.021,226.995 372.5,175.909 	"/>
	<polygon display="inline" opacity="0.4" fill="#426EB5" points="372.5,203.617 276.021,158.799 372.5,107.712 	"/>
	<polygon display="inline" opacity="0.5" fill="#F7961D" points="372.5,181.252 317.418,155.664 372.5,126.497 	"/>
	<polygon display="inline" opacity="0.6" fill="#ED4798" points="317.384,299.197 335.998,274.702 350.724,281.543 	"/>
	<polygon display="inline" opacity="0.8" fill="#F8ED40" points="295.521,255.9 309.349,275.553 322.658,268.505 	"/>
	<polygon display="inline" opacity="0.5" fill="#754D9E" points="295.521,190.904 304.764,172.167 318.689,178.636 	"/>
	<polygon display="inline" opacity="0.6" fill="#F7961D" points="317.384,155.664 329.161,173.091 341.188,166.722 	"/>
	<polygon display="inline" fill="#ED4798" points="372.5,291.644 357.35,281.543 372.5,270.029 	"/>
	<polygon display="inline" fill="#F8ED40" points="370.539,270.98 342.631,257.96 372.5,242.13 372.5,270.1 	"/>
	<polygon display="inline" fill="#426EB5" points="372.5,203.617 344.625,190.668 372.5,175.909 	"/>
	<polyline display="inline" fill="#F7961D" points="366.686,178.608 341.205,166.743 372.5,150.16 372.5,175.991 367.386,178.608 	
		"/>
	<polygon display="inline" opacity="0.6" fill="#F8ED40" points="-50.5,293.644 26.444,257.9 -50.5,217.156 	"/>
	<polygon display="inline" opacity="0.3" fill="#ED2A25" points="-50.5,341.143 47.092,295.808 -50.5,244.13 	"/>
	<polygon display="inline" opacity="0.5" fill="#ED4798" points="-50.5,326.785 4.582,301.197 -50.5,272.029 	"/>
	<polygon display="inline" opacity="0.4" fill="#754D9E" points="-50.5,228.647 26.444,192.904 -50.5,152.16 	"/>
	<polygon display="inline" opacity="0.4" fill="#06B052" points="-50.5,273.813 45.979,228.995 -50.5,177.909 	"/>
	<polygon display="inline" opacity="0.4" fill="#426EB5" points="-50.5,205.617 45.979,160.799 -50.5,109.712 	"/>
	<polygon display="inline" opacity="0.5" fill="#F7961D" points="-50.5,183.252 4.582,157.664 -50.5,128.497 	"/>
	<polygon display="inline" opacity="0.6" fill="#ED4798" points="5.024,301.197 -13.59,276.702 -28.315,283.543 	"/>
	<polygon display="inline" opacity="0.8" fill="#F8ED40" points="26.887,257.9 13.06,277.553 -0.25,270.505 	"/>
	<polygon display="inline" opacity="0.5" fill="#754D9E" points="26.887,192.904 17.645,174.167 3.719,180.636 	"/>
	<polygon display="inline" opacity="0.6" fill="#F7961D" points="5.024,157.664 -6.753,175.091 -18.78,168.722 	"/>
	<polygon display="inline" fill="#ED4798" points="-50.5,293.644 -35.35,283.543 -50.5,272.029 	"/>
	<polygon display="inline" fill="#F8ED40" points="-48.335,272.98 -20.529,259.96 -50.5,244.13 -50.5,272.1 	"/>
	<polygon display="inline" fill="#426EB5" points="-50.5,205.617 -22.625,192.668 -50.5,177.909 	"/>
	<polyline display="inline" fill="#F7961D" points="-44.277,180.608 -19.001,168.743 -50.5,152.16 -50.5,177.991 -45.182,180.608 	
		"/>
	<polygon display="inline" opacity="0.6" fill="#F8ED40" points="260.189,-0.5 207.396,107.861 147.217,-0.5 	"/>
	<polygon display="inline" opacity="0.3" fill="#ED2A25" points="330.348,-0.5 263.387,136.939 187.059,-0.5 	"/>
	<polygon display="inline" opacity="0.5" fill="#ED4798" points="309.141,-0.5 271.347,77.073 228.266,-0.5 	"/>
	<polygon display="inline" opacity="0.4" fill="#754D9E" points="164.189,-0.5 111.396,107.861 51.217,-0.5 	"/>
	<polygon display="inline" opacity="0.4" fill="#06B052" points="230.9,-0.5 164.704,135.373 89.248,-0.5 	"/>
	<polygon display="inline" opacity="0.4" fill="#426EB5" points="130.174,-0.5 63.978,135.373 -11.479,-0.5 	"/>
	<polygon display="inline" opacity="0.5" fill="#F7961D" points="97.141,-0.5 59.347,77.073 16.266,-0.5 	"/>
	<polygon display="inline" opacity="0.6" fill="#ED4798" points="271.347,77.156 235.168,50.941 245.271,30.203 	"/>
	<polygon display="inline" opacity="0.8" fill="#F8ED40" points="207.396,107.944 236.424,88.472 226.015,69.729 	"/>
	<polygon display="inline" opacity="0.5" fill="#754D9E" points="111.396,107.944 83.722,94.929 93.276,75.317 	"/>
	<polygon display="inline" opacity="0.6" fill="#F7961D" points="59.347,77.156 85.086,60.569 75.68,43.632 	"/>
	<polygon display="inline" fill="#ED4798" points="260.189,-0.5 245.271,30.12 228.266,-0.5 	"/>
	<polygon display="inline" fill="#F8ED40" points="229.671,2.278 210.439,41.573 187.059,-0.5 228.369,-0.5 	"/>
	<polygon display="inline" fill="#426EB5" points="130.174,-0.5 111.049,38.757 89.248,-0.5 	"/>
	<polyline display="inline" fill="#F7961D" points="93.235,7.724 75.71,43.59 51.217,-0.5 89.369,-0.5 93.235,6.721 	"/>
</g>
</svg>
