<?xml version="1.0" encoding="utf-8"?>
<!-- Generator: Adobe Illustrator 16.0.4, SVG Export Plug-In . SVG Version: 6.00 Build 0)  -->
<!DOCTYPE svg PUBLIC "-//W3C//DTD SVG 1.1//EN" "http://www.w3.org/Graphics/SVG/1.1/DTD/svg11.dtd">
<svg version="1.1" id="Layer_1" xmlns="http://www.w3.org/2000/svg" xmlns:xlink="http://www.w3.org/1999/xlink" x="0px" y="0px"
	 width="310px" height="440px" viewBox="0 0 310 440" enable-background="new 0 0 310 440" xml:space="preserve">
<linearGradient id="SVGID_1_" gradientUnits="userSpaceOnUse" x1="-177.1191" y1="219.75" x2="427.7402" y2="219.75" gradientTransform="matrix(0 -1 1 0 -65.1562 374.8438)">
	<stop  offset="0" style="stop-color:#29B473"/>
	<stop  offset="0.1246" style="stop-color:#27ABCD"/>
	<stop  offset="0.1499" style="stop-color:#26A9E0"/>
	<stop  offset="0.1671" style="stop-color:#2794D1"/>
	<stop  offset="0.2032" style="stop-color:#296CB4"/>
	<stop  offset="0.2363" style="stop-color:#2A50A0"/>
	<stop  offset="0.265" style="stop-color:#2B3E93"/>
	<stop  offset="0.2861" style="stop-color:#2B388F"/>
	<stop  offset="0.3165" style="stop-color:#35368F"/>
	<stop  offset="0.3672" style="stop-color:#4E328F"/>
	<stop  offset="0.4316" style="stop-color:#782B8E"/>
	<stop  offset="0.4646" style="stop-color:#90278E"/>
	<stop  offset="0.5411" style="stop-color:#C92882"/>
	<stop  offset="0.5931" style="stop-color:#EC297B"/>
	<stop  offset="0.6389" style="stop-color:#EE3D5D"/>
	<stop  offset="0.7358" style="stop-color:#F16522"/>
	<stop  offset="0.7409" style="stop-color:#F16B23"/>
	<stop  offset="0.8061" style="stop-color:#F5B02A"/>
	<stop  offset="0.8531" style="stop-color:#F8DB2F"/>
	<stop  offset="0.877" style="stop-color:#F9EC31"/>
	<stop  offset="0.9485" style="stop-color:#FDF8B2"/>
	<stop  offset="0.9934" style="stop-color:#FFFFFF"/>
</linearGradient>
<rect x="-4" y="-52.896" opacity="0.6" fill="url(#SVGID_1_)" width="317.188" height="604.859"/>
<rect x="2.895" y="273.436" opacity="0.04" fill="#FFFFFF" width="26.54" height="251.534"/>
<rect x="282.655" y="273.436" opacity="0.04" fill="#FFFFFF" width="26.541" height="251.534"/>
<rect x="29.434" y="305.042" opacity="0.04" fill="#FFFFFF" width="18.963" height="219.928"/>
<rect x="48.397" y="356.024" opacity="0.04" fill="#FFFFFF" width="28.44" height="168.945"/>
<rect x="76.542" y="328.266" opacity="0.04" fill="#FFFFFF" width="28.441" height="196.704"/>
<rect x="104.984" y="291.893" opacity="0.04" fill="#FFFFFF" width="28.44" height="233.077"/>
<rect x="133.596" y="316.779" opacity="0.04" fill="#FFFFFF" width="28.439" height="208.19"/>
<rect x="162.035" y="305.042" opacity="0.04" fill="#FFFFFF" width="28.441" height="219.928"/>
<rect x="190.477" y="328.266" opacity="0.04" fill="#FFFFFF" width="28.441" height="196.704"/>
<rect x="218.795" y="356.024" opacity="0.04" fill="#FFFFFF" width="28.439" height="168.945"/>
<rect x="247.234" y="328.266" opacity="0.04" fill="#FFFFFF" width="35.421" height="196.704"/>
<rect x="2.895" y="316.779" opacity="0.06" fill="#FFFFFF" width="26.54" height="208.19"/>
<rect x="29.434" y="338.795" opacity="0.06" fill="#FFFFFF" width="18.963" height="186.175"/>
<rect x="48.397" y="373.254" opacity="0.06" fill="#FFFFFF" width="28.145" height="151.716"/>
<rect x="76.837" y="342.9" opacity="0.06" fill="#FFFFFF" width="28.293" height="182.069"/>
<rect x="105.131" y="305.042" opacity="0.06" fill="#FFFFFF" width="28.465" height="219.928"/>
<rect x="133.424" y="328.266" opacity="0.06" fill="#FFFFFF" width="28.465" height="196.704"/>
<rect x="161.89" y="347.926" opacity="0.06" fill="#FFFFFF" width="28.587" height="177.044"/>
<rect x="190.624" y="363.719" opacity="0.06" fill="#FFFFFF" width="28.146" height="161.251"/>
<rect x="218.942" y="381.666" opacity="0.06" fill="#FFFFFF" width="28.146" height="143.304"/>
<rect x="247.089" y="356.024" opacity="0.06" fill="#FFFFFF" width="34.765" height="168.945"/>
<rect x="281.854" y="300.548" opacity="0.06" fill="#FFFFFF" width="28.146" height="224.422"/>
<rect x="2.895" y="347.926" opacity="0.08" fill="#FFFFFF" width="26.54" height="180.185"/>
<rect x="29.593" y="363.719" opacity="0.08" fill="#FFFFFF" width="18.768" height="164.392"/>
<rect x="48.379" y="399.203" opacity="0.08" fill="#FFFFFF" width="28.183" height="128.907"/>
<rect x="76.672" y="363.719" opacity="0.08" fill="#FFFFFF" width="28.182" height="164.392"/>
<rect x="105.112" y="333.291" opacity="0.08" fill="#FFFFFF" width="28.183" height="194.819"/>
<rect x="133.565" y="358.179" opacity="0.08" fill="#FFFFFF" width="28.183" height="169.932"/>
<rect x="162.092" y="378.758" opacity="0.08" fill="#FFFFFF" width="28.183" height="149.353"/>
<rect x="190.605" y="388.09" opacity="0.08" fill="#FFFFFF" width="28.182" height="140.021"/>
<rect x="218.924" y="399.203" opacity="0.08" fill="#FFFFFF" width="28.182" height="128.907"/>
<rect x="247.297" y="369.77" opacity="0.08" fill="#FFFFFF" width="34.557" height="158.684"/>
<rect x="281.94" y="338.795" opacity="0.08" fill="#FFFFFF" width="27.971" height="189.658"/>
<rect x="2.895" y="386.973" opacity="0.06" fill="#FFFFFF" width="26.54" height="137.921"/>
<rect x="29.434" y="406.117" opacity="0.06" fill="#FFFFFF" width="18.963" height="118.814"/>
<rect x="48.397" y="433.935" opacity="0.06" fill="#FFFFFF" width="28.202" height="90.997"/>
<rect x="76.663" y="415.005" opacity="0.06" fill="#FFFFFF" width="28.202" height="109.927"/>
<rect x="104.854" y="392.078" opacity="0.06" fill="#FFFFFF" width="28.44" height="132.854"/>
<rect x="133.295" y="399.203" opacity="0.06" fill="#FFFFFF" width="28.453" height="125.729"/>
<rect x="161.748" y="399.203" opacity="0.06" fill="#FFFFFF" width="28.609" height="125.729"/>
<rect x="190.394" y="428.532" opacity="0.06" fill="#FFFFFF" width="28.609" height="96.399"/>
<rect x="219.003" y="440.496" opacity="0.06" fill="#FFFFFF" width="28.609" height="84.436"/>
<rect x="247.234" y="404.362" opacity="0.06" fill="#FFFFFF" width="34.619" height="120.531"/>
<rect x="281.94" y="378.758" opacity="0.06" fill="#FFFFFF" width="27.256" height="146.136"/>
<rect opacity="0.3" fill="#FFFFFF" width="310" height="440"/>
</svg>
