<?xml version="1.0" encoding="utf-8"?>
<!-- Generator: Adobe Illustrator 16.0.4, SVG Export Plug-In . SVG Version: 6.00 Build 0)  -->
<!DOCTYPE svg PUBLIC "-//W3C//DTD SVG 1.1//EN" "http://www.w3.org/Graphics/SVG/1.1/DTD/svg11.dtd">
<svg version="1.1" id="Layer_1" xmlns="http://www.w3.org/2000/svg" xmlns:xlink="http://www.w3.org/1999/xlink" x="0px" y="0px"
	 width="320px" height="450px" viewBox="0 0 320 450" enable-background="new 0 0 320 450" xml:space="preserve">
<g>
	<rect x="282.669" y="18" opacity="0.9" fill="#F8ED40" enable-background="new    " width="44.331" height="10.683"/>
	<rect x="-1" y="18" opacity="0.9" fill="#F8ED40" enable-background="new    " width="17.511" height="10.683"/>
	<rect x="260.751" y="18" opacity="0.9" fill="#F7961D" enable-background="new    " width="44.332" height="10.683"/>
	<rect x="238.504" y="18" opacity="0.8" fill="#ED2A25" enable-background="new    " width="44.332" height="10.683"/>
	<rect x="215.966" y="18" opacity="0.9" fill="#ED4798" enable-background="new    " width="44.332" height="10.683"/>
	<rect x="193.715" y="18" opacity="0.9" fill="#754D9E" enable-background="new    " width="44.332" height="10.683"/>
	<rect x="171.919" y="18" opacity="0.9" fill="#426EB5" enable-background="new    " width="44.332" height="10.683"/>
	<rect x="171.919" y="18" opacity="0.9" fill="#06B052" enable-background="new    " width="22.076" height="10.683"/>
	<rect x="127.586" y="18" opacity="0.9" fill="#F8ED40" enable-background="new    " width="44.333" height="10.683"/>
	<rect x="105.669" y="18" opacity="0.9" fill="#F7961D" enable-background="new    " width="44.332" height="10.683"/>
	<rect x="83.422" y="18" opacity="0.8" fill="#ED2A25" enable-background="new    " width="44.332" height="10.683"/>
	<rect x="60.884" y="18" opacity="0.9" fill="#ED4798" enable-background="new    " width="44.332" height="10.683"/>
	<rect x="38.633" y="18" opacity="0.9" fill="#754D9E" enable-background="new    " width="44.332" height="10.683"/>
	<rect x="16.511" y="18" opacity="0.9" fill="#426EB5" enable-background="new    " width="44.332" height="10.683"/>
	<rect x="16.511" y="18" opacity="0.9" fill="#06B052" enable-background="new    " width="22.403" height="10.683"/>
</g>
<g>
	<rect x="283.669" y="440.316" opacity="0.9" fill="#F8ED40" enable-background="new    " width="44.331" height="10.684"/>
	<rect y="440.316" opacity="0.9" fill="#F8ED40" enable-background="new    " width="17.511" height="10.684"/>
	<rect x="261.751" y="440.316" opacity="0.9" fill="#F7961D" enable-background="new    " width="44.332" height="10.684"/>
	<rect x="239.504" y="440.316" opacity="0.8" fill="#ED2A25" enable-background="new    " width="44.332" height="10.684"/>
	<rect x="216.966" y="440.316" opacity="0.9" fill="#ED4798" enable-background="new    " width="44.332" height="10.684"/>
	<rect x="194.715" y="440.316" opacity="0.9" fill="#754D9E" enable-background="new    " width="44.332" height="10.684"/>
	<rect x="172.919" y="440.316" opacity="0.9" fill="#426EB5" enable-background="new    " width="44.332" height="10.684"/>
	<rect x="172.919" y="440.316" opacity="0.9" fill="#06B052" enable-background="new    " width="22.076" height="10.684"/>
	<rect x="128.586" y="440.316" opacity="0.9" fill="#F8ED40" enable-background="new    " width="44.333" height="10.684"/>
	<rect x="106.669" y="440.316" opacity="0.9" fill="#F7961D" enable-background="new    " width="44.332" height="10.684"/>
	<rect x="84.422" y="440.316" opacity="0.8" fill="#ED2A25" enable-background="new    " width="44.332" height="10.684"/>
	<rect x="61.884" y="440.316" opacity="0.9" fill="#ED4798" enable-background="new    " width="44.332" height="10.684"/>
	<rect x="39.633" y="440.316" opacity="0.9" fill="#754D9E" enable-background="new    " width="44.332" height="10.684"/>
	<rect x="17.511" y="440.316" opacity="0.9" fill="#426EB5" enable-background="new    " width="44.332" height="10.684"/>
	<rect x="17.511" y="440.316" opacity="0.9" fill="#06B052" enable-background="new    " width="22.403" height="10.684"/>
</g>
</svg>
