<?xml version="1.0" encoding="utf-8"?>
<!-- Generator: Adobe Illustrator 16.0.4, SVG Export Plug-In . SVG Version: 6.00 Build 0)  -->
<!DOCTYPE svg PUBLIC "-//W3C//DTD SVG 1.1//EN" "http://www.w3.org/Graphics/SVG/1.1/DTD/svg11.dtd">
<svg version="1.1" id="Layer_1" xmlns="http://www.w3.org/2000/svg" xmlns:xlink="http://www.w3.org/1999/xlink" x="0px" y="0px"
	 width="148.334px" height="13.5px" viewBox="0 0 148.334 13.5" enable-background="new 0 0 148.334 13.5" xml:space="preserve">
<g>
	<polygon opacity="0.5" fill="#ED3794" points="116.364,7.626 117.755,6.04 127.184,6.04 125.098,7.626 	"/>
	<g>
		<polygon opacity="0.5" fill="#65BC46" points="0,7.626 0,6.043 17.795,6.043 22.107,7.626 		"/>
		<polygon opacity="0.5" fill="#79CDCB" points="15.735,7.626 17.795,6.043 34.042,6.043 38.809,7.626 		"/>
		<polygon opacity="0.5" fill="#A25BA4" points="32.941,7.626 34.042,6.043 41.008,6.04 43.207,10.97 43.207,13.126 38.809,7.626 		
			"/>
		<polygon opacity="0.5" fill="#DE5D83" points="40.717,10.013 43.207,10.97 44.238,9.583 46.497,6.043 51.653,6.043 47.795,7.626 
			43.207,13.126 		"/>
		<polygon opacity="0.5" fill="#ED3794" points="47.795,7.626 46.497,6.043 51.653,6.043 61.878,7.626 		"/>
		<polygon opacity="0.5" fill="#C32127" points="56.924,7.626 51.931,6.086 66.397,6.043 68.7,7.626 		"/>
		<polygon opacity="0.5" fill="#F6851F" points="66.397,6.043 65.441,7.626 75.695,7.626 79.693,6.043 		"/>
		<polygon opacity="0.5" fill="#FBEE29" points="74.131,6.043 75.695,7.626 92.722,7.626 91.424,6.04 		"/>
		<polygon opacity="0.5" fill="#65BC46" points="90.078,7.626 91.424,6.04 97.247,0.126 99.507,2.126 98.636,3.787 97.309,2.126 
			92.722,7.626 		"/>
		<polygon opacity="0.5" fill="#79CDCB" points="97.309,2.126 99.507,2.126 103.373,6.04 101.706,7.626 		"/>
		<polygon opacity="0.5" fill="#A25BA4" points="100.439,6.04 103.373,6.04 108.631,6.04 111.412,7.626 101.706,7.626 		"/>
		<polygon opacity="0.5" fill="#DE5D83" points="105.502,7.626 108.631,6.04 117.755,6.04 125.098,7.626 		"/>
		<polygon opacity="0.5" fill="#C32127" points="123.882,6.04 125.098,7.626 134.59,7.626 138.003,6.04 		"/>
		<polygon opacity="0.5" fill="#F6851F" points="132.442,6.04 134.59,7.626 140.869,7.626 144.216,6.04 		"/>
		<polygon opacity="0.5" fill="#FBEE29" points="138.003,6.04 140.869,7.626 147.084,7.626 147.084,6.04 		"/>
	</g>
</g>
</svg>
