<?xml version="1.0" encoding="utf-8"?>
<!-- Generator: Adobe Illustrator 16.0.4, SVG Export Plug-In . SVG Version: 6.00 Build 0)  -->
<!DOCTYPE svg PUBLIC "-//W3C//DTD SVG 1.1//EN" "http://www.w3.org/Graphics/SVG/1.1/DTD/svg11.dtd">
<svg version="1.1" xmlns="http://www.w3.org/2000/svg" xmlns:xlink="http://www.w3.org/1999/xlink" x="0px" y="0px"
	 width="188.203px" height="43.5px" viewBox="-40.5 -7 188.203 43.5" enable-background="new -40.5 -7 188.203 43.5"
	 xml:space="preserve">
<g id="Layer_1" display="none">
	<g display="inline">
		<polygon opacity="0.05" fill="#F8ED40" enable-background="new    " points="30.726,0 17.695,12.774 36.182,12.774 		"/>
		<polygon opacity="0.05" fill="#754D9E" enable-background="new    " points="72.383,10.187 78.74,20.159 67.066,17.454 		"/>
		<polygon opacity="0.05" fill="#F7961D" enable-background="new    " points="25.397,1.496 34.127,17.632 39.861,4.536 		"/>
		<polygon opacity="0.05" fill="#ED2A25" enable-background="new    " points="45.29,2.996 30.386,6.924 45.655,16.401 		"/>
		<polygon opacity="0.05" fill="#ED4798" enable-background="new    " points="51.331,0.469 39.006,11.212 48.742,16.495 		"/>
		<polygon opacity="0.05" fill="#ED2A25" enable-background="new    " points="67.99,7.493 55.666,18.235 65.4,23.52 		"/>
		<polygon opacity="0.05" fill="#754D9E" enable-background="new    " points="50.068,7.189 55.46,14.892 43.97,21.355 		"/>
		<polygon opacity="0.05" fill="#426EB5" enable-background="new    " points="51.884,13.608 49.29,18.009 45.468,24.648 
			55.779,27.854 		"/>
		<polygon opacity="0.05" fill="#06B052" enable-background="new    " points="55.561,35.339 55.779,27.854 54.369,22.852 
			52.48,26.829 53,32.523 		"/>
		<polygon opacity="0.05" fill="#F8ED40" enable-background="new    " points="56,35.339 55.779,27.854 57.191,22.852 
			59.079,26.829 58.561,32.523 		"/>
		<polygon opacity="0.05" fill="#ED4798" enable-background="new    " points="62.372,17.416 67.99,10.098 73.626,18.785 		"/>
		<polygon opacity="0.05" fill="#F7961D" enable-background="new    " points="55.779,27.854 59.836,13.03 66.896,25.805 		"/>
		<g>
			<polygon opacity="0.7" fill="#ED4798" enable-background="new    " points="44.007,6.853 40.257,10.122 46.42,10.122 
				48.742,16.495 50.183,7.387 50.004,6.853 			"/>
			<polygon opacity="0.7" fill="#F8ED40" enable-background="new    " points="23.511,10.12 28.012,6.859 33.655,6.859 
				35.048,10.121 			"/>
			<polygon opacity="0.7" fill="#F7961D" enable-background="new    " points="28.299,6.859 30.064,10.121 37.416,10.122 
				38.845,6.859 			"/>
			<polygon opacity="0.7" fill="#754D9E" enable-background="new    " points="50.095,7.125 47.509,13.111 49.389,18.294 
				52.674,16.495 			"/>
			<polygon opacity="0.7" fill="#426EB5" enable-background="new    " points="51.879,13.608 49.287,18.014 52.48,26.829 
				55.779,27.854 			"/>
			<polygon opacity="0.7" fill="#06B052" enable-background="new    " points="52.48,26.829 54.412,22.852 55.779,27.854 
				55.561,35.339 			"/>
			<polygon opacity="0.7" fill="#F8ED40" enable-background="new    " points="57.191,22.852 59.033,26.732 56,35.339 
				55.779,27.854 			"/>
			<polygon opacity="0.7" fill="#F7961D" enable-background="new    " points="55.779,27.854 59.29,15.053 60.956,15.056 
				62.307,17.502 58.836,27.291 			"/>
			<polygon opacity="0.6" fill="#ED2A25" enable-background="new    " points="59.29,15.053 58.062,19.535 61.018,21.141 
				62.307,17.502 66.352,17.481 66.77,15.053 			"/>
			<polygon opacity="0.7" fill="#ED4798" enable-background="new    " points="64.169,15.063 62.307,17.502 72.794,17.502 
				71.441,15.418 70.693,15.053 			"/>
			<polygon opacity="0.6" fill="#754D9E" enable-background="new    " points="67.066,17.502 68.823,15.053 70.693,15.053 
				75.611,17.502 			"/>
			<polygon opacity="0.6" fill="#ED2A25" enable-background="new    " points="45.396,6.853 45.484,10.121 35.537,10.122 
				30.386,6.853 			"/>
		</g>
	</g>
</g>
<g id="Layer_2" display="none">
	<g display="inline">
		<polygon opacity="0.3" fill="#ED2A25" points="-99.374,154.75 -71.966,70.459 -30.08,154.75 		"/>
		<polygon opacity="0.4" fill="#F7961D" points="88.209,156.75 130.095,69.356 158.02,156.75 		"/>
		<polygon opacity="0.3" fill="#F8ED40" points="77.04,74.379 96.114,189.009 34.177,156.798 		"/>
		<polyline opacity="0.4" fill="#ED4798" points="142.622,159.627 172.111,76.37 239.011,159.627 		"/>
		<polyline opacity="0.3" fill="#426EB5" points="-55.433,157.491 -20.787,79.923 19.032,157.491 		"/>
		<polygon opacity="0.8" fill="#F8ED40" points="-96.992,69.222 -68.001,189.009 -139.855,151.64 		"/>
		<polygon opacity="0.8" fill="#F7961D" points="-85.138,160.75 -43.251,73.356 -15.327,160.75 		"/>
		<polygon opacity="0.8" fill="#ED2A25" points="163.96,160.75 193.1,76.459 237.634,160.75 		"/>
		<polygon opacity="0.8" fill="#06B052" points="-31.306,156.75 5.332,95.729 31.824,156.75 		"/>
		<polyline opacity="0.8" fill="#ED4798" points="98.487,162.704 31.588,79.447 2.099,162.704 		"/>
		<polyline opacity="0.8" fill="#754D9E" points="130.226,159.543 148.205,89.213 183.044,159.543 		"/>
		<polyline opacity="0.8" fill="#426EB5" points="70.73,159.543 105.377,81.974 145.195,159.543 		"/>
		<polygon fill="#F8ED40" points="-96.992,69.222 -79.701,94.45 -86.113,114.172 		"/>
		<polygon opacity="0.4" fill="#ED2A25" points="-71.966,70.662 -86.112,85.096 -79.701,94.45 		"/>
		<polygon opacity="0.9" fill="#F7961D" points="-43.251,73.714 -27.275,94.45 -32.726,106.653 		"/>
		<polygon opacity="0.4" fill="#426EB5" points="-20.787,79.923 -0.239,105.263 -4.304,112.032 		"/>
		<polygon opacity="0.9" fill="#06B052" points="5.332,95.983 21.527,107.854 16.566,121.858 		"/>
		<polygon fill="#ED4798" points="31.588,79.447 61.539,104.186 57.58,111.796 		"/>
		<polygon opacity="0.4" fill="#F8ED40" points="77.04,74.379 94.354,106.653 85.696,126.036 		"/>
		<polygon fill="#426EB5" points="105.377,81.974 92.064,102.386 94.354,106.653 		"/>
		<polygon opacity="0.3" fill="#F7961D" points="130.095,69.611 110.999,92.927 115.096,100.906 		"/>
		<polygon opacity="0.9" fill="#754D9E" points="148.205,89.213 163.668,100.208 159.492,111.998 		"/>
		<polygon opacity="0.5" fill="#ED4798" points="172.111,76.37 148.205,89.213 163.668,100.208 		"/>
		<polygon opacity="0.9" fill="#ED2A25" points="193.1,76.816 215.419,95.462 215.366,118.962 		"/>
		<polygon opacity="0.7" fill="#06B052" points="5.332,95.983 31.588,79.447 21.527,107.854 		"/>
		<polygon opacity="0.5" fill="#426EB5" points="5.332,95.983 -20.787,79.923 -0.239,105.263 		"/>
		<polygon fill="#F7961D" points="-43.251,73.714 -20.787,79.923 -27.275,94.45 		"/>
		<polygon opacity="0.4" fill="#ED2A25" points="-71.966,70.662 -43.251,73.714 -56.604,101.575 		"/>
		<polygon opacity="0.7" fill="#ED4798" points="-96.992,69.222 -113.335,72.64 -113.106,100.208 		"/>
		<polygon opacity="0.4" fill="#426EB5" points="-20.787,79.923 -10.186,60.844 5.332,95.983 		"/>
		<polygon opacity="0.9" fill="#F7961D" points="-43.251,73.714 -35.263,64.691 -20.787,79.923 		"/>
		<polygon opacity="0.5" fill="#F7961D" points="130.095,69.611 148.205,89.213 142.939,109.81 		"/>
		<polygon opacity="0.9" fill="#426EB5" points="105.377,81.974 78.475,54.433 77.04,74.379 92.064,102.386 		"/>
		<polygon opacity="0.7" fill="#426EB5" points="77.04,74.379 105.377,81.974 92.064,102.386 		"/>
		<polygon opacity="0.45" fill="#F7961D" points="130.095,69.611 110.999,56.74 105.377,81.974 110.999,92.927 		"/>
		<polygon opacity="0.6" fill="#ED4798" points="148.205,89.213 167.712,50.33 172.111,76.37 		"/>
		<polygon opacity="0.7" fill="#ED4798" points="167.712,50.33 193.1,76.816 186.895,94.768 172.111,76.37 		"/>
		<polygon opacity="0.5" fill="#426EB5" points="-1.97,79.447 10.607,65.545 5.332,95.983 		"/>
		<polygon fill="#ED2A25" points="215.419,95.462 200.797,50.33 193.1,76.816 		"/>
		<polygon opacity="0.4" fill="#ED2A25" points="193.27,76.459 163.96,160.75 198.483,160.75 		"/>
		<polygon opacity="0.5" fill="#ED4798" points="31.588,79.493 2.099,162.75 43.6,162.75 		"/>
		<polygon opacity="0.8" fill="#06B052" points="5.332,95.983 21.527,60.844 31.588,79.902 		"/>
		<polyline opacity="0.5" fill="#ED2A25" points="-71.966,70.662 -55.433,44.859 -43.251,73.714 		"/>
		<polygon opacity="0.8" fill="#ED4798" points="-113.335,72.64 -93.163,44.859 -96.992,69.222 		"/>
		<polygon opacity="0.9" fill="#ED4798" points="-93.163,44.859 -86.112,85.096 -96.992,69.222 		"/>
		<polygon fill="#F8ED40" points="-113.335,154.953 -113.106,100.208 -96.992,69.222 -103.249,155.524 		"/>
		<polygon opacity="0.9" fill="#ED4798" points="41.343,87.504 52.318,50.33 70.73,87.504 61.539,104.186 		"/>
		<polygon fill="#ED2A25" points="-113.335,155.75 -84.272,115.861 -72.647,155.75 		"/>
		<polygon opacity="0.9" fill="#ED2A25" points="-83.437,116.09 -112.5,136.034 -112.5,155.979 		"/>
		<polygon fill="#754D9E" points="-80.476,130.141 -64.727,102.601 -39.141,155.976 -72.647,157.005 		"/>
		<polygon fill="#426EB5" points="-54.356,155.21 -35.475,112.808 -18.201,155.524 		"/>
		<polygon opacity="0.9" fill="#754D9E" points="-64.727,102.601 -40,122.969 -47.206,139.15 		"/>
		<polygon fill="#F8ED40" points="-24.693,139.264 -6.766,104.355 13.43,155.75 -17.943,155.75 		"/>
		<polygon opacity="0.9" fill="#426EB5" points="-35.475,112.808 -17.234,124.878 -24.693,139.378 		"/>
		<polygon fill="#F7961D" points="2.099,155.75 25.309,122.085 44.968,155.75 		"/>
		<polygon opacity="0.9" fill="#F8ED40" points="-6.766,104.526 19.032,131.694 9.319,145.507 		"/>
		<polygon opacity="0.9" fill="#F7961D" points="25.309,122.313 46.563,128.099 38.068,144.162 		"/>
		<polygon fill="#06B052" points="32.061,156.55 55.012,107.679 78.475,155.979 		"/>
		<polygon fill="#ED4798" points="71.76,142.155 96.114,109.81 115.4,155.524 78.475,155.979 		"/>
		<polygon opacity="0.9" fill="#06B052" points="55.012,107.679 79.319,132.115 71.76,142.155 		"/>
		<polygon fill="#F8ED40" points="106.938,155.75 127.453,119.188 158.02,155.75 		"/>
		<polygon fill="#426EB5" points="146.685,155.75 177.97,104.753 206.946,155.75 		"/>
		<polygon opacity="0.9" fill="#ED4798" points="96.114,109.81 121.515,130.001 111.878,147.176 		"/>
		<polygon opacity="0.9" fill="#F8ED40" points="127.453,119.417 160.847,132.895 151.482,148.159 		"/>
		<polygon fill="#F7961D" points="190.939,127.705 207.548,103.081 216.5,127.592 216.5,155.75 206.689,155.75 		"/>
		<polygon opacity="0.9" fill="#426EB5" points="177.97,104.981 199.507,114.862 190.939,127.818 		"/>
		<polygon opacity="0.9" fill="#F7961D" points="207.259,103.139 215.382,111.998 215.419,126.175 		"/>
		<polygon fill="#426EB5" points="78.475,54.433 67.166,80.306 70.73,87.504 77.04,74.379 		"/>
	</g>
</g>
<g id="Layer_3">
	<rect x="-36.539" y="-15.141" fill="#FFFFFF" width="189.373" height="51.641"/>
	<polygon opacity="0.6" fill="#F8ED40" points="-121.655,-46.25 -68.862,-125.44 -8.683,-46.25 	"/>
	<polygon opacity="0.3" fill="#ED2A25" points="-191.813,-46.25 -124.853,-146.69 -48.524,-46.25 	"/>
	<polygon opacity="0.5" fill="#ED4798" points="-170.606,-46.25 -132.812,-102.94 -89.731,-46.25 	"/>
	<polygon opacity="0.4" fill="#754D9E" points="-25.655,-46.25 27.138,-125.44 87.317,-46.25 	"/>
	<polygon opacity="0.4" fill="#06B052" points="-92.366,-46.25 -26.17,-145.545 49.286,-46.25 	"/>
	<polygon opacity="0.4" fill="#426EB5" points="8.36,-46.25 74.557,-145.545 150.013,-46.25 	"/>
	<polygon opacity="0.5" fill="#F7961D" points="41.394,-46.25 79.188,-102.94 122.269,-46.25 	"/>
	<polygon opacity="0.6" fill="#ED4798" points="-132.812,-102.831 -96.634,-83.673 -106.737,-68.518 	"/>
	<polygon opacity="0.8" fill="#F8ED40" points="-68.862,-125.331 -97.89,-111.1 -87.48,-97.403 	"/>
	<polygon opacity="0.5" fill="#754D9E" points="27.138,-125.331 54.812,-115.819 45.258,-101.487 	"/>
	<polygon opacity="0.6" fill="#F7961D" points="79.188,-102.831 53.448,-90.709 62.854,-78.332 	"/>
	<polygon fill="#F8ED40" points="-91.137,-48.195 -71.905,-76.954 -48.524,-46.25 -89.835,-46.25 	"/>
	<polyline fill="#F7961D" points="45.299,-52.09 62.824,-78.386 87.317,-46.25 49.165,-46.25 45.299,-51.442 	"/>
	<polygon opacity="0.7" fill="#F8ED40" points="2.707,36.75 26.842,0.549 54.354,36.75 	"/>
	<polygon opacity="0.6" fill="#754D9E" points="48.494,36.75 72.287,1.061 99.41,36.75 	"/>
	<polygon opacity="0.6" fill="#ED2A25" points="-38.539,36.75 -1.998,-4.928 27.744,36.75 	"/>
	<polygon opacity="0.6" fill="#06B052" points="18.404,36.75 54.945,-4.928 84.688,36.75 	"/>
	<polygon opacity="0.6" fill="#426EB5" points="69.348,36.75 105.889,-4.928 135.631,36.75 	"/>
	<polygon opacity="0.8" fill="#F8ED40" points="26.842,0.226 14.775,18.326 8.115,8.921 	"/>
	<polygon opacity="0.7" fill="#06B052" points="92.762,36.75 108.67,12.89 126.801,36.75 	"/>
	<polygon opacity="0.8" fill="#754D9E" points="72.287,0.737 85.451,18.06 93.752,8.591 	"/>
	<polygon opacity="0.7" fill="#ED4798" points="65.984,10.527 48.494,36.75 84.707,36.75 	"/>
	<polygon opacity="0.7" fill="#ED4798" points="65.984,10.204 85.451,18.06 77.812,26.771 	"/>
	<polygon opacity="0.9" fill="#06B052" points="108.67,12.566 90.957,25.177 95.869,31.767 	"/>
	<polygon opacity="0.8" fill="#06B052" points="92.762,36.75 95.869,32.09 99.41,36.75 	"/>
	<polygon opacity="0.5" fill="#426EB5" points="85.451,18.06 95.621,21.856 90.957,25.177 	"/>
	<polygon opacity="0.8" fill="#06B052" points="54.945,-5.251 69.848,4.396 65.984,10.204 	"/>
	<polygon opacity="0.6" fill="#426EB5" points="18.404,36.75 37.662,14.785 54.354,36.75 	"/>
	<polygon opacity="0.7" fill="#426EB5" points="37.662,14.462 55.814,25.444 51.232,32.319 	"/>
	<polygon opacity="0.6" fill="#426EB5" points="18.404,36.75 23.553,30.877 27.744,36.75 	"/>
	<polyline opacity="0.8" fill="#ED2A25" points="14.775,18.326 14.883,18.384 28.033,25.444 23.553,30.554 	"/>
	<polygon opacity="0.7" fill="#ED2A25" points="-1.998,-5.251 10.662,7.739 8.115,8.921 	"/>
	<polygon opacity="0.7" fill="#426EB5" points="105.889,-5.251 90.535,7.415 93.752,8.591 	"/>
	<polygon opacity="0.04" points="54.945,-5.251 55.814,25.444 37.662,14.462 	"/>
	<polyline opacity="0.05" fill="#FFFFFF" points="-1.752,-5.251 -4.145,15.749 -14.293,36.75 -38.293,36.75 -38.293,36.75 
		-2.211,-5.089 	"/>
	<polygon opacity="0.9" fill="#ED4798" points="-9.33,12.566 10.662,24.497 5.52,32.177 	"/>
	<polygon opacity="0.7" fill="#ED4798" points="-25.238,36.75 -9.33,12.89 8.801,36.75 	"/>
	<polygon opacity="0.05" fill="#FFFFFF" points="105.926,-5.089 106.742,14.033 108.68,12.768 126.801,36.75 135.707,36.75 	"/>
	<polygon fill="#F8ED40" points="5.633,32.643 2.707,36.75 8.707,36.75 	"/>
	<polygon opacity="0.9" fill="#F7961D" points="116.756,36.75 128.535,20.258 145.703,36.75 	"/>
	<polygon opacity="0.02" points="26.842,0.226 28.033,25.444 37.662,14.462 	"/>
	<polygon fill="#F7961D" points="128.535,20.134 118.486,25.644 121.633,29.799 	"/>
</g>
</svg>
