<?xml version="1.0" encoding="utf-8"?>
<!-- Generator: Adobe Illustrator 16.0.4, SVG Export Plug-In . SVG Version: 6.00 Build 0)  -->
<!DOCTYPE svg PUBLIC "-//W3C//DTD SVG 1.1//EN" "http://www.w3.org/Graphics/SVG/1.1/DTD/svg11.dtd">
<svg version="1.1" id="Layer_1" xmlns="http://www.w3.org/2000/svg" xmlns:xlink="http://www.w3.org/1999/xlink" x="0px" y="0px"
	 width="102px" height="36.5px" viewBox="0 0 102 36.5" enable-background="new 0 0 102 36.5" xml:space="preserve">
<g>
	<polygon opacity="0.05" fill="#F8ED40" points="30.726,0 17.695,12.774 36.182,12.774 	"/>
	<polygon opacity="0.05" fill="#754D9E" points="72.383,10.187 78.74,20.159 67.067,17.454 	"/>
	<polygon opacity="0.05" fill="#F7961D" points="25.397,1.496 34.127,17.632 39.861,4.536 	"/>
	<polygon opacity="0.05" fill="#ED2A25" points="45.29,2.996 30.386,6.924 45.655,16.401 	"/>
	<polygon opacity="0.05" fill="#ED4798" points="51.331,0.469 39.006,11.212 48.742,16.495 	"/>
	<polygon opacity="0.05" fill="#ED2A25" points="67.99,7.493 55.666,18.235 65.401,23.519 	"/>
	<polygon opacity="0.05" fill="#754D9E" points="50.068,7.189 55.46,14.892 43.97,21.355 	"/>
	<polygon opacity="0.05" fill="#426EB5" points="51.884,13.608 49.29,18.009 45.468,24.649 55.779,27.854 	"/>
	<polygon opacity="0.05" fill="#06B052" points="55.56,35.339 55.779,27.854 54.369,22.852 52.481,26.829 53,32.523 	"/>
	<polygon opacity="0.05" fill="#F8ED40" points="56,35.339 55.779,27.854 57.191,22.852 59.079,26.829 58.561,32.523 	"/>
	<polygon opacity="0.05" fill="#ED4798" points="62.372,17.416 67.99,10.098 73.626,18.785 	"/>
	<polygon opacity="0.05" fill="#F7961D" points="55.779,27.854 59.836,13.03 66.896,25.805 	"/>
	<g>
		<polygon opacity="0.7" fill="#ED4798" points="44.007,6.853 40.257,10.122 46.42,10.122 48.742,16.495 50.183,7.387 50.004,6.853 
					"/>
		<polygon opacity="0.7" fill="#F8ED40" points="23.511,10.12 28.012,6.859 33.655,6.859 35.048,10.121 		"/>
		<polygon opacity="0.7" fill="#F7961D" points="28.299,6.859 30.064,10.121 37.416,10.122 38.845,6.859 		"/>
		<polygon opacity="0.7" fill="#754D9E" points="50.095,7.125 47.509,13.111 49.389,18.294 52.674,16.495 		"/>
		<polygon opacity="0.7" fill="#426EB5" points="51.879,13.608 49.287,18.014 52.481,26.829 55.779,27.854 		"/>
		<polygon opacity="0.7" fill="#06B052" points="52.481,26.829 54.412,22.852 55.779,27.854 55.56,35.339 		"/>
		<polygon opacity="0.7" fill="#F8ED40" points="57.191,22.852 59.033,26.733 56,35.339 55.779,27.854 		"/>
		<polygon opacity="0.7" fill="#F7961D" points="55.779,27.854 59.29,15.053 60.956,15.056 62.307,17.502 58.836,27.291 		"/>
		<polygon opacity="0.6" fill="#ED2A25" points="59.29,15.053 58.062,19.535 61.018,21.14 62.307,17.502 66.352,17.481 
			66.77,15.053 		"/>
		<polygon opacity="0.7" fill="#ED4798" points="64.169,15.063 62.307,17.502 72.794,17.502 71.441,15.418 70.694,15.053 		"/>
		<polygon opacity="0.6" fill="#754D9E" points="67.067,17.502 68.823,15.053 70.694,15.053 75.612,17.502 		"/>
		<polygon opacity="0.6" fill="#ED2A25" points="45.396,6.853 45.484,10.121 35.537,10.122 30.386,6.853 		"/>
	</g>
</g>
</svg>
