<?xml version="1.0" encoding="utf-8"?>
<!-- Generator: Adobe Illustrator 16.0.4, SVG Export Plug-In . SVG Version: 6.00 Build 0)  -->
<!DOCTYPE svg PUBLIC "-//W3C//DTD SVG 1.1//EN" "http://www.w3.org/Graphics/SVG/1.1/DTD/svg11.dtd">
<svg version="1.1" xmlns="http://www.w3.org/2000/svg" xmlns:xlink="http://www.w3.org/1999/xlink" x="0px" y="0px" width="320px"
	 height="143.5px" viewBox="0 0 320 143.5" enable-background="new 0 0 320 143.5" xml:space="preserve">
<g id="Layer_1" display="none">
	<g display="inline">
		<polyline fill="#7ACDCA" points="-12.291,132.046 47.832,101.808 19.971,155.606 		"/>
		<polyline opacity="0.8" fill="#FCEE21" points="260.873,86.947 192.796,116.932 226.595,59.114 		"/>
		<polyline opacity="0.8" fill="#FCEE21" points="110.745,75.393 52.587,101.008 81.46,51.616 		"/>
		<polyline opacity="0.3" fill="#FCEE21" points="193.97,61.169 152.674,79.357 173.176,44.287 		"/>
		<polyline opacity="0.8" fill="#EB3A93" points="34.796,72.205 50.51,150.357 -2.224,101.676 		"/>
		<polyline opacity="0.4" fill="#EB3A93" points="44.105,16.18 53.962,65.205 20.882,34.667 		"/>
		<polyline opacity="0.7" fill="#F6851F" points="302.966,161.102 248.332,142.756 297.854,127.275 		"/>
		<polyline opacity="0.3" fill="#65BB47" points="298.487,88.023 256.086,48.99 307.615,55.054 		"/>
		<polyline opacity="0.7" fill="#F6851F" points="105.815,132.54 36.553,162.952 70.988,104.199 		"/>
		<polyline opacity="0.7" fill="#65BB47" points="115.374,98.028 206.647,112.195 132.623,150.073 		"/>
		<polyline opacity="0.8" fill="#DD5E83" points="206.814,154.687 161.771,85.098 231.362,112.04 		"/>
		<polyline opacity="0.5" fill="#90298D" points="350.318,124.346 281.851,154.501 315.842,96.354 		"/>
		<polyline opacity="0.8" fill="#D62140" points="301.467,111.032 218.986,147.36 259.936,77.312 		"/>
		<polyline opacity="0.2" fill="#D62140" points="141.197,26.937 138.556,61.106 122.435,34.799 		"/>
		<polyline opacity="0.5" fill="#90298D" points="160.376,95.574 86.091,128.291 122.97,65.205 		"/>
		<polyline opacity="0.2" fill="#90298D" points="248.876,19.478 209.566,36.792 229.082,3.407 		"/>
	</g>
</g>
<g id="Layer_2">
	<polygon opacity="0.8" fill="#EB3A93" points="166.828,-78.18 173.237,-46.607 184.316,-14.015 176.611,-62.057 	"/>
	<polygon opacity="0.8" fill="#FCEE21" points="142.602,-74.462 146.2,-93 168.152,-93 171.988,-78.972 	"/>
	<polygon opacity="0.7" fill="#7ACDCA" points="133.091,-93 136.429,-86.571 142.602,-74.462 164.593,-86.396 168.152,-93 	"/>
	<polygon opacity="0.8" fill="#DD5E83" points="164.593,-86.396 168.152,-93 176.611,-62.057 175.176,-47.561 	"/>
	<polygon opacity="0.7" fill="#D91F5D" points="212.966,-66.418 216.652,-60.009 218.261,-56.833 197.982,-60.009 194.313,-66.418 	
		"/>
	<polygon opacity="0.5" fill="#90298D" points="184.316,-14.015 175.176,-47.561 176.611,-62.057 184.847,-31.954 185.327,-14.015 	
		"/>
	<polygon opacity="0.7" fill="#F6851F" points="173.237,-46.607 158.999,-83.36 164.593,-86.396 166.828,-78.18 	"/>
	<polygon opacity="0.7" fill="#EB3A93" points="194.313,-39.008 201.444,-59.511 197.982,-60.009 197.066,-56.782 	"/>
	<polygon opacity="0.7" fill="#F6851F" points="218.261,-56.833 191.681,-56.833 194.313,-66.418 198.865,-66.418 	"/>
	<polyline fill="#7ACDCA" points="142.602,-74.462 107.498,-74.462 133.091,-93 	"/>
	<polygon opacity="0.8" fill="#7ACDCA" points="185.327,-14.015 194.313,-39.008 197.086,-56.82 188.561,-45.486 186.352,-37.442 	
		"/>
	<polygon opacity="0.7" fill="#65BB47" points="185.327,-14.015 184.316,-14.015 184.847,-31.954 188.375,-44.801 187.805,-38.456 
		193.054,-42.101 	"/>
	<polygon opacity="0.7" fill="#FCEE21" points="194.313,-66.418 197.982,-60.009 193.054,-42.101 186.352,-37.442 	"/>
	<polygon opacity="0.8" fill="#D91F5D" points="212.966,-66.418 214.875,-63.102 216.229,-60.747 216.652,-60.009 217.431,-58.476 
		218.261,-56.833 232.383,-56.82 	"/>
	<g>
		<polygon opacity="0.9" fill="#EB3A93" points="221.672,143.361 209.739,122.69 221.672,102.02 245.54,102.02 257.476,122.69 
			245.54,143.361 		"/>
		<polygon opacity="0.02" points="233.607,122.69 221.672,143.361 209.739,122.69 221.672,102.02 		"/>
		<polygon opacity="0.05" points="233.607,122.69 245.54,143.361 221.672,143.361 		"/>
		<polygon opacity="0.02" fill="#FFFFFF" points="233.607,122.69 245.54,102.02 257.476,122.69 245.54,143.361 		"/>
	</g>
	<g>
		<polygon opacity="0.9" fill="#7ACDCA" points="184.42,121.997 172.326,101.049 184.42,80.101 208.607,80.101 220.701,101.049 
			208.607,121.997 		"/>
		<polygon opacity="0.02" points="196.514,101.049 184.42,121.997 172.326,101.049 184.42,80.101 		"/>
		<polygon opacity="0.05" points="196.514,101.049 208.607,121.997 184.42,121.997 		"/>
		<polygon opacity="0.02" fill="#FFFFFF" points="196.514,101.049 208.607,80.101 220.701,101.049 208.607,121.997 		"/>
	</g>
	<g>
		<polygon opacity="0.9" fill="#FCEE21" points="147.284,143.342 135.427,122.805 147.284,102.268 170.997,102.268 182.854,122.805 
			170.997,143.342 		"/>
		<polygon opacity="0.02" points="159.14,122.805 147.284,143.342 135.427,122.805 147.284,102.268 		"/>
		<polygon opacity="0.05" points="159.14,122.805 170.997,143.342 147.284,143.342 		"/>
		<polygon opacity="0.02" fill="#FFFFFF" points="159.14,122.805 170.997,102.268 182.854,122.805 170.997,143.342 		"/>
	</g>
	<g>
		<polygon opacity="0.9" fill="#FCEE21" points="27.434,52.646 21.573,42.493 27.434,32.342 39.155,32.342 45.016,42.493 
			39.155,52.646 		"/>
		<polygon opacity="0.02" points="33.294,42.493 27.434,52.646 21.573,42.493 27.434,32.342 		"/>
		<polygon opacity="0.05" points="33.294,42.493 39.155,52.646 27.434,52.646 		"/>
		<polygon opacity="0.02" fill="#FFFFFF" points="33.294,42.493 39.155,32.342 45.016,42.493 39.155,52.646 		"/>
	</g>
	<g>
		<polygon opacity="0.9" fill="#FCEE21" points="168.494,24.504 162.634,14.352 168.494,4.201 180.216,4.201 186.076,14.352 
			180.216,24.504 		"/>
		<polygon opacity="0.02" points="174.355,14.352 168.494,24.504 162.634,14.352 168.494,4.201 		"/>
		<polygon opacity="0.05" points="174.355,14.352 180.216,24.504 168.494,24.504 		"/>
		<polygon opacity="0.02" fill="#FFFFFF" points="174.355,14.352 180.216,4.201 186.076,14.352 180.216,24.504 		"/>
	</g>
	<g>
		<polygon opacity="0.9" fill="#65BB47" points="111.666,163.283 100.153,143.344 111.666,123.401 134.69,123.401 146.203,143.344 
			134.69,163.283 		"/>
		<polygon opacity="0.02" points="123.178,143.344 111.666,163.283 100.153,143.344 111.666,123.401 		"/>
		<polygon opacity="0.05" points="123.178,143.344 134.69,163.283 111.666,163.283 		"/>
		<polygon opacity="0.02" fill="#FFFFFF" points="123.178,143.344 134.69,123.401 146.203,143.344 134.69,163.283 		"/>
	</g>
	<g>
		<polygon opacity="0.9" fill="#65BB47" points="77.024,77.509 70.45,66.123 77.024,54.735 90.171,54.735 96.745,66.123 
			90.171,77.509 		"/>
		<polygon opacity="0.02" points="83.598,66.123 77.024,77.509 70.45,66.123 77.024,54.735 		"/>
		<polygon opacity="0.05" points="83.598,66.123 90.171,77.509 77.024,77.509 		"/>
		<polygon opacity="0.02" fill="#FFFFFF" points="83.598,66.123 90.171,54.735 96.745,66.123 90.171,77.509 		"/>
	</g>
	<g>
		<polygon opacity="0.9" fill="#65BB47" points="306.284,42.158 302.997,36.465 306.284,30.771 312.858,30.771 316.146,36.465 
			312.858,42.158 		"/>
		<polygon opacity="0.02" points="309.571,36.465 306.284,42.158 302.997,36.465 306.284,30.771 		"/>
		<polygon opacity="0.05" points="309.571,36.465 312.858,42.158 306.284,42.158 		"/>
		<polygon opacity="0.02" fill="#FFFFFF" points="309.571,36.465 312.858,30.771 316.146,36.465 312.858,42.158 		"/>
	</g>
	<g>
		<polygon opacity="0.9" fill="#90298D" points="258.042,164.173 246.107,143.503 258.042,122.831 281.908,122.831 293.844,143.503 
			281.908,164.173 		"/>
		<polygon opacity="0.02" points="269.976,143.503 258.042,164.173 246.107,143.503 258.042,122.831 		"/>
		<polygon opacity="0.05" points="269.976,143.503 281.908,164.173 258.042,164.173 		"/>
		<polygon opacity="0.02" fill="#FFFFFF" points="269.976,143.503 281.908,122.831 293.844,143.503 281.908,164.173 		"/>
	</g>
	<g>
		<polygon opacity="0.9" fill="#90298D" points="111.29,122.426 99.652,102.269 111.29,82.11 134.563,82.11 146.203,102.269 
			134.563,122.426 		"/>
		<polygon opacity="0.02" points="122.927,102.269 111.29,122.426 99.652,102.269 111.29,82.11 		"/>
		<polygon opacity="0.05" points="122.927,102.269 134.563,122.426 111.29,122.426 		"/>
		<polygon opacity="0.02" fill="#FFFFFF" points="122.927,102.269 134.563,82.11 146.203,102.269 134.563,122.426 		"/>
	</g>
	<g>
		<polygon opacity="0.9" fill="#90298D" points="268.497,22.615 263.841,14.549 268.497,6.482 277.811,6.482 282.468,14.549 
			277.811,22.615 		"/>
		<polygon opacity="0.02" points="273.154,14.549 268.497,22.615 263.841,14.549 268.497,6.482 		"/>
		<polygon opacity="0.05" points="273.154,14.549 277.811,22.615 268.497,22.615 		"/>
		<polygon opacity="0.02" fill="#FFFFFF" points="273.154,14.549 277.811,6.482 282.468,14.549 277.811,22.615 		"/>
	</g>
	<g>
		<polygon opacity="0.9" fill="#D62327" points="258.042,121.72 246.108,101.05 258.042,80.378 281.909,80.378 293.844,101.05 
			281.909,121.72 		"/>
		<polygon opacity="0.02" points="269.976,101.05 258.042,121.72 246.108,101.05 258.042,80.378 		"/>
		<polygon opacity="0.05" points="269.976,101.05 281.909,121.72 258.042,121.72 		"/>
		<polygon opacity="0.02" fill="#FFFFFF" points="269.976,101.05 281.909,80.378 293.844,101.05 281.909,121.72 		"/>
	</g>
	<g>
		<polygon opacity="0.9" fill="#D62327" points="159.711,85.964 154.83,77.51 159.711,69.055 169.473,69.055 174.354,77.51 
			169.473,85.964 		"/>
		<polygon opacity="0.02" points="164.592,77.51 159.711,85.964 154.83,77.51 159.711,69.055 		"/>
		<polygon opacity="0.05" points="164.592,77.51 169.473,85.964 159.711,85.964 		"/>
		<polygon opacity="0.02" fill="#FFFFFF" points="164.592,77.51 169.473,69.055 174.354,77.51 169.473,85.964 		"/>
	</g>
	<g>
		<polygon opacity="0.9" fill="#D62327" points="309.572,10.816 307.132,6.589 309.572,2.361 314.453,2.361 316.895,6.589 
			314.453,10.816 		"/>
		<polygon opacity="0.02" points="312.013,6.589 309.572,10.816 307.132,6.589 309.572,2.361 		"/>
		<polygon opacity="0.05" points="312.013,6.589 314.453,10.816 309.572,10.816 		"/>
		<polygon opacity="0.02" fill="#FFFFFF" points="312.013,6.589 314.453,2.361 316.895,6.589 314.453,10.816 		"/>
	</g>
	<g>
		<polygon opacity="0.9" fill="#D62327" points="0.422,100.704 -11.762,79.602 0.422,58.497 24.789,58.497 36.974,79.602 
			24.789,100.704 		"/>
		<polygon opacity="0.02" points="12.605,79.602 0.422,100.704 -11.762,79.602 0.422,58.497 		"/>
		<polygon opacity="0.05" points="12.605,79.602 24.789,100.704 0.422,100.704 		"/>
		<polygon opacity="0.02" fill="#FFFFFF" points="12.605,79.602 24.789,58.497 36.974,79.602 24.789,100.704 		"/>
	</g>
	<g>
		<polygon opacity="0.8" fill="#DD5E83" points="295.198,143.5 283.265,122.83 295.198,102.158 319.065,102.158 331,122.83 
			319.065,143.5 		"/>
		<polygon opacity="0.02" points="307.132,122.83 295.198,143.5 283.265,122.83 295.198,102.158 		"/>
		<polygon opacity="0.05" points="307.132,122.83 319.065,143.5 295.198,143.5 		"/>
		<polygon opacity="0.02" fill="#FFFFFF" points="307.132,122.83 319.065,102.158 331,122.83 319.065,143.5 		"/>
	</g>
	<g>
		<polygon opacity="0.8" fill="#DD5E83" points="277.476,53.41 273.045,45.736 277.476,38.062 286.336,38.062 290.767,45.736 
			286.336,53.41 		"/>
		<polygon opacity="0.02" points="281.905,45.736 277.476,53.41 273.045,45.736 277.476,38.062 		"/>
		<polygon opacity="0.05" points="281.905,45.736 286.336,53.41 277.476,53.41 		"/>
		<polygon opacity="0.02" fill="#FFFFFF" points="281.905,45.736 286.336,38.062 290.767,45.736 286.336,53.41 		"/>
	</g>
	<g>
		<polygon opacity="0.8" fill="#DD5E83" points="102.994,18.386 98.563,10.712 102.994,3.038 111.854,3.038 116.285,10.712 
			111.854,18.386 		"/>
		<polygon opacity="0.02" points="107.424,10.712 102.994,18.386 98.563,10.712 102.994,3.038 		"/>
		<polygon opacity="0.05" points="107.424,10.712 111.854,18.386 102.994,18.386 		"/>
		<polygon opacity="0.02" fill="#FFFFFF" points="107.424,10.712 111.854,3.038 116.285,10.712 111.854,18.386 		"/>
	</g>
	<g>
		<polygon opacity="0.9" fill="#F6851F" points="184.5,164.309 172.486,143.5 184.5,122.69 208.527,122.69 220.541,143.5 
			208.527,164.309 		"/>
		<polygon opacity="0.02" points="196.514,143.5 184.5,164.309 172.486,143.5 184.5,122.69 		"/>
		<polygon opacity="0.05" points="196.514,143.5 208.527,164.309 184.5,164.309 		"/>
		<polygon opacity="0.02" fill="#FFFFFF" points="196.514,143.5 208.527,122.69 220.541,143.5 208.527,164.309 		"/>
	</g>
	<g>
		<polygon opacity="0.9" fill="#F6851F" points="240.756,81.021 235.403,71.751 240.756,62.479 251.461,62.479 256.812,71.751 
			251.461,81.021 		"/>
		<polygon opacity="0.02" points="246.108,71.751 240.756,81.021 235.403,71.751 240.756,62.479 		"/>
		<polygon opacity="0.05" points="246.108,71.751 251.461,81.021 240.756,81.021 		"/>
		<polygon opacity="0.02" fill="#FFFFFF" points="246.108,71.751 251.461,62.479 256.812,71.751 251.461,81.021 		"/>
	</g>
	<g>
		<polygon opacity="0.9" fill="#F6851F" points="121.638,55.007 116.285,45.736 121.638,36.465 132.343,36.465 137.694,45.736 
			132.343,55.007 		"/>
		<polygon opacity="0.02" points="126.99,45.736 121.638,55.007 116.285,45.736 121.638,36.465 		"/>
		<polygon opacity="0.05" points="126.99,45.736 132.343,55.007 121.638,55.007 		"/>
		<polygon opacity="0.02" fill="#FFFFFF" points="126.99,45.736 132.343,36.465 137.694,45.736 132.343,55.007 		"/>
	</g>
	<g>
		<polygon opacity="0.9" fill="#F6851F" points="0.148,143.933 -12.125,122.672 0.148,101.411 24.697,101.411 36.974,122.672 
			24.697,143.933 		"/>
		<polygon opacity="0.02" points="12.424,122.672 0.148,143.933 -12.125,122.672 0.148,101.411 		"/>
		<polygon opacity="0.05" points="12.424,122.672 24.697,143.933 0.148,143.933 		"/>
		<polygon opacity="0.02" fill="#FFFFFF" points="12.424,122.672 24.697,101.411 36.974,122.672 24.697,143.933 		"/>
	</g>
	<g>
		<polygon opacity="0.9" fill="#FCEE21" points="37.79,164.014 25.855,143.344 37.79,122.672 61.656,122.672 73.592,143.344 
			61.656,164.014 		"/>
		<polygon opacity="0.02" points="49.724,143.344 37.79,164.014 25.855,143.344 37.79,122.672 		"/>
		<polygon opacity="0.05" points="49.724,143.344 61.656,164.014 37.79,164.014 		"/>
		<polygon opacity="0.02" fill="#FFFFFF" points="49.724,143.344 61.656,122.672 73.592,143.344 61.656,164.014 		"/>
	</g>
	<g>
		<polygon opacity="0.9" fill="#FCEE21" points="295.197,100.271 283.264,79.602 295.197,58.93 319.064,58.93 331,79.602 
			319.064,100.271 		"/>
		<polygon opacity="0.02" points="307.131,79.602 295.197,100.271 283.264,79.602 295.197,58.93 		"/>
		<polygon opacity="0.05" points="307.131,79.602 319.064,100.271 295.197,100.271 		"/>
		<polygon opacity="0.02" fill="#FFFFFF" points="307.131,79.602 319.064,58.93 331,79.602 319.064,100.271 		"/>
	</g>
	<g>
		<polygon opacity="0.9" fill="#EB3A93" points="37.789,121.918 25.855,101.248 37.789,80.576 61.656,80.576 73.591,101.248 
			61.656,121.918 		"/>
		<polygon opacity="0.02" points="49.723,101.248 37.789,121.918 25.855,101.248 37.789,80.576 		"/>
		<polygon opacity="0.05" points="49.723,101.248 61.656,121.918 37.789,121.918 		"/>
		<polygon opacity="0.02" fill="#FFFFFF" points="49.723,101.248 61.656,80.576 73.591,101.248 61.656,121.918 		"/>
	</g>
	<g>
		<polygon opacity="0.9" fill="#EB3A93" points="9.202,24.587 4.007,15.588 9.202,6.588 19.593,6.588 24.789,15.588 19.593,24.587 
					"/>
		<polygon opacity="0.02" points="14.398,15.588 9.202,24.587 4.007,15.588 9.202,6.588 		"/>
		<polygon opacity="0.05" points="14.398,15.588 19.593,24.587 9.202,24.587 		"/>
		<polygon opacity="0.02" fill="#FFFFFF" points="14.398,15.588 19.593,6.588 24.789,15.588 19.593,24.587 		"/>
	</g>
	<g>
		<polygon opacity="0.9" fill="#EB3A93" points="204.543,63.734 199.348,54.736 204.543,45.736 214.935,45.736 220.131,54.736 
			214.935,63.734 		"/>
		<polygon opacity="0.02" points="209.739,54.736 204.543,63.734 199.348,54.736 204.543,45.736 		"/>
		<polygon opacity="0.05" points="209.739,54.736 214.935,63.734 204.543,63.734 		"/>
		<polygon opacity="0.02" fill="#FFFFFF" points="209.739,54.736 214.935,45.736 220.131,54.736 214.935,63.734 		"/>
	</g>
	<g>
		<polygon opacity="0.9" fill="#7ACDCA" points="74.696,143.361 62.763,122.691 74.696,102.02 98.563,102.02 110.498,122.691 
			98.563,143.361 		"/>
		<polygon opacity="0.02" points="86.63,122.691 74.696,143.361 62.763,122.691 74.696,102.02 		"/>
		<polygon opacity="0.05" points="86.63,122.691 98.563,143.361 74.696,143.361 		"/>
		<polygon opacity="0.02" fill="#FFFFFF" points="86.63,122.691 98.563,102.02 110.498,122.691 98.563,143.361 		"/>
	</g>
	<g>
		<polygon opacity="0.9" fill="#7ACDCA" points="62.763,32.342 58.046,24.173 62.763,16.003 72.195,16.003 76.912,24.173 
			72.195,32.342 		"/>
		<polygon opacity="0.02" points="67.479,24.173 62.763,32.342 58.046,24.173 62.763,16.003 		"/>
		<polygon opacity="0.05" points="67.479,24.173 72.195,32.342 62.763,32.342 		"/>
		<polygon opacity="0.02" fill="#FFFFFF" points="67.479,24.173 72.195,16.003 76.912,24.173 72.195,32.342 		"/>
	</g>
	<g>
		<polygon opacity="0.9" fill="#7ACDCA" points="221.771,25.555 218.233,19.428 221.771,13.3 228.846,13.3 232.383,19.428 
			228.846,25.555 		"/>
		<polygon opacity="0.02" points="225.308,19.428 221.771,25.555 218.233,19.428 221.771,13.3 		"/>
		<polygon opacity="0.05" points="225.308,19.428 228.846,25.555 221.771,25.555 		"/>
		<polygon opacity="0.02" fill="#FFFFFF" points="225.308,19.428 228.846,13.3 232.383,19.428 228.846,25.555 		"/>
	</g>
</g>
</svg>
