<?xml version="1.0" encoding="utf-8"?>
<!-- Generator: Adobe Illustrator 16.0.4, SVG Export Plug-In . SVG Version: 6.00 Build 0)  -->
<!DOCTYPE svg PUBLIC "-//W3C//DTD SVG 1.1//EN" "http://www.w3.org/Graphics/SVG/1.1/DTD/svg11.dtd">
<svg version="1.1" xmlns="http://www.w3.org/2000/svg" xmlns:xlink="http://www.w3.org/1999/xlink" x="0px" y="0px"
	 width="188.203px" height="43.5px" viewBox="-40.5 -7 188.203 43.5" enable-background="new -40.5 -7 188.203 43.5"
	 xml:space="preserve">
<g id="Layer_1" display="none">
	<g display="inline">
		<polygon opacity="0.05" fill="#F8ED40" enable-background="new    " points="30.726,0 17.695,12.774 36.182,12.774 		"/>
		<polygon opacity="0.05" fill="#754D9E" enable-background="new    " points="72.383,10.187 78.74,20.159 67.066,17.454 		"/>
		<polygon opacity="0.05" fill="#F7961D" enable-background="new    " points="25.397,1.496 34.127,17.632 39.861,4.536 		"/>
		<polygon opacity="0.05" fill="#ED2A25" enable-background="new    " points="45.29,2.996 30.386,6.924 45.655,16.401 		"/>
		<polygon opacity="0.05" fill="#ED4798" enable-background="new    " points="51.331,0.469 39.006,11.212 48.742,16.495 		"/>
		<polygon opacity="0.05" fill="#ED2A25" enable-background="new    " points="67.99,7.493 55.666,18.235 65.4,23.52 		"/>
		<polygon opacity="0.05" fill="#754D9E" enable-background="new    " points="50.068,7.189 55.46,14.892 43.97,21.355 		"/>
		<polygon opacity="0.05" fill="#426EB5" enable-background="new    " points="51.884,13.608 49.29,18.009 45.468,24.648 
			55.779,27.854 		"/>
		<polygon opacity="0.05" fill="#06B052" enable-background="new    " points="55.561,35.339 55.779,27.854 54.369,22.852 
			52.48,26.829 53,32.523 		"/>
		<polygon opacity="0.05" fill="#F8ED40" enable-background="new    " points="56,35.339 55.779,27.854 57.191,22.852 
			59.079,26.829 58.561,32.523 		"/>
		<polygon opacity="0.05" fill="#ED4798" enable-background="new    " points="62.372,17.416 67.99,10.098 73.626,18.785 		"/>
		<polygon opacity="0.05" fill="#F7961D" enable-background="new    " points="55.779,27.854 59.836,13.03 66.896,25.805 		"/>
		<g>
			<polygon opacity="0.7" fill="#ED4798" enable-background="new    " points="44.007,6.853 40.257,10.122 46.42,10.122 
				48.742,16.495 50.183,7.387 50.004,6.853 			"/>
			<polygon opacity="0.7" fill="#F8ED40" enable-background="new    " points="23.511,10.12 28.012,6.859 33.655,6.859 
				35.048,10.121 			"/>
			<polygon opacity="0.7" fill="#F7961D" enable-background="new    " points="28.299,6.859 30.064,10.121 37.416,10.122 
				38.845,6.859 			"/>
			<polygon opacity="0.7" fill="#754D9E" enable-background="new    " points="50.095,7.125 47.509,13.111 49.389,18.294 
				52.674,16.495 			"/>
			<polygon opacity="0.7" fill="#426EB5" enable-background="new    " points="51.879,13.608 49.287,18.014 52.48,26.829 
				55.779,27.854 			"/>
			<polygon opacity="0.7" fill="#06B052" enable-background="new    " points="52.48,26.829 54.412,22.852 55.779,27.854 
				55.561,35.339 			"/>
			<polygon opacity="0.7" fill="#F8ED40" enable-background="new    " points="57.191,22.852 59.033,26.732 56,35.339 
				55.779,27.854 			"/>
			<polygon opacity="0.7" fill="#F7961D" enable-background="new    " points="55.779,27.854 59.29,15.053 60.956,15.056 
				62.307,17.502 58.836,27.291 			"/>
			<polygon opacity="0.6" fill="#ED2A25" enable-background="new    " points="59.29,15.053 58.062,19.535 61.018,21.141 
				62.307,17.502 66.352,17.481 66.77,15.053 			"/>
			<polygon opacity="0.7" fill="#ED4798" enable-background="new    " points="64.169,15.063 62.307,17.502 72.794,17.502 
				71.441,15.418 70.693,15.053 			"/>
			<polygon opacity="0.6" fill="#754D9E" enable-background="new    " points="67.066,17.502 68.823,15.053 70.693,15.053 
				75.611,17.502 			"/>
			<polygon opacity="0.6" fill="#ED2A25" enable-background="new    " points="45.396,6.853 45.484,10.121 35.537,10.122 
				30.386,6.853 			"/>
		</g>
	</g>
</g>
<g id="Layer_2" display="none">
	<g display="inline">
		<polygon opacity="0.3" fill="#ED2A25" points="-99.374,154.75 -71.966,70.459 -30.08,154.75 		"/>
		<polygon opacity="0.4" fill="#F7961D" points="88.209,156.75 130.095,69.356 158.02,156.75 		"/>
		<polygon opacity="0.3" fill="#F8ED40" points="77.04,74.379 96.114,189.009 34.177,156.798 		"/>
		<polyline opacity="0.4" fill="#ED4798" points="142.622,159.627 172.111,76.37 239.011,159.627 		"/>
		<polyline opacity="0.3" fill="#426EB5" points="-55.433,157.491 -20.787,79.923 19.032,157.491 		"/>
		<polygon opacity="0.8" fill="#F8ED40" points="-96.992,69.222 -68.001,189.009 -139.855,151.64 		"/>
		<polygon opacity="0.8" fill="#F7961D" points="-85.138,160.75 -43.251,73.356 -15.327,160.75 		"/>
		<polygon opacity="0.8" fill="#ED2A25" points="163.96,160.75 193.1,76.459 237.634,160.75 		"/>
		<polygon opacity="0.8" fill="#06B052" points="-31.306,156.75 5.332,95.729 31.824,156.75 		"/>
		<polyline opacity="0.8" fill="#ED4798" points="98.487,162.704 31.588,79.447 2.099,162.704 		"/>
		<polyline opacity="0.8" fill="#754D9E" points="130.226,159.543 148.205,89.213 183.044,159.543 		"/>
		<polyline opacity="0.8" fill="#426EB5" points="70.73,159.543 105.377,81.974 145.195,159.543 		"/>
		<polygon fill="#F8ED40" points="-96.992,69.222 -79.701,94.45 -86.113,114.172 		"/>
		<polygon opacity="0.4" fill="#ED2A25" points="-71.966,70.662 -86.112,85.096 -79.701,94.45 		"/>
		<polygon opacity="0.9" fill="#F7961D" points="-43.251,73.714 -27.275,94.45 -32.726,106.653 		"/>
		<polygon opacity="0.4" fill="#426EB5" points="-20.787,79.923 -0.239,105.263 -4.304,112.032 		"/>
		<polygon opacity="0.9" fill="#06B052" points="5.332,95.983 21.527,107.854 16.566,121.858 		"/>
		<polygon fill="#ED4798" points="31.588,79.447 61.539,104.186 57.58,111.796 		"/>
		<polygon opacity="0.4" fill="#F8ED40" points="77.04,74.379 94.354,106.653 85.696,126.036 		"/>
		<polygon fill="#426EB5" points="105.377,81.974 92.064,102.386 94.354,106.653 		"/>
		<polygon opacity="0.3" fill="#F7961D" points="130.095,69.611 110.999,92.927 115.096,100.906 		"/>
		<polygon opacity="0.9" fill="#754D9E" points="148.205,89.213 163.668,100.208 159.492,111.998 		"/>
		<polygon opacity="0.5" fill="#ED4798" points="172.111,76.37 148.205,89.213 163.668,100.208 		"/>
		<polygon opacity="0.9" fill="#ED2A25" points="193.1,76.816 215.419,95.462 215.366,118.962 		"/>
		<polygon opacity="0.7" fill="#06B052" points="5.332,95.983 31.588,79.447 21.527,107.854 		"/>
		<polygon opacity="0.5" fill="#426EB5" points="5.332,95.983 -20.787,79.923 -0.239,105.263 		"/>
		<polygon fill="#F7961D" points="-43.251,73.714 -20.787,79.923 -27.275,94.45 		"/>
		<polygon opacity="0.4" fill="#ED2A25" points="-71.966,70.662 -43.251,73.714 -56.604,101.575 		"/>
		<polygon opacity="0.7" fill="#ED4798" points="-96.992,69.222 -113.335,72.64 -113.106,100.208 		"/>
		<polygon opacity="0.4" fill="#426EB5" points="-20.787,79.923 -10.186,60.844 5.332,95.983 		"/>
		<polygon opacity="0.9" fill="#F7961D" points="-43.251,73.714 -35.263,64.691 -20.787,79.923 		"/>
		<polygon opacity="0.5" fill="#F7961D" points="130.095,69.611 148.205,89.213 142.939,109.81 		"/>
		<polygon opacity="0.9" fill="#426EB5" points="105.377,81.974 78.475,54.433 77.04,74.379 92.064,102.386 		"/>
		<polygon opacity="0.7" fill="#426EB5" points="77.04,74.379 105.377,81.974 92.064,102.386 		"/>
		<polygon opacity="0.45" fill="#F7961D" points="130.095,69.611 110.999,56.74 105.377,81.974 110.999,92.927 		"/>
		<polygon opacity="0.6" fill="#ED4798" points="148.205,89.213 167.712,50.33 172.111,76.37 		"/>
		<polygon opacity="0.7" fill="#ED4798" points="167.712,50.33 193.1,76.816 186.895,94.768 172.111,76.37 		"/>
		<polygon opacity="0.5" fill="#426EB5" points="-1.97,79.447 10.607,65.545 5.332,95.983 		"/>
		<polygon fill="#ED2A25" points="215.419,95.462 200.797,50.33 193.1,76.816 		"/>
		<polygon opacity="0.4" fill="#ED2A25" points="193.27,76.459 163.96,160.75 198.483,160.75 		"/>
		<polygon opacity="0.5" fill="#ED4798" points="31.588,79.493 2.099,162.75 43.6,162.75 		"/>
		<polygon opacity="0.8" fill="#06B052" points="5.332,95.983 21.527,60.844 31.588,79.902 		"/>
		<polyline opacity="0.5" fill="#ED2A25" points="-71.966,70.662 -55.433,44.859 -43.251,73.714 		"/>
		<polygon opacity="0.8" fill="#ED4798" points="-113.335,72.64 -93.163,44.859 -96.992,69.222 		"/>
		<polygon opacity="0.9" fill="#ED4798" points="-93.163,44.859 -86.112,85.096 -96.992,69.222 		"/>
		<polygon fill="#F8ED40" points="-113.335,154.953 -113.106,100.208 -96.992,69.222 -103.249,155.524 		"/>
		<polygon opacity="0.9" fill="#ED4798" points="41.343,87.504 52.318,50.33 70.73,87.504 61.539,104.186 		"/>
		<polygon fill="#ED2A25" points="-113.335,155.75 -84.272,115.861 -72.647,155.75 		"/>
		<polygon opacity="0.9" fill="#ED2A25" points="-83.437,116.09 -112.5,136.034 -112.5,155.979 		"/>
		<polygon fill="#754D9E" points="-80.476,130.141 -64.727,102.601 -39.141,155.976 -72.647,157.005 		"/>
		<polygon fill="#426EB5" points="-54.356,155.21 -35.475,112.808 -18.201,155.524 		"/>
		<polygon opacity="0.9" fill="#754D9E" points="-64.727,102.601 -40,122.969 -47.206,139.15 		"/>
		<polygon fill="#F8ED40" points="-24.693,139.264 -6.766,104.355 13.43,155.75 -17.943,155.75 		"/>
		<polygon opacity="0.9" fill="#426EB5" points="-35.475,112.808 -17.234,124.878 -24.693,139.378 		"/>
		<polygon fill="#F7961D" points="2.099,155.75 25.309,122.085 44.968,155.75 		"/>
		<polygon opacity="0.9" fill="#F8ED40" points="-6.766,104.526 19.032,131.694 9.319,145.507 		"/>
		<polygon opacity="0.9" fill="#F7961D" points="25.309,122.313 46.563,128.099 38.068,144.162 		"/>
		<polygon fill="#06B052" points="32.061,156.55 55.012,107.679 78.475,155.979 		"/>
		<polygon fill="#ED4798" points="71.76,142.155 96.114,109.81 115.4,155.524 78.475,155.979 		"/>
		<polygon opacity="0.9" fill="#06B052" points="55.012,107.679 79.319,132.115 71.76,142.155 		"/>
		<polygon fill="#F8ED40" points="106.938,155.75 127.453,119.188 158.02,155.75 		"/>
		<polygon fill="#426EB5" points="146.685,155.75 177.97,104.753 206.946,155.75 		"/>
		<polygon opacity="0.9" fill="#ED4798" points="96.114,109.81 121.515,130.001 111.878,147.176 		"/>
		<polygon opacity="0.9" fill="#F8ED40" points="127.453,119.417 160.847,132.895 151.482,148.159 		"/>
		<polygon fill="#F7961D" points="190.939,127.705 207.548,103.081 216.5,127.592 216.5,155.75 206.689,155.75 		"/>
		<polygon opacity="0.9" fill="#426EB5" points="177.97,104.981 199.507,114.862 190.939,127.818 		"/>
		<polygon opacity="0.9" fill="#F7961D" points="207.259,103.139 215.382,111.998 215.419,126.175 		"/>
		<polygon fill="#426EB5" points="78.475,54.433 67.166,80.306 70.73,87.504 77.04,74.379 		"/>
	</g>
</g>
<g id="Layer_3">
	<rect x="-36.539" y="-15.141" fill="#FFFFFF" width="189.373" height="51.641"/>
	<polygon opacity="0.6" fill="#F8ED40" points="11.525,36.75 34.357,2.502 60.384,36.75 	"/>
	<polygon opacity="0.6" fill="#ED2A25" points="-18.817,36.75 10.143,-6.688 43.153,36.75 	"/>
	<polygon opacity="0.7" fill="#ED4798" points="-9.645,36.75 6.7,12.233 25.332,36.75 	"/>
	<polygon opacity="0.8" fill="#426EB5" points="-27.631,36.75 -17.842,22.066 -6.683,36.75 	"/>
	<polygon fill="#F8ED40" points="116.369,36.75 126.158,22.066 137.317,36.75 	"/>
	<polygon opacity="0.4" fill="#754D9E" points="53.043,36.75 75.875,2.502 101.901,36.75 	"/>
	<polygon opacity="0.6" fill="#06B052" points="24.192,36.75 52.82,-6.193 85.454,36.75 	"/>
	<polygon opacity="0.6" fill="#426EB5" points="67.754,36.75 96.383,-6.193 129.016,36.75 	"/>
	<polygon opacity="0.5" fill="#F7961D" points="82.04,36.75 98.386,12.233 117.018,36.75 	"/>
	<polygon opacity="0.7" fill="#ED4798" points="6.7,12.28 22.347,20.564 17.977,27.12 	"/>
	<polygon opacity="0.05" points="6.7,12.28 22.347,20.564 17.977,27.12 	"/>
	<polygon opacity="0.8" fill="#F8ED40" points="34.357,2.549 21.803,8.704 26.305,14.627 	"/>
	<polygon opacity="0.5" fill="#754D9E" points="75.875,2.549 87.844,6.663 83.712,12.861 	"/>
	<polygon fill="#F8ED40" points="24.724,35.908 33.041,23.471 43.153,36.75 25.287,36.75 	"/>
	<polyline fill="#F7961D" points="83.729,34.225 91.309,22.852 101.901,36.75 85.401,36.75 83.729,34.504 	"/>
	<g>
		<polygon opacity="0.7" fill="#F8ED40" points="-165.293,112.75 -141.158,76.549 -113.646,112.75 		"/>
		<polygon opacity="0.6" fill="#754D9E" points="-119.506,112.75 -95.713,77.061 -68.59,112.75 		"/>
		<polygon opacity="0.6" fill="#ED2A25" points="-206.539,112.75 -169.998,71.072 -140.256,112.75 		"/>
		<polygon opacity="0.6" fill="#06B052" points="-149.596,112.75 -113.055,71.072 -83.312,112.75 		"/>
		<polygon opacity="0.6" fill="#426EB5" points="-98.652,112.75 -62.111,71.072 -32.369,112.75 		"/>
		<polygon opacity="0.8" fill="#F8ED40" points="-141.158,76.226 -153.225,94.326 -159.885,84.921 		"/>
		<polygon opacity="0.7" fill="#06B052" points="-75.238,112.75 -59.33,88.89 -41.199,112.75 		"/>
		<polygon opacity="0.8" fill="#754D9E" points="-95.713,76.737 -82.549,94.06 -74.248,84.591 		"/>
		<polygon opacity="0.7" fill="#ED4798" points="-102.016,86.527 -119.506,112.75 -83.293,112.75 		"/>
		<polygon opacity="0.7" fill="#ED4798" points="-102.016,86.204 -82.549,94.06 -90.188,102.771 		"/>
		<polygon opacity="0.9" fill="#06B052" points="-59.33,88.566 -77.043,101.177 -72.131,107.767 		"/>
		<polygon opacity="0.8" fill="#06B052" points="-75.238,112.75 -72.131,108.09 -68.59,112.75 		"/>
		<polygon opacity="0.5" fill="#426EB5" points="-82.549,94.06 -72.379,97.856 -77.043,101.177 		"/>
		<polygon opacity="0.8" fill="#06B052" points="-113.055,70.749 -98.152,80.396 -102.016,86.204 		"/>
		<polygon opacity="0.6" fill="#426EB5" points="-149.596,112.75 -130.338,90.785 -113.646,112.75 		"/>
		<polygon opacity="0.7" fill="#426EB5" points="-130.338,90.462 -112.186,101.444 -116.768,108.319 		"/>
		<polygon opacity="0.6" fill="#426EB5" points="-149.596,112.75 -144.447,106.877 -140.256,112.75 		"/>
		<polyline opacity="0.8" fill="#ED2A25" points="-153.225,94.326 -153.117,94.384 -139.967,101.444 -144.447,106.554 		"/>
		<polygon opacity="0.7" fill="#ED2A25" points="-169.998,70.749 -157.338,83.739 -159.885,84.921 		"/>
		<polygon opacity="0.7" fill="#426EB5" points="-62.111,70.749 -77.465,83.415 -74.248,84.591 		"/>
		<polygon opacity="0.04" points="-113.055,70.749 -112.186,101.444 -130.338,90.462 		"/>
		<polyline opacity="0.05" fill="#FFFFFF" points="-169.752,70.749 -172.145,91.749 -182.293,112.75 -206.293,112.75 
			-206.293,112.75 -170.211,70.911 		"/>
		<polygon opacity="0.9" fill="#ED4798" points="-177.33,88.566 -157.338,100.497 -162.48,108.177 		"/>
		<polygon opacity="0.7" fill="#ED4798" points="-193.238,112.75 -177.33,88.89 -159.199,112.75 		"/>
		<polygon opacity="0.05" fill="#FFFFFF" points="-62.074,70.911 -61.258,90.033 -59.32,88.768 -41.199,112.75 -32.293,112.75 		"/>
		<polygon fill="#F8ED40" points="-162.367,108.643 -165.293,112.75 -159.293,112.75 		"/>
		<polygon opacity="0.9" fill="#F7961D" points="-51.244,112.75 -39.465,96.258 -22.297,112.75 		"/>
		<polygon opacity="0.02" points="-141.158,76.226 -139.967,101.444 -130.338,90.462 		"/>
		<polygon fill="#F7961D" points="-39.465,96.134 -49.514,101.644 -46.367,105.799 		"/>
	</g>
	<polygon opacity="0.9" fill="#F7961D" points="26.305,14.627 12.168,36.5 24.724,36.5 33.041,23.471 	"/>
	<polygon fill="#F7961D" points="26.305,14.627 18.881,18.73 22.444,20.601 	"/>
	<polygon opacity="0.05" points="26.059,14.627 18.635,18.73 22.198,20.601 	"/>
	<polygon opacity="0.7" fill="#ED4798" points="98.386,12.28 116.827,36.5 101.711,36.5 91.309,22.852 	"/>
	<polygon opacity="0.8" fill="#ED4798" points="98.386,12.28 87.359,17.614 91.309,22.852 	"/>
	<polygon fill="#426EB5" points="-17.842,22.066 -10.645,24.491 -13.146,28.244 	"/>
	<polygon fill="#F8ED40" points="126.158,22.066 119.7,24.491 122.279,27.885 	"/>
	<polygon opacity="0.05" points="126.158,22.066 119.7,24.491 122.279,27.885 	"/>
</g>
</svg>
