<?xml version="1.0" encoding="utf-8"?>
<!-- Generator: Adobe Illustrator 16.0.4, SVG Export Plug-In . SVG Version: 6.00 Build 0)  -->
<!DOCTYPE svg PUBLIC "-//W3C//DTD SVG 1.1//EN" "http://www.w3.org/Graphics/SVG/1.1/DTD/svg11.dtd">
<svg version="1.1" id="Layer_2" xmlns="http://www.w3.org/2000/svg" xmlns:xlink="http://www.w3.org/1999/xlink" x="0px" y="0px"
	 width="44px" height="44px" viewBox="0 0 44 44" enable-background="new 0 0 44 44" xml:space="preserve">
<g>
	<polygon opacity="0.9" fill="#F8ED40" points="41.021,25.581 22.166,25.229 27.34,16.496 	"/>
	<polygon opacity="0.7" fill="#F8ED40" points="2.5,0 6.372,13.996 6.786,5.499 	"/>
	<polygon opacity="0.7" fill="#ED2A25" enable-background="new    " points="6.786,5.499 3.905,5.081 6.372,13.996 14.666,15.607 	
		"/>
	<polygon opacity="0.7" fill="#754D9E" enable-background="new    " points="6.372,13.996 9.705,26.045 14.666,15.607 
		10.314,10.026 	"/>
	<polygon opacity="0.7" fill="#ED4798" enable-background="new    " points="7.548,18.249 14.666,15.607 22.166,25.229 
		9.705,26.045 	"/>
	<polygon opacity="0.7" fill="#06B052" enable-background="new    " points="9.705,26.045 19.249,21.488 22.166,25.229 
		13.083,38.253 	"/>
	<polygon opacity="0.7" fill="#426EB5" enable-background="new    " points="22.166,25.229 11.604,32.912 14.672,44 	"/>
	<polygon opacity="0.9" fill="#F7961D" points="22.166,25.229 36.918,22.857 23.576,13.996 19.249,21.488 	"/>
	<polygon opacity="0.9" fill="#ED4798" enable-background="new    " points="10.314,10.026 19.249,21.488 27.34,16.496 
		23.576,13.996 	"/>
	<polygon opacity="0.8" fill="#426EB5" enable-background="new    " points="2.5,0 16.689,9.423 6.786,5.499 	"/>
	<polyline opacity="0.8" fill="#06B052" points="6.786,5.499 7.548,3.353 16.689,9.423 10.314,10.026 	"/>
	<polygon opacity="0.8" fill="#754D9E" enable-background="new    " points="14.666,15.607 23.576,13.996 10.519,5.325 
		10.314,10.026 	"/>
</g>
</svg>
