<?xml version="1.0" encoding="utf-8"?>
<!-- Generator: Adobe Illustrator 16.0.4, SVG Export Plug-In . SVG Version: 6.00 Build 0)  -->
<!DOCTYPE svg PUBLIC "-//W3C//DTD SVG 1.1//EN" "http://www.w3.org/Graphics/SVG/1.1/DTD/svg11.dtd">
<svg version="1.1" id="Layer_2" xmlns="http://www.w3.org/2000/svg" xmlns:xlink="http://www.w3.org/1999/xlink" x="0px" y="0px"
	 width="44px" height="44px" viewBox="0 0 44 44" enable-background="new 0 0 44 44" xml:space="preserve">
<g display="none">
	<polygon display="inline" opacity="0.9" fill="#F8ED40" enable-background="new    " points="14.751,32.305 -3.497,31.964 
		1.51,23.512 	"/>
	<polygon display="inline" opacity="0.7" fill="#F8ED40" enable-background="new    " points="-22.53,7.547 -18.782,21.093 
		-18.382,12.869 	"/>
	<polygon display="inline" opacity="0.7" fill="#ED2A25" enable-background="new    " points="-18.382,12.869 -21.17,12.465 
		-18.782,21.093 -10.755,22.652 	"/>
	<polygon display="inline" opacity="0.7" fill="#754D9E" enable-background="new    " points="-18.782,21.093 -15.557,32.754 
		-10.755,22.652 -14.967,17.25 	"/>
	<polygon display="inline" opacity="0.7" fill="#ED4798" enable-background="new    " points="-17.645,25.209 -10.755,22.652 
		-3.497,31.964 -15.557,32.754 	"/>
	<polygon display="inline" opacity="0.7" fill="#06B052" enable-background="new    " points="-15.557,32.754 -6.32,28.344 
		-3.497,31.964 -12.288,44.568 	"/>
	<polygon display="inline" opacity="0.7" fill="#426EB5" enable-background="new    " points="-3.497,31.964 -13.719,39.4 
		-10.75,50.131 	"/>
	<polygon display="inline" opacity="0.9" fill="#F7961D" enable-background="new    " points="-3.497,31.964 10.78,29.669 
		-2.132,21.093 -6.32,28.344 	"/>
	<polygon display="inline" opacity="0.9" fill="#ED4798" enable-background="new    " points="-14.967,17.25 -6.32,28.344 
		1.51,23.512 -2.132,21.093 	"/>
	<polygon display="inline" opacity="0.8" fill="#426EB5" enable-background="new    " points="-22.53,7.547 -8.798,16.667 
		-18.382,12.869 	"/>
	<polyline display="inline" opacity="0.8" fill="#06B052" enable-background="new    " points="-18.382,12.869 -17.645,10.793 
		-8.798,16.667 -14.967,17.25 	"/>
	<polygon display="inline" opacity="0.8" fill="#754D9E" enable-background="new    " points="-10.755,22.652 -2.132,21.093 
		-14.769,12.701 -14.967,17.25 	"/>
</g>
<g display="none">
	<polygon display="inline" opacity="0.9" fill="#F8ED40" enable-background="new    " points="-6.166,25.085 -12.913,24.959 
		-11.062,21.834 	"/>
	<polygon display="inline" opacity="0.7" fill="#F8ED40" enable-background="new    " points="-19.95,15.932 -18.564,20.94 
		-18.417,17.899 	"/>
	<polygon display="inline" opacity="0.7" fill="#ED2A25" enable-background="new    " points="-18.417,17.899 -19.448,17.75 
		-18.564,20.94 -15.597,21.517 	"/>
	<polygon display="inline" opacity="0.7" fill="#754D9E" enable-background="new    " points="-18.564,20.94 -17.372,25.252 
		-15.597,21.517 -17.154,19.519 	"/>
	<polygon display="inline" opacity="0.7" fill="#ED4798" enable-background="new    " points="-18.144,22.462 -15.597,21.517 
		-12.913,24.959 -17.372,25.252 	"/>
	<polygon display="inline" opacity="0.7" fill="#06B052" enable-background="new    " points="-17.372,25.252 -13.957,23.621 
		-12.913,24.959 -16.164,29.62 	"/>
	<polygon display="inline" opacity="0.7" fill="#426EB5" enable-background="new    " points="-12.913,24.959 -16.692,27.709 
		-15.595,31.677 	"/>
	<polygon display="inline" opacity="0.9" fill="#F7961D" enable-background="new    " points="-12.913,24.959 -7.635,24.11 
		-12.409,20.94 -13.957,23.621 	"/>
	<polygon display="inline" opacity="0.9" fill="#ED4798" enable-background="new    " points="-17.154,19.519 -13.957,23.621 
		-11.062,21.834 -12.409,20.94 	"/>
	<polygon display="inline" opacity="0.8" fill="#426EB5" enable-background="new    " points="-19.95,15.932 -14.873,19.304 
		-18.417,17.899 	"/>
	<polyline display="inline" opacity="0.8" fill="#06B052" enable-background="new    " points="-18.417,17.899 -18.144,17.132 
		-14.873,19.304 -17.154,19.519 	"/>
	<polygon display="inline" opacity="0.8" fill="#754D9E" enable-background="new    " points="-15.597,21.517 -12.409,20.94 
		-17.081,17.837 -17.154,19.519 	"/>
</g>
<g>
	<polygon fill="#9E9E9E" points="3.12,1.417 22.153,25.833 14.9,44 	"/>
	<polygon fill="#9E9E9E" points="3.12,1.417 40.401,26.174 22.153,25.833 	"/>
</g>
<g display="none">
	<polygon display="inline" opacity="0.9" fill="#ED4798" enable-background="new    " points="22.392,24.694 11.063,28.126 
		15.139,42.862 	"/>
	<polygon display="inline" opacity="0.6" fill="#06B052" enable-background="new    " points="22.392,24.694 32.759,19.802 
		40.641,25.036 	"/>
	<polygon display="inline" opacity="0.9" fill="#754D9E" enable-background="new    " points="22.392,24.694 15.463,15.806 
		11.063,28.126 	"/>
	<polygon display="inline" opacity="0.9" fill="#F8ED40" enable-background="new    " points="11.063,28.126 6.453,11.462 
		15.463,15.806 	"/>
	<polygon display="inline" opacity="0.6" fill="#F7961D" enable-background="new    " points="15.463,15.806 32.759,19.802 
		22.392,24.694 	"/>
	<polygon display="inline" opacity="0.6" fill="#ED2A25" enable-background="new    " points="15.463,15.806 15.463,8.316 
		32.759,19.802 	"/>
	<polygon display="inline" opacity="0.9" fill="#06B052" enable-background="new    " points="15.463,15.806 7.591,5.707 
		6.453,11.462 	"/>
	<polygon display="inline" opacity="0.9" fill="#426EB5" enable-background="new    " points="3.359,0.278 7.591,5.707 
		6.453,11.462 	"/>
	<polygon display="inline" opacity="0.6" fill="#ED4798" enable-background="new    " points="7.591,5.707 15.463,8.316 
		15.463,15.806 	"/>
	<polygon display="inline" opacity="0.6" fill="#426EB5" enable-background="new    " points="3.359,0.278 15.463,8.316 
		7.591,5.707 	"/>
</g>
</svg>
