<?xml version="1.0" encoding="utf-8"?>
<!-- Generator: Adobe Illustrator 16.0.0, SVG Export Plug-In . SVG Version: 6.00 Build 0)  -->
<!DOCTYPE svg PUBLIC "-//W3C//DTD SVG 1.1//EN" "http://www.w3.org/Graphics/SVG/1.1/DTD/svg11.dtd">
<svg version="1.1" id="Layer_1" xmlns="http://www.w3.org/2000/svg" xmlns:xlink="http://www.w3.org/1999/xlink" x="0px" y="0px"
	 width="100px" height="100px" viewBox="0 0 100 100" enable-background="new 0 0 100 100" xml:space="preserve">
<g id="hexMarker">
	
		<animateTransform  type="scale" fill="freeze" restart="always" calcMode="linear" additive="replace" accumulate="none" repeatCount="indefinite" dur="1s" by="1" from="0.5" attributeName="transform" attributeType="xml">
		</animateTransform>
</g>
<g transform="translate(50,50)" opacity="0.7">
	<g id="pulse">
		<path opacity="0.1" fill="none" stroke="#000000" stroke-width="3" stroke-miterlimit="10" enable-background="new    " d="
			M20.861,0.303c-0.347,11.595-10.023,20.71-21.617,20.364C-12.349,20.32-21.466,10.644-21.12-0.951
			c0.346-11.593,10.025-20.71,21.618-20.364c6.702,0.2,12.58,3.521,16.276,8.527C19.472-9.138,21.007-4.588,20.861,0.303z"/>
		
			<animateTransform  type="scale" fill="freeze" restart="always" calcMode="linear" additive="replace" accumulate="none" repeatCount="indefinite" dur="2s" by="2" from="0" attributeName="transform" attributeType="xml">
			</animateTransform>
		
			<animate  fill="freeze" values="0;0.5;0" to="0" restart="always" calcMode="linear" additive="replace" accumulate="none" repeatCount="indefinite" dur="2s" from="0" attributeName="fill-opacity" attributeType="xml">
			</animate>
		<polygon fill="none" stroke="#000000" stroke-miterlimit="10" points="-18.81,-10.869 -0.145,-21.586 18.471,-10.781 
			18.42,10.741 -0.245,21.46 -18.86,10.653 		"/>
		<polygon fill="none" stroke="#000000" stroke-miterlimit="10" points="-17.601,-10.111 -0.146,-19.999 17.263,-10.029 
			17.216,9.827 -0.239,19.715 -17.647,9.744 		"/>
	</g>
</g>
<g id="centre" opacity="0.1">
	<circle cx="100" cy="100" r="2"/>
</g>
</svg>
