<?xml version="1.0" encoding="utf-8"?>
<!-- Generator: Adobe Illustrator 16.0.0, SVG Export Plug-In . SVG Version: 6.00 Build 0)  -->
<!DOCTYPE svg PUBLIC "-//W3C//DTD SVG 1.1//EN" "http://www.w3.org/Graphics/SVG/1.1/DTD/svg11.dtd">
<svg version="1.1" id="Layer_1" xmlns="http://www.w3.org/2000/svg" xmlns:xlink="http://www.w3.org/1999/xlink" x="0px" y="0px"
	 width="150px" height="150px" viewBox="0 0 150 150" enable-background="new 0 0 150 150" xml:space="preserve">
<path fill="none" stroke="#000000" stroke-width="4" stroke-miterlimit="10" d="M116.538,57.692H88.846v-6.923h27.692V57.692z
	 M130.385,50.769v55.385c0,7.646-6.2,13.846-13.847,13.846H33.461c-7.646,0-13.846-6.199-13.846-13.846V50.769
	c0-7.646,6.2-13.846,13.846-13.846c0-3.827,3.1-6.923,6.923-6.923h13.846c3.823,0,6.923,3.097,6.923,6.923h55.384
	C124.185,36.923,130.385,43.123,130.385,50.769z M95.77,92.308c0-11.466-9.297-20.769-20.77-20.769
	c-11.473,0-20.769,9.303-20.769,20.769c0,11.467,9.296,20.77,20.769,20.77C86.473,113.077,95.77,103.774,95.77,92.308z
	 M123.462,50.769c0-3.82-3.104-6.923-6.924-6.923H33.461c-3.82,0-6.923,3.103-6.923,6.923v13.846h96.923V50.769z M75,78.462
	c-7.633,0-13.846,6.206-13.846,13.846S67.367,106.154,75,106.154s13.846-6.207,13.846-13.847S82.633,78.462,75,78.462z"/>
</svg>
