<?xml version="1.0" encoding="utf-8"?>
<!-- Generator: Adobe Illustrator 16.0.4, SVG Export Plug-In . SVG Version: 6.00 Build 0)  -->
<!DOCTYPE svg PUBLIC "-//W3C//DTD SVG 1.1//EN" "http://www.w3.org/Graphics/SVG/1.1/DTD/svg11.dtd">
<svg version="1.1" id="Layer_2" xmlns="http://www.w3.org/2000/svg" xmlns:xlink="http://www.w3.org/1999/xlink" x="0px" y="0px"
	 width="960px" height="1080px" viewBox="0 0 960 1080" enable-background="new 0 0 960 1080" xml:space="preserve">
<image display="none" overflow="visible" width="6748" height="4500" xlink:href="D6196A67C499D17D.jpg"  transform="matrix(0.24 0 0 0.24 -173.2798 0)">
</image>
<linearGradient id="SVGID_1_" gradientUnits="userSpaceOnUse" x1="466.0005" y1="173.0005" x2="466.0003" y2="1262.7349" gradientTransform="matrix(1 0 0 -1 14 1253)">
	<stop  offset="0" style="stop-color:#F8ED40"/>
	<stop  offset="0.2576" style="stop-color:#FF8A15"/>
	<stop  offset="0.5424" style="stop-color:#FF3FE5"/>
	<stop  offset="0.7917" style="stop-color:#3F81FF"/>
	<stop  offset="1" style="stop-color:#00944C"/>
</linearGradient>
<rect y="-9.735" opacity="0.9" fill="url(#SVGID_1_)" enable-background="new    " width="960" height="1089.735"/>
<g enable-background="new    ">
	<path fill="#FFFFFF" d="M273.959,478.802h-13.5v-2.88h30.359v2.88h-13.5V517.5h-3.36V478.802z"/>
	<path fill="#FFFFFF" d="M288.36,509.7c0-5.22,3.24-8.04,9.179-8.699l8.94-1.021v-3.96c0-5.1-2.34-6.659-7.8-6.659
		c-3,0-5.52,0.54-7.68,1.2v-2.4c2.64-1.02,5.46-1.62,8.88-1.62c6.299,0,9.839,2.641,9.839,8.76V517.5h-2.7l-0.3-2.64h-0.18
		c-1.5,1.56-4.32,3.18-8.76,3.18C292.2,518.04,288.36,515.04,288.36,509.7z M306.479,512.76V502.44l-8.1,0.9
		c-4.56,0.479-6.66,2.34-6.66,6.239c0,3.78,2.64,5.88,6.84,5.88C302.04,515.46,304.919,514.2,306.479,512.76z"/>
	<path fill="#FFFFFF" d="M317.16,487.081h3.12v2.58h0.18c2.22-1.62,5.46-3.12,9.78-3.12c6.84,0,12.359,3.6,12.359,15.239v0.66
		c0,10.859-5.4,15.6-13.859,15.6c-3.72,0-6.479-1.08-8.34-2.16v13.319h-3.24V487.081z M339.179,502.86v-0.96
		c0-9.72-3.66-12.539-9.72-12.539c-3.959,0-7.199,1.439-9.06,2.699v21c1.74,1.199,4.62,2.279,8.1,2.279
		C335.099,515.34,339.179,511.74,339.179,502.86z"/>
	<path fill="#FFFFFF" d="M361.378,511.141v-21.359h-4.5v-2.7h4.5v-7.199h3.24v7.199h8.279v2.7h-8.279v20.879
		c0,3.12,1.08,4.439,4.859,4.439c1.32,0,2.82-0.239,4.08-0.6v2.22c-1.08,0.54-2.58,1.08-4.92,1.08
		C364.018,517.8,361.378,515.82,361.378,511.141z"/>
	<path fill="#FFFFFF" d="M376.438,502.801v-0.84c0-9.96,5.7-15.42,13.56-15.42c8.22,0,13.62,5.28,13.62,15.239v0.78
		c0,9.96-5.76,15.479-13.68,15.479C381.718,518.04,376.438,512.76,376.438,502.801z M400.258,502.86v-1.2
		c0-8.999-4.44-12.419-10.32-12.419c-6.06,0-10.2,4.319-10.2,12.419v1.261c0,8.879,4.44,12.419,10.32,12.419
		C396.118,515.34,400.258,511.141,400.258,502.86z"/>
	<path fill="#FFFFFF" d="M422.277,511.141v-21.359h-4.5v-2.7h4.5v-7.199h3.24v7.199h8.279v2.7h-8.279v20.879
		c0,3.12,1.08,4.439,4.859,4.439c1.32,0,2.82-0.239,4.08-0.6v2.22c-1.08,0.54-2.58,1.08-4.92,1.08
		C424.917,517.8,422.277,515.82,422.277,511.141z"/>
	<path fill="#FFFFFF" d="M437.517,509.7c0-5.22,3.24-8.04,9.18-8.699l8.94-1.021v-3.96c0-5.1-2.34-6.659-7.8-6.659
		c-3,0-5.52,0.54-7.68,1.2v-2.4c2.64-1.02,5.46-1.62,8.879-1.62c6.3,0,9.84,2.641,9.84,8.76V517.5h-2.7l-0.3-2.64h-0.18
		c-1.5,1.56-4.32,3.18-8.76,3.18C441.356,518.04,437.517,515.04,437.517,509.7z M455.636,512.76V502.44l-8.1,0.9
		c-4.56,0.479-6.66,2.34-6.66,6.239c0,3.78,2.64,5.88,6.839,5.88C451.196,515.46,454.076,514.2,455.636,512.76z"/>
	<path fill="#FFFFFF" d="M466.316,473.162h3.24V517.5h-3.24V473.162z M471.596,501.721l12.12-14.64h3.54l-12.06,14.46l12.96,15.959
		h-3.78L471.596,501.721z"/>
	<path fill="#FFFFFF" d="M489.775,502.681v-0.72c0-10.56,6.061-15.42,13.2-15.42c8.279,0,12.06,5.1,12.06,14.22v1.86h-21.959
		c0,8.759,3.84,12.599,11.52,12.599c4.08,0,6.959-0.96,9.42-2.159v2.46c-1.86,1.199-5.221,2.52-9.9,2.52
		C494.576,518.04,489.775,512.46,489.775,502.681z M493.136,499.98h18.479c0-7.14-2.82-10.739-8.76-10.739
		C498.056,489.241,493.615,492.241,493.136,499.98z"/>
	<path fill="#FFFFFF" d="M529.735,509.7c0-5.22,3.239-8.04,9.179-8.699l8.94-1.021v-3.96c0-5.1-2.34-6.659-7.8-6.659
		c-3,0-5.52,0.54-7.68,1.2v-2.4c2.64-1.02,5.46-1.62,8.88-1.62c6.3,0,9.839,2.641,9.839,8.76V517.5h-2.699l-0.301-2.64h-0.18
		c-1.5,1.56-4.319,3.18-8.76,3.18C533.575,518.04,529.735,515.04,529.735,509.7z M547.854,512.76V502.44l-8.1,0.9
		c-4.56,0.479-6.66,2.34-6.66,6.239c0,3.78,2.64,5.88,6.84,5.88C543.414,515.46,546.295,514.2,547.854,512.76z"/>
	<path fill="#FFFFFF" d="M569.814,487.081h3.119v2.58h0.18c2.221-1.62,5.461-3.12,9.78-3.12c6.84,0,12.359,3.6,12.359,15.239v0.66
		c0,10.859-5.399,15.6-13.859,15.6c-3.72,0-6.479-1.08-8.34-2.16v13.319h-3.239V487.081z M591.833,502.86v-0.96
		c0-9.72-3.66-12.539-9.72-12.539c-3.959,0-7.199,1.439-9.06,2.699v21c1.74,1.199,4.62,2.279,8.1,2.279
		C587.753,515.34,591.833,511.74,591.833,502.86z"/>
	<path fill="#FFFFFF" d="M600.894,473.162h3.239v16.679h0.24c3.12-2.04,7.14-3.3,10.979-3.3c5.819,0,8.819,2.34,8.819,8.16V517.5
		h-3.239v-22.139c0-4.32-1.86-6-6.9-6c-3.3,0-6.839,1.14-9.899,2.819V517.5h-3.239V473.162z"/>
	<path fill="#FFFFFF" d="M629.572,502.801v-0.84c0-9.96,5.7-15.42,13.56-15.42c8.22,0,13.619,5.28,13.619,15.239v0.78
		c0,9.96-5.76,15.479-13.679,15.479C634.853,518.04,629.572,512.76,629.572,502.801z M653.392,502.86v-1.2
		c0-8.999-4.44-12.419-10.319-12.419c-6.061,0-10.2,4.319-10.2,12.419v1.261c0,8.879,4.44,12.419,10.319,12.419
		C649.252,515.34,653.392,511.141,653.392,502.86z"/>
	<path fill="#FFFFFF" d="M663.833,511.141v-21.359h-4.5v-2.7h4.5v-7.199h3.24v7.199h8.279v2.7h-8.279v20.879
		c0,3.12,1.08,4.439,4.859,4.439c1.32,0,2.82-0.239,4.08-0.6v2.22c-1.08,0.54-2.58,1.08-4.92,1.08
		C666.473,517.8,663.833,515.82,663.833,511.141z"/>
	<path fill="#FFFFFF" d="M678.893,502.801v-0.84c0-9.96,5.7-15.42,13.56-15.42c8.22,0,13.619,5.28,13.619,15.239v0.78
		c0,9.96-5.76,15.479-13.679,15.479C684.173,518.04,678.893,512.76,678.893,502.801z M702.712,502.86v-1.2
		c0-8.999-4.44-12.419-10.319-12.419c-6.061,0-10.2,4.319-10.2,12.419v1.261c0,8.879,4.44,12.419,10.319,12.419
		C698.572,515.34,702.712,511.141,702.712,502.86z"/>
</g>
</svg>
