<?xml version="1.0" encoding="utf-8"?>
<!-- Generator: Adobe Illustrator 16.0.0, SVG Export Plug-In . SVG Version: 6.00 Build 0)  -->
<!DOCTYPE svg PUBLIC "-//W3C//DTD SVG 1.1//EN" "http://www.w3.org/Graphics/SVG/1.1/DTD/svg11.dtd">
<svg version="1.1" id="Layer_1" xmlns="http://www.w3.org/2000/svg" xmlns:xlink="http://www.w3.org/1999/xlink" x="0px" y="0px"
	 width="960px" height="960px" viewBox="0.5 150.5 960 960" enable-background="new 0.5 150.5 960 960" xml:space="preserve">
<path opacity="0.7" fill="#A9A8A8" enable-background="new    " d="M761.663,351.01h-96.496c-11.307,0-26.486-7.104-33.699-15.807
	l-42.155-50.598c-7.252-8.663-22.424-15.785-33.726-15.785h-143.88c-11.301,0-25.966,7.481-32.577,16.668l-35.271,48.862
	c-6.621,9.139-21.296,16.655-32.59,16.655H206.719c-22.607,0-41.119,18.473-41.119,41.095v308.318
	c0,22.601,18.517,41.107,41.119,41.107h554.944c22.631,0,41.116-18.507,41.116-41.107v-308.31
	C802.779,369.482,784.294,351.01,761.663,351.01z"/>
<rect x="237.541" y="301.317" opacity="0.7" fill="#A9A8A8" enable-background="new    " width="54.825" height="29.13"/>
<path fill="#FFFFFF" d="M658.901,392.109c11.354,0,20.554,9.199,20.554,20.554s-9.199,20.555-20.554,20.555
	c-11.35,0-20.554-9.2-20.554-20.555S647.552,392.109,658.901,392.109z"/>
<path fill="#FFFFFF" d="M484.188,411.088c-68.003,0-123.323,55.311-123.323,123.324c0,67.997,55.32,123.328,123.323,123.328
	c68.006,0,123.328-55.331,123.328-123.328C607.517,466.402,552.194,411.088,484.188,411.088z"/>
</svg>
