<?xml version="1.0" encoding="utf-8"?>
<!-- Generator: Adobe Illustrator 16.0.0, SVG Export Plug-In . SVG Version: 6.00 Build 0)  -->
<!DOCTYPE svg PUBLIC "-//W3C//DTD SVG 1.1//EN" "http://www.w3.org/Graphics/SVG/1.1/DTD/svg11.dtd">
<svg version="1.1" xmlns="http://www.w3.org/2000/svg" xmlns:xlink="http://www.w3.org/1999/xlink" x="0px" y="0px" width="960px"
	 height="1080px" viewBox="0 0 960 1080" enable-background="new 0 0 960 1080" xml:space="preserve">
<g id="Layer_2">
	<rect x="6.774" y="489.258" fill="none" width="946.453" height="325.483"/>
	<text transform="matrix(1 0 0 1 283.9536 562.2578)" opacity="0.7" enable-background="new    "><tspan x="0" y="0" fill="#A9A8A8" font-family="'Raleway'" font-size="100">Capture,</tspan><tspan x="-19.7" y="120" fill="#A9A8A8" font-family="'Raleway'" font-size="100">Describe, </tspan><tspan x="51.25" y="240" fill="#A9A8A8" font-family="'Raleway'" font-size="100">Vibe it</tspan></text>
</g>
<g id="camera">
	<g>
		<path opacity="0.7" fill="#A9A8A8" enable-background="new    " d="M664.146,173.366h-64.04c-7.504,0-17.577-4.714-22.364-10.49
			l-27.977-33.58c-4.813-5.75-14.882-10.476-22.383-10.476h-95.486c-7.5,0-17.232,4.965-21.62,11.062l-23.407,32.428
			c-4.395,6.065-14.134,11.053-21.629,11.053h-69.386c-15.003,0-27.288,12.26-27.288,27.273v204.617
			c0,14.999,12.289,27.281,27.288,27.281h368.292c15.02,0,27.287-12.283,27.287-27.281V200.641
			C691.434,185.625,679.166,173.366,664.146,173.366z"/>
		<rect x="316.311" y="140.387" opacity="0.7" fill="#A9A8A8" enable-background="new    " width="36.385" height="19.332"/>
		<path fill="#FFFFFF" d="M595.948,200.642c7.535,0,13.641,6.104,13.641,13.641c0,7.536-6.105,13.641-13.641,13.641
			c-7.533,0-13.641-6.105-13.641-13.641C582.308,206.746,588.416,200.642,595.948,200.642z"/>
		<path fill="#FFFFFF" d="M479.999,213.237c-45.131,0-81.844,36.708-81.844,81.845c0,45.127,36.713,81.848,81.844,81.848
			c45.133,0,81.847-36.721,81.847-81.848C561.847,249.947,525.132,213.237,479.999,213.237z"/>
	</g>
</g>
</svg>
