<?xml version="1.0" encoding="utf-8"?>
<!-- Generator: Adobe Illustrator 16.0.4, SVG Export Plug-In . SVG Version: 6.00 Build 0)  -->
<!DOCTYPE svg PUBLIC "-//W3C//DTD SVG 1.1//EN" "http://www.w3.org/Graphics/SVG/1.1/DTD/svg11.dtd">
<svg version="1.1" id="Layer_1" xmlns="http://www.w3.org/2000/svg" xmlns:xlink="http://www.w3.org/1999/xlink" x="0px" y="0px"
	 width="960px" height="1080px" viewBox="0 0 960 1080" enable-background="new 0 0 960 1080" xml:space="preserve">
<g>
	<g opacity="0.7" enable-background="new    ">
		
			<image overflow="visible" opacity="0.75" width="1817" height="1590" xlink:href="D6196A67C499D17E.png"  transform="matrix(0.24 0 0 0.24 265.877 96.3018)">
		</image>
		<g>
			<linearGradient id="SVGID_1_" gradientUnits="userSpaceOnUse" x1="273.877" y1="280.0552" x2="679.7617" y2="280.0552">
				<stop  offset="0" style="stop-color:#FFDE17"/>
				<stop  offset="0.1467" style="stop-color:#F7941E"/>
				<stop  offset="0.3114" style="stop-color:#ED1C24"/>
				<stop  offset="0.4607" style="stop-color:#EE2A7B"/>
				<stop  offset="0.6641" style="stop-color:#92278F"/>
				<stop  offset="0.6845" style="stop-color:#902C91"/>
				<stop  offset="0.7069" style="stop-color:#8B3995"/>
				<stop  offset="0.7301" style="stop-color:#824A9D"/>
				<stop  offset="0.754" style="stop-color:#725DA8"/>
				<stop  offset="0.7784" style="stop-color:#5970B6"/>
				<stop  offset="0.8031" style="stop-color:#1586C8"/>
				<stop  offset="0.8277" style="stop-color:#009DDE"/>
				<stop  offset="0.8439" style="stop-color:#00AEEF"/>
				<stop  offset="1" style="stop-color:#2BB673"/>
			</linearGradient>
			<polygon fill="url(#SVGID_1_)" points="375.348,455.809 273.877,280.055 375.348,104.302 578.29,104.302 679.762,280.055 
				578.29,455.809 			"/>
		</g>
	</g>
	<g enable-background="new    ">
		
			<image overflow="visible" opacity="0.75" width="1016" height="786" xlink:href="D6196A67C499D182.png"  transform="matrix(0.24 0 0 0.24 364.2231 181.6196)">
		</image>
		<g>
			<g>
				<path fill="#FFFFFF" enable-background="new    " d="M572.07,217.176h-32.354c-3.791,0-8.88-2.382-11.299-5.299l-14.133-16.965
					c-2.433-2.904-7.519-5.292-11.309-5.292h-48.241c-3.787,0-8.705,2.507-10.921,5.587l-11.826,16.384
					c-2.219,3.062-7.14,5.583-10.927,5.583h-35.054c-7.581,0-13.786,6.194-13.786,13.78v103.372c0,7.577,6.208,13.783,13.786,13.783
					H572.07c7.587,0,13.786-6.206,13.786-13.783v-103.37C585.856,223.369,579.657,217.176,572.07,217.176z"/>
				<rect x="396.343" y="200.514" fill="#FFFFFF" enable-background="new    " width="18.382" height="9.767"/>
			</g>
		</g>
	</g>
	<circle opacity="0.5" fill="#B7B7B7" enable-background="new    " cx="537.616" cy="237.846" r="6.892"/>
	<path opacity="0.5" fill="#B7B7B7" enable-background="new    " d="M479.039,237.318c-22.8,0-41.348,18.544-41.348,41.348
		c0,22.798,18.548,41.35,41.348,41.35c22.8,0,41.35-18.552,41.35-41.35C520.389,255.864,501.839,237.318,479.039,237.318z"/>
</g>
<g display="none">
	<path display="inline" fill="#F9ED2D" enable-background="new    " d="M165.542,332.545h4.645l10.336,16.66l10.173-16.66h4.668
		l-12.797,21.09v19.305h-3.981v-19.305L165.542,332.545z"/>
	<path display="inline" fill="#F68521" enable-background="new    " d="M216.146,342.293c4.603,0,8.417,1.666,11.444,4.998
		c2.751,3.039,4.126,6.636,4.126,10.792c0,4.174-1.454,7.822-4.36,10.943c-2.907,3.122-6.644,4.682-11.21,4.682
		c-4.585,0-8.331-1.561-11.237-4.682c-2.907-3.121-4.36-6.769-4.36-10.943c0-4.137,1.375-7.726,4.126-10.765
		C207.7,343.969,211.524,342.293,216.146,342.293z M216.132,346.056c-3.196,0-5.943,1.181-8.24,3.542
		c-2.296,2.361-3.444,5.217-3.444,8.567c0,2.161,0.523,4.174,1.571,6.042c1.047,1.867,2.461,3.309,4.244,4.325
		c1.782,1.016,3.739,1.524,5.87,1.524s4.087-0.508,5.87-1.524c1.782-1.016,3.197-2.458,4.244-4.325
		c1.047-1.867,1.571-3.881,1.571-6.042c0-3.35-1.153-6.206-3.459-8.567C222.052,347.236,219.31,346.056,216.132,346.056z"/>
	<path display="inline" fill="#C32328" enable-background="new    " d="M243.958,343.062h3.844v13.95c0,3.405,0.184,5.749,0.55,7.03
		c0.55,1.831,1.6,3.277,3.149,4.338c1.549,1.062,3.396,1.593,5.542,1.593c2.145,0,3.964-0.517,5.459-1.551
		c1.494-1.034,2.525-2.394,3.094-4.078c0.385-1.153,0.577-3.597,0.577-7.332v-13.95h3.927v14.664c0,4.119-0.481,7.222-1.442,9.309
		c-0.961,2.087-2.408,3.721-4.339,4.901c-1.932,1.181-4.353,1.771-7.263,1.771s-5.341-0.59-7.291-1.771
		c-1.95-1.181-3.405-2.828-4.366-4.943c-0.961-2.114-1.442-5.295-1.442-9.542V343.062z"/>
	<path display="inline" fill="#EB3B94" enable-background="new    " d="M282.809,343.062h3.927v4.366
		c1.171-1.721,2.407-3.007,3.707-3.858c1.3-0.851,2.654-1.277,4.064-1.277c1.062,0,2.197,0.339,3.405,1.016l-2.004,3.24
		c-0.806-0.347-1.483-0.521-2.032-0.521c-1.282,0-2.518,0.526-3.707,1.579c-1.19,1.053-2.097,2.687-2.719,4.901
		c-0.476,1.703-0.714,5.145-0.714,10.325v10.105h-3.927V343.062z"/>
	<path display="inline" fill="#DE5E83" enable-background="new    " d="M325.169,343.062h4.091l10.029,21.779l9.908-21.779h4.119
		l-13.675,29.877h-0.714L325.169,343.062z"/>
	<path display="inline" fill="#A25CA5" enable-background="new    " d="M366.121,330.76c0.875,0,1.622,0.312,2.242,0.934
		c0.62,0.623,0.93,1.373,0.93,2.252c0,0.86-0.31,1.602-0.93,2.224c-0.62,0.623-1.367,0.934-2.242,0.934
		c-0.857,0-1.595-0.311-2.215-0.934c-0.62-0.622-0.929-1.364-0.929-2.224c0-0.879,0.31-1.629,0.929-2.252
		C364.526,331.072,365.264,330.76,366.121,330.76z M364.212,343.062h3.845v29.877h-3.845V343.062z"/>
	<path display="inline" fill="#7ACDCB" enable-background="new    " d="M381.918,372.939v-41.41h3.845v16.668
		c1.609-1.978,3.411-3.456,5.404-4.435c1.993-0.979,4.179-1.469,6.556-1.469c4.225,0,7.832,1.534,10.822,4.6
		c2.99,3.067,4.485,6.788,4.485,11.163c0,4.321-1.509,8.01-4.526,11.067c-3.018,3.058-6.648,4.586-10.891,4.586
		c-2.433,0-4.636-0.522-6.611-1.565c-1.976-1.043-3.722-2.609-5.24-4.696v5.492H381.918z M397.296,370.001
		c2.137,0,4.11-0.526,5.917-1.579c1.809-1.053,3.247-2.531,4.315-4.435c1.068-1.904,1.603-3.917,1.603-6.041
		s-0.539-4.147-1.616-6.069c-1.078-1.922-2.525-3.419-4.343-4.49c-1.817-1.071-3.758-1.606-5.821-1.606
		c-2.101,0-4.096,0.535-5.986,1.606c-1.891,1.071-3.343,2.512-4.356,4.325c-1.014,1.812-1.521,3.854-1.521,6.124
		c0,3.46,1.136,6.353,3.411,8.677C391.173,368.839,393.972,370.001,397.296,370.001z"/>
	<path display="inline" fill="#67BD47" enable-background="new    " d="M450.812,363.026l3.24,1.703
		c-1.062,2.087-2.29,3.771-3.683,5.053c-1.394,1.281-2.96,2.256-4.7,2.924c-1.741,0.668-3.711,1.002-5.91,1.002
		c-4.874,0-8.685-1.597-11.434-4.792c-2.748-3.194-4.123-6.806-4.123-10.833c0-3.79,1.163-7.167,3.491-10.133
		c2.949-3.771,6.898-5.657,11.846-5.657c5.094,0,9.161,1.932,12.203,5.794c2.162,2.728,3.262,6.133,3.299,10.215h-26.884
		c0.072,3.47,1.182,6.315,3.326,8.534c2.145,2.219,4.793,3.329,7.946,3.329c1.521,0,3.001-0.264,4.439-0.793
		c1.438-0.529,2.662-1.231,3.67-2.106C448.548,366.391,449.639,364.978,450.812,363.026z M450.812,354.98
		c-0.513-2.05-1.26-3.689-2.241-4.916c-0.98-1.227-2.277-2.215-3.89-2.966c-1.613-0.75-3.309-1.126-5.087-1.126
		c-2.933,0-5.453,0.943-7.561,2.829c-1.54,1.373-2.704,3.433-3.492,6.179H450.812z"/>
	<path display="inline" fill="#F9ED2D" enable-background="new    " d="M490.357,330.76c0.875,0,1.623,0.312,2.242,0.934
		c0.62,0.623,0.93,1.373,0.93,2.252c0,0.86-0.31,1.602-0.93,2.224c-0.619,0.623-1.367,0.934-2.242,0.934
		c-0.856,0-1.595-0.311-2.215-0.934c-0.619-0.622-0.929-1.364-0.929-2.224c0-0.879,0.31-1.629,0.929-2.252
		C488.763,331.072,489.501,330.76,490.357,330.76z M488.449,343.062h3.845v29.877h-3.845V343.062z"/>
	<path display="inline" fill="#F68521" enable-background="new    " d="M520.93,346.33l-2.472,2.554
		c-2.056-1.995-4.065-2.993-6.029-2.993c-1.248,0-2.317,0.412-3.207,1.235c-0.891,0.824-1.336,1.785-1.336,2.883
		c0,0.971,0.367,1.895,1.101,2.774c0.734,0.897,2.275,1.95,4.623,3.158c2.862,1.483,4.807,2.911,5.834,4.284
		c1.009,1.392,1.514,2.957,1.514,4.696c0,2.454-0.862,4.531-2.585,6.233c-1.724,1.703-3.878,2.554-6.463,2.554
		c-1.725,0-3.37-0.375-4.938-1.126s-2.864-1.785-3.892-3.103l2.417-2.746c1.963,2.215,4.046,3.323,6.248,3.323
		c1.541,0,2.853-0.494,3.936-1.483s1.624-2.151,1.624-3.487c0-1.099-0.357-2.078-1.073-2.938c-0.715-0.842-2.33-1.904-4.843-3.186
		c-2.697-1.391-4.532-2.764-5.504-4.119c-0.973-1.354-1.459-2.901-1.459-4.641c0-2.27,0.774-4.155,2.324-5.657
		c1.55-1.501,3.507-2.252,5.873-2.252C515.373,342.293,518.143,343.639,520.93,346.33z"/>
	<path display="inline" fill="#C32328" enable-background="new    " d="M553.98,331.529h3.845v41.41h-3.845V331.529z"/>
	<path display="inline" fill="#EB3B94" enable-background="new    " d="M585.582,342.293c4.604,0,8.418,1.666,11.444,4.998
		c2.75,3.039,4.126,6.636,4.126,10.792c0,4.174-1.454,7.822-4.36,10.943c-2.907,3.122-6.644,4.682-11.21,4.682
		c-4.585,0-8.331-1.561-11.237-4.682c-2.907-3.121-4.36-6.769-4.36-10.943c0-4.137,1.375-7.726,4.127-10.765
		C577.137,343.969,580.961,342.293,585.582,342.293z M585.568,346.056c-3.196,0-5.943,1.181-8.239,3.542
		c-2.297,2.361-3.445,5.217-3.445,8.567c0,2.161,0.523,4.174,1.571,6.042c1.047,1.867,2.461,3.309,4.244,4.325
		c1.781,1.016,3.738,1.524,5.869,1.524s4.088-0.508,5.87-1.524c1.781-1.016,3.196-2.458,4.243-4.325
		c1.048-1.867,1.571-3.881,1.571-6.042c0-3.35-1.153-6.206-3.459-8.567C591.488,347.236,588.747,346.056,585.568,346.056z"/>
	<path display="inline" fill="#DE5E83" enable-background="new    " d="M643.655,343.062v29.877h-3.789v-5.135
		c-1.611,1.959-3.419,3.433-5.424,4.421c-2.005,0.988-4.197,1.483-6.577,1.483c-4.229,0-7.84-1.533-10.833-4.6
		s-4.489-6.796-4.489-11.19c0-4.302,1.51-7.981,4.531-11.039c3.021-3.057,6.654-4.586,10.901-4.586c2.453,0,4.673,0.522,6.659,1.565
		s3.729,2.609,5.231,4.696v-5.492H643.655z M628.291,346.001c-2.139,0-4.114,0.526-5.924,1.577c-1.812,1.052-3.251,2.528-4.32,4.43
		c-1.07,1.901-1.604,3.913-1.604,6.034c0,2.104,0.539,4.115,1.618,6.035c1.078,1.92,2.527,3.415,4.347,4.484
		c1.819,1.07,3.771,1.605,5.856,1.605c2.104,0,4.096-0.53,5.979-1.591c1.884-1.061,3.332-2.496,4.348-4.306
		c1.015-1.811,1.522-3.85,1.522-6.117c0-3.456-1.139-6.345-3.415-8.667C634.422,347.162,631.619,346.001,628.291,346.001z"/>
	<path display="inline" fill="#A25CA5" enable-background="new    " d="M687.751,331.529v41.41h-3.789v-5.135
		c-1.611,1.959-3.419,3.433-5.424,4.421c-2.004,0.988-4.197,1.483-6.576,1.483c-4.229,0-7.84-1.533-10.833-4.6
		s-4.49-6.796-4.49-11.19c0-4.302,1.511-7.981,4.531-11.039c3.021-3.057,6.654-4.586,10.901-4.586c2.453,0,4.673,0.522,6.659,1.565
		s3.73,2.609,5.231,4.696v-17.025H687.751z M672.388,346.001c-2.14,0-4.115,0.526-5.925,1.577c-1.811,1.052-3.251,2.528-4.32,4.43
		c-1.07,1.901-1.604,3.913-1.604,6.034c0,2.104,0.539,4.115,1.618,6.035c1.078,1.92,2.528,3.415,4.348,4.484
		c1.818,1.07,3.771,1.605,5.855,1.605c2.104,0,4.097-0.53,5.979-1.591c1.884-1.061,3.333-2.496,4.348-4.306
		c1.015-1.811,1.522-3.85,1.522-6.117c0-3.456-1.139-6.345-3.415-8.667C678.518,347.162,675.715,346.001,672.388,346.001z"/>
	<path display="inline" fill="#7ACDCB" enable-background="new    " d="M703.412,330.76c0.875,0,1.623,0.312,2.242,0.934
		c0.62,0.623,0.93,1.373,0.93,2.252c0,0.86-0.31,1.602-0.93,2.224c-0.619,0.623-1.367,0.934-2.242,0.934
		c-0.856,0-1.595-0.311-2.215-0.934c-0.619-0.622-0.929-1.364-0.929-2.224c0-0.879,0.31-1.629,0.929-2.252
		C701.817,331.072,702.556,330.76,703.412,330.76z M701.504,343.062h3.845v29.877h-3.845V343.062z"/>
	<path display="inline" fill="#67BD47" enable-background="new    " d="M718.963,343.062h3.844v5.355
		c1.538-2.05,3.24-3.584,5.108-4.6c1.867-1.016,3.899-1.524,6.096-1.524c2.233,0,4.215,0.568,5.945,1.703
		c1.73,1.135,3.007,2.664,3.831,4.586c0.823,1.922,1.235,4.916,1.235,8.979v15.378h-3.845v-14.252c0-3.441-0.143-5.739-0.428-6.893
		c-0.445-1.977-1.3-3.464-2.563-4.462c-1.263-0.998-2.911-1.497-4.942-1.497c-2.326,0-4.409,0.769-6.249,2.307
		c-1.84,1.538-3.054,3.442-3.639,5.712c-0.366,1.483-0.55,4.192-0.55,8.128v10.957h-3.844V343.062z"/>
	<path display="inline" fill="#F9ED2D" enable-background="new    " d="M784.644,343.062h3.844v23.808
		c0,4.192-0.366,7.259-1.098,9.199c-1.008,2.746-2.756,4.861-5.245,6.343c-2.49,1.483-5.483,2.225-8.979,2.225
		c-2.563,0-4.865-0.363-6.906-1.088c-2.042-0.726-3.703-1.699-4.984-2.919c-1.281-1.221-2.462-3.007-3.542-5.357h4.174
		c1.136,1.978,2.603,3.442,4.398,4.394c1.796,0.952,4.023,1.428,6.682,1.428c2.62,0,4.834-0.488,6.64-1.464
		c1.806-0.977,3.093-2.204,3.862-3.681c0.771-1.478,1.155-3.864,1.155-7.157v-1.538c-1.448,1.831-3.217,3.236-5.306,4.215
		c-2.089,0.979-4.307,1.469-6.652,1.469c-2.749,0-5.332-0.682-7.752-2.046c-2.419-1.363-4.288-3.199-5.607-5.506
		s-1.979-4.842-1.979-7.606c0-2.764,0.687-5.341,2.062-7.73c1.374-2.389,3.275-4.279,5.704-5.671
		c2.428-1.391,4.989-2.087,7.683-2.087c2.235,0,4.32,0.463,6.254,1.387c1.933,0.925,3.798,2.449,5.594,4.572V343.062z
		 M773.302,346.001c-2.179,0-4.201,0.526-6.068,1.579c-1.867,1.053-3.332,2.508-4.394,4.366c-1.062,1.858-1.593,3.868-1.593,6.028
		c0,3.277,1.099,5.986,3.295,8.128c2.197,2.142,5.044,3.213,8.54,3.213c3.533,0,6.376-1.062,8.527-3.185
		c2.15-2.124,3.227-4.916,3.227-8.375c0-2.252-0.495-4.261-1.483-6.028c-0.988-1.766-2.389-3.162-4.201-4.188
		C777.339,346.514,775.389,346.001,773.302,346.001z"/>
	<rect x="144.5" y="332.5" display="inline" fill="#F9ED2D" width="23.75" height="2.833"/>
	<polygon display="inline" fill="#F9ED2D" points="107,332.292 114.186,322.5 122.531,332.292 144.784,332.292 144.784,335.125 
		120.908,335.125 114.302,326.5 108.971,335.125 107,335.125 92.25,335.125 92.25,332.167 	"/>
	<polygon display="inline" fill="#F9ED2D" points="839.351,345.92 829.499,355.712 818.058,345.92 787.549,345.92 787.549,343.086 
		820.282,343.086 829.34,351.712 836.648,343.086 839.351,343.086 859.572,343.086 859.572,346.044 	"/>
</g>
<text transform="matrix(1 0 0 1 345 574.8184)" fill="#9D9D9D" font-family="'CenturyGothic'" font-size="48" letter-spacing="9">Capture</text>
<text transform="matrix(1 0 0 1 335 739)" fill="#9D9D9D" font-family="'CenturyGothic'" font-size="48" letter-spacing="9">Describe</text>
<text transform="matrix(1 0 0 1 402.7246 903)" fill="#9D9D9D" font-family="'CenturyGothic'" font-size="48" letter-spacing="9">Vibe</text>
<g>
	<polygon fill="#79CDCB" points="468.37,658.958 460.649,645.585 468.37,632.212 483.812,632.212 491.533,645.585 483.812,658.958 	
		"/>
	<polygon opacity="0.05" fill="#FFFFFF" points="468.37,632.212 475.819,645.585 483.812,632.212 	"/>
	<polygon opacity="0.02" points="468.37,632.212 460.649,645.585 468.37,658.958 475.819,645.585 	"/>
	<polygon opacity="0.03" points="475.819,645.585 483.812,658.958 468.37,658.958 	"/>
</g>
<g>
	<polygon fill="#F6851F" points="469.37,818.248 461.649,804.875 469.37,791.502 484.812,791.502 492.533,804.875 484.812,818.248 	
		"/>
	<polygon opacity="0.05" fill="#FFFFFF" points="469.37,791.502 476.819,804.875 484.812,791.502 	"/>
	<polygon opacity="0.02" points="469.37,791.502 461.649,804.875 469.37,818.248 476.819,804.875 	"/>
	<polygon opacity="0.03" points="476.819,804.875 484.812,818.248 469.37,818.248 	"/>
</g>
<g>
	<polygon fill="#ED3794" points="469.37,981.111 461.649,967.738 469.37,954.365 484.812,954.365 492.533,967.738 484.812,981.111 	
		"/>
	<polygon opacity="0.05" fill="#FFFFFF" points="469.37,954.365 476.819,967.738 484.812,954.365 	"/>
	<polygon opacity="0.02" points="469.37,954.365 461.649,967.738 469.37,981.111 476.819,967.738 	"/>
	<polygon opacity="0.03" points="476.819,967.738 484.812,981.111 469.37,981.111 	"/>
</g>
</svg>
