<?xml version="1.0" encoding="utf-8"?>
<!-- Generator: Adobe Illustrator 16.0.0, SVG Export Plug-In . SVG Version: 6.00 Build 0)  -->
<!DOCTYPE svg PUBLIC "-//W3C//DTD SVG 1.1//EN" "http://www.w3.org/Graphics/SVG/1.1/DTD/svg11.dtd">
<svg version="1.1" id="Layer_1" xmlns="http://www.w3.org/2000/svg" xmlns:xlink="http://www.w3.org/1999/xlink" x="0px" y="0px"
	 width="222px" height="46.584px" viewBox="0 0 222 46.584" enable-background="new 0 0 222 46.584" xml:space="preserve">
<g id="Layer_7">
</g>
<g>
	<path fill="#848484" d="M136.075,15.241h1.176v13.543h7.015v1.008h-8.189L136.075,15.241L136.075,15.241z"/>
	<path fill="#848484" d="M144.917,24.647v-0.293c0-3.486,1.994-5.396,4.745-5.396c2.876,0,4.768,1.848,4.768,5.333v0.272
		c0,3.485-2.017,5.418-4.787,5.418C146.764,29.981,144.917,28.134,144.917,24.647z M153.252,24.669v-0.42
		c0-3.149-1.555-4.346-3.611-4.346c-2.121,0-3.57,1.512-3.57,4.346v0.441c0,3.106,1.556,4.346,3.611,4.346
		C151.803,29.036,153.252,27.565,153.252,24.669z"/>
	<path fill="#848484" d="M155.291,31.157c0-1.281,0.943-2.121,2.12-2.562v-0.062c-0.588-0.146-1.093-0.673-1.093-1.429
		c0-0.672,0.399-1.364,1.113-1.932c-0.817-0.546-1.344-1.428-1.344-2.646v-0.188c0-2.121,1.639-3.381,3.905-3.381
		c0.504,0,0.966,0.062,1.407,0.168h3.548v0.882h-2.185c0.692,0.504,1.071,1.26,1.071,2.288v0.189c0,2.206-1.659,3.359-3.862,3.359
		c-0.716,0-1.365-0.126-1.933-0.356c-0.356,0.295-0.631,0.734-0.631,1.219c0,0.65,0.399,1.049,1.176,1.049h3.065
		c1.89,0,3.297,0.715,3.297,2.751c0,1.827-1.448,3.443-5.02,3.443C156.654,33.949,155.291,32.731,155.291,31.157z M163.752,30.674
		c0-1.364-0.777-1.827-2.268-1.827h-3.15c-1.049,0.357-1.848,1.051-1.848,2.163c0,1.155,0.902,1.995,3.402,1.995
		C162.723,33.005,163.752,31.954,163.752,30.674z M162.702,22.527v-0.252c0-1.659-1.093-2.415-2.729-2.415
		c-1.658,0-2.729,0.861-2.729,2.395v0.252c0,1.616,1.112,2.436,2.729,2.436C161.652,24.942,162.702,24.123,162.702,22.527z"/>
	<path fill="#848484" d="M165.749,24.647v-0.293c0-3.486,1.994-5.396,4.745-5.396c2.876,0,4.767,1.848,4.767,5.333v0.272
		c0,3.485-2.016,5.418-4.786,5.418C167.596,29.981,165.749,28.134,165.749,24.647z M174.084,24.669v-0.42
		c0-3.149-1.555-4.346-3.611-4.346c-2.121,0-3.57,1.512-3.57,4.346v0.441c0,3.106,1.556,4.346,3.611,4.346
		C172.635,29.036,174.084,27.565,174.084,24.669z"/>
	<path fill="#848484" d="M177.13,26.999v-7.852h1.134v7.684c0,1.575,0.693,2.163,2.395,2.163c1.176,0,2.352-0.399,3.4-1.028v-8.818
		h1.135v10.645h-0.987l-0.104-0.985h-0.062c-1.133,0.713-2.436,1.176-3.695,1.176C178.307,29.981,177.13,29.036,177.13,26.999z"/>
	<path fill="#848484" d="M188.491,27.565v-7.475h-1.574v-0.944h1.574v-2.52h1.134v2.52h2.896v0.944h-2.896v7.307
		c0,1.093,0.378,1.555,1.7,1.555c0.463,0,0.987-0.084,1.428-0.21v0.776c-0.377,0.188-0.901,0.379-1.721,0.379
		C189.415,29.897,188.491,29.204,188.491,27.565z"/>
</g>
<polygon fill="#9E9E9E" points="9.375,38.244 1.248,24.169 9.375,10.095 25.626,10.095 33.753,24.169 25.626,38.244 "/>
<rect x="16.092" y="13.557" fill="#FFFFFF" width="3.463" height="8.655"/>
<path fill="#FFFFFF" d="M17.823,33.119c-5.058,0-9.173-4.114-9.173-9.177c0-3.634,2.161-6.927,5.501-8.395l0.21-0.091v3.147
	c-1.843,1.19-2.942,3.158-2.942,5.338c0,3.533,2.874,6.408,6.404,6.408c3.534,0,6.408-2.875,6.408-6.408
	c0-2.18-1.103-4.147-2.945-5.338v-3.147l0.21,0.091C24.84,17.016,27,20.309,27,23.942C27,29.005,22.882,33.119,17.823,33.119z"/>
</svg>
