<?xml version="1.0" encoding="utf-8"?>
<!-- Generator: Adobe Illustrator 16.0.0, SVG Export Plug-In . SVG Version: 6.00 Build 0)  -->
<!DOCTYPE svg PUBLIC "-//W3C//DTD SVG 1.1//EN" "http://www.w3.org/Graphics/SVG/1.1/DTD/svg11.dtd">
<svg version="1.1" xmlns="http://www.w3.org/2000/svg" xmlns:xlink="http://www.w3.org/1999/xlink" x="0px" y="0px" width="144px"
	 height="42px" viewBox="0 0 144 42" enable-background="new 0 0 144 42" xml:space="preserve">
<g id="Layer_2_1_">
	<g id="Layer_2">
		<g>
			<polygon fill="#ADADAD" points="13.613,25.665 6.258,12.923 13.613,0.183 28.325,0.183 35.679,12.923 28.325,25.665 			"/>
			<polygon fill="#ADADAD" points="6.258,12.923 20.968,42 35.679,12.923 			"/>
		</g>
		<polygon opacity="0.05" enable-background="new    " points="6.258,12.923 20.968,42 22.599,38.779 10.769,14 		"/>
		<polyline opacity="0.1" fill="#FFFFFF" enable-background="new    " points="15.904,3.493 13.613,0.183 6.258,12.923 10.769,14 		
			"/>
	</g>
	<path opacity="0.8" fill="#1B81FF" enable-background="new    " d="M73.553,27.522l1.912-13.351h0.217l5.427,10.954l5.376-10.954
		h0.213l1.922,13.351h-1.309l-1.319-9.549l-4.721,9.549h-0.341l-4.778-9.621l-1.312,9.621H73.553L73.553,27.522z"/>
	<path fill="#64BB46" d="M102.917,17.646v9.875h-1.252v-1.697c-0.533,0.647-1.13,1.134-1.794,1.46
		c-0.663,0.328-1.386,0.491-2.173,0.491c-1.397,0-2.59-0.507-3.58-1.519c-0.99-1.014-1.485-2.248-1.485-3.7
		c0-1.422,0.5-2.639,1.498-3.648c0.999-1.012,2.199-1.516,3.604-1.516c0.811,0,1.544,0.171,2.201,0.517
		c0.657,0.346,1.232,0.862,1.729,1.553v-1.816H102.917z M97.84,18.618c-0.708,0-1.36,0.174-1.958,0.521
		c-0.598,0.349-1.074,0.836-1.429,1.464c-0.353,0.628-0.53,1.293-0.53,1.995c0,0.695,0.178,1.36,0.535,1.994
		c0.356,0.635,0.835,1.13,1.438,1.483c0.601,0.353,1.247,0.53,1.936,0.53c0.695,0,1.354-0.175,1.976-0.526
		c0.623-0.351,1.101-0.826,1.436-1.423c0.336-0.598,0.504-1.272,0.504-2.022c0-1.141-0.376-2.097-1.129-2.864
		S98.939,18.618,97.84,18.618z"/>
	<path opacity="0.8" fill="#D81D34" enable-background="new    " d="M107.839,17.646h1.271v1.816
		c0.501-0.69,1.078-1.207,1.731-1.553c0.653-0.344,1.381-0.517,2.187-0.517c1.402,0,2.601,0.503,3.598,1.516
		c0.997,1.011,1.496,2.227,1.496,3.648c0,1.452-0.494,2.686-1.482,3.7c-0.988,1.012-2.181,1.519-3.578,1.519
		c-0.785,0-1.508-0.164-2.167-0.491c-0.658-0.326-1.254-0.813-1.786-1.46v5.309h-1.27L107.839,17.646L107.839,17.646z
		 M112.921,18.618c-1.099,0-2.023,0.384-2.774,1.151c-0.752,0.768-1.127,1.723-1.127,2.864c0,0.75,0.167,1.424,0.502,2.022
		c0.335,0.597,0.816,1.072,1.439,1.423c0.625,0.351,1.286,0.526,1.979,0.526c0.683,0,1.324-0.177,1.923-0.53
		c0.602-0.353,1.08-0.849,1.436-1.483c0.356-0.634,0.534-1.3,0.534-1.994c0-0.701-0.176-1.366-0.529-1.995
		c-0.353-0.628-0.829-1.117-1.428-1.464C114.279,18.792,113.628,18.618,112.921,18.618z"/>
</g>
<g id="Layer_3">
</g>
</svg>
