<?xml version="1.0" encoding="utf-8"?>
<!-- Generator: Adobe Illustrator 16.0.0, SVG Export Plug-In . SVG Version: 6.00 Build 0)  -->
<!DOCTYPE svg PUBLIC "-//W3C//DTD SVG 1.1//EN" "http://www.w3.org/Graphics/SVG/1.1/DTD/svg11.dtd">
<svg version="1.1" id="Layer_1" xmlns="http://www.w3.org/2000/svg" xmlns:xlink="http://www.w3.org/1999/xlink" x="0px" y="0px"
	 width="150px" height="150px" viewBox="0 0 150 150" enable-background="new 0 0 150 150" xml:space="preserve">
<path fill-rule="evenodd" clip-rule="evenodd" d="M75.353,30.358C50.5,30.317,30.397,50.31,30.352,75.113
	c-0.045,24.713,20.003,44.85,44.69,44.887c24.835,0.037,44.938-19.995,44.958-44.796C120.019,50.525,99.981,30.398,75.353,30.358z
	 M73.246,34.239c0.08-0.077,0.172-0.141,0.425-0.345c0,0.848,0,1.514,0,2.181c0,4.774-0.011,9.549,0.014,14.324
	c0.003,0.646-0.118,0.83-0.819,0.786c-3.463-0.216-6.845-0.832-10.162-1.841c-0.469-0.143-0.602-0.269-0.34-0.754
	C65.247,43.239,68.857,38.444,73.246,34.239z M49.922,41.887c5.128-3.854,10.821-6.434,17.116-7.676
	c0.631-0.125,1.266-0.228,1.899-0.337c0.083-0.015,0.171-0.002,0.427-0.002c-2.962,3.123-5.487,6.373-7.644,9.899
	c-0.746,1.22-1.46,2.462-2.119,3.731c-0.267,0.515-0.498,0.528-0.976,0.318c-3.093-1.355-5.977-3.055-8.675-5.084
	C49.518,42.409,49.414,42.269,49.922,41.887z M46.437,44.86c0.445-0.433,0.726-0.528,1.279-0.089
	c2.922,2.314,6.101,4.218,9.531,5.686c0.516,0.221,0.761,0.362,0.464,1.039c-2.998,6.849-4.629,14.019-4.857,21.496
	c-0.019,0.612-0.237,0.714-0.773,0.711c-2.987-0.021-5.974-0.01-8.961-0.01c-2.987,0-5.974-0.011-8.961,0.01
	c-0.544,0.004-0.756-0.076-0.717-0.714C34.125,61.922,38.493,52.57,46.437,44.86z M46.887,105.904
	c-8.17-7.719-12.699-17.147-13.438-28.386c-0.049-0.75,0.181-0.857,0.839-0.851c2.958,0.03,5.917,0.014,8.876,0.014
	s5.917,0.015,8.876-0.013c0.587-0.006,0.794,0.129,0.815,0.761c0.239,7.51,1.892,14.705,4.909,21.583
	c0.268,0.61,0.293,0.891-0.42,1.212c-3.321,1.495-6.399,3.404-9.198,5.739C47.631,106.395,47.354,106.345,46.887,105.904z
	 M64.068,115.45c-4.925-1.351-9.428-3.568-13.565-6.555c-0.494-0.356-0.604-0.547-0.048-0.975c2.603-2.006,5.377-3.719,8.359-5.1
	c0.361-0.167,0.615-0.304,0.882,0.21c2.494,4.803,5.63,9.154,9.329,13.102c0.072,0.077,0.134,0.164,0.316,0.389
	C67.434,116.297,65.745,115.909,64.068,115.45z M73.667,116.037c0,0.081-0.032,0.162-0.081,0.396
	c-3.262-3.068-6.021-6.378-8.419-9.993c-0.952-1.436-1.821-2.922-2.66-4.427c-0.25-0.448-0.204-0.62,0.29-0.78
	c3.322-1.079,6.715-1.772,10.204-1.991c0.435-0.027,0.686-0.015,0.684,0.56C73.662,105.213,73.67,110.625,73.667,116.037z
	 M73.671,86.428c0,3.016-0.014,6.031,0.012,9.047c0.005,0.561-0.143,0.752-0.725,0.782c-3.934,0.203-7.765,0.962-11.479,2.276
	c-0.506,0.179-0.687,0.056-0.89-0.412c-2.87-6.581-4.48-13.448-4.774-20.626c-0.026-0.636,0.092-0.836,0.779-0.832
	c5.416,0.032,10.833,0.034,16.249-0.001c0.734-0.004,0.849,0.246,0.842,0.895C73.654,80.514,73.671,83.471,73.671,86.428z
	 M73.671,63.973c0,2.958-0.015,5.917,0.013,8.875c0.006,0.61-0.085,0.868-0.794,0.863c-5.448-0.032-10.896-0.024-16.344-0.007
	c-0.542,0.001-0.759-0.088-0.734-0.713c0.282-7.151,1.853-14,4.708-20.562c0.226-0.518,0.459-0.526,0.916-0.377
	c3.689,1.203,7.47,1.934,11.352,2.068c0.73,0.025,0.912,0.268,0.902,0.979C73.647,58.056,73.671,61.015,73.671,63.973z
	 M103.854,44.784c6.93,6.673,11.191,14.728,12.649,24.251c0.194,1.273,0.289,2.556,0.398,3.838c0.057,0.659-0.084,0.847-0.771,0.837
	c-2.984-0.04-5.97-0.017-8.956-0.017c-2.956,0-5.912-0.015-8.868,0.013c-0.59,0.006-0.792-0.13-0.812-0.762
	c-0.239-7.414-1.869-14.519-4.86-21.305c-0.291-0.661-0.195-0.895,0.479-1.183c3.427-1.466,6.604-3.371,9.523-5.688
	C103.112,44.391,103.38,44.327,103.854,44.784z M86.307,34.914c5.132,1.411,9.805,3.75,14.065,6.936
	c0.496,0.371,0.502,0.529,0.003,0.903c-2.749,2.063-5.69,3.785-8.84,5.159c-0.388,0.169-0.579,0.172-0.804-0.254
	c-2.612-4.981-5.887-9.487-9.786-13.541c-0.053-0.055-0.083-0.132-0.188-0.305C82.71,34.005,84.516,34.422,86.307,34.914z
	 M76.681,34.122c4.737,4.451,8.499,9.39,11.476,15.014c-2.135,0.763-4.296,1.233-6.483,1.591c-1.442,0.237-2.898,0.362-4.358,0.46
	c-0.421,0.028-0.645-0.003-0.643-0.519C76.686,45.229,76.681,39.791,76.681,34.122z M76.68,63.896c0-2.988,0.014-5.977-0.012-8.964
	c-0.005-0.55,0.129-0.772,0.713-0.795c3.969-0.156,7.844-0.854,11.611-2.118c0.455-0.153,0.608,0.033,0.772,0.406
	c1.905,4.326,3.271,8.812,4.044,13.477c0.388,2.341,0.635,4.697,0.729,7.07c0.024,0.589-0.139,0.735-0.716,0.733
	c-5.448-0.021-10.897-0.026-16.347,0.004c-0.688,0.004-0.816-0.218-0.81-0.849C76.697,69.873,76.68,66.884,76.68,63.896z
	 M76.68,86.367c0-2.984,0.014-5.97-0.011-8.955c-0.005-0.556,0.127-0.747,0.72-0.744c5.502,0.022,11.004,0.023,16.506-0.001
	c0.58-0.003,0.66,0.188,0.641,0.702c-0.271,7.148-1.878,13.983-4.758,20.527c-0.182,0.412-0.356,0.465-0.777,0.326
	c-3.771-1.234-7.648-1.906-11.613-2.053c-0.565-0.021-0.726-0.191-0.721-0.76C76.695,92.396,76.68,89.382,76.68,86.367z
	 M76.828,116.104c-0.226-0.23-0.144-0.474-0.144-0.685c-0.006-5.154,0.007-10.309-0.019-15.463c-0.003-0.647,0.127-0.83,0.819-0.792
	c3.637,0.198,7.189,0.803,10.724,1.95C85.247,106.771,81.456,111.729,76.828,116.104z M80.652,116.594
	c0.879-0.973,1.627-1.775,2.348-2.604c2.986-3.432,5.563-7.147,7.664-11.184c0.298-0.573,0.548-0.64,1.121-0.386
	c3.274,1.454,6.326,3.268,9.238,5.568C95.028,112.658,88.341,115.522,80.652,116.594z M103.986,105.453
	c-0.458,0.447-0.741,0.495-1.272,0.069c-2.953-2.37-6.169-4.322-9.668-5.779c-0.63-0.262-0.628-0.504-0.379-1.075
	c2.951-6.767,4.591-13.841,4.829-21.226c0.02-0.609,0.191-0.781,0.799-0.774c2.984,0.029,5.971,0.014,8.956,0.014
	s5.971,0.014,8.956-0.013c0.573-0.005,0.734,0.125,0.697,0.729C116.229,88.425,111.877,97.749,103.986,105.453z"/>
</svg>
