<?xml version="1.0" encoding="utf-8"?>
<!-- Generator: Adobe Illustrator 16.0.0, SVG Export Plug-In . SVG Version: 6.00 Build 0)  -->
<!DOCTYPE svg PUBLIC "-//W3C//DTD SVG 1.1//EN" "http://www.w3.org/Graphics/SVG/1.1/DTD/svg11.dtd">
<svg version="1.1" id="Layer_1" xmlns="http://www.w3.org/2000/svg" xmlns:xlink="http://www.w3.org/1999/xlink" x="0px" y="0px"
	 width="222px" height="46.584px" viewBox="0 0 222 46.584" enable-background="new 0 0 222 46.584" xml:space="preserve">
<g>
	<g>
		<polygon fill="#9E9E9E" points="10.114,28.146 3,15.823 10.114,3.5 24.344,3.5 31.457,15.823 24.344,28.146 		"/>
		<polygon fill="#9E9E9E" points="3,15.823 17.228,43.944 31.457,15.823 		"/>
		<polygon opacity="0.05" enable-background="new    " points="3,15.823 17.228,43.944 18.805,40.832 7.363,16.865 		"/>
		<polyline opacity="0.1" fill="#FFFFFF" enable-background="new    " points="12.33,6.701 10.114,3.5 3,15.823 7.363,16.865 		"/>
	</g>
	<g>
		<path fill="#848484" d="M135.5,15.688h1.682l4.541,12.342h0.06l4.541-12.342h1.7v13.863h-1.141V17.128h-0.041l-4.619,12.423
			h-1.041l-4.602-12.423h-0.039v12.423H135.5V15.688z"/>
		<path fill="#848484" d="M151.68,26.95c0-1.74,1.08-2.682,3.062-2.9l2.979-0.341v-1.32c0-1.7-0.779-2.22-2.602-2.22
			c-1,0-1.84,0.18-2.561,0.4v-0.8c0.879-0.34,1.819-0.54,2.961-0.54c2.102,0,3.278,0.88,3.278,2.921v7.401H157.9l-0.103-0.881h-0.06
			c-0.5,0.521-1.44,1.062-2.922,1.062C152.959,29.729,151.68,28.729,151.68,26.95z M157.721,27.972V24.53l-2.699,0.301
			c-1.521,0.16-2.223,0.779-2.223,2.08c0,1.26,0.881,1.961,2.281,1.961C156.241,28.871,157.202,28.451,157.721,27.972z"/>
		<path fill="#848484" d="M162.879,19.409h1.041v0.86h0.061c0.74-0.54,1.818-1.04,3.261-1.04c2.28,0,4.12,1.2,4.12,5.081v0.221
			c0,3.621-1.801,5.201-4.62,5.201c-1.24,0-2.16-0.358-2.779-0.721v4.44h-1.08V19.409H162.879z M170.221,24.67v-0.319
			c0-3.242-1.221-4.182-3.24-4.182c-1.319,0-2.399,0.48-3.021,0.9v7c0.58,0.399,1.541,0.761,2.701,0.761
			C168.859,28.83,170.221,27.631,170.221,24.67z"/>
	</g>
</g>
</svg>
