<?xml version="1.0" encoding="utf-8"?>
<!-- Generator: Adobe Illustrator 16.0.4, SVG Export Plug-In . SVG Version: 6.00 Build 0)  -->
<!DOCTYPE svg PUBLIC "-//W3C//DTD SVG 1.1//EN" "http://www.w3.org/Graphics/SVG/1.1/DTD/svg11.dtd">
<svg version="1.1" xmlns="http://www.w3.org/2000/svg" xmlns:xlink="http://www.w3.org/1999/xlink" x="0px" y="0px" width="271px"
	 height="809px" viewBox="0 0 271 809" enable-background="new 0 0 271 809" xml:space="preserve">
<g id="Layer_1" display="none">
	<polygon display="inline" opacity="0.8" fill="#F8ED40" points="50.332,382.219 -60.5,363.775 -29.355,423.661 	"/>
	<polygon display="inline" opacity="0.8" fill="#F7961D" points="-32,382.328 52.5,341.828 -32,314.828 	"/>
	<polygon display="inline" opacity="0.8" fill="#ED2A25" points="-32,127.328 49.5,100.828 -32,60.328 	"/>
	<polygon display="inline" opacity="0.8" fill="#06B052" points="-32,324.328 27,288.903 -32,263.289 	"/>
	<polyline display="inline" opacity="0.8" fill="#ED4798" points="-42.01,279.137 38.49,250.624 -42.01,185.941 	"/>
	<polyline display="inline" opacity="0.8" fill="#754D9E" points="-32.01,146.328 35.99,130.328 -32.01,99.328 	"/>
	<polyline display="inline" opacity="0.8" fill="#426EB5" points="-32.01,206.828 42.99,173.328 -32.01,134.828 	"/>
	<polygon display="inline" opacity="0.8" fill="#F8ED40" points="46.332,704.219 -64.5,685.775 -33.355,745.661 	"/>
	<polygon display="inline" opacity="0.8" fill="#F7961D" points="-36,704.328 48.5,663.828 -36,636.828 	"/>
	<polygon display="inline" opacity="0.8" fill="#ED2A25" points="-36,449.328 45.5,422.828 -36,382.328 	"/>
	<polygon display="inline" opacity="0.8" fill="#06B052" points="-36,646.328 23,610.903 -36,585.289 	"/>
	<polygon display="inline" opacity="0.8" fill="#F8ED40" points="47.332,58.219 -63.5,39.775 -32.355,99.661 	"/>
	<polygon display="inline" opacity="0.8" fill="#F7961D" points="-35,58.328 49.5,17.828 -35,-9.172 	"/>
	<polygon display="inline" opacity="0.8" fill="#06B052" points="-35,0.328 24,-35.097 -35,-60.711 	"/>
	<polyline display="inline" opacity="0.8" fill="#ED4798" points="-46.01,601.137 34.49,572.624 -46.01,507.941 	"/>
	<polyline display="inline" opacity="0.8" fill="#754D9E" points="-36.01,468.328 31.99,452.328 -36.01,421.328 	"/>
	<polyline display="inline" opacity="0.8" fill="#426EB5" points="-36.01,528.828 38.99,495.328 -36.01,456.828 	"/>
</g>
<g id="Layer_2">
	<polygon opacity="0.9" fill="#F8ED40" points="0,558.294 16.129,569.044 0,581.301 	"/>
	<polygon opacity="0.9" fill="#426EB5" points="0,583.671 16.129,594.423 0,606.682 	"/>
	<polygon opacity="0.9" fill="#ED4798" points="0,609.053 16.129,619.803 0,632.061 	"/>
	<polygon opacity="0.9" fill="#F7961D" points="0,634.433 16.129,645.184 0,657.443 	"/>
	<polygon opacity="0.9" fill="#426EB5" points="0,407.596 16.129,418.348 0,430.608 	"/>
	<polygon opacity="0.9" fill="#ED4798" points="0,432.977 16.129,443.729 0,455.988 	"/>
	<polygon opacity="0.9" fill="#F7961D" points="0,458.357 16.129,469.108 0,481.367 	"/>
	<polygon opacity="0.9" fill="#F8ED40" points="0,203.679 16.129,214.431 0,226.689 	"/>
	<polygon opacity="0.9" fill="#426EB5" points="0,229.057 16.129,239.812 0,252.07 	"/>
	<polygon opacity="0.9" fill="#ED4798" points="0,254.438 16.129,265.189 0,277.449 	"/>
	<polygon opacity="0.8" fill="#06B052" points="0,482.151 16.129,492.906 0,505.161 	"/>
	<polygon opacity="0.9" fill="#F7961D" points="0,279.108 16.129,289.859 0,302.118 	"/>
	<polygon opacity="0.8" fill="#06B052" points="0,302.903 16.129,313.657 0,325.912 	"/>
	<polygon fill="#754D9E" points="0,507.532 16.129,518.285 0,530.542 	"/>
	<polygon opacity="0.9" fill="#ED2A25" points="0,532.912 16.129,543.667 0,555.923 	"/>
	<polygon opacity="0.9" fill="#F8ED40" points="0,733.294 16.129,744.044 0,756.301 	"/>
	<polygon opacity="0.9" fill="#426EB5" points="0,758.671 16.129,769.423 0,781.682 	"/>
	<polygon opacity="0.9" fill="#ED4798" points="0,784.053 16.129,794.803 0,807.061 	"/>
	<polygon opacity="0.9" fill="#F7961D" points="0,809.433 16.129,820.184 0,832.443 	"/>
	<polygon opacity="0.8" fill="#06B052" points="0,657.151 16.129,667.906 0,680.161 	"/>
	<polygon fill="#754D9E" points="0,682.532 16.129,693.285 0,705.542 	"/>
	<polygon opacity="0.9" fill="#ED2A25" points="0,707.912 16.129,718.667 0,730.923 	"/>
	<polygon opacity="0.9" fill="#F8ED40" points="0,380.629 16.129,391.383 0,403.641 	"/>
	<polygon fill="#754D9E" points="0,329.869 16.129,340.623 0,352.88 	"/>
	<polygon opacity="0.9" fill="#ED2A25" points="0,355.25 16.129,366.002 0,378.26 	"/>
	<polygon opacity="0.9" fill="#ED2A25" points="0,177.943 16.129,188.694 0,200.953 	"/>
	<polygon opacity="0.9" fill="#F8ED40" points="0,25.735 16.129,36.487 0,48.746 	"/>
	<polygon opacity="0.9" fill="#426EB5" points="0,51.114 16.129,61.868 0,74.127 	"/>
	<polygon opacity="0.9" fill="#ED4798" points="0,76.495 16.129,87.246 0,99.508 	"/>
	<polygon opacity="0.9" fill="#F7961D" points="0,101.166 16.129,111.917 0,124.175 	"/>
	<polygon opacity="0.8" fill="#06B052" points="0,124.96 16.129,135.714 0,147.97 	"/>
	<polygon fill="#754D9E" points="0,151.927 16.129,162.681 0,174.937 	"/>
	<polygon opacity="0.9" fill="#ED2A25" points="0,0 16.129,10.752 0,23.011 	"/>
	<polygon opacity="0.9" fill="#F8ED40" points="271,558.294 254.871,569.044 271,581.301 	"/>
	<polygon opacity="0.9" fill="#426EB5" points="271,583.671 254.871,594.423 271,606.682 	"/>
	<polygon opacity="0.9" fill="#ED4798" points="271,609.053 254.871,619.803 271,632.061 	"/>
	<polygon opacity="0.9" fill="#F7961D" points="271,634.433 254.871,645.184 271,657.443 	"/>
	<polygon opacity="0.9" fill="#426EB5" points="271,407.596 254.871,418.348 271,430.608 	"/>
	<polygon opacity="0.9" fill="#ED4798" points="271,432.977 254.871,443.729 271,455.988 	"/>
	<polygon opacity="0.9" fill="#F7961D" points="271,458.357 254.871,469.108 271,481.367 	"/>
	<polygon opacity="0.9" fill="#F8ED40" points="271,203.679 254.871,214.431 271,226.689 	"/>
	<polygon opacity="0.9" fill="#426EB5" points="271,229.057 254.871,239.812 271,252.07 	"/>
	<polygon opacity="0.9" fill="#ED4798" points="271,254.438 254.871,265.189 271,277.449 	"/>
	<polygon opacity="0.8" fill="#06B052" points="271,482.151 254.871,492.906 271,505.161 	"/>
	<polygon opacity="0.9" fill="#F7961D" points="271,279.108 254.871,289.859 271,302.118 	"/>
	<polygon opacity="0.8" fill="#06B052" points="271,302.903 254.871,313.657 271,325.912 	"/>
	<polygon fill="#754D9E" points="271,507.532 254.871,518.285 271,530.542 	"/>
	<polygon opacity="0.9" fill="#ED2A25" points="271,532.912 254.871,543.667 271,555.923 	"/>
	<polygon opacity="0.9" fill="#F8ED40" points="271,733.294 254.871,744.044 271,756.301 	"/>
	<polygon opacity="0.9" fill="#426EB5" points="271,758.671 254.871,769.423 271,781.682 	"/>
	<polygon opacity="0.9" fill="#ED4798" points="271,784.053 254.871,794.803 271,807.061 	"/>
	<polygon opacity="0.8" fill="#06B052" points="271,657.151 254.871,667.906 271,680.161 	"/>
	<polygon fill="#754D9E" points="271,682.532 254.871,693.285 271,705.542 	"/>
	<polygon opacity="0.9" fill="#ED2A25" points="271,707.912 254.871,718.667 271,730.923 	"/>
	<polygon opacity="0.9" fill="#F8ED40" points="271,380.629 254.871,391.383 271,403.641 	"/>
	<polygon fill="#754D9E" points="271,329.869 254.871,340.623 271,352.88 	"/>
	<polygon opacity="0.9" fill="#ED2A25" points="271,355.25 254.871,366.002 271,378.26 	"/>
	<polygon opacity="0.9" fill="#ED2A25" points="271,177.943 254.871,188.694 271,200.953 	"/>
	<polygon opacity="0.9" fill="#F8ED40" points="271,25.735 254.871,36.487 271,48.746 	"/>
	<polygon opacity="0.9" fill="#426EB5" points="271,51.114 254.871,61.868 271,74.127 	"/>
	<polygon opacity="0.9" fill="#ED4798" points="271,76.495 254.871,87.246 271,99.508 	"/>
	<polygon opacity="0.9" fill="#F7961D" points="271,101.166 254.871,111.917 271,124.175 	"/>
	<polygon opacity="0.8" fill="#06B052" points="271,124.96 254.871,135.714 271,147.97 	"/>
	<polygon fill="#754D9E" points="271,151.927 254.871,162.681 271,174.937 	"/>
	<polygon opacity="0.9" fill="#ED2A25" points="271,0 254.871,10.752 271,23.011 	"/>
</g>
</svg>
