<?xml version="1.0" encoding="utf-8"?>
<!-- Generator: Adobe Illustrator 16.0.0, SVG Export Plug-In . SVG Version: 6.00 Build 0)  -->
<!DOCTYPE svg PUBLIC "-//W3C//DTD SVG 1.1//EN" "http://www.w3.org/Graphics/SVG/1.1/DTD/svg11.dtd">
<svg version="1.1" id="Layer_1" xmlns="http://www.w3.org/2000/svg" xmlns:xlink="http://www.w3.org/1999/xlink" x="0px" y="0px"
	 width="289.5px" height="87.5px" viewBox="0 0 289.5 87.5" enable-background="new 0 0 289.5 87.5" xml:space="preserve">
<rect x="0.033" y="-1.5" fill="#FFFFFF" width="272.551" height="89"/>
<rect x="-24.25" y="841.5" opacity="0.7" fill="#ED4798" enable-background="new    " width="8" height="44"/>
<rect x="-24.25" y="808.5" opacity="0.6" fill="#ED2A25" enable-background="new    " width="8" height="44"/>
<rect x="-24.25" y="775.5" opacity="0.7" fill="#754D9E" enable-background="new    " width="8" height="44"/>
<rect x="-24.25" y="744.5" opacity="0.8" fill="#426EB5" enable-background="new    " width="8" height="44"/>
<rect x="-24.25" y="708.5" opacity="0.6" fill="#06B052" enable-background="new    " width="8" height="44"/>
<rect x="-24.25" y="635.5" opacity="0.8" fill="#F7961D" enable-background="new    " width="8" height="44"/>
<rect x="-24.25" y="671.5" opacity="0.8" fill="#F8ED40" enable-background="new    " width="8" height="44"/>
<rect x="-24.25" y="601.5" opacity="0.7" fill="#ED4798" enable-background="new    " width="8" height="44"/>
<rect x="-24.25" y="568.5" opacity="0.6" fill="#ED2A25" enable-background="new    " width="8" height="44"/>
<rect x="-24.25" y="535.5" opacity="0.7" fill="#754D9E" enable-background="new    " width="8" height="44"/>
<rect x="-24.25" y="504.5" opacity="0.8" fill="#426EB5" enable-background="new    " width="8" height="44"/>
<rect x="-24.25" y="468.5" opacity="0.6" fill="#06B052" enable-background="new    " width="8" height="44"/>
<rect x="248.584" y="-13.75" opacity="0.7" fill="#ED4798" enable-background="new    " width="8" height="44"/>
<rect x="248.584" y="21.25" opacity="0.8" fill="#F7961D" enable-background="new    " width="8" height="44"/>
<rect x="248.584" y="43.5" opacity="0.8" fill="#F8ED40" enable-background="new    " width="8" height="44"/>
<rect x="-3" y="-28.75" opacity="0.6" fill="#06B052" enable-background="new    " width="8" height="44"/>
<rect x="-3" y="44.25" opacity="0.7" fill="#F7961D" enable-background="new    " width="8" height="44"/>
<rect x="-3" y="8.25" opacity="0.8" fill="#F8ED40" enable-background="new    " width="8" height="44"/>
<line opacity="0.8" fill="none" stroke="#9E9E9E" stroke-width="0.25" stroke-miterlimit="10" enable-background="new    " x1="40.25" y1="84.582" x2="216.583" y2="84.582"/>
</svg>
