<?xml version="1.0" encoding="utf-8"?>
<!-- Generator: Adobe Illustrator 16.0.4, SVG Export Plug-In . SVG Version: 6.00 Build 0)  -->
<!DOCTYPE svg PUBLIC "-//W3C//DTD SVG 1.1//EN" "http://www.w3.org/Graphics/SVG/1.1/DTD/svg11.dtd">
<svg version="1.1" id="Layer_1" xmlns="http://www.w3.org/2000/svg" xmlns:xlink="http://www.w3.org/1999/xlink" x="0px" y="0px"
	 width="289.5px" height="86px" viewBox="0 0 289.5 86" enable-background="new 0 0 289.5 86" xml:space="preserve">
<rect x="-0.5" y="6" fill="#FFFFFF" width="290" height="79"/>
<polygon fill="#754D9E" points="68.377,-41 72.607,-47.346 77.43,-41 "/>
<polygon opacity="0.9" fill="#ED2A25" points="78.362,-41 82.591,-47.346 87.414,-41 "/>
<polygon opacity="0.9" fill="#F8ED40" points="88.346,-41 92.576,-47.346 97.398,-41 "/>
<polygon opacity="0.9" fill="#426EB5" points="92.406,-41 88.176,-34.655 83.354,-41 "/>
<polygon opacity="0.9" fill="#ED4798" points="82.422,-41 78.191,-34.655 73.37,-41 "/>
<polygon opacity="0.9" fill="#F7961D" points="72.438,-41 68.208,-34.655 63.385,-41 "/>
<polygon opacity="0.9" fill="#F8ED40" points="131.719,-41 127.489,-34.655 122.668,-41 "/>
<polygon opacity="0.9" fill="#426EB5" points="121.735,-41 117.506,-34.655 112.683,-41 "/>
<polygon opacity="0.9" fill="#ED4798" points="111.751,-41 107.521,-34.655 102.699,-41 "/>
<polygon opacity="0.9" fill="#F7961D" points="101.767,-41 97.537,-34.655 92.714,-41 "/>
<polygon opacity="0.9" fill="#ED2A25" points="97.707,-41 101.937,-47.346 106.758,-41 "/>
<polygon fill="#754D9E" points="107.69,-41 111.921,-47.346 116.743,-41 "/>
<polygon opacity="0.8" fill="#06B052" points="117.676,-41 121.905,-47.346 126.728,-41 "/>
<polygon opacity="0.9" fill="#F7961D" points="171.032,-41 166.803,-34.655 161.98,-41 "/>
<polygon opacity="0.9" fill="#F7961D" points="127.659,-41 131.889,-47.346 136.711,-41 "/>
<polygon opacity="0.9" fill="#ED4798" points="137.644,-41 141.873,-47.346 146.695,-41 "/>
<polygon opacity="0.9" fill="#426EB5" points="147.628,-41 151.857,-47.346 156.68,-41 "/>
<polygon opacity="0.9" fill="#F8ED40" points="157.611,-41 161.842,-47.346 166.664,-41 "/>
<polygon opacity="0.8" fill="#06B052" points="161.672,-41 157.441,-34.655 152.62,-41 "/>
<polygon fill="#754D9E" points="151.688,-41 147.457,-34.655 142.636,-41 "/>
<polygon opacity="0.9" fill="#ED2A25" points="141.703,-41 137.473,-34.655 132.651,-41 "/>
<g display="none">
	<rect x="-10.5" display="inline" fill="#FFFFFF" width="300" height="79"/>
	<polygon display="inline" opacity="0.9" fill="#F7961D" points="38.162,79 50.249,60.867 64.028,79 	"/>
	<polygon display="inline" opacity="0.9" fill="#F7961D" points="209.136,79 221.223,60.867 235.003,79 	"/>
	<polygon display="inline" opacity="0.9" fill="#F8ED40" points="52.317,79 67.552,56.145 84.92,79 	"/>
	<polygon display="inline" opacity="0.9" fill="#ED4798" points="184.874,79 200.108,56.145 217.477,79 	"/>
	<polygon display="inline" opacity="0.8" fill="#06B052" points="73.839,79 93.526,49.466 115.969,79 	"/>
	<polygon display="inline" opacity="0.9" fill="#426EB5" points="98.196,79 122.205,42.981 149.576,79 	"/>
	<polygon display="inline" opacity="0.9" fill="#ED2A25" points="124.196,79 148.205,42.981 175.576,79 	"/>
	<polygon display="inline" opacity="0.9" fill="#754D9E" points="152.465,79 173.423,47.559 197.315,79 	"/>
	<polygon display="inline" opacity="0.2" fill="#F7961D" points="38.037,79 -10.5,24.5 -10.5,0 10.5,0 50.249,60.867 	"/>
	<polygon display="inline" opacity="0.2" fill="#F8ED40" points="57.665,70.79 50.186,60.867 10.5,0 39.5,0 67.552,56.145 	"/>
	<polygon display="inline" opacity="0.2" fill="#06B052" points="78.955,71.232 67.521,56.145 39.5,0 79.5,0 93.526,49.466 	"/>
	<polygon display="inline" opacity="0.2" fill="#426EB5" points="106.401,66.541 93.476,49.466 79.5,0 112.5,0 122.205,42.981 	"/>
	<polyline display="inline" opacity="0.1" fill="#ED2A25" points="135.889,61.208 122.121,42.981 112.5,0 141.5,0 148.205,42.981 
		136.056,61.208 	"/>
	<polygon display="inline" opacity="0.2" fill="#F7961D" points="289.5,26 289.5,0 261.5,0 221.223,60.867 235.003,79 	"/>
	<polygon display="inline" opacity="0.2" fill="#ED4798" points="200.275,56.145 213.116,73.153 221.265,60.867 261.5,0 226.5,0 	
		"/>
	<polygon display="inline" opacity="0.2" fill="#754D9E" points="173.516,47.559 190.733,70.278 200.132,56.145 226.5,0 197.5,0 	
		"/>
	<polygon display="inline" opacity="0.2" fill="#ED2A25" points="148.205,42.981 156.695,0 197.5,0 173.516,47.559 163.63,63.279 	
		"/>
</g>
<polygon opacity="0.9" fill="#F7961D" points="140.659,-25 144.889,-31.346 149.711,-25 "/>
<polygon opacity="0.9" fill="#ED4798" points="150.783,-25 155.013,-31.346 159.835,-25 "/>
<polygon fill="#754D9E" points="190.69,-25 194.921,-31.346 199.743,-25 "/>
<polygon opacity="0.8" fill="#06B052" points="200.675,-25 204.905,-31.346 209.728,-25 "/>
<polygon opacity="0.9" fill="#F7961D" points="210.659,-25 214.889,-31.346 219.711,-25 "/>
<polygon opacity="0.9" fill="#ED2A25" points="180.986,-25 185.217,-31.346 190.038,-25 "/>
<polygon opacity="0.9" fill="#F8ED40" points="171.626,-25 175.854,-31.346 180.678,-25 "/>
<polygon opacity="0.9" fill="#426EB5" points="161.018,-25 165.247,-31.346 170.069,-25 "/>
<polygon opacity="0.9" fill="#ED4798" points="220.783,-25 225.013,-31.346 229.835,-25 "/>
<polygon fill="#06B052" points="139.223,131 131.728,118 139.223,105 154.215,105 161.71,118 154.215,131 "/>
<polygon fill="#06B052" points="124.223,157 116.728,144 124.223,131 139.215,131 146.71,144 139.215,157 "/>
<polygon fill="#06B052" points="146.223,144 138.728,131 146.223,118 161.215,118 168.71,131 161.215,144 "/>
<polygon fill="#06B052" points="139.223,157 131.728,144 139.223,131 154.215,131 161.71,144 154.215,157 "/>
<polygon fill="none" stroke="#FFFFFF" stroke-miterlimit="10" points="131.551,289.5 115.103,261 131.551,232.5 164.449,232.5 
	180.897,261 164.449,289.5 "/>
<path fill="none" stroke="#FFFFFF" stroke-miterlimit="10" d="M131.551,232.5"/>
<g opacity="0.9">
	<path fill="#ED4798" d="M188.254,249.27h0.488l1.488,4.528l1.512-4.528h0.488l-1.952,5.862h-0.098L188.254,249.27z"/>
	<polygon fill="#ED4798" points="187.55,247.12 188.038,247.12 188.476,248.452 187.987,248.452 	"/>
	<polygon fill="#ED4798" points="187.852,248.042 188.34,248.042 188.777,249.375 188.289,249.375 	"/>
	<polygon fill="#ED4798" points="187.575,247.12 183.358,247.12 183.358,247.69 187.852,247.69 	"/>
	<polygon fill="#ED4798" points="191.854,249.27 196.835,249.27 196.835,249.771 191.649,249.771 	"/>
</g>
<g>
	<path fill="#426EB5" d="M56,156.5"/>
	<g>
		<g>
			<polygon opacity="0.9" fill="#426EB5" points="34,111 24.103,128.177 34,145.5 57,128 			"/>
			<polyline opacity="0.9" fill="#F7961D" points="80.062,145.031 57,128 80.515,111.742 90,128 			"/>
			<polyline opacity="0.8" fill="#06B052" points="24.103,128.177 40.551,99.5 57,128 			"/>
			<polyline opacity="0.9" fill="#F8ED40" points="90,128.177 73.551,99.5 57.103,128 			"/>
			<polyline opacity="0.9" fill="#754D9E" points="73.551,99.5 57,128 40.551,99.5 			"/>
			<polyline opacity="0.1" points="73.551,99.5 57.103,128 56,99.5 			"/>
			<polyline opacity="0.9" fill="#ED4798" points="30.256,139.396 56.5,128.104 56.5,157 40.176,156.5 			"/>
			<polyline opacity="0.9" fill="#ED2A25" points="83.064,139.405 56.5,128.104 56.5,157 73.074,156.5 			"/>
			<polygon opacity="0.05" points="60,128 57,123.812 54,128 57,132.396 			"/>
		</g>
		<polygon opacity="0.05" fill="#FFFFFF" points="56.5,128.104 40.051,156.5 56.5,157 		"/>
		<polyline opacity="0.05" points="56.75,128.104 73.074,156.5 56.5,157 56.5,128 		"/>
	</g>
	<polygon fill="#FFFFFF" points="49.739,140 42.603,127.5 49.739,115 64.012,115 71.146,127.5 64.012,140 	"/>
	<g opacity="0.9">
		<path fill="#9E9E9E" d="M55.035,125.939h0.711l2.17,7.191l2.205-7.191h0.712l-2.847,9.311h-0.142L55.035,125.939z"/>
		<polygon fill="#9E9E9E" points="54.008,122.527 54.72,122.527 55.357,124.643 54.646,124.643 		"/>
		<polygon fill="#9E9E9E" points="54.447,123.99 55.16,123.99 55.798,126.107 55.086,126.107 		"/>
		<polygon fill="#9E9E9E" points="54.045,122.527 47.896,122.527 47.896,123.433 54.447,123.433 		"/>
		<polygon fill="#9E9E9E" points="60.283,125.939 67.548,125.939 67.548,126.736 59.986,126.736 		"/>
	</g>
</g>
<path fill="#ED2A25" d="M230.003,85"/>
<polygon opacity="0.6" fill="#F8ED40" points="40.679,85 93.473,5.81 153.652,85 "/>
<polygon opacity="0.3" fill="#ED2A25" points="-29.479,85 37.482,-15.44 113.81,85 "/>
<polygon opacity="0.5" fill="#ED4798" points="-8.271,85 29.522,28.31 72.603,85 "/>
<polygon opacity="0.4" fill="#754D9E" points="136.68,85 189.473,5.81 249.652,85 "/>
<polygon opacity="0.4" fill="#06B052" points="69.969,85 136.165,-14.295 211.621,85 "/>
<polygon opacity="0.4" fill="#426EB5" points="170.695,85 236.892,-14.295 312.348,85 "/>
<polygon opacity="0.5" fill="#F7961D" points="203.729,85 241.522,28.31 284.604,85 "/>
<polygon opacity="0.6" fill="#ED4798" points="29.522,28.31 65.701,47.468 55.598,62.623 "/>
<polygon opacity="0.8" fill="#F8ED40" points="93.473,5.81 64.446,20.041 74.854,33.738 "/>
<polygon opacity="0.5" fill="#754D9E" points="189.473,5.81 217.147,15.322 207.593,29.654 "/>
<polygon opacity="0.6" fill="#F7961D" points="241.522,28.31 215.783,40.432 225.189,52.81 "/>
<polygon fill="#ED4798" points="40.679,85 55.598,62.623 72.603,85 "/>
<polygon fill="#F8ED40" points="71.198,83 90.43,54.269 113.81,85 72.5,85 "/>
<polygon fill="#06B052" points="136.68,85 144.611,73.103 153.652,85 "/>
<polygon fill="#426EB5" points="170.695,85 189.82,56.312 211.621,85 "/>
<polyline fill="#F7961D" points="207.634,79.051 225.159,52.81 249.652,85 211.5,85 207.634,79.753 "/>
</svg>
