<?xml version="1.0" encoding="utf-8"?>
<!-- Generator: Adobe Illustrator 16.0.0, SVG Export Plug-In . SVG Version: 6.00 Build 0)  -->
<!DOCTYPE svg PUBLIC "-//W3C//DTD SVG 1.1//EN" "http://www.w3.org/Graphics/SVG/1.1/DTD/svg11.dtd">
<svg version="1.1" id="Layer_1" xmlns="http://www.w3.org/2000/svg" xmlns:xlink="http://www.w3.org/1999/xlink" x="0px" y="0px"
	 width="271px" height="882px" viewBox="0 0 271 882" enable-background="new 0 0 271 882" xml:space="preserve">
<rect x="-16.669" fill="#FFFFFF" width="296.334" height="883"/>
<g>
	<rect x="-2" y="-1" opacity="0.7" fill="#ED4798" enable-background="new    " width="8" height="44"/>
	<rect x="-2" y="32" opacity="0.6" fill="#ED2A25" enable-background="new    " width="8" height="44"/>
	<rect x="-2" y="65" opacity="0.7" fill="#754D9E" enable-background="new    " width="8" height="44"/>
	<rect x="-2" y="96" opacity="0.8" fill="#426EB5" enable-background="new    " width="8" height="44"/>
	<rect x="-2" y="132" opacity="0.6" fill="#06B052" enable-background="new    " width="8" height="44"/>
	<rect x="-2" y="205" opacity="0.8" fill="#F7961D" enable-background="new    " width="8" height="44"/>
	<rect x="-2" y="169" opacity="0.8" fill="#F8ED40" enable-background="new    " width="8" height="44"/>
	<rect x="-2" y="239" opacity="0.7" fill="#ED4798" enable-background="new    " width="8" height="44"/>
	<rect x="-2" y="272" opacity="0.6" fill="#ED2A25" enable-background="new    " width="8" height="44"/>
	<rect x="-2" y="305" opacity="0.7" fill="#754D9E" enable-background="new    " width="8" height="44"/>
	<rect x="-2" y="336" opacity="0.8" fill="#426EB5" enable-background="new    " width="8" height="44"/>
	<rect x="-2" y="372" opacity="0.6" fill="#06B052" enable-background="new    " width="8" height="44"/>
	<rect x="-2" y="445" opacity="0.8" fill="#F7961D" enable-background="new    " width="8" height="44"/>
	<rect x="-2" y="409" opacity="0.8" fill="#F8ED40" enable-background="new    " width="8" height="44"/>
	<rect x="-2" y="476" opacity="0.7" fill="#ED4798" enable-background="new    " width="8" height="44"/>
	<rect x="-2" y="509" opacity="0.6" fill="#ED2A25" enable-background="new    " width="8" height="44"/>
	<rect x="-2" y="542" opacity="0.7" fill="#754D9E" enable-background="new    " width="8" height="44"/>
	<rect x="-2" y="573" opacity="0.8" fill="#426EB5" enable-background="new    " width="8" height="44"/>
	<rect x="-2" y="609" opacity="0.6" fill="#06B052" enable-background="new    " width="8" height="44"/>
	<rect x="-2" y="682" opacity="0.8" fill="#F7961D" enable-background="new    " width="8" height="44"/>
	<rect x="-2" y="646" opacity="0.8" fill="#F8ED40" enable-background="new    " width="8" height="44"/>
	<rect x="-2" y="709" opacity="0.7" fill="#ED4798" enable-background="new    " width="8" height="44"/>
	<rect x="-2" y="742" opacity="0.6" fill="#ED2A25" enable-background="new    " width="8" height="44"/>
	<rect x="-2" y="775" opacity="0.7" fill="#754D9E" enable-background="new    " width="8" height="44"/>
	<rect x="-2" y="806" opacity="0.8" fill="#426EB5" enable-background="new    " width="8" height="44"/>
	<rect x="-2" y="842" opacity="0.6" fill="#06B052" enable-background="new    " width="8" height="44"/>
	<rect x="-2" y="915" opacity="0.8" fill="#F7961D" enable-background="new    " width="8" height="44"/>
	<rect x="-2" y="879" opacity="0.8" fill="#F8ED40" enable-background="new    " width="8" height="44"/>
</g>
<g>
	<rect x="248" y="916" opacity="0.7" fill="#ED4798" enable-background="new    " width="8" height="44"/>
	<rect x="248" y="883" opacity="0.6" fill="#ED2A25" enable-background="new    " width="8" height="44"/>
	<rect x="248" y="850" opacity="0.7" fill="#754D9E" enable-background="new    " width="8" height="44"/>
	<rect x="248" y="819" opacity="0.8" fill="#426EB5" enable-background="new    " width="8" height="44"/>
	<rect x="248" y="783" opacity="0.6" fill="#06B052" enable-background="new    " width="8" height="44"/>
	<rect x="248" y="710" opacity="0.8" fill="#F7961D" enable-background="new    " width="8" height="44"/>
	<rect x="248" y="746" opacity="0.8" fill="#F8ED40" enable-background="new    " width="8" height="44"/>
	<rect x="248" y="676" opacity="0.7" fill="#ED4798" enable-background="new    " width="8" height="44"/>
	<rect x="248" y="643" opacity="0.6" fill="#ED2A25" enable-background="new    " width="8" height="44"/>
	<rect x="248" y="610" opacity="0.7" fill="#754D9E" enable-background="new    " width="8" height="44"/>
	<rect x="248" y="579" opacity="0.8" fill="#426EB5" enable-background="new    " width="8" height="44"/>
	<rect x="248" y="543" opacity="0.6" fill="#06B052" enable-background="new    " width="8" height="44"/>
	<rect x="248" y="470" opacity="0.8" fill="#F7961D" enable-background="new    " width="8" height="44"/>
	<rect x="248" y="506" opacity="0.8" fill="#F8ED40" enable-background="new    " width="8" height="44"/>
	<rect x="248" y="439" opacity="0.7" fill="#ED4798" enable-background="new    " width="8" height="44"/>
	<rect x="248" y="406" opacity="0.6" fill="#ED2A25" enable-background="new    " width="8" height="44"/>
	<rect x="248" y="373" opacity="0.7" fill="#754D9E" enable-background="new    " width="8" height="44"/>
	<rect x="248" y="342" opacity="0.8" fill="#426EB5" enable-background="new    " width="8" height="44"/>
	<rect x="248" y="306" opacity="0.6" fill="#06B052" enable-background="new    " width="8" height="44"/>
	<rect x="248" y="233" opacity="0.8" fill="#F7961D" enable-background="new    " width="8" height="44"/>
	<rect x="248" y="269" opacity="0.8" fill="#F8ED40" enable-background="new    " width="8" height="44"/>
	<rect x="248" y="206" opacity="0.7" fill="#ED4798" enable-background="new    " width="8" height="44"/>
	<rect x="248" y="173" opacity="0.6" fill="#ED2A25" enable-background="new    " width="8" height="44"/>
	<rect x="248" y="140" opacity="0.7" fill="#754D9E" enable-background="new    " width="8" height="44"/>
	<rect x="248" y="109" opacity="0.8" fill="#426EB5" enable-background="new    " width="8" height="44"/>
	<rect x="248" y="73" opacity="0.6" fill="#06B052" enable-background="new    " width="8" height="44"/>
	<rect x="248" opacity="0.8" fill="#F7961D" enable-background="new    " width="8" height="44"/>
	<rect x="248" y="36" opacity="0.8" fill="#F8ED40" enable-background="new    " width="8" height="44"/>
</g>
</svg>
