<?xml version="1.0" encoding="utf-8"?>
<!-- Generator: Adobe Illustrator 16.0.4, SVG Export Plug-In . SVG Version: 6.00 Build 0)  -->
<!DOCTYPE svg PUBLIC "-//W3C//DTD SVG 1.1//EN" "http://www.w3.org/Graphics/SVG/1.1/DTD/svg11.dtd">
<svg version="1.1" id="Layer_1" xmlns="http://www.w3.org/2000/svg" xmlns:xlink="http://www.w3.org/1999/xlink" x="0px" y="0px"
	 width="180.332px" height="884.775px" viewBox="0 0 180.332 884.775" enable-background="new 0 0 180.332 884.775"
	 xml:space="preserve">
<g>
	<polygon opacity="0.3" fill="#ED2A25" points="-59,948.885 25.292,921.478 -59,879.592 	"/>
	<polygon opacity="0.4" fill="#F7961D" points="-61,761.303 26.394,719.417 -61,691.492 	"/>
	<polygon opacity="0.3" fill="#F8ED40" points="22.133,772.472 -92.497,753.397 -60.286,815.334 	"/>
	<polyline opacity="0.4" fill="#ED4798" points="-63.116,706.89 20.141,677.4 -63.116,610.501 	"/>
	<polyline opacity="0.3" fill="#426EB5" points="-60.979,904.945 16.588,870.299 -60.979,830.48 	"/>
	<polygon opacity="0.8" fill="#F8ED40" points="27.289,946.504 -92.497,917.513 -55.128,989.367 	"/>
	<polygon opacity="0.8" fill="#F7961D" points="-65,934.649 22.394,892.764 -65,864.838 	"/>
	<polygon opacity="0.8" fill="#ED2A25" points="-65,685.552 19.292,656.412 -65,611.878 	"/>
	<polygon opacity="0.8" fill="#06B052" points="-61,880.817 0.022,844.18 -61,817.688 	"/>
	<polyline opacity="0.8" fill="#ED4798" points="-66.192,751.024 17.064,817.924 -66.192,847.413 	"/>
	<polyline opacity="0.8" fill="#754D9E" points="-63.032,719.286 7.299,701.307 -63.032,666.468 	"/>
	<polyline opacity="0.8" fill="#426EB5" points="-63.032,778.781 14.537,744.135 -63.032,704.316 	"/>
	<polygon fill="#F8ED40" points="27.289,946.504 2.061,929.213 -17.66,935.625 	"/>
	<polygon opacity="0.4" fill="#ED2A25" points="25.85,921.478 11.416,935.624 2.061,929.213 	"/>
	<polygon opacity="0.9" fill="#F7961D" points="22.797,892.764 2.061,876.787 -10.143,882.238 	"/>
	<polygon opacity="0.4" fill="#426EB5" points="16.588,870.299 -8.752,849.751 -15.521,853.816 	"/>
	<polygon opacity="0.9" fill="#06B052" points="0.527,844.18 -11.342,827.984 -25.347,832.945 	"/>
	<polygon fill="#ED4798" points="17.064,817.924 -7.674,787.973 -15.285,791.932 	"/>
	<polygon opacity="0.4" fill="#F8ED40" points="22.133,772.472 -10.143,755.158 -29.524,763.815 	"/>
	<polygon fill="#426EB5" points="14.537,744.135 -5.875,757.447 -10.143,755.158 	"/>
	<polygon opacity="0.3" fill="#F7961D" points="26.9,719.417 3.584,738.513 -4.395,734.416 	"/>
	<polygon opacity="0.9" fill="#754D9E" points="7.299,701.307 -3.697,685.844 -15.486,690.02 	"/>
	<polygon opacity="0.5" fill="#ED4798" points="20.141,677.4 7.299,701.307 -3.697,685.844 	"/>
	<polygon opacity="0.9" fill="#ED2A25" points="19.695,656.412 1.049,634.093 -22.45,634.146 	"/>
	<polygon opacity="0.7" fill="#06B052" points="0.527,844.18 17.064,817.924 -11.342,827.984 	"/>
	<polygon opacity="0.5" fill="#426EB5" points="0.527,844.18 16.588,870.299 -8.752,849.751 	"/>
	<polygon fill="#F7961D" points="22.797,892.764 16.588,870.299 2.061,876.787 	"/>
	<polygon opacity="0.4" fill="#ED2A25" points="25.85,921.478 22.797,892.764 -5.064,906.115 	"/>
	<polygon opacity="0.7" fill="#ED4798" points="27.289,946.504 23.871,962.847 -3.697,962.618 	"/>
	<polygon opacity="0.4" fill="#426EB5" points="16.588,870.299 35.668,859.697 0.527,844.18 	"/>
	<polygon opacity="0.9" fill="#F7961D" points="22.797,892.764 31.82,884.775 16.588,870.299 	"/>
	<polygon opacity="0.5" fill="#F7961D" points="26.9,719.417 7.299,701.307 -13.299,706.572 	"/>
	<polygon opacity="0.9" fill="#426EB5" points="14.537,744.135 42.078,771.037 22.133,772.472 -5.875,757.447 	"/>
	<polygon opacity="0.7" fill="#426EB5" points="22.133,772.472 14.537,744.135 -5.875,757.447 	"/>
	<polygon opacity="0.45" fill="#F7961D" points="26.9,719.417 39.771,738.513 14.537,744.135 3.584,738.513 	"/>
	<polygon opacity="0.6" fill="#ED4798" points="7.299,701.307 46.182,681.8 20.141,677.4 	"/>
	<polygon opacity="0.7" fill="#ED4798" points="46.182,681.8 19.695,656.412 1.744,662.617 20.141,677.4 	"/>
	<polygon opacity="0.5" fill="#426EB5" points="17.064,851.482 30.967,838.904 0.527,844.18 	"/>
	<polygon fill="#ED2A25" points="1.049,634.093 46.182,648.715 19.695,656.412 	"/>
	<polygon opacity="0.4" fill="#ED2A25" points="19.292,656.242 -65,685.552 -65,651.028 	"/>
	<polygon opacity="0.5" fill="#ED4798" points="16.257,817.924 -67,847.413 -67,805.912 	"/>
	<polygon opacity="0.8" fill="#06B052" points="0.527,844.18 35.668,827.984 16.609,817.924 	"/>
	<polyline opacity="0.5" fill="#ED2A25" points="25.85,921.478 51.652,904.945 22.797,892.764 	"/>
	<polygon opacity="0.8" fill="#ED4798" points="23.871,962.847 51.652,942.675 27.289,946.504 	"/>
	<polygon opacity="0.9" fill="#ED4798" points="51.652,942.675 11.416,935.624 27.289,946.504 	"/>
	<polygon fill="#F8ED40" points="-58.442,962.847 -3.697,962.618 27.289,946.504 -59.013,952.761 	"/>
	<polygon opacity="0.9" fill="#ED4798" points="9.008,808.168 46.182,797.193 9.008,778.781 -7.674,787.973 	"/>
	<polygon fill="#ED2A25" points="-60,962.847 -20.11,933.784 -60,922.158 	"/>
	<polygon opacity="0.9" fill="#ED2A25" points="-19.578,933.938 -39.522,963 -59.468,963 	"/>
	<polygon fill="#754D9E" points="-33.63,929.988 -6.09,914.238 -59.464,888.652 -60.493,922.158 	"/>
	<polygon fill="#426EB5" points="-58.698,903.867 -16.297,884.986 -59.013,867.713 	"/>
	<polygon opacity="0.9" fill="#754D9E" points="-6.09,914.238 -26.458,889.512 -42.64,896.718 	"/>
	<polygon fill="#F8ED40" points="-43.133,874.205 -8.415,856.277 -60,836.082 -60,867.455 	"/>
	<polygon opacity="0.9" fill="#426EB5" points="-16.297,884.986 -28.366,866.746 -42.866,874.205 	"/>
	<polygon fill="#F7961D" points="-60,847.413 -26.334,824.203 -60,804.543 	"/>
	<polygon opacity="0.9" fill="#F8ED40" points="-8.016,856.277 -35.183,830.48 -48.995,840.193 	"/>
	<polygon opacity="0.9" fill="#F7961D" points="-25.802,824.203 -31.587,802.949 -47.651,811.443 	"/>
	<polygon fill="#06B052" points="-60.038,817.451 -11.168,794.5 -59.468,771.037 	"/>
	<polygon fill="#ED4798" points="-45.644,777.752 -13.299,753.397 -59.013,734.111 -59.468,771.037 	"/>
	<polygon opacity="0.9" fill="#06B052" points="-11.168,794.5 -35.604,770.192 -45.644,777.752 	"/>
	<polygon fill="#F8ED40" points="-60,742.573 -23.438,722.059 -60,691.492 	"/>
	<polygon fill="#426EB5" points="-60,702.827 -9.003,671.542 -60,642.565 	"/>
	<polygon opacity="0.9" fill="#ED4798" points="-13.299,753.397 -33.489,727.997 -50.665,737.634 	"/>
	<polygon opacity="0.9" fill="#F8ED40" points="-22.905,722.059 -36.384,688.665 -51.647,698.029 	"/>
	<polygon fill="#F7961D" points="-31.575,658.572 -6.76,642.458 -31.081,634 -60,634 -60,642.822 	"/>
	<polygon opacity="0.9" fill="#426EB5" points="-8.471,671.542 -18.352,650.005 -31.308,658.572 	"/>
	<polygon opacity="0.9" fill="#F7961D" points="-6.627,642.253 -15.486,634.13 -29.663,634.093 	"/>
	<polygon fill="#426EB5" points="42.078,771.037 16.205,782.346 9.008,778.781 22.133,772.472 	"/>
</g>
<g>
	<polygon opacity="0.3" fill="#ED2A25" points="-59,627.885 25.292,600.478 -59,558.592 	"/>
	<polygon opacity="0.4" fill="#F7961D" points="-61,440.303 26.394,398.417 -61,370.492 	"/>
	<polygon opacity="0.3" fill="#F8ED40" points="22.133,451.472 -92.497,432.397 -60.286,494.334 	"/>
	<polyline opacity="0.4" fill="#ED4798" points="-63.116,385.89 20.141,356.4 -63.116,289.501 	"/>
	<polyline opacity="0.3" fill="#426EB5" points="-60.979,583.945 16.588,549.299 -60.979,509.48 	"/>
	<polygon opacity="0.8" fill="#F8ED40" points="27.289,625.504 -92.497,596.513 -55.128,668.367 	"/>
	<polygon opacity="0.8" fill="#F7961D" points="-65,613.649 22.394,571.764 -65,543.838 	"/>
	<polygon opacity="0.8" fill="#ED2A25" points="-65,364.552 19.292,335.412 -65,290.878 	"/>
	<polygon opacity="0.8" fill="#06B052" points="-61,559.817 0.022,523.18 -61,496.688 	"/>
	<polyline opacity="0.8" fill="#ED4798" points="-66.192,430.024 17.064,496.924 -66.192,526.413 	"/>
	<polyline opacity="0.8" fill="#754D9E" points="-63.032,398.286 7.299,380.307 -63.032,345.468 	"/>
	<polyline opacity="0.8" fill="#426EB5" points="-63.032,457.781 14.537,423.135 -63.032,383.316 	"/>
	<polygon fill="#F8ED40" points="27.289,625.504 2.061,608.213 -17.66,614.625 	"/>
	<polygon opacity="0.4" fill="#ED2A25" points="25.85,600.478 11.416,614.624 2.061,608.213 	"/>
	<polygon opacity="0.9" fill="#F7961D" points="22.797,571.764 2.061,555.787 -10.143,561.238 	"/>
	<polygon opacity="0.4" fill="#426EB5" points="16.588,549.299 -8.752,528.751 -15.521,532.816 	"/>
	<polygon opacity="0.9" fill="#06B052" points="0.527,523.18 -11.342,506.984 -25.347,511.945 	"/>
	<polygon fill="#ED4798" points="17.064,496.924 -7.674,466.973 -15.285,470.932 	"/>
	<polygon opacity="0.4" fill="#F8ED40" points="22.133,451.472 -10.143,434.158 -29.524,442.815 	"/>
	<polygon fill="#426EB5" points="14.537,423.135 -5.875,436.447 -10.143,434.158 	"/>
	<polygon opacity="0.3" fill="#F7961D" points="26.9,398.417 3.584,417.513 -4.395,413.416 	"/>
	<polygon opacity="0.9" fill="#754D9E" points="7.299,380.307 -3.697,364.844 -15.486,369.02 	"/>
	<polygon opacity="0.5" fill="#ED4798" points="20.141,356.4 7.299,380.307 -3.697,364.844 	"/>
	<polygon opacity="0.9" fill="#ED2A25" points="19.695,335.412 1.049,313.093 -22.45,313.146 	"/>
	<polygon opacity="0.7" fill="#06B052" points="0.527,523.18 17.064,496.924 -11.342,506.984 	"/>
	<polygon opacity="0.5" fill="#426EB5" points="0.527,523.18 16.588,549.299 -8.752,528.751 	"/>
	<polygon fill="#F7961D" points="22.797,571.764 16.588,549.299 2.061,555.787 	"/>
	<polygon opacity="0.4" fill="#ED2A25" points="25.85,600.478 22.797,571.764 -5.064,585.115 	"/>
	<polygon opacity="0.7" fill="#ED4798" points="27.289,625.504 23.871,641.847 -3.697,641.618 	"/>
	<polygon opacity="0.4" fill="#426EB5" points="16.588,549.299 35.668,538.697 0.527,523.18 	"/>
	<polygon opacity="0.9" fill="#F7961D" points="22.797,571.764 31.82,563.775 16.588,549.299 	"/>
	<polygon opacity="0.5" fill="#F7961D" points="26.9,398.417 7.299,380.307 -13.299,385.572 	"/>
	<polygon opacity="0.9" fill="#426EB5" points="14.537,423.135 42.078,450.037 22.133,451.472 -5.875,436.447 	"/>
	<polygon opacity="0.7" fill="#426EB5" points="22.133,451.472 14.537,423.135 -5.875,436.447 	"/>
	<polygon opacity="0.45" fill="#F7961D" points="26.9,398.417 39.771,417.513 14.537,423.135 3.584,417.513 	"/>
	<polygon opacity="0.6" fill="#ED4798" points="7.299,380.307 46.182,360.8 20.141,356.4 	"/>
	<polygon opacity="0.7" fill="#ED4798" points="46.182,360.8 19.695,335.412 1.744,341.617 20.141,356.4 	"/>
	<polygon opacity="0.5" fill="#426EB5" points="17.064,530.482 30.967,517.904 0.527,523.18 	"/>
	<polygon fill="#ED2A25" points="1.049,313.093 46.182,327.715 19.695,335.412 	"/>
	<polygon opacity="0.4" fill="#ED2A25" points="19.292,335.242 -65,364.552 -65,330.028 	"/>
	<polygon opacity="0.5" fill="#ED4798" points="16.257,496.924 -67,526.413 -67,484.912 	"/>
	<polygon opacity="0.8" fill="#06B052" points="0.527,523.18 35.668,506.984 16.609,496.924 	"/>
	<polyline opacity="0.5" fill="#ED2A25" points="25.85,600.478 51.652,583.945 22.797,571.764 	"/>
	<polygon opacity="0.8" fill="#ED4798" points="23.871,641.847 51.652,621.675 27.289,625.504 	"/>
	<polygon opacity="0.9" fill="#ED4798" points="51.652,621.675 11.416,614.624 27.289,625.504 	"/>
	<polygon fill="#F8ED40" points="-58.442,641.847 -3.697,641.618 27.289,625.504 -59.013,631.761 	"/>
	<polygon opacity="0.9" fill="#ED4798" points="9.008,487.168 46.182,476.193 9.008,457.781 -7.674,466.973 	"/>
	<polygon fill="#ED2A25" points="-60,641.847 -20.11,612.784 -60,601.158 	"/>
	<polygon opacity="0.9" fill="#ED2A25" points="-19.578,612.938 -39.522,642 -59.468,642 	"/>
	<polygon fill="#754D9E" points="-33.63,608.988 -6.09,593.238 -59.464,567.652 -60.493,601.158 	"/>
	<polygon fill="#426EB5" points="-58.698,582.867 -16.297,563.986 -59.013,546.713 	"/>
	<polygon opacity="0.9" fill="#754D9E" points="-6.09,593.238 -26.458,568.512 -42.64,575.718 	"/>
	<polygon fill="#F8ED40" points="-43.133,553.205 -8.415,535.277 -60,515.082 -60,546.455 	"/>
	<polygon opacity="0.9" fill="#426EB5" points="-16.297,563.986 -28.366,545.746 -42.866,553.205 	"/>
	<polygon fill="#F7961D" points="-60,526.413 -26.334,503.203 -60,483.543 	"/>
	<polygon opacity="0.9" fill="#F8ED40" points="-8.016,535.277 -35.183,509.48 -48.995,519.193 	"/>
	<polygon opacity="0.9" fill="#F7961D" points="-25.802,503.203 -31.587,481.949 -47.651,490.443 	"/>
	<polygon fill="#06B052" points="-60.038,496.451 -11.168,473.5 -59.468,450.037 	"/>
	<polygon fill="#ED4798" points="-45.644,456.752 -13.299,432.397 -59.013,413.111 -59.468,450.037 	"/>
	<polygon opacity="0.9" fill="#06B052" points="-11.168,473.5 -35.604,449.192 -45.644,456.752 	"/>
	<polygon fill="#F8ED40" points="-60,421.573 -23.438,401.059 -60,370.492 	"/>
	<polygon fill="#426EB5" points="-60,381.827 -9.003,350.542 -60,321.565 	"/>
	<polygon opacity="0.9" fill="#ED4798" points="-13.299,432.397 -33.489,406.997 -50.665,416.634 	"/>
	<polygon opacity="0.9" fill="#F8ED40" points="-22.905,401.059 -36.384,367.665 -51.647,377.029 	"/>
	<polygon fill="#F7961D" points="-31.575,337.572 -6.76,321.458 -31.081,313 -60,313 -60,321.822 	"/>
	<polygon opacity="0.9" fill="#426EB5" points="-8.471,350.542 -18.352,329.005 -31.308,337.572 	"/>
	<polygon opacity="0.9" fill="#F7961D" points="-6.627,321.253 -15.486,313.13 -29.663,313.093 	"/>
	<polygon fill="#426EB5" points="42.078,450.037 16.205,461.346 9.008,457.781 22.133,451.472 	"/>
</g>
<g>
	<polygon opacity="0.3" fill="#ED2A25" points="-59,302.885 25.292,275.478 -59,233.592 	"/>
	<polygon opacity="0.4" fill="#F7961D" points="-61,115.303 26.394,73.417 -61,45.492 	"/>
	<polygon opacity="0.3" fill="#F8ED40" points="22.133,126.472 -92.497,107.397 -60.286,169.334 	"/>
	<polyline opacity="0.4" fill="#ED4798" points="-63.116,60.89 20.141,31.4 -63.116,-35.499 	"/>
	<polyline opacity="0.3" fill="#426EB5" points="-60.979,258.945 16.588,224.299 -60.979,184.48 	"/>
	<polygon opacity="0.8" fill="#F8ED40" points="27.289,300.504 -92.497,271.513 -55.128,343.367 	"/>
	<polygon opacity="0.8" fill="#F7961D" points="-65,288.649 22.394,246.764 -65,218.838 	"/>
	<polygon opacity="0.8" fill="#ED2A25" points="-65,39.552 19.292,10.412 -65,-34.122 	"/>
	<polygon opacity="0.8" fill="#06B052" points="-61,234.817 0.022,198.18 -61,171.688 	"/>
	<polyline opacity="0.8" fill="#ED4798" points="-66.192,105.024 17.064,171.924 -66.192,201.413 	"/>
	<polyline opacity="0.8" fill="#754D9E" points="-63.032,73.286 7.299,55.307 -63.032,20.468 	"/>
	<polyline opacity="0.8" fill="#426EB5" points="-63.032,132.781 14.537,98.135 -63.032,58.316 	"/>
	<polygon fill="#F8ED40" points="27.289,300.504 2.061,283.213 -17.66,289.625 	"/>
	<polygon opacity="0.4" fill="#ED2A25" points="25.85,275.478 11.416,289.624 2.061,283.213 	"/>
	<polygon opacity="0.9" fill="#F7961D" points="22.797,246.764 2.061,230.787 -10.143,236.238 	"/>
	<polygon opacity="0.4" fill="#426EB5" points="16.588,224.299 -8.752,203.751 -15.521,207.816 	"/>
	<polygon opacity="0.9" fill="#06B052" points="0.527,198.18 -11.342,181.984 -25.347,186.945 	"/>
	<polygon fill="#ED4798" points="17.064,171.924 -7.674,141.973 -15.285,145.932 	"/>
	<polygon opacity="0.4" fill="#F8ED40" points="22.133,126.472 -10.143,109.158 -29.524,117.815 	"/>
	<polygon fill="#426EB5" points="14.537,98.135 -5.875,111.447 -10.143,109.158 	"/>
	<polygon opacity="0.3" fill="#F7961D" points="26.9,73.417 3.584,92.513 -4.395,88.416 	"/>
	<polygon opacity="0.9" fill="#754D9E" points="7.299,55.307 -3.697,39.844 -15.486,44.02 	"/>
	<polygon opacity="0.5" fill="#ED4798" points="20.141,31.4 7.299,55.307 -3.697,39.844 	"/>
	<polygon opacity="0.9" fill="#ED2A25" points="19.695,10.412 1.049,-11.907 -22.45,-11.854 	"/>
	<polygon opacity="0.7" fill="#06B052" points="0.527,198.18 17.064,171.924 -11.342,181.984 	"/>
	<polygon opacity="0.5" fill="#426EB5" points="0.527,198.18 16.588,224.299 -8.752,203.751 	"/>
	<polygon fill="#F7961D" points="22.797,246.764 16.588,224.299 2.061,230.787 	"/>
	<polygon opacity="0.4" fill="#ED2A25" points="25.85,275.478 22.797,246.764 -5.064,260.115 	"/>
	<polygon opacity="0.7" fill="#ED4798" points="27.289,300.504 23.871,316.847 -3.697,316.618 	"/>
	<polygon opacity="0.4" fill="#426EB5" points="16.588,224.299 35.668,213.697 0.527,198.18 	"/>
	<polygon opacity="0.9" fill="#F7961D" points="22.797,246.764 31.82,238.775 16.588,224.299 	"/>
	<polygon opacity="0.5" fill="#F7961D" points="26.9,73.417 7.299,55.307 -13.299,60.572 	"/>
	<polygon opacity="0.9" fill="#426EB5" points="14.537,98.135 42.078,125.037 22.133,126.472 -5.875,111.447 	"/>
	<polygon opacity="0.7" fill="#426EB5" points="22.133,126.472 14.537,98.135 -5.875,111.447 	"/>
	<polygon opacity="0.45" fill="#F7961D" points="26.9,73.417 39.771,92.513 14.537,98.135 3.584,92.513 	"/>
	<polygon opacity="0.6" fill="#ED4798" points="7.299,55.307 46.182,35.8 20.141,31.4 	"/>
	<polygon opacity="0.7" fill="#ED4798" points="46.182,35.8 19.695,10.412 1.744,16.617 20.141,31.4 	"/>
	<polygon opacity="0.5" fill="#426EB5" points="17.064,205.482 30.967,192.904 0.527,198.18 	"/>
	<polygon fill="#ED2A25" points="1.049,-11.907 46.182,2.715 19.695,10.412 	"/>
	<polygon opacity="0.4" fill="#ED2A25" points="19.292,10.242 -65,39.552 -65,5.028 	"/>
	<polygon opacity="0.5" fill="#ED4798" points="16.257,171.924 -67,201.413 -67,159.912 	"/>
	<polygon opacity="0.8" fill="#06B052" points="0.527,198.18 35.668,181.984 16.609,171.924 	"/>
	<polyline opacity="0.5" fill="#ED2A25" points="25.85,275.478 51.652,258.945 22.797,246.764 	"/>
	<polygon opacity="0.8" fill="#ED4798" points="23.871,316.847 51.652,296.675 27.289,300.504 	"/>
	<polygon opacity="0.9" fill="#ED4798" points="51.652,296.675 11.416,289.624 27.289,300.504 	"/>
	<polygon fill="#F8ED40" points="-58.442,316.847 -3.697,316.618 27.289,300.504 -59.013,306.761 	"/>
	<polygon opacity="0.9" fill="#ED4798" points="9.008,162.168 46.182,151.193 9.008,132.781 -7.674,141.973 	"/>
	<polygon fill="#ED2A25" points="-60,316.847 -20.11,287.784 -60,276.158 	"/>
	<polygon opacity="0.9" fill="#ED2A25" points="-19.578,287.938 -39.522,317 -59.468,317 	"/>
	<polygon fill="#754D9E" points="-33.63,283.988 -6.09,268.238 -59.464,242.652 -60.493,276.158 	"/>
	<polygon fill="#426EB5" points="-58.698,257.867 -16.297,238.986 -59.013,221.713 	"/>
	<polygon opacity="0.9" fill="#754D9E" points="-6.09,268.238 -26.458,243.512 -42.64,250.718 	"/>
	<polygon fill="#F8ED40" points="-43.133,228.205 -8.415,210.277 -60,190.082 -60,221.455 	"/>
	<polygon opacity="0.9" fill="#426EB5" points="-16.297,238.986 -28.366,220.746 -42.866,228.205 	"/>
	<polygon fill="#F7961D" points="-60,201.413 -26.334,178.203 -60,158.543 	"/>
	<polygon opacity="0.9" fill="#F8ED40" points="-8.016,210.277 -35.183,184.48 -48.995,194.193 	"/>
	<polygon opacity="0.9" fill="#F7961D" points="-25.802,178.203 -31.587,156.949 -47.651,165.443 	"/>
	<polygon fill="#06B052" points="-60.038,171.451 -11.168,148.5 -59.468,125.037 	"/>
	<polygon fill="#ED4798" points="-45.644,131.752 -13.299,107.397 -59.013,88.111 -59.468,125.037 	"/>
	<polygon opacity="0.9" fill="#06B052" points="-11.168,148.5 -35.604,124.192 -45.644,131.752 	"/>
	<polygon fill="#F8ED40" points="-60,96.573 -23.438,76.059 -60,45.492 	"/>
	<polygon fill="#426EB5" points="-60,56.827 -9.003,25.542 -60,-3.435 	"/>
	<polygon opacity="0.9" fill="#ED4798" points="-13.299,107.397 -33.489,81.997 -50.665,91.634 	"/>
	<polygon opacity="0.9" fill="#F8ED40" points="-22.905,76.059 -36.384,42.665 -51.647,52.029 	"/>
	<polygon fill="#F7961D" points="-31.575,12.572 -6.76,-3.542 -31.081,-12 -60,-12 -60,-3.178 	"/>
	<polygon opacity="0.9" fill="#426EB5" points="-8.471,25.542 -18.352,4.005 -31.308,12.572 	"/>
	<polygon opacity="0.9" fill="#F7961D" points="-6.627,-3.747 -15.486,-11.87 -29.663,-11.907 	"/>
	<polygon fill="#426EB5" points="42.078,125.037 16.205,136.346 9.008,132.781 22.133,126.472 	"/>
</g>
</svg>
