<?xml version="1.0" encoding="utf-8"?>
<!-- Generator: Adobe Illustrator 16.0.4, SVG Export Plug-In . SVG Version: 6.00 Build 0)  -->
<!DOCTYPE svg PUBLIC "-//W3C//DTD SVG 1.1//EN" "http://www.w3.org/Graphics/SVG/1.1/DTD/svg11.dtd">
<svg version="1.1" id="Layer_1" xmlns="http://www.w3.org/2000/svg" xmlns:xlink="http://www.w3.org/1999/xlink" x="0px" y="0px"
	 width="58.543px" height="732px" viewBox="0 0 58.543 732" enable-background="new 0 0 58.543 732" xml:space="preserve">
<polygon opacity="0.8" fill="#F8ED40" points="50.332,382.219 -60.5,363.775 -29.355,423.661 "/>
<polygon opacity="0.8" fill="#F7961D" points="-32,382.328 52.5,341.828 -32,314.828 "/>
<polygon opacity="0.8" fill="#ED2A25" points="-32,127.328 49.5,100.828 -32,60.328 "/>
<polygon opacity="0.8" fill="#06B052" points="-32,324.328 27,288.903 -32,263.289 "/>
<polyline opacity="0.8" fill="#ED4798" points="-42.01,279.137 38.49,250.624 -42.01,185.941 "/>
<polyline opacity="0.8" fill="#754D9E" points="-32.01,146.328 35.99,130.328 -32.01,99.328 "/>
<polyline opacity="0.8" fill="#426EB5" points="-32.01,206.828 42.99,173.328 -32.01,134.828 "/>
<polygon opacity="0.8" fill="#F8ED40" points="46.332,704.219 -64.5,685.775 -33.355,745.661 "/>
<polygon opacity="0.8" fill="#F7961D" points="-36,704.328 48.5,663.828 -36,636.828 "/>
<polygon opacity="0.8" fill="#ED2A25" points="-36,449.328 45.5,422.828 -36,382.328 "/>
<polygon opacity="0.8" fill="#06B052" points="-36,646.328 23,610.903 -36,585.289 "/>
<polygon opacity="0.8" fill="#F8ED40" points="47.332,58.219 -63.5,39.775 -32.355,99.661 "/>
<polygon opacity="0.8" fill="#F7961D" points="-35,58.328 49.5,17.828 -35,-9.172 "/>
<polygon opacity="0.8" fill="#06B052" points="-35,0.328 24,-35.097 -35,-60.711 "/>
<polyline opacity="0.8" fill="#ED4798" points="-46.01,601.137 34.49,572.624 -46.01,507.941 "/>
<polyline opacity="0.8" fill="#754D9E" points="-36.01,468.328 31.99,452.328 -36.01,421.328 "/>
<polyline opacity="0.8" fill="#426EB5" points="-36.01,528.828 38.99,495.328 -36.01,456.828 "/>
</svg>
