<?xml version="1.0" encoding="utf-8"?>
<!-- Generator: Adobe Illustrator 16.0.0, SVG Export Plug-In . SVG Version: 6.00 Build 0)  -->
<!DOCTYPE svg PUBLIC "-//W3C//DTD SVG 1.1//EN" "http://www.w3.org/Graphics/SVG/1.1/DTD/svg11.dtd">
<svg version="1.1" id="Layer_1" xmlns="http://www.w3.org/2000/svg" xmlns:xlink="http://www.w3.org/1999/xlink" x="0px" y="0px"
	 width="144px" height="42px" viewBox="0 0 144 42" enable-background="new 0 0 144 42" xml:space="preserve">
<g id="Layer_2_1_" display="none">
	<path display="inline" opacity="0.7" fill="#A9A8A8" enable-background="new    " d="M20.654,137.167
		c-6.815,0-12.965-2.804-17.293-7.274c3.238-1.029,9.402-3.285,10.345-3.693c2.16-0.94,2.163-3.963,2.063-5.221l-0.02-0.228
		l-0.165-0.167c-1.104-1.107-1.948-3.045-2.584-5.923l-0.088-0.402l-0.414-0.085c-0.19-0.042-0.545-0.316-0.929-0.961
		c-0.682-1.148-1.006-2.677-0.739-3.486c0.157-0.476,0.325-0.566,0.356-0.58c0.069-0.03,0.185,0.019,0.231,0.037l0.966,0.441
		l-0.027-1.034c-0.039-1.54-0.01-2.786,0.027-4.139c0.182-6.603,6.495-7.121,8.459-7.121c0.01,0,0.021,0,0.032,0
		c1.961,0,8.274,0.521,8.458,7.119c0.044,1.552,0.062,2.726,0.025,4.141l-0.025,1.032l0.966-0.439
		c0.048-0.02,0.163-0.067,0.232-0.037c0.03,0.015,0.198,0.104,0.354,0.58c0.268,0.812-0.058,2.342-0.738,3.488
		c-0.383,0.643-0.74,0.917-0.928,0.959l-0.414,0.088l-0.09,0.399c-0.633,2.878-1.476,4.817-2.583,5.925l-0.163,0.165l-0.02,0.229
		c-0.098,1.256-0.098,4.277,2.064,5.221c0.926,0.4,6.959,2.645,10.019,3.604C33.703,134.327,27.515,137.167,20.654,137.167z"/>
	<path display="inline" fill="#EC3793" d="M72.783,111.441h2.375c1.361,0,2.279,0.058,2.754,0.176
		c0.684,0.168,1.236,0.513,1.67,1.033c0.434,0.52,0.648,1.176,0.648,1.965c0,0.795-0.211,1.451-0.631,1.965
		c-0.423,0.518-1.004,0.863-1.744,1.044c-0.541,0.127-1.551,0.192-3.029,0.192h-0.852v5.543h-1.189v-11.918H72.783L72.783,111.441z
		 M73.975,112.609v4.041l2.021,0.023c0.813,0,1.412-0.074,1.789-0.224c0.379-0.148,0.676-0.388,0.891-0.722
		c0.218-0.328,0.324-0.701,0.324-1.108c0-0.399-0.106-0.767-0.324-1.099c-0.215-0.33-0.5-0.564-0.854-0.707
		c-0.354-0.141-0.936-0.209-1.737-0.209h-2.106v0.004H73.975z"/>
	<path display="inline" fill="#FFF100" d="M83.824,114.545h1.158v1.287c0.346-0.508,0.709-0.887,1.094-1.139
		c0.383-0.252,0.783-0.377,1.197-0.377c0.312,0,0.647,0.102,1.006,0.301l-0.59,0.955c-0.24-0.102-0.439-0.152-0.603-0.152
		c-0.379,0-0.741,0.154-1.096,0.467c-0.353,0.312-0.617,0.793-0.804,1.445c-0.141,0.503-0.211,1.52-0.211,3.048v2.981H83.82v-8.816
		H83.824L83.824,114.545z"/>
	<path display="inline" fill="#F5841F" d="M95.18,114.316c1.357,0,2.482,0.492,3.377,1.477c0.812,0.896,1.217,1.957,1.217,3.186
		c0,1.23-0.428,2.308-1.287,3.229c-0.856,0.921-1.961,1.381-3.307,1.381c-1.354,0-2.459-0.46-3.316-1.381
		c-0.858-0.923-1.288-1.999-1.288-3.229c0-1.224,0.405-2.28,1.221-3.178C92.688,114.811,93.814,114.316,95.18,114.316z
		 M95.174,115.427c-0.943,0-1.752,0.349-2.43,1.046c-0.68,0.695-1.016,1.541-1.016,2.527c0,0.639,0.149,1.234,0.463,1.783
		c0.307,0.551,0.727,0.977,1.252,1.275c0.524,0.297,1.104,0.449,1.729,0.449c0.629,0,1.205-0.15,1.731-0.449
		c0.527-0.301,0.943-0.727,1.253-1.275c0.311-0.553,0.465-1.146,0.465-1.783c0-0.986-0.34-1.83-1.021-2.527
		C96.924,115.775,96.113,115.427,95.174,115.427z"/>
	<path display="inline" fill="#79CCCA" d="M107.33,111.143v1.107c-0.416-0.178-0.773-0.27-1.07-0.27
		c-0.221,0-0.404,0.047-0.553,0.135c-0.145,0.09-0.236,0.193-0.273,0.309c-0.037,0.116-0.057,0.426-0.057,0.928v1.191h1.84v0.98
		h-1.842l-0.008,7.834h-1.133v-7.834h-1.16v-0.98h1.16v-1.378c0-0.634,0.057-1.082,0.172-1.353c0.117-0.271,0.312-0.488,0.592-0.652
		c0.279-0.166,0.615-0.248,1.01-0.248C106.375,110.914,106.816,110.988,107.33,111.143z"/>
	<path display="inline" fill="#DD5D82" d="M111.129,110.914c0.258,0,0.479,0.093,0.662,0.275c0.184,0.184,0.273,0.402,0.273,0.664
		c0,0.254-0.09,0.473-0.273,0.654c-0.184,0.186-0.404,0.276-0.662,0.276c-0.254,0-0.471-0.095-0.654-0.276
		c-0.183-0.182-0.272-0.4-0.272-0.654c0-0.262,0.09-0.48,0.272-0.664C110.658,111.007,110.875,110.914,111.129,110.914z
		 M110.566,114.545h1.135v8.814h-1.135V114.545z"/>
	<path display="inline" fill="#90278E" d="M115.713,111.143h1.137v12.217h-1.137V111.143z"/>
	<path display="inline" fill="#64BB46" d="M128.455,120.436l0.955,0.502c-0.311,0.615-0.674,1.113-1.086,1.492
		c-0.408,0.377-0.871,0.668-1.387,0.86c-0.517,0.198-1.099,0.298-1.744,0.298c-1.439,0-2.562-0.473-3.373-1.415
		c-0.812-0.94-1.217-2.009-1.217-3.196c0-1.119,0.344-2.115,1.028-2.99c0.871-1.113,2.035-1.67,3.494-1.67
		c1.504,0,2.705,0.57,3.604,1.709c0.639,0.809,0.963,1.812,0.973,3.016h-7.932c0.02,1.025,0.348,1.863,0.979,2.521
		c0.631,0.653,1.414,0.981,2.347,0.981c0.446,0,0.887-0.078,1.311-0.233c0.424-0.156,0.785-0.363,1.082-0.621
		S128.109,121.01,128.455,120.436z M128.455,118.061c-0.15-0.604-0.371-1.088-0.66-1.449c-0.289-0.363-0.674-0.653-1.148-0.879
		c-0.477-0.221-0.975-0.33-1.5-0.33c-0.867,0-1.61,0.279-2.231,0.837c-0.453,0.403-0.799,1.013-1.031,1.821H128.455L128.455,118.061
		z"/>
	<g id="Layer_2" display="inline">
	</g>
</g>
<g id="Layer_4">
</g>
<g id="Layer_3">
	<g id="Layer_1_1_">
		
			<linearGradient id="SVGID_1_" gradientUnits="userSpaceOnUse" x1="696.5176" y1="-1058.1787" x2="730.8574" y2="-1058.1787" gradientTransform="matrix(1 0 0 -1 -693 -1036.5586)">
			<stop  offset="0" style="stop-color:#FFDD15"/>
			<stop  offset="0.1467" style="stop-color:#F6921E"/>
			<stop  offset="0.3114" style="stop-color:#EC1C24"/>
			<stop  offset="0.4607" style="stop-color:#EC297B"/>
			<stop  offset="0.6641" style="stop-color:#90278E"/>
			<stop  offset="0.6919" style="stop-color:#8C2B91"/>
			<stop  offset="0.7222" style="stop-color:#7E379A"/>
			<stop  offset="0.7538" style="stop-color:#694CA8"/>
			<stop  offset="0.7862" style="stop-color:#4A68BD"/>
			<stop  offset="0.8189" style="stop-color:#238CD7"/>
			<stop  offset="0.8439" style="stop-color:#00ADEE"/>
			<stop  offset="1" style="stop-color:#29B473"/>
		</linearGradient>
		
			<polygon opacity="0.7" fill="#A9A8A8" stroke="url(#SVGID_1_)" stroke-width="0.5" stroke-miterlimit="10" enable-background="new    " points="
			12.248,36.24 3.807,21.619 12.248,7 29.128,7 37.569,21.619 29.128,36.24 		"/>
		<path opacity="0.7" fill="#90278E" enable-background="new    " d="M72.417,15.4h1.33l4.054,9.448l4.12-9.448h1.328L77.932,27.63
			h-0.27L72.417,15.4z"/>
		<path fill="#79CCCA" d="M87.473,14.861c0.269,0,0.494,0.094,0.68,0.28c0.188,0.188,0.281,0.415,0.281,0.683
			c0,0.262-0.094,0.485-0.281,0.674c-0.186,0.188-0.411,0.283-0.68,0.283c-0.26,0-0.481-0.094-0.671-0.283
			c-0.188-0.188-0.28-0.412-0.28-0.674c0-0.268,0.095-0.494,0.28-0.683C86.988,14.955,87.213,14.861,87.473,14.861z M86.896,18.584
			h1.164v9.047h-1.164V18.584z"/>
		<path opacity="0.9" fill="#F5841F" enable-background="new    " d="M92.426,27.631V15.093h1.165v5.049
			c0.487-0.599,1.033-1.048,1.636-1.344c0.604-0.298,1.267-0.446,1.984-0.446c1.28,0,2.373,0.465,3.277,1.393
			c0.904,0.93,1.357,2.056,1.357,3.381c0,1.309-0.457,2.426-1.369,3.351c-0.914,0.927-2.015,1.392-3.3,1.392
			c-0.735,0-1.403-0.158-2.001-0.477c-0.6-0.314-1.126-0.789-1.587-1.422v1.664L92.426,27.631L92.426,27.631z M97.082,26.74
			c0.646,0,1.245-0.158,1.793-0.479c0.546-0.319,0.982-0.766,1.307-1.344c0.323-0.576,0.485-1.187,0.485-1.827
			c0-0.642-0.163-1.257-0.49-1.839c-0.325-0.584-0.763-1.034-1.313-1.359c-0.549-0.324-1.139-0.484-1.764-0.484
			c-0.635,0-1.24,0.16-1.812,0.484c-0.571,0.325-1.011,0.76-1.317,1.309s-0.459,1.168-0.459,1.855c0,1.047,0.346,1.921,1.031,2.626
			C95.229,26.39,96.077,26.74,97.082,26.74z"/>
		<path fill="#EC3793" d="M113.454,24.63l0.981,0.516c-0.322,0.634-0.693,1.142-1.115,1.529c-0.422,0.391-0.896,0.687-1.424,0.886
			c-0.526,0.202-1.123,0.305-1.789,0.305c-1.478,0-2.631-0.481-3.463-1.451c-0.832-0.967-1.246-2.061-1.246-3.278
			c0-1.147,0.353-2.171,1.057-3.065c0.893-1.142,2.09-1.716,3.586-1.716c1.543,0,2.773,0.585,3.695,1.754
			c0.652,0.827,0.988,1.858,0.998,3.095h-8.139c0.021,1.053,0.355,1.912,1.008,2.584c0.646,0.674,1.448,1.006,2.402,1.006
			c0.459,0,0.91-0.077,1.348-0.24c0.436-0.157,0.807-0.372,1.109-0.639C112.771,25.647,113.1,25.22,113.454,24.63z M113.454,22.192
			c-0.152-0.62-0.382-1.118-0.679-1.487c-0.297-0.371-0.688-0.67-1.178-0.896c-0.49-0.229-1.005-0.341-1.539-0.341
			c-0.89,0-1.654,0.286-2.291,0.855c-0.467,0.416-0.817,1.041-1.059,1.871h6.743L113.454,22.192L113.454,22.192z"/>
		<path fill="#2DCB00" d="M123.326,19.572l-0.75,0.774c-0.623-0.604-1.229-0.907-1.823-0.907c-0.381,0-0.702,0.125-0.974,0.374
			c-0.271,0.252-0.401,0.541-0.401,0.876c0,0.292,0.108,0.573,0.331,0.84c0.223,0.271,0.691,0.588,1.402,0.953
			c0.865,0.451,1.453,0.881,1.768,1.299c0.305,0.422,0.456,0.896,0.456,1.422c0,0.742-0.263,1.373-0.783,1.89
			c-0.52,0.516-1.174,0.772-1.956,0.772c-0.521,0-1.021-0.113-1.494-0.343c-0.476-0.226-0.869-0.54-1.179-0.938l0.731-0.832
			c0.594,0.674,1.225,1.008,1.891,1.008c0.469,0,0.866-0.15,1.191-0.451c0.328-0.299,0.492-0.648,0.492-1.057
			c0-0.336-0.108-0.631-0.326-0.891c-0.217-0.254-0.702-0.576-1.465-0.964c-0.82-0.423-1.375-0.836-1.668-1.245
			c-0.295-0.41-0.44-0.88-0.44-1.404c0-0.688,0.233-1.26,0.7-1.717c0.471-0.453,1.062-0.681,1.781-0.681
			C121.645,18.352,122.482,18.761,123.326,19.572z"/>
	</g>
</g>
</svg>
