<?xml version="1.0" encoding="utf-8"?>
<!-- Generator: Adobe Illustrator 16.0.4, SVG Export Plug-In . SVG Version: 6.00 Build 0)  -->
<!DOCTYPE svg PUBLIC "-//W3C//DTD SVG 1.1//EN" "http://www.w3.org/Graphics/SVG/1.1/DTD/svg11.dtd">
<svg version="1.1" id="Layer_1" xmlns="http://www.w3.org/2000/svg" xmlns:xlink="http://www.w3.org/1999/xlink" x="0px" y="0px"
	 width="199.975px" height="442.945px" viewBox="0 0 199.975 442.945" enable-background="new 0 0 199.975 442.945"
	 xml:space="preserve">
    
<rect fill="#FFFFFF" width="199.975" height="442.945"/>
<g>
	<polygon id="Yellow" fill="#F5EB30" points="32.362,60.103 16.987,33.472 32.362,6.842 63.112,6.842 78.487,33.472 63.112,60.103 	
		"/>
	<text id="Text_4_" transform="matrix(1 0 0 1 26.8877 74.9722)"><tspan x="0" y="0" fill="#B5B6B6" font-family="'CenturyGothic'" font-size="12">Happy</tspan><tspan x="6.193" y="14.4" fill="#B5B6B6" font-family="'CenturyGothic'" font-size="12">Vibe</tspan></text>
	<path class="Expression_2"> 
		<ellipse fill="#FFFFFF" cx="41.671" cy="22.687" rx="5.888" ry="6.862"/>
		<ellipse fill="#FFFFFF" cx="54.759" cy="22.687" rx="5.888" ry="6.862"/>
		<path opacity="0.1" d="M38.058,14.5c0,0,2.918-4.572,5.609-1.945"/>
		<path opacity="0.1" d="M58.279,13.421c0,0-3.597-4.339-6.07-1.806"/>
		<path fill="#565656" d="M35.673,20.959c0,0,0.737-5.134,5.759-5.134c5.022,0,6.236,4.757,6.236,4.757s-1.912-4.071-6.236-4.071
			C37.109,16.511,35.673,20.959,35.673,20.959z"/>
		<path fill="#565656" d="M48.761,20.959c0,0,0.737-5.134,5.759-5.134s6.236,4.757,6.236,4.757s-1.912-4.071-6.236-4.071
			C50.197,16.511,48.761,20.959,48.761,20.959z"/>
		<ellipse fill="#F6EC13" cx="41.304" cy="24.57" rx="4.775" ry="5.133"/>
		<ellipse fill="#F6EC13" cx="55.236" cy="24.57" rx="4.775" ry="5.133"/>
		<circle fill="#565656" cx="41.431" cy="23.605" r="3.063"/>
		<circle fill="#565656" cx="54.758" cy="23.605" r="3.035"/>
		<ellipse fill="#FFFFFF" cx="39.589" cy="21.823" rx="0.597" ry="0.864"/>
		<ellipse fill="#FFFFFF" cx="56.772" cy="21.435" rx="0.597" ry="0.864"/>
		<path opacity="0.4" fill="none" stroke="#000000" stroke-miterlimit="10" d="M31.076,26.49c0,0,8.13,14.605,18.009,14.605
			c9.878,0,18.387-14.605,18.387-14.605"/>
		<path opacity="0.4" fill="none" stroke="#000000" stroke-miterlimit="10" d="M33.065,24.999c0,0-3.44,2.311-3.44,4.073"/>
		<path opacity="0.4" fill="none" stroke="#000000" stroke-miterlimit="10" d="M66.021,24.999c0,0,3.44,2.311,3.44,4.073"/>
		<path fill="#FBEE29" d="M51.885,28.676c0,0,8.761-1.602,8.761-4.645s1.739,3.805,0.899,4.645c-0.84,0.84-3.998,2.993-5.37,2.993
			C54.804,31.668,51.885,28.676,51.885,28.676z"/>
		<path fill="#EEE935" d="M44.668,28.655c0,0-8.761-1.602-8.761-4.645c0-3.043-1.74,3.805-0.899,4.645
			c0.84,0.84,3.998,2.992,5.37,2.992C41.75,31.647,44.668,28.655,44.668,28.655z"/>
                 <animate
            attributeName="Expression_2"
            from="1sec"
            to="3sec"
            dur="2sec"
            repeatCount="3"
        ></animate>
	
       
        </path>
</g>
<g id="Relaxed_Vibe">
	<polygon id="Orange" fill="#F68521" points="136.862,60.103 121.487,33.472 136.862,6.842 167.612,6.842 182.987,33.472 
		167.612,60.103 	"/>
	<text id="Text_3_" transform="matrix(1 0 0 1 129.7568 74.9722)"><tspan x="0" y="0" fill="#B5B6B6" font-family="'CenturyGothic'" font-size="12">Relaxed</tspan><tspan x="10.324" y="14.4" fill="#B5B6B6" font-family="'CenturyGothic'" font-size="12">Vibe</tspan></text>
	<g id="Expression_1_">
		<path fill="none" stroke="#000000" stroke-miterlimit="10" d="M159.069,39.828c0,0,5.58,1.064,5.58-5.922"/>
		<path d="M137.191,12.312c0,0,1.72-3.871,3.978-3.871"/>
		<path d="M166.954,12.312c0,0-1.72-3.871-3.978-3.871"/>
          <animateTransform
            attributeName="transform"
            begin="0s"
            dur="3s"
            type="opacity"  
            from="0"
            to="100%"
            repeatCount="indefinite" 
        />
		<g>
			<circle fill="#FFFFFF" cx="140.922" cy="18.84" r="5.5"/>
			<g>
				<ellipse fill="#F6851F" cx="141.081" cy="17.905" rx="3.167" ry="3.405"/>
				<circle fill="#565656" cx="141.164" cy="17.265" r="2.032"/>
				<ellipse fill="#FFFFFF" cx="139.943" cy="16.083" rx="0.396" ry="0.573"/>
			</g>
			<path fill="#565656" d="M135.05,18.427c0,0,0.73-5.876,5.703-5.876c4.973,0,6.175,5.445,6.175,5.445s-1.894-4.659-6.175-4.659
				C136.473,13.337,135.05,18.427,135.05,18.427z"/>
		</g>
		<g>
			<circle fill="#FFFFFF" cx="164.53" cy="18.625" r="5.5"/>
			<g>
				<ellipse fill="#F6851F" cx="165.195" cy="17.69" rx="3.167" ry="3.405"/>
				<circle fill="#565656" cx="165.279" cy="17.05" r="2.032"/>
				<ellipse fill="#FFFFFF" cx="164.057" cy="15.868" rx="0.396" ry="0.573"/>
			</g>
			<path fill="#565656" d="M170.469,18.617c0,0-0.73-5.877-5.702-5.877c-4.973,0-6.175,5.445-6.175,5.445s1.894-4.659,6.175-4.659
				C169.047,13.526,170.469,18.617,170.469,18.617z"/>
		</g>
		<g>
			<path d="M129.918,16.584l-1.009,1.512c0,0,2.522,2.648,2.522,5.044c0,2.396,3.026,8.322,8.573,8.322
				c5.547,0,9.708-1.893,10.086-5.549s1.512-4.034,1.512-4.034h2.27c0,0,1.64,2.27,1.64,4.034c0,1.766,3.152,7.566,10.213,5.549
				c7.061-2.018,8.447-4.666,8.447-8.069c0-3.405,1.512-4.036,2.27-5.169c0.756-1.135,0-1.639,0-1.639H162.32
				c0,0-5.547,2.521-6.43,2.521c-0.882,0-5.042,0-5.042,0s-4.288-2.521-6.43-2.521C142.274,16.584,129.918,16.584,129.918,16.584z"
				/>
			<path fill="#FFFFFF" d="M136.234,19.635c0,0-4.095,2.372-1.869,4.598c2.226,2.226-1.035-0.089,0.603-1.727
				C136.607,20.868,136.234,19.635,136.234,19.635z"/>
			<path fill="#FFFFFF" d="M158.758,26.462c0,0,0.431,2.945,2.155,2.945c1.725,0,3.018,0,3.018,0s-1.563,0.124-2.587-0.899
				C160.321,27.484,158.758,26.462,158.758,26.462z"/>
			<path fill="#FFFFFF" d="M147.873,26.083c0,0-0.432,2.945-2.155,2.945c-1.724,0-3.018,0-3.018,0s1.563,0.125,2.587-0.899
				C146.311,27.105,147.873,26.083,147.873,26.083z"/>
			<path fill="#FFFFFF" d="M165.333,19.635c0,0,6.875-0.128,7.002,0s1.18,1.925,0,2.758c-1.182,0.833-0.751-1.408-2.26-1.408
				C168.565,20.986,165.333,19.635,165.333,19.635z"/>
		</g>
	</g>
</g>
<g id="Love_Vibe">
	<polygon id="Pink" fill="#E30E89" points="32.362,177.472 16.987,150.842 32.362,124.211 63.112,124.211 78.487,150.842 
		63.112,177.472 	"/>
	<text id="Text_2_" transform="matrix(1 0 0 1 32.5625 195.4722)"><tspan x="0" y="0" fill="#B5B6B6" font-family="'CenturyGothic'" font-size="12">Love</tspan><tspan x="0.519" y="14.4" fill="#B5B6B6" font-family="'CenturyGothic'" font-size="12">Vibe</tspan></text>
	<g id="Expression">
		
			<ellipse transform="matrix(0.9999 -0.0121 0.0121 0.9999 -1.6729 0.504)" fill="#FFFFFF" cx="40.938" cy="138.913" rx="5.909" ry="6.011"/>
		
			<ellipse transform="matrix(0.9999 -0.0121 0.0121 0.9999 -1.6659 0.6767)" fill="#FFFFFF" cx="55.069" cy="137.946" rx="5.909" ry="6.012"/>
		<path fill="#4A3E4D" d="M37.957,130.513c0,0,2.826-4.428,5.433-1.884"/>
		<path fill="#4A3E4D" d="M57.542,129.468c0,0-3.484-4.203-5.88-1.749"/>
		<path fill="#E10687" d="M44.402,135.75c-0.115-0.036-0.223-0.064-0.326-0.085c-0.821-0.173-1.289,0.099-1.853,0.542
			c-0.338-0.632-0.658-1.069-1.478-1.241c-0.104-0.022-0.213-0.039-0.332-0.053c-0.726-0.081-1.684,0.398-2.045,1.624l-0.087,0.415
			c-0.157,1.212,0.434,2.873,2.679,5.273c3.02-1.295,4.23-2.577,4.574-3.75l0.087-0.416
			C45.783,136.792,45.098,135.968,44.402,135.75z"/>
		<path fill="#E10687" d="M55.043,134.302c-0.116,0.03-0.224,0.062-0.321,0.097c-0.791,0.283-1.049,0.758-1.298,1.431
			c-0.618-0.362-1.119-0.568-1.908-0.286c-0.1,0.035-0.202,0.078-0.312,0.128c-0.66,0.311-1.227,1.219-0.895,2.453l0.142,0.399
			c0.501,1.116,1.872,2.223,5.039,3.097c1.899-2.682,2.261-4.408,1.941-5.587l-0.143-0.399
			C56.764,134.468,55.751,134.125,55.043,134.302z"/>
		<path opacity="0.2" fill="#FFFFFF" d="M35.174,140.238c0,0,0.946,4.685,5.837,4.685c4.889,0,5.688-4.685,5.688-4.685
			s-2.816,3.312-5.763,3.312C37.991,143.551,35.174,140.238,35.174,140.238z"/>
		<path fill="#4A3E4D" d="M35.108,137.761c0,0,0.714-4.973,5.578-4.973c4.864,0,6.04,4.608,6.04,4.608s-1.852-3.942-6.04-3.942
			C36.499,133.454,35.108,137.761,35.108,137.761z"/>
		<path fill="#4A3E4D" d="M49.16,137.377c0,0,0.55-5.44,5.91-5.44c5.358,0,5.909,5.44,5.909,5.44s-1.949-4.834-5.909-4.834
			C51.108,132.542,49.16,137.377,49.16,137.377z"/>
		<g>
			<path fill="#D70D87" d="M33.109,143.258c0,0,2.842-0.131,7.669,0.367c4.827,0.498,5.852,1.999,5.852,1.999l-6.07,0.109
				L33.109,143.258z"/>
			<path fill="#D70D87" d="M63.521,141.188c0,0-2.83,0.302-7.524,1.529c-4.696,1.227-5.48,2.867-5.48,2.867l6.016-0.816
				L63.521,141.188z"/>
		</g>
		<path fill="#FFFFFF" d="M41.417,136.202c0,0-0.257-0.927-1.247-0.927c-0.989,0-1.369,1.487-1.369,1.487s0.287-0.744,1.308-0.744
			C41.131,136.019,41.417,136.202,41.417,136.202z"/>
		<path fill="#FFFFFF" d="M56.489,135.584c0,0-0.256-0.927-1.246-0.927s-1.371,1.488-1.371,1.488s0.286-0.744,1.308-0.744
			S56.489,135.584,56.489,135.584z"/>
		<g>
			<path fill="none" stroke="#4A3E4D" stroke-width="0.5" stroke-miterlimit="10" d="M31.887,143.893c0,0,1.567,10.37,16.525,10.37
				s15.051-10.37,15.051-10.37"/>
			<path fill="none" stroke="#4A3E4D" stroke-width="0.5" stroke-miterlimit="10" d="M29.27,145.855c0,0,2.928-2.741,4.547-2.741"/>
			<path fill="none" stroke="#4A3E4D" stroke-width="0.5" stroke-miterlimit="10" d="M66.205,145.419c0,0-2.43-1.931-4.61-1.931"/>
		</g>
		<path opacity="0.1" fill="#4A3E4D" d="M39.869,154.202c0,0,4.826,1.743,8.574,1.743s7.796-1.743,7.796-1.743
			s-4.37,4.171-7.729,3.674C45.153,157.378,39.869,154.202,39.869,154.202z"/>
		<path opacity="0.2" fill="#FFFFFF" d="M37.539,151.975c0,0,4.479,2.569,10.904,2.569s10.209-2.569,10.209-2.569
			s-5.013,3.784-10.142,3.784C43.382,155.758,37.539,151.975,37.539,151.975z"/>
	</g>
</g>
<g id="Bored_Vibe">
	<polygon id="Purple" fill="#A555A1" points="136.862,177.472 121.487,150.842 136.862,124.211 167.612,124.211 182.987,150.842 
		167.612,177.472 	"/>
	<text id="Text_1_" transform="matrix(1 0 0 1 135.0488 195.4722)"><tspan x="0" y="0" fill="#B5B6B6" font-family="'CenturyGothic'" font-size="12">Bored</tspan><tspan x="3.782" y="14.4" fill="#B5B6B6" font-family="'CenturyGothic'" font-size="12">Vibe</tspan></text>
	<g id="Expresssion">
		<ellipse opacity="0.3" fill="#010101" cx="142.998" cy="142.382" rx="8.166" ry="9.238"/>
		<ellipse opacity="0.3" fill="#010101" cx="161.625" cy="142.382" rx="8.167" ry="9.238"/>
		<g>
			<ellipse opacity="0.1" fill="#FFFFFF" cx="143.268" cy="142.49" rx="9.242" ry="10.292"/>
			<ellipse opacity="0.1" fill="#FFFFFF" cx="161.706" cy="142.49" rx="9.243" ry="10.292"/>
		</g>
		<path fill="#FFFFFF" stroke="#753E78" stroke-miterlimit="10" d="M136.359,140.73c0,0,0,8.667,7.313,8.667
			s7.313-8.667,7.313-8.667H136.359z"/>
		<path fill="#FFFFFF" stroke="#773D78" stroke-miterlimit="10" d="M153.8,140.73c0,0,0,8.667,7.313,8.667
			c7.313,0,7.313-8.667,7.313-8.667H153.8z"/>
		<ellipse fill="#A355A1" cx="141.486" cy="141.411" rx="4.489" ry="3.212"/>
		<ellipse fill="#A355A1" cx="159.245" cy="141.411" rx="4.448" ry="3.212"/>
		<ellipse fill="#060505" cx="141.396" cy="141.891" rx="3.488" ry="2.152"/>
		<ellipse fill="#060505" cx="159.238" cy="141.891" rx="3.325" ry="2.152"/>
		
			<ellipse transform="matrix(0.0068 1 -1 0.0068 281.1214 -0.1839)" fill="#FFFFFF" cx="140.653" cy="141.427" rx="1.006" ry="0.742"/>
		
			<ellipse transform="matrix(0.0068 1 -1 0.0068 298.6577 -17.8398)" fill="#FFFFFF" cx="158.31" cy="141.427" rx="1.006" ry="0.73"/>
		<g>
			<path fill="#8F4D91" d="M153.378,141.9h16.655c0,0-0.501-8.842-8.327-8.842S153.378,141.9,153.378,141.9z"/>
			<path fill="#8F4D91" d="M134.67,141.9h16.655c0,0-0.502-8.842-8.328-8.842S134.67,141.9,134.67,141.9z"/>
		</g>
		<ellipse opacity="0.1" fill="#FFFFFF" cx="151.176" cy="153.961" rx="1.219" ry="1.342"/>
		<ellipse opacity="0.1" fill="#FFFFFF" cx="153.578" cy="153.961" rx="1.219" ry="1.342"/>
		<ellipse fill="#010101" cx="151.291" cy="153.764" rx="0.776" ry="0.855"/>
		<ellipse fill="#010101" cx="153.509" cy="153.764" rx="0.767" ry="0.855"/>
		<path fill="none" stroke="#010101" stroke-miterlimit="10" d="M151.441,161.513c0.25-0.423,0.728-0.738,1.112-1.017
			c0.318-0.229,0.504-0.292,0.9-0.291c0.395,0.001,0.685,0.006,1.056,0.129c0.28,0.094,0.608,0.228,0.862,0.381"/>
		<path opacity="0.3" fill="none" stroke="#010101" stroke-miterlimit="10" d="M134.508,141.9c0,0,0.369-8.842,8.599-8.842
			s8.058,8.842,8.058,8.842"/>
		<path opacity="0.3" fill="none" stroke="#010101" stroke-miterlimit="10" d="M153.297,141.9c0,0,0.369-8.842,8.599-8.842
			c8.229,0,8.057,8.842,8.057,8.842"/>
	</g>
</g>
<g id="Angry_Vibes">
	<polygon id="Red" fill="#C72128" points="32.362,288.103 16.987,261.472 32.362,234.842 63.112,234.842 78.487,261.472 
		63.112,288.103 	"/>
	<text id="Text" transform="matrix(1 0 0 1 29.3311 306.9722)"><tspan x="0" y="0" fill="#B5B6B6" font-family="'CenturyGothic'" font-size="12">Angry</tspan><tspan x="3.75" y="14.4" fill="#B5B6B6" font-family="'CenturyGothic'" font-size="12">Vibe</tspan></text>
	<g id="expression">
		<path d="M40.376,272.203c0,0,3.981-3.931,7.374-3.931c3.393,0,7.374,3.655,7.374,3.655s-3.635-4.509-7.374-4.509
			s-7.374,4.509-7.374,4.509"/>
		<g>
			<path opacity="0.8" d="M45.99,250.962c0,0,0.17-2.277-1.088-3.535c-1.258-1.258-4.759-4.011-8.158-4.011
				c-3.399,0-3.739,1.02-3.059,1.7c0.68,0.68,5.745,1.189,7.479,2.923C42.897,249.773,45.99,250.962,45.99,250.962z"/>
			<ellipse cx="41.885" cy="253.342" rx="3.637" ry="4.895"/>
			<path opacity="0.6" d="M38.32,254.402c0,0,0.717,3.834,3.541,3.834s3.575-3.834,3.575-3.834s-1.445,3.217-3.575,3.217
				S38.32,254.402,38.32,254.402z"/>
			<path opacity="0.1" fill="#FFFFFF" d="M38.32,254.402c0,0,0.257,4.437,3.558,4.437c3.301,0,3.558-4.437,3.558-4.437
				s-0.759,3.834-3.575,3.834C39.044,258.236,38.32,254.402,38.32,254.402z"/>
			<ellipse opacity="0.2" fill="#FFFFFF" cx="41.937" cy="253.357" rx="1.777" ry="3.233"/>
			<path fill="#C32126" d="M38.579,251.628c0,0,0.762-3.009,3.357-3.009s3.357,3.009,3.357,3.009s-0.835-1.889-3.306-1.889
				S38.579,251.628,38.579,251.628z"/>
			<circle fill="#FFFFFF" cx="41.936" cy="253.342" r="0.371"/>
		</g>
		<g>
			<path opacity="0.8" d="M50.33,251.175c0,0-0.169-2.277,1.088-3.536c1.258-1.257,4.759-4.011,8.159-4.011
				c3.399,0,3.739,1.021,3.059,1.7c-0.679,0.68-5.744,1.19-7.478,2.923C53.424,249.985,50.33,251.175,50.33,251.175z"/>
			<ellipse cx="54.248" cy="253.554" rx="3.637" ry="4.895"/>
			<path opacity="0.6" d="M50.689,254.614c0,0,0.717,3.834,3.541,3.834c2.823,0,3.575-3.834,3.575-3.834s-1.445,3.217-3.575,3.217
				S50.689,254.614,50.689,254.614z"/>
			<path opacity="0.1" fill="#FFFFFF" d="M50.689,254.614c0,0,0.257,4.438,3.558,4.438c3.302,0,3.558-4.438,3.558-4.438
				s-0.759,3.834-3.575,3.834C51.415,258.448,50.689,254.614,50.689,254.614z"/>
			<ellipse opacity="0.2" fill="#FFFFFF" cx="54.247" cy="253.57" rx="1.778" ry="3.233"/>
			<path fill="#C32126" d="M50.89,251.841c0,0,0.762-3.009,3.357-3.009c2.596,0,3.358,3.009,3.358,3.009s-0.836-1.89-3.307-1.89
				C51.828,249.951,50.89,251.841,50.89,251.841z"/>
			<circle fill="#FFFFFF" cx="54.247" cy="253.554" r="0.371"/>
		</g>
	</g>
</g>
<g id="Embarrassed_Vibe">
	<polygon id="Blush" fill="#DB6081" points="136.862,288.103 121.487,261.472 136.862,234.842 167.612,234.842 182.987,261.472 
		167.612,288.103 	"/>
	<text id="Text_7_" transform="matrix(1 0 0 1 114.8252 306.9722)"><tspan x="0" y="0" fill="#B5B6B6" font-family="'CenturyGothic'" font-size="12">Embarrassed</tspan><tspan x="24.006" y="14.4" fill="#B5B6B6" font-family="'CenturyGothic'" font-size="12">Vibe</tspan></text>
	<g id="Expression_5_">
		<path fill="#565656" d="M137.98,241.094c0,0,2.152-4.353,9.293-4.353"/>
		<path fill="#565656" d="M165.12,240.534c0,0-2.152-4.353-9.293-4.353"/>
		<circle opacity="0.3" fill="#D81E41" cx="136.163" cy="264.36" r="9.819"/>
		<circle opacity="0.3" fill="#D81E41" cx="137.526" cy="262.24" r="8.315"/>
		<circle opacity="0.3" fill="#D81E41" cx="167.311" cy="262.24" r="8.315"/>
		<circle opacity="0.3" fill="#D81E41" cx="168.419" cy="264.36" r="9.819"/>
		<circle fill="#FFFFFF" cx="163.056" cy="255.799" r="8.039"/>
		<path fill="#565656" d="M155.041,254.915c0,0,1.044-7.156,8.039-7.156c6.996,0,7.991,7.156,7.991,7.156s-2.154-6.469-7.991-6.469
			C157.244,248.446,155.041,254.915,155.041,254.915z"/>
		<circle fill="#565656" cx="163.055" cy="255.799" r="1.546"/>
		<path opacity="0.1" fill="#FFFFFF" d="M155.285,260.571c0,0,4.127,4.714,8.015,4.714c3.889,0,7.526-4.714,7.526-4.714
			s-2.792,5.927-7.526,5.927C158.567,266.498,155.285,260.571,155.285,260.571z"/>
		<path opacity="0.4" fill="#FFFFFF" d="M161.958,255.999c0,0,0.105,1.09,1.146,1.09c1.042,0,1.048-1.09,1.048-1.09
			s-0.298,0.545-1.097,0.545C162.257,256.543,161.958,255.999,161.958,255.999z"/>
		<circle fill="#FFFFFF" cx="142.156" cy="255.799" r="8.039"/>
		<path fill="#565656" d="M134.116,254.915c0,0,1.044-7.156,8.039-7.156c6.995,0,7.991,7.156,7.991,7.156s-2.154-6.469-7.991-6.469
			C136.319,248.446,134.116,254.915,134.116,254.915z"/>
		<circle fill="#565656" cx="142.448" cy="255.799" r="1.412"/>
		<path opacity="0.1" fill="#FFFFFF" d="M134.116,260.571c0,0,4.126,4.714,8.015,4.714c3.888,0,7.526-4.714,7.526-4.714
			s-2.792,5.927-7.526,5.927C137.397,266.498,134.116,260.571,134.116,260.571z"/>
		<path opacity="0.4" fill="#FFFFFF" d="M141.402,255.799c0,0,0.096,0.995,1.046,0.995s0.957-0.995,0.957-0.995
			s-0.272,0.498-1.002,0.498C141.674,256.297,141.402,255.799,141.402,255.799z"/>
		<path opacity="0.4" d="M156.569,277.477c0,0.45-0.365,0.815-0.815,0.815h-6.141c-0.451,0-0.815-0.365-0.815-0.815l0,0
			c0-0.45,0.365-0.815,0.815-0.815h6.141C156.204,276.661,156.569,277.026,156.569,277.477L156.569,277.477z"/>
	</g>
</g>
<g id="Sad_vibe">
	<polygon id="Blue" fill="#6BCCE3" points="32.362,397.603 16.987,370.972 32.362,344.342 63.112,344.342 78.487,370.972 
		63.112,397.603 	"/>
	<text id="Text_6_" transform="matrix(1 0 0 1 35.29 415.4722)"><tspan x="0" y="0" fill="#B5B6B6" font-family="'CenturyGothic'" font-size="12">Sad</tspan><tspan x="-2.209" y="14.4" fill="#B5B6B6" font-family="'CenturyGothic'" font-size="12">Vibe</tspan></text>
	<g id="Expression_4_">
		<circle fill="#FFFFFF" cx="61.296" cy="366.974" r="0.825"/>
		<path fill="#565656" d="M67.099,359.301c0,0-0.652,5.217-6.196,5.217c-5.544,0-7.663-5.217-7.663-5.217s3.75,2.608,7.336,2.608
			S67.099,359.301,67.099,359.301z"/>
		<ellipse fill="#010101" cx="37.018" cy="364.068" rx="6.63" ry="9.901"/>
		<ellipse fill="#010101" cx="58.197" cy="363.035" rx="6.629" ry="9.902"/>
		<path fill="#FFFFFF" d="M37.701,362.28c0,0-3.075,0.248-3.075,1.786c0,1.538,0.198,1.042,1.24,0
			C36.908,363.024,37.701,362.28,37.701,362.28z"/>
		<path fill="#FFFFFF" d="M60.471,362.28c0,0-3.076,0.248-3.076,1.786c0,1.538,0.199,1.042,1.24,0
			C59.678,363.024,60.471,362.28,60.471,362.28z"/>
		<path fill="#69CCE1" d="M44.35,351.565c0,0-14.355,16.015-18.9,11.47c-4.545-4.544,3.461-4.44,7.888-8.868
			c4.426-4.427,5.357-5.728,8.929-5.728s3.274,3.883,3.274,4.695S44.35,351.565,44.35,351.565z"/>
		<path fill="#69CCE1" d="M50.943,351.565c0,0,14.355,16.015,18.9,11.47c4.545-4.544-3.461-4.44-7.887-8.868
			c-4.427-4.427-5.357-5.728-8.93-5.728c-3.572,0-3.274,3.883-3.274,4.695S50.943,351.565,50.943,351.565z"/>
		<path fill="#69CCE1" d="M24.948,370.757c0,0,4.082-0.189,11.015,0.527c6.933,0.715,8.405,2.872,8.405,2.872l-8.718,0.157
			L24.948,370.757z"/>
		<path fill="#69CCE1" d="M71.402,367.798c0,0-3.966,0.423-10.546,2.143c-6.582,1.72-7.681,4.018-7.681,4.018l8.432-1.143
			L71.402,367.798z"/>
		<path opacity="0.5" fill="#010101" d="M37.569,390.169c0,0,5.334-13.543,10.402-13.543c5.067,0,8.401,9.971,8.401,9.971
			s-2.801-7.888-8.269-7.888C42.636,378.71,37.569,390.169,37.569,390.169z"/>
		<circle fill="#FFFFFF" cx="38.526" cy="366.974" r="0.825"/>
		<path opacity="0.5" fill="#010101" d="M45.546,383.398c0,0,2.694,2.509,5.202,0c2.509-2.508-1.305,1.297-2.601,0
			C46.851,382.102,45.546,383.398,45.546,383.398z"/>
		<path opacity="0.5" fill="#010101" d="M44.35,351.565c0,0-10.666,12.096-16.618,12.096s3.016-0.755,8.309-6.048
			C41.334,352.319,44.35,351.565,44.35,351.565z"/>
		<path opacity="0.5" fill="#010101" d="M50.98,351.565c0,0,10.665,12.096,16.618,12.096c5.953,0-3.016-0.755-8.31-6.048
			C53.996,352.319,50.98,351.565,50.98,351.565z"/>
	</g>
</g>
<g id="Fear_Vibe">
	<polygon id="Green" fill="#6DBA45" points="136.862,397.603 121.487,370.972 136.862,344.342 167.612,344.342 182.987,370.972 
		167.612,397.603 	"/>
	<text id="Text_5_" transform="matrix(1 0 0 1 139.5254 414.9722)"><tspan x="0" y="0" fill="#B5B6B6" font-family="'CenturyGothic'" font-size="12">Fear</tspan><tspan x="-0.694" y="14.4" fill="#B5B6B6" font-family="'CenturyGothic'" font-size="12">Vibe</tspan></text>
	<g id="Expression_3_">
		<path fill="#565656" d="M136.364,347.536c0,0,9.242,0.178,9.242-2.721"/>
		<path fill="#565656" d="M169.109,347.536c0,0-9.241,0.178-9.241-2.721"/>
		<g>
			<ellipse fill="#FFFFFF" cx="144.971" cy="357.406" rx="4.572" ry="6.94"/>
			<circle fill="#565656" cx="145.426" cy="358.19" r="2.95"/>
		</g>
		<g>
			<ellipse fill="#FFFFFF" cx="160.767" cy="357.406" rx="4.572" ry="6.94"/>
			<circle fill="#565656" cx="160.766" cy="358.19" r="2.95"/>
		</g>
		<path fill="#60AF46" d="M139.772,361.459c0,0,6.815,2.856,9.144,0.527c2.33-2.33-2.401,3.477-5.034,3.477
			C141.248,365.463,139.772,361.459,139.772,361.459z"/>
		<path fill="#60AF46" d="M165.404,361.515c0,0-6.814,2.854-9.144,0.527c-2.33-2.331,2.401,3.477,5.034,3.477
			C163.929,365.519,165.404,361.515,165.404,361.515z"/>
		<g>
			<ellipse opacity="0.1" cx="153.031" cy="385.073" rx="5.658" ry="10.923"/>
			<path fill="#FFFFFF" d="M148.917,391.192c0,0,1.575,3.828,4.114,3.828c2.537,0,3.705-3.828,3.705-3.828H148.917z"/>
		</g>
		<path fill="#FFFFFF" d="M170.111,358.301c0,0-2.254,5.441,0,5.441S170.111,358.301,170.111,358.301z"/>
		<path fill="#FFFFFF" d="M136.364,351.354c0,0-2.255,5.443,0,5.443C138.617,356.797,136.364,351.354,136.364,351.354z"/>
	</g>
</g>
</svg>
