<?xml version="1.0" encoding="utf-8"?>
<!-- Generator: Adobe Illustrator 16.0.0, SVG Export Plug-In . SVG Version: 6.00 Build 0)  -->
<!DOCTYPE svg PUBLIC "-//W3C//DTD SVG 1.1//EN" "http://www.w3.org/Graphics/SVG/1.1/DTD/svg11.dtd">
<svg version="1.1" id="Layer_1" xmlns="http://www.w3.org/2000/svg" xmlns:xlink="http://www.w3.org/1999/xlink" x="0px" y="0px"
	 width="222px" height="46.584px" viewBox="0 0 222 46.584" enable-background="new 0 0 222 46.584" xml:space="preserve">
<g id="Layer_6">
	
		<linearGradient id="SVGID_1_" gradientUnits="userSpaceOnUse" x1="1198.4614" y1="2338.0986" x2="1227.8247" y2="2338.0986" gradientTransform="matrix(1 0 0 1 -1195 -2314.5586)">
		<stop  offset="0" style="stop-color:#FFDD15"/>
		<stop  offset="0.1467" style="stop-color:#F6921E"/>
		<stop  offset="0.3114" style="stop-color:#EC1C24"/>
		<stop  offset="0.4607" style="stop-color:#EC297B"/>
		<stop  offset="0.6641" style="stop-color:#90278E"/>
		<stop  offset="0.6919" style="stop-color:#8C2B91"/>
		<stop  offset="0.7222" style="stop-color:#7E379A"/>
		<stop  offset="0.7538" style="stop-color:#694CA8"/>
		<stop  offset="0.7862" style="stop-color:#4A68BD"/>
		<stop  offset="0.8189" style="stop-color:#238CD7"/>
		<stop  offset="0.8439" style="stop-color:#00ADEE"/>
		<stop  offset="1" style="stop-color:#29B473"/>
	</linearGradient>
	<polygon fill="#9E9E9E" stroke="url(#SVGID_1_)" stroke-width="0.5" stroke-miterlimit="10" points="10.947,36.005 3.75,23.538 
		10.947,11.074 25.339,11.074 32.536,23.538 25.339,36.005 	"/>
	<g>
		<path fill="#848484" d="M135.638,16.184h1.159l4.502,12.323h0.021l4.501-12.323h1.061l-5.102,13.863h-1.039L135.638,16.184z"/>
		<path fill="#848484" d="M149.838,16.484h1.119v1.24h-1.119V16.484z M149.857,19.905h1.081v10.142h-1.081V19.905z"/>
		<path fill="#848484" d="M155.079,29.667V15.264h1.08v5.401h0.08c0.801-0.48,1.82-0.94,3.342-0.94c2.1,0,3.979,1.16,3.979,5.062
			v0.239c0,3.42-1.819,5.24-4.94,5.24C157.359,30.267,155.938,30.047,155.079,29.667z M162.42,25.166v-0.319
			c0-3.201-1.18-4.182-3.32-4.182c-1.24,0-2.301,0.48-2.939,0.84v7.383c0.6,0.26,1.379,0.439,2.539,0.439
			C160.799,29.327,162.42,28.228,162.42,25.166z"/>
		<path fill="#848484" d="M166.398,25.104v-0.238c0-3.521,2.021-5.142,4.399-5.142c2.762,0,4.021,1.7,4.021,4.741v0.62h-7.32
			c0,2.921,1.279,4.201,3.84,4.201c1.361,0,2.32-0.32,3.142-0.721v0.819c-0.62,0.4-1.739,0.841-3.301,0.841
			C167.999,30.228,166.398,28.366,166.398,25.104z M167.519,24.206h6.161c0-2.381-0.939-3.581-2.922-3.581
			C169.159,20.625,167.679,21.625,167.519,24.206z"/>
		<path fill="#848484" d="M177.638,29.485v-0.879c0.819,0.359,1.641,0.681,3.081,0.681c1.84,0,2.521-0.761,2.521-1.841
			c0-1.16-0.541-1.58-1.98-2l-1.102-0.32c-1.5-0.42-2.4-1.08-2.4-2.721c0-1.581,1.08-2.681,3.302-2.681c1.3,0,2.16,0.3,2.721,0.6
			v0.899c-0.62-0.3-1.62-0.56-2.661-0.56c-1.56,0-2.34,0.601-2.34,1.66c0,1.04,0.479,1.479,1.74,1.841l1.12,0.318
			c1.841,0.521,2.681,1.121,2.681,2.882c0,1.721-1.16,2.841-3.48,2.841C179.479,30.207,178.397,29.907,177.638,29.485z"/>
	</g>
</g>
</svg>
