<?xml version="1.0" encoding="utf-8"?>
<!-- Generator: Adobe Illustrator 16.0.4, SVG Export Plug-In . SVG Version: 6.00 Build 0)  -->
<!DOCTYPE svg PUBLIC "-//W3C//DTD SVG 1.1//EN" "http://www.w3.org/Graphics/SVG/1.1/DTD/svg11.dtd">
<svg version="1.1" xmlns="http://www.w3.org/2000/svg" xmlns:xlink="http://www.w3.org/1999/xlink" x="0px" y="0px" width="55.78px"
	 height="32.442px" viewBox="0 0 55.78 32.442" enable-background="new 0 0 55.78 32.442" xml:space="preserve">
<g id="Layer_1" display="none">
	
		<image display="inline" overflow="visible" width="100" height="62" xlink:href="pinsIcon.png"  transform="matrix(0.9999 0 0 0.9999 -18.8247 -13.6055)">
	</image>
</g>
<g id="Layer_2">
	<polygon opacity="0.5" fill="#64BB46" points="4.57,15.83 0,7.915 4.57,0 13.71,0 18.28,7.915 13.71,15.83 	"/>
	<polygon opacity="0.5" fill="#79CCCA" points="17.416,15.83 12.846,7.915 17.416,0 26.555,0 31.125,7.915 26.555,15.83 	"/>
	<polygon opacity="0.5" fill="#A15AA3" points="29.225,15.83 24.655,7.915 29.225,0 38.364,0 42.934,7.915 38.364,15.83 	"/>
	<polygon opacity="0.5" fill="#DD5D82" points="42.07,15.83 37.501,7.915 42.07,0 51.21,0 55.78,7.915 51.21,15.83 	"/>
	<polygon opacity="0.5" fill="#EC3793" points="4.57,32.442 0,24.527 4.57,16.612 13.71,16.612 18.279,24.527 13.71,32.442 	"/>
	<polygon opacity="0.5" fill="#C22127" points="17.415,32.442 12.845,24.527 17.415,16.612 26.555,16.612 31.125,24.527 
		26.555,32.442 	"/>
	<polygon opacity="0.5" fill="#F5841F" points="29.225,32.442 24.655,24.527 29.225,16.612 38.364,16.612 42.934,24.527 
		38.364,32.442 	"/>
	<polygon opacity="0.5" fill="#FBED27" points="42.07,32.442 37.5,24.527 42.07,16.612 51.21,16.612 55.78,24.527 51.21,32.442 	"/>
</g>
</svg>
