<?xml version="1.0" encoding="utf-8"?>
<!-- Generator: Adobe Illustrator 16.0.4, SVG Export Plug-In . SVG Version: 6.00 Build 0)  -->
<!DOCTYPE svg PUBLIC "-//W3C//DTD SVG 1.1//EN" "http://www.w3.org/Graphics/SVG/1.1/DTD/svg11.dtd">
<svg version="1.1" id="Layer_1" xmlns="http://www.w3.org/2000/svg" xmlns:xlink="http://www.w3.org/1999/xlink" x="0px" y="0px"
	 width="113.834px" height="32.441px" viewBox="-15.11 0 113.834 32.441" enable-background="new -15.11 0 113.834 32.441"
	 xml:space="preserve">
<g id="Layer_1_1_" display="none">
	
		<image display="inline" overflow="visible" enable-background="new    " width="100" height="62" xlink:href="pinsIcon.png"  transform="matrix(0.9999 0 0 0.9999 -18.824 -13.6042)">
	</image>
</g>
<linearGradient id="SVGID_1_" gradientUnits="userSpaceOnUse" x1="-14.3987" y1="16.3904" x2="12.7429" y2="16.3904">
	<stop  offset="0" style="stop-color:#FFDD15"/>
	<stop  offset="0.1467" style="stop-color:#F6921E"/>
	<stop  offset="0.3114" style="stop-color:#EC1C24"/>
	<stop  offset="0.4607" style="stop-color:#EC297B"/>
	<stop  offset="0.6641" style="stop-color:#90278E"/>
	<stop  offset="0.6919" style="stop-color:#8C2B91"/>
	<stop  offset="0.7222" style="stop-color:#7E379A"/>
	<stop  offset="0.7538" style="stop-color:#694CA8"/>
	<stop  offset="0.7862" style="stop-color:#4A68BD"/>
	<stop  offset="0.8189" style="stop-color:#238CD7"/>
	<stop  offset="0.8439" style="stop-color:#00ADEE"/>
	<stop  offset="1" style="stop-color:#29B473"/>
</linearGradient>
<polygon opacity="0.7" fill="#A9A8A8" stroke="url(#SVGID_1_)" stroke-width="0.5" stroke-miterlimit="10" enable-background="new    " points="
	-7.469,27.893 -14.11,16.391 -7.469,4.888 5.813,4.888 12.454,16.391 5.813,27.893 "/>
<path opacity="0.7" fill="#90278E" d="M59.713,11.055h0.913l2.783,6.487l2.828-6.487h0.913l-3.652,8.396h-0.184L59.713,11.055z"/>
<path fill="#79CCCA" d="M70.049,10.684c0.182,0,0.338,0.065,0.466,0.194c0.129,0.13,0.193,0.285,0.193,0.468
	c0,0.179-0.064,0.333-0.193,0.462c-0.128,0.13-0.284,0.195-0.466,0.195c-0.179,0-0.332-0.064-0.461-0.195
	c-0.129-0.128-0.193-0.283-0.193-0.462c0-0.183,0.064-0.338,0.193-0.468C69.717,10.749,69.87,10.684,70.049,10.684z M69.653,13.241
	h0.799v6.21h-0.799V13.241z"/>
<path opacity="0.9" fill="#F5841F" d="M73.449,19.451v-8.607h0.799v3.465c0.335-0.41,0.71-0.718,1.123-0.922
	c0.415-0.204,0.869-0.306,1.363-0.306c0.879,0,1.628,0.319,2.25,0.956c0.621,0.637,0.932,1.41,0.932,2.32
	c0,0.898-0.313,1.665-0.94,2.3c-0.627,0.636-1.382,0.954-2.264,0.954c-0.506,0-0.964-0.109-1.374-0.326
	c-0.411-0.217-0.773-0.542-1.09-0.976v1.142H73.449z M76.645,18.84c0.445,0,0.855-0.109,1.231-0.328
	c0.375-0.219,0.675-0.525,0.896-0.922c0.223-0.396,0.334-0.814,0.334-1.255c0-0.441-0.112-0.862-0.336-1.262
	s-0.524-0.71-0.902-0.934c-0.378-0.222-0.781-0.333-1.211-0.333c-0.436,0-0.851,0.111-1.244,0.333
	c-0.393,0.224-0.694,0.522-0.905,0.899c-0.21,0.377-0.315,0.801-0.315,1.273c0,0.719,0.236,1.32,0.709,1.803
	C75.373,18.599,75.955,18.84,76.645,18.84z"/>
<path fill="#EC3793" d="M87.885,17.391l0.674,0.354c-0.221,0.434-0.476,0.784-0.766,1.05c-0.289,0.268-0.615,0.47-0.977,0.608
	c-0.362,0.139-0.771,0.209-1.229,0.209c-1.013,0-1.806-0.332-2.377-0.996c-0.57-0.664-0.856-1.415-0.856-2.252
	c0-0.788,0.242-1.49,0.726-2.105c0.613-0.784,1.434-1.177,2.462-1.177c1.059,0,1.904,0.401,2.536,1.204
	c0.449,0.567,0.679,1.275,0.687,2.123h-5.588c0.015,0.723,0.245,1.313,0.691,1.774c0.445,0.462,0.996,0.691,1.651,0.691
	c0.315,0,0.624-0.054,0.923-0.165c0.299-0.109,0.554-0.256,0.763-0.438C87.415,18.09,87.641,17.796,87.885,17.391z M87.885,15.719
	c-0.105-0.427-0.262-0.768-0.466-1.022c-0.203-0.255-0.473-0.46-0.809-0.616c-0.335-0.156-0.688-0.234-1.057-0.234
	c-0.609,0-1.134,0.197-1.571,0.588c-0.32,0.286-0.562,0.715-0.727,1.285H87.885z"/>
<path fill="#FFF100" d="M94.662,13.92l-0.515,0.531c-0.427-0.414-0.844-0.622-1.252-0.622c-0.261,0-0.482,0.085-0.667,0.257
	c-0.186,0.172-0.277,0.371-0.277,0.6c0,0.201,0.076,0.394,0.228,0.576c0.153,0.186,0.474,0.405,0.962,0.656
	c0.595,0.309,0.999,0.604,1.213,0.89c0.21,0.29,0.314,0.616,0.314,0.977c0,0.51-0.18,0.942-0.538,1.296
	c-0.357,0.354-0.806,0.531-1.343,0.531c-0.358,0-0.701-0.078-1.026-0.234c-0.326-0.156-0.596-0.371-0.809-0.646l0.502-0.57
	c0.408,0.461,0.841,0.69,1.299,0.69c0.32,0,0.593-0.103,0.818-0.309c0.225-0.205,0.337-0.447,0.337-0.725
	c0-0.229-0.074-0.432-0.224-0.611c-0.148-0.174-0.482-0.395-1.006-0.661c-0.562-0.29-0.942-0.575-1.144-0.856
	c-0.202-0.281-0.303-0.603-0.303-0.964c0-0.473,0.16-0.864,0.482-1.177c0.322-0.312,0.729-0.468,1.221-0.468
	C93.507,13.081,94.083,13.362,94.662,13.92z"/>
</svg>
