<?xml version="1.0" encoding="utf-8"?>
<!-- Generator: Adobe Illustrator 16.0.4, SVG Export Plug-In . SVG Version: 6.00 Build 0)  -->
<!DOCTYPE svg PUBLIC "-//W3C//DTD SVG 1.1//EN" "http://www.w3.org/Graphics/SVG/1.1/DTD/svg11.dtd">
<svg version="1.1" id="Layer_1" xmlns="http://www.w3.org/2000/svg" xmlns:xlink="http://www.w3.org/1999/xlink" x="0px" y="0px"
	 width="178.5px" height="42px" viewBox="0 0 178.5 42" enable-background="new 0 0 178.5 42" xml:space="preserve">
<g id="Layer_1_1_" display="none">
	<g id="Layer_2" display="inline">
		<g>
			<polygon fill="#ADADAD" points="-26.145,25.665 -33.5,12.923 -26.145,0.183 -11.433,0.183 -4.079,12.923 -11.433,25.665 			"/>
			<polygon fill="#ADADAD" points="-33.5,12.923 -18.79,42 -4.079,12.923 			"/>
		</g>
		<polygon opacity="0.05" enable-background="new    " points="-33.5,12.923 -18.79,42 -17.159,38.779 -28.989,14 		"/>
		<polyline opacity="0.1" fill="#FFFFFF" enable-background="new    " points="-23.854,3.493 -26.145,0.183 -33.5,12.923 
			-28.989,14 		"/>
	</g>
	<path display="inline" fill="#79CCCA" d="M73.553,27.521l1.912-13.352h0.217l5.428,10.954l5.375-10.954h0.214l1.922,13.352h-1.31
		l-1.318-9.548l-4.721,9.548H80.93L76.153,17.9l-1.312,9.622H73.553L73.553,27.521z"/>
	<path display="inline" fill="#64BB46" d="M102.917,17.646v9.875h-1.252v-1.697c-0.533,0.646-1.13,1.134-1.794,1.46
		c-0.663,0.327-1.387,0.491-2.173,0.491c-1.397,0-2.591-0.508-3.58-1.521c-0.99-1.014-1.485-2.248-1.485-3.698
		c0-1.424,0.5-2.641,1.498-3.648c0.999-1.012,2.199-1.516,3.604-1.516c0.812,0,1.545,0.171,2.201,0.517
		c0.657,0.346,1.232,0.862,1.729,1.553v-1.816H102.917z M97.84,18.618c-0.708,0-1.359,0.174-1.958,0.521
		c-0.598,0.349-1.073,0.836-1.429,1.464c-0.354,0.628-0.53,1.293-0.53,1.995c0,0.695,0.179,1.36,0.535,1.994
		c0.356,0.635,0.835,1.131,1.438,1.483c0.601,0.353,1.246,0.53,1.936,0.53c0.695,0,1.354-0.176,1.977-0.526s1.102-0.826,1.437-1.423
		c0.336-0.598,0.504-1.272,0.504-2.022c0-1.141-0.376-2.097-1.129-2.864S98.939,18.618,97.84,18.618z"/>
	<path display="inline" opacity="0.8" fill="#D81D34" enable-background="new    " d="M107.839,17.646h1.271v1.816
		c0.502-0.69,1.078-1.207,1.731-1.553c0.653-0.344,1.382-0.517,2.187-0.517c1.402,0,2.603,0.503,3.6,1.516
		c0.997,1.011,1.496,2.227,1.496,3.648c0,1.45-0.494,2.686-1.48,3.698c-0.988,1.013-2.183,1.521-3.578,1.521
		c-0.785,0-1.508-0.164-2.168-0.491c-0.658-0.326-1.254-0.813-1.785-1.46v5.309h-1.271L107.839,17.646L107.839,17.646z
		 M112.921,18.618c-1.099,0-2.022,0.384-2.774,1.151c-0.752,0.768-1.127,1.723-1.127,2.864c0,0.75,0.168,1.424,0.502,2.022
		c0.336,0.597,0.816,1.071,1.439,1.423c0.625,0.352,1.286,0.525,1.979,0.525c0.685,0,1.324-0.178,1.924-0.529
		c0.603-0.354,1.08-0.85,1.437-1.483c0.356-0.633,0.534-1.3,0.534-1.993c0-0.701-0.176-1.367-0.527-1.996
		c-0.354-0.628-0.83-1.117-1.43-1.464C114.279,18.792,113.628,18.618,112.921,18.618z"/>
	<g id="Layer_3" display="inline">
	</g>
</g>
<g id="Layer_2_1_" display="none">
	<g display="inline">
		<path opacity="0.7" fill="#A9A8A8" enable-background="new    " d="M4.465,8.572h-6.146c-0.722,0-1.687-0.453-2.146-1.008
			l-2.686-3.221C-6.974,3.791-7.94,3.337-8.66,3.337h-9.164c-0.721,0-1.653,0.478-2.075,1.062l-2.246,3.112
			c-0.421,0.581-1.356,1.062-2.076,1.062h-6.659c-1.439,0-2.619,1.178-2.619,2.616v19.64c0,1.438,1.18,2.619,2.619,2.619H4.467
			c1.44,0,2.619-1.182,2.619-2.619v-19.64C7.086,9.75,5.906,8.572,4.465,8.572z"/>
		<path fill="#FFFFFF" d="M-13.701,12.398c-4.33,0-7.854,3.522-7.854,7.854s3.524,7.855,7.854,7.855
			c4.332,0,7.855-3.523,7.855-7.855C-5.846,15.921-9.369,12.398-13.701,12.398z"/>
	</g>
	<g display="inline">
		<path fill="#64BB46" d="M73.205,14.343h2.654c1.522,0,2.55,0.064,3.082,0.198c0.762,0.188,1.382,0.572,1.865,1.155
			c0.482,0.583,0.726,1.314,0.726,2.197c0,0.889-0.235,1.621-0.707,2.196c-0.472,0.577-1.119,0.964-1.948,1.165
			c-0.604,0.145-1.732,0.217-3.389,0.217h-0.95v6.198h-1.333V14.343L73.205,14.343z M74.538,15.647v4.521l2.255,0.027
			c0.912,0,1.58-0.082,2.003-0.247c0.423-0.168,0.757-0.436,0.996-0.807c0.242-0.371,0.363-0.785,0.363-1.244
			c0-0.444-0.121-0.854-0.363-1.225c-0.239-0.371-0.562-0.635-0.956-0.79c-0.396-0.157-1.042-0.235-1.943-0.235H74.538z"/>
		<path fill="#D81D3C" d="M90.695,17.558c1.519,0,2.777,0.551,3.777,1.65c0.905,1.002,1.358,2.189,1.358,3.562
			c0,1.377-0.479,2.582-1.438,3.609c-0.957,1.03-2.19,1.545-3.697,1.545c-1.514,0-2.75-0.515-3.709-1.545
			c-0.959-1.027-1.438-2.232-1.438-3.609c0-1.364,0.454-2.55,1.362-3.553C87.91,18.11,89.17,17.558,90.695,17.558z M90.689,18.8
			c-1.053,0-1.961,0.391-2.719,1.167c-0.757,0.779-1.136,1.725-1.136,2.829c0,0.712,0.172,1.376,0.517,1.993
			c0.348,0.616,0.812,1.091,1.4,1.427s1.233,0.504,1.938,0.504c0.703,0,1.349-0.168,1.937-0.504
			c0.589-0.336,1.056-0.811,1.401-1.427c0.347-0.617,0.519-1.281,0.519-1.993c0-1.104-0.382-2.05-1.142-2.829
			C92.645,19.19,91.738,18.8,90.689,18.8z"/>
		<path fill="#F5841F" d="M105.18,18.89l-0.816,0.842c-0.68-0.657-1.342-0.986-1.987-0.986c-0.411,0-0.767,0.137-1.062,0.407
			c-0.293,0.271-0.438,0.59-0.438,0.954c0,0.317,0.121,0.625,0.362,0.914c0.242,0.295,0.752,0.644,1.525,1.042
			c0.943,0.489,1.588,0.961,1.926,1.414c0.334,0.459,0.498,0.976,0.498,1.551c0,0.81-0.285,1.494-0.853,2.056
			c-0.569,0.562-1.28,0.843-2.134,0.843c-0.567,0-1.111-0.123-1.631-0.371c-0.516-0.248-0.943-0.59-1.282-1.022l0.798-0.905
			c0.646,0.729,1.335,1.098,2.062,1.098c0.509,0,0.939-0.164,1.299-0.49c0.355-0.325,0.535-0.709,0.535-1.149
			c0-0.362-0.117-0.687-0.354-0.97c-0.235-0.279-0.769-0.629-1.599-1.051c-0.891-0.459-1.494-0.912-1.816-1.359
			c-0.32-0.447-0.48-0.957-0.48-1.532c0-0.748,0.254-1.371,0.769-1.866c0.511-0.494,1.157-0.742,1.938-0.742
			C103.344,17.558,104.259,18.002,105.18,18.89z"/>
		<path fill="#79CCCA" d="M110.572,14.152h1.269v3.661h2.013v1.096h-2.013v8.763h-1.269v-8.763h-1.73v-1.096h1.73V14.152z"/>
	</g>
	<g id="Layer_3_1_" display="inline">
	</g>
</g>
<g id="Layer_3_2_" display="none">
	<path display="inline" opacity="0.7" fill="#A9A8A8" enable-background="new    " d="M6.81,38.675L-5.063,26.802
		c2.029-2.688,3.248-6.021,3.248-9.648c0-8.863-7.185-16.05-16.047-16.05c-8.862,0-16.047,7.187-16.047,16.049
		c0,8.861,7.186,16.047,16.047,16.047c4.018,0,7.681-1.484,10.496-3.927L4.423,41.064L6.81,38.675z M-32.221,17.153
		c0-7.918,6.439-14.356,14.357-14.356c7.916,0,14.358,6.438,14.358,14.356c0,7.917-6.442,14.357-14.358,14.357
		C-25.78,31.51-32.221,25.07-32.221,17.153z"/>
	<g display="inline">
		<path fill="#79CCCA" d="M73.023,25.076l1.104-0.66c0.779,1.432,1.678,2.146,2.695,2.146c0.437,0,0.846-0.104,1.228-0.309
			c0.384-0.202,0.677-0.475,0.876-0.814c0.2-0.342,0.301-0.703,0.301-1.088c0-0.438-0.149-0.86-0.442-1.281
			c-0.404-0.577-1.147-1.271-2.228-2.083c-1.082-0.816-1.756-1.41-2.021-1.775c-0.461-0.614-0.688-1.276-0.688-1.987
			c0-0.565,0.135-1.081,0.404-1.548c0.271-0.465,0.654-0.831,1.146-1.1c0.49-0.268,1.023-0.401,1.603-0.401
			c0.612,0,1.185,0.151,1.72,0.456c0.532,0.301,1.096,0.859,1.69,1.673l-1.062,0.804c-0.488-0.646-0.906-1.074-1.25-1.279
			c-0.347-0.207-0.72-0.31-1.127-0.31c-0.521,0-0.951,0.157-1.285,0.476c-0.332,0.319-0.5,0.711-0.5,1.176
			c0,0.283,0.062,0.556,0.179,0.822c0.118,0.266,0.333,0.555,0.645,0.865c0.171,0.161,0.73,0.598,1.681,1.299
			c1.123,0.832,1.895,1.568,2.312,2.217c0.416,0.648,0.63,1.301,0.63,1.951c0,0.941-0.36,1.762-1.075,2.457
			c-0.716,0.693-1.586,1.043-2.609,1.043c-0.791,0-1.506-0.211-2.146-0.633C74.16,26.771,73.564,26.066,73.023,25.076z"/>
		<path fill="#EC3793" d="M93.258,24.309l1.043,0.547c-0.342,0.674-0.736,1.215-1.184,1.627c-0.449,0.412-0.955,0.726-1.516,0.94
			c-0.56,0.214-1.193,0.319-1.899,0.319c-1.569,0-2.794-0.512-3.679-1.539c-0.885-1.029-1.326-2.188-1.326-3.487
			c0-1.218,0.375-2.306,1.121-3.259c0.951-1.217,2.221-1.819,3.812-1.819c1.642,0,2.948,0.62,3.929,1.862
			c0.692,0.879,1.051,1.975,1.062,3.285h-8.649c0.023,1.121,0.379,2.033,1.07,2.748c0.689,0.715,1.542,1.068,2.559,1.068
			c0.487,0,0.96-0.084,1.425-0.252c0.466-0.173,0.858-0.396,1.184-0.681C92.527,25.391,92.88,24.934,93.258,24.309z M93.258,21.718
			c-0.165-0.658-0.402-1.187-0.722-1.581c-0.312-0.393-0.731-0.711-1.251-0.951c-0.518-0.244-1.062-0.363-1.635-0.363
			c-0.945,0-1.758,0.301-2.435,0.91c-0.495,0.44-0.872,1.104-1.124,1.985H93.258z"/>
		<path fill="#F5841F" d="M108.493,17.887v9.611h-1.222v-1.65c-0.519,0.629-1.1,1.103-1.742,1.42
			c-0.646,0.318-1.354,0.478-2.117,0.478c-1.361,0-2.521-0.492-3.486-1.478c-0.961-0.987-1.443-2.188-1.443-3.604
			c0-1.383,0.486-2.565,1.459-3.551c0.973-0.983,2.14-1.477,3.51-1.477c0.787,0,1.501,0.17,2.141,0.503
			c0.643,0.336,1.2,0.841,1.684,1.512v-1.766L108.493,17.887L108.493,17.887z M103.55,18.832c-0.688,0-1.323,0.17-1.907,0.506
			c-0.58,0.339-1.047,0.813-1.391,1.427c-0.345,0.61-0.516,1.26-0.516,1.938c0,0.676,0.175,1.324,0.521,1.943
			c0.347,0.614,0.813,1.1,1.397,1.442c0.586,0.343,1.214,0.515,1.885,0.515c0.677,0,1.316-0.17,1.926-0.512
			c0.604-0.343,1.07-0.804,1.398-1.386c0.324-0.58,0.488-1.238,0.488-1.967c0-1.111-0.367-2.041-1.102-2.789
			C105.521,19.203,104.62,18.832,103.55,18.832z"/>
		<path fill="#FFF100" d="M112.797,17.887h1.264v1.402c0.377-0.551,0.775-0.967,1.192-1.241c0.419-0.271,0.854-0.41,1.308-0.41
			c0.344,0,0.709,0.108,1.1,0.327l-0.646,1.042c-0.262-0.111-0.479-0.167-0.654-0.167c-0.412,0-0.811,0.167-1.19,0.508
			c-0.384,0.337-0.675,0.865-0.875,1.576c-0.151,0.548-0.229,1.654-0.229,3.322v3.252H112.8v-9.611H112.797z"/>
		<path fill="#DD5D82" d="M129.902,19.882l-0.979,0.608c-0.847-1.125-2.002-1.688-3.467-1.688c-1.173,0-2.144,0.377-2.918,1.132
			c-0.772,0.752-1.16,1.667-1.16,2.743c0,0.697,0.179,1.357,0.534,1.979c0.354,0.613,0.844,1.094,1.464,1.438
			c0.62,0.34,1.315,0.512,2.087,0.512c1.412,0,2.564-0.562,3.46-1.688l0.979,0.646c-0.457,0.689-1.073,1.229-1.848,1.608
			c-0.777,0.384-1.656,0.571-2.646,0.571c-1.521,0-2.78-0.483-3.781-1.449c-1.002-0.963-1.502-2.141-1.502-3.523
			c0-0.932,0.234-1.795,0.702-2.592c0.469-0.8,1.112-1.422,1.931-1.869c0.819-0.447,1.733-0.671,2.748-0.671
			c0.635,0,1.251,0.096,1.842,0.29c0.592,0.196,1.094,0.446,1.508,0.76C129.266,19.004,129.613,19.399,129.902,19.882z"/>
		<path fill="#90278E" d="M134.27,14.175h1.242v5.433c0.496-0.658,1.049-1.152,1.647-1.48c0.603-0.324,1.252-0.488,1.952-0.488
			c0.721,0,1.359,0.182,1.914,0.55c0.559,0.364,0.968,0.853,1.231,1.47c0.267,0.615,0.396,1.58,0.396,2.893V27.5h-1.237v-4.586
			c0-1.109-0.043-1.847-0.131-2.217c-0.153-0.637-0.435-1.115-0.835-1.438c-0.403-0.318-0.934-0.48-1.588-0.48
			c-0.745,0-1.418,0.248-2.008,0.743c-0.595,0.493-0.982,1.105-1.172,1.837c-0.117,0.47-0.177,1.343-0.177,2.616V27.5h-1.239V14.175
			H134.27z"/>
	</g>
</g>
<g id="Layer_4" display="none">
	<path display="inline" opacity="0.7" fill="#A9A8A8" enable-background="new    " d="M-16.811,40.732
		c-6.578,0-12.512-2.797-16.689-7.256c3.125-1.027,9.074-3.277,9.984-3.686c2.084-0.938,2.087-3.952,1.991-5.207l-0.019-0.227
		l-0.16-0.166c-1.066-1.104-1.881-3.038-2.494-5.907l-0.085-0.401l-0.399-0.085c-0.184-0.042-0.526-0.315-0.896-0.958
		c-0.658-1.145-0.971-2.67-0.713-3.477c0.152-0.475,0.314-0.566,0.344-0.579c0.067-0.03,0.178,0.018,0.223,0.038l0.932,0.44
		l-0.026-1.031c-0.038-1.536-0.009-2.779,0.026-4.128C-24.616,1.519-18.523,1-16.627,1c0.009,0,0.021,0,0.031,0
		c1.893,0,7.986,0.521,8.163,7.101c0.042,1.548,0.06,2.718,0.024,4.13l-0.024,1.03l0.932-0.438c0.046-0.021,0.157-0.068,0.224-0.038
		c0.029,0.014,0.191,0.104,0.342,0.579c0.258,0.809-0.056,2.336-0.712,3.479c-0.37,0.641-0.714,0.915-0.896,0.957l-0.399,0.088
		l-0.087,0.398c-0.611,2.87-1.424,4.806-2.493,5.908l-0.159,0.166l-0.018,0.228c-0.094,1.253-0.094,4.269,1.992,5.207
		c0.894,0.399,6.716,2.638,9.669,3.597C-4.217,37.9-10.188,40.732-16.811,40.732z"/>
	<g display="inline">
		<path fill="#EC3793" d="M73.287,14.4h2.662c1.525,0,2.554,0.064,3.087,0.197c0.766,0.188,1.385,0.575,1.872,1.158
			c0.484,0.583,0.726,1.318,0.726,2.202c0,0.891-0.236,1.627-0.707,2.203c-0.473,0.58-1.125,0.967-1.955,1.17
			c-0.606,0.142-1.738,0.216-3.395,0.216h-0.956v6.213h-1.332V14.4H73.287z M74.621,15.709v4.529l2.265,0.027
			c0.912,0,1.582-0.083,2.005-0.25c0.425-0.167,0.758-0.434,0.998-0.808c0.243-0.368,0.363-0.786,0.363-1.244
			c0-0.448-0.12-0.858-0.363-1.23c-0.24-0.37-0.561-0.634-0.956-0.792c-0.397-0.158-1.048-0.234-1.948-0.234h-2.363L74.621,15.709
			L74.621,15.709z"/>
		<path fill="#FFF100" d="M85.662,17.879h1.298v1.443c0.388-0.569,0.795-0.994,1.227-1.276c0.429-0.282,0.878-0.423,1.342-0.423
			c0.352,0,0.728,0.114,1.127,0.337l-0.661,1.071c-0.269-0.114-0.492-0.171-0.673-0.171c-0.425,0-0.833,0.173-1.229,0.522
			c-0.395,0.349-0.691,0.889-0.9,1.621c-0.158,0.563-0.236,1.702-0.236,3.417v3.342h-1.299v-9.883H85.662z"/>
		<path fill="#F5841F" d="M98.391,17.623c1.521,0,2.782,0.552,3.784,1.655c0.91,1.005,1.364,2.193,1.364,3.57
			c0,1.381-0.479,2.586-1.441,3.621c-0.961,1.031-2.199,1.547-3.707,1.547c-1.518,0-2.757-0.516-3.718-1.547
			c-0.962-1.035-1.444-2.24-1.444-3.621c0-1.371,0.455-2.556,1.369-3.561C95.598,18.177,96.859,17.623,98.391,17.623z
			 M98.384,18.867c-1.058,0-1.964,0.391-2.724,1.171c-0.762,0.78-1.139,1.728-1.139,2.834c0,0.715,0.17,1.383,0.52,1.998
			c0.343,0.616,0.812,1.096,1.402,1.43c0.591,0.336,1.236,0.505,1.94,0.505c0.703,0,1.351-0.169,1.94-0.505
			c0.591-0.336,1.058-0.812,1.404-1.43c0.349-0.619,0.521-1.283,0.521-1.998c0-1.106-0.381-2.052-1.146-2.834
			C100.346,19.258,99.438,18.867,98.384,18.867z"/>
		<path fill="#79CCCA" d="M112.009,14.064v1.242c-0.466-0.199-0.866-0.302-1.198-0.302c-0.248,0-0.453,0.053-0.621,0.151
			c-0.16,0.101-0.265,0.217-0.306,0.346c-0.042,0.13-0.063,0.476-0.063,1.04v1.335h2.062v1.099h-2.064l-0.008,8.78h-1.271v-8.78
			h-1.3v-1.099h1.3v-1.544c0-0.71,0.063-1.213,0.192-1.516c0.131-0.304,0.352-0.547,0.664-0.731
			c0.312-0.186,0.688-0.277,1.131-0.277C110.938,13.809,111.434,13.893,112.009,14.064z"/>
		<path fill="#DD5D82" d="M116.268,13.809c0.289,0,0.537,0.104,0.742,0.309c0.205,0.206,0.307,0.452,0.307,0.745
			c0,0.285-0.102,0.53-0.307,0.734c-0.205,0.207-0.453,0.31-0.742,0.31c-0.285,0-0.527-0.105-0.732-0.31
			c-0.206-0.205-0.307-0.45-0.307-0.734c0-0.292,0.102-0.539,0.307-0.745C115.738,13.913,115.982,13.809,116.268,13.809z
			 M115.637,17.879h1.271v9.881h-1.271V17.879z"/>
		<path fill="#90278E" d="M121.404,14.064h1.275V27.76h-1.275V14.064z"/>
		<path fill="#64BB46" d="M135.688,24.48l1.07,0.563c-0.348,0.688-0.755,1.248-1.217,1.67c-0.458,0.425-0.977,0.75-1.555,0.968
			c-0.576,0.223-1.229,0.334-1.955,0.334c-1.612,0-2.872-0.531-3.78-1.586c-0.909-1.056-1.364-2.253-1.364-3.585
			c0-1.254,0.387-2.37,1.155-3.351c0.978-1.249,2.281-1.872,3.916-1.872c1.687,0,3.032,0.64,4.038,1.916
			c0.716,0.905,1.079,2.032,1.091,3.379h-8.892c0.022,1.149,0.391,2.09,1.101,2.824c0.707,0.733,1.585,1.102,2.629,1.102
			c0.503,0,0.993-0.088,1.47-0.262c0.475-0.176,0.879-0.408,1.213-0.697C134.939,25.595,135.3,25.125,135.688,24.48z M135.688,21.82
			c-0.168-0.679-0.416-1.221-0.739-1.625c-0.323-0.409-0.755-0.733-1.287-0.985c-0.534-0.248-1.093-0.37-1.681-0.37
			c-0.974,0-1.807,0.312-2.502,0.937c-0.508,0.453-0.896,1.135-1.155,2.043H135.688L135.688,21.82z"/>
	</g>
</g>
<linearGradient id="SVGID_1_" gradientUnits="userSpaceOnUse" x1="867.0176" y1="-1971.1787" x2="901.3574" y2="-1971.1787" gradientTransform="matrix(1 0 0 -1 -865 -1949.5586)">
	<stop  offset="0" style="stop-color:#FFDD15"/>
	<stop  offset="0.1467" style="stop-color:#F6921E"/>
	<stop  offset="0.3114" style="stop-color:#EC1C24"/>
	<stop  offset="0.4607" style="stop-color:#EC297B"/>
	<stop  offset="0.6641" style="stop-color:#90278E"/>
	<stop  offset="0.6919" style="stop-color:#8C2B91"/>
	<stop  offset="0.7222" style="stop-color:#7E379A"/>
	<stop  offset="0.7538" style="stop-color:#694CA8"/>
	<stop  offset="0.7862" style="stop-color:#4A68BD"/>
	<stop  offset="0.8189" style="stop-color:#238CD7"/>
	<stop  offset="0.8439" style="stop-color:#00ADEE"/>
	<stop  offset="1" style="stop-color:#29B473"/>
</linearGradient>
<polygon opacity="0.7" fill="#A9A8A8" stroke="url(#SVGID_1_)" stroke-width="0.5" stroke-miterlimit="10" enable-background="new    " points="
	10.748,36.24 2.307,21.619 10.748,7 27.628,7 36.069,21.619 27.628,36.24 "/>
<path opacity="0.7" fill="#A9A8A8" enable-background="new    " d="M105.471,15.202h1.459l4.442,10.356l4.517-10.356h1.455
	l-5.828,13.405h-0.295L105.471,15.202z"/>
<path opacity="0.7" fill="#A9A8A8" enable-background="new    " d="M121.973,14.611c0.297,0,0.543,0.104,0.745,0.307
	c0.207,0.206,0.31,0.456,0.31,0.749c0,0.287-0.104,0.531-0.31,0.738c-0.202,0.206-0.448,0.311-0.745,0.311
	c-0.283,0-0.525-0.103-0.734-0.311c-0.206-0.206-0.307-0.452-0.307-0.738c0-0.293,0.104-0.542,0.307-0.749
	C121.441,14.714,121.688,14.611,121.973,14.611z M121.342,18.692h1.275v9.917h-1.275V18.692z"/>
<path opacity="0.7" fill="#A9A8A8" enable-background="new    " d="M127.402,28.607V14.865h1.275V20.4
	c0.534-0.657,1.133-1.15,1.793-1.474c0.663-0.327,1.391-0.489,2.176-0.489c1.403,0,2.602,0.509,3.592,1.527
	c0.992,1.019,1.488,2.253,1.488,3.706c0,1.436-0.5,2.659-1.5,3.673c-1.002,1.017-2.209,1.526-3.619,1.526
	c-0.805,0-1.537-0.174-2.192-0.521c-0.657-0.346-1.233-0.865-1.739-1.561v1.824L127.402,28.607L127.402,28.607z M132.506,27.632
	c0.709,0,1.364-0.174,1.965-0.524c0.6-0.352,1.077-0.84,1.434-1.475c0.354-0.631,0.531-1.3,0.531-2.002
	c0-0.703-0.179-1.378-0.537-2.016c-0.356-0.64-0.836-1.134-1.439-1.489c-0.602-0.355-1.248-0.531-1.934-0.531
	c-0.695,0-1.358,0.175-1.985,0.531c-0.626,0.355-1.106,0.833-1.442,1.435c-0.336,0.603-0.504,1.28-0.504,2.033
	c0,1.148,0.379,2.104,1.131,2.879C130.475,27.248,131.404,27.632,132.506,27.632z"/>
<path opacity="0.7" fill="#A9A8A8" enable-background="new    " d="M150.451,25.318l1.074,0.565
	c-0.353,0.695-0.76,1.251-1.221,1.677c-0.464,0.429-0.982,0.752-1.562,0.971c-0.577,0.223-1.231,0.335-1.961,0.335
	c-1.621,0-2.884-0.528-3.796-1.591c-0.912-1.061-1.366-2.26-1.366-3.594c0-1.257,0.387-2.38,1.157-3.358
	c0.979-1.252,2.291-1.882,3.932-1.882c1.691,0,3.04,0.642,4.051,1.922c0.715,0.908,1.083,2.038,1.094,3.393h-8.92
	c0.021,1.154,0.389,2.096,1.104,2.832c0.708,0.739,1.587,1.104,2.632,1.104c0.504,0,0.998-0.084,1.479-0.264
	c0.478-0.172,0.885-0.406,1.215-0.699C149.703,26.434,150.062,25.965,150.451,25.318z M150.451,22.646
	c-0.167-0.68-0.419-1.225-0.744-1.629c-0.325-0.407-0.755-0.734-1.291-0.982c-0.537-0.25-1.104-0.374-1.688-0.374
	c-0.977,0-1.812,0.313-2.512,0.938c-0.513,0.456-0.896,1.141-1.16,2.049h7.391L150.451,22.646L150.451,22.646z"/>
<path opacity="0.7" fill="#A9A8A8" enable-background="new    " d="M161.271,19.775l-0.822,0.848
	c-0.684-0.661-1.346-0.993-1.998-0.993c-0.417,0-0.77,0.137-1.067,0.409c-0.297,0.276-0.438,0.593-0.438,0.961
	c0,0.319,0.117,0.627,0.361,0.92c0.244,0.297,0.758,0.645,1.537,1.045c0.948,0.494,1.594,0.967,1.938,1.424
	c0.334,0.463,0.5,0.981,0.5,1.56c0,0.812-0.288,1.505-0.858,2.071c-0.568,0.564-1.285,0.847-2.145,0.847
	c-0.57,0-1.118-0.125-1.637-0.377c-0.521-0.247-0.953-0.591-1.293-1.027l0.803-0.912c0.65,0.738,1.342,1.104,2.072,1.104
	c0.514,0,0.948-0.165,1.305-0.495c0.359-0.327,0.539-0.709,0.539-1.158c0-0.368-0.117-0.69-0.356-0.976
	c-0.237-0.278-0.771-0.633-1.604-1.059c-0.899-0.463-1.508-0.916-1.828-1.363c-0.323-0.449-0.482-0.965-0.482-1.54
	c0-0.754,0.256-1.381,0.768-1.882c0.517-0.497,1.164-0.747,1.953-0.747C159.43,18.437,160.348,18.886,161.271,19.775z"/>
</svg>
