<?xml version="1.0" encoding="utf-8"?>
<!-- Generator: Adobe Illustrator 16.0.4, SVG Export Plug-In . SVG Version: 6.00 Build 0)  -->
<!DOCTYPE svg PUBLIC "-//W3C//DTD SVG 1.1//EN" "http://www.w3.org/Graphics/SVG/1.1/DTD/svg11.dtd">
<svg version="1.1" xmlns="http://www.w3.org/2000/svg" xmlns:xlink="http://www.w3.org/1999/xlink" x="0px" y="0px"
	 width="90.055px" height="47.957px" viewBox="0 0 90.055 47.957" enable-background="new 0 0 90.055 47.957" xml:space="preserve">
<g id="Layer_1" display="none">
	
		<image display="inline" overflow="visible" width="100" height="62" xlink:href="pinsIcon.png"  transform="matrix(0.9999 0 0 0.9999 -2.8247 -6.9023)">
	</image>
</g>
<g id="Layer_2">
	<polygon opacity="0.5" fill="#64BB46" points="7.378,25.557 0,12.778 7.378,0 22.134,0 29.512,12.778 22.134,25.557 	"/>
	<polygon opacity="0.5" fill="#79CCCA" points="28.117,25.557 20.739,12.778 28.117,0 42.873,0 50.25,12.778 42.873,25.557 	"/>
	<polygon opacity="0.5" fill="#A15AA3" points="47.183,25.557 39.805,12.778 47.183,0 61.938,0 69.317,12.778 61.938,25.557 	"/>
	<polygon opacity="0.5" fill="#DD5D82" points="67.921,25.557 60.543,12.778 67.921,0 82.676,0 90.055,12.778 82.676,25.557 	"/>
	<polygon opacity="0.5" fill="#EC3793" points="7.377,47.957 0,35.179 7.377,22.4 22.134,22.4 29.511,35.179 22.134,47.957 	"/>
	<polygon opacity="0.5" fill="#C22127" points="28.116,47.957 20.738,35.179 28.116,22.4 42.872,22.4 50.25,35.179 42.872,47.957 	
		"/>
	<polygon opacity="0.5" fill="#F5841F" points="47.182,47.957 39.805,35.179 47.182,22.4 61.938,22.4 69.317,35.179 61.938,47.957 	
		"/>
	<polygon opacity="0.5" fill="#FBED27" points="67.921,47.957 60.542,35.179 67.921,22.4 82.676,22.4 90.055,35.179 82.676,47.957 	
		"/>
</g>
</svg>
