<?xml version="1.0" encoding="utf-8"?>
<!-- Generator: Adobe Illustrator 16.0.0, SVG Export Plug-In . SVG Version: 6.00 Build 0)  -->
<!DOCTYPE svg PUBLIC "-//W3C//DTD SVG 1.1//EN" "http://www.w3.org/Graphics/SVG/1.1/DTD/svg11.dtd">
<svg version="1.1" xmlns="http://www.w3.org/2000/svg" xmlns:xlink="http://www.w3.org/1999/xlink" x="0px" y="0px" width="144px"
	 height="42px" viewBox="100.973 136.726 144 42" enable-background="new 100.973 136.726 144 42" xml:space="preserve">
<g id="Layer_2_1_">
	<path opacity="0.7" fill="#A9A8A8" enable-background="new    " d="M139.938,147.057h-6.146c-0.721,0-1.687-0.453-2.146-1.008
		l-2.685-3.221c-0.462-0.553-1.429-1.007-2.148-1.007h-9.165c-0.72,0-1.653,0.478-2.075,1.063l-2.246,3.112
		c-0.421,0.581-1.356,1.061-2.076,1.061h-6.659c-1.44,0-2.619,1.177-2.619,2.616v19.64c0,1.438,1.179,2.618,2.619,2.618h35.347
		c1.441,0,2.619-1.18,2.619-2.618v-19.64C142.558,148.234,141.379,147.057,139.938,147.057z"/>
	<circle fill="#FFFFFF" cx="134.9" cy="150.984" r="1.31"/>
	<path fill="#FFFFFF" d="M123.772,150.883c-4.331,0-7.855,3.522-7.855,7.854s3.524,7.855,7.855,7.855s7.855-3.523,7.855-7.855
		S128.104,150.883,123.772,150.883z"/>
	<path fill="#64BB46" d="M174.373,152.096h2.654c1.523,0,2.55,0.064,3.082,0.198c0.762,0.188,1.382,0.572,1.866,1.155
		c0.482,0.583,0.725,1.315,0.725,2.197c0,0.889-0.235,1.621-0.707,2.197c-0.472,0.577-1.119,0.964-1.948,1.165
		c-0.604,0.145-1.733,0.217-3.389,0.217h-0.95v6.198h-1.333V152.096z M175.706,153.4v4.521l2.255,0.027
		c0.912,0,1.58-0.082,2.003-0.247c0.423-0.168,0.756-0.436,0.996-0.806c0.242-0.372,0.363-0.785,0.363-1.244
		c0-0.445-0.121-0.854-0.363-1.225c-0.24-0.371-0.561-0.635-0.956-0.79c-0.396-0.157-1.042-0.236-1.943-0.236H175.706z"/>
	<path fill="#D81D3C" d="M191.864,155.311c1.518,0,2.777,0.55,3.776,1.65c0.907,1.002,1.36,2.189,1.36,3.56
		c0,1.378-0.479,2.583-1.439,3.611c-0.958,1.03-2.191,1.545-3.697,1.545c-1.514,0-2.75-0.515-3.709-1.545
		c-0.96-1.028-1.438-2.233-1.438-3.611c0-1.364,0.454-2.548,1.362-3.551C189.078,155.863,190.338,155.311,191.864,155.311z
		 M191.858,156.553c-1.054,0-1.961,0.39-2.72,1.167c-0.756,0.779-1.135,1.723-1.135,2.829c0,0.712,0.172,1.376,0.516,1.993
		c0.348,0.616,0.812,1.091,1.401,1.427c0.588,0.335,1.234,0.503,1.938,0.503c0.702,0,1.348-0.168,1.936-0.503
		c0.589-0.336,1.056-0.811,1.401-1.427c0.347-0.617,0.519-1.281,0.519-1.993c0-1.106-0.382-2.05-1.142-2.829
		C193.812,156.943,192.907,156.553,191.858,156.553z"/>
	<path fill="#F5841F" d="M206.347,156.642l-0.816,0.843c-0.679-0.658-1.342-0.987-1.988-0.987c-0.411,0-0.765,0.137-1.06,0.407
		c-0.293,0.272-0.44,0.59-0.44,0.954c0,0.318,0.121,0.625,0.363,0.914c0.242,0.296,0.751,0.644,1.526,1.042
		c0.943,0.49,1.587,0.961,1.925,1.413c0.334,0.459,0.498,0.976,0.498,1.551c0,0.81-0.284,1.494-0.852,2.056
		c-0.57,0.562-1.28,0.843-2.134,0.843c-0.567,0-1.111-0.124-1.63-0.372c-0.516-0.247-0.944-0.589-1.283-1.023l0.798-0.905
		c0.647,0.73,1.335,1.096,2.062,1.096c0.509,0,0.941-0.163,1.299-0.49c0.356-0.325,0.535-0.709,0.535-1.149
		c0-0.363-0.117-0.686-0.354-0.97c-0.236-0.279-0.769-0.629-1.599-1.051c-0.89-0.458-1.494-0.912-1.816-1.359
		c-0.32-0.447-0.481-0.957-0.481-1.532c0-0.748,0.255-1.371,0.768-1.866c0.51-0.494,1.157-0.743,1.938-0.743
		C204.512,155.311,205.427,155.755,206.347,156.642z"/>
	<path fill="#79CCCA" d="M211.74,151.905h1.269v3.661h2.012v1.096h-2.012v8.763h-1.269v-8.763h-1.73v-1.096h1.73V151.905z"/>
</g>
<g id="Layer_3">
</g>
</svg>
