<?xml version="1.0" encoding="utf-8"?>
<!-- Generator: Adobe Illustrator 16.0.0, SVG Export Plug-In . SVG Version: 6.00 Build 0)  -->
<!DOCTYPE svg PUBLIC "-//W3C//DTD SVG 1.1//EN" "http://www.w3.org/Graphics/SVG/1.1/DTD/svg11.dtd">
<svg version="1.1" id="Layer_1" xmlns="http://www.w3.org/2000/svg" xmlns:xlink="http://www.w3.org/1999/xlink" x="0px" y="0px"
	 width="222px" height="46.584px" viewBox="0 0 222 46.584" enable-background="new 0 0 222 46.584" xml:space="preserve">
<g id="Layer_2_2_">
	<path fill="#9E9E9E" d="M31.333,14.599h-4.695c-0.551,0-1.289-0.347-1.64-0.771l-2.051-2.46c-0.351-0.421-1.09-0.768-1.639-0.768
		h-7c-0.551,0-1.263,0.365-1.585,0.812l-1.716,2.377c-0.321,0.442-1.035,0.812-1.586,0.812H4.333c-1.099,0-2,0.899-2,1.998v15.001
		c0,1.098,0.901,2,2,2h27c1.1,0,2-0.902,2-2V16.597C33.333,15.499,32.434,14.599,31.333,14.599z"/>
	<polygon fill="#FFFFFF" points="14.49,29.151 11.244,23.531 14.49,17.908 20.979,17.908 24.227,23.531 20.979,29.151 	"/>
	<g>
		<path fill="#848484" d="M136.5,16.071h3.842c3.281,0,4.621,1.46,4.621,3.979c0,2.602-1.643,4.042-4.381,4.042h-2.961v5.84H136.5
			V16.071L136.5,16.071z M140.36,23.152c2.383,0,3.4-1.041,3.4-3.02c0-2.08-0.859-3.102-3.52-3.102h-2.621v6.121H140.36z"/>
		<path fill="#848484" d="M147.461,25.032v-0.279c0-3.32,1.898-5.142,4.52-5.142c2.74,0,4.541,1.761,4.541,5.082v0.26
			c0,3.32-1.92,5.162-4.561,5.162C149.221,30.114,147.461,28.353,147.461,25.032z M155.401,25.052v-0.4c0-3-1.479-4.14-3.439-4.14
			c-2.021,0-3.4,1.44-3.4,4.14v0.422c0,2.959,1.48,4.141,3.441,4.141C154.022,29.212,155.401,27.813,155.401,25.052z"/>
		<path fill="#848484" d="M159.141,29.372v-0.881c0.82,0.361,1.641,0.68,3.08,0.68c1.84,0,2.521-0.76,2.521-1.84
			c0-1.16-0.539-1.58-1.98-1.998l-1.1-0.32c-1.5-0.42-2.4-1.08-2.4-2.721c0-1.581,1.08-2.681,3.301-2.681
			c1.299,0,2.16,0.3,2.721,0.6v0.9c-0.619-0.301-1.619-0.561-2.66-0.561c-1.561,0-2.34,0.6-2.34,1.66c0,1.04,0.479,1.48,1.738,1.839
			l1.121,0.32c1.84,0.521,2.682,1.121,2.682,2.881c0,1.721-1.16,2.842-3.48,2.842C160.981,30.093,159.899,29.792,159.141,29.372z"/>
		<path fill="#848484" d="M169.702,27.813v-7.123H168.2v-0.899h1.502v-2.399h1.078v2.399h2.762v0.899h-2.762v6.962
			c0,1.039,0.359,1.48,1.621,1.48c0.439,0,0.939-0.08,1.359-0.201v0.738c-0.359,0.182-0.859,0.361-1.641,0.361
			C170.581,30.034,169.702,29.372,169.702,27.813z"/>
	</g>
</g>
</svg>
