<?xml version="1.0" encoding="utf-8"?>
<!-- Generator: Adobe Illustrator 16.0.4, SVG Export Plug-In . SVG Version: 6.00 Build 0)  -->
<!DOCTYPE svg PUBLIC "-//W3C//DTD SVG 1.1//EN" "http://www.w3.org/Graphics/SVG/1.1/DTD/svg11.dtd">
<svg version="1.1" id="Layer_1" xmlns="http://www.w3.org/2000/svg" xmlns:xlink="http://www.w3.org/1999/xlink" x="0px" y="0px"
	 width="46px" height="46px" viewBox="0 0 46 46" enable-background="new 0 0 46 46" xml:space="preserve">
<polygon fill="#FBEE29" points="-45.444,9.027 -47.93,4.722 -45.444,0.417 -40.473,0.417 -37.987,4.722 -40.473,9.027 "/>
<polygon fill="#F6851F" points="-32.866,15.176 -35.351,10.871 -32.866,6.566 -27.895,6.566 -25.409,10.871 -27.895,15.176 "/>
<polygon fill="#EE3255" points="-27.895,27.305 -30.38,23 -27.895,18.695 -22.923,18.695 -20.438,23 -22.923,27.305 "/>
<polygon fill="#A555A1" points="-45.444,45.458 -47.929,41.153 -45.444,36.848 -40.473,36.848 -37.987,41.153 -40.473,45.458 "/>
<polygon fill="#E44A9A" points="-32.866,39.528 -35.351,35.223 -32.866,30.918 -27.895,30.918 -25.409,35.223 -27.895,39.528 "/>
<polygon fill="#69CCE2" points="-62.994,27.305 -65.479,23 -62.994,18.695 -58.022,18.695 -55.537,23 -58.022,27.305 "/>
<polygon fill="#5296D0" points="-58.023,39.528 -60.508,35.223 -58.023,30.918 -53.052,30.918 -50.566,35.223 -53.052,39.528 "/>
<polygon fill="#65BC46" points="-58.023,15.176 -60.508,10.872 -58.023,6.566 -53.052,6.566 -50.566,10.872 -53.052,15.176 "/>
<g>
	<path fill="#8C8C8C" d="M27.122,17.348c-3.832,0-6.949,3.12-6.949,6.952c0,3.829,3.117,6.946,6.949,6.946s6.95-3.117,6.95-6.946
		C34.072,20.468,30.954,17.348,27.122,17.348z"/>
	<path fill="#FFFFFF" d="M25.287,28.043c-0.844-0.752-1.386-1.833-1.386-3.053c0-2.268,1.837-4.104,4.104-4.104
		c1.26,0,2.375,0.58,3.127,1.475C28.097,22.688,25.694,25.034,25.287,28.043z"/>
	<path fill="none" stroke="#8C8C8C" stroke-miterlimit="10" d="M40.239,10.261h-2.762V7.5h-2.761v2.761H20.909
		c0-1.33-1.244-2.761-2.762-2.761h-5.522c-1.518,0-2.761,1.432-2.761,2.761H7.102c-1.518,0-2.761,1.244-2.761,2.762v22.091
		c0,1.519,1.244,2.761,2.761,2.761h33.137c1.518,0,2.761-1.243,2.761-2.761V13.023C43,11.505,41.756,10.261,40.239,10.261z
		 M10.953,19.576c-1.11,0-2.011-0.901-2.011-2.012c0-1.109,0.901-2.009,2.011-2.009s2.01,0.9,2.01,2.009
		C12.963,18.675,12.063,19.576,10.953,19.576z M27.122,34.838c-5.811,0-10.539-4.729-10.539-10.538
		c0-5.811,4.728-10.539,10.539-10.539S37.661,18.489,37.661,24.3C37.661,30.109,32.933,34.838,27.122,34.838z"/>
</g>
</svg>
