<?xml version="1.0" encoding="utf-8"?>
<!-- Generator: Adobe Illustrator 16.0.0, SVG Export Plug-In . SVG Version: 6.00 Build 0)  -->
<!DOCTYPE svg PUBLIC "-//W3C//DTD SVG 1.1//EN" "http://www.w3.org/Graphics/SVG/1.1/DTD/svg11.dtd">
<svg version="1.1" id="Layer_1" xmlns="http://www.w3.org/2000/svg" xmlns:xlink="http://www.w3.org/1999/xlink" x="0px" y="0px"
	 width="150px" height="150px" viewBox="0 0 150 150" enable-background="new 0 0 150 150" xml:space="preserve">
<circle fill="none" stroke="#535353" stroke-width="3" stroke-miterlimit="10" cx="75" cy="75" r="25"/>
<path fill="none" stroke="#535353" stroke-width="3" stroke-miterlimit="10" d="M75,30L36.028,52.5v65v1.334l22.173-25.318
	C53.164,88.941,50,82.341,50,75c0-13.807,11.192-25,25-25c13.807,0,25,11.193,25,25c0,7.341-3.164,13.941-8.202,18.516
	l22.174,25.318V117.5v-65L75,30z"/>
<path opacity="0.1" d="M75,30v20c13.807,0,25,11.193,25,25c0,7.341-3.164,13.941-8.202,18.516l22.174,25.318V117.5v-65L75,30z"/>
</svg>
