<?xml version="1.0" encoding="utf-8"?>
<!-- Generator: Adobe Illustrator 16.0.0, SVG Export Plug-In . SVG Version: 6.00 Build 0)  -->
<!DOCTYPE svg PUBLIC "-//W3C//DTD SVG 1.1//EN" "http://www.w3.org/Graphics/SVG/1.1/DTD/svg11.dtd">
<svg version="1.1" id="Layer_1" xmlns="http://www.w3.org/2000/svg" xmlns:xlink="http://www.w3.org/1999/xlink" x="0px" y="0px"
	 width="222px" height="46.584px" viewBox="0 0 222 46.584" enable-background="new 0 0 222 46.584" xml:space="preserve">
<g id="Layer_3_4_">
	<g>
		<path fill="#848484" d="M135.78,15.346h3.84c3.281,0,4.621,1.46,4.621,3.98c0,2.601-1.643,4.041-4.381,4.041h-2.961v5.842h-1.119
			V15.346z M139.639,22.428c2.381,0,3.4-1.041,3.4-3.021c0-2.08-0.861-3.101-3.521-3.101h-2.621v6.122H139.639z"/>
		<path fill="#848484" d="M147.598,19.067h1.039v1.2h0.062c0.619-0.66,1.74-1.32,3-1.32c0.221,0,0.479,0.02,0.6,0.06v0.98
			c-0.219-0.04-0.5-0.06-0.68-0.06c-1.141,0-2.221,0.5-2.941,1.141v8.142h-1.08V19.067L147.598,19.067z"/>
		<path fill="#848484" d="M154.637,24.31v-0.281c0-3.32,1.9-5.141,4.521-5.141c2.74,0,4.541,1.76,4.541,5.081v0.262
			c0,3.319-1.92,5.16-4.562,5.16C156.399,29.39,154.637,27.629,154.637,24.31z M162.581,24.328v-0.399c0-3-1.48-4.142-3.441-4.142
			c-2.02,0-3.4,1.44-3.4,4.142v0.42c0,2.961,1.48,4.141,3.439,4.141C161.2,28.487,162.581,27.088,162.581,24.328z"/>
		<path fill="#848484" d="M167.739,19.967h-1.58v-0.9h1.58v-1.701c0-2.06,1.26-3.041,2.92-3.041c0.641,0,1.02,0.1,1.361,0.22v0.8
			c-0.32-0.08-0.643-0.12-1.182-0.12c-1.24,0-2.02,0.66-2.02,2.22v1.621h5.162v10.142h-1.104v-9.242h-4.061v9.242h-1.08v-9.241
			H167.739z M172.879,15.646h1.102v1.24h-1.102V15.646z"/>
		<path fill="#848484" d="M178.12,14.426h1.1v14.783h-1.1V14.426z"/>
		<path fill="#848484" d="M182.7,24.269v-0.24c0-3.521,2.02-5.141,4.398-5.141c2.762,0,4.021,1.7,4.021,4.741v0.62h-7.32
			c0,2.92,1.279,4.201,3.84,4.201c1.361,0,2.32-0.32,3.141-0.722v0.82c-0.619,0.4-1.74,0.84-3.301,0.84
			C184.299,29.39,182.7,27.528,182.7,24.269z M183.819,23.367h6.162c0-2.38-0.941-3.58-2.924-3.58
			C185.459,19.787,183.979,20.787,183.819,23.367z"/>
	</g>
	<g>
		<g>
			<rect x="5.332" y="23.066" fill="#FFFFFF" width="26.356" height="13.814"/>
			<g>
				<path fill="#9E9E9E" d="M17.992,31.683c-4.991,0-9.497-2.119-12.66-5.513c2.373-0.771,6.881-2.487,7.575-2.796
					c1.583-0.704,1.583-2.99,1.508-3.943l-0.012-0.184l-0.125-0.124c-0.806-0.835-1.424-2.298-1.888-4.477l-0.069-0.308
					l-0.302-0.054c-0.141-0.039-0.4-0.243-0.68-0.731c-0.498-0.873-0.734-2.028-0.539-2.638c0.118-0.367,0.235-0.438,0.262-0.438
					c0.049-0.023,0.136,0.012,0.172,0.029l0.704,0.332l-0.02-0.781c-0.027-1.164-0.007-2.115,0.02-3.139
					c0.13-4.986,4.756-5.383,6.197-5.383c0.006,0,0.018,0,0.019,0c1.438,0,6.07,0.396,6.197,5.383
					c0.042,1.173,0.051,2.066,0.021,3.139l-0.021,0.781l0.714-0.332c0.027-0.018,0.109-0.053,0.169-0.029
					c0.008,0.006,0.139,0.077,0.254,0.438c0.19,0.616-0.044,1.765-0.536,2.638c-0.285,0.489-0.551,0.702-0.687,0.731l-0.296,0.06
					l-0.071,0.302c-0.462,2.179-1.081,3.648-1.898,4.483l-0.11,0.13l-0.015,0.172c-0.068,0.953-0.068,3.244,1.504,3.943
					c0.684,0.309,5.107,2.008,7.34,2.742C27.551,29.532,23.028,31.683,17.992,31.683z"/>
				<polygon fill="#9E9E9E" points="29.444,38.03 18.024,44.621 6.614,38.03 6.614,24.86 18.024,18.27 29.444,24.86 				"/>
			</g>
			<rect x="4" y="23.066" fill="#FFFFFF" width="2.615" height="15.58"/>
			<rect x="29.414" y="23.066" fill="#FFFFFF" width="2.612" height="15.58"/>
			<polygon fill="#9E9E9E" points="11.111,14.258 9.91,12.176 11.111,10.098 13.51,10.098 14.711,12.176 13.51,14.258 			"/>
			<polygon fill="#9E9E9E" points="22.696,14.258 21.494,12.173 22.696,10.095 25.094,10.095 26.296,12.173 25.094,14.258 			"/>
		</g>
		<rect x="6.614" y="38.03" fill="#FFFFFF" width="22.8" height="7.219"/>
	</g>
</g>
</svg>
