<?xml version="1.0" encoding="utf-8"?>
<!-- Generator: Adobe Illustrator 16.0.0, SVG Export Plug-In . SVG Version: 6.00 Build 0)  -->
<!DOCTYPE svg PUBLIC "-//W3C//DTD SVG 1.1//EN" "http://www.w3.org/Graphics/SVG/1.1/DTD/svg11.dtd">
<svg version="1.1" id="Layer_2_1_" xmlns="http://www.w3.org/2000/svg" xmlns:xlink="http://www.w3.org/1999/xlink" x="0px" y="0px"
	 width="144px" height="42px" viewBox="100.973 136.726 144 42" enable-background="new 100.973 136.726 144 42"
	 xml:space="preserve">
<path opacity="0.7" fill="#A9A8A8" enable-background="new    " d="M122.32,178.745c-6.815,0-12.964-2.897-17.292-7.519
	c3.238-1.064,9.402-3.395,10.344-3.817c2.16-0.972,2.163-4.095,2.063-5.395l-0.019-0.235l-0.165-0.172
	c-1.104-1.144-1.949-3.147-2.584-6.121l-0.088-0.415l-0.414-0.089c-0.19-0.043-0.545-0.327-0.928-0.993
	c-0.682-1.186-1.006-2.767-0.74-3.602c0.158-0.493,0.325-0.587,0.356-0.601c0.07-0.031,0.185,0.018,0.232,0.039l0.966,0.456
	l-0.027-1.068c-0.04-1.592-0.011-2.88,0.027-4.278c0.182-6.822,6.495-7.359,8.459-7.359c0.01,0,0.021,0,0.032,0
	c1.961,0,8.275,0.539,8.458,7.358c0.044,1.603,0.063,2.816,0.025,4.279L131,150.28l0.966-0.455c0.047-0.02,0.163-0.07,0.232-0.039
	c0.031,0.015,0.198,0.108,0.355,0.601c0.268,0.837-0.058,2.419-0.739,3.604c-0.383,0.664-0.74,0.949-0.928,0.992l-0.414,0.09
	l-0.089,0.414c-0.633,2.973-1.476,4.979-2.583,6.122l-0.164,0.171l-0.019,0.236c-0.098,1.299-0.098,4.422,2.065,5.395
	c0.926,0.415,6.958,2.733,10.018,3.726C135.369,175.81,129.182,178.745,122.32,178.745z"/>
<path fill="#EC3793" d="M174.45,152.517h2.375c1.361,0,2.279,0.058,2.754,0.177c0.682,0.168,1.236,0.512,1.67,1.032
	c0.432,0.521,0.648,1.177,0.648,1.966c0,0.794-0.211,1.45-0.631,1.964c-0.422,0.518-1.004,0.864-1.744,1.044
	c-0.541,0.127-1.551,0.193-3.029,0.193h-0.852v5.542h-1.19V152.517z M175.64,153.685v4.042l2.02,0.024
	c0.814,0,1.412-0.074,1.789-0.223c0.379-0.149,0.676-0.387,0.891-0.721c0.217-0.329,0.324-0.701,0.324-1.11
	c0-0.399-0.107-0.766-0.324-1.097c-0.215-0.331-0.5-0.566-0.854-0.707s-0.934-0.209-1.738-0.209H175.64z"/>
<path fill="#FFF100" d="M185.49,155.621h1.158v1.287c0.346-0.508,0.709-0.887,1.094-1.139c0.383-0.251,0.783-0.376,1.197-0.376
	c0.314,0,0.65,0.101,1.006,0.3l-0.59,0.956c-0.24-0.102-0.439-0.153-0.6-0.153c-0.379,0-0.744,0.154-1.096,0.466
	c-0.352,0.311-0.617,0.793-0.803,1.446c-0.141,0.503-0.211,1.519-0.211,3.048v2.981h-1.158v-8.816H185.49z"/>
<path fill="#F5841F" d="M196.846,155.393c1.357,0,2.482,0.492,3.377,1.476c0.811,0.896,1.217,1.957,1.217,3.185
	c0,1.231-0.428,2.307-1.287,3.23c-0.857,0.921-1.961,1.381-3.307,1.381c-1.354,0-2.459-0.46-3.316-1.381
	c-0.859-0.922-1.289-1.999-1.289-3.23c0-1.223,0.406-2.28,1.221-3.177C194.354,155.887,195.48,155.393,196.846,155.393z
	 M196.84,156.503c-0.943,0-1.752,0.349-2.43,1.045c-0.68,0.696-1.016,1.541-1.016,2.528c0,0.639,0.152,1.234,0.463,1.784
	c0.307,0.55,0.727,0.976,1.252,1.275c0.527,0.298,1.104,0.45,1.732,0.45s1.205-0.152,1.732-0.45c0.527-0.3,0.943-0.726,1.252-1.275
	c0.311-0.553,0.465-1.146,0.465-1.784c0-0.987-0.34-1.83-1.021-2.528C198.59,156.852,197.779,156.503,196.84,156.503z"/>
<path fill="#79CCCA" d="M208.996,152.218v1.108c-0.416-0.178-0.773-0.269-1.07-0.269c-0.221,0-0.404,0.046-0.553,0.135
	c-0.145,0.089-0.236,0.193-0.273,0.308c-0.037,0.116-0.057,0.425-0.057,0.928v1.191h1.84v0.981h-1.842l-0.008,7.834H205.9v-7.834
	h-1.16v-0.981h1.16v-1.378c0-0.633,0.057-1.082,0.172-1.353c0.117-0.271,0.314-0.487,0.592-0.651
	c0.279-0.167,0.615-0.248,1.01-0.248C208.041,151.99,208.482,152.065,208.996,152.218z"/>
<path fill="#DD5D82" d="M212.795,151.99c0.258,0,0.479,0.093,0.662,0.276c0.184,0.183,0.273,0.403,0.273,0.663
	c0,0.254-0.09,0.474-0.273,0.656c-0.184,0.184-0.404,0.276-0.662,0.276c-0.254,0-0.471-0.093-0.654-0.276
	c-0.184-0.183-0.273-0.402-0.273-0.656c0-0.26,0.09-0.48,0.273-0.663C212.324,152.083,212.541,151.99,212.795,151.99z
	 M212.232,155.621h1.135v8.814h-1.135V155.621z"/>
<path fill="#90278E" d="M217.379,152.218h1.137v12.217h-1.137V152.218z"/>
<path fill="#64BB46" d="M230.121,161.511l0.955,0.503c-0.311,0.615-0.674,1.113-1.086,1.491c-0.408,0.378-0.871,0.668-1.387,0.861
	c-0.514,0.198-1.096,0.298-1.744,0.298c-1.438,0-2.562-0.473-3.373-1.415c-0.811-0.941-1.217-2.009-1.217-3.196
	c0-1.119,0.344-2.116,1.031-2.991c0.871-1.114,2.035-1.669,3.494-1.669c1.504,0,2.705,0.57,3.602,1.709
	c0.639,0.807,0.963,1.812,0.973,3.014h-7.932c0.021,1.027,0.348,1.865,0.982,2.521c0.631,0.654,1.414,0.982,2.344,0.982
	c0.449,0,0.887-0.078,1.311-0.233c0.424-0.157,0.785-0.364,1.082-0.622S229.775,162.086,230.121,161.511z M230.121,159.137
	c-0.15-0.606-0.371-1.089-0.66-1.45c-0.289-0.364-0.674-0.654-1.148-0.878c-0.477-0.221-0.975-0.33-1.5-0.33
	c-0.867,0-1.611,0.278-2.232,0.835c-0.453,0.405-0.799,1.013-1.031,1.823H230.121L230.121,159.137z"/>
</svg>
