<?xml version="1.0" encoding="utf-8"?>
<!-- Generator: Adobe Illustrator 16.0.4, SVG Export Plug-In . SVG Version: 6.00 Build 0)  -->
<!DOCTYPE svg PUBLIC "-//W3C//DTD SVG 1.1//EN" "http://www.w3.org/Graphics/SVG/1.1/DTD/svg11.dtd">
<svg version="1.1" id="Layer_1" xmlns="http://www.w3.org/2000/svg" xmlns:xlink="http://www.w3.org/1999/xlink" x="0px" y="0px"
	 width="350.945px" height="122.452px" viewBox="-169.833 22 350.945 122.452" enable-background="new -169.833 22 350.945 122.452"
	 xml:space="preserve">
<g id="Layer_1_1_" display="none">
	<polygon display="inline" fill="#FBED27" points="70.074,47.705 65.108,39.103 70.074,30.5 80.009,30.5 84.975,39.103 
		80.009,47.705 	"/>
	<polygon display="inline" fill="#F5841F" points="95.209,59.992 90.241,51.389 95.209,42.787 105.141,42.787 110.105,51.389 
		105.141,59.992 	"/>
	<polygon display="inline" fill="#ED3154" points="105.141,84.227 100.176,75.624 105.141,67.022 115.072,67.022 120.041,75.624 
		115.072,84.227 	"/>
	<polygon display="inline" fill="#A454A0" points="70.075,120.5 65.109,111.896 70.075,103.294 80.009,103.294 84.975,111.896 
		80.009,120.5 	"/>
	<polygon display="inline" fill="#E34A99" points="95.209,108.648 90.241,100.047 95.209,91.445 105.141,91.445 110.105,100.047 
		105.141,108.648 	"/>
	<polygon display="inline" fill="#68CBE1" points="35.008,84.227 30.043,75.623 35.008,67.022 44.942,67.022 49.907,75.623 
		44.942,84.227 	"/>
	<polygon display="inline" fill="#5295CF" points="44.941,108.648 39.975,100.047 44.941,91.445 54.874,91.445 59.84,100.047 
		54.874,108.648 	"/>
	<polygon display="inline" fill="#64BB46" points="44.941,59.992 39.975,51.39 44.941,42.787 54.874,42.787 59.84,51.39 
		54.874,59.992 	"/>
</g>
<g id="Layer_2" display="none">
	<g display="inline">
		<polygon fill="#ADADAD" points="-153.196,89.208 -167.833,63.853 -153.196,38.499 -123.919,38.499 -109.282,63.853 
			-123.919,89.208 		"/>
		<polygon fill="#ADADAD" points="-167.833,63.853 -138.558,121.716 -109.282,63.853 		"/>
	</g>
	<polygon display="inline" opacity="0.05" enable-background="new    " points="-167.833,63.853 -138.558,121.716 -135.314,115.307 
		-158.855,65.995 	"/>
	<polyline display="inline" opacity="0.1" fill="#FFFFFF" enable-background="new    " points="-148.637,45.087 -153.196,38.499 
		-167.833,63.853 -158.855,65.995 	"/>
</g>
<g>
	<polygon opacity="0.8" fill="#EC3793" points="230.52,-51.132 250.053,45.106 283.824,144.452 260.338,-1.99 	"/>
	<polygon opacity="0.8" fill="#FFF100" points="156.674,-39.8 167.639,-96.307 234.545,-96.309 246.24,-53.546 	"/>
	<polygon opacity="0.7" fill="#79CCCA" points="127.678,-96.309 137.855,-76.706 156.674,-39.8 223.693,-76.177 234.545,-96.309 	
		"/>
	<polygon opacity="0.8" fill="#DD5D82" points="223.693,-76.177 234.545,-96.309 260.338,-1.99 255.955,42.194 	"/>
	<polygon opacity="0.7" fill="#D91C5C" points="371.143,-15.282 382.391,4.247 387.289,13.927 325.475,4.247 314.293,-15.282 	"/>
	<polygon opacity="0.5" fill="#90278E" points="283.824,144.452 255.955,42.194 260.338,-1.99 285.434,89.772 286.906,144.452 	"/>
	<polygon opacity="0.7" fill="#F5841F" points="250.053,45.106 206.649,-66.925 223.693,-76.177 230.513,-51.132 	"/>
	<polygon opacity="0.7" fill="#EC3793" points="314.293,68.263 336.035,5.774 325.475,4.247 322.689,14.086 	"/>
	<polygon opacity="0.7" fill="#F5841F" points="387.289,13.927 306.27,13.927 314.293,-15.282 328.172,-15.282 	"/>
	<polyline fill="#79CCCA" points="156.674,-39.8 49.667,-39.8 127.678,-96.309 	"/>
	<polygon opacity="0.8" fill="#79CCCA" points="286.906,144.452 314.293,68.263 322.75,13.974 296.766,48.521 290.029,73.04 	"/>
	<polygon opacity="0.7" fill="#64BB46" points="286.906,144.452 283.824,144.452 285.434,89.772 296.193,50.606 294.461,69.96 
		310.455,58.845 	"/>
	<polygon opacity="0.7" fill="#FFF100" points="314.293,-15.282 325.475,4.247 310.455,58.845 290.029,73.04 	"/>
	<polygon opacity="0.8" fill="#D91C5C" points="371.143,-15.282 376.969,-5.168 381.1,2.006 382.391,4.247 384.76,8.927 
		387.289,13.927 430.334,13.974 	"/>
</g>
<path display="none" opacity="0.8" fill="#FFF100" d="M44.244,90.936l3.032-21.174h0.344l8.607,17.373l8.525-17.373h0.339
	l3.047,21.174h-2.075l-2.092-15.143l-7.487,15.143h-0.541l-7.576-15.258l-2.08,15.258H44.244z"/>
<path display="none" fill="#64BB46" d="M90.812,75.274v15.661h-1.986v-2.692c-0.844,1.027-1.792,1.8-2.843,2.317
	c-1.051,0.519-2.2,0.777-3.447,0.777c-2.217,0-4.109-0.804-5.679-2.41c-1.568-1.607-2.354-3.562-2.354-5.866
	c0-2.255,0.792-4.184,2.375-5.786c1.584-1.603,3.488-2.404,5.715-2.404c1.286,0,2.449,0.273,3.49,0.82
	c1.041,0.548,1.955,1.368,2.742,2.462v-2.879H90.812z M82.76,76.814c-1.122,0-2.157,0.276-3.105,0.826
	c-0.949,0.553-1.704,1.326-2.266,2.323c-0.561,0.996-0.84,2.051-0.84,3.163c0,1.102,0.282,2.156,0.848,3.163
	c0.565,1.006,1.325,1.79,2.279,2.351c0.953,0.561,1.977,0.841,3.069,0.841c1.103,0,2.147-0.278,3.134-0.834
	c0.987-0.557,1.747-1.309,2.279-2.257c0.531-0.949,0.798-2.018,0.798-3.207c0-1.811-0.597-3.326-1.79-4.543
	S84.504,76.814,82.76,76.814z"/>
<path display="none" opacity="0.8" fill="#D81D34" d="M98.618,75.274h2.015v2.879c0.796-1.094,1.711-1.914,2.747-2.462
	c1.035-0.546,2.19-0.82,3.466-0.82c2.225,0,4.127,0.801,5.707,2.404c1.582,1.603,2.373,3.531,2.373,5.786
	c0,2.304-0.783,4.259-2.352,5.866c-1.566,1.606-3.457,2.41-5.671,2.41c-1.247,0-2.394-0.259-3.438-0.777
	c-1.045-0.518-1.989-1.29-2.833-2.317v8.421h-2.015V75.274z M106.678,76.814c-1.742,0-3.209,0.609-4.4,1.826
	c-1.193,1.217-1.788,2.732-1.788,4.543c0,1.189,0.266,2.258,0.797,3.207c0.531,0.948,1.292,1.7,2.283,2.257
	c0.991,0.556,2.037,0.834,3.138,0.834c1.082,0,2.099-0.28,3.051-0.841c0.953-0.561,1.712-1.345,2.277-2.351
	c0.564-1.007,0.847-2.062,0.847-3.163c0-1.112-0.279-2.167-0.84-3.163c-0.56-0.997-1.314-1.771-2.263-2.323
	C108.832,77.091,107.799,76.814,106.678,76.814z"/>
<path display="none" opacity="0.7" fill="#A9A8A8" enable-background="new    " d="M-86.79,109.962l-23.631-23.63
	c4.038-5.349,6.462-11.987,6.462-19.205c0-17.639-14.297-31.937-31.938-31.937c-17.636,0-31.937,14.299-31.937,31.938
	c0,17.638,14.301,31.937,31.938,31.937c7.996,0,15.286-2.958,20.891-7.812l23.462,23.463L-86.79,109.962z M-164.472,67.128
	c0-15.757,12.818-28.575,28.575-28.575c15.755,0,28.576,12.818,28.576,28.575c0,15.758-12.821,28.575-28.576,28.575
	C-151.654,95.701-164.472,82.886-164.472,67.128z"/>
<path display="none" fill="#79CCCA" d="M44.436,87.604l1.945-1.167c1.37,2.521,2.952,3.782,4.747,3.782
	c0.768,0,1.489-0.18,2.164-0.537c0.674-0.358,1.188-0.838,1.541-1.44c0.353-0.602,0.529-1.239,0.529-1.914
	c0-0.768-0.26-1.52-0.778-2.257c-0.716-1.017-2.023-2.241-3.922-3.674c-1.909-1.441-3.097-2.484-3.564-3.128
	c-0.809-1.079-1.214-2.246-1.214-3.502c0-0.996,0.239-1.904,0.716-2.724c0.478-0.82,1.149-1.466,2.016-1.938
	c0.867-0.472,1.808-0.708,2.825-0.708c1.079,0,2.088,0.267,3.027,0.801c0.939,0.535,1.932,1.518,2.98,2.95l-1.868,1.417
	c-0.861-1.142-1.595-1.894-2.202-2.257c-0.607-0.363-1.269-0.545-1.985-0.545c-0.923,0-1.678,0.28-2.265,0.84
	c-0.586,0.561-0.879,1.25-0.879,2.07c0,0.498,0.104,0.98,0.312,1.447c0.208,0.467,0.586,0.975,1.136,1.526
	c0.301,0.29,1.287,1.053,2.957,2.287c1.982,1.463,3.341,2.766,4.078,3.907c0.736,1.142,1.105,2.288,1.105,3.439
	c0,1.66-0.63,3.103-1.891,4.327s-2.794,1.837-4.599,1.837c-1.391,0-2.651-0.371-3.782-1.113
	C46.433,90.59,45.391,89.347,44.436,87.604z"/>
<path display="none" fill="#EC3793" d="M80.083,86.249l1.837,0.966c-0.603,1.183-1.299,2.138-2.088,2.863
	c-0.789,0.727-1.678,1.279-2.664,1.658c-0.986,0.378-2.103,0.567-3.349,0.567c-2.763,0-4.923-0.905-6.481-2.716
	c-1.558-1.811-2.337-3.857-2.337-6.141c0-2.147,0.66-4.062,1.979-5.742c1.672-2.139,3.91-3.207,6.714-3.207
	c2.887,0,5.193,1.095,6.917,3.284c1.225,1.546,1.848,3.477,1.869,5.79H67.242c0.042,1.967,0.67,3.579,1.886,4.837
	s2.717,1.887,4.504,1.887c0.862,0,1.701-0.149,2.517-0.449c0.815-0.3,1.509-0.698,2.08-1.194S79.418,87.355,80.083,86.249z
	 M80.083,81.688c-0.29-1.161-0.714-2.091-1.271-2.786c-0.556-0.694-1.291-1.255-2.205-1.68c-0.914-0.426-1.875-0.639-2.882-0.639
	c-1.663,0-3.091,0.534-4.286,1.604c-0.873,0.777-1.533,1.945-1.979,3.501H80.083z"/>
<path display="none" fill="#F5841F" d="M106.92,74.934v16.934h-2.146v-2.91c-0.914,1.11-1.938,1.945-3.074,2.506
	c-1.137,0.56-2.379,0.84-3.729,0.84c-2.396,0-4.443-0.869-6.14-2.606c-1.696-1.738-2.545-3.853-2.545-6.343
	c0-2.438,0.856-4.524,2.567-6.257c1.713-1.733,3.772-2.6,6.18-2.6c1.391,0,2.648,0.296,3.774,0.887s2.114,1.478,2.966,2.662v-3.113
	H106.92z M98.213,76.6c-1.213,0-2.332,0.298-3.359,0.894c-1.025,0.597-1.842,1.433-2.448,2.511s-0.909,2.219-0.909,3.421
	c0,1.191,0.306,2.332,0.917,3.42c0.612,1.088,1.433,1.936,2.464,2.542s2.139,0.909,3.32,0.909c1.191,0,2.32-0.301,3.389-0.901
	c1.067-0.602,1.889-1.415,2.464-2.44c0.575-1.026,0.862-2.183,0.862-3.468c0-1.958-0.645-3.596-1.936-4.912
	C101.688,77.258,100.099,76.6,98.213,76.6z"/>
<path display="none" fill="#FFF100" d="M114.505,74.934h2.226v2.474c0.664-0.975,1.365-1.703,2.102-2.187
	c0.736-0.482,1.504-0.724,2.303-0.724c0.603,0,1.246,0.192,1.931,0.576l-1.136,1.836c-0.457-0.196-0.841-0.295-1.152-0.295
	c-0.727,0-1.427,0.298-2.102,0.895c-0.674,0.597-1.188,1.523-1.541,2.778c-0.27,0.965-0.404,2.916-0.404,5.853v5.728h-2.226V74.934z
	"/>
<path display="none" fill="#DD5D82" d="M144.643,78.451l-1.728,1.074c-1.492-1.982-3.529-2.973-6.11-2.973
	c-2.062,0-3.774,0.664-5.138,1.99s-2.044,2.938-2.044,4.835c0,1.233,0.313,2.395,0.94,3.482s1.487,1.933,2.58,2.534
	c1.094,0.601,2.319,0.901,3.677,0.901c2.487,0,4.52-0.99,6.095-2.973l1.728,1.137c-0.81,1.219-1.896,2.164-3.261,2.836
	s-2.918,1.008-4.662,1.008c-2.677,0-4.897-0.851-6.661-2.553c-1.765-1.701-2.646-3.771-2.646-6.21c0-1.64,0.413-3.162,1.238-4.568
	c0.824-1.406,1.958-2.503,3.4-3.291c1.442-0.789,3.056-1.184,4.841-1.184c1.12,0,2.202,0.171,3.245,0.514s1.927,0.789,2.653,1.338
	C143.517,76.9,144.134,77.601,144.643,78.451z"/>
<path display="none" fill="#90278E" d="M152.335,68.397h2.18v9.572c0.882-1.162,1.852-2.031,2.91-2.607s2.205-0.864,3.439-0.864
	c1.267,0,2.39,0.322,3.37,0.965c0.98,0.643,1.704,1.507,2.171,2.591c0.468,1.084,0.701,2.783,0.701,5.098v8.716h-2.18V83.79
	c0-1.95-0.077-3.253-0.233-3.907c-0.27-1.12-0.76-1.963-1.471-2.529c-0.711-0.564-1.642-0.848-2.794-0.848
	c-1.317,0-2.498,0.436-3.541,1.308s-1.73,1.95-2.062,3.237c-0.207,0.83-0.311,2.366-0.311,4.607v6.21h-2.18V68.397z"/>
<g display="none">
	<path display="inline" opacity="0.7" fill="#A9A8A8" enable-background="new    " d="M-85.485,56.391h-13.261
		c-1.554,0-3.64-0.977-4.631-2.172l-5.793-6.954c-0.997-1.19-3.082-2.169-4.635-2.169h-19.773c-1.553,0-3.568,1.028-4.477,2.292
		l-4.847,6.715c-0.909,1.256-2.926,2.289-4.479,2.289h-14.368c-3.108,0-5.651,2.539-5.651,5.647v42.372
		c0,3.106,2.544,5.649,5.651,5.649h76.264c3.11,0,5.651-2.543,5.651-5.649V62.039C-79.834,58.929-82.375,56.391-85.485,56.391z"/>
	<circle display="inline" fill="#FFFFFF" cx="-99.607" cy="64.863" r="2.825"/>
	<path display="inline" fill="#FFFFFF" d="M-123.617,64.646c-9.345,0-16.949,7.601-16.949,16.948
		c0,9.346,7.604,16.949,16.949,16.949s16.949-7.604,16.949-16.949C-106.668,72.248-114.272,64.646-123.617,64.646z"/>
</g>
<path display="none" fill="#64BB46" d="M46.284,69.669h4.408c2.528,0,4.233,0.11,5.116,0.331c1.264,0.311,2.297,0.951,3.1,1.919
	c0.803,0.968,1.204,2.184,1.204,3.648c0,1.475-0.392,2.691-1.174,3.649s-1.86,1.603-3.235,1.934
	c-1.003,0.241-2.879,0.361-5.627,0.361h-1.58v10.292h-2.212V69.669z M48.496,71.835v7.508l3.746,0.045
	c1.515,0,2.624-0.137,3.326-0.412s1.254-0.721,1.655-1.337c0.4-0.616,0.602-1.304,0.602-2.065c0-0.74-0.201-1.418-0.602-2.034
	c-0.401-0.616-0.931-1.054-1.588-1.314s-1.733-0.391-3.228-0.391H48.496z"/>
<path display="none" fill="#D81D3C" d="M75.329,75.01c2.521,0,4.612,0.914,6.271,2.739c1.507,1.665,2.261,3.636,2.261,5.913
	c0,2.287-0.797,4.286-2.39,5.996c-1.593,1.711-3.64,2.565-6.142,2.565c-2.513,0-4.565-0.854-6.158-2.565
	c-1.593-1.71-2.389-3.709-2.389-5.996c0-2.267,0.753-4.232,2.261-5.898C70.701,75.928,72.796,75.01,75.329,75.01z M75.321,77.072
	c-1.752,0-3.257,0.646-4.516,1.94c-1.258,1.294-1.887,2.858-1.887,4.694c0,1.185,0.286,2.287,0.86,3.311s1.349,1.813,2.325,2.37
	s2.049,0.835,3.217,0.835c1.167,0,2.239-0.278,3.216-0.835s1.752-1.347,2.326-2.37c0.573-1.023,0.86-2.126,0.86-3.311
	c0-1.836-0.632-3.4-1.896-4.694S77.062,77.072,75.321,77.072z"/>
<path display="none" fill="#F5841F" d="M99.379,77.223l-1.355,1.398c-1.127-1.093-2.227-1.64-3.303-1.64
	c-0.684,0-1.27,0.226-1.758,0.677s-0.732,0.979-0.732,1.58c0,0.532,0.201,1.039,0.604,1.52c0.402,0.492,1.246,1.068,2.533,1.73
	c1.568,0.812,2.635,1.596,3.197,2.348c0.553,0.763,0.828,1.62,0.828,2.573c0,1.344-0.471,2.482-1.416,3.415
	c-0.945,0.934-2.125,1.399-3.541,1.399c-0.945,0-1.846-0.205-2.705-0.616s-1.57-0.979-2.133-1.7l1.324-1.505
	c1.076,1.214,2.217,1.82,3.424,1.82c0.844,0,1.562-0.271,2.156-0.812s0.891-1.179,0.891-1.911c0-0.602-0.197-1.138-0.588-1.609
	c-0.393-0.462-1.277-1.044-2.654-1.746c-1.479-0.762-2.483-1.515-3.017-2.257c-0.532-0.742-0.799-1.59-0.799-2.543
	c0-1.244,0.424-2.277,1.274-3.1c0.848-0.822,1.92-1.234,3.217-1.234C96.334,75.01,97.852,75.748,99.379,77.223z"/>
<path display="none" fill="#79CCCA" d="M108.335,69.353h2.107v6.079h3.34v1.82h-3.34v14.551h-2.107V77.252h-2.873v-1.82h2.873
	V69.353z"/>
<path opacity="0.7" fill="#A9A8A8" enable-background="new    " d="M-128.695,119.983c-14.212,0-27.034-6.04-36.061-15.679
	c6.754-2.221,19.608-7.079,21.573-7.962c4.504-2.024,4.511-8.539,4.302-11.248l-0.038-0.494l-0.344-0.356
	c-2.304-2.387-4.064-6.564-5.389-12.765l-0.184-0.864l-0.863-0.189c-0.395-0.089-1.138-0.681-1.936-2.071
	c-1.421-2.471-2.099-5.77-1.543-7.51c0.331-1.029,0.678-1.224,0.744-1.255c0.146-0.063,0.386,0.037,0.483,0.083l2.016,0.952
	l-0.057-2.229c-0.083-3.318-0.023-6.005,0.055-8.923c0.38-14.226,13.546-15.347,17.641-15.347c0.021,0,0.043,0,0.067,0
	c4.092,0,17.258,1.124,17.639,15.346c0.091,3.343,0.13,5.875,0.053,8.924l-0.053,2.226l2.014-0.95
	c0.098-0.042,0.339-0.147,0.483-0.083c0.066,0.032,0.414,0.226,0.742,1.255c0.557,1.743-0.121,5.043-1.542,7.512
	c-0.798,1.388-1.542,1.981-1.935,2.069l-0.864,0.191l-0.185,0.863c-1.319,6.2-3.079,10.379-5.387,12.766l-0.344,0.355l-0.036,0.495
	c-0.206,2.708-0.205,9.223,4.306,11.248c1.931,0.866,14.509,5.702,20.893,7.771C-101.48,113.864-114.383,119.983-128.695,119.983z"
	/>
<path fill="#EC3793" d="M46.556,69.652h4.361c2.501,0,4.188,0.109,5.061,0.327c1.25,0.308,2.272,0.94,3.066,1.898
	c0.794,0.957,1.191,2.16,1.191,3.609c0,1.459-0.387,2.662-1.161,3.609c-0.774,0.948-1.841,1.586-3.2,1.913
	c-0.993,0.238-2.848,0.357-5.567,0.357h-1.563v10.182h-2.188V69.652z M48.744,71.796v7.428l3.707,0.044
	c1.499,0,2.595-0.136,3.29-0.408c0.694-0.272,1.24-0.713,1.637-1.322c0.397-0.608,0.595-1.29,0.595-2.042
	c0-0.733-0.198-1.404-0.595-2.014c-0.397-0.608-0.92-1.042-1.57-1.3c-0.65-0.257-1.714-0.386-3.193-0.386H48.744z"/>
<path fill="#FFF100" d="M66.834,75.354h2.129v2.366c0.635-0.933,1.305-1.63,2.009-2.091c0.705-0.462,1.439-0.692,2.203-0.692
	c0.576,0,1.191,0.184,1.846,0.551l-1.086,1.756c-0.437-0.188-0.804-0.282-1.102-0.282c-0.695,0-1.365,0.285-2.01,0.855
	c-0.645,0.571-1.136,1.457-1.474,2.657c-0.258,0.923-0.387,2.789-0.387,5.598v5.478h-2.129V75.354z"/>
<path fill="#F5841F" d="M87.693,74.937c2.495,0,4.563,0.903,6.203,2.709c1.491,1.647,2.237,3.598,2.237,5.85
	c0,2.263-0.788,4.24-2.363,5.933c-1.576,1.692-3.602,2.538-6.077,2.538c-2.485,0-4.516-0.846-6.092-2.538
	c-1.575-1.692-2.363-3.67-2.363-5.933c0-2.242,0.745-4.188,2.237-5.835C83.115,75.845,85.188,74.937,87.693,74.937z M87.686,76.976
	c-1.732,0-3.222,0.64-4.466,1.92c-1.245,1.28-1.867,2.829-1.867,4.645c0,1.171,0.283,2.263,0.852,3.275
	c0.567,1.012,1.334,1.793,2.3,2.344s2.026,0.826,3.182,0.826s2.216-0.275,3.183-0.826c0.966-0.551,1.732-1.332,2.3-2.344
	c0.568-1.013,0.852-2.104,0.852-3.275c0-1.815-0.625-3.364-1.874-4.645C90.896,77.615,89.409,76.976,87.686,76.976z"/>
<path fill="#79CCCA" d="M110.012,69.102v2.039c-0.765-0.327-1.42-0.491-1.965-0.491c-0.407,0-0.744,0.082-1.013,0.245
	c-0.268,0.164-0.437,0.353-0.506,0.566c-0.069,0.213-0.104,0.781-0.104,1.704l-0.002,2.188h3.381v1.801h-3.382l-0.012,14.395h-2.084
	V77.154h-2.129v-1.801h2.129v-2.531c0-1.161,0.106-1.989,0.32-2.485c0.213-0.496,0.575-0.896,1.086-1.198
	c0.512-0.303,1.129-0.454,1.854-0.454C108.26,68.685,109.068,68.823,110.012,69.102z"/>
<path fill="#DD5D82" d="M116.99,68.685c0.475,0,0.88,0.169,1.216,0.506c0.336,0.338,0.504,0.744,0.504,1.221
	c0,0.467-0.168,0.868-0.504,1.206c-0.336,0.337-0.741,0.506-1.216,0.506c-0.464,0-0.864-0.169-1.2-0.506
	c-0.336-0.338-0.504-0.739-0.504-1.206c0-0.477,0.168-0.883,0.504-1.221C116.126,68.854,116.526,68.685,116.99,68.685z
	 M115.956,75.354h2.084v16.195h-2.084V75.354z"/>
<path fill="#90278E" d="M125.412,69.102h2.084v22.447h-2.084V69.102z"/>
<path fill="#64BB46" d="M148.817,86.175l1.756,0.923c-0.576,1.132-1.241,2.045-1.996,2.739s-1.604,1.224-2.548,1.585
	c-0.944,0.362-2.012,0.544-3.204,0.544c-2.642,0-4.708-0.866-6.197-2.598c-1.49-1.731-2.235-3.689-2.235-5.873
	c0-2.054,0.631-3.885,1.893-5.492c1.599-2.045,3.739-3.066,6.421-3.066c2.762,0,4.967,1.047,6.615,3.141
	c1.172,1.479,1.769,3.324,1.788,5.537h-14.573c0.04,1.882,0.641,3.424,1.804,4.627c1.162,1.203,2.598,1.804,4.307,1.804
	c0.825,0,1.627-0.143,2.407-0.43c0.78-0.286,1.443-0.667,1.989-1.142C147.59,87.999,148.181,87.232,148.817,86.175z M148.817,81.813
	c-0.278-1.111-0.684-2-1.215-2.664c-0.532-0.665-1.235-1.201-2.109-1.608c-0.874-0.406-1.793-0.61-2.757-0.61
	c-1.59,0-2.956,0.512-4.099,1.533c-0.835,0.744-1.466,1.861-1.894,3.35H148.817z"/>
</svg>
