<?xml version="1.0" encoding="utf-8"?>
<!-- Generator: Adobe Illustrator 16.0.4, SVG Export Plug-In . SVG Version: 6.00 Build 0)  -->
<!DOCTYPE svg PUBLIC "-//W3C//DTD SVG 1.1//EN" "http://www.w3.org/Graphics/SVG/1.1/DTD/svg11.dtd">
<svg version="1.1" id="Layer_1" xmlns="http://www.w3.org/2000/svg" xmlns:xlink="http://www.w3.org/1999/xlink" x="0px" y="0px"
	 width="150px" height="150px" viewBox="0 0 150 150" enable-background="new 0 0 150 150" xml:space="preserve">
<path opacity="0.7" fill="#A9A8A8" d="M74.839,148c-24.167,0-45.972-10.271-61.321-26.662c11.486-3.776,33.344-12.036,36.685-13.539
	c7.66-3.442,7.671-14.522,7.314-19.125l-0.063-0.843l-0.585-0.604c-3.918-4.061-6.912-11.163-9.164-21.708l-0.311-1.469
	l-1.468-0.324c-0.671-0.15-1.935-1.158-3.293-3.521c-2.416-4.201-3.569-9.81-2.623-12.77c0.562-1.75,1.151-2.081,1.265-2.134
	c0.247-0.108,0.656,0.062,0.82,0.142l3.429,1.62l-0.097-3.791c-0.141-5.641-0.04-10.211,0.093-15.175
	C46.166,3.906,68.556,2,75.519,2c0.036,0,0.074,0,0.114,0c6.958,0,29.347,1.912,29.995,26.096c0.155,5.686,0.219,9.99,0.091,15.175
	l-0.091,3.786l3.425-1.615c0.165-0.074,0.575-0.25,0.821-0.142c0.114,0.053,0.703,0.384,1.263,2.134
	c0.945,2.964-0.205,8.575-2.623,12.774c-1.358,2.359-2.621,3.367-3.29,3.517l-1.47,0.324l-0.314,1.469
	c-2.243,10.545-5.238,17.647-9.16,21.708l-0.585,0.604l-0.063,0.843c-0.35,4.603-0.347,15.683,7.323,19.125
	c3.284,1.473,24.671,9.698,35.527,13.215C121.118,137.594,99.176,148,74.839,148z"/>
<polygon fill="#A9A8A8" points="133.253,313.166 96.315,249.188 133.253,185.207 207.132,185.207 244.069,249.188 207.132,313.166 
	"/>
<g>
	<path fill="#FFFFFF" d="M218.15,214.871h-16.679c-1.954,0-4.577-1.228-5.825-2.731l-7.285-8.745
		c-1.253-1.497-3.876-2.728-5.829-2.728h-24.868c-1.952,0-4.487,1.293-5.63,2.88l-6.096,8.446c-1.145,1.579-3.681,2.878-5.634,2.878
		h-18.069c-3.907,0-7.107,3.193-7.107,7.104v53.288c0,3.905,3.2,7.104,7.107,7.104h95.915c3.911,0,7.106-3.199,7.106-7.104v-53.288
		C225.257,218.064,222.062,214.871,218.15,214.871z M221.703,275.263c0,1.956-1.592,3.552-3.553,3.552h-95.915
		c-1.958,0-3.554-1.596-3.554-3.552v-53.288c0-1.961,1.596-3.553,3.554-3.553h18.069c3.112,0,6.692-1.831,8.514-4.352l6.096-8.444
		c0.472-0.658,1.939-1.406,2.75-1.406h24.868c0.902,0,2.521,0.759,3.099,1.45l7.285,8.748c1.935,2.318,5.534,4.004,8.556,4.004
		h16.679c1.961,0,3.553,1.592,3.553,3.553V275.263z"/>
	<rect x="127.562" y="206.283" fill="#FFFFFF" width="9.476" height="5.034"/>
	<circle fill="#FFFFFF" cx="200.389" cy="225.527" r="3.553"/>
	<path fill="#FFFFFF" d="M170.192,225.256c-11.753,0-21.314,9.56-21.314,21.314c0,11.752,9.562,21.315,21.314,21.315
		s21.315-9.563,21.315-21.315C191.508,234.815,181.945,225.256,170.192,225.256z M170.192,264.333
		c-9.793,0-17.763-7.97-17.763-17.763c0-9.795,7.97-17.762,17.763-17.762c9.794,0,17.763,7.967,17.763,17.762
		C187.955,256.363,179.986,264.333,170.192,264.333z"/>
</g>
<polygon opacity="0.03" points="173.109,-37.433 169.576,-36.695 159.012,-28.621 "/>
<polygon fill="#65BC46" points="156.632,-39.876 171.295,-32.079 171.877,-15.484 157.793,-6.682 143.131,-14.475 142.548,-31.072 
	"/>
<polygon opacity="0.07" points="167.723,-29.847 153.761,-38.081 156.632,-39.876 171.295,-32.079 "/>
<polygon opacity="0.12" fill="#FFFFFF" points="171.877,-15.484 168.344,-14.747 167.723,-29.847 171.295,-32.079 "/>
<polygon opacity="0.03" points="171.877,-15.484 168.344,-14.747 157.793,-6.682 "/>
<polygon fill="#65BC46" points="171.877,-15.484 171.295,-32.079 185.735,-42.515 "/>
<polygon opacity="0.12" fill="#FFFFFF" points="171.877,-15.484 171.295,-32.079 185.735,-42.515 "/>
<polygon fill="#65BC46" points="156.632,-39.876 185.735,-42.515 171.295,-32.079 "/>
<polygon opacity="0.07" points="156.632,-39.876 185.735,-42.515 171.295,-32.079 "/>
<polygon opacity="0.03" points="189.847,-49.032 185.975,-47.606 170.837,-49.032 "/>
<polyline fill="#DE5D83" points="242.406,-26.811 214.24,-51.757 228.285,-51.273 "/>
<g>
	<polygon fill="#DE5D83" points="242.406,-75.734 214.24,-51.757 228.285,-51.273 	"/>
	<g>
		<polygon fill="#DE5D83" points="242.406,-26.811 228.285,-51.273 242.406,-75.734 270.653,-75.734 284.775,-51.273 
			270.653,-26.811 		"/>
		<polygon opacity="0.07" points="235.452,-51.273 248.162,-26.811 242.406,-26.811 228.285,-51.273 		"/>
		<polygon opacity="0.12" fill="#FFFFFF" points="242.406,-75.734 248.162,-73.616 235.452,-51.273 228.285,-51.273 		"/>
		<polygon opacity="0.03" points="242.406,-75.734 248.162,-73.616 270.653,-75.734 		"/>
		<polygon opacity="0.12" fill="#FFFFFF" points="242.406,-75.734 228.285,-51.273 214.24,-51.757 		"/>
		<polygon opacity="0.07" points="214.24,-51.757 228.285,-51.273 242.406,-26.811 		"/>
	</g>
</g>
<polygon opacity="0.03" points="175.35,-69.57 171.478,-68.146 156.356,-69.57 "/>
<polygon fill="#ED3794" points="166.285,-76.131 190.312,-46.06 169.749,-55.377 "/>
<polygon fill="#ED3794" points="153.506,-41.997 190.312,-46.06 169.749,-55.377 "/>
<polygon fill="#ED3794" points="153.506,-41.997 169.749,-55.377 166.285,-76.131 146.575,-83.51 130.334,-70.134 133.796,-49.376 
	"/>
<polygon opacity="0.07" points="164.746,-57.246 149.487,-43.501 153.506,-41.997 169.749,-55.377 "/>
<polygon opacity="0.12" fill="#FFFFFF" points="166.285,-76.131 161.712,-76.156 164.746,-57.246 169.749,-55.377 "/>
<g opacity="0.9">
	<polygon opacity="0.11" fill="#FFFFFF" points="166.285,-76.131 169.749,-55.377 190.312,-46.06 	"/>
	<polygon opacity="0.07" points="153.506,-41.997 190.312,-46.06 169.749,-55.377 	"/>
</g>
<polygon opacity="0.02" points="213.028,-40.146 221.153,-28.68 210.249,-2.623 "/>
<polygon fill="#FBEE29" points="205.121,-6.561 219.99,-30.579 248.221,-29.712 261.588,-4.828 246.723,19.189 218.487,18.321 "/>
<polygon fill="#FBEE29" points="248.259,-29.512 220.027,-30.377 213.809,-42.98 "/>
<polygon opacity="0.03" points="248.259,-29.512 220.027,-30.377 213.809,-42.98 "/>
<polygon fill="#FBEE29" points="213.809,-42.98 220.027,-30.377 205.158,-6.361 "/>
<polygon opacity="0.02" points="220.027,-30.377 223.42,-24.064 251.186,-24.064 248.259,-29.512 "/>
<polyline opacity="0.1" fill="none" stroke="#FFFFFF" stroke-width="6" stroke-miterlimit="10" points="218.487,18.321 
	207.922,-1.347 223.42,-24.064 "/>
<g>
	<polygon opacity="0.08" fill="#FFFFFF" points="223.42,-24.064 207.883,-1.291 205.158,-6.361 220.027,-30.377 	"/>
	<polygon opacity="0.11" fill="#FFFFFF" points="213.809,-42.98 220.027,-30.377 205.158,-6.361 	"/>
</g>
<polygon fill="#F6851F" points="198.249,-3.171 207.513,-19.216 198.249,-35.262 179.721,-35.262 170.457,-19.216 179.721,-3.171 
	"/>
<polygon fill="#F6851F" points="207.513,-19.216 206.231,-43.161 198.249,-35.262 "/>
<polygon opacity="0.07" points="207.513,-19.216 206.231,-43.161 198.249,-35.262 "/>
<polygon fill="#F6851F" points="179.721,-35.262 206.231,-43.161 198.249,-35.262 "/>
<polygon opacity="0.03" points="179.721,-35.262 206.231,-43.161 198.249,-35.262 "/>
<polygon fill="#EE3255" points="196.318,-61.877 203.996,-44.462 195.512,-47.194 "/>
<polygon fill="#EE3255" points="182.391,-40.55 203.996,-44.462 195.512,-47.194 "/>
<g>
	<polygon fill="#EE3255" points="184.005,-69.919 196.318,-61.877 195.512,-47.194 182.391,-40.55 170.078,-48.591 170.884,-63.275 
			"/>
	<polygon opacity="0.03" points="196.318,-61.877 203.996,-44.462 195.512,-47.194 	"/>
	<polygon opacity="0.07" points="182.391,-40.55 203.996,-44.462 195.512,-47.194 	"/>
</g>
<polygon fill="#79CDCB" points="229.682,-72.796 206.945,-63.784 184.211,-72.796 184.211,-90.825 206.945,-99.837 229.682,-90.825 
	"/>
<polygon fill="#79CDCB" points="184.211,-72.796 206.946,-47.956 206.945,-63.784 "/>
<polygon opacity="0.03" points="184.211,-72.416 206.946,-47.573 206.945,-63.401 "/>
<polygon fill="#79CDCB" points="229.682,-72.796 206.946,-47.956 206.945,-63.784 "/>
<polygon opacity="0.07" points="229.682,-72.796 206.946,-47.956 206.945,-63.784 "/>
<polygon opacity="0.02" points="217.889,-60.971 222.732,-64.278 222.245,-76.054 "/>
<polygon fill="#A25BA4" points="219.667,-75.258 222.001,-63.706 233.173,-59.949 242.01,-67.747 239.678,-79.299 228.505,-83.054 
	"/>
<polygon fill="#A25BA4" points="233.215,-60.022 222.046,-63.777 217.785,-59.75 "/>
<polygon opacity="0.12" points="233.215,-60.022 222.046,-63.777 217.785,-59.75 "/>
<polygon fill="#A25BA4" points="217.785,-59.75 222.046,-63.777 219.71,-75.33 "/>
<polygon opacity="0.12" points="222.046,-63.777 224.288,-65.756 235.15,-61.729 233.215,-60.022 "/>
<polygon opacity="0.07" points="224.288,-65.756 221.513,-76.919 219.71,-75.33 222.046,-63.777 "/>
<polygon opacity="0.09" points="217.785,-59.75 222.046,-63.777 219.71,-75.33 "/>
</svg>
