<?xml version="1.0" encoding="utf-8"?>
<!-- Generator: Adobe Illustrator 16.0.0, SVG Export Plug-In . SVG Version: 6.00 Build 0)  -->
<!DOCTYPE svg PUBLIC "-//W3C//DTD SVG 1.1//EN" "http://www.w3.org/Graphics/SVG/1.1/DTD/svg11.dtd">
<svg version="1.1" id="Layer_1" xmlns="http://www.w3.org/2000/svg" xmlns:xlink="http://www.w3.org/1999/xlink" x="0px" y="0px"
	 width="320px" height="20.793px" viewBox="0 0 320 20.793" enable-background="new 0 0 320 20.793" xml:space="preserve">
<g>
	<rect x="255.586" y="16.334" opacity="0.9" fill="#F8ED40" enable-background="new    " width="34.846" height="2.729"/>
	<rect x="238.359" y="16.334" opacity="0.9" fill="#F7961D" enable-background="new    " width="34.845" height="2.729"/>
	<rect x="220.873" y="16.334" opacity="0.8" fill="#ED2A25" enable-background="new    " width="34.845" height="2.729"/>
	<rect x="203.158" y="16.334" opacity="0.9" fill="#ED4798" enable-background="new    " width="34.845" height="2.729"/>
	<rect x="185.669" y="16.334" opacity="0.9" fill="#754D9E" enable-background="new    " width="34.845" height="2.729"/>
	<rect x="168.537" y="16.334" opacity="0.9" fill="#426EB5" enable-background="new    " width="34.845" height="2.729"/>
	<rect x="168.537" y="16.334" opacity="0.9" fill="#06B052" enable-background="new    " width="17.354" height="2.729"/>
	<rect x="133.692" y="16.334" opacity="0.9" fill="#F8ED40" enable-background="new    " width="34.845" height="2.729"/>
	<rect x="116.466" y="16.334" opacity="0.9" fill="#F7961D" enable-background="new    " width="34.844" height="2.729"/>
	<rect x="98.979" y="16.334" opacity="0.8" fill="#ED2A25" enable-background="new    " width="34.845" height="2.729"/>
	<rect x="81.265" y="16.334" opacity="0.9" fill="#ED4798" enable-background="new    " width="34.845" height="2.729"/>
	<rect x="63.775" y="16.334" opacity="0.9" fill="#754D9E" enable-background="new    " width="34.845" height="2.729"/>
	<rect x="46.388" y="16.334" opacity="0.9" fill="#426EB5" enable-background="new    " width="34.845" height="2.729"/>
	<rect x="29.151" y="16.334" opacity="0.9" fill="#06B052" enable-background="new    " width="34.845" height="2.729"/>
</g>
</svg>
