<?xml version="1.0" encoding="utf-8"?>
<!-- Generator: Adobe Illustrator 16.0.0, SVG Export Plug-In . SVG Version: 6.00 Build 0)  -->
<!DOCTYPE svg PUBLIC "-//W3C//DTD SVG 1.1//EN" "http://www.w3.org/Graphics/SVG/1.1/DTD/svg11.dtd">
<svg version="1.1" id="Layer_1" xmlns="http://www.w3.org/2000/svg" xmlns:xlink="http://www.w3.org/1999/xlink" x="0px" y="0px"
	 width="320px" height="25px" viewBox="0 0 320 25" enable-background="new 0 0 320 25" xml:space="preserve">
<polygon opacity="0.8" fill="#06B052" enable-background="new    " points="10.994,10 16.164,2.244 22.058,10 "/>
<polygon fill="#754D9E" points="23.198,10 28.368,2.244 34.263,10 "/>
<polygon opacity="0.9" fill="#ED2A25" enable-background="new    " points="35.402,10 40.573,2.244 46.467,10 "/>
<polygon opacity="0.9" fill="#F8ED40" enable-background="new    " points="47.607,10 52.777,2.244 58.671,10 "/>
<polygon opacity="0.9" fill="#426EB5" enable-background="new    " points="52.569,10 47.399,17.756 41.504,10 "/>
<polygon opacity="0.9" fill="#ED4798" enable-background="new    " points="40.365,10 35.194,17.756 29.3,10 "/>
<polygon opacity="0.9" fill="#F7961D" enable-background="new    " points="28.161,10 22.99,17.756 17.096,10 "/>
<polygon opacity="0.8" fill="#06B052" enable-background="new    " points="309.672,11 304.502,3.244 298.607,11 "/>
<polygon fill="#754D9E" points="297.469,11 292.298,3.244 286.402,11 "/>
<polygon opacity="0.9" fill="#ED2A25" enable-background="new    " points="285.264,11 280.094,3.244 274.199,11 "/>
<polygon opacity="0.9" fill="#F8ED40" enable-background="new    " points="273.059,11 267.889,3.244 261.994,11 "/>
<polygon opacity="0.9" fill="#426EB5" enable-background="new    " points="268.098,11 273.268,18.756 279.162,11 "/>
<polygon opacity="0.9" fill="#ED4798" enable-background="new    " points="280.301,11 285.473,18.756 291.365,11 "/>
<polygon opacity="0.9" fill="#F7961D" enable-background="new    " points="292.506,11 297.676,18.756 303.57,11 "/>
<path fill="#9E9E9E" d="M74.749,1.877h1.458l2.899,10.23l4.07-10.23h0.295l4.022,10.23l2.95-10.23h1.446L87.81,16.074h-0.264
	L83.333,5.333l-4.294,10.742h-0.265L74.749,1.877z"/>
<path fill="#9E9E9E" d="M94.795,1.52h1.351v5.936c0.547-0.72,1.149-1.259,1.805-1.617c0.656-0.356,1.367-0.535,2.133-0.535
	c0.785,0,1.481,0.199,2.089,0.598c0.607,0.398,1.057,0.935,1.347,1.607c0.289,0.672,0.434,1.725,0.434,3.161v5.404h-1.352v-5.009
	c0-1.209-0.048-2.017-0.145-2.423c-0.167-0.695-0.472-1.217-0.913-1.568c-0.44-0.35-1.018-0.526-1.732-0.526
	c-0.817,0-1.549,0.271-2.195,0.811c-0.648,0.54-1.074,1.21-1.279,2.007c-0.128,0.516-0.193,1.469-0.193,2.857v3.851h-1.351
	L94.795,1.52L94.795,1.52z"/>
<path fill="#9E9E9E" d="M117.805,5.574v10.5h-1.332V14.27c-0.566,0.688-1.202,1.205-1.906,1.554
	c-0.705,0.347-1.476,0.521-2.312,0.521c-1.486,0-2.756-0.539-3.807-1.615c-1.053-1.078-1.578-2.389-1.578-3.934
	c0-1.512,0.53-2.805,1.592-3.88s2.339-1.611,3.832-1.611c0.862,0,1.642,0.183,2.34,0.55c0.698,0.367,1.311,0.917,1.838,1.65v-1.93
	H117.805z M112.406,6.606c-0.752,0-1.447,0.185-2.083,0.555c-0.637,0.37-1.142,0.889-1.519,1.556
	c-0.375,0.669-0.563,1.376-0.563,2.121c0,0.739,0.189,1.446,0.568,2.122c0.379,0.675,0.888,1.198,1.528,1.575
	c0.639,0.376,1.326,0.562,2.057,0.562c0.74,0,1.44-0.186,2.103-0.559c0.661-0.373,1.171-0.878,1.527-1.514
	c0.357-0.636,0.535-1.354,0.535-2.15c0-1.213-0.4-2.229-1.2-3.045C114.56,7.014,113.575,6.606,112.406,6.606z"/>
<path fill="#9E9E9E" d="M122.517,1.674h1.351v3.899h2.143V6.74h-2.143v9.333h-1.351V6.741h-1.843V5.574h1.843V1.674z"/>
<path fill="#9E9E9E" d="M133.811,6.722l-0.869,0.897c-0.722-0.701-1.429-1.052-2.119-1.052c-0.438,0-0.815,0.145-1.127,0.434
	c-0.313,0.29-0.469,0.627-0.469,1.014c0,0.34,0.128,0.665,0.387,0.974c0.258,0.316,0.8,0.687,1.625,1.111
	c1.006,0.52,1.689,1.021,2.05,1.505c0.355,0.489,0.532,1.039,0.532,1.65c0,0.862-0.303,1.593-0.909,2.19
	c-0.605,0.599-1.363,0.896-2.271,0.896c-0.606,0-1.185-0.132-1.735-0.396c-0.551-0.262-1.007-0.627-1.368-1.09l0.849-0.965
	c0.69,0.778,1.422,1.166,2.196,1.166c0.542,0,1.002-0.173,1.384-0.52c0.38-0.348,0.57-0.758,0.57-1.227
	c0-0.387-0.125-0.729-0.377-1.034c-0.251-0.296-0.819-0.669-1.702-1.12c-0.948-0.488-1.593-0.97-1.935-1.445
	c-0.342-0.477-0.512-1.021-0.512-1.632c0-0.798,0.272-1.46,0.817-1.988c0.544-0.528,1.232-0.791,2.064-0.791
	C131.858,5.304,132.831,5.776,133.811,6.722z"/>
<path fill="#9E9E9E" d="M141.535,5.574h1.428l3.609,8.086l3.504-8.086h1.439l-6.264,14.341h-1.427l2.022-4.638L141.535,5.574z"/>
<path fill="#9E9E9E" d="M158.725,5.304c1.619,0,2.958,0.585,4.023,1.756c0.966,1.068,1.45,2.333,1.45,3.792
	c0,1.467-0.513,2.75-1.533,3.847c-1.021,1.097-2.334,1.645-3.94,1.645c-1.611,0-2.927-0.548-3.949-1.645
	c-1.022-1.098-1.533-2.38-1.533-3.847c0-1.454,0.484-2.715,1.45-3.783C155.758,5.892,157.101,5.304,158.725,5.304z M158.721,6.626
	c-1.123,0-2.089,0.415-2.896,1.245c-0.807,0.831-1.21,1.834-1.21,3.011c0,0.759,0.183,1.467,0.552,2.123
	c0.367,0.656,0.865,1.163,1.492,1.521c0.625,0.357,1.313,0.535,2.062,0.535s1.436-0.178,2.063-0.535
	c0.626-0.356,1.124-0.863,1.491-1.521c0.367-0.656,0.553-1.364,0.553-2.123c0-1.177-0.406-2.181-1.217-3.011
	C160.802,7.041,159.838,6.626,158.721,6.626z"/>
<path fill="#9E9E9E" d="M167.02,5.574h1.352v4.902c0,1.198,0.064,2.021,0.191,2.471c0.193,0.645,0.562,1.153,1.106,1.526
	c0.545,0.373,1.194,0.56,1.948,0.56c0.755,0,1.395-0.183,1.919-0.546c0.524-0.362,0.887-0.84,1.087-1.434
	c0.136-0.404,0.202-1.265,0.202-2.577V5.574h1.382v5.154c0,1.447-0.17,2.538-0.508,3.272c-0.338,0.732-0.846,1.307-1.524,1.723
	c-0.678,0.414-1.528,0.621-2.553,0.621c-1.022,0-1.877-0.207-2.563-0.621c-0.685-0.416-1.195-0.994-1.533-1.738
	c-0.338-0.741-0.506-1.86-0.506-3.354V5.574L167.02,5.574z"/>
<path fill="#9E9E9E" d="M179.189,5.574h1.379v1.535c0.414-0.605,0.847-1.057,1.305-1.356c0.455-0.3,0.934-0.449,1.429-0.449
	c0.372,0,0.772,0.119,1.197,0.357L183.793,6.8c-0.283-0.122-0.521-0.183-0.714-0.183c-0.451,0-0.886,0.185-1.304,0.554
	c-0.418,0.371-0.736,0.945-0.955,1.724c-0.166,0.598-0.252,1.807-0.252,3.628v3.552h-1.379V5.574z"/>
<path fill="#9E9E9E" d="M191.248,1.877h1.544l4.706,10.967l4.781-10.967h1.544l-6.177,14.197h-0.31L191.248,1.877z"/>
<path fill="#9E9E9E" d="M207.044,1.25c0.308,0,0.57,0.109,0.788,0.328c0.218,0.219,0.327,0.482,0.327,0.792
	c0,0.302-0.109,0.562-0.327,0.781c-0.219,0.219-0.48,0.329-0.788,0.329c-0.301,0-0.562-0.109-0.778-0.329
	c-0.217-0.219-0.326-0.479-0.326-0.781c0-0.309,0.109-0.573,0.326-0.792C206.482,1.359,206.743,1.25,207.044,1.25z M206.373,5.574
	h1.352v10.5h-1.352V5.574z"/>
<path fill="#9E9E9E" d="M211.113,16.074V1.52h1.352v5.858c0.564-0.695,1.198-1.214,1.896-1.559c0.701-0.344,1.471-0.516,2.306-0.516
	c1.485,0,2.752,0.539,3.806,1.616c1.051,1.079,1.575,2.386,1.575,3.924c0,1.518-0.53,2.815-1.591,3.89
	c-1.062,1.074-2.337,1.61-3.828,1.61c-0.855,0-1.63-0.183-2.322-0.55c-0.695-0.365-1.309-0.917-1.842-1.65v1.932H211.113z
	 M216.52,15.042c0.748,0,1.441-0.187,2.078-0.558c0.637-0.367,1.141-0.889,1.516-1.558c0.377-0.669,0.563-1.377,0.563-2.124
	c0-0.746-0.188-1.457-0.567-2.132c-0.379-0.676-0.889-1.202-1.526-1.579c-0.64-0.375-1.321-0.564-2.046-0.564
	c-0.737,0-1.438,0.189-2.104,0.564c-0.666,0.377-1.176,0.883-1.531,1.52c-0.355,0.637-0.535,1.355-0.535,2.152
	c0,1.217,0.4,2.232,1.199,3.05C214.365,14.632,215.35,15.042,216.52,15.042z"/>
<path fill="#9E9E9E" d="M233.844,12.589l1.139,0.601c-0.373,0.732-0.807,1.324-1.295,1.775c-0.488,0.45-1.039,0.793-1.651,1.027
	c-0.611,0.234-1.304,0.352-2.076,0.352c-1.713,0-3.053-0.561-4.019-1.685c-0.967-1.122-1.449-2.392-1.449-3.807
	c0-1.331,0.408-2.519,1.227-3.561c1.036-1.325,2.426-1.988,4.163-1.988c1.791,0,3.22,0.678,4.29,2.036
	c0.76,0.959,1.146,2.157,1.159,3.59h-9.449c0.025,1.22,0.416,2.221,1.169,2.999c0.754,0.78,1.686,1.17,2.793,1.17
	c0.536,0,1.057-0.093,1.561-0.277c0.508-0.187,0.937-0.432,1.291-0.739C233.049,13.771,233.432,13.277,233.844,12.589z
	 M233.844,9.762c-0.181-0.721-0.443-1.297-0.787-1.728c-0.345-0.431-0.801-0.778-1.369-1.042c-0.565-0.264-1.16-0.396-1.787-0.396
	c-1.029,0-1.916,0.332-2.655,0.994c-0.542,0.483-0.951,1.207-1.228,2.172H233.844z"/>
<path fill="#9E9E9E" d="M241.064,2.653c0.795-0.846,1.887-1.269,3.272-1.269c1.283,0,2.312,0.362,3.083,1.086
	c0.771,0.723,1.158,1.648,1.158,2.774c0,0.682-0.143,1.235-0.42,1.66c-0.28,0.424-0.854,1.049-1.721,1.873
	c-0.631,0.598-1.043,1.105-1.232,1.52s-0.286,1.027-0.286,1.838h-1.716c0-0.92,0.107-1.661,0.326-2.225
	c0.219-0.562,0.705-1.208,1.461-1.935l0.787-0.762c0.236-0.219,0.428-0.448,0.576-0.686c0.267-0.418,0.4-0.853,0.4-1.303
	c0-0.63-0.193-1.177-0.579-1.641c-0.383-0.463-1.019-0.694-1.905-0.694c-1.097,0-1.855,0.398-2.275,1.196
	c-0.237,0.444-0.37,1.084-0.404,1.921h-1.718C239.873,4.617,240.271,3.5,241.064,2.653z"/>
<polygon opacity="0.9" fill="#ED2A25" enable-background="new    " points="243.795,16.074 244.482,17.393 243.104,17.393 "/>
<polygon opacity="0.9" fill="#426EB5" enable-background="new    " points="245.171,16.074 245.859,17.393 244.482,17.393 "/>
<polygon fill="#754D9E" points="243.805,16.074 245.12,16.074 244.482,17.393 "/>
<polygon opacity="0.9" fill="#F8ED40" enable-background="new    " points="245.171,18.71 244.482,17.393 245.859,17.393 "/>
<polygon opacity="0.9" fill="#F7961D" enable-background="new    " points="243.795,18.71 243.104,17.393 244.482,17.393 "/>
<polygon opacity="0.8" fill="#06B052" enable-background="new    " points="245.162,18.71 243.844,18.71 244.482,17.393 "/>
<line opacity="0.7" fill="none" stroke="#9E9E9E" stroke-miterlimit="10" enable-background="new    " x1="11" y1="22.5" x2="310" y2="22.5"/>
</svg>
