<?xml version="1.0" encoding="utf-8"?>
<!-- Generator: Adobe Illustrator 16.0.0, SVG Export Plug-In . SVG Version: 6.00 Build 0)  -->
<!DOCTYPE svg PUBLIC "-//W3C//DTD SVG 1.1//EN" "http://www.w3.org/Graphics/SVG/1.1/DTD/svg11.dtd">
<svg version="1.1" xmlns="http://www.w3.org/2000/svg" xmlns:xlink="http://www.w3.org/1999/xlink" x="0px" y="0px" width="144px"
	 height="42px" viewBox="100.973 136.726 144 42" enable-background="new 100.973 136.726 144 42" xml:space="preserve">
<g id="Layer_2_1_">
	<path opacity="0.7" fill="#A9A8A8" enable-background="new    " d="M142.86,175.336l-11.874-11.873
		c2.029-2.688,3.248-6.021,3.248-9.649c0-8.862-7.184-16.048-16.047-16.048c-8.862,0-16.047,7.186-16.047,16.049
		c0,8.861,7.186,16.046,16.047,16.046c4.018,0,7.681-1.484,10.497-3.925l11.789,11.79L142.86,175.336z M103.828,153.815
		c0-7.919,6.44-14.357,14.358-14.357c7.916,0,14.358,6.438,14.358,14.357c0,7.918-6.443,14.357-14.358,14.357
		C110.269,168.172,103.828,161.733,103.828,153.815z"/>
	<path fill="#79CCCA" d="M174.189,158.518l1.104-0.661c0.779,1.431,1.677,2.146,2.696,2.146c0.436,0,0.845-0.104,1.227-0.307
		c0.384-0.203,0.676-0.475,0.876-0.816c0.2-0.341,0.301-0.702,0.301-1.087c0-0.437-0.15-0.861-0.443-1.282
		c-0.404-0.577-1.148-1.272-2.227-2.083c-1.083-0.817-1.756-1.411-2.021-1.775c-0.461-0.615-0.688-1.277-0.688-1.988
		c0-0.566,0.135-1.081,0.404-1.548c0.272-0.464,0.654-0.831,1.146-1.1c0.49-0.267,1.024-0.401,1.603-0.401
		c0.612,0,1.185,0.151,1.719,0.456c0.533,0.301,1.097,0.86,1.691,1.673l-1.061,0.804c-0.489-0.647-0.906-1.074-1.251-1.28
		c-0.346-0.207-0.719-0.309-1.126-0.309c-0.522,0-0.952,0.157-1.286,0.476c-0.331,0.319-0.5,0.71-0.5,1.175
		c0,0.283,0.062,0.556,0.179,0.822c0.118,0.266,0.333,0.555,0.645,0.866c0.171,0.161,0.73,0.598,1.68,1.298
		c1.123,0.832,1.895,1.569,2.313,2.218c0.416,0.648,0.63,1.3,0.63,1.951c0,0.942-0.36,1.762-1.075,2.456
		c-0.716,0.694-1.587,1.043-2.61,1.043c-0.791,0-1.505-0.211-2.146-0.631C175.326,160.213,174.731,159.508,174.189,158.518z"/>
	<path fill="#EC3793" d="M194.424,157.749l1.043,0.547c-0.342,0.674-0.737,1.216-1.184,1.628c-0.449,0.412-0.955,0.725-1.515,0.94
		c-0.559,0.214-1.194,0.32-1.9,0.32c-1.569,0-2.794-0.512-3.679-1.54c-0.884-1.029-1.326-2.188-1.326-3.487
		c0-1.217,0.376-2.305,1.122-3.258c0.951-1.217,2.22-1.82,3.812-1.82c1.64,0,2.948,0.62,3.928,1.862
		c0.693,0.879,1.05,1.975,1.061,3.286h-8.649c0.023,1.121,0.378,2.033,1.07,2.747c0.69,0.716,1.542,1.07,2.558,1.07
		c0.488,0,0.962-0.084,1.426-0.253c0.465-0.172,0.859-0.396,1.183-0.68C193.693,158.832,194.046,158.375,194.424,157.749z
		 M194.424,155.159c-0.165-0.658-0.403-1.187-0.722-1.581c-0.312-0.392-0.731-0.711-1.251-0.951
		c-0.518-0.244-1.063-0.364-1.635-0.364c-0.945,0-1.757,0.302-2.434,0.911c-0.495,0.44-0.872,1.104-1.124,1.985H194.424z"/>
	<path fill="#F5841F" d="M209.659,151.328v9.612h-1.221v-1.652c-0.518,0.63-1.099,1.102-1.743,1.42
		c-0.646,0.319-1.353,0.477-2.117,0.477c-1.361,0-2.521-0.491-3.486-1.476c-0.961-0.988-1.443-2.188-1.443-3.603
		c0-1.384,0.486-2.566,1.458-3.552c0.972-0.983,2.139-1.476,3.509-1.476c0.788,0,1.501,0.17,2.141,0.503
		c0.641,0.336,1.2,0.841,1.683,1.512v-1.766H209.659z M204.716,152.273c-0.688,0-1.324,0.171-1.907,0.506
		c-0.581,0.339-1.047,0.814-1.391,1.427c-0.345,0.611-0.516,1.26-0.516,1.939c0,0.676,0.175,1.324,0.521,1.943
		c0.347,0.615,0.814,1.1,1.397,1.443c0.586,0.342,1.214,0.514,1.885,0.514c0.677,0,1.317-0.17,1.926-0.511
		c0.604-0.342,1.07-0.803,1.398-1.386c0.325-0.58,0.488-1.238,0.488-1.966c0-1.112-0.367-2.042-1.1-2.79
		C206.688,152.645,205.786,152.273,204.716,152.273z"/>
	<path fill="#FFF100" d="M213.963,151.328h1.264v1.403c0.376-0.552,0.775-0.967,1.192-1.242c0.419-0.271,0.855-0.41,1.307-0.41
		c0.345,0,0.709,0.108,1.099,0.327l-0.646,1.042c-0.261-0.111-0.479-0.167-0.653-0.167c-0.413,0-0.811,0.167-1.192,0.508
		c-0.384,0.337-0.675,0.865-0.875,1.576c-0.152,0.548-0.229,1.655-0.229,3.322v3.253h-1.264v-9.612H213.963z"/>
	<path fill="#DD5D82" d="M231.069,153.323l-0.979,0.609c-0.847-1.126-2.002-1.688-3.467-1.688c-1.173,0-2.142,0.377-2.918,1.132
		c-0.774,0.752-1.16,1.668-1.16,2.743c0,0.698,0.178,1.358,0.534,1.978c0.354,0.614,0.844,1.095,1.464,1.438
		c0.62,0.34,1.316,0.511,2.087,0.511c1.412,0,2.565-0.562,3.46-1.687l0.979,0.646c-0.458,0.691-1.074,1.229-1.849,1.609
		c-0.777,0.383-1.656,0.571-2.646,0.571c-1.521,0-2.78-0.483-3.781-1.448c-1.002-0.964-1.502-2.141-1.502-3.524
		c0-0.932,0.235-1.796,0.702-2.593c0.469-0.799,1.113-1.422,1.931-1.869s1.733-0.671,2.748-0.671c0.634,0,1.251,0.096,1.841,0.29
		c0.593,0.196,1.095,0.447,1.508,0.76C230.431,152.445,230.78,152.841,231.069,153.323z"/>
	<path fill="#90278E" d="M235.436,147.616h1.242v5.433c0.496-0.659,1.049-1.153,1.647-1.48c0.602-0.325,1.252-0.489,1.952-0.489
		c0.721,0,1.359,0.182,1.915,0.55c0.558,0.364,0.967,0.853,1.232,1.469s0.396,1.581,0.396,2.893v4.95h-1.238v-4.587
		c0-1.109-0.043-1.846-0.131-2.217c-0.153-0.636-0.433-1.115-0.835-1.438c-0.403-0.318-0.932-0.48-1.587-0.48
		c-0.746,0-1.417,0.248-2.008,0.743c-0.594,0.493-0.983,1.105-1.172,1.837c-0.117,0.469-0.176,1.343-0.176,2.615v3.526h-1.239
		V147.616L235.436,147.616z"/>
</g>
<g id="Layer_3">
</g>
</svg>
