<?xml version="1.0" encoding="utf-8"?>
<!-- Generator: Adobe Illustrator 16.0.4, SVG Export Plug-In . SVG Version: 6.00 Build 0)  -->
<!DOCTYPE svg PUBLIC "-//W3C//DTD SVG 1.1//EN" "http://www.w3.org/Graphics/SVG/1.1/DTD/svg11.dtd">
<svg version="1.1" id="Layer_1" xmlns="http://www.w3.org/2000/svg" xmlns:xlink="http://www.w3.org/1999/xlink" x="0px" y="0px"
	 width="224.833px" height="46.584px" viewBox="-2.833 0 224.833 46.584" enable-background="new -2.833 0 224.833 46.584"
	 xml:space="preserve">
<g display="none">
	<g display="inline">
		<path opacity="0.8" fill="#9E9E9E" enable-background="new    " d="M28.999,12.999h-4.695c-0.551,0-1.289-0.347-1.64-0.771
			l-2.051-2.46C20.262,9.347,19.523,9,18.974,9h-7c-0.551,0-1.263,0.365-1.585,0.812l-1.716,2.377C8.352,12.632,7.638,13,7.087,13H2
			c-1.099,0-2,0.9-2,1.998V30c0,1.099,0.901,2,2,2h27c1.1,0,2-0.901,2-2V14.997C31,13.898,30.1,12.999,28.999,12.999z"/>
		<polygon fill="#FFFFFF" points="12.156,27.551 8.91,21.93 12.156,16.307 18.646,16.307 21.893,21.93 18.646,27.551 		"/>
	</g>
	<g display="inline">
		<path fill="#848484" d="M136.167,15.47h3.842c3.281,0,4.621,1.46,4.621,3.98c0,2.601-1.642,4.042-4.381,4.042h-2.961v5.841h-1.121
			V15.47L136.167,15.47z M140.027,22.552c2.382,0,3.398-1.041,3.398-3.021c0-2.08-0.857-3.101-3.52-3.101h-2.621v6.122H140.027z"/>
		<path fill="#848484" d="M147.127,24.433v-0.279c0-3.321,1.898-5.143,4.521-5.143c2.74,0,4.541,1.76,4.541,5.081v0.261
			c0,3.32-1.922,5.162-4.562,5.162C148.887,29.515,147.127,27.752,147.127,24.433z M155.068,24.452v-0.4c0-3-1.479-4.141-3.44-4.141
			c-2.021,0-3.399,1.44-3.399,4.141v0.422c0,2.959,1.479,4.141,3.44,4.141C153.688,28.612,155.068,27.213,155.068,24.452z"/>
		<path fill="#848484" d="M158.807,28.772v-0.881c0.82,0.359,1.642,0.68,3.082,0.68c1.84,0,2.521-0.76,2.521-1.84
			c0-1.16-0.539-1.58-1.979-2l-1.101-0.32c-1.5-0.42-2.399-1.08-2.399-2.721c0-1.581,1.079-2.681,3.301-2.681
			c1.299,0,2.16,0.3,2.721,0.6v0.9c-0.619-0.3-1.619-0.56-2.66-0.56c-1.561,0-2.34,0.6-2.34,1.66c0,1.04,0.479,1.48,1.738,1.84
			l1.121,0.32c1.84,0.521,2.682,1.123,2.682,2.88c0,1.722-1.16,2.842-3.48,2.842C160.646,29.493,159.566,29.192,158.807,28.772z"/>
		<path fill="#848484" d="M169.368,27.213v-7.122h-1.502v-0.9h1.502v-2.4h1.079v2.4h2.761v0.9h-2.761v6.963
			c0,1.039,0.359,1.479,1.619,1.479c0.439,0,0.939-0.08,1.359-0.2v0.738c-0.359,0.182-0.859,0.361-1.641,0.361
			C170.247,29.435,169.368,28.772,169.368,27.213z"/>
	</g>
</g>
<g display="none">
	<rect x="-21.935" y="22.204" display="inline" fill="#FFFFFF" width="25.955" height="13.6"/>
	<g display="inline" opacity="0.7">
		<path fill="#9E9E9E" d="M-9.468,30.685c-4.914,0-9.347-2.091-12.467-5.422c2.334-0.768,6.778-2.448,7.459-2.753
			c1.557-0.701,1.558-2.954,1.487-3.891l-0.014-0.17l-0.12-0.124c-0.795-0.824-1.405-2.27-1.863-4.413l-0.064-0.3l-0.297-0.063
			c-0.138-0.032-0.394-0.236-0.67-0.716c-0.491-0.855-0.726-1.995-0.533-2.598c0.114-0.354,0.235-0.423,0.258-0.432
			c0.049-0.022,0.133,0.013,0.167,0.028l0.696,0.328l-0.02-0.769c-0.028-1.149-0.007-2.077,0.02-3.085
			C-15.298,1.388-10.747,1-9.329,1c0.006,0,0.016,0,0.022,0c1.414,0,5.967,0.389,6.099,5.304C-3.177,7.461-3.164,8.335-3.19,9.39
			l-0.018,0.769l0.697-0.326c0.034-0.017,0.117-0.051,0.168-0.029c0.021,0.01,0.142,0.077,0.255,0.432
			c0.192,0.605-0.042,1.745-0.532,2.6c-0.276,0.479-0.533,0.684-0.67,0.714l-0.298,0.066l-0.064,0.298
			c-0.457,2.144-1.064,3.591-1.863,4.414l-0.12,0.124l-0.013,0.172c-0.07,0.935-0.07,3.189,1.489,3.889
			c0.668,0.299,5.018,1.972,7.223,2.688C-0.058,28.567-4.519,30.685-9.468,30.685z"/>
		<polygon fill="#9E9E9E" points="1.799,36.94 -9.436,43.427 -20.671,36.94 -20.671,23.969 -9.436,17.481 1.799,23.969 		"/>
	</g>
	<rect x="-23.25" y="22.204" display="inline" fill="#FFFFFF" width="2.579" height="15.335"/>
	<rect x="1.774" y="22.204" display="inline" fill="#FFFFFF" width="2.579" height="15.335"/>
</g>
<g id="Profile" display="none">
	<g display="inline">
		<path fill="#848484" d="M136.168,15.346h3.84c3.281,0,4.621,1.46,4.621,3.98c0,2.601-1.643,4.041-4.381,4.041h-2.961v5.842h-1.119
			V15.346z M140.027,22.428c2.382,0,3.4-1.041,3.4-3.021c0-2.08-0.859-3.101-3.521-3.101h-2.621v6.122H140.027z"/>
		<path fill="#848484" d="M147.986,19.067h1.041v1.2h0.062c0.619-0.66,1.74-1.32,3-1.32c0.222,0,0.479,0.02,0.601,0.06v0.98
			c-0.219-0.04-0.5-0.061-0.681-0.061c-1.141,0-2.221,0.5-2.94,1.141v8.142h-1.08L147.986,19.067L147.986,19.067z"/>
		<path fill="#848484" d="M155.027,24.31v-0.281c0-3.319,1.898-5.141,4.521-5.141c2.74,0,4.541,1.76,4.541,5.081v0.262
			c0,3.319-1.92,5.16-4.562,5.16C156.788,29.39,155.027,27.629,155.027,24.31z M162.969,24.328v-0.399c0-3-1.48-4.142-3.441-4.142
			c-2.02,0-3.399,1.44-3.399,4.142v0.42c0,2.961,1.479,4.142,3.438,4.142C161.588,28.487,162.969,27.088,162.969,24.328z"/>
		<path fill="#848484" d="M168.127,19.967h-1.58v-0.9h1.58v-1.701c0-2.06,1.26-3.041,2.92-3.041c0.641,0,1.021,0.1,1.361,0.22v0.8
			c-0.32-0.08-0.643-0.12-1.182-0.12c-1.24,0-2.021,0.66-2.021,2.22v1.621h5.162v10.142h-1.103v-9.242h-4.062v9.242h-1.08v-9.241
			H168.127z M173.268,15.646h1.103v1.24h-1.103V15.646z"/>
		<path fill="#848484" d="M178.508,14.426h1.1v14.783h-1.1V14.426z"/>
		<path fill="#848484" d="M183.088,24.269v-0.24c0-3.521,2.02-5.141,4.398-5.141c2.762,0,4.021,1.7,4.021,4.741v0.62h-7.32
			c0,2.92,1.279,4.201,3.84,4.201c1.361,0,2.32-0.32,3.142-0.722v0.819c-0.619,0.399-1.739,0.841-3.301,0.841
			C184.688,29.39,183.088,27.528,183.088,24.269z M184.208,23.367h6.162c0-2.38-0.94-3.58-2.923-3.58
			C185.848,19.787,184.368,20.787,184.208,23.367z"/>
	</g>
	<g display="inline" opacity="0.7">
		<g>
			<rect x="1.332" y="23.066" fill="#FFFFFF" width="26.356" height="13.814"/>
			<g>
				<path fill="#9E9E9E" d="M13.992,31.683c-4.991,0-9.497-2.119-12.66-5.513c2.373-0.771,6.881-2.487,7.575-2.796
					c1.583-0.704,1.583-2.99,1.508-3.943l-0.012-0.184l-0.125-0.124c-0.806-0.835-1.424-2.298-1.888-4.477l-0.069-0.308
					l-0.302-0.054c-0.141-0.039-0.4-0.243-0.68-0.731C6.841,12.68,6.605,11.525,6.8,10.915c0.118-0.367,0.235-0.438,0.262-0.438
					c0.049-0.023,0.136,0.012,0.172,0.029l0.704,0.332l-0.02-0.781c-0.027-1.164-0.007-2.115,0.02-3.139
					c0.13-4.986,4.756-5.383,6.197-5.383c0.006,0,0.018,0,0.019,0c1.438,0,6.07,0.396,6.197,5.383
					c0.042,1.173,0.051,2.066,0.021,3.139l-0.021,0.781l0.714-0.332c0.027-0.018,0.109-0.053,0.169-0.029
					c0.008,0.006,0.139,0.077,0.254,0.438c0.19,0.616-0.044,1.765-0.536,2.638c-0.285,0.489-0.551,0.702-0.687,0.731l-0.296,0.06
					l-0.071,0.302c-0.462,2.179-1.081,3.648-1.898,4.483l-0.11,0.13l-0.015,0.172c-0.068,0.953-0.068,3.244,1.504,3.943
					c0.684,0.309,5.107,2.008,7.34,2.742C23.551,29.532,19.028,31.683,13.992,31.683z"/>
				<polygon fill="#9E9E9E" points="25.444,38.03 14.024,44.621 2.614,38.03 2.614,24.86 14.024,18.27 25.444,24.86 				"/>
			</g>
			<rect y="23.066" fill="#FFFFFF" width="2.615" height="15.58"/>
			<rect x="25.414" y="23.066" fill="#FFFFFF" width="2.612" height="15.58"/>
			<polygon fill="#9E9E9E" points="7.111,14.258 5.91,12.176 7.111,10.098 9.51,10.098 10.711,12.176 9.51,14.258 			"/>
			<polygon fill="#9E9E9E" points="18.696,14.258 17.494,12.173 18.696,10.095 21.094,10.095 22.296,12.173 21.094,14.258 			"/>
		</g>
		<rect x="2.614" y="38.03" fill="#FFFFFF" width="22.8" height="7.219"/>
	</g>
</g>
<g id="Map_1_" display="none">
	<g display="inline" opacity="0.7">
		<polygon fill="#9E9E9E" points="6.663,24.619 1,14.809 6.663,5 17.99,5 23.652,14.809 17.99,24.619 		"/>
		<polygon fill="#9E9E9E" points="1,14.809 12.325,37.194 23.652,14.809 		"/>
		<polygon opacity="0.05" enable-background="new    " points="1,14.809 12.325,37.194 13.581,34.717 4.473,15.639 		"/>
		<polyline opacity="0.1" fill="#FFFFFF" enable-background="new    " points="8.427,7.548 6.663,5 1,14.809 4.473,15.639 		"/>
	</g>
	<g id="Map" display="inline">
		<path fill="#848484" d="M136.177,14.688h1.681l4.541,12.342h0.061L147,14.688h1.701v13.863h-1.141V16.128h-0.041l-4.621,12.423
			h-1.039l-4.603-12.423h-0.039v12.423h-1.041V14.688z"/>
		<path fill="#848484" d="M152.357,25.95c0-1.74,1.08-2.682,3.061-2.9l2.98-0.341v-1.32c0-1.7-0.78-2.22-2.603-2.22
			c-1,0-1.84,0.18-2.56,0.4v-0.8c0.879-0.34,1.818-0.54,2.959-0.54c2.103,0,3.279,0.88,3.279,2.921v7.401h-0.897l-0.103-0.881
			h-0.059c-0.5,0.521-1.441,1.062-2.922,1.062C153.637,28.729,152.357,27.729,152.357,25.95z M158.398,26.972v-3.44l-2.7,0.301
			c-1.521,0.16-2.222,0.778-2.222,2.08c0,1.26,0.881,1.961,2.28,1.961C156.917,27.871,157.878,27.451,158.398,26.972z"/>
		<path fill="#848484" d="M163.557,18.409h1.041v0.86h0.06c0.739-0.54,1.819-1.04,3.261-1.04c2.28,0,4.121,1.2,4.121,5.081v0.221
			c0,3.621-1.801,5.201-4.621,5.201c-1.24,0-2.16-0.359-2.779-0.722v4.44h-1.08V18.409H163.557z M170.898,23.67v-0.319
			c0-3.242-1.222-4.182-3.24-4.182c-1.32,0-2.4,0.48-3.021,0.9v7c0.58,0.399,1.541,0.761,2.701,0.761
			C169.537,27.83,170.898,26.631,170.898,23.67z"/>
	</g>
</g>
<g id="Search">
	<g opacity="0.7">
		<polygon fill="none" stroke="#9E9E9E" stroke-width="3" stroke-miterlimit="10" points="2.208,23.935 2,12.656 11.661,6.837 
			21.531,12.295 21.739,23.57 12.078,29.394 		"/>
		
			<rect x="20.509" y="23.492" transform="matrix(-0.6363 0.7714 -0.7714 -0.6363 58.247 31.3259)" fill="#9E9E9E" width="2.461" height="11.803"/>
	</g>
	<g>
		<path fill="#848484" d="M134.04,27.469v-0.961c1.041,0.562,2.42,0.94,3.881,0.94c2.42,0,3.461-1.08,3.461-2.82
			c0-1.681-0.961-2.321-2.739-2.901l-1.121-0.379c-2.181-0.721-3.24-1.681-3.24-3.741c0-1.98,1.4-3.461,4.182-3.461
			c1.58,0,2.621,0.38,3.36,0.76v0.979c-0.761-0.4-1.899-0.78-3.401-0.78c-2,0-3,0.98-3,2.401c0,1.54,0.621,2.2,2.541,2.82
			l1.119,0.38c2.104,0.7,3.441,1.54,3.441,3.841c0,2.343-1.359,3.882-4.541,3.882C136.32,28.429,134.939,27.987,134.04,27.469z"/>
		<path fill="#848484" d="M145.5,23.268v-0.24c0-3.521,2.02-5.141,4.398-5.141c2.762,0,4.021,1.7,4.021,4.741v0.621h-7.32
			c0,2.92,1.279,4.2,3.842,4.2c1.359,0,2.32-0.319,3.142-0.72v0.818c-0.621,0.398-1.74,0.842-3.301,0.842
			C147.1,28.39,145.5,26.528,145.5,23.268z M146.62,22.367h6.162c0-2.38-0.941-3.581-2.923-3.581
			C148.26,18.787,146.779,19.787,146.62,22.367z"/>
		<path fill="#848484" d="M156.661,25.606c0-1.739,1.08-2.681,3.062-2.899l2.979-0.34v-1.32c0-1.7-0.781-2.22-2.603-2.22
			c-1,0-1.842,0.18-2.562,0.4v-0.8c0.881-0.34,1.82-0.54,2.961-0.54c2.102,0,3.281,0.88,3.281,2.921v7.402h-0.9l-0.1-0.881h-0.062
			c-0.5,0.521-1.44,1.061-2.92,1.061C157.939,28.39,156.661,27.39,156.661,25.606z M162.702,26.628v-3.44l-2.701,0.3
			c-1.521,0.16-2.222,0.781-2.222,2.082c0,1.26,0.882,1.959,2.281,1.959C161.221,27.528,162.18,27.108,162.702,26.628z"/>
		<path fill="#848484" d="M167.859,18.066h1.041v1.2h0.06c0.621-0.66,1.74-1.32,3.002-1.32c0.22,0,0.479,0.02,0.601,0.06v0.98
			c-0.222-0.04-0.5-0.06-0.681-0.06c-1.141,0-2.221,0.5-2.94,1.141v8.142h-1.08L167.859,18.066L167.859,18.066z"/>
		<path fill="#848484" d="M174.9,23.287v-0.26c0-3.581,2.021-5.141,4.619-5.141c1.301,0,2.082,0.24,2.801,0.68v0.92
			c-0.858-0.42-1.562-0.66-2.881-0.66c-1.979,0-3.438,1.28-3.438,4.041v0.4c0,2.72,1.142,4.181,3.58,4.181
			c1.42,0,2.301-0.44,2.86-0.762v0.881c-0.659,0.42-1.5,0.82-2.979,0.82C176.5,28.39,174.9,26.549,174.9,23.287z"/>
		<path fill="#848484" d="M185.799,13.425h1.08v5.561h0.08c1.041-0.68,2.381-1.1,3.66-1.1c1.939,0,2.939,0.78,2.939,2.721v7.602
			h-1.08v-7.382c0-1.44-0.621-2-2.301-2c-1.101,0-2.281,0.38-3.302,0.94v8.442h-1.08V13.425H185.799z"/>
	</g>
</g>
<g id="Vibes" display="none">
	
		<linearGradient id="SVGID_1_" gradientUnits="userSpaceOnUse" x1="1152.877" y1="-4194.0142" x2="1182.2422" y2="-4194.0142" gradientTransform="matrix(1 0 0 -1 -1155 -4172.4746)">
		<stop  offset="0" style="stop-color:#FFDD15"/>
		<stop  offset="0.1467" style="stop-color:#F6921E"/>
		<stop  offset="0.3114" style="stop-color:#EC1C24"/>
		<stop  offset="0.4607" style="stop-color:#EC297B"/>
		<stop  offset="0.6641" style="stop-color:#90278E"/>
		<stop  offset="0.6919" style="stop-color:#8C2B91"/>
		<stop  offset="0.7222" style="stop-color:#7E379A"/>
		<stop  offset="0.7538" style="stop-color:#694CA8"/>
		<stop  offset="0.7862" style="stop-color:#4A68BD"/>
		<stop  offset="0.8189" style="stop-color:#238CD7"/>
		<stop  offset="0.8439" style="stop-color:#00ADEE"/>
		<stop  offset="1" style="stop-color:#29B473"/>
	</linearGradient>
	
		<polygon display="inline" opacity="0.7" fill="#9E9E9E" stroke="url(#SVGID_1_)" stroke-width="0.5" stroke-miterlimit="10" enable-background="new    " points="
		5.363,34.005 -1.833,21.538 5.363,9.074 19.755,9.074 26.953,21.538 19.755,34.005 	"/>
	<g display="inline">
		<path fill="#848484" d="M131.639,14.184h1.158l4.502,12.323h0.021l4.5-12.323h1.062l-5.103,13.863h-1.038L131.639,14.184z"/>
		<path fill="#848484" d="M145.838,14.484h1.119v1.24h-1.119V14.484z M145.857,17.905h1.08v10.142h-1.08V17.905z"/>
		<path fill="#848484" d="M151.079,27.667V13.264h1.08v5.401h0.079c0.802-0.48,1.82-0.94,3.343-0.94c2.101,0,3.979,1.16,3.979,5.062
			v0.239c0,3.42-1.819,5.24-4.94,5.24C153.359,28.267,151.938,28.047,151.079,27.667z M158.42,23.166v-0.319
			c0-3.202-1.18-4.182-3.32-4.182c-1.24,0-2.301,0.48-2.938,0.84v7.383c0.601,0.26,1.379,0.439,2.539,0.439
			C156.799,27.327,158.42,26.228,158.42,23.166z"/>
		<path fill="#848484" d="M162.398,23.104v-0.238c0-3.521,2.021-5.142,4.398-5.142c2.762,0,4.021,1.7,4.021,4.741v0.62h-7.32
			c0,2.921,1.279,4.201,3.84,4.201c1.361,0,2.32-0.32,3.143-0.721v0.818c-0.621,0.4-1.739,0.842-3.301,0.842
			C163.999,28.228,162.398,26.366,162.398,23.104z M163.52,22.206h6.16c0-2.381-0.938-3.581-2.922-3.581
			C165.159,18.625,163.68,19.625,163.52,22.206z"/>
		<path fill="#848484" d="M173.639,27.485v-0.879c0.818,0.358,1.641,0.681,3.08,0.681c1.84,0,2.521-0.761,2.521-1.841
			c0-1.16-0.541-1.58-1.98-2l-1.102-0.32c-1.5-0.42-2.4-1.08-2.4-2.721c0-1.581,1.08-2.681,3.303-2.681c1.299,0,2.16,0.3,2.721,0.6
			v0.9c-0.62-0.3-1.62-0.56-2.661-0.56c-1.56,0-2.341,0.6-2.341,1.66c0,1.04,0.479,1.479,1.74,1.841l1.121,0.319
			c1.84,0.521,2.68,1.121,2.68,2.881c0,1.721-1.159,2.841-3.479,2.841C175.479,28.207,174.396,27.907,173.639,27.485z"/>
	</g>
</g>
<g id="Log_out" display="none">
	<g display="inline">
		<path fill="#848484" d="M137.075,14.241h1.176v13.543h7.015v1.008h-8.189L137.075,14.241L137.075,14.241z"/>
		<path fill="#848484" d="M145.917,23.647v-0.293c0-3.486,1.994-5.396,4.745-5.396c2.876,0,4.768,1.848,4.768,5.333v0.272
			c0,3.485-2.017,5.418-4.787,5.418C147.764,28.981,145.917,27.134,145.917,23.647z M154.252,23.669v-0.42
			c0-3.149-1.555-4.346-3.611-4.346c-2.121,0-3.57,1.512-3.57,4.346v0.441c0,3.106,1.556,4.346,3.611,4.346
			C152.803,28.036,154.252,26.565,154.252,23.669z"/>
		<path fill="#848484" d="M156.291,30.157c0-1.281,0.943-2.121,2.12-2.562v-0.062c-0.588-0.146-1.093-0.673-1.093-1.429
			c0-0.672,0.399-1.364,1.113-1.932c-0.817-0.546-1.344-1.428-1.344-2.646v-0.188c0-2.121,1.639-3.381,3.905-3.381
			c0.504,0,0.966,0.062,1.407,0.168h3.548v0.882h-2.185c0.692,0.504,1.071,1.26,1.071,2.288v0.189c0,2.206-1.659,3.359-3.862,3.359
			c-0.716,0-1.365-0.126-1.933-0.356c-0.356,0.295-0.631,0.734-0.631,1.219c0,0.65,0.399,1.049,1.176,1.049h3.065
			c1.89,0,3.297,0.715,3.297,2.751c0,1.827-1.448,3.443-5.02,3.443C157.654,32.949,156.291,31.731,156.291,30.157z M164.752,29.674
			c0-1.364-0.777-1.827-2.268-1.827h-3.15c-1.049,0.357-1.848,1.051-1.848,2.163c0,1.155,0.902,1.995,3.402,1.995
			C163.723,32.005,164.752,30.954,164.752,29.674z M163.702,21.527v-0.252c0-1.659-1.093-2.415-2.729-2.415
			c-1.658,0-2.729,0.861-2.729,2.395v0.252c0,1.616,1.112,2.436,2.729,2.436C162.652,23.942,163.702,23.123,163.702,21.527z"/>
		<path fill="#848484" d="M166.749,23.647v-0.293c0-3.486,1.994-5.396,4.745-5.396c2.876,0,4.767,1.848,4.767,5.333v0.272
			c0,3.485-2.016,5.418-4.786,5.418C168.596,28.981,166.749,27.134,166.749,23.647z M175.084,23.669v-0.42
			c0-3.149-1.555-4.346-3.611-4.346c-2.121,0-3.57,1.512-3.57,4.346v0.441c0,3.106,1.556,4.346,3.611,4.346
			C173.635,28.036,175.084,26.565,175.084,23.669z"/>
		<path fill="#848484" d="M178.13,25.999v-7.852h1.134v7.684c0,1.575,0.693,2.163,2.395,2.163c1.176,0,2.352-0.399,3.4-1.028v-8.818
			h1.135v10.645h-0.987l-0.104-0.985h-0.062c-1.133,0.713-2.436,1.176-3.695,1.176C179.307,28.981,178.13,28.036,178.13,25.999z"/>
		<path fill="#848484" d="M189.491,26.565v-7.475h-1.574v-0.944h1.574v-2.52h1.134v2.52h2.896v0.944h-2.896v7.307
			c0,1.093,0.378,1.555,1.7,1.555c0.463,0,0.987-0.084,1.428-0.21v0.776c-0.377,0.188-0.901,0.379-1.721,0.379
			C190.415,28.897,189.491,28.204,189.491,26.565z"/>
	</g>
	<g display="inline">
		
			<linearGradient id="SVGID_2_" gradientUnits="userSpaceOnUse" x1="1152.877" y1="-4194.0142" x2="1182.2422" y2="-4194.0142" gradientTransform="matrix(1 0 0 -1 -1155 -4172.4746)">
			<stop  offset="0" style="stop-color:#FFDD15"/>
			<stop  offset="0.1467" style="stop-color:#F6921E"/>
			<stop  offset="0.3114" style="stop-color:#EC1C24"/>
			<stop  offset="0.4607" style="stop-color:#EC297B"/>
			<stop  offset="0.6641" style="stop-color:#90278E"/>
			<stop  offset="0.6919" style="stop-color:#8C2B91"/>
			<stop  offset="0.7222" style="stop-color:#7E379A"/>
			<stop  offset="0.7538" style="stop-color:#694CA8"/>
			<stop  offset="0.7862" style="stop-color:#4A68BD"/>
			<stop  offset="0.8189" style="stop-color:#238CD7"/>
			<stop  offset="0.8439" style="stop-color:#00ADEE"/>
			<stop  offset="1" style="stop-color:#29B473"/>
		</linearGradient>
		
			<polygon opacity="0.7" fill="#9E9E9E" stroke="url(#SVGID_2_)" stroke-width="0.5" stroke-miterlimit="10" enable-background="new    " points="
			5.363,34.005 -1.833,21.538 5.363,9.074 19.755,9.074 26.953,21.538 19.755,34.005 		"/>
		<g>
			<rect x="10.827" y="11.759" fill="#FFFFFF" width="3.463" height="8.654"/>
			<path fill="#FFFFFF" d="M12.558,31.32c-5.058,0-9.173-4.114-9.173-9.177c0-3.635,2.161-6.928,5.501-8.395l0.21-0.091v3.147
				c-1.843,1.189-2.942,3.158-2.942,5.338c0,3.533,2.874,6.408,6.404,6.408c3.534,0,6.408-2.875,6.408-6.408
				c0-2.18-1.103-4.147-2.945-5.338v-3.147l0.21,0.091c3.344,1.469,5.504,4.762,5.504,8.395
				C21.735,27.206,17.617,31.32,12.558,31.32z"/>
		</g>
	</g>
</g>
<g id="Settings" display="none">
	<g display="inline">
		
			<polygon opacity="0.7" fill="none" stroke="#9E9E9E" stroke-width="3" stroke-miterlimit="10" enable-background="new    " points="
			9.79,17.176 7.668,13.059 11.814,14.763 11.308,9.854 15.243,12.744 15.957,8.096 18.469,12.221 21.047,8.096 21.938,12.844 
			25.634,9.299 25.05,14.684 29.404,13.059 27.198,17.27 31.61,17.584 28.458,20.642 32.666,22.683 28.487,24.396 31.61,27.444 
			27.016,27.444 29.024,31.649 25.039,30.524 25.63,35.173 21.742,31.964 20.854,36.741 18.326,32.987 15.895,36.741 15.145,32.431 
			11.371,34.979 11.723,30.396 7.668,31.714 9.534,27.589 5.332,27.252 8.4,24.151 4.334,22.419 8.481,20.7 5.332,17.327 		"/>
		<path fill="#FFFFFF" d="M18.499,11.78c5.958,0,10.787,4.828,10.787,10.782c0,5.959-4.829,10.787-10.787,10.787
			c-5.956,0-10.785-4.828-10.785-10.787C7.714,16.608,12.543,11.78,18.499,11.78z"/>
	</g>
	<g display="inline">
		<path fill="#848484" d="M135.734,29.015v-1.008c1.093,0.588,2.541,0.987,4.074,0.987c2.541,0,3.633-1.134,3.633-2.96
			c0-1.764-1.008-2.436-2.877-3.045l-1.176-0.399c-2.289-0.756-3.402-1.764-3.402-3.926c0-2.079,1.472-3.632,4.39-3.632
			c1.658,0,2.75,0.399,3.526,0.798v1.029c-0.797-0.42-1.993-0.819-3.568-0.819c-2.1,0-3.148,1.029-3.148,2.52
			c0,1.617,0.649,2.31,2.666,2.96l1.176,0.399c2.205,0.735,3.611,1.617,3.611,4.032c0,2.456-1.429,4.071-4.767,4.071
			C138.129,30.022,136.68,29.562,135.734,29.015z"/>
		<path fill="#848484" d="M146.088,24.606v-0.252c0-3.696,2.121-5.396,4.619-5.396c2.896,0,4.221,1.785,4.221,4.977v0.65h-7.686
			c0,3.064,1.344,4.409,4.031,4.409c1.428,0,2.436-0.336,3.297-0.757v0.861c-0.65,0.42-1.826,0.883-3.465,0.883
			C147.768,29.981,146.088,28.028,146.088,24.606z M147.264,23.661h6.467c0-2.499-0.985-3.758-3.064-3.758
			C148.986,19.903,147.432,20.953,147.264,23.661z"/>
		<path fill="#848484" d="M157.617,27.565v-7.475h-1.575v-0.945h1.575v-2.52h1.134v2.52h2.897v0.945h-2.897v7.307
			c0,1.093,0.378,1.555,1.701,1.555c0.461,0,0.985-0.084,1.428-0.21v0.776c-0.379,0.188-0.903,0.379-1.723,0.379
			C158.541,29.897,157.617,29.204,157.617,27.565z"/>
		<path fill="#848484" d="M164.126,27.565v-7.475h-1.575v-0.945h1.575v-2.52h1.134v2.52h2.897v0.945h-2.897v7.307
			c0,1.093,0.379,1.555,1.701,1.555c0.461,0,0.986-0.084,1.428-0.21v0.776c-0.379,0.188-0.902,0.379-1.723,0.379
			C165.05,29.897,164.126,29.204,164.126,27.565z"/>
		<path fill="#848484" d="M170.216,15.557h1.177v1.302h-1.177V15.557z M170.236,19.147h1.136v10.645h-1.136V19.147z"/>
		<path fill="#848484" d="M174.038,19.147h1.092v0.987h0.063c1.134-0.735,2.562-1.176,3.904-1.176c2.037,0,3.086,0.819,3.086,2.855
			v7.979h-1.133v-7.748c0-1.512-0.65-2.1-2.414-2.1c-1.156,0-2.395,0.399-3.465,0.987v8.86h-1.135L174.038,19.147L174.038,19.147z"
			/>
		<path fill="#848484" d="M183.593,31.157c0-1.281,0.944-2.121,2.12-2.562v-0.062c-0.588-0.146-1.092-0.673-1.092-1.429
			c0-0.672,0.398-1.364,1.113-1.932c-0.818-0.546-1.344-1.428-1.344-2.646v-0.189c0-2.121,1.637-3.38,3.904-3.38
			c0.504,0,0.967,0.063,1.407,0.168h3.548v0.882h-2.184c0.691,0.504,1.07,1.26,1.07,2.289v0.189c0,2.205-1.658,3.359-3.863,3.359
			c-0.715,0-1.364-0.126-1.932-0.357c-0.357,0.296-0.631,0.736-0.631,1.22c0,0.649,0.398,1.049,1.176,1.049h3.066
			c1.889,0,3.296,0.716,3.296,2.751c0,1.827-1.448,3.443-5.019,3.443C184.958,33.949,183.593,32.731,183.593,31.157z
			 M192.055,30.674c0-1.364-0.777-1.827-2.268-1.827h-3.15c-1.049,0.357-1.848,1.051-1.848,2.163c0,1.155,0.902,1.995,3.402,1.995
			C191.025,33.005,192.055,31.954,192.055,30.674z M191.004,22.527v-0.252c0-1.659-1.092-2.415-2.729-2.415
			c-1.659,0-2.73,0.861-2.73,2.394v0.252c0,1.617,1.113,2.437,2.73,2.437C189.956,24.942,191.004,24.123,191.004,22.527z"/>
		<path fill="#848484" d="M194.198,29.204V28.28c0.86,0.378,1.723,0.714,3.233,0.714c1.932,0,2.646-0.798,2.646-1.933
			c0-1.218-0.565-1.658-2.078-2.1l-1.153-0.336c-1.576-0.439-2.521-1.134-2.521-2.855c0-1.659,1.133-2.813,3.464-2.813
			c1.363,0,2.268,0.315,2.855,0.63v0.945c-0.651-0.315-1.701-0.588-2.793-0.588c-1.639,0-2.457,0.63-2.457,1.743
			c0,1.092,0.504,1.554,1.826,1.932l1.176,0.336c1.933,0.546,2.814,1.176,2.814,3.023c0,1.806-1.219,2.98-3.654,2.98
			C196.129,29.96,194.997,29.646,194.198,29.204z"/>
	</g>
</g>
</svg>
