<?xml version="1.0" encoding="utf-8"?>
<!-- Generator: Adobe Illustrator 16.0.4, SVG Export Plug-In . SVG Version: 6.00 Build 0)  -->
<!DOCTYPE svg PUBLIC "-//W3C//DTD SVG 1.1//EN" "http://www.w3.org/Graphics/SVG/1.1/DTD/svg11.dtd">
<svg version="1.1" id="Layer_1" xmlns="http://www.w3.org/2000/svg" xmlns:xlink="http://www.w3.org/1999/xlink" x="0px" y="0px"
	 width="350.945px" height="122.452px" viewBox="-169.833 22 350.945 122.452" enable-background="new -169.833 22 350.945 122.452"
	 xml:space="preserve">
<g id="Layer_1_1_" display="none">
	<polygon display="inline" fill="#FBED27" points="70.074,47.705 65.108,39.103 70.074,30.5 80.009,30.5 84.975,39.103 
		80.009,47.705 	"/>
	<polygon display="inline" fill="#F5841F" points="95.209,59.992 90.241,51.389 95.209,42.787 105.141,42.787 110.105,51.389 
		105.141,59.992 	"/>
	<polygon display="inline" fill="#ED3154" points="105.141,84.227 100.176,75.624 105.141,67.022 115.072,67.022 120.041,75.624 
		115.072,84.227 	"/>
	<polygon display="inline" fill="#A454A0" points="70.075,120.5 65.109,111.896 70.075,103.294 80.009,103.294 84.975,111.896 
		80.009,120.5 	"/>
	<polygon display="inline" fill="#E34A99" points="95.209,108.648 90.241,100.047 95.209,91.445 105.141,91.445 110.105,100.047 
		105.141,108.648 	"/>
	<polygon display="inline" fill="#68CBE1" points="35.008,84.227 30.043,75.623 35.008,67.022 44.942,67.022 49.907,75.623 
		44.942,84.227 	"/>
	<polygon display="inline" fill="#5295CF" points="44.941,108.648 39.975,100.047 44.941,91.445 54.874,91.445 59.84,100.047 
		54.874,108.648 	"/>
	<polygon display="inline" fill="#64BB46" points="44.941,59.992 39.975,51.39 44.941,42.787 54.874,42.787 59.84,51.39 
		54.874,59.992 	"/>
</g>
<g id="Layer_2" display="none">
	<g display="inline">
		<polygon fill="#ADADAD" points="-142.994,95.883 -163.311,60.691 -142.994,25.5 -102.359,25.5 -82.043,60.691 -102.359,95.883 		
			"/>
		<polygon fill="#ADADAD" points="-163.311,60.691 -122.677,141.003 -82.043,60.691 		"/>
	</g>
	<polygon display="inline" opacity="0.05" enable-background="new    " points="-163.311,60.691 -122.677,141.003 -118.175,132.107 
		-150.849,63.664 	"/>
	<polyline display="inline" opacity="0.1" fill="#FFFFFF" enable-background="new    " points="-136.667,34.645 -142.994,25.5 
		-163.311,60.691 -150.849,63.664 	"/>
</g>
<g>
	<polygon opacity="0.8" fill="#EC3793" points="230.52,-51.132 250.053,45.106 283.824,144.452 260.338,-1.99 	"/>
	<polygon opacity="0.8" fill="#FFF100" points="156.674,-39.8 167.639,-96.307 234.545,-96.309 246.24,-53.546 	"/>
	<polygon opacity="0.7" fill="#79CCCA" points="127.678,-96.309 137.855,-76.706 156.674,-39.8 223.693,-76.177 234.545,-96.309 	
		"/>
	<polygon opacity="0.8" fill="#DD5D82" points="223.693,-76.177 234.545,-96.309 260.338,-1.99 255.955,42.194 	"/>
	<polygon opacity="0.7" fill="#D91C5C" points="371.143,-15.282 382.391,4.247 387.289,13.927 325.475,4.247 314.293,-15.282 	"/>
	<polygon opacity="0.5" fill="#90278E" points="283.824,144.452 255.955,42.194 260.338,-1.99 285.434,89.772 286.906,144.452 	"/>
	<polygon opacity="0.7" fill="#F5841F" points="250.053,45.106 206.649,-66.925 223.693,-76.177 230.513,-51.132 	"/>
	<polygon opacity="0.7" fill="#EC3793" points="314.293,68.263 336.035,5.774 325.475,4.247 322.689,14.086 	"/>
	<polygon opacity="0.7" fill="#F5841F" points="387.289,13.927 306.27,13.927 314.293,-15.282 328.172,-15.282 	"/>
	<polyline fill="#79CCCA" points="156.674,-39.8 49.667,-39.8 127.678,-96.309 	"/>
	<polygon opacity="0.8" fill="#79CCCA" points="286.906,144.452 314.293,68.263 322.75,13.974 296.766,48.521 290.029,73.04 	"/>
	<polygon opacity="0.7" fill="#64BB46" points="286.906,144.452 283.824,144.452 285.434,89.772 296.193,50.606 294.461,69.96 
		310.455,58.845 	"/>
	<polygon opacity="0.7" fill="#FFF100" points="314.293,-15.282 325.475,4.247 310.455,58.845 290.029,73.04 	"/>
	<polygon opacity="0.8" fill="#D91C5C" points="371.143,-15.282 376.969,-5.168 381.1,2.006 382.391,4.247 384.76,8.927 
		387.289,13.927 430.334,13.974 	"/>
</g>
<path display="none" opacity="0.8" fill="#FFF100" d="M8.244,84.936l3.032-21.174h0.344l8.607,17.373l8.525-17.373h0.339
	l3.047,21.174h-2.075l-2.092-15.143l-7.487,15.143h-0.541l-7.576-15.258l-2.08,15.258H8.244z"/>
<path display="none" fill="#64BB46" d="M54.813,69.274v15.661h-1.987v-2.692c-0.844,1.027-1.792,1.8-2.843,2.317
	c-1.051,0.519-2.2,0.777-3.447,0.777c-2.217,0-4.109-0.804-5.678-2.41c-1.569-1.607-2.354-3.562-2.354-5.866
	c0-2.255,0.792-4.184,2.375-5.786s3.488-2.404,5.714-2.404c1.286,0,2.449,0.273,3.491,0.82c1.041,0.547,1.955,1.368,2.742,2.461
	v-2.879H54.813z M46.759,70.815c-1.122,0-2.157,0.276-3.105,0.826c-0.949,0.552-1.704,1.326-2.265,2.323
	c-0.561,0.996-0.841,2.051-0.841,3.163c0,1.102,0.283,2.156,0.848,3.163c0.565,1.006,1.325,1.79,2.279,2.351s1.977,0.841,3.07,0.841
	c1.102,0,2.147-0.278,3.134-0.834c0.987-0.557,1.747-1.309,2.279-2.257c0.531-0.949,0.798-2.018,0.798-3.207
	c0-1.811-0.597-3.326-1.791-4.542C49.973,71.423,48.503,70.815,46.759,70.815z"/>
<path display="none" opacity="0.8" fill="#D81D34" d="M62.618,69.274h2.015v2.879c0.795-1.094,1.711-1.914,2.747-2.461
	c1.035-0.547,2.19-0.82,3.466-0.82c2.224,0,4.126,0.801,5.707,2.404c1.582,1.603,2.373,3.531,2.373,5.786
	c0,2.304-0.783,4.259-2.352,5.866c-1.566,1.606-3.457,2.41-5.671,2.41c-1.248,0-2.393-0.259-3.438-0.777
	c-1.045-0.518-1.989-1.29-2.833-2.317v8.421h-2.015V69.274z M70.678,70.815c-1.742,0-3.209,0.608-4.401,1.826
	c-1.192,1.216-1.788,2.732-1.788,4.542c0,1.189,0.266,2.258,0.797,3.207c0.531,0.948,1.292,1.7,2.283,2.257
	c0.991,0.556,2.037,0.834,3.137,0.834c1.082,0,2.099-0.28,3.052-0.841c0.952-0.561,1.711-1.345,2.277-2.351
	c0.564-1.007,0.847-2.062,0.847-3.163c0-1.112-0.279-2.167-0.84-3.163c-0.56-0.997-1.314-1.771-2.262-2.323
	C72.832,71.091,71.798,70.815,70.678,70.815z"/>
<path opacity="0.7" fill="#A9A8A8" enable-background="new    " d="M-86.79,109.962l-23.631-23.63
	c4.038-5.349,6.462-11.987,6.462-19.205c0-17.639-14.297-31.937-31.938-31.937c-17.636,0-31.937,14.299-31.937,31.938
	c0,17.638,14.301,31.937,31.938,31.937c7.996,0,15.286-2.958,20.891-7.812l23.462,23.463L-86.79,109.962z M-164.472,67.128
	c0-15.757,12.818-28.575,28.575-28.575c15.755,0,28.576,12.818,28.576,28.575c0,15.758-12.821,28.575-28.576,28.575
	C-151.654,95.701-164.472,82.886-164.472,67.128z"/>
<path fill="#79CCCA" d="M44.436,87.604l1.945-1.167c1.37,2.521,2.952,3.782,4.747,3.782c0.768,0,1.489-0.18,2.164-0.537
	c0.674-0.358,1.188-0.838,1.541-1.44c0.353-0.602,0.529-1.239,0.529-1.914c0-0.768-0.26-1.52-0.778-2.257
	c-0.716-1.017-2.023-2.241-3.922-3.674c-1.909-1.441-3.097-2.484-3.564-3.128c-0.809-1.079-1.214-2.246-1.214-3.502
	c0-0.996,0.239-1.904,0.716-2.724c0.478-0.82,1.149-1.466,2.016-1.938c0.867-0.472,1.808-0.708,2.825-0.708
	c1.079,0,2.088,0.267,3.027,0.801c0.939,0.535,1.932,1.518,2.98,2.95l-1.868,1.417c-0.861-1.142-1.595-1.894-2.202-2.257
	c-0.607-0.363-1.269-0.545-1.985-0.545c-0.923,0-1.678,0.28-2.265,0.84c-0.586,0.561-0.879,1.25-0.879,2.07
	c0,0.498,0.104,0.98,0.312,1.447c0.208,0.467,0.586,0.975,1.136,1.526c0.301,0.29,1.287,1.053,2.957,2.287
	c1.982,1.463,3.341,2.766,4.078,3.907c0.736,1.142,1.105,2.288,1.105,3.439c0,1.66-0.63,3.103-1.891,4.327s-2.794,1.837-4.599,1.837
	c-1.391,0-2.651-0.371-3.782-1.113C46.433,90.59,45.391,89.347,44.436,87.604z"/>
<path fill="#EC3793" d="M80.083,86.249l1.837,0.966c-0.603,1.183-1.299,2.138-2.088,2.863c-0.789,0.727-1.678,1.279-2.664,1.658
	c-0.986,0.378-2.103,0.567-3.349,0.567c-2.763,0-4.923-0.905-6.481-2.716c-1.558-1.811-2.337-3.857-2.337-6.141
	c0-2.147,0.66-4.062,1.979-5.742c1.672-2.139,3.91-3.207,6.714-3.207c2.887,0,5.193,1.095,6.917,3.284
	c1.225,1.546,1.848,3.477,1.869,5.79H67.242c0.042,1.967,0.67,3.579,1.886,4.837s2.717,1.887,4.504,1.887
	c0.862,0,1.701-0.149,2.517-0.449c0.815-0.3,1.509-0.698,2.08-1.194S79.418,87.355,80.083,86.249z M80.083,81.688
	c-0.29-1.161-0.714-2.091-1.271-2.786c-0.556-0.694-1.291-1.255-2.205-1.68c-0.914-0.426-1.875-0.639-2.882-0.639
	c-1.663,0-3.091,0.534-4.286,1.604c-0.873,0.777-1.533,1.945-1.979,3.501H80.083z"/>
<path fill="#F5841F" d="M106.92,74.934v16.934h-2.146v-2.91c-0.914,1.11-1.938,1.945-3.074,2.506c-1.137,0.56-2.379,0.84-3.729,0.84
	c-2.396,0-4.443-0.869-6.14-2.606c-1.696-1.738-2.545-3.853-2.545-6.343c0-2.438,0.856-4.524,2.567-6.257
	c1.713-1.733,3.772-2.6,6.18-2.6c1.391,0,2.648,0.296,3.774,0.887s2.114,1.478,2.966,2.662v-3.113H106.92z M98.213,76.6
	c-1.213,0-2.332,0.298-3.359,0.894c-1.025,0.597-1.842,1.433-2.448,2.511s-0.909,2.219-0.909,3.421c0,1.191,0.306,2.332,0.917,3.42
	c0.612,1.088,1.433,1.936,2.464,2.542s2.139,0.909,3.32,0.909c1.191,0,2.32-0.301,3.389-0.901c1.067-0.602,1.889-1.415,2.464-2.44
	c0.575-1.026,0.862-2.183,0.862-3.468c0-1.958-0.645-3.596-1.936-4.912C101.688,77.258,100.099,76.6,98.213,76.6z"/>
<path fill="#FFF100" d="M114.505,74.934h2.226v2.474c0.664-0.975,1.365-1.703,2.102-2.187c0.736-0.482,1.504-0.724,2.303-0.724
	c0.603,0,1.246,0.192,1.931,0.576l-1.136,1.836c-0.457-0.196-0.841-0.295-1.152-0.295c-0.727,0-1.427,0.298-2.102,0.895
	c-0.674,0.597-1.188,1.523-1.541,2.778c-0.27,0.965-0.404,2.916-0.404,5.853v5.728h-2.226V74.934z"/>
<path fill="#DD5D82" d="M144.643,78.451l-1.728,1.074c-1.492-1.982-3.529-2.973-6.11-2.973c-2.062,0-3.774,0.664-5.138,1.99
	s-2.044,2.938-2.044,4.835c0,1.233,0.313,2.395,0.94,3.482s1.487,1.933,2.58,2.534c1.094,0.601,2.319,0.901,3.677,0.901
	c2.487,0,4.52-0.99,6.095-2.973l1.728,1.137c-0.81,1.219-1.896,2.164-3.261,2.836s-2.918,1.008-4.662,1.008
	c-2.677,0-4.897-0.851-6.661-2.553c-1.765-1.701-2.646-3.771-2.646-6.21c0-1.64,0.413-3.162,1.238-4.568
	c0.824-1.406,1.958-2.503,3.4-3.291c1.442-0.789,3.056-1.184,4.841-1.184c1.12,0,2.202,0.171,3.245,0.514s1.927,0.789,2.653,1.338
	C143.517,76.9,144.134,77.601,144.643,78.451z"/>
<path fill="#90278E" d="M152.335,68.397h2.18v9.572c0.882-1.162,1.852-2.031,2.91-2.607s2.205-0.864,3.439-0.864
	c1.267,0,2.39,0.322,3.37,0.965c0.98,0.643,1.704,1.507,2.171,2.591c0.468,1.084,0.701,2.783,0.701,5.098v8.716h-2.18V83.79
	c0-1.95-0.077-3.253-0.233-3.907c-0.27-1.12-0.76-1.963-1.471-2.529c-0.711-0.564-1.642-0.848-2.794-0.848
	c-1.317,0-2.498,0.436-3.541,1.308s-1.73,1.95-2.062,3.237c-0.207,0.83-0.311,2.366-0.311,4.607v6.21h-2.18V68.397z"/>
<g display="none">
	<path display="inline" opacity="0.7" fill="#A9A8A8" enable-background="new    " d="M-70.921,52.624H-86.54
		c-1.83,0-4.287-1.15-5.455-2.559l-6.823-8.19c-1.174-1.402-3.629-2.555-5.459-2.555h-23.289c-1.829,0-4.203,1.211-5.273,2.698
		l-5.709,7.909c-1.071,1.479-3.447,2.696-5.275,2.696h-16.922c-3.66,0-6.656,2.99-6.656,6.651v49.905
		c0,3.658,2.997,6.653,6.656,6.653h89.823c3.663,0,6.655-2.995,6.655-6.653V59.276C-64.266,55.614-67.258,52.624-70.921,52.624z"/>
	
		<rect x="-155.756" y="44.581" display="inline" opacity="0.7" fill="#A9A8A8" enable-background="new    " width="8.874" height="4.715"/>
	<circle display="inline" fill="#FFFFFF" cx="-87.554" cy="62.603" r="3.327"/>
	<path display="inline" fill="#FFFFFF" d="M-115.833,62.348c-11.007,0-19.961,8.952-19.961,19.961
		c0,11.006,8.955,19.962,19.961,19.962c11.007,0,19.962-8.956,19.962-19.962C-95.872,71.301-104.826,62.348-115.833,62.348z"/>
</g>
<path display="none" fill="#64BB46" d="M46.284,69.669h4.408c2.528,0,4.233,0.11,5.116,0.331c1.264,0.311,2.297,0.951,3.1,1.919
	c0.803,0.968,1.204,2.184,1.204,3.648c0,1.475-0.392,2.691-1.174,3.649s-1.86,1.603-3.235,1.934
	c-1.003,0.241-2.879,0.361-5.627,0.361h-1.58v10.292h-2.212V69.669z M48.496,71.835v7.508l3.746,0.045
	c1.515,0,2.624-0.137,3.326-0.412s1.254-0.721,1.655-1.337c0.4-0.616,0.602-1.304,0.602-2.065c0-0.74-0.201-1.418-0.602-2.034
	c-0.401-0.616-0.931-1.054-1.588-1.314s-1.733-0.391-3.228-0.391H48.496z"/>
<path display="none" fill="#D81D3C" d="M75.329,75.01c2.521,0,4.612,0.914,6.271,2.739c1.507,1.665,2.261,3.636,2.261,5.913
	c0,2.287-0.797,4.286-2.39,5.996c-1.593,1.711-3.64,2.565-6.142,2.565c-2.513,0-4.565-0.854-6.158-2.565
	c-1.593-1.71-2.389-3.709-2.389-5.996c0-2.267,0.753-4.232,2.261-5.898C70.701,75.928,72.796,75.01,75.329,75.01z M75.321,77.072
	c-1.752,0-3.257,0.646-4.516,1.94c-1.258,1.294-1.887,2.858-1.887,4.694c0,1.185,0.286,2.287,0.86,3.311s1.349,1.813,2.325,2.37
	s2.049,0.835,3.217,0.835c1.167,0,2.239-0.278,3.216-0.835s1.752-1.347,2.326-2.37c0.573-1.023,0.86-2.126,0.86-3.311
	c0-1.836-0.632-3.4-1.896-4.694S77.062,77.072,75.321,77.072z"/>
<path display="none" fill="#F5841F" d="M99.379,77.223l-1.355,1.398c-1.127-1.093-2.227-1.64-3.303-1.64
	c-0.684,0-1.27,0.226-1.758,0.677s-0.732,0.979-0.732,1.58c0,0.532,0.201,1.039,0.604,1.52c0.402,0.492,1.246,1.068,2.533,1.73
	c1.568,0.812,2.635,1.596,3.197,2.348c0.553,0.763,0.828,1.62,0.828,2.573c0,1.344-0.471,2.482-1.416,3.415
	c-0.945,0.934-2.125,1.399-3.541,1.399c-0.945,0-1.846-0.205-2.705-0.616s-1.57-0.979-2.133-1.7l1.324-1.505
	c1.076,1.214,2.217,1.82,3.424,1.82c0.844,0,1.562-0.271,2.156-0.812s0.891-1.179,0.891-1.911c0-0.602-0.197-1.138-0.588-1.609
	c-0.393-0.462-1.277-1.044-2.654-1.746c-1.479-0.762-2.483-1.515-3.017-2.257c-0.532-0.742-0.799-1.59-0.799-2.543
	c0-1.244,0.424-2.277,1.274-3.1c0.848-0.822,1.92-1.234,3.217-1.234C96.334,75.01,97.852,75.748,99.379,77.223z"/>
<path display="none" fill="#79CCCA" d="M108.335,69.353h2.107v6.079h3.34v1.82h-3.34v14.551h-2.107V77.252h-2.873v-1.82h2.873
	V69.353z"/>
</svg>
