<?xml version="1.0" encoding="utf-8"?>
<!-- Generator: Adobe Illustrator 16.0.4, SVG Export Plug-In . SVG Version: 6.00 Build 0)  -->
<!DOCTYPE svg PUBLIC "-//W3C//DTD SVG 1.1//EN" "http://www.w3.org/Graphics/SVG/1.1/DTD/svg11.dtd">
<svg version="1.1" id="Layer_1" xmlns="http://www.w3.org/2000/svg" xmlns:xlink="http://www.w3.org/1999/xlink" x="0px" y="0px"
	 width="46px" height="46px" viewBox="0 0 46 46" enable-background="new 0 0 46 46" xml:space="preserve">
<polygon fill="#FBEE29" points="-111.444,9.027 -113.93,4.722 -111.444,0.417 -106.473,0.417 -103.987,4.722 -106.473,9.027 "/>
<polygon fill="#F6851F" points="-98.866,15.176 -101.351,10.871 -98.866,6.566 -93.895,6.566 -91.409,10.871 -93.895,15.176 "/>
<polygon fill="#EE3255" points="-93.895,27.305 -96.38,23 -93.895,18.695 -88.923,18.695 -86.438,23 -88.923,27.305 "/>
<polygon fill="#A555A1" points="-111.444,45.458 -113.929,41.153 -111.444,36.848 -106.473,36.848 -103.987,41.153 -106.473,45.458 
	"/>
<polygon fill="#E44A9A" points="-98.866,39.528 -101.351,35.223 -98.866,30.918 -93.895,30.918 -91.409,35.223 -93.895,39.528 "/>
<polygon fill="#69CCE2" points="-128.994,27.305 -131.479,23 -128.994,18.695 -124.022,18.695 -121.537,23 -124.022,27.305 "/>
<polygon fill="#5296D0" points="-124.023,39.528 -126.508,35.223 -124.023,30.918 -119.052,30.918 -116.566,35.223 -119.052,39.528 
	"/>
<polygon fill="#65BC46" points="-124.023,15.176 -126.508,10.872 -124.023,6.566 -119.052,6.566 -116.566,10.872 -119.052,15.176 
	"/>
<g>
	<path fill="#8C8C8C" d="M-38.878,17.348c-3.832,0-6.949,3.12-6.949,6.952c0,3.829,3.117,6.946,6.949,6.946s6.95-3.117,6.95-6.946
		C-31.928,20.468-35.046,17.348-38.878,17.348z"/>
	<path fill="#FFFFFF" d="M-40.713,28.043c-0.844-0.752-1.386-1.833-1.386-3.053c0-2.268,1.837-4.104,4.104-4.104
		c1.26,0,2.375,0.58,3.127,1.475C-37.903,22.688-40.306,25.034-40.713,28.043z"/>
	<path fill="none" stroke="#8C8C8C" stroke-miterlimit="10" d="M-25.761,10.261h-2.762V7.5h-2.761v2.761h-13.807
		c0-1.33-1.244-2.761-2.762-2.761h-5.522c-1.518,0-2.761,1.432-2.761,2.761h-2.762c-1.518,0-2.761,1.244-2.761,2.762v22.091
		c0,1.519,1.244,2.761,2.761,2.761h33.137c1.518,0,2.761-1.243,2.761-2.761V13.023C-23,11.505-24.244,10.261-25.761,10.261z
		 M-55.047,19.576c-1.11,0-2.011-0.901-2.011-2.012c0-1.109,0.901-2.009,2.011-2.009s2.01,0.9,2.01,2.009
		C-53.037,18.675-53.937,19.576-55.047,19.576z M-38.878,34.838c-5.811,0-10.539-4.729-10.539-10.538
		c0-5.811,4.728-10.539,10.539-10.539s10.539,4.728,10.539,10.539C-28.339,30.109-33.067,34.838-38.878,34.838z"/>
</g>
<path fill="none" stroke="#8C8C8C" stroke-miterlimit="10" d="M41.047,35.166l-6.176-6.178c1.562-2.442,2.483-5.339,2.483-8.456
	c0-8.671-7.026-15.699-15.699-15.699c-8.669,0-15.699,7.028-15.699,15.699c0,8.67,7.03,15.699,15.699,15.699
	c3.119,0,6.015-0.919,8.456-2.485l6.179,6.178c0.434,0.436,1.147,0.436,1.585,0l3.172-3.171
	C41.485,36.314,41.485,35.6,41.047,35.166z"/>
<path fill="none" stroke="#8C8C8C" stroke-miterlimit="10" d="M21.655,31.745c-6.181,0-11.214-5.03-11.214-11.213
	c0-6.183,5.033-11.213,11.214-11.213c6.186,0,11.214,5.031,11.214,11.213C32.869,26.715,27.841,31.745,21.655,31.745z"/>
</svg>
