<?xml version="1.0" encoding="utf-8"?>
<!-- Generator: Adobe Illustrator 16.0.0, SVG Export Plug-In . SVG Version: 6.00 Build 0)  -->
<!DOCTYPE svg PUBLIC "-//W3C//DTD SVG 1.1//EN" "http://www.w3.org/Graphics/SVG/1.1/DTD/svg11.dtd">
<svg version="1.1" id="Layer_1" xmlns="http://www.w3.org/2000/svg" xmlns:xlink="http://www.w3.org/1999/xlink" x="0px" y="0px"
	 width="222px" height="46.584px" viewBox="45.5 81.792 222 46.584" enable-background="new 45.5 81.792 222 46.584"
	 xml:space="preserve">
<g id="Layer_5">
	<g>
		<polygon fill="none" stroke="#9E9E9E" stroke-width="3" stroke-miterlimit="10" points="52.499,112.853 52.263,100.068 
			63.215,93.472 74.404,99.658 74.64,112.44 63.688,119.041 		"/>
		
			<rect x="73.244" y="112.351" transform="matrix(0.6365 -0.7713 0.7713 0.6365 -64.6814 100.8341)" fill="#9E9E9E" width="2.791" height="13.38"/>
	</g>
	<g>
		<path fill="#848484" d="M180.979,110.261V109.3c1.041,0.562,2.42,0.94,3.881,0.94c2.42,0,3.461-1.08,3.461-2.82
			c0-1.681-0.961-2.321-2.74-2.901l-1.119-0.379c-2.182-0.721-3.242-1.681-3.242-3.74c0-1.98,1.4-3.461,4.182-3.461
			c1.58,0,2.621,0.379,3.361,0.76v0.979c-0.762-0.399-1.9-0.78-3.402-0.78c-2,0-3,0.98-3,2.401c0,1.54,0.621,2.2,2.541,2.82
			l1.119,0.38c2.104,0.7,3.441,1.54,3.441,3.841c0,2.342-1.359,3.881-4.541,3.881C183.26,111.221,181.879,110.779,180.979,110.261z"
			/>
		<path fill="#848484" d="M192.44,106.06v-0.24c0-3.521,2.02-5.141,4.4-5.141c2.76,0,4.02,1.7,4.02,4.741v0.621h-7.32
			c0,2.92,1.279,4.2,3.842,4.2c1.359,0,2.32-0.319,3.141-0.72v0.819c-0.621,0.399-1.74,0.841-3.301,0.841
			C194.04,111.182,192.44,109.32,192.44,106.06z M193.559,105.159h6.162c0-2.381-0.941-3.581-2.922-3.581
			C195.2,101.579,193.719,102.579,193.559,105.159z"/>
		<path fill="#848484" d="M203.6,108.398c0-1.739,1.08-2.68,3.061-2.899l2.98-0.34v-1.32c0-1.699-0.781-2.22-2.602-2.22
			c-1,0-1.842,0.18-2.562,0.399v-0.8c0.881-0.34,1.82-0.54,2.961-0.54c2.102,0,3.281,0.881,3.281,2.922v7.401h-0.9l-0.1-0.881
			h-0.061c-0.5,0.521-1.441,1.061-2.92,1.061C204.879,111.182,203.6,110.182,203.6,108.398z M209.641,109.42v-3.44l-2.701,0.301
			c-1.52,0.16-2.221,0.78-2.221,2.081c0,1.26,0.881,1.959,2.281,1.959C208.161,110.32,209.12,109.9,209.641,109.42z"/>
		<path fill="#848484" d="M214.799,100.858h1.041v1.199h0.059c0.621-0.66,1.74-1.32,3.002-1.32c0.219,0,0.479,0.021,0.6,0.061v0.98
			c-0.221-0.041-0.5-0.061-0.68-0.061c-1.141,0-2.221,0.5-2.941,1.141v8.143h-1.08V100.858L214.799,100.858z"/>
		<path fill="#848484" d="M221.84,106.079v-0.26c0-3.582,2.02-5.142,4.619-5.142c1.301,0,2.082,0.24,2.801,0.681v0.92
			c-0.859-0.42-1.562-0.66-2.881-0.66c-1.98,0-3.439,1.279-3.439,4.041v0.4c0,2.72,1.141,4.181,3.58,4.181
			c1.42,0,2.301-0.44,2.861-0.762v0.881c-0.66,0.42-1.5,0.82-2.98,0.82C223.44,111.182,221.84,109.341,221.84,106.079z"/>
		<path fill="#848484" d="M232.739,96.217h1.08v5.562h0.08c1.041-0.68,2.381-1.101,3.66-1.101c1.941,0,2.941,0.78,2.941,2.722v7.602
			h-1.08v-7.382c0-1.44-0.621-2-2.301-2c-1.102,0-2.281,0.38-3.303,0.94v8.441h-1.08V96.217H232.739z"/>
	</g>
</g>
</svg>
