<?xml version="1.0" encoding="utf-8"?>
<!-- Generator: Adobe Illustrator 16.0.4, SVG Export Plug-In . SVG Version: 6.00 Build 0)  -->
<!DOCTYPE svg PUBLIC "-//W3C//DTD SVG 1.1//EN" "http://www.w3.org/Graphics/SVG/1.1/DTD/svg11.dtd">
<svg version="1.1" id="Layer_1" xmlns="http://www.w3.org/2000/svg" xmlns:xlink="http://www.w3.org/1999/xlink" x="0px" y="0px"
	 width="320px" height="20.793px" viewBox="0 0 320 20.793" enable-background="new 0 0 320 20.793" xml:space="preserve">
<polygon opacity="0.8" fill="#06B052" points="10.893,10.168 15.123,3.823 19.945,10.168 "/>
<polygon fill="#754D9E" points="20.877,10.168 25.107,3.823 29.93,10.168 "/>
<polygon opacity="0.9" fill="#ED2A25" points="30.862,10.168 35.091,3.823 39.914,10.168 "/>
<polygon opacity="0.9" fill="#F8ED40" points="40.846,10.168 45.076,3.823 49.898,10.168 "/>
<polygon opacity="0.9" fill="#426EB5" points="44.906,10.168 40.676,16.513 35.854,10.168 "/>
<polygon opacity="0.9" fill="#ED4798" points="34.922,10.168 30.691,16.513 25.87,10.168 "/>
<polygon opacity="0.9" fill="#F7961D" points="24.938,10.168 20.708,16.513 15.885,10.168 "/>
<polygon opacity="0.9" fill="#F8ED40" points="84.219,10.168 79.989,16.513 75.167,10.168 "/>
<polygon opacity="0.9" fill="#426EB5" points="74.235,10.168 70.005,16.513 65.183,10.168 "/>
<polygon opacity="0.9" fill="#ED4798" points="64.251,10.168 60.021,16.513 55.199,10.168 "/>
<polygon opacity="0.9" fill="#F7961D" points="54.267,10.168 50.037,16.513 45.214,10.168 "/>
<polygon opacity="0.9" fill="#ED2A25" points="50.207,10.168 54.437,3.823 59.258,10.168 "/>
<polygon fill="#754D9E" points="60.19,10.168 64.421,3.823 69.243,10.168 "/>
<polygon opacity="0.8" fill="#06B052" points="70.175,10.168 74.405,3.823 79.228,10.168 "/>
<polygon opacity="0.9" fill="#426EB5" points="143.501,10.168 139.271,16.513 134.448,10.168 "/>
<polygon opacity="0.9" fill="#ED4798" points="133.517,10.168 129.287,16.513 124.464,10.168 "/>
<polygon opacity="0.9" fill="#F7961D" points="123.532,10.168 119.303,16.513 114.48,10.168 "/>
<polygon opacity="0.9" fill="#ED2A25" points="119.472,10.168 123.702,3.823 128.524,10.168 "/>
<polygon fill="#754D9E" points="129.456,10.168 133.687,3.823 138.509,10.168 "/>
<polygon opacity="0.8" fill="#06B052" points="139.44,10.168 143.671,3.823 148.493,10.168 "/>
<polygon opacity="0.9" fill="#F7961D" points="80.159,10.168 84.388,3.823 89.211,10.168 "/>
<polygon opacity="0.9" fill="#F8ED40" points="223.719,10.168 219.489,16.513 214.667,10.168 "/>
<polygon opacity="0.9" fill="#426EB5" points="213.735,10.168 209.505,16.513 204.683,10.168 "/>
<polygon opacity="0.9" fill="#ED4798" points="203.751,10.168 199.521,16.513 194.698,10.168 "/>
<polygon fill="#754D9E" points="199.69,10.168 203.921,3.823 208.743,10.168 "/>
<polygon opacity="0.8" fill="#06B052" points="209.675,10.168 213.905,3.823 218.728,10.168 "/>
<polygon opacity="0.9" fill="#F7961D" points="219.659,10.168 223.889,3.823 228.711,10.168 "/>
<polygon opacity="0.9" fill="#ED4798" points="90.144,10.168 94.373,3.823 99.195,10.168 "/>
<polygon opacity="0.9" fill="#426EB5" points="100.128,10.168 104.357,3.823 109.179,10.168 "/>
<polygon opacity="0.9" fill="#F8ED40" points="110.112,10.168 114.341,3.823 119.164,10.168 "/>
<polygon opacity="0.8" fill="#06B052" points="114.171,10.168 109.941,16.513 105.12,10.168 "/>
<polygon opacity="0.9" fill="#F7961D" points="194.046,10.168 189.816,16.513 184.994,10.168 "/>
<polygon opacity="0.9" fill="#ED2A25" points="189.986,10.168 194.217,3.823 199.038,10.168 "/>
<polygon opacity="0.9" fill="#F8ED40" points="180.626,10.168 184.854,3.823 189.678,10.168 "/>
<polygon opacity="0.8" fill="#06B052" points="184.686,10.168 180.455,16.513 175.634,10.168 "/>
<polygon fill="#754D9E" points="104.188,10.168 99.957,16.513 95.136,10.168 "/>
<polygon opacity="0.9" fill="#ED2A25" points="94.203,10.168 89.973,16.513 85.151,10.168 "/>
<polygon opacity="0.9" fill="#F8ED40" points="154.109,10.168 149.879,16.513 145.057,10.168 "/>
<polygon opacity="0.9" fill="#F7961D" points="150.049,10.168 154.278,3.823 159.102,10.168 "/>
<polygon opacity="0.9" fill="#ED4798" points="160.033,10.168 164.263,3.823 169.085,10.168 "/>
<polygon opacity="0.9" fill="#426EB5" points="170.018,10.168 174.247,3.823 179.069,10.168 "/>
<polygon fill="#754D9E" points="174.077,10.168 169.847,16.513 165.025,10.168 "/>
<polygon opacity="0.9" fill="#ED2A25" points="164.093,10.168 159.863,16.513 155.041,10.168 "/>
<polygon opacity="0.9" fill="#ED4798" points="229.783,10.168 234.013,3.823 238.835,10.168 "/>
<polygon opacity="0.9" fill="#ED2A25" points="233.843,10.168 229.613,16.513 224.791,10.168 "/>
<polygon opacity="0.9" fill="#F8ED40" points="293.719,10.168 289.489,16.513 284.667,10.168 "/>
<polygon opacity="0.9" fill="#426EB5" points="283.735,10.168 279.505,16.513 274.683,10.168 "/>
<polygon opacity="0.9" fill="#ED4798" points="273.751,10.168 269.521,16.513 264.698,10.168 "/>
<polygon fill="#754D9E" points="269.69,10.168 273.921,3.823 278.743,10.168 "/>
<polygon opacity="0.8" fill="#06B052" points="279.675,10.168 283.905,3.823 288.728,10.168 "/>
<polygon opacity="0.9" fill="#F7961D" points="289.659,10.168 293.889,3.823 298.711,10.168 "/>
<polygon opacity="0.9" fill="#F7961D" points="264.046,10.168 259.816,16.513 254.994,10.168 "/>
<polygon opacity="0.9" fill="#ED2A25" points="259.986,10.168 264.217,3.823 269.038,10.168 "/>
<polygon opacity="0.9" fill="#F8ED40" points="250.626,10.168 254.854,3.823 259.678,10.168 "/>
<polygon opacity="0.8" fill="#06B052" points="254.686,10.168 250.455,16.513 245.634,10.168 "/>
<polygon opacity="0.9" fill="#426EB5" points="240.018,10.168 244.247,3.823 249.069,10.168 "/>
<polygon fill="#754D9E" points="244.077,10.168 239.847,16.513 235.025,10.168 "/>
<polygon opacity="0.9" fill="#ED4798" points="299.783,10.168 304.013,3.823 308.835,10.168 "/>
<polygon opacity="0.9" fill="#ED2A25" points="303.843,10.168 299.613,16.513 294.791,10.168 "/>
<line opacity="0.7" fill="none" stroke="#9E9E9E" stroke-miterlimit="10" x1="10" y1="1.668" x2="309" y2="1.668"/>
<line opacity="0.7" fill="none" stroke="#9E9E9E" stroke-miterlimit="10" x1="10" y1="18.668" x2="309" y2="18.668"/>
</svg>
