<?xml version="1.0" encoding="utf-8"?>
<!-- Generator: Adobe Illustrator 16.0.0, SVG Export Plug-In . SVG Version: 6.00 Build 0)  -->
<!DOCTYPE svg PUBLIC "-//W3C//DTD SVG 1.1//EN" "http://www.w3.org/Graphics/SVG/1.1/DTD/svg11.dtd">
<svg version="1.1" id="Layer_1" xmlns="http://www.w3.org/2000/svg" xmlns:xlink="http://www.w3.org/1999/xlink" x="0px" y="0px"
	 width="222px" height="46.584px" viewBox="0 0 222 46.584" enable-background="new 0 0 222 46.584" xml:space="preserve">
<g>
	
		<polygon opacity="0.8" fill="none" stroke="#9E9E9E" stroke-width="0.75" stroke-miterlimit="10" enable-background="new    " points="
		8.79,19.176 6.668,15.059 10.814,16.763 10.308,11.854 14.243,14.744 14.957,10.096 17.469,14.221 20.047,10.096 20.938,14.844 
		24.634,11.299 24.05,16.684 28.404,15.059 26.198,19.27 30.61,19.584 27.458,22.642 31.666,24.683 27.487,26.396 30.61,29.444 
		26.016,29.444 28.024,33.649 24.039,32.524 24.63,37.173 20.742,33.964 19.854,38.741 17.326,34.987 14.895,38.741 14.145,34.431 
		10.371,36.979 10.723,32.396 6.668,33.714 8.534,29.589 4.332,29.252 7.4,26.151 3.334,24.419 7.481,22.7 4.332,19.327 	"/>
	<path fill="#FFFFFF" d="M17.499,13.78c5.958,0,10.787,4.828,10.787,10.782c0,5.959-4.829,10.787-10.787,10.787
		c-5.956,0-10.785-4.828-10.785-10.787C6.714,18.608,11.543,13.78,17.499,13.78z"/>
</g>
<g>
	<path fill="#848484" d="M135.734,29.015v-1.008c1.093,0.588,2.541,0.987,4.074,0.987c2.541,0,3.633-1.134,3.633-2.96
		c0-1.764-1.008-2.436-2.877-3.045l-1.176-0.399c-2.289-0.756-3.402-1.764-3.402-3.926c0-2.079,1.472-3.632,4.39-3.632
		c1.658,0,2.75,0.399,3.526,0.798v1.029c-0.797-0.42-1.993-0.819-3.568-0.819c-2.1,0-3.148,1.029-3.148,2.52
		c0,1.617,0.649,2.31,2.666,2.96l1.176,0.399c2.205,0.735,3.611,1.617,3.611,4.032c0,2.456-1.429,4.071-4.767,4.071
		C138.129,30.022,136.68,29.562,135.734,29.015z"/>
	<path fill="#848484" d="M146.088,24.606v-0.252c0-3.696,2.121-5.396,4.619-5.396c2.896,0,4.221,1.785,4.221,4.977v0.65h-7.686
		c0,3.064,1.344,4.409,4.031,4.409c1.428,0,2.436-0.336,3.297-0.757v0.861c-0.65,0.42-1.826,0.883-3.465,0.883
		C147.768,29.981,146.088,28.028,146.088,24.606z M147.264,23.661h6.467c0-2.499-0.985-3.758-3.064-3.758
		C148.986,19.903,147.432,20.953,147.264,23.661z"/>
	<path fill="#848484" d="M157.617,27.565v-7.475h-1.575v-0.945h1.575v-2.52h1.134v2.52h2.897v0.945h-2.897v7.307
		c0,1.093,0.378,1.555,1.701,1.555c0.461,0,0.985-0.084,1.428-0.21v0.776c-0.379,0.188-0.903,0.379-1.723,0.379
		C158.541,29.897,157.617,29.204,157.617,27.565z"/>
	<path fill="#848484" d="M164.126,27.565v-7.475h-1.575v-0.945h1.575v-2.52h1.134v2.52h2.897v0.945h-2.897v7.307
		c0,1.093,0.379,1.555,1.701,1.555c0.461,0,0.986-0.084,1.428-0.21v0.776c-0.379,0.188-0.902,0.379-1.723,0.379
		C165.05,29.897,164.126,29.204,164.126,27.565z"/>
	<path fill="#848484" d="M170.216,15.557h1.177v1.302h-1.177V15.557z M170.236,19.147h1.136v10.645h-1.136V19.147z"/>
	<path fill="#848484" d="M174.038,19.147h1.092v0.987h0.063c1.134-0.735,2.562-1.176,3.904-1.176c2.037,0,3.086,0.819,3.086,2.855
		v7.979h-1.133v-7.748c0-1.512-0.65-2.1-2.414-2.1c-1.156,0-2.395,0.399-3.465,0.987v8.86h-1.135L174.038,19.147L174.038,19.147z"/>
	<path fill="#848484" d="M183.593,31.157c0-1.281,0.944-2.121,2.12-2.562v-0.062c-0.588-0.146-1.092-0.673-1.092-1.429
		c0-0.672,0.398-1.364,1.113-1.932c-0.818-0.546-1.344-1.428-1.344-2.646v-0.189c0-2.121,1.637-3.38,3.904-3.38
		c0.504,0,0.967,0.063,1.407,0.168h3.548v0.882h-2.184c0.691,0.504,1.07,1.26,1.07,2.289v0.189c0,2.205-1.658,3.359-3.863,3.359
		c-0.715,0-1.364-0.126-1.932-0.357c-0.357,0.296-0.631,0.736-0.631,1.22c0,0.649,0.398,1.049,1.176,1.049h3.066
		c1.889,0,3.296,0.716,3.296,2.751c0,1.827-1.448,3.443-5.019,3.443C184.958,33.949,183.593,32.731,183.593,31.157z M192.055,30.674
		c0-1.364-0.777-1.827-2.268-1.827h-3.15c-1.049,0.357-1.848,1.051-1.848,2.163c0,1.155,0.902,1.995,3.402,1.995
		C191.025,33.005,192.055,31.954,192.055,30.674z M191.004,22.527v-0.252c0-1.659-1.092-2.415-2.729-2.415
		c-1.659,0-2.73,0.861-2.73,2.394v0.252c0,1.617,1.113,2.437,2.73,2.437C189.956,24.942,191.004,24.123,191.004,22.527z"/>
	<path fill="#848484" d="M194.198,29.204V28.28c0.86,0.378,1.723,0.714,3.233,0.714c1.932,0,2.646-0.798,2.646-1.933
		c0-1.218-0.565-1.658-2.078-2.1l-1.153-0.336c-1.576-0.439-2.521-1.134-2.521-2.855c0-1.659,1.133-2.813,3.464-2.813
		c1.363,0,2.268,0.315,2.855,0.63v0.945c-0.651-0.315-1.701-0.588-2.793-0.588c-1.639,0-2.457,0.63-2.457,1.743
		c0,1.092,0.504,1.554,1.826,1.932l1.176,0.336c1.933,0.546,2.814,1.176,2.814,3.023c0,1.806-1.219,2.98-3.654,2.98
		C196.129,29.96,194.997,29.646,194.198,29.204z"/>
</g>
</svg>
