<?xml version="1.0" encoding="utf-8"?>
<!-- Generator: Adobe Illustrator 16.0.4, SVG Export Plug-In . SVG Version: 6.00 Build 0)  -->
<!DOCTYPE svg PUBLIC "-//W3C//DTD SVG 1.1//EN" "http://www.w3.org/Graphics/SVG/1.1/DTD/svg11.dtd">
<svg version="1.1" id="Layer_1" xmlns="http://www.w3.org/2000/svg" xmlns:xlink="http://www.w3.org/1999/xlink" x="0px" y="0px"
	 width="320px" height="34px" viewBox="0 0 320 34" enable-background="new 0 0 320 34" xml:space="preserve">
<polygon opacity="0.8" fill="#06B052" points="4.994,17 10.349,8.968 16.453,17 "/>
<polygon fill="#754D9E" points="17.633,17 22.988,8.968 29.092,17 "/>
<polygon opacity="0.9" fill="#ED2A25" points="30.272,17 35.627,8.968 41.732,17 "/>
<polygon opacity="0.9" fill="#F8ED40" points="42.913,17 48.267,8.968 54.372,17 "/>
<polygon opacity="0.9" fill="#426EB5" points="48.052,17 42.697,25.033 36.592,17 "/>
<polygon opacity="0.9" fill="#ED4798" points="35.412,17 30.057,25.033 23.953,17 "/>
<polygon opacity="0.9" fill="#F7961D" points="22.773,17 17.418,25.033 11.313,17 "/>
<polygon opacity="0.8" fill="#06B052" points="314.321,18 308.967,9.968 302.862,18 "/>
<polygon fill="#754D9E" points="301.684,18 296.328,9.968 290.223,18 "/>
<polygon opacity="0.9" fill="#ED2A25" points="289.043,18 283.688,9.968 277.584,18 "/>
<polygon opacity="0.9" fill="#F8ED40" points="276.402,18 271.049,9.968 264.943,18 "/>
<polygon opacity="0.9" fill="#426EB5" points="271.264,18 276.619,26.032 282.724,18 "/>
<polygon opacity="0.9" fill="#ED4798" points="283.903,18 289.258,26.032 295.362,18 "/>
<polygon opacity="0.9" fill="#F7961D" points="296.543,18 301.897,26.032 308.002,18 "/>
<path fill="#9E9E9E" d="M71.022,8.521h1.509l3.003,10.594L79.75,8.521h0.305l4.166,10.594l3.055-10.594h1.498l-4.225,14.703h-0.273
	l-4.364-11.125l-4.447,11.125H75.19L71.022,8.521z"/>
<path fill="#9E9E9E" d="M91.783,8.151h1.399v6.147c0.566-0.746,1.19-1.304,1.87-1.674c0.68-0.369,1.416-0.554,2.209-0.554
	c0.812,0,1.534,0.207,2.164,0.62c0.629,0.413,1.094,0.968,1.395,1.665c0.3,0.696,0.45,1.787,0.45,3.273v5.597h-1.4v-5.187
	c0-1.253-0.049-2.089-0.149-2.51c-0.173-0.72-0.488-1.261-0.945-1.625c-0.456-0.362-1.054-0.544-1.793-0.544
	c-0.846,0-1.604,0.28-2.273,0.84c-0.671,0.56-1.112,1.253-1.325,2.079c-0.133,0.534-0.2,1.521-0.2,2.959v3.987h-1.399V8.151z"/>
<path fill="#9E9E9E" d="M115.614,12.349v10.875h-1.379v-1.868c-0.586,0.713-1.245,1.248-1.974,1.608
	c-0.73,0.359-1.528,0.539-2.394,0.539c-1.539,0-2.854-0.559-3.943-1.673c-1.09-1.116-1.634-2.474-1.634-4.074
	c0-1.565,0.549-2.905,1.649-4.018c1.1-1.113,2.422-1.669,3.968-1.669c0.893,0,1.7,0.19,2.424,0.569
	c0.723,0.38,1.357,0.949,1.904,1.709v-1.999H115.614z M110.022,13.418c-0.779,0-1.498,0.192-2.157,0.575
	c-0.659,0.383-1.183,0.92-1.573,1.611c-0.389,0.693-0.583,1.425-0.583,2.197c0,0.766,0.196,1.498,0.589,2.197
	s0.92,1.241,1.583,1.632c0.662,0.39,1.373,0.584,2.131,0.584c0.766,0,1.491-0.192,2.177-0.579c0.685-0.386,1.213-0.909,1.582-1.567
	c0.37-0.658,0.554-1.401,0.554-2.227c0-1.256-0.415-2.309-1.243-3.154C112.253,13.841,111.233,13.418,110.022,13.418z"/>
<path fill="#9E9E9E" d="M120.494,8.311h1.399v4.039h2.219v1.209h-2.219v9.666h-1.399v-9.666h-1.909v-1.209h1.909V8.311z"/>
<path fill="#9E9E9E" d="M132.19,13.539l-0.9,0.929c-0.748-0.726-1.479-1.089-2.194-1.089c-0.454,0-0.844,0.15-1.167,0.45
	c-0.324,0.3-0.486,0.65-0.486,1.05c0,0.353,0.133,0.689,0.4,1.009c0.267,0.327,0.828,0.711,1.683,1.15
	c1.042,0.538,1.75,1.059,2.123,1.559c0.368,0.507,0.551,1.076,0.551,1.709c0,0.894-0.314,1.65-0.941,2.269
	c-0.627,0.62-1.412,0.93-2.352,0.93c-0.627,0-1.227-0.137-1.797-0.409c-0.571-0.272-1.042-0.649-1.417-1.13l0.879-0.999
	c0.715,0.807,1.473,1.208,2.274,1.208c0.561,0,1.038-0.179,1.433-0.538c0.393-0.359,0.59-0.783,0.59-1.269
	c0-0.401-0.129-0.756-0.39-1.071c-0.261-0.307-0.848-0.693-1.763-1.16c-0.981-0.506-1.649-1.004-2.003-1.497
	c-0.354-0.494-0.53-1.057-0.53-1.69c0-0.826,0.282-1.512,0.846-2.059c0.564-0.547,1.276-0.819,2.138-0.819
	C130.167,12.069,131.175,12.559,132.19,13.539z"/>
<path fill="#9E9E9E" d="M140.189,12.349h1.479l3.738,8.375l3.629-8.375h1.49l-6.487,14.853h-1.478l2.094-4.803L140.189,12.349z"/>
<path fill="#9E9E9E" d="M157.993,12.069c1.676,0,3.064,0.606,4.167,1.819c1,1.106,1.502,2.416,1.502,3.928
	c0,1.519-0.53,2.847-1.588,3.984c-1.059,1.136-2.418,1.703-4.081,1.703c-1.668,0-3.032-0.567-4.09-1.703
	c-1.059-1.137-1.588-2.465-1.588-3.984c0-1.505,0.501-2.812,1.502-3.918C154.919,12.679,156.311,12.069,157.993,12.069z
	 M157.988,13.439c-1.163,0-2.164,0.429-3,1.289c-0.835,0.86-1.253,1.899-1.253,3.118c0,0.787,0.19,1.519,0.572,2.199
	c0.38,0.68,0.896,1.205,1.545,1.575c0.647,0.37,1.36,0.553,2.136,0.553c0.776,0,1.487-0.183,2.137-0.553
	c0.648-0.37,1.164-0.896,1.544-1.575c0.382-0.68,0.573-1.412,0.573-2.199c0-1.219-0.421-2.258-1.261-3.118
	C160.144,13.868,159.145,13.439,157.988,13.439z"/>
<path fill="#9E9E9E" d="M166.582,12.349h1.399v5.077c0,1.24,0.066,2.094,0.199,2.559c0.2,0.668,0.583,1.193,1.146,1.58
	c0.564,0.387,1.237,0.579,2.019,0.579s1.442-0.188,1.987-0.565c0.543-0.375,0.918-0.869,1.125-1.483
	c0.141-0.419,0.21-1.31,0.21-2.669v-5.077h1.431v5.337c0,1.499-0.176,2.629-0.525,3.39c-0.35,0.758-0.876,1.353-1.579,1.782
	c-0.703,0.431-1.584,0.645-2.644,0.645s-1.944-0.214-2.655-0.645c-0.709-0.43-1.239-1.028-1.588-1.799
	c-0.35-0.769-0.524-1.928-0.524-3.473V12.349z"/>
<path fill="#9E9E9E" d="M179.187,12.349h1.429v1.589c0.428-0.626,0.876-1.095,1.351-1.404c0.472-0.311,0.966-0.465,1.479-0.465
	c0.386,0,0.8,0.124,1.24,0.37l-0.731,1.179c-0.293-0.126-0.539-0.189-0.739-0.189c-0.467,0-0.916,0.192-1.351,0.574
	c-0.433,0.385-0.762,0.979-0.988,1.785c-0.173,0.619-0.261,1.872-0.261,3.757v3.679h-1.429V12.349z"/>
<path fill="#9E9E9E" d="M191.675,8.521h1.6l4.873,11.358l4.953-11.358h1.598l-6.396,14.703h-0.319L191.675,8.521z"/>
<path fill="#9E9E9E" d="M208.034,7.871c0.318,0,0.591,0.113,0.816,0.34s0.339,0.5,0.339,0.82c0,0.313-0.113,0.583-0.339,0.809
	c-0.226,0.227-0.498,0.34-0.816,0.34c-0.312,0-0.58-0.113-0.806-0.34c-0.225-0.227-0.338-0.496-0.338-0.809
	c0-0.32,0.113-0.593,0.338-0.82C207.454,7.984,207.723,7.871,208.034,7.871z M207.34,12.349h1.398v10.875h-1.398V12.349z"/>
<path fill="#9E9E9E" d="M212.249,23.224V8.151h1.399v6.067c0.585-0.72,1.241-1.258,1.965-1.615c0.727-0.356,1.522-0.534,2.387-0.534
	c1.539,0,2.851,0.559,3.94,1.673c1.089,1.117,1.633,2.471,1.633,4.064c0,1.572-0.551,2.916-1.647,4.027
	c-1.1,1.114-2.421,1.669-3.965,1.669c-0.886,0-1.688-0.189-2.406-0.569c-0.719-0.378-1.354-0.949-1.906-1.709v1.999H212.249z
	 M217.847,22.155c0.775,0,1.494-0.192,2.153-0.577c0.658-0.381,1.18-0.92,1.569-1.613c0.39-0.692,0.584-1.426,0.584-2.199
	c0-0.773-0.196-1.509-0.588-2.208c-0.394-0.7-0.92-1.245-1.582-1.635c-0.661-0.389-1.368-0.584-2.118-0.584
	c-0.764,0-1.49,0.195-2.178,0.584c-0.69,0.39-1.218,0.915-1.586,1.574c-0.369,0.66-0.556,1.404-0.556,2.229
	c0,1.26,0.415,2.312,1.243,3.159C215.616,21.73,216.636,22.155,217.847,22.155z"/>
<path fill="#9E9E9E" d="M235.789,19.614l1.18,0.621c-0.387,0.76-0.835,1.372-1.341,1.84c-0.507,0.466-1.076,0.821-1.712,1.063
	c-0.633,0.243-1.35,0.364-2.149,0.364c-1.774,0-3.162-0.58-4.161-1.744c-1.001-1.162-1.502-2.478-1.502-3.943
	c0-1.378,0.424-2.608,1.271-3.688c1.073-1.372,2.511-2.059,4.312-2.059c1.854,0,3.334,0.703,4.442,2.108
	c0.787,0.993,1.188,2.233,1.201,3.718h-9.786c0.026,1.263,0.431,2.3,1.21,3.106c0.781,0.808,1.745,1.212,2.893,1.212
	c0.556,0,1.094-0.097,1.616-0.288c0.525-0.192,0.97-0.447,1.336-0.766C234.966,20.839,235.362,20.327,235.789,19.614z
	 M235.789,16.687c-0.187-0.747-0.459-1.343-0.815-1.789c-0.356-0.447-0.829-0.806-1.417-1.08c-0.587-0.273-1.203-0.409-1.852-0.409
	c-1.066,0-1.983,0.343-2.75,1.029c-0.562,0.5-0.985,1.25-1.271,2.25H235.789z"/>
<path fill="#9E9E9E" d="M243.268,9.324c0.823-0.876,1.954-1.314,3.391-1.314c1.328,0,2.393,0.375,3.192,1.125
	c0.799,0.749,1.199,1.707,1.199,2.874c0,0.706-0.146,1.279-0.435,1.719c-0.29,0.439-0.885,1.086-1.782,1.939
	c-0.653,0.619-1.08,1.144-1.276,1.574c-0.197,0.43-0.296,1.064-0.296,1.904h-1.777c0-0.953,0.111-1.721,0.338-2.304
	c0.227-0.583,0.731-1.251,1.513-2.004l0.815-0.789c0.245-0.227,0.443-0.464,0.597-0.71c0.276-0.434,0.416-0.883,0.416-1.35
	c0-0.653-0.201-1.219-0.6-1.699c-0.396-0.479-1.055-0.719-1.974-0.719c-1.136,0-1.923,0.413-2.357,1.239
	c-0.246,0.46-0.383,1.123-0.419,1.989h-1.778C242.034,11.358,242.445,10.201,243.268,9.324z"/>
<polygon opacity="0.9" fill="#ED2A25" points="246.096,22.224 246.808,23.588 245.381,23.588 "/>
<polygon opacity="0.9" fill="#426EB5" points="247.521,22.224 248.234,23.588 246.808,23.588 "/>
<polygon fill="#754D9E" points="246.104,22.224 247.468,22.224 246.808,23.588 "/>
<polygon opacity="0.9" fill="#F8ED40" points="247.521,24.954 246.808,23.588 248.234,23.588 "/>
<polygon opacity="0.9" fill="#F7961D" points="246.096,24.954 245.381,23.588 246.808,23.588 "/>
<polygon opacity="0.8" fill="#06B052" points="247.512,24.954 246.146,24.954 246.808,23.588 "/>
<line opacity="0.7" fill="none" stroke="#9E9E9E" stroke-miterlimit="10" x1="5" y1="29.5" x2="315" y2="29.5"/>
<line opacity="0.7" fill="none" stroke="#9E9E9E" stroke-miterlimit="10" x1="3" y1="4.5" x2="313" y2="4.5"/>
</svg>
