<?xml version="1.0" encoding="utf-8"?>
<!-- Generator: Adobe Illustrator 16.0.0, SVG Export Plug-In . SVG Version: 6.00 Build 0)  -->
<!DOCTYPE svg PUBLIC "-//W3C//DTD SVG 1.1//EN" "http://www.w3.org/Graphics/SVG/1.1/DTD/svg11.dtd">
<svg version="1.1" id="Layer_1" xmlns="http://www.w3.org/2000/svg" xmlns:xlink="http://www.w3.org/1999/xlink" x="0px" y="0px"
	 width="60.332px" height="88px" viewBox="85.969 0.038 60.332 88" enable-background="new 85.969 0.038 60.332 88"
	 xml:space="preserve">
<image display="none" overflow="visible" enable-background="new    " width="232" height="88" xlink:href="pins.png" >
</image>
<g>
	<g id="Layer_1_2_">
		<g id="body">
			
				<linearGradient id="SVGID_1_" gradientUnits="userSpaceOnUse" x1="1020.0117" y1="509.5557" x2="1059.4863" y2="509.5557" gradientTransform="matrix(1 0 0 1 -923.5 -473.8965)">
				<stop  offset="0" style="stop-color:#F8ED34;stop-opacity:0.8"/>
				<stop  offset="1" style="stop-color:#FBB041;stop-opacity:0.8"/>
			</linearGradient>
			<path fill="url(#SVGID_1_)" d="M106.38,41.782l-9.868-6.124l9.868-6.123h19.735l9.871,6.123l-9.871,6.124H106.38L106.38,41.782z"
				/>
			<path fill="#EB3B94" d="M104.142,83.607L91.975,62.535l12.167-21.075h24.333l12.166,21.075l-12.166,21.072H104.142
				L104.142,83.607z"/>
			<path fill="#7ACDCB" d="M126.207,41.749l9.729-6.117l10.162,5.367l0.434,11.485l-9.73,6.118l-10.164-5.37L126.207,41.749z"/>
			<path fill="#F68521" d="M96.549,35.656l9.881,6.108l-5.261-8.996L96.549,35.656z"/>
			<path fill="#67BD47" d="M131.328,32.769l4.607,2.862l-9.729,6.117L131.328,32.769z"/>
			<path opacity="0.05" fill="#010101" enable-background="new    " d="M104.142,41.46L91.975,62.535l12.167,21.072h24.333
				L111.359,41.46H104.142z"/>
			<path fill="#EE3556" d="M106.43,41.765l-9.881-6.108L86.32,41.158L85.969,52.77l9.879,6.108l10.23-5.502L106.43,41.765z"/>
			<path opacity="0.1" fill="#010101" enable-background="new    " d="M86.32,41.158L85.969,52.77l9.879,6.108l10.23-5.502
				L86.32,41.158z M131.328,32.769l1.869,1.16l-6.99,7.818L131.328,32.769z M94.549,58.076l-2.574,4.459l14.104-9.158l-10.23,5.501
				L94.549,58.076z M140.641,62.535l-2.643-4.578l-1.197,0.645l-10.164-5.37L140.641,62.535z M85.969,52.77l0.138-4.533l12.92,8.933
				l-3.18,1.709L85.969,52.77z M146.098,40.998l-19.461,12.233l10.164,5.37l9.73-6.118L146.098,40.998z M146.531,52.483l-0.16-4.247
				l-12.16,8.996l2.59,1.369L146.531,52.483z"/>
			<path opacity="0.05" fill="#FFFFFF" enable-background="new    " d="M126.637,53.231l-8.438,5.069l10.275,25.307l2.797-4.843
				l9.369-16.23L126.637,53.231z"/>
			<path opacity="0.05" fill="#010101" enable-background="new    " d="M118.199,58.301L101.498,79.03l2.644,4.577h24.392
				L118.199,58.301z"/>
			<polygon opacity="0.1" fill="#010101" enable-background="new    " points="101.16,32.778 99.721,33.676 106.324,41.701 			"/>
			<polygon opacity="0.2" enable-background="new    " points="133.719,88.038 139.178,85.481 136.035,84.031 			"/>
			<g>
				<polygon fill="#5296D0" points="122.527,88.038 116.93,78.347 122.527,68.653 133.719,68.653 139.316,78.347 133.719,88.038 
									"/>
				<polygon opacity="0.1" enable-background="new    " points="122.527,68.653 133.719,88.038 122.527,88.038 116.93,78.347 				
					"/>
				<polygon opacity="0.1" enable-background="new    " points="117.773,78.347 123.174,87.684 125.322,87.684 				"/>
			</g>
			<g>
				<polygon fill="#A25BA4" points="95.511,88.038 89.918,78.345 95.511,68.653 106.703,68.653 112.301,78.345 106.703,88.038 				
					"/>
				<polygon opacity="0.1" enable-background="new    " points="95.511,68.653 106.703,88.038 95.511,88.038 89.918,78.345 				"/>
				<polygon opacity="0.1" enable-background="new    " points="90.291,78.345 95.686,87.687 97.839,87.687 				"/>
			</g>
			<polygon opacity="0.2" enable-background="new    " points="95.511,88.038 93.199,84.031 89.876,85.456 			"/>
			<polygon opacity="0.4" enable-background="new    " points="106.703,88.038 112.301,83.607 109.263,83.607 			"/>
			<polygon opacity="0.4" enable-background="new    " points="119.967,83.607 122.527,88.038 116.93,83.607 			"/>
			<polygon opacity="0.15" enable-background="new    " points="112.301,78.345 112.301,83.607 109.263,83.607 			"/>
			<polygon opacity="0.15" enable-background="new    " points="116.93,78.347 116.93,83.607 119.967,83.607 			"/>
		</g>
		<g id="head">
			<path fill="#F9ED2D" d="M106.661,43.407l-9.868-17.092l9.868-17.093h19.738l9.869,17.093l-9.869,17.092H106.661z"/>
			<polygon opacity="0.05" fill="#010101" enable-background="new    " points="106.661,9.221 96.793,26.314 106.711,43.375 
				126.486,43.358 			"/>
			<polygon opacity="0.05" fill="#010101" enable-background="new    " points="116.529,26.213 106.711,43.375 126.486,43.358 			
				"/>
			<polygon opacity="0.07" fill="#010101" enable-background="new    " points="106.661,9.221 116.529,26.213 126.398,9.221 			"/>
			<path fill="#E2E2E2" d="M104.014,13.807c0,0,2.158-3.627,11.858-3.627c9.7,0,13.114,3.627,13.114,3.627l2.367-2.953
				c0,0-6.092-3.275-15.409-3.275c-9.318,0-14.953,3.275-14.953,3.275"/>
			<path fill="#F0EFEF" d="M135.109,31.704l2.684-10.424l-2.684-10.424h-5.363l-2.682,10.424l2.682,10.425L135.109,31.704z
				 M137.514,26.503l1.346-5.224l-1.346-5.223h-2.688l-1.346,5.223l1.346,5.224H137.514z"/>
			<path opacity="0.2" fill="#010101" enable-background="new    " d="M137.514,16.057l-1.346,5.223l1.346,5.224h-2.688
				l-1.346-5.097l1.346-5.349H137.514L137.514,16.057z M135.109,10.854h-5.363l-2.682,10.425l2.682,10.424h5.363l-3.605-10.425
				L135.109,10.854z"/>
			<path fill="#F0EFEF" d="M97.89,31.704l-2.682-10.424l2.682-10.424h5.364l2.683,10.424l-2.683,10.425L97.89,31.704z
				 M95.488,26.503l-1.344-5.224l1.344-5.223h2.688l1.343,5.223l-1.343,5.224H95.488z"/>
			<polygon opacity="0.2" fill="#010101" enable-background="new    " points="95.488,16.057 96.832,21.279 95.488,26.503 
				98.177,26.503 99.52,21.406 98.177,16.057 			"/>
			<polygon opacity="0.2" fill="#010101" enable-background="new    " points="97.89,10.855 103.254,10.855 105.938,21.279 
				103.254,31.705 97.89,31.705 101.498,21.279 			"/>
			<path opacity="0.4" fill="#BCBCBC" enable-background="new    " d="M104.014,13.807c0,0,2.309-3.625,12.158-3.625
				c9.852,0,12.814,3.626,12.814,3.626l0.172-0.667c0,0-3.586-3.575-12.986-3.575c-9.401,0-12.429,3.186-12.429,3.186
				L104.014,13.807L104.014,13.807z"/>
			<g>
				<polygon opacity="0.05" fill="#010101" enable-background="new    " points="99.926,31.704 101.44,34.388 103.254,31.704 				
					"/>
				<polygon opacity="0.05" fill="#010101" enable-background="new    " points="129.98,31.704 131.496,34.388 133.311,31.704 				
					"/>
			</g>
			<path opacity="0.4" fill="#BCBCBC" enable-background="new    " d="M100.992,10.854l2.262,0c0,0,3.936-2.661,12.918-2.661
				c8.983,0,13.497,2.661,13.497,2.661h1.684c0,0-6.178-3.275-15.181-3.275C107.169,7.579,100.992,10.854,100.992,10.854z"/>
			
				<animateTransform  id="one" restart="always" additive="replace" from="0,0" accumulate="none" to="0,-5" calcMode="linear" dur="0.8s" attributeName="transform" attributeType="XML" type="translate" fill="freeze" begin="0s;two.end+0.1s">
				</animateTransform>
			
				<animateTransform  id="two" restart="always" additive="replace" from="0,-5" accumulate="none" to="0,0" calcMode="linear" dur="0.8s" attributeName="transform" attributeType="XML" type="translate" fill="freeze" begin="one.end+0.1s">
				</animateTransform>
		</g>
	</g>
	<g id="music">
		<path id="_x36_" fill="#1D1D1B" d="M89.089,11.245c0.504,0,0.924-0.258,1.065-0.61v-0.499l-0.001-0.003V6.659l2.62-0.594v2.138
			c-0.103-0.025-0.212-0.042-0.328-0.042c-0.618,0-1.119,0.385-1.119,0.86c0,0.475,0.501,0.86,1.119,0.86
			c0.417,0,0.777-0.176,0.969-0.437V4.616l-0.641,0.118l-2.62,0.596l-0.655,0.119v4.139c-0.127-0.038-0.266-0.062-0.41-0.062
			c-0.618,0-1.119,0.385-1.119,0.86S88.471,11.245,89.089,11.245z"/>
		<path id="_x35_" fill="#1D1D1B" d="M88.192,21.05c0.348,0,0.64-0.178,0.737-0.421v-0.345l-0.001-0.002v-2.4l1.809-0.411v1.477
			c-0.072-0.017-0.146-0.029-0.226-0.029c-0.426,0-0.773,0.266-0.773,0.593c0,0.328,0.347,0.594,0.773,0.594
			c0.288,0,0.536-0.122,0.668-0.301v-3.334l-0.442,0.08l-1.809,0.412l-0.453,0.083v2.859c-0.088-0.027-0.183-0.042-0.283-0.042
			c-0.426,0-0.773,0.266-0.773,0.593C87.418,20.784,87.766,21.05,88.192,21.05z"/>
		<path id="_x34_" fill="#1D1D1B" d="M101.915,4.616c0.347,0,0.638-0.177,0.735-0.421V3.851l0-0.002v-2.4l1.81-0.411v1.477
			c-0.072-0.017-0.146-0.029-0.226-0.029c-0.427,0-0.773,0.266-0.773,0.593c0,0.328,0.346,0.593,0.773,0.593
			c0.288,0,0.536-0.121,0.669-0.301V0.038l-0.443,0.081l-1.81,0.412l-0.453,0.082v2.859c-0.088-0.027-0.183-0.043-0.282-0.043
			c-0.428,0-0.773,0.266-0.773,0.595C101.142,4.351,101.487,4.616,101.915,4.616z"/>
		<path id="_x33_" fill="#1D1D1B" d="M126.781,4.616c0.348,0,0.639-0.177,0.736-0.421V3.851l-0.002-0.002v-2.4l1.811-0.411v1.477
			c-0.072-0.017-0.146-0.029-0.227-0.029c-0.428,0-0.771,0.266-0.771,0.593c0,0.328,0.344,0.593,0.771,0.593
			c0.287,0,0.537-0.121,0.67-0.301V0.038l-0.443,0.081l-1.811,0.412l-0.451,0.082v2.859c-0.088-0.027-0.184-0.043-0.283-0.043
			c-0.428,0-0.771,0.266-0.771,0.595C126.01,4.351,126.354,4.616,126.781,4.616z"/>
		<path id="_x32_" fill="#1D1D1B" d="M138.805,10.896c0.506,0,0.926-0.258,1.064-0.609V9.788V9.785V6.311l2.619-0.596v2.14
			c-0.102-0.025-0.211-0.043-0.328-0.043c-0.617,0-1.119,0.385-1.119,0.86s0.502,0.86,1.119,0.86c0.418,0,0.779-0.178,0.971-0.437
			V4.268l-0.643,0.116l-2.619,0.596l-0.654,0.119v4.141c-0.127-0.039-0.268-0.062-0.41-0.062c-0.617,0-1.119,0.384-1.119,0.859
			C137.686,10.511,138.188,10.896,138.805,10.896z"/>
		<path id="_x31_" fill="#1D1D1B" d="M141.561,21.453c0.348,0,0.637-0.178,0.734-0.422v-0.343l-0.002-0.003v-2.398l1.811-0.411
			v1.477c-0.072-0.017-0.146-0.029-0.229-0.029c-0.424,0-0.771,0.266-0.771,0.595c0,0.327,0.348,0.593,0.771,0.593
			c0.291,0,0.537-0.122,0.67-0.301v-3.335l-0.441,0.081l-1.811,0.412l-0.453,0.082v2.859c-0.086-0.027-0.182-0.042-0.279-0.042
			c-0.428,0-0.775,0.265-0.775,0.594C140.785,21.186,141.133,21.453,141.561,21.453z"/>
		
			<animate  restart="always" additive="replace" from="1" accumulate="none" to="0" calcMode="linear" dur="5s" attributeName="opacity" attributeType="XML" fill="remove" repeatCount="indefinite">
			</animate>
	</g>
</g>
</svg>
